<svg width="17" height="21" viewBox="0 0 17 21" fill="none" xmlns="http://www.w3.org/2000/svg">
<path d="M11.4003 17.0111C11.4003 17.7272 11.1158 18.414 10.6095 18.9203C10.1031 19.4267 9.41639 19.7111 8.70031 19.7111C7.98423 19.7111 7.29747 19.4267 6.79112 18.9203C6.28478 18.414 6.00031 17.7272 6.00031 17.0111M9.34921 4.41385L8.02981 4.41115C5.02021 4.40395 2.40752 6.84925 2.38682 9.81114V13.2221C2.38682 13.9331 2.29682 14.627 1.90892 15.2183L1.65062 15.6125C1.25732 16.2101 1.68032 17.0111 2.38682 17.0111H15.0138C15.7203 17.0111 16.1424 16.2101 15.75 15.6125L15.4917 15.2183C15.1047 14.627 15.0138 13.9322 15.0138 13.2212V9.81204C14.9778 6.84925 12.3588 4.42105 9.34921 4.41385V4.41385Z" stroke="black" stroke-width="2" stroke-linecap="round" stroke-linejoin="round"/>
<path d="M8.70033 1.71094C9.17772 1.71094 9.63555 1.90058 9.97312 2.23814C10.3107 2.57571 10.5003 3.03355 10.5003 3.51094V4.41093H6.90033V3.51094C6.90033 3.03355 7.08997 2.57571 7.42754 2.23814C7.7651 1.90058 8.22294 1.71094 8.70033 1.71094Z" stroke="black" stroke-width="2" stroke-linecap="round" stroke-linejoin="round"/>
</svg>
