<svg width="18" height="14" viewBox="0 0 18 14" fill="none" xmlns="http://www.w3.org/2000/svg">
<path d="M1.5 2.5C1.5 2.10218 1.65804 1.72064 1.93934 1.43934C2.22064 1.15804 2.60218 1 3 1H15C15.3978 1 15.7794 1.15804 16.0607 1.43934C16.342 1.72064 16.5 2.10218 16.5 2.5V11.5C16.5 11.8978 16.342 12.2794 16.0607 12.5607C15.7794 12.842 15.3978 13 15 13H3C2.60218 13 2.22064 12.842 1.93934 12.5607C1.65804 12.2794 1.5 11.8978 1.5 11.5V2.5Z" stroke="black" stroke-width="2" stroke-linecap="round" stroke-linejoin="round"/>
<path d="M1.5 4L7.12575 8.50075C7.65772 8.92638 8.31871 9.15828 9 9.15828C9.68129 9.15828 10.3423 8.92638 10.8742 8.50075L16.5 4" stroke="black" stroke-width="2" stroke-linejoin="round"/>
</svg>
