<svg width="166" height="166" viewBox="0 0 166 166" fill="none" xmlns="http://www.w3.org/2000/svg">
<circle cx="83" cy="83" r="83" fill="white" fill-opacity="0.2"/>
<g filter="url(#filter0_f)">
<circle cx="83" cy="83" r="36" fill="#DC9F01"/>
</g>
<circle cx="83" cy="83" r="36" fill="#DC9F01"/>
<path d="M74.2363 84.8516H73.4946V86H72.9512V84.8516H70.521V84.356L72.8931 80.9756H73.4946V84.3354H74.2363V84.8516ZM72.9512 84.3354V82.6743C72.9512 82.3485 72.9626 81.9805 72.9854 81.5703H72.958C72.8486 81.7891 72.7461 81.9702 72.6504 82.1138L71.0884 84.3354H72.9512Z" fill="white"/>
<path d="M76.726 80.9312C77.1817 80.9312 77.5429 81.0371 77.8095 81.249C78.0761 81.4609 78.2094 81.7537 78.2094 82.1274C78.2094 82.3735 78.133 82.598 77.9804 82.8008C77.8277 83.0036 77.5839 83.1882 77.2489 83.3545C77.6545 83.5482 77.9428 83.7521 78.1137 83.9663C78.2846 84.1782 78.37 84.4243 78.37 84.7046C78.37 85.1193 78.2253 85.4508 77.9359 85.6992C77.6465 85.9453 77.2501 86.0684 76.7465 86.0684C76.2133 86.0684 75.8031 85.9521 75.516 85.7197C75.2289 85.485 75.0854 85.1535 75.0854 84.7251C75.0854 84.1532 75.434 83.7077 76.1312 83.3887C75.8168 83.2109 75.5912 83.0195 75.4545 82.8145C75.3178 82.6071 75.2494 82.3758 75.2494 82.1206C75.2494 81.7583 75.3827 81.4701 75.6493 81.2559C75.9182 81.0394 76.2771 80.9312 76.726 80.9312ZM75.6459 84.7388C75.6459 85.0122 75.7405 85.2253 75.9296 85.3779C76.121 85.5306 76.3887 85.6069 76.7328 85.6069C77.0723 85.6069 77.3367 85.5272 77.5258 85.3677C77.7149 85.2082 77.8095 84.9894 77.8095 84.7114C77.8095 84.4904 77.7206 84.2944 77.5429 84.1235C77.3651 83.9504 77.0552 83.7829 76.6132 83.6211C76.2737 83.7669 76.0276 83.9287 75.8749 84.1064C75.7222 84.2819 75.6459 84.4927 75.6459 84.7388ZM76.7191 81.3926C76.4343 81.3926 76.211 81.4609 76.0492 81.5977C75.8874 81.7344 75.8065 81.9167 75.8065 82.1445C75.8065 82.3542 75.8738 82.5342 76.0082 82.6846C76.1426 82.835 76.391 82.9854 76.7533 83.1357C77.0792 82.999 77.3093 82.8521 77.4437 82.6948C77.5805 82.5376 77.6488 82.3542 77.6488 82.1445C77.6488 81.9144 77.5657 81.7321 77.3993 81.5977C77.2353 81.4609 77.0085 81.3926 76.7191 81.3926Z" fill="white"/>
<path d="M80.282 85.1865L80.3333 85.2651C80.2741 85.493 80.1886 85.7573 80.077 86.0581C79.9653 86.3612 79.8491 86.6426 79.7283 86.9023H79.3011C79.3626 86.6654 79.4298 86.3726 79.5027 86.0239C79.5779 85.6753 79.6303 85.3962 79.66 85.1865H80.282Z" fill="white"/>
<path d="M83.0554 82.9478C83.5817 82.9478 83.9953 83.0788 84.2961 83.3408C84.5992 83.6006 84.7507 83.9572 84.7507 84.4106C84.7507 84.9279 84.5855 85.3335 84.2551 85.6274C83.927 85.9214 83.4735 86.0684 82.8947 86.0684C82.3319 86.0684 81.9024 85.9784 81.6062 85.7983V85.2515C81.7657 85.354 81.9639 85.4349 82.2009 85.4941C82.4379 85.5511 82.6714 85.5796 82.9016 85.5796C83.3026 85.5796 83.6136 85.485 83.8347 85.2959C84.058 85.1068 84.1696 84.8333 84.1696 84.4756C84.1696 83.7783 83.7424 83.4297 82.8879 83.4297C82.6714 83.4297 82.382 83.4627 82.0197 83.5288L81.7258 83.3408L81.9138 81.0029H84.3986V81.5259H82.3991L82.2727 83.0264C82.5347 82.974 82.7956 82.9478 83.0554 82.9478Z" fill="white"/>
<path d="M89.1612 83.4946C89.1612 84.3582 89.0245 85.0031 88.7511 85.4292C88.4799 85.8553 88.0641 86.0684 87.5035 86.0684C86.9658 86.0684 86.5567 85.8507 86.2765 85.4155C85.9962 84.978 85.8561 84.3377 85.8561 83.4946C85.8561 82.6242 85.9916 81.9782 86.2628 81.5566C86.534 81.1351 86.9475 80.9243 87.5035 80.9243C88.0458 80.9243 88.4571 81.1442 88.7374 81.584C89.02 82.0238 89.1612 82.6606 89.1612 83.4946ZM86.4303 83.4946C86.4303 84.2215 86.5157 84.7513 86.6866 85.084C86.8575 85.4144 87.1298 85.5796 87.5035 85.5796C87.8818 85.5796 88.1552 85.4121 88.3238 85.0771C88.4947 84.7399 88.5802 84.2124 88.5802 83.4946C88.5802 82.7769 88.4947 82.2516 88.3238 81.9189C88.1552 81.584 87.8818 81.4165 87.5035 81.4165C87.1298 81.4165 86.8575 81.5817 86.6866 81.9121C86.5157 82.2402 86.4303 82.7677 86.4303 83.4946Z" fill="white"/>
<path d="M90.6904 82.4932C90.6904 82.8805 90.7326 83.1711 90.8169 83.3647C90.9012 83.5584 91.0379 83.6553 91.2271 83.6553C91.6007 83.6553 91.7876 83.2679 91.7876 82.4932C91.7876 81.723 91.6007 81.3379 91.2271 81.3379C91.0379 81.3379 90.9012 81.4336 90.8169 81.625C90.7326 81.8164 90.6904 82.1058 90.6904 82.4932ZM92.2559 82.4932C92.2559 83.0127 92.1681 83.4058 91.9927 83.6724C91.8195 83.9367 91.5643 84.0688 91.2271 84.0688C90.908 84.0688 90.6597 83.9333 90.4819 83.6621C90.3065 83.391 90.2188 83.0013 90.2188 82.4932C90.2188 81.9759 90.3031 81.5863 90.4717 81.3242C90.6426 81.0622 90.8944 80.9312 91.2271 80.9312C91.5575 80.9312 91.8115 81.0667 91.9893 81.3379C92.167 81.609 92.2559 81.9941 92.2559 82.4932ZM93.6982 84.4961C93.6982 84.8857 93.7404 85.1774 93.8247 85.3711C93.909 85.5625 94.0469 85.6582 94.2383 85.6582C94.4297 85.6582 94.571 85.5636 94.6621 85.3745C94.7533 85.1831 94.7988 84.8903 94.7988 84.4961C94.7988 84.1064 94.7533 83.8182 94.6621 83.6313C94.571 83.4422 94.4297 83.3477 94.2383 83.3477C94.0469 83.3477 93.909 83.4422 93.8247 83.6313C93.7404 83.8182 93.6982 84.1064 93.6982 84.4961ZM95.2671 84.4961C95.2671 85.0133 95.1794 85.4053 95.0039 85.6719C94.8307 85.9362 94.5755 86.0684 94.2383 86.0684C93.9147 86.0684 93.6652 85.9328 93.4897 85.6616C93.3166 85.3905 93.23 85.002 93.23 84.4961C93.23 83.9788 93.3143 83.5892 93.4829 83.3271C93.6538 83.0651 93.9056 82.9341 94.2383 82.9341C94.5618 82.9341 94.8136 83.0685 94.9937 83.3374C95.1759 83.604 95.2671 83.9902 95.2671 84.4961ZM94.3853 81.0029L91.6133 86H91.1108L93.8828 81.0029H94.3853Z" fill="white"/>
<defs>
<filter id="filter0_f" x="37" y="37" width="92" height="92" filterUnits="userSpaceOnUse" color-interpolation-filters="sRGB">
<feFlood flood-opacity="0" result="BackgroundImageFix"/>
<feBlend mode="normal" in="SourceGraphic" in2="BackgroundImageFix" result="shape"/>
<feGaussianBlur stdDeviation="5" result="effect1_foregroundBlur"/>
</filter>
</defs>
</svg>
