<svg xmlns="http://www.w3.org/2000/svg" width="45" height="46" fill="none"><g filter="url(#filter0_i)"><path fill="#000" d="M43.4 22c0-.33-.14-.64-.4-.85l-2.77-2.31 1.82-3.12a1.1 1.1 0 00-.59-1.6l-3.4-1.22.65-3.55a1.11 1.11 0 00-1.1-1.3l-3.6.01-.61-3.55a1.11 1.11 0 00-1.48-.85L28.53 4.9l-1.79-3.13a1.1 1.1 0 00-.77-.54 1.1 1.1 0 00-.9.25L22.3 3.8l-2.75-2.32a1.11 1.11 0 00-1.68.3l-1.8 3.12-3.38-1.24a1.1 1.1 0 00-1.47.85l-.61 3.55-3.6-.01H7a1.11 1.11 0 00-1.1 1.3l.64 3.55-3.39 1.22a1.11 1.11 0 00-.58 1.6l1.81 3.12-2.77 2.3a1.1 1.1 0 000 1.71l2.77 2.31-1.81 3.12a1.1 1.1 0 00.58 1.6l3.4 1.22-.64 3.55A1.1 1.1 0 007 35.95l3.6-.01.62 3.55a1.1 1.1 0 001.47.85l3.39-1.24 1.79 3.13c.16.28.45.48.77.54.32.06.66-.03.91-.25l2.75-2.32 2.75 2.32a1.12 1.12 0 001.68-.3l1.8-3.12 3.38 1.24a1.11 1.11 0 001.48-.85l.6-3.55 3.61.01c.32 0 .64-.14.86-.4.21-.25.3-.58.24-.9l-.64-3.55 3.4-1.22a1.1 1.1 0 00.58-1.6l-1.82-3.12 2.77-2.3c.26-.22.4-.53.4-.86"/></g><path fill="#FEB700" d="M43.4 22c0-.33-.14-.64-.4-.85l-2.77-2.31 1.82-3.12a1.1 1.1 0 00-.59-1.6l-3.4-1.22.65-3.55a1.11 1.11 0 00-1.1-1.3l-3.6.01-.61-3.55a1.11 1.11 0 00-1.48-.85L28.53 4.9l-1.79-3.13a1.1 1.1 0 00-.77-.54 1.1 1.1 0 00-.9.25L22.3 3.8l-2.75-2.32a1.11 1.11 0 00-1.68.3l-1.8 3.12-3.38-1.24a1.1 1.1 0 00-1.47.85l-.61 3.55-3.6-.01H7a1.11 1.11 0 00-1.1 1.3l.64 3.55-3.39 1.22a1.11 1.11 0 00-.58 1.6l1.81 3.12-2.77 2.3a1.1 1.1 0 000 1.71l2.77 2.31-1.81 3.12a1.1 1.1 0 00.58 1.6l3.4 1.22-.64 3.55A1.1 1.1 0 007 35.95l3.6-.01.62 3.55a1.1 1.1 0 001.47.85l3.39-1.24 1.79 3.13c.16.28.45.48.77.54.32.06.66-.03.91-.25l2.75-2.32 2.75 2.32a1.12 1.12 0 001.68-.3l1.8-3.12 3.38 1.24a1.11 1.11 0 001.48-.85l.6-3.55 3.61.01c.32 0 .64-.14.86-.4.21-.25.3-.58.24-.9l-.64-3.55 3.4-1.22a1.1 1.1 0 00.58-1.6l-1.82-3.12 2.77-2.3c.26-.22.4-.53.4-.86"/><path stroke="#fff" stroke-width="2" d="M43.4 22c0-.33-.14-.64-.4-.85l-2.77-2.31 1.82-3.12a1.1 1.1 0 00-.59-1.6l-3.4-1.22.65-3.55a1.11 1.11 0 00-1.1-1.3h0l-3.6.01-.61-3.55a1.11 1.11 0 00-1.48-.85L28.53 4.9l-1.79-3.13a1.1 1.1 0 00-.77-.54 1.1 1.1 0 00-.9.25L22.3 3.8l-2.75-2.32a1.11 1.11 0 00-1.68.3l-1.8 3.12-3.38-1.24a1.1 1.1 0 00-1.47.85l-.61 3.55-3.6-.01H7a1.11 1.11 0 00-1.1 1.3l.64 3.55-3.39 1.22a1.11 1.11 0 00-.58 1.6l1.81 3.12-2.77 2.3a1.1 1.1 0 000 1.71l2.77 2.31-1.81 3.12a1.1 1.1 0 00.58 1.6l3.4 1.22-.64 3.55A1.1 1.1 0 007 35.95h0l3.6-.01.62 3.55a1.1 1.1 0 001.47.85l3.39-1.24 1.79 3.13c.16.28.45.48.77.54.32.06.66-.03.91-.25l2.75-2.32 2.75 2.32a1.12 1.12 0 001.68-.3l1.8-3.12 3.38 1.24a1.11 1.11 0 001.48-.85l.6-3.55 3.61.01c.32 0 .64-.14.86-.4.21-.25.3-.58.24-.9l-.64-3.55 3.4-1.22a1.1 1.1 0 00.58-1.6l-1.82-3.12 2.77-2.3c.26-.22.4-.53.4-.86"/><path fill="#40550E" d="M16.67 34.4h11.34v-2.27H16.67v2.28zm15.82-15.37c0 1.7-1.13 3.2-2.73 3.78.03-.26.05-.51.05-.78V16.6h2.68v2.43zm-20.3 0V16.6h2.76v5.43c0 .27.02.54.06.8a4.08 4.08 0 01-2.82-3.8zm17.62-3.57V13.9H14.95v1.56H11v3.57a5.27 5.27 0 004.27 5.06 7.37 7.37 0 006.54 5.04v1.94c-1.42.1-2.53.52-2.74 1.06h6.63c-.22-.54-1.33-.96-2.75-1.06v-1.94a7.36 7.36 0 006.55-5.06 5.27 5.27 0 004.18-5.04v-3.57h-3.87z"/><path fill="#F9F9F9" d="M19.44 25.64c-.3 0-.54-.03-.76-.09v-1.07c.22.06.42.09.6.09.29 0 .5-.1.61-.27.12-.17.18-.45.18-.82v-5.69h1.3v5.68c0 .7-.17 1.25-.5 1.62-.32.37-.8.55-1.43.55zM24.18 20.65h.42c.4 0 .7-.08.89-.23.2-.16.3-.4.3-.69 0-.3-.1-.52-.26-.67-.16-.14-.42-.21-.77-.21h-.58v1.8zm2.9-.97c0 .66-.2 1.16-.61 1.5-.41.35-.99.52-1.74.52h-.55v2.16h-1.3v-6.07h1.95c.73 0 1.3.16 1.67.48.39.31.58.79.58 1.41z"/><defs><filter id="filter0_i" width="42.18" height="43.571" x="1.222" y="1.215" color-interpolation-filters="sRGB" filterUnits="userSpaceOnUse"><feFlood flood-opacity="0" result="BackgroundImageFix"/><feBlend in="SourceGraphic" in2="BackgroundImageFix" result="shape"/><feColorMatrix in="SourceAlpha" result="hardAlpha" values="0 0 0 0 0 0 0 0 0 0 0 0 0 0 0 0 0 0 127 0"/><feOffset dy="2"/><feGaussianBlur stdDeviation="2"/><feComposite in2="hardAlpha" k2="-1" k3="1" operator="arithmetic"/><feColorMatrix values="0 0 0 0 0 0 0 0 0 0 0 0 0 0 0 0 0 0 0.3 0"/><feBlend in2="shape" result="effect1_innerShadow"/></filter></defs></svg>