<svg fill="none" xmlns="http://www.w3.org/2000/svg">
<g clip-path="url(#clip0_1443_16253)">
<path d="M367.787 148.91C376.95 111.939 402.184 85.2082 434.506 64.4718C466.86 43.7148 506.073 29.1202 542.814 16.339C605.21 -5.36637 669.272 -0.334395 731.32 23.0354C735.132 24.4709 738.97 25.9069 742.827 27.3496C777.34 40.2616 813.285 53.7089 843.946 72.0725C877.979 92.4558 905.187 118.718 916.563 156.674C940.847 237.7 897.937 323.472 840.644 387.043C786.675 446.926 708.912 483.484 629.092 475.38C592.65 471.68 562.263 454.56 535.1 430.979C508.315 407.727 484.815 378.331 461.798 349.54C461.44 349.091 461.082 348.643 460.724 348.195C455.242 341.339 449.588 334.448 443.896 327.511C424.224 303.535 404.088 278.994 388.965 253.316C369.513 220.288 358.639 185.819 367.787 148.91Z" stroke="#7E96B4" stroke-width="5"/>
<path d="M1079.6 1552.77C1200.16 1612.69 1225.14 1743.72 1241.36 1857.63C1255.14 1954.41 1222.66 2041.24 1159.65 2116.89C1155.84 2121.47 1152.02 2126.08 1148.17 2130.72C1074.46 2219.66 994.091 2316.65 861.641 2313.72C713.294 2310.44 582.483 2210.89 495.42 2102.17C413.188 1999.47 379.85 1874.45 423.435 1767.1C443.366 1718.01 483.997 1683.47 534.481 1656.39C584.195 1629.72 643.156 1610.45 700.736 1591.63C701.654 1591.33 702.571 1591.03 703.488 1590.73C717.159 1586.26 730.968 1581.56 744.885 1576.83C793.081 1560.43 842.575 1543.6 892.118 1534.28C955.878 1522.28 1019.35 1522.83 1079.6 1552.77Z" stroke="#204769" stroke-width="5"/>
<path d="M2270.98 2625.36C2320.82 2769.87 2240.36 2892.48 2166.19 2994.48C2103.13 3081.21 2010.99 3122.73 1903.21 3130.81C1896.67 3131.3 1890.1 3131.81 1883.49 3132.32C1757.16 3142.12 1619.21 3152.82 1516.34 3043.25C1401.14 2920.55 1373.55 2736.85 1387.63 2581.52C1400.94 2434.74 1470.1 2310.12 1586.73 2261.56C1640.08 2239.35 1698.73 2245.26 1759.48 2264.98C1819.29 2284.39 1880.77 2317.06 1940.78 2348.94C1941.74 2349.45 1942.7 2349.96 1943.66 2350.47C1957.91 2358.04 1972.43 2365.54 1987.08 2373.1C2037.81 2399.3 2089.94 2426.21 2136.35 2459.03C2196.09 2501.28 2246.06 2553.12 2270.98 2625.36Z" stroke="#708CAE" stroke-width="5"/>
<path d="M1089.56 3514.11C1139.4 3658.62 1058.94 3781.23 984.773 3883.23C921.706 3969.96 829.572 4011.48 721.789 4019.56C715.253 4020.05 708.679 4020.56 702.072 4021.07C575.739 4030.87 437.788 4041.57 334.923 3932C219.718 3809.29 192.125 3625.6 206.21 3470.27C219.519 3323.49 288.677 3198.87 405.306 3150.31C458.659 3128.1 517.31 3134.01 578.06 3153.73C637.868 3173.14 699.351 3205.81 759.363 3237.69C760.323 3238.2 761.284 3238.71 762.244 3239.22C776.485 3246.79 791.014 3254.29 805.659 3261.85C856.393 3288.05 908.52 3314.96 954.933 3347.78C1014.67 3390.02 1064.64 3441.87 1089.56 3514.11Z" stroke="#708CAE" stroke-width="5"/>
<path d="M1971.74 485.123C2080.39 505.303 2128.17 596.127 2165.39 676.322C2196.92 744.239 2189.63 813.947 2155.65 881.555C2153.59 885.653 2151.53 889.779 2149.46 893.924C2109.72 973.512 2066.49 1060.08 1960.52 1083.88C1841.71 1110.57 1716.3 1063.37 1623.77 1000.88C1536.37 941.852 1483.37 857.057 1495.13 770.305C1500.49 730.705 1525.34 697.568 1559.76 667.858C1593.65 638.605 1636.49 612.941 1678.37 587.853L1680.35 586.667C1690.3 580.707 1700.3 574.555 1710.38 568.355C1745.28 546.896 1781.1 524.876 1818.56 508.342C1866.76 487.068 1917.4 475.03 1971.74 485.123Z" stroke="#7E96B4" stroke-width="5"/>
</g>
<defs>
<clipPath id="clip0_1443_16253">
<rect width="2426" height="4043" fill="white"/>
</clipPath>
</defs>
</svg>
