<svg width="4043" height="4043" viewBox="0 0 4043 4043" fill="none" xmlns="http://www.w3.org/2000/svg">
<g clip-path="url(#clip0_1443_16253)">
<path d="M1175.79 148.91C1184.95 111.939 1210.18 85.2082 1242.51 64.4718C1274.86 43.7148 1314.07 29.1202 1350.81 16.339C1413.21 -5.36637 1477.27 -0.334395 1539.32 23.0354C1543.13 24.4709 1546.97 25.9069 1550.83 27.3496C1585.34 40.2616 1621.28 53.7089 1651.95 72.0725C1685.98 92.4558 1713.19 118.718 1724.56 156.674C1748.85 237.7 1705.94 323.472 1648.64 387.043C1594.68 446.926 1516.91 483.484 1437.09 475.38C1400.65 471.68 1370.26 454.56 1343.1 430.979C1316.31 407.727 1292.81 378.331 1269.8 349.54C1269.44 349.091 1269.08 348.643 1268.72 348.195C1263.24 341.339 1257.59 334.448 1251.9 327.511C1232.22 303.535 1212.09 278.994 1196.97 253.316C1177.51 220.288 1166.64 185.819 1175.79 148.91Z" stroke="#7E96B4" stroke-width="5"/>
<path d="M1887.6 1552.77C2008.16 1612.69 2033.14 1743.72 2049.36 1857.63C2063.14 1954.41 2030.66 2041.24 1967.65 2116.89C1963.84 2121.47 1960.02 2126.08 1956.17 2130.72C1882.46 2219.66 1802.09 2316.65 1669.64 2313.72C1521.29 2310.44 1390.48 2210.89 1303.42 2102.17C1221.19 1999.47 1187.85 1874.45 1231.43 1767.1C1251.37 1718.01 1292 1683.47 1342.48 1656.39C1392.19 1629.72 1451.16 1610.45 1508.74 1591.63C1509.65 1591.33 1510.57 1591.03 1511.49 1590.73C1525.16 1586.26 1538.97 1581.56 1552.88 1576.83C1601.08 1560.43 1650.58 1543.6 1700.12 1534.28C1763.88 1522.28 1827.35 1522.83 1887.6 1552.77Z" stroke="#204769" stroke-width="5"/>
<path d="M3078.98 2625.36C3128.82 2769.87 3048.36 2892.48 2974.19 2994.48C2911.13 3081.21 2818.99 3122.73 2711.21 3130.81C2704.67 3131.3 2698.1 3131.81 2691.49 3132.32C2565.16 3142.12 2427.21 3152.82 2324.34 3043.25C2209.14 2920.55 2181.55 2736.85 2195.63 2581.52C2208.94 2434.74 2278.1 2310.12 2394.73 2261.56C2448.08 2239.35 2506.73 2245.26 2567.48 2264.98C2627.29 2284.39 2688.77 2317.06 2748.78 2348.94C2749.74 2349.45 2750.7 2349.96 2751.66 2350.47C2765.91 2358.04 2780.43 2365.54 2795.08 2373.1C2845.81 2399.3 2897.94 2426.21 2944.35 2459.03C3004.09 2501.28 3054.06 2553.12 3078.98 2625.36Z" stroke="#708CAE" stroke-width="5"/>
<path d="M1897.56 3514.11C1947.4 3658.62 1866.94 3781.23 1792.77 3883.23C1729.71 3969.96 1637.57 4011.48 1529.79 4019.56C1523.25 4020.05 1516.68 4020.56 1510.07 4021.07C1383.74 4030.87 1245.79 4041.57 1142.92 3932C1027.72 3809.29 1000.12 3625.6 1014.21 3470.27C1027.52 3323.49 1096.68 3198.87 1213.31 3150.31C1266.66 3128.1 1325.31 3134.01 1386.06 3153.73C1445.87 3173.14 1507.35 3205.81 1567.36 3237.69C1568.32 3238.2 1569.28 3238.71 1570.24 3239.22C1584.49 3246.79 1599.01 3254.29 1613.66 3261.85C1664.39 3288.05 1716.52 3314.96 1762.93 3347.78C1822.67 3390.02 1872.64 3441.87 1897.56 3514.11Z" stroke="#708CAE" stroke-width="5"/>
<path d="M2779.74 485.123C2888.39 505.303 2936.17 596.127 2973.39 676.322C3004.92 744.239 2997.63 813.947 2963.65 881.555C2961.59 885.653 2959.53 889.779 2957.46 893.924C2917.72 973.512 2874.49 1060.08 2768.52 1083.88C2649.71 1110.57 2524.3 1063.37 2431.77 1000.88C2344.37 941.852 2291.37 857.057 2303.13 770.305C2308.49 730.705 2333.34 697.568 2367.76 667.858C2401.65 638.605 2444.49 612.941 2486.37 587.853L2488.35 586.667C2498.3 580.707 2508.3 574.555 2518.38 568.355C2553.28 546.896 2589.1 524.876 2626.56 508.342C2674.76 487.068 2725.4 475.03 2779.74 485.123Z" stroke="#7E96B4" stroke-width="5"/>
</g>
<defs>
<clipPath id="clip0_1443_16253">
<rect width="4043" height="4043" fill="white"/>
</clipPath>
</defs>
</svg>
