<svg width="1440" height="4210" viewBox="0 0 1440 4210" fill="none" xmlns="http://www.w3.org/2000/svg">
<path d="M-168.213 148.91C-159.05 111.939 -133.816 85.2081 -101.494 64.4718C-69.1395 43.7148 -29.9267 29.1202 6.81439 16.339C69.2095 -5.36637 133.272 -0.334395 195.32 23.0354C199.132 24.4709 202.97 25.9069 206.827 27.3496C241.34 40.2616 277.285 53.7089 307.946 72.0725C341.979 92.4558 369.187 118.718 380.563 156.674C404.847 237.7 361.937 323.472 304.644 387.043C250.675 446.926 172.912 483.484 93.0918 475.38C56.65 471.68 26.2625 454.56 -0.900469 430.979C-27.6852 407.727 -51.1854 378.331 -74.2017 349.539C-74.56 349.091 -74.9182 348.643 -75.2763 348.195C-80.7582 341.338 -86.4117 334.448 -92.1039 327.511C-111.776 303.535 -131.912 278.994 -147.035 253.316C-166.487 220.288 -177.361 185.819 -168.213 148.91Z" stroke="#7E96B4" stroke-width="5"/>
<path d="M543.604 1552.77C664.157 1612.69 689.141 1743.72 705.358 1857.63C719.136 1954.41 686.658 2041.24 623.652 2116.89C619.84 2121.47 616.015 2126.08 612.173 2130.72C538.463 2219.67 458.091 2316.65 325.641 2313.72C177.294 2310.44 46.4825 2210.89 -40.5795 2102.17C-122.812 1999.47 -156.15 1874.45 -112.565 1767.1C-92.634 1718.01 -52.0031 1683.47 -1.5193 1656.39C48.1947 1629.72 107.156 1610.45 164.736 1591.63C165.653 1591.33 166.571 1591.03 167.488 1590.73C181.159 1586.26 194.968 1581.56 208.885 1576.83C257.081 1560.43 306.575 1543.6 356.118 1534.28C419.878 1522.28 483.349 1522.83 543.604 1552.77Z" stroke="#204769" stroke-width="5"/>
<path d="M1734.98 2625.36C1784.82 2769.87 1704.36 2892.48 1630.19 2994.48C1567.13 3081.21 1474.99 3122.73 1367.21 3130.81C1360.67 3131.3 1354.1 3131.81 1347.49 3132.32C1221.16 3142.12 1083.21 3152.82 980.344 3043.25C865.139 2920.55 837.546 2736.85 851.631 2581.52C864.94 2434.74 934.097 2310.12 1050.73 2261.56C1104.08 2239.35 1162.73 2245.26 1223.48 2264.98C1283.29 2284.39 1344.77 2317.06 1404.78 2348.94C1405.74 2349.45 1406.7 2349.96 1407.66 2350.47C1421.91 2358.04 1436.43 2365.54 1451.08 2373.1C1501.81 2399.3 1553.94 2426.21 1600.35 2459.03C1660.09 2501.28 1710.06 2553.12 1734.98 2625.36Z" stroke="#708CAE" stroke-width="5"/>
<path d="M553.56 3514.11C603.399 3658.62 522.939 3781.23 448.773 3883.23C385.706 3969.96 293.572 4011.48 185.789 4019.56C179.253 4020.05 172.679 4020.56 166.072 4021.07C39.7391 4030.87 -98.2117 4041.57 -201.077 3932C-316.282 3809.29 -343.875 3625.6 -329.79 3470.27C-316.481 3323.49 -247.323 3198.87 -130.694 3150.31C-77.3407 3128.1 -18.6896 3134.01 42.0601 3153.73C101.868 3173.14 163.351 3205.81 223.363 3237.69C224.323 3238.2 225.284 3238.71 226.244 3239.22C240.485 3246.79 255.014 3254.29 269.659 3261.85C320.393 3288.05 372.52 3314.96 418.933 3347.78C478.672 3390.02 528.644 3441.87 553.56 3514.11Z" stroke="#708CAE" stroke-width="5"/>
<path d="M1435.74 485.123C1544.39 505.303 1592.17 596.127 1629.39 676.322C1660.92 744.239 1653.63 813.947 1619.65 881.555C1617.59 885.653 1615.53 889.779 1613.46 893.924C1573.72 973.512 1530.49 1060.08 1424.52 1083.88C1305.71 1110.57 1180.3 1063.37 1087.77 1000.88C1000.37 941.852 947.372 857.057 959.125 770.305C964.491 730.705 989.344 697.568 1023.76 667.858C1057.65 638.605 1100.49 612.941 1142.37 587.853L1144.35 586.667C1154.3 580.707 1164.3 574.555 1174.38 568.355C1209.28 546.896 1245.1 524.876 1282.56 508.342C1330.76 487.068 1381.4 475.03 1435.74 485.123Z" stroke="#7E96B4" stroke-width="5"/>
</svg>
