<svg width="2650" height="32768" viewBox="0 0 2650 32768" fill="none" xmlns="http://www.w3.org/2000/svg">
<path d="M770.564 97.5899C776.569 73.36 793.106 55.842 814.289 42.2523C835.493 28.649 861.191 19.0842 885.27 10.708C926.161 -3.51691 968.145 -0.219149 1008.81 15.0965C1011.31 16.0372 1013.82 16.9783 1016.35 17.9238C1038.97 26.3859 1062.53 35.1987 1082.62 47.2334C1104.92 60.5918 1122.75 77.8032 1130.21 102.678C1146.12 155.779 1118 211.991 1080.46 253.653C1045.09 292.898 994.124 316.856 941.812 311.545C917.93 309.12 898.015 297.901 880.214 282.447C862.66 267.208 847.259 247.943 832.175 229.074C831.94 228.78 831.705 228.487 831.471 228.193C827.878 223.7 824.173 219.184 820.443 214.638C807.55 198.925 794.354 182.842 784.443 166.013C771.695 144.368 764.569 121.778 770.564 97.5899Z" stroke="#7E96B4" stroke-width="5"/>
<path d="M1237.06 1017.63C1316.07 1056.89 1332.44 1142.76 1343.07 1217.42C1352.1 1280.84 1330.81 1337.75 1289.52 1387.33C1287.02 1390.33 1284.52 1393.35 1282 1396.39C1233.69 1454.68 1181.02 1518.24 1094.22 1516.32C996.995 1514.17 911.267 1448.93 854.21 1377.68C800.318 1310.37 778.469 1228.44 807.033 1158.09C820.095 1125.92 846.723 1103.28 879.808 1085.53C912.389 1068.05 951.029 1055.42 988.765 1043.09C989.367 1042.89 989.968 1042.7 990.569 1042.5C999.528 1039.57 1008.58 1036.49 1017.7 1033.39C1049.28 1022.65 1081.72 1011.61 1114.19 1005.5C1155.97 997.643 1197.57 998.001 1237.06 1017.63Z" stroke="#204769" stroke-width="5"/>
<path d="M2017.84 1720.56C2050.5 1815.26 1997.77 1895.62 1949.17 1962.46C1907.84 2019.3 1847.45 2046.51 1776.82 2051.81C1772.53 2052.13 1768.23 2052.46 1763.9 2052.8C1681.1 2059.22 1590.7 2066.23 1523.28 1994.43C1447.78 1914.01 1429.7 1793.62 1438.93 1691.82C1447.65 1595.63 1492.97 1513.96 1569.41 1482.14C1604.37 1467.58 1642.81 1471.45 1682.62 1484.38C1721.82 1497.1 1762.11 1518.51 1801.44 1539.4C1802.07 1539.74 1802.7 1540.07 1803.33 1540.41C1812.66 1545.36 1822.19 1550.28 1831.78 1555.24C1865.03 1572.4 1899.19 1590.04 1929.61 1611.55C1968.76 1639.24 2001.51 1673.21 2017.84 1720.56Z" stroke="#708CAE" stroke-width="5"/>
<path d="M1243.59 2303.01C1276.25 2397.71 1223.52 2478.07 1174.91 2544.91C1133.58 2601.75 1073.2 2628.96 1002.56 2634.26C998.279 2634.58 993.971 2634.91 989.641 2635.25C906.847 2641.67 816.44 2648.68 749.026 2576.88C673.526 2496.46 655.442 2376.08 664.673 2274.27C673.395 2178.08 718.718 2096.41 795.152 2064.59C830.118 2050.03 868.555 2053.91 908.368 2066.83C947.564 2079.55 987.857 2100.96 1027.19 2121.85C1027.82 2122.19 1028.45 2122.52 1029.07 2122.86C1038.41 2127.82 1047.93 2132.73 1057.53 2137.69C1090.78 2154.85 1124.94 2172.49 1155.36 2194C1194.51 2221.69 1227.26 2255.66 1243.59 2303.01Z" stroke="#708CAE" stroke-width="5"/>
<path d="M1821.73 317.93C1892.93 331.155 1924.25 390.678 1948.64 443.234C1969.31 487.744 1964.53 533.429 1942.26 577.736C1940.91 580.421 1939.56 583.126 1938.2 585.842C1912.16 638.001 1883.83 694.735 1814.38 710.333C1736.51 727.821 1654.32 696.89 1593.69 655.936C1536.41 617.252 1501.67 561.681 1509.38 504.827C1512.89 478.875 1529.18 457.158 1551.74 437.687C1573.95 418.516 1602.02 401.697 1629.47 385.256L1630.76 384.478C1637.28 380.572 1643.84 376.54 1650.45 372.477C1673.32 358.414 1696.79 343.983 1721.34 333.147C1752.93 319.205 1786.12 311.316 1821.73 317.93Z" stroke="#7E96B4" stroke-width="5"/>
</svg>
