<?xml version="1.0" encoding="UTF-8"?><svg xmlns="http://www.w3.org/2000/svg" viewBox="0 0 50 50"><path d="M25 2C12.317 2 2 12.318 2 25s10.317 23 23 23 23-10.318 23-23S37.683 2 25 2zm0 6c9.374 0 17 7.626 17 17 0 9.374-7.626 17-17 17-9.374 0-17-7.626-17-17 0-9.374 7.626-17 17-17zm9.244 5.21l-6.531 4.546.426.73c.007.015.821 1.435.861 3.514.033 1.654 0 9-11 9-3 0-7-1-7-1s3 3 11 3c10.842 0 10.999-11.512 11-12.002l.004-.996L39.133 20a15.09 15.09 0 0 0-4.889-6.79zm.694 8.79C34.629 25.204 32.803 35 22 35c-3.375 0-6.494-.665-8.883-1.379C14.864 34.993 18.375 37 24 37c7.335 0 11.096-6.431 11.133-6.496l.53-.93 2.849 1.899A14.888 14.888 0 0 0 40 25a14.9 14.9 0 0 0-.322-3h-4.74zm1.343 10.389C34.845 34.386 30.792 39 24 39c-2.383 0-4.43-.335-6.166-.836A14.85 14.85 0 0 0 25 40c5.236 0 9.847-2.701 12.531-6.777l-1.25-.834z"/><metadata><rdf:RDF xmlns:rdf="http://www.w3.org/1999/02/22-rdf-syntax-ns#" xmlns:rdfs="http://www.w3.org/2000/01/rdf-schema#" xmlns:dc="http://purl.org/dc/elements/1.1/"><rdf:Description about="https://iconscout.com/legal#licenses" dc:title="sitecore,filled" dc:description="sitecore,filled" dc:publisher="Iconscout" dc:date="2017-12-09" dc:format="image/svg+xml" dc:language="en"><dc:creator><rdf:Bag><rdf:li>Icons8</rdf:li></rdf:Bag></dc:creator></rdf:Description></rdf:RDF></metadata></svg>