<svg width="245" height="93" viewBox="0 0 245 93" fill="none" xmlns="http://www.w3.org/2000/svg">
<g filter="url(#filter0_d_1237_13217)">
<path d="M234.063 87.333C218.014 86.3387 13.6887 95.1458 13.9282 80.0885C14.048 73.9803 13.7486 38.4661 13.7486 32.5C13.7486 30.2272 0.5 32.4112 0.5 30.2805C0.5 27.5815 13.6887 22.5569 13.7486 20C12.5 9.5 14 9.5 20 8C20 8 190.349 -10.9658 235.919 10.4838C241.488 13.1828 238.673 75.2587 234.063 87.333Z" fill="white"/>
</g>
<path d="M55.507 29.288C59.719 29.288 62.923 26.588 62.923 22.556C62.923 18.758 60.151 15.752 55.831 15.752C51.745 15.752 48.451 18.47 48.451 22.502C48.451 26.21 51.223 29.288 55.507 29.288ZM56.641 26.822C54.733 26.822 53.275 22.772 53.275 20.486C53.275 19.172 53.743 18.254 54.715 18.254C56.623 18.254 58.099 22.286 58.099 24.554C58.099 25.886 57.613 26.822 56.641 26.822ZM75.1241 27.02C74.9621 26.894 74.8901 26.768 74.8901 26.372V22.826C74.8901 20.756 73.8641 19.496 72.0281 19.496C70.4261 19.496 69.3641 20.432 68.7881 21.53V19.64V17.696C68.7881 16.256 68.7701 15.518 67.5101 15.518C66.6101 15.518 64.7201 15.896 63.7481 16.562C63.3881 16.796 63.2441 17.066 63.2441 17.39C63.2441 17.858 63.5681 18.092 63.8921 18.344C64.1081 18.506 64.3601 18.74 64.3601 19.28V26.372C64.3601 26.768 64.2881 26.894 64.1261 27.02C63.8741 27.218 63.6041 27.398 63.6041 27.866C63.6041 28.874 64.9001 29.162 66.5741 29.162C68.2481 29.162 69.3821 28.874 69.3821 27.92C69.3821 27.452 69.1121 27.272 68.9861 27.092C68.7881 26.804 68.7881 26.57 68.7881 26.372V24.338C68.8061 22.826 69.0761 22.376 69.6161 22.376C70.1921 22.376 70.4621 22.88 70.4621 24.662V26.372C70.4621 26.588 70.4621 26.84 70.2641 27.092C70.1201 27.272 69.8681 27.452 69.8681 27.92C69.8681 28.874 71.0021 29.162 72.6761 29.162C74.3501 29.162 75.6461 28.874 75.6461 27.866C75.6461 27.398 75.3761 27.218 75.1241 27.02ZM81.4804 29.288C85.0084 29.288 87.4384 27.272 87.4384 24.284C87.4384 21.458 85.3684 19.442 82.2004 19.442C78.6184 19.442 76.2064 21.494 76.2064 24.464C76.2064 27.29 78.2764 29.288 81.4804 29.288ZM82.4704 27.506C81.4264 27.506 80.5084 24.032 80.5084 22.286C80.5084 21.62 80.7424 21.224 81.1924 21.224C82.2184 21.224 83.1364 24.734 83.1364 26.462C83.1364 27.128 82.9024 27.506 82.4704 27.506ZM90.502 19.082C91.834 19.082 93.652 18.542 93.652 17.282C93.652 16.4 93.058 15.806 91.726 15.806C90.286 15.806 88.576 16.274 88.576 17.678C88.576 18.506 89.188 19.082 90.502 19.082ZM91.222 29.162C92.896 29.162 94.192 28.874 94.192 27.866C94.192 27.398 93.922 27.218 93.67 27.02C93.508 26.894 93.436 26.768 93.436 26.372V23.69V21.71C93.436 20.288 93.418 19.568 92.23 19.568C91.384 19.568 89.602 19.946 88.684 20.594C88.342 20.828 88.198 21.08 88.198 21.404C88.198 21.8 88.432 22.034 88.684 22.232C88.846 22.358 89.008 22.538 89.008 22.952V26.372C89.008 26.768 88.936 26.894 88.774 27.02C88.522 27.218 88.252 27.398 88.252 27.866C88.252 28.874 89.548 29.162 91.222 29.162ZM101.256 29.162C102.93 29.162 104.226 28.874 104.226 27.866C104.226 27.398 103.956 27.218 103.704 27.02C103.542 26.894 103.47 26.768 103.47 26.372V19.64V17.696C103.47 16.256 103.452 15.518 102.192 15.518C101.292 15.518 99.4022 15.896 98.4302 16.562C98.0702 16.796 97.9262 17.066 97.9262 17.39C97.9262 17.858 98.2502 18.092 98.5742 18.344C98.7902 18.506 99.0422 18.74 99.0422 19.28V26.372C99.0422 26.768 98.9522 26.894 98.7902 27.02C98.5202 27.218 98.2322 27.398 98.2322 27.866C98.2322 28.874 99.5462 29.162 101.256 29.162ZM115.586 26.804C115.028 26.624 114.866 26.318 114.866 25.688V22.844C114.866 20.684 113.588 19.496 111.14 19.496C108.458 19.496 105.488 20.864 105.488 22.214C105.488 22.736 105.974 23.258 106.892 23.258C108.062 23.258 108.656 22.628 109.034 22.052C109.286 21.674 109.52 21.224 109.88 21.224C110.312 21.224 110.366 21.728 110.366 22.682V23.906C109.916 23.798 109.304 23.726 108.692 23.726C106.55 23.726 104.858 24.626 104.858 26.606C104.858 28.388 106.208 29.234 107.72 29.234C108.962 29.234 109.988 28.676 110.618 27.794C111.104 28.64 111.932 29.126 113.066 29.126C114.794 29.126 115.748 28.01 115.748 27.056C115.748 26.912 115.73 26.858 115.586 26.804ZM109.844 27.128C109.52 27.128 109.178 26.822 109.178 26.048C109.178 25.328 109.466 24.914 109.898 24.914C110.186 24.914 110.384 25.04 110.51 25.184V25.832C110.51 26.876 110.258 27.128 109.844 27.128ZM127.95 27.02C127.716 26.822 127.716 26.642 127.716 26.372V22.826C127.716 20.756 126.69 19.496 124.854 19.496C123.252 19.496 122.19 20.432 121.614 21.53C121.614 20.234 121.542 19.568 120.408 19.568C119.562 19.568 117.78 19.946 116.862 20.594C116.52 20.828 116.376 21.08 116.376 21.404C116.376 21.8 116.61 22.034 116.862 22.232C117.024 22.358 117.186 22.538 117.186 22.952V26.372C117.186 26.642 117.186 26.822 116.952 27.02C116.754 27.182 116.43 27.362 116.43 27.866C116.43 28.874 117.726 29.162 119.4 29.162C121.074 29.162 122.208 28.874 122.208 27.92C122.208 27.452 121.938 27.272 121.812 27.092C121.614 26.822 121.614 26.606 121.614 26.372V24.338C121.632 22.826 121.902 22.376 122.442 22.376C123.018 22.376 123.288 22.88 123.288 24.662V26.372C123.288 26.606 123.288 26.822 123.09 27.092C122.964 27.272 122.694 27.452 122.694 27.92C122.694 28.874 123.828 29.162 125.502 29.162C127.176 29.162 128.472 28.874 128.472 27.866C128.472 27.362 128.148 27.182 127.95 27.02ZM140.297 26.552C140.135 26.426 139.973 26.246 139.973 25.832V19.64V17.696C139.973 16.256 139.955 15.518 138.695 15.518C137.759 15.518 135.833 15.914 134.789 16.562C134.411 16.796 134.249 17.066 134.249 17.39C134.249 17.858 134.591 18.11 134.951 18.344C135.221 18.524 135.545 18.74 135.545 19.28V19.928C135.059 19.676 134.393 19.496 133.583 19.496C131.009 19.496 129.065 21.224 129.065 24.482C129.065 27.29 130.541 29.234 132.647 29.234C133.997 29.234 135.095 28.442 135.689 27.398C135.707 28.586 135.797 29.216 136.895 29.216C137.723 29.216 139.397 28.838 140.279 28.19C140.621 27.938 140.765 27.704 140.765 27.38C140.765 26.984 140.531 26.732 140.297 26.552ZM134.609 26.606C134.015 26.606 133.637 25.94 133.637 23.87C133.637 21.8 134.015 21.152 134.627 21.152C135.257 21.152 135.599 21.854 135.599 23.87C135.599 25.796 135.275 26.606 134.609 26.606ZM153.429 27.02C153.105 26.858 152.889 26.696 152.475 26.084C151.449 24.536 150.873 23.33 150.567 22.682C151.269 22.25 151.683 22.052 152.313 21.908C152.907 21.782 153.465 21.584 153.465 20.846C153.465 20.036 152.529 19.568 150.567 19.568C148.299 19.568 147.507 20.072 147.507 20.864C147.507 21.386 147.885 21.548 148.119 21.674C148.371 21.8 148.497 21.854 148.497 22.052C148.497 22.286 147.975 22.718 147.345 23.132C147.093 23.294 146.841 23.456 146.589 23.6V19.64V17.696C146.589 16.256 146.571 15.518 145.311 15.518C144.411 15.518 142.521 15.896 141.549 16.562C141.189 16.796 141.045 17.066 141.045 17.39C141.045 17.858 141.369 18.092 141.693 18.344C141.909 18.506 142.161 18.74 142.161 19.28V26.372C142.161 26.768 142.089 26.894 141.927 27.02C141.675 27.218 141.405 27.398 141.405 27.866C141.405 28.874 142.701 29.162 144.375 29.162C146.049 29.162 147.345 28.874 147.345 27.866C147.345 27.398 147.075 27.218 146.823 27.02C146.661 26.894 146.589 26.768 146.589 26.372V25.346C146.769 25.202 146.967 25.058 147.147 24.932C147.507 25.796 148.461 27.704 148.875 28.316C149.289 28.964 149.739 29.162 151.269 29.162C152.997 29.162 154.095 28.73 154.095 27.902C154.095 27.362 153.753 27.182 153.429 27.02ZM162.069 19.442C160.881 19.442 160.017 20.342 159.495 21.602C159.495 20.252 159.441 19.568 158.289 19.568C157.443 19.568 155.661 19.946 154.743 20.594C154.401 20.828 154.257 21.08 154.257 21.404C154.257 21.8 154.491 22.034 154.743 22.232C154.905 22.358 155.067 22.538 155.067 22.952V26.372C155.067 26.768 154.995 26.894 154.833 27.02C154.581 27.218 154.311 27.398 154.311 27.866C154.311 28.874 155.607 29.162 157.281 29.162C159.063 29.162 160.485 28.874 160.485 27.902C160.485 27.398 160.143 27.182 159.801 26.966C159.585 26.822 159.495 26.696 159.495 26.3V23.69V23.546C159.495 23.42 159.513 23.078 159.783 23.078C159.981 23.078 160.179 23.294 160.431 23.51C160.773 23.816 161.331 24.176 162.087 24.176C163.347 24.176 164.103 23.204 164.103 21.818C164.103 20.324 163.239 19.442 162.069 19.442ZM174.859 26.804C174.301 26.624 174.139 26.318 174.139 25.688V22.844C174.139 20.684 172.861 19.496 170.413 19.496C167.731 19.496 164.761 20.864 164.761 22.214C164.761 22.736 165.247 23.258 166.165 23.258C167.335 23.258 167.929 22.628 168.307 22.052C168.559 21.674 168.793 21.224 169.153 21.224C169.585 21.224 169.639 21.728 169.639 22.682V23.906C169.189 23.798 168.577 23.726 167.965 23.726C165.823 23.726 164.131 24.626 164.131 26.606C164.131 28.388 165.481 29.234 166.993 29.234C168.235 29.234 169.261 28.676 169.891 27.794C170.377 28.64 171.205 29.126 172.339 29.126C174.067 29.126 175.021 28.01 175.021 27.056C175.021 26.912 175.003 26.858 174.859 26.804ZM169.117 27.128C168.793 27.128 168.451 26.822 168.451 26.048C168.451 25.328 168.739 24.914 169.171 24.914C169.459 24.914 169.657 25.04 169.783 25.184V25.832C169.783 26.876 169.531 27.128 169.117 27.128ZM183.461 19.496C182.147 19.496 181.085 20.252 180.563 21.224V19.64V17.696C180.563 16.256 180.545 15.518 179.285 15.518C178.385 15.518 176.513 15.914 175.523 16.562C175.163 16.796 175.019 17.066 175.019 17.39C175.019 17.858 175.343 18.092 175.667 18.344C175.883 18.506 176.135 18.74 176.135 19.28V25.598C176.135 26.606 176.081 27.056 175.847 27.866C175.811 27.992 175.775 28.154 175.775 28.298C175.775 28.73 176.099 29 176.549 29C177.071 29 177.611 28.64 178.115 28.154C178.979 28.784 180.329 29.234 181.823 29.234C185.009 29.234 187.043 27.236 187.043 24.032C187.043 21.368 185.495 19.496 183.461 19.496ZM181.445 27.596C180.851 27.596 180.473 27.074 180.473 25.076C180.473 23.06 180.851 22.25 181.463 22.25C182.057 22.25 182.489 22.97 182.489 24.95C182.489 26.93 182.057 27.596 181.445 27.596ZM195.643 19.496C194.329 19.496 193.267 20.252 192.745 21.224V19.64V17.696C192.745 16.256 192.727 15.518 191.467 15.518C190.567 15.518 188.695 15.914 187.705 16.562C187.345 16.796 187.201 17.066 187.201 17.39C187.201 17.858 187.525 18.092 187.849 18.344C188.065 18.506 188.317 18.74 188.317 19.28V25.598C188.317 26.606 188.263 27.056 188.029 27.866C187.993 27.992 187.957 28.154 187.957 28.298C187.957 28.73 188.281 29 188.731 29C189.253 29 189.793 28.64 190.297 28.154C191.161 28.784 192.511 29.234 194.005 29.234C197.191 29.234 199.225 27.236 199.225 24.032C199.225 21.368 197.677 19.496 195.643 19.496ZM193.627 27.596C193.033 27.596 192.655 27.074 192.655 25.076C192.655 23.06 193.033 22.25 193.645 22.25C194.239 22.25 194.671 22.97 194.671 24.95C194.671 26.93 194.239 27.596 193.627 27.596ZM208.725 25.004C208.473 25.004 208.221 25.112 207.969 25.256C207.429 25.562 206.871 25.724 206.133 25.724C204.945 25.724 204.135 25.184 203.811 24.248H207.591C208.743 24.248 209.355 23.726 209.355 22.754C209.355 21.332 207.879 19.496 205.071 19.496C202.137 19.496 199.869 21.638 199.869 24.59C199.869 27.326 201.867 29.288 204.711 29.288C206.637 29.288 208.041 28.46 208.779 27.488C209.193 26.966 209.409 26.39 209.409 25.886C209.409 25.274 209.121 25.004 208.725 25.004ZM205.071 21.17C205.647 21.17 205.971 21.548 205.971 22.034C205.971 22.61 205.521 23.024 204.405 23.096L203.631 23.15C203.631 22.016 204.225 21.17 205.071 21.17ZM212.314 29.162C213.556 29.162 214.546 28.118 214.546 26.84C214.546 25.544 213.556 24.5 212.314 24.5C211.072 24.5 210.082 25.544 210.082 26.84C210.082 28.118 211.072 29.162 212.314 29.162ZM73.8343 37.878C72.1963 37.878 71.1523 38.184 71.1523 39.156C71.1523 39.642 71.4763 39.876 71.9983 40.146C72.2503 40.272 72.2683 40.452 72.2143 40.74C72.0703 41.568 71.0983 43.98 70.1803 45.924C69.2263 44.034 68.0563 41.46 68.0563 40.776C68.0563 40.416 68.2363 40.236 68.4883 40.128C69.0103 39.912 69.1903 39.606 69.1903 39.192C69.1903 38.148 67.6783 37.878 65.2843 37.878C62.9083 37.878 61.3423 38.202 61.3423 39.228C61.3423 39.804 61.6123 40.038 61.9903 40.218C62.3323 40.38 62.5483 40.668 63.1783 41.91C63.7003 42.954 66.1843 48.21 66.9223 49.578C67.4623 50.586 67.9123 51.162 68.8663 51.162C69.7663 51.162 70.1623 50.55 70.7383 49.524C71.4043 48.318 73.5823 43.854 74.2123 42.486C75.1483 40.47 75.3463 40.362 75.8143 40.164C76.3363 39.948 76.6243 39.642 76.6243 39.102C76.6243 38.202 75.5803 37.878 73.8343 37.878ZM83.5683 47.004C83.3163 47.004 83.0643 47.112 82.8123 47.256C82.2723 47.562 81.7143 47.724 80.9763 47.724C79.7883 47.724 78.9783 47.184 78.6543 46.248H82.4343C83.5863 46.248 84.1983 45.726 84.1983 44.754C84.1983 43.332 82.7223 41.496 79.9143 41.496C76.9803 41.496 74.7123 43.638 74.7123 46.59C74.7123 49.326 76.7103 51.288 79.5543 51.288C81.4803 51.288 82.8843 50.46 83.6223 49.488C84.0363 48.966 84.2523 48.39 84.2523 47.886C84.2523 47.274 83.9643 47.004 83.5683 47.004ZM79.9143 43.17C80.4903 43.17 80.8143 43.548 80.8143 44.034C80.8143 44.61 80.3643 45.024 79.2483 45.096L78.4743 45.15C78.4743 44.016 79.0683 43.17 79.9143 43.17ZM87.9496 51.162C89.6236 51.162 90.9196 50.874 90.9196 49.866C90.9196 49.398 90.6496 49.218 90.3976 49.02C90.2356 48.894 90.1636 48.768 90.1636 48.372V41.64V39.696C90.1636 38.256 90.1456 37.518 88.8856 37.518C87.9856 37.518 86.0956 37.896 85.1236 38.562C84.7636 38.796 84.6196 39.066 84.6196 39.39C84.6196 39.858 84.9436 40.092 85.2676 40.344C85.4836 40.506 85.7356 40.74 85.7356 41.28V48.372C85.7356 48.768 85.6456 48.894 85.4836 49.02C85.2136 49.218 84.9256 49.398 84.9256 49.866C84.9256 50.874 86.2396 51.162 87.9496 51.162ZM103.665 49.02C103.341 48.858 103.125 48.696 102.711 48.084C101.685 46.536 101.109 45.33 100.803 44.682C101.505 44.25 101.919 44.052 102.549 43.908C103.143 43.782 103.701 43.584 103.701 42.846C103.701 42.036 102.765 41.568 100.803 41.568C98.5353 41.568 97.7433 42.072 97.7433 42.864C97.7433 43.386 98.1213 43.548 98.3553 43.674C98.6073 43.8 98.7333 43.854 98.7333 44.052C98.7333 44.286 98.2113 44.718 97.5813 45.132C97.3293 45.294 97.0773 45.456 96.8253 45.6V41.64V39.696C96.8253 38.256 96.8073 37.518 95.5473 37.518C94.6473 37.518 92.7573 37.896 91.7853 38.562C91.4253 38.796 91.2812 39.066 91.2812 39.39C91.2812 39.858 91.6053 40.092 91.9293 40.344C92.1453 40.506 92.3973 40.74 92.3973 41.28V48.372C92.3973 48.768 92.3253 48.894 92.1633 49.02C91.9113 49.218 91.6413 49.398 91.6413 49.866C91.6413 50.874 92.9373 51.162 94.6113 51.162C96.2853 51.162 97.5813 50.874 97.5813 49.866C97.5813 49.398 97.3113 49.218 97.0593 49.02C96.8973 48.894 96.8253 48.768 96.8253 48.372V47.346C97.0053 47.202 97.2033 47.058 97.3833 46.932C97.7433 47.796 98.6973 49.704 99.1113 50.316C99.5253 50.964 99.9753 51.162 101.505 51.162C103.233 51.162 104.331 50.73 104.331 49.902C104.331 49.362 103.989 49.182 103.665 49.02ZM109.201 51.288C112.729 51.288 115.159 49.272 115.159 46.284C115.159 43.458 113.089 41.442 109.921 41.442C106.339 41.442 103.927 43.494 103.927 46.464C103.927 49.29 105.997 51.288 109.201 51.288ZM110.191 49.506C109.147 49.506 108.229 46.032 108.229 44.286C108.229 43.62 108.463 43.224 108.913 43.224C109.939 43.224 110.857 46.734 110.857 48.462C110.857 49.128 110.623 49.506 110.191 49.506ZM133.595 49.02C133.433 48.894 133.361 48.768 133.361 48.372V44.826C133.361 42.756 132.335 41.496 130.499 41.496C128.843 41.496 127.709 42.45 127.115 43.566C126.755 42.252 125.819 41.496 124.397 41.496C122.813 41.496 121.733 42.432 121.157 43.53C121.157 42.234 121.085 41.568 119.951 41.568C119.105 41.568 117.323 41.946 116.405 42.594C116.063 42.828 115.919 43.08 115.919 43.404C115.919 43.8 116.153 44.034 116.405 44.232C116.567 44.358 116.729 44.538 116.729 44.952V48.372C116.729 48.768 116.657 48.894 116.495 49.02C116.243 49.218 115.973 49.398 115.973 49.866C115.973 50.874 117.269 51.162 118.943 51.162C120.617 51.162 121.751 50.874 121.751 49.92C121.751 49.452 121.481 49.272 121.355 49.092C121.157 48.804 121.157 48.57 121.157 48.372V46.338C121.175 44.826 121.445 44.376 121.985 44.376C122.561 44.376 122.831 44.88 122.831 46.662V48.372C122.831 48.588 122.831 48.84 122.633 49.092C122.489 49.272 122.237 49.452 122.237 49.92C122.237 50.874 123.371 51.162 125.045 51.162C126.719 51.162 127.853 50.874 127.853 49.92C127.853 49.452 127.583 49.272 127.457 49.092C127.259 48.804 127.259 48.57 127.259 48.372V46.338C127.277 44.826 127.547 44.376 128.087 44.376C128.663 44.376 128.933 44.88 128.933 46.662V48.372C128.933 48.588 128.933 48.84 128.735 49.092C128.591 49.272 128.339 49.452 128.339 49.92C128.339 50.874 129.473 51.162 131.147 51.162C132.821 51.162 134.117 50.874 134.117 49.866C134.117 49.398 133.847 49.218 133.595 49.02ZM152.491 49.02C152.329 48.894 152.257 48.768 152.257 48.372V44.826C152.257 42.756 151.231 41.496 149.395 41.496C147.739 41.496 146.605 42.45 146.011 43.566C145.651 42.252 144.715 41.496 143.293 41.496C141.709 41.496 140.629 42.432 140.053 43.53C140.053 42.234 139.981 41.568 138.847 41.568C138.001 41.568 136.219 41.946 135.301 42.594C134.959 42.828 134.815 43.08 134.815 43.404C134.815 43.8 135.049 44.034 135.301 44.232C135.463 44.358 135.625 44.538 135.625 44.952V48.372C135.625 48.768 135.553 48.894 135.391 49.02C135.139 49.218 134.869 49.398 134.869 49.866C134.869 50.874 136.165 51.162 137.839 51.162C139.513 51.162 140.647 50.874 140.647 49.92C140.647 49.452 140.377 49.272 140.251 49.092C140.053 48.804 140.053 48.57 140.053 48.372V46.338C140.071 44.826 140.341 44.376 140.881 44.376C141.457 44.376 141.727 44.88 141.727 46.662V48.372C141.727 48.588 141.727 48.84 141.529 49.092C141.385 49.272 141.133 49.452 141.133 49.92C141.133 50.874 142.267 51.162 143.941 51.162C145.615 51.162 146.749 50.874 146.749 49.92C146.749 49.452 146.479 49.272 146.353 49.092C146.155 48.804 146.155 48.57 146.155 48.372V46.338C146.173 44.826 146.443 44.376 146.983 44.376C147.559 44.376 147.829 44.88 147.829 46.662V48.372C147.829 48.588 147.829 48.84 147.631 49.092C147.487 49.272 147.235 49.452 147.235 49.92C147.235 50.874 148.369 51.162 150.043 51.162C151.717 51.162 153.013 50.874 153.013 49.866C153.013 49.398 152.743 49.218 152.491 49.02ZM162.424 47.004C162.172 47.004 161.92 47.112 161.668 47.256C161.128 47.562 160.57 47.724 159.832 47.724C158.644 47.724 157.834 47.184 157.51 46.248H161.29C162.442 46.248 163.054 45.726 163.054 44.754C163.054 43.332 161.578 41.496 158.77 41.496C155.836 41.496 153.568 43.638 153.568 46.59C153.568 49.326 155.566 51.288 158.41 51.288C160.336 51.288 161.74 50.46 162.478 49.488C162.892 48.966 163.108 48.39 163.108 47.886C163.108 47.274 162.82 47.004 162.424 47.004ZM158.77 43.17C159.346 43.17 159.67 43.548 159.67 44.034C159.67 44.61 159.22 45.024 158.104 45.096L157.33 45.15C157.33 44.016 157.924 43.17 158.77 43.17ZM175.481 49.02C175.247 48.822 175.247 48.642 175.247 48.372V44.826C175.247 42.756 174.221 41.496 172.385 41.496C170.783 41.496 169.721 42.432 169.145 43.53C169.145 42.234 169.073 41.568 167.939 41.568C167.093 41.568 165.311 41.946 164.393 42.594C164.051 42.828 163.907 43.08 163.907 43.404C163.907 43.8 164.141 44.034 164.393 44.232C164.555 44.358 164.717 44.538 164.717 44.952V48.372C164.717 48.642 164.717 48.822 164.483 49.02C164.285 49.182 163.961 49.362 163.961 49.866C163.961 50.874 165.257 51.162 166.931 51.162C168.605 51.162 169.739 50.874 169.739 49.92C169.739 49.452 169.469 49.272 169.343 49.092C169.145 48.822 169.145 48.606 169.145 48.372V46.338C169.163 44.826 169.433 44.376 169.973 44.376C170.549 44.376 170.819 44.88 170.819 46.662V48.372C170.819 48.606 170.819 48.822 170.621 49.092C170.495 49.272 170.225 49.452 170.225 49.92C170.225 50.874 171.359 51.162 173.033 51.162C174.707 51.162 176.003 50.874 176.003 49.866C176.003 49.362 175.679 49.182 175.481 49.02ZM187.296 47.796C186.81 47.796 186.468 48.336 185.874 48.336C185.568 48.336 185.352 48.192 185.352 47.328V44.016H187.044C187.674 44.016 187.854 43.728 187.854 43.062C187.854 42.414 187.674 42.126 187.044 42.126H185.352V40.758C185.352 40.11 185.064 39.75 184.524 39.75C183.966 39.75 182.886 40.344 181.986 40.92C181.014 41.55 179.844 42.45 179.844 43.116C179.844 43.836 180.492 43.998 180.924 44.016V48.444C180.924 50.154 181.986 51.216 183.966 51.216C186.306 51.216 187.944 49.56 187.944 48.606C187.944 48.048 187.656 47.796 187.296 47.796ZM190.82 41.082C192.152 41.082 193.97 40.542 193.97 39.282C193.97 38.4 193.376 37.806 192.044 37.806C190.604 37.806 188.894 38.274 188.894 39.678C188.894 40.506 189.506 41.082 190.82 41.082ZM191.54 51.162C193.214 51.162 194.51 50.874 194.51 49.866C194.51 49.398 194.24 49.218 193.988 49.02C193.826 48.894 193.754 48.768 193.754 48.372V45.69V43.71C193.754 42.288 193.736 41.568 192.548 41.568C191.702 41.568 189.92 41.946 189.002 42.594C188.66 42.828 188.516 43.08 188.516 43.404C188.516 43.8 188.75 44.034 189.002 44.232C189.164 44.358 189.326 44.538 189.326 44.952V48.372C189.326 48.768 189.254 48.894 189.092 49.02C188.84 49.218 188.57 49.398 188.57 49.866C188.57 50.874 189.866 51.162 191.54 51.162ZM198.182 51.162C199.856 51.162 201.152 50.874 201.152 49.866C201.152 49.398 200.882 49.218 200.63 49.02C200.468 48.894 200.396 48.768 200.396 48.372V41.64V39.696C200.396 38.256 200.378 37.518 199.118 37.518C198.218 37.518 196.328 37.896 195.356 38.562C194.996 38.796 194.852 39.066 194.852 39.39C194.852 39.858 195.176 40.092 195.5 40.344C195.716 40.506 195.968 40.74 195.968 41.28V48.372C195.968 48.768 195.878 48.894 195.716 49.02C195.446 49.218 195.158 49.398 195.158 49.866C195.158 50.874 196.472 51.162 198.182 51.162ZM71.8793 64.234C70.1873 63.82 69.7193 63.478 69.7193 62.902C69.7193 62.344 70.3133 61.948 71.1413 61.948C72.4013 61.948 73.2473 62.632 73.8593 63.28C74.2013 63.64 74.5973 64.162 75.2273 64.162C75.8213 64.162 76.3793 63.64 76.3793 62.776C76.3793 61.606 75.3713 59.752 74.0753 59.752C73.6073 59.752 73.2653 60.004 73.0673 60.346C72.4733 60.04 71.5913 59.734 70.4033 59.734C67.4693 59.734 65.2553 61.624 65.2553 64.27C65.2553 66.988 67.7213 68.032 70.2593 68.662C72.0773 69.112 72.4913 69.454 72.4913 70.048C72.4913 70.66 72.0053 71.074 70.9973 71.074C69.6653 71.074 68.3333 70.192 67.5233 69.238C66.9653 68.59 66.6593 68.302 66.1013 68.302C65.5073 68.302 64.9313 68.842 64.9313 69.922C64.9313 71.56 66.0113 73.216 67.3793 73.216C67.8473 73.216 68.1893 72.964 68.3873 72.55C69.1613 72.928 70.3313 73.288 71.7353 73.288C74.6873 73.288 76.9013 71.362 76.9013 68.734C76.9013 65.926 74.4353 64.864 71.8793 64.234ZM85.6716 63.496C84.3936 63.496 83.2596 64.234 82.6836 65.278C82.6656 64.162 82.5396 63.568 81.4776 63.568C80.6316 63.568 78.8676 63.964 77.9316 64.594C77.5896 64.828 77.4456 65.08 77.4456 65.404C77.4456 65.818 77.6796 66.034 77.9316 66.232C78.0936 66.358 78.2556 66.556 78.2556 66.952V73.738C78.2556 74.134 78.2016 74.224 77.9856 74.404C77.7336 74.62 77.4276 74.836 77.4276 75.304C77.4276 76.294 78.8496 76.582 80.4696 76.582C82.1076 76.582 83.5656 76.294 83.5656 75.304C83.5656 74.818 83.2416 74.602 82.9716 74.386C82.7196 74.206 82.6836 74.062 82.6836 73.738V72.892C83.2596 73.108 83.9976 73.234 84.6816 73.234C87.1836 73.234 89.0916 71.308 89.0916 68.158C89.0916 65.422 87.6876 63.496 85.6716 63.496ZM83.5116 71.596C82.9176 71.596 82.5576 71.056 82.5576 69.076C82.5576 67.078 82.9176 66.25 83.5296 66.25C84.1056 66.25 84.5376 66.97 84.5376 68.95C84.5376 70.93 84.1056 71.596 83.5116 71.596ZM92.1808 63.082C93.5128 63.082 95.3308 62.542 95.3308 61.282C95.3308 60.4 94.7368 59.806 93.4048 59.806C91.9648 59.806 90.2548 60.274 90.2548 61.678C90.2548 62.506 90.8668 63.082 92.1808 63.082ZM92.9008 73.162C94.5748 73.162 95.8708 72.874 95.8708 71.866C95.8708 71.398 95.6008 71.218 95.3488 71.02C95.1868 70.894 95.1148 70.768 95.1148 70.372V67.69V65.71C95.1148 64.288 95.0968 63.568 93.9088 63.568C93.0628 63.568 91.2808 63.946 90.3628 64.594C90.0208 64.828 89.8768 65.08 89.8768 65.404C89.8768 65.8 90.1108 66.034 90.3628 66.232C90.5248 66.358 90.6868 66.538 90.6868 66.952V70.372C90.6868 70.768 90.6148 70.894 90.4528 71.02C90.2008 71.218 89.9308 71.398 89.9308 71.866C89.9308 72.874 91.2268 73.162 92.9008 73.162ZM99.5423 73.162C101.216 73.162 102.512 72.874 102.512 71.866C102.512 71.398 102.242 71.218 101.99 71.02C101.828 70.894 101.756 70.768 101.756 70.372V63.64V61.696C101.756 60.256 101.738 59.518 100.478 59.518C99.5783 59.518 97.6883 59.896 96.7163 60.562C96.3563 60.796 96.2123 61.066 96.2123 61.39C96.2123 61.858 96.5363 62.092 96.8603 62.344C97.0763 62.506 97.3283 62.74 97.3283 63.28V70.372C97.3283 70.768 97.2383 70.894 97.0763 71.02C96.8063 71.218 96.5183 71.398 96.5183 71.866C96.5183 72.874 97.8323 73.162 99.5423 73.162ZM106.222 73.162C107.896 73.162 109.192 72.874 109.192 71.866C109.192 71.398 108.922 71.218 108.67 71.02C108.508 70.894 108.436 70.768 108.436 70.372V63.64V61.696C108.436 60.256 108.418 59.518 107.158 59.518C106.258 59.518 104.368 59.896 103.396 60.562C103.036 60.796 102.892 61.066 102.892 61.39C102.892 61.858 103.216 62.092 103.54 62.344C103.756 62.506 104.008 62.74 104.008 63.28V70.372C104.008 70.768 103.918 70.894 103.756 71.02C103.486 71.218 103.198 71.398 103.198 71.866C103.198 72.874 104.512 73.162 106.222 73.162ZM118.716 69.004C118.464 69.004 118.212 69.112 117.96 69.256C117.42 69.562 116.862 69.724 116.124 69.724C114.936 69.724 114.126 69.184 113.802 68.248H117.582C118.734 68.248 119.346 67.726 119.346 66.754C119.346 65.332 117.87 63.496 115.062 63.496C112.128 63.496 109.86 65.638 109.86 68.59C109.86 71.326 111.858 73.288 114.702 73.288C116.628 73.288 118.032 72.46 118.77 71.488C119.184 70.966 119.4 70.39 119.4 69.886C119.4 69.274 119.112 69.004 118.716 69.004ZM115.062 65.17C115.638 65.17 115.962 65.548 115.962 66.034C115.962 66.61 115.512 67.024 114.396 67.096L113.622 67.15C113.622 66.016 114.216 65.17 115.062 65.17ZM131.629 71.02C131.467 70.894 131.395 70.768 131.395 70.372V66.826C131.395 64.756 130.369 63.496 128.533 63.496C126.931 63.496 125.869 64.432 125.293 65.53V63.64V61.696C125.293 60.256 125.275 59.518 124.015 59.518C123.115 59.518 121.225 59.896 120.253 60.562C119.893 60.796 119.749 61.066 119.749 61.39C119.749 61.858 120.073 62.092 120.397 62.344C120.613 62.506 120.865 62.74 120.865 63.28V70.372C120.865 70.768 120.793 70.894 120.631 71.02C120.379 71.218 120.109 71.398 120.109 71.866C120.109 72.874 121.405 73.162 123.079 73.162C124.753 73.162 125.887 72.874 125.887 71.92C125.887 71.452 125.617 71.272 125.491 71.092C125.293 70.804 125.293 70.57 125.293 70.372V68.338C125.311 66.826 125.581 66.376 126.121 66.376C126.697 66.376 126.967 66.88 126.967 68.662V70.372C126.967 70.588 126.967 70.84 126.769 71.092C126.625 71.272 126.373 71.452 126.373 71.92C126.373 72.874 127.507 73.162 129.181 73.162C130.855 73.162 132.151 72.874 132.151 71.866C132.151 71.398 131.881 71.218 131.629 71.02ZM135.015 63.082C136.347 63.082 138.165 62.542 138.165 61.282C138.165 60.4 137.571 59.806 136.239 59.806C134.799 59.806 133.089 60.274 133.089 61.678C133.089 62.506 133.701 63.082 135.015 63.082ZM133.287 76.42C135.321 76.42 137.949 75.448 137.949 72.298V67.69V65.71C137.949 64.288 137.931 63.568 136.743 63.568C135.897 63.568 134.133 63.964 133.197 64.594C132.855 64.828 132.711 65.08 132.711 65.404C132.711 65.8 132.945 66.034 133.197 66.232C133.359 66.358 133.521 66.538 133.521 66.952L133.503 72.892C133.503 74.674 131.667 74.422 131.667 75.484C131.667 76.186 132.459 76.42 133.287 76.42ZM149.515 65.404L150.055 64.936C150.271 64.756 150.361 64.576 150.361 64.396C150.361 64.018 149.875 63.478 149.497 63.478C149.317 63.478 149.119 63.568 148.885 63.766L148.291 64.27C147.463 63.748 146.401 63.442 145.177 63.442C141.595 63.442 139.183 65.494 139.183 68.464C139.183 69.562 139.489 70.516 140.065 71.308L139.507 71.776C139.291 71.956 139.201 72.136 139.201 72.316C139.201 72.712 139.687 73.216 140.065 73.216C140.263 73.216 140.461 73.126 140.677 72.946L141.271 72.442C142.117 72.982 143.197 73.288 144.457 73.288C147.985 73.288 150.415 71.272 150.415 68.284C150.415 67.168 150.091 66.196 149.515 65.404ZM144.169 65.224C144.637 65.224 145.087 65.98 145.447 66.952L143.755 68.392C143.593 67.618 143.485 66.862 143.485 66.286C143.485 65.62 143.719 65.224 144.169 65.224ZM145.447 71.506C144.961 71.506 144.493 70.732 144.133 69.742L145.825 68.302C146.005 69.094 146.113 69.886 146.113 70.462C146.113 71.128 145.879 71.506 145.447 71.506ZM159.072 63.442C157.884 63.442 157.02 64.342 156.498 65.602C156.498 64.252 156.444 63.568 155.292 63.568C154.446 63.568 152.664 63.946 151.746 64.594C151.404 64.828 151.26 65.08 151.26 65.404C151.26 65.8 151.494 66.034 151.746 66.232C151.908 66.358 152.07 66.538 152.07 66.952V70.372C152.07 70.768 151.998 70.894 151.836 71.02C151.584 71.218 151.314 71.398 151.314 71.866C151.314 72.874 152.61 73.162 154.284 73.162C156.066 73.162 157.488 72.874 157.488 71.902C157.488 71.398 157.146 71.182 156.804 70.966C156.588 70.822 156.498 70.696 156.498 70.3V67.69V67.546C156.498 67.42 156.516 67.078 156.786 67.078C156.984 67.078 157.182 67.294 157.434 67.51C157.776 67.816 158.334 68.176 159.09 68.176C160.35 68.176 161.106 67.204 161.106 65.818C161.106 64.324 160.242 63.442 159.072 63.442ZM173.117 71.02C172.883 70.822 172.883 70.642 172.883 70.372V66.826C172.883 64.756 171.857 63.496 170.021 63.496C168.419 63.496 167.357 64.432 166.781 65.53C166.781 64.234 166.709 63.568 165.575 63.568C164.729 63.568 162.947 63.946 162.029 64.594C161.687 64.828 161.543 65.08 161.543 65.404C161.543 65.8 161.777 66.034 162.029 66.232C162.191 66.358 162.353 66.538 162.353 66.952V70.372C162.353 70.642 162.353 70.822 162.119 71.02C161.921 71.182 161.597 71.362 161.597 71.866C161.597 72.874 162.893 73.162 164.567 73.162C166.241 73.162 167.375 72.874 167.375 71.92C167.375 71.452 167.105 71.272 166.979 71.092C166.781 70.822 166.781 70.606 166.781 70.372V68.338C166.799 66.826 167.069 66.376 167.609 66.376C168.185 66.376 168.455 66.88 168.455 68.662V70.372C168.455 70.606 168.455 70.822 168.257 71.092C168.131 71.272 167.861 71.452 167.861 71.92C167.861 72.874 168.995 73.162 170.669 73.162C172.343 73.162 173.639 72.874 173.639 71.866C173.639 71.362 173.315 71.182 173.117 71.02ZM183.052 69.004C182.8 69.004 182.548 69.112 182.296 69.256C181.756 69.562 181.198 69.724 180.46 69.724C179.272 69.724 178.462 69.184 178.138 68.248H181.918C183.07 68.248 183.682 67.726 183.682 66.754C183.682 65.332 182.206 63.496 179.398 63.496C176.464 63.496 174.196 65.638 174.196 68.59C174.196 71.326 176.194 73.288 179.038 73.288C180.964 73.288 182.368 72.46 183.106 71.488C183.52 70.966 183.736 70.39 183.736 69.886C183.736 69.274 183.448 69.004 183.052 69.004ZM179.398 65.17C179.974 65.17 180.298 65.548 180.298 66.034C180.298 66.61 179.848 67.024 178.732 67.096L177.958 67.15C177.958 66.016 178.552 65.17 179.398 65.17ZM191.735 69.796C191.249 69.796 190.907 70.336 190.313 70.336C190.007 70.336 189.791 70.192 189.791 69.328V66.016H191.483C192.113 66.016 192.293 65.728 192.293 65.062C192.293 64.414 192.113 64.126 191.483 64.126H189.791V62.758C189.791 62.11 189.503 61.75 188.963 61.75C188.405 61.75 187.325 62.344 186.425 62.92C185.453 63.55 184.283 64.45 184.283 65.116C184.283 65.836 184.931 65.998 185.363 66.016V70.444C185.363 72.154 186.425 73.216 188.405 73.216C190.745 73.216 192.383 71.56 192.383 70.606C192.383 70.048 192.095 69.796 191.735 69.796ZM195.457 67.906C195.907 67.906 196.321 67.366 196.699 66.772C197.149 66.07 197.977 64.486 197.977 62.884C197.977 61.084 196.951 59.752 195.439 59.752C193.963 59.752 192.937 61.03 192.937 62.848C192.937 64.504 193.783 66.07 194.215 66.772C194.575 67.366 194.989 67.906 195.457 67.906ZM195.493 73.162C196.663 73.162 197.599 72.226 197.599 71.074C197.599 69.904 196.663 68.968 195.493 68.968C194.323 68.968 193.405 69.904 193.405 71.074C193.405 72.226 194.323 73.162 195.493 73.162Z" fill="#376C8F"/>
<defs>
<filter id="filter0_d_1237_13217" x="0.5" y="0.261162" width="243.55" height="92.7388" filterUnits="userSpaceOnUse" color-interpolation-filters="sRGB">
<feFlood flood-opacity="0" result="BackgroundImageFix"/>
<feColorMatrix in="SourceAlpha" type="matrix" values="0 0 0 0 0 0 0 0 0 0 0 0 0 0 0 0 0 0 127 0" result="hardAlpha"/>
<feOffset dx="5.05" dy="4"/>
<feComposite in2="hardAlpha" operator="out"/>
<feColorMatrix type="matrix" values="0 0 0 0 0 0 0 0 0 0 0 0 0 0 0 0 0 0 0.25 0"/>
<feBlend mode="normal" in2="BackgroundImageFix" result="effect1_dropShadow_1237_13217"/>
<feBlend mode="normal" in="SourceGraphic" in2="effect1_dropShadow_1237_13217" result="shape"/>
</filter>
</defs>
</svg>
