<svg width="375" height="143" viewBox="0 0 375 143" fill="none" xmlns="http://www.w3.org/2000/svg">
<path opacity="0.4" d="M96.5499 34.45C87.4599 34.45 80.6649 28.15 80.6649 18.295C80.6649 6.91 89.7549 2.05 97.2249 2.05C101.815 2.05 108.07 3.805 108.07 7.405C108.07 9.115 106.72 10.465 104.965 10.465C103.3 10.465 101.905 9.115 101.905 7.405C101.905 6.595 102.22 5.83 102.76 5.29C101.545 4.525 99.5199 4.12 97.8999 4.12C92.0049 4.12 87.0999 8.935 87.0999 18.52C87.0999 26.305 90.6999 32.335 97.2699 32.335C99.7449 32.335 101.905 31.48 102.85 30.76V20.095H97.8999V17.935H108.34V33.865C108.34 34.225 108.115 34.45 107.89 34.45C107.71 34.45 107.485 34.36 107.305 34.135L104.875 31.705C102.49 33.28 100.375 34.45 96.5499 34.45ZM122.963 34.45C117.113 34.45 111.578 30.625 111.578 23.245C111.578 15.865 117.113 11.95 122.963 11.95C129.263 11.95 134.393 15.775 134.393 23.245C134.393 30.625 128.813 34.45 122.963 34.45ZM117.653 23.245C117.653 25.675 117.968 27.61 118.508 29.14L126.698 15.64C125.753 14.155 124.493 13.48 122.963 13.48C119.813 13.48 117.653 16.495 117.653 23.245ZM119.408 30.895C120.308 32.245 121.523 32.92 122.963 32.92C126.113 32.92 128.273 29.635 128.273 23.245C128.273 20.86 128.003 18.97 127.508 17.485L119.408 30.895ZM152.729 17.17C152.189 16.945 150.974 16.675 149.759 16.675C147.914 16.675 145.754 17.44 144.854 19.825V31.93H149.309V34H136.799V31.93H139.319V17.44L136.394 15.73C135.899 15.37 135.899 14.965 136.529 14.74L143.414 12.13C143.819 11.995 144.044 11.95 144.179 11.95C144.449 11.95 144.629 12.13 144.629 12.445V18.385C145.844 14.515 148.184 11.95 151.694 11.95C152.189 11.95 152.459 12.04 152.729 12.13V17.17ZM173.334 34.45C167.484 34.45 162.579 30.535 162.579 23.335C162.579 16.81 166.224 11.95 173.064 11.95C179.949 11.95 183.054 16.9 182.649 22.84H168.384C168.564 27.7 170.679 31.39 175.224 31.39C177.654 31.39 180.309 29.905 181.389 28.645L182.289 29.5C181.164 31.615 177.924 34.45 173.334 34.45ZM168.384 21.13H176.754C176.979 16.045 175.314 13.525 172.794 13.525C169.914 13.525 168.564 16.135 168.384 21.13ZM201.949 20.455C201.949 17.44 200.914 15.145 198.034 15.145C195.739 15.145 194.074 16.495 193.174 18.43V31.93H195.649V34H185.074V31.93H187.594V17.26L184.624 15.46C184.309 15.28 184.264 14.83 184.669 14.695L191.779 12.13C192.094 12.04 192.409 11.95 192.544 11.95C192.769 11.95 192.904 12.085 192.904 12.4V17.125C194.389 13.885 196.909 11.95 200.329 11.95C204.739 11.95 207.529 14.785 207.529 19.87V31.93H210.004V34H199.429V31.93H201.949V20.455ZM220.404 34V31.93H222.924V6.19L219.954 4.345C219.594 4.165 219.594 3.76 219.999 3.58L227.469 0.654997C227.694 0.609998 227.874 0.519999 228.054 0.519999C228.279 0.519999 228.459 0.7 228.459 1.015V16.585C229.989 13.705 232.419 11.95 235.614 11.95C240.024 11.95 242.814 14.785 242.814 19.87V31.93H245.334V34H234.759V31.93H237.234V20.455C237.234 17.44 236.199 15.145 233.319 15.145C231.024 15.145 229.359 16.495 228.459 18.43V31.93H230.979V34H220.404ZM257.449 34.45C251.599 34.45 246.694 30.535 246.694 23.335C246.694 16.81 250.339 11.95 257.179 11.95C264.064 11.95 267.169 16.9 266.764 22.84H252.499C252.679 27.7 254.794 31.39 259.339 31.39C261.769 31.39 264.424 29.905 265.504 28.645L266.404 29.5C265.279 31.615 262.039 34.45 257.449 34.45ZM252.499 21.13H260.869C261.094 16.045 259.429 13.525 256.909 13.525C254.029 13.525 252.679 16.135 252.499 21.13ZM269.009 34V31.93H271.529V6.19L268.559 4.345C268.199 4.165 268.199 3.76 268.604 3.58L276.074 0.654997C276.299 0.609998 276.479 0.519999 276.659 0.519999C276.884 0.519999 277.064 0.7 277.064 1.015V31.93H279.584V34H269.009ZM290.282 34.45C285.872 34.45 283.937 31.39 283.937 28.195V14.47H280.967V12.4H283.757L288.392 5.785C288.752 5.2 289.472 5.335 289.472 6.055V12.4H295.862V14.47H289.472V28.015C289.472 30.04 290.327 31.345 292.127 31.345C293.297 31.345 294.422 30.805 295.682 29.635L296.762 30.625C295.232 33.01 293.387 34.45 290.282 34.45ZM48.8228 83.45C45.4928 83.45 42.3428 81.65 42.3428 77.825C42.3428 73.685 45.9878 70.85 52.2428 70.85H55.3028V67.16C55.3028 64.37 54.1778 62.57 51.3878 62.57C49.9478 62.57 49.0028 62.975 48.5528 63.29C49.1378 63.65 49.8128 64.55 49.8128 65.675C49.8128 67.34 48.5078 68.645 46.8428 68.645C45.2228 68.645 43.8728 67.34 43.8728 65.585C43.8728 62.345 48.6428 60.95 52.5578 60.95C58.4078 60.95 60.8378 63.605 60.8378 68.33V79.76L63.3128 81.29C63.8078 81.605 63.6728 82.055 63.1778 82.145L57.7328 83.135C56.5178 83.36 56.0228 83.45 55.7978 83.45C55.4378 83.45 55.3028 83.27 55.3028 82.865V79.445C54.1328 81.785 52.0178 83.45 48.8228 83.45ZM47.8328 77.015C47.8328 79.535 49.5878 80.66 51.2978 80.66C52.8728 80.66 54.4478 79.76 55.3028 78.005V72.515H53.0528C49.9028 72.515 47.8328 74.135 47.8328 77.015ZM65.0833 83V80.93H67.6033V55.19L64.6333 53.345C64.2733 53.165 64.2733 52.76 64.6783 52.58L72.1483 49.655C72.3733 49.61 72.5533 49.52 72.7333 49.52C72.9583 49.52 73.1383 49.7 73.1383 50.015V80.93H75.6583V83H65.0833ZM78.1182 83V80.93H80.6382V66.26L77.6682 64.46C77.3532 64.28 77.3082 63.83 77.7132 63.695L84.8232 61.13C85.1382 61.04 85.4532 60.95 85.5882 60.95C85.8132 60.95 85.9482 61.085 85.9482 61.4V65.72C87.4332 62.75 89.9082 60.95 93.1932 60.95C96.7032 60.95 99.1782 62.75 100.033 65.99C101.518 62.84 104.038 60.95 107.413 60.95C111.823 60.95 114.613 63.785 114.613 68.87V80.93H117.043V83H106.468V80.93H109.033V69.455C109.033 66.44 107.998 64.145 105.118 64.145C102.823 64.145 101.203 65.45 100.303 67.34C100.348 67.835 100.393 68.33 100.393 68.87V80.93H102.868V83H92.2932V80.93H94.8132V69.455C94.8132 66.44 93.7782 64.145 90.8982 64.145C88.7382 64.145 87.1632 65.36 86.2182 67.07V80.93H88.6932V83H78.1182ZM118.747 83V80.93H121.267V66.575L118.297 64.775C117.937 64.55 117.937 64.145 118.387 63.965L125.812 61.13C126.082 60.995 126.262 60.95 126.397 60.95C126.667 60.95 126.802 61.175 126.802 61.49V80.93H129.322V83H118.747ZM120.142 55.235C120.142 53.39 121.717 51.815 123.562 51.815C125.407 51.815 127.027 53.39 127.027 55.235C127.027 57.125 125.407 58.7 123.562 58.7C121.717 58.7 120.142 57.125 120.142 55.235ZM148.389 69.455C148.389 66.44 147.354 64.145 144.474 64.145C142.179 64.145 140.514 65.495 139.614 67.43V80.93H142.089V83H131.514V80.93H134.034V66.26L131.064 64.46C130.749 64.28 130.704 63.83 131.109 63.695L138.219 61.13C138.534 61.04 138.849 60.95 138.984 60.95C139.209 60.95 139.344 61.085 139.344 61.4V66.125C140.829 62.885 143.349 60.95 146.769 60.95C151.179 60.95 153.969 63.785 153.969 68.87V80.93H156.444V83H145.869V80.93H148.389V69.455ZM173.909 78.41V65.63C173.099 64.73 171.659 63.56 169.904 63.56C166.709 63.56 163.964 66.17 163.964 72.2C163.964 78.365 166.754 80.84 169.589 80.84C171.434 80.84 173.099 79.445 173.954 78.5V78.41H173.909ZM157.844 72.2C157.844 64.73 163.334 60.95 168.014 60.95C171.164 60.95 173.009 62.795 173.909 64.145V60.59H173.954V55.19L170.984 53.345C170.624 53.165 170.624 52.76 171.029 52.58L178.499 49.655C178.724 49.61 178.904 49.52 179.084 49.52C179.309 49.52 179.489 49.7 179.489 50.015V79.76L181.964 81.29C182.459 81.605 182.324 82.055 181.784 82.145L176.384 83.135C175.169 83.36 174.674 83.45 174.449 83.45C174.089 83.45 173.954 83.225 173.954 82.82V79.94C172.829 81.515 170.849 83.45 167.519 83.45C162.794 83.45 157.844 79.67 157.844 72.2ZM194.549 83.45C188.699 83.45 183.794 79.535 183.794 72.335C183.794 65.81 187.439 60.95 194.279 60.95C201.164 60.95 204.269 65.9 203.864 71.84H189.599C189.779 76.7 191.894 80.39 196.439 80.39C198.869 80.39 201.524 78.905 202.604 77.645L203.504 78.5C202.379 80.615 199.139 83.45 194.549 83.45ZM189.599 70.13H197.969C198.194 65.045 196.529 62.525 194.009 62.525C191.129 62.525 189.779 65.135 189.599 70.13ZM206.109 83V80.93H208.629V55.19L205.659 53.345C205.299 53.165 205.299 52.76 205.704 52.58L213.174 49.655C213.399 49.61 213.579 49.52 213.759 49.52C213.984 49.52 214.164 49.7 214.164 50.015V80.93H216.684V83H206.109ZM219.144 83V80.93H221.664V66.575L218.694 64.775C218.334 64.55 218.334 64.145 218.784 63.965L226.209 61.13C226.479 60.995 226.659 60.95 226.794 60.95C227.064 60.95 227.199 61.175 227.199 61.49V80.93H229.719V83H219.144ZM220.539 55.235C220.539 53.39 222.114 51.815 223.959 51.815C225.804 51.815 227.424 53.39 227.424 55.235C227.424 57.125 225.804 58.7 223.959 58.7C222.114 58.7 220.539 57.125 220.539 55.235ZM241.721 93.35C234.611 93.35 230.381 91.64 230.381 88.31C230.381 84.98 233.711 83.99 236.006 83.585C234.881 83.09 233.081 82.01 233.081 79.535C233.081 77.24 235.286 75.44 236.906 74.855C234.071 73.73 232.136 71.48 232.136 68.42C232.136 64.325 235.376 60.95 241.316 60.95C244.106 60.95 246.401 61.715 248.021 62.93L250.721 58.25C251.036 57.755 251.441 57.71 251.756 58.25L254.411 62.615C254.726 63.11 254.546 63.47 253.961 63.47H248.606C250.046 64.775 250.811 66.53 250.811 68.375C250.811 72.335 247.301 75.62 241.406 75.62C240.101 75.62 238.886 75.44 237.761 75.125V79.22H244.646C249.911 79.22 253.556 81.47 253.556 85.205C253.556 90.065 249.191 93.35 241.721 93.35ZM235.736 87.275C235.736 90.065 237.851 91.28 241.721 91.28C245.231 91.28 248.561 90.38 248.561 87.23C248.561 85.16 246.761 83.9 243.386 83.9H237.446C236.771 84.44 235.736 85.565 235.736 87.275ZM237.446 68.24C237.446 71.84 239.111 73.91 241.496 73.91C243.836 73.91 245.501 71.84 245.501 68.24C245.501 64.55 243.791 62.525 241.496 62.525C239.111 62.525 237.446 64.55 237.446 68.24ZM279.515 78.41V65.63C278.705 64.73 277.265 63.56 275.51 63.56C272.315 63.56 269.57 66.17 269.57 72.2C269.57 78.365 272.36 80.84 275.195 80.84C277.04 80.84 278.705 79.445 279.56 78.5V78.41H279.515ZM263.45 72.2C263.45 64.73 268.94 60.95 273.62 60.95C276.77 60.95 278.615 62.795 279.515 64.145V60.59H279.56V55.19L276.59 53.345C276.23 53.165 276.23 52.76 276.635 52.58L284.105 49.655C284.33 49.61 284.51 49.52 284.69 49.52C284.915 49.52 285.095 49.7 285.095 50.015V79.76L287.57 81.29C288.065 81.605 287.93 82.055 287.39 82.145L281.99 83.135C280.775 83.36 280.28 83.45 280.055 83.45C279.695 83.45 279.56 83.225 279.56 82.82V79.94C278.435 81.515 276.455 83.45 273.125 83.45C268.4 83.45 263.45 79.67 263.45 72.2ZM296.158 83.45C292.828 83.45 289.678 81.65 289.678 77.825C289.678 73.685 293.323 70.85 299.578 70.85H302.638V67.16C302.638 64.37 301.513 62.57 298.723 62.57C297.283 62.57 296.338 62.975 295.888 63.29C296.473 63.65 297.148 64.55 297.148 65.675C297.148 67.34 295.843 68.645 294.178 68.645C292.558 68.645 291.208 67.34 291.208 65.585C291.208 62.345 295.978 60.95 299.893 60.95C305.743 60.95 308.173 63.605 308.173 68.33V79.76L310.648 81.29C311.143 81.605 311.008 82.055 310.513 82.145L305.068 83.135C303.853 83.36 303.358 83.45 303.133 83.45C302.773 83.45 302.638 83.27 302.638 82.865V79.445C301.468 81.785 299.353 83.45 296.158 83.45ZM295.168 77.015C295.168 79.535 296.923 80.66 298.633 80.66C300.208 80.66 301.783 79.76 302.638 78.005V72.515H300.388C297.238 72.515 295.168 74.135 295.168 77.015ZM322.628 93.35C315.518 93.35 311.288 91.64 311.288 88.31C311.288 84.98 314.618 83.99 316.913 83.585C315.788 83.09 313.988 82.01 313.988 79.535C313.988 77.24 316.193 75.44 317.813 74.855C314.978 73.73 313.043 71.48 313.043 68.42C313.043 64.325 316.283 60.95 322.223 60.95C325.013 60.95 327.308 61.715 328.928 62.93L331.628 58.25C331.943 57.755 332.348 57.71 332.663 58.25L335.318 62.615C335.633 63.11 335.453 63.47 334.868 63.47H329.513C330.953 64.775 331.718 66.53 331.718 68.375C331.718 72.335 328.208 75.62 322.313 75.62C321.008 75.62 319.793 75.44 318.668 75.125V79.22H325.553C330.818 79.22 334.463 81.47 334.463 85.205C334.463 90.065 330.098 93.35 322.628 93.35ZM316.643 87.275C316.643 90.065 318.758 91.28 322.628 91.28C326.138 91.28 329.468 90.38 329.468 87.23C329.468 85.16 327.668 83.9 324.293 83.9H318.353C317.678 84.44 316.643 85.565 316.643 87.275ZM318.353 68.24C318.353 71.84 320.018 73.91 322.403 73.91C324.743 73.91 326.408 71.84 326.408 68.24C326.408 64.55 324.698 62.525 322.403 62.525C320.018 62.525 318.353 64.55 318.353 68.24ZM38.332 132.45C33.922 132.45 31.987 129.39 31.987 126.195V112.47H29.017V110.4H31.807L36.442 103.785C36.802 103.2 37.522 103.335 37.522 104.055V110.4H43.912V112.47H37.522V126.015C37.522 128.04 38.377 129.345 40.177 129.345C41.347 129.345 42.472 128.805 43.732 127.635L44.812 128.625C43.282 131.01 41.437 132.45 38.332 132.45ZM45.3657 132V129.93H47.8857V115.575L44.9157 113.775C44.5557 113.55 44.5557 113.145 45.0057 112.965L52.4307 110.13C52.7007 109.995 52.8807 109.95 53.0157 109.95C53.2857 109.95 53.4207 110.175 53.4207 110.49V129.93H55.9407V132H45.3657ZM46.7607 104.235C46.7607 102.39 48.3357 100.815 50.1807 100.815C52.0257 100.815 53.6457 102.39 53.6457 104.235C53.6457 106.125 52.0257 107.7 50.1807 107.7C48.3357 107.7 46.7607 106.125 46.7607 104.235ZM57.9527 132V129.93H60.4727V104.19L57.5027 102.345C57.1427 102.165 57.1427 101.76 57.5477 101.58L65.0177 98.655C65.2427 98.61 65.4227 98.52 65.6027 98.52C65.8277 98.52 66.0077 98.7 66.0077 99.015V129.93H68.5277V132H57.9527ZM96.3669 118.455C96.3669 115.44 95.3319 113.145 92.4519 113.145C90.1569 113.145 88.4919 114.495 87.5919 116.43V129.93H90.0669V132H79.4919V129.93H82.0119V115.26L79.0419 113.46C78.7269 113.28 78.6819 112.83 79.0869 112.695L86.1969 110.13C86.5119 110.04 86.8269 109.95 86.9619 109.95C87.1869 109.95 87.3219 110.085 87.3219 110.4V115.125C88.8069 111.885 91.3269 109.95 94.7469 109.95C99.1569 109.95 101.947 112.785 101.947 117.87V129.93H104.422V132H93.8469V129.93H96.3669V118.455ZM117.207 132.45C111.357 132.45 105.822 128.625 105.822 121.245C105.822 113.865 111.357 109.95 117.207 109.95C123.507 109.95 128.637 113.775 128.637 121.245C128.637 128.625 123.057 132.45 117.207 132.45ZM111.897 121.245C111.897 127.635 114.057 130.92 117.207 130.92C120.357 130.92 122.517 127.635 122.517 121.245C122.517 114.495 120.357 111.48 117.207 111.48C114.057 111.48 111.897 114.495 111.897 121.245ZM140.808 142.35C133.698 142.35 129.468 140.64 129.468 137.31C129.468 133.98 132.798 132.99 135.093 132.585C133.968 132.09 132.168 131.01 132.168 128.535C132.168 126.24 134.373 124.44 135.993 123.855C133.158 122.73 131.223 120.48 131.223 117.42C131.223 113.325 134.463 109.95 140.403 109.95C143.193 109.95 145.488 110.715 147.108 111.93L149.808 107.25C150.123 106.755 150.528 106.71 150.843 107.25L153.498 111.615C153.813 112.11 153.633 112.47 153.048 112.47H147.693C149.133 113.775 149.898 115.53 149.898 117.375C149.898 121.335 146.388 124.62 140.493 124.62C139.188 124.62 137.973 124.44 136.848 124.125V128.22H143.733C148.998 128.22 152.643 130.47 152.643 134.205C152.643 139.065 148.278 142.35 140.808 142.35ZM134.823 136.275C134.823 139.065 136.938 140.28 140.808 140.28C144.318 140.28 147.648 139.38 147.648 136.23C147.648 134.16 145.848 132.9 142.473 132.9H136.533C135.858 133.44 134.823 134.565 134.823 136.275ZM136.533 117.24C136.533 120.84 138.198 122.91 140.583 122.91C142.923 122.91 144.588 120.84 144.588 117.24C144.588 113.55 142.878 111.525 140.583 111.525C138.198 111.525 136.533 113.55 136.533 117.24ZM163.996 132.45C158.146 132.45 153.241 128.535 153.241 121.335C153.241 114.81 156.886 109.95 163.726 109.95C170.611 109.95 173.716 114.9 173.311 120.84H159.046C159.226 125.7 161.341 129.39 165.886 129.39C168.316 129.39 170.971 127.905 172.051 126.645L172.951 127.5C171.826 129.615 168.586 132.45 163.996 132.45ZM159.046 119.13H167.416C167.641 114.045 165.976 111.525 163.456 111.525C160.576 111.525 159.226 114.135 159.046 119.13ZM184.106 132.45C179.696 132.45 177.761 129.39 177.761 126.195V112.47H174.791V110.4H177.581L182.216 103.785C182.576 103.2 183.296 103.335 183.296 104.055V110.4H189.686V112.47H183.296V126.015C183.296 128.04 184.151 129.345 185.951 129.345C187.121 129.345 188.246 128.805 189.506 127.635L190.586 128.625C189.056 131.01 187.211 132.45 184.106 132.45ZM200.263 124.755C200.263 124.17 200.893 124.035 201.118 124.53L204.583 130.2C205.168 130.65 206.383 131.055 207.733 131.055C209.983 131.055 212.143 129.795 212.143 127.455C212.143 125.925 211.018 124.665 208.633 123.54L204.718 121.695C202.558 120.75 200.353 119.085 200.353 116.205C200.353 112.38 204.043 109.95 209.488 109.95C212.233 109.95 214.843 110.58 215.968 111.075V116.25C215.968 116.88 215.428 116.97 215.023 116.43L211.738 111.795C211.333 111.57 210.478 111.345 209.488 111.345C206.923 111.345 205.708 112.785 205.708 114.495C205.708 116.115 206.788 116.88 208.633 117.735L212.683 119.58C214.933 120.57 217.228 122.505 217.228 125.61C217.228 129.975 212.818 132.45 207.688 132.45C204.898 132.45 202.513 131.73 200.263 130.83V124.755ZM226.77 132.45C223.215 132.45 219.66 130.605 219.66 126.825C219.66 122.325 223.935 119.85 229.29 119.85H232.71V116.475C232.71 113.505 230.91 111.705 228.3 111.705C227.13 111.705 225.87 112.02 224.97 112.515C226.005 112.965 226.725 113.955 226.725 115.125C226.725 116.7 225.465 118.005 223.89 118.005C222.315 118.005 221.055 116.7 221.055 115.125C221.055 112.425 224.79 109.95 229.695 109.95C232.575 109.95 235.32 111.03 236.805 113.325C238.38 111.03 240.36 109.95 243.06 109.95C249.765 109.95 252.735 115.125 252.33 121.245H238.425C238.56 126.15 240.63 129.39 244.995 129.39C247.38 129.39 250.035 127.86 251.115 126.6L251.97 127.455C250.89 129.57 247.605 132.45 243.15 132.45C239.64 132.45 236.445 130.875 234.51 128.13C233.835 129.435 231.135 132.45 226.77 132.45ZM225.15 125.88C225.15 128.535 227.085 129.75 229.02 129.75C231.405 129.75 233.25 127.95 233.79 126.87C233.025 125.295 232.71 123.45 232.665 121.515H230.46C226.905 121.515 225.15 123.45 225.15 125.88ZM238.38 119.535H246.435C246.525 115.845 245.625 111.525 242.655 111.525C239.82 111.525 238.605 114.36 238.38 119.535ZM270.728 115.17C270.188 114.945 268.973 114.675 267.758 114.675C265.913 114.675 263.753 115.44 262.853 117.825V129.93H267.308V132H254.798V129.93H257.318V115.44L254.393 113.73C253.898 113.37 253.898 112.965 254.528 112.74L261.413 110.13C261.818 109.995 262.043 109.95 262.178 109.95C262.448 109.95 262.628 110.13 262.628 110.445V116.385C263.843 112.515 266.183 109.95 269.693 109.95C270.188 109.95 270.458 110.04 270.728 110.13V115.17ZM272.13 132V129.93H274.65V104.19L271.68 102.345C271.32 102.165 271.32 101.76 271.725 101.58L279.195 98.655C279.42 98.61 279.6 98.52 279.78 98.52C280.005 98.52 280.185 98.7 280.185 99.015V129.93H282.705V132H272.13ZM285.165 132V129.93H287.685V115.575L284.715 113.775C284.355 113.55 284.355 113.145 284.805 112.965L292.23 110.13C292.5 109.995 292.68 109.95 292.815 109.95C293.085 109.95 293.22 110.175 293.22 110.49V129.93H295.74V132H285.165ZM286.56 104.235C286.56 102.39 288.135 100.815 289.98 100.815C291.825 100.815 293.445 102.39 293.445 104.235C293.445 106.125 291.825 107.7 289.98 107.7C288.135 107.7 286.56 106.125 286.56 104.235ZM307.742 142.35C300.632 142.35 296.402 140.64 296.402 137.31C296.402 133.98 299.732 132.99 302.027 132.585C300.902 132.09 299.102 131.01 299.102 128.535C299.102 126.24 301.307 124.44 302.927 123.855C300.092 122.73 298.157 120.48 298.157 117.42C298.157 113.325 301.397 109.95 307.337 109.95C310.127 109.95 312.422 110.715 314.042 111.93L316.742 107.25C317.057 106.755 317.462 106.71 317.777 107.25L320.432 111.615C320.747 112.11 320.567 112.47 319.982 112.47H314.627C316.067 113.775 316.832 115.53 316.832 117.375C316.832 121.335 313.322 124.62 307.427 124.62C306.122 124.62 304.907 124.44 303.782 124.125V128.22H310.667C315.932 128.22 319.577 130.47 319.577 134.205C319.577 139.065 315.212 142.35 307.742 142.35ZM301.757 136.275C301.757 139.065 303.872 140.28 307.742 140.28C311.252 140.28 314.582 139.38 314.582 136.23C314.582 134.16 312.782 132.9 309.407 132.9H303.467C302.792 133.44 301.757 134.565 301.757 136.275ZM303.467 117.24C303.467 120.84 305.132 122.91 307.517 122.91C309.857 122.91 311.522 120.84 311.522 117.24C311.522 113.55 309.812 111.525 307.517 111.525C305.132 111.525 303.467 113.55 303.467 117.24ZM328.913 132.45C324.502 132.45 322.568 129.39 322.568 126.195V112.47H319.598V110.4H322.388L327.023 103.785C327.383 103.2 328.103 103.335 328.103 104.055V110.4H334.493V112.47H328.103V126.015C328.103 128.04 328.958 129.345 330.758 129.345C331.928 129.345 333.053 128.805 334.313 127.635L335.393 128.625C333.863 131.01 332.018 132.45 328.913 132.45ZM340.706 132.45C338.636 132.45 336.971 130.875 336.971 128.805C336.971 126.735 338.636 125.115 340.706 125.115C342.866 125.115 344.396 126.735 344.396 128.805C344.396 130.875 342.866 132.45 340.706 132.45Z" fill="white"/>
</svg>
