<svg width="1120" height="204" viewBox="0 0 1120 204" fill="none" xmlns="http://www.w3.org/2000/svg">
<path opacity="0.4" d="M116.049 74.99C96.0508 74.99 81.1018 61.13 81.1018 39.449C81.1018 14.402 101.1 3.71 117.534 3.71C127.632 3.71 141.393 7.571 141.393 15.491C141.393 19.253 138.423 22.223 134.562 22.223C130.899 22.223 127.83 19.253 127.83 15.491C127.83 13.709 128.523 12.026 129.711 10.838C127.038 9.155 122.583 8.264 119.019 8.264C106.05 8.264 95.2588 18.857 95.2588 39.944C95.2588 57.071 103.179 70.337 117.633 70.337C123.078 70.337 127.83 68.456 129.909 66.872V43.409H119.019V38.657H141.987V73.703C141.987 74.495 141.492 74.99 140.997 74.99C140.601 74.99 140.106 74.792 139.71 74.297L134.364 68.951C129.117 72.416 124.464 74.99 116.049 74.99ZM174.158 74.99C161.288 74.99 149.111 66.575 149.111 50.339C149.111 34.103 161.288 25.49 174.158 25.49C188.018 25.49 199.304 33.905 199.304 50.339C199.304 66.575 187.028 74.99 174.158 74.99ZM162.476 50.339C162.476 55.685 163.169 59.942 164.357 63.308L182.375 33.608C180.296 30.341 177.524 28.856 174.158 28.856C167.228 28.856 162.476 35.489 162.476 50.339ZM166.337 67.169C168.317 70.139 170.99 71.624 174.158 71.624C181.088 71.624 185.84 64.397 185.84 50.339C185.84 45.092 185.246 40.934 184.157 37.667L166.337 67.169ZM239.642 36.974C238.454 36.479 235.781 35.885 233.108 35.885C229.049 35.885 224.297 37.568 222.317 42.815V69.446H232.118V74H204.596V69.446H210.14V37.568L203.705 33.806C202.616 33.014 202.616 32.123 204.002 31.628L219.149 25.886C220.04 25.589 220.535 25.49 220.832 25.49C221.426 25.49 221.822 25.886 221.822 26.579V39.647C224.495 31.133 229.643 25.49 237.365 25.49C238.454 25.49 239.048 25.688 239.642 25.886V36.974ZM284.975 74.99C272.105 74.99 261.314 66.377 261.314 50.537C261.314 36.182 269.333 25.49 284.381 25.49C299.528 25.49 306.359 36.38 305.468 49.448H274.085C274.481 60.14 279.134 68.258 289.133 68.258C294.479 68.258 300.32 64.991 302.696 62.219L304.676 64.1C302.201 68.753 295.073 74.99 284.975 74.99ZM274.085 45.686H292.499C292.994 34.499 289.331 28.955 283.787 28.955C277.451 28.955 274.481 34.697 274.085 45.686ZM347.927 44.201C347.927 37.568 345.65 32.519 339.314 32.519C334.265 32.519 330.602 35.489 328.622 39.746V69.446H334.067V74H310.802V69.446H316.346V37.172L309.812 33.212C309.119 32.816 309.02 31.826 309.911 31.529L325.553 25.886C326.246 25.688 326.939 25.49 327.236 25.49C327.731 25.49 328.028 25.787 328.028 26.48V36.875C331.295 29.747 336.839 25.49 344.363 25.49C354.065 25.49 360.203 31.727 360.203 42.914V69.446H365.648V74H342.383V69.446H347.927V44.201ZM388.527 74V69.446H394.071V12.818L387.537 8.759C386.745 8.363 386.745 7.47199 387.636 7.07599L404.07 0.640994C404.565 0.541996 404.961 0.343998 405.357 0.343998C405.852 0.343998 406.248 0.739999 406.248 1.433V35.687C409.614 29.351 414.96 25.49 421.989 25.49C431.691 25.49 437.829 31.727 437.829 42.914V69.446H443.373V74H420.108V69.446H425.553V44.201C425.553 37.568 423.276 32.519 416.94 32.519C411.891 32.519 408.228 35.489 406.248 39.746V69.446H411.792V74H388.527ZM470.027 74.99C457.157 74.99 446.366 66.377 446.366 50.537C446.366 36.182 454.385 25.49 469.433 25.49C484.58 25.49 491.411 36.38 490.52 49.448H459.137C459.533 60.14 464.186 68.258 474.185 68.258C479.531 68.258 485.372 64.991 487.748 62.219L489.728 64.1C487.253 68.753 480.125 74.99 470.027 74.99ZM459.137 45.686H477.551C478.046 34.499 474.383 28.955 468.839 28.955C462.503 28.955 459.533 34.697 459.137 45.686ZM495.459 74V69.446H501.003V12.818L494.469 8.759C493.677 8.363 493.677 7.47199 494.568 7.07599L511.002 0.640994C511.497 0.541996 511.893 0.343998 512.289 0.343998C512.784 0.343998 513.18 0.739999 513.18 1.433V69.446H518.724V74H495.459ZM542.259 74.99C532.557 74.99 528.3 68.258 528.3 61.229V31.034H521.766V26.48H527.904L538.101 11.927C538.893 10.64 540.477 10.937 540.477 12.521V26.48H554.535V31.034H540.477V60.833C540.477 65.288 542.358 68.159 546.318 68.159C548.892 68.159 551.367 66.971 554.139 64.397L556.515 66.575C553.149 71.822 549.09 74.99 542.259 74.99ZM591.468 74.99C584.142 74.99 577.212 71.03 577.212 62.615C577.212 53.507 585.231 47.27 598.992 47.27H605.724V39.152C605.724 33.014 603.249 29.054 597.111 29.054C593.943 29.054 591.864 29.945 590.874 30.638C592.161 31.43 593.646 33.41 593.646 35.885C593.646 39.548 590.775 42.419 587.112 42.419C583.548 42.419 580.578 39.548 580.578 35.687C580.578 28.559 591.072 25.49 599.685 25.49C612.555 25.49 617.901 31.331 617.901 41.726V66.872L623.346 70.238C624.435 70.931 624.138 71.921 623.049 72.119L611.07 74.297C608.397 74.792 607.308 74.99 606.813 74.99C606.021 74.99 605.724 74.594 605.724 73.703V66.179C603.15 71.327 598.497 74.99 591.468 74.99ZM589.29 60.833C589.29 66.377 593.151 68.852 596.913 68.852C600.378 68.852 603.843 66.872 605.724 63.011V50.933H600.774C593.844 50.933 589.29 54.497 589.29 60.833ZM627.241 74V69.446H632.785V12.818L626.251 8.759C625.459 8.363 625.459 7.47199 626.35 7.07599L642.784 0.640994C643.279 0.541996 643.675 0.343998 644.071 0.343998C644.566 0.343998 644.962 0.739999 644.962 1.433V69.446H650.506V74H627.241ZM655.918 74V69.446H661.462V37.172L654.928 33.212C654.235 32.816 654.136 31.826 655.027 31.529L670.669 25.886C671.362 25.688 672.055 25.49 672.352 25.49C672.847 25.49 673.144 25.787 673.144 26.48V35.984C676.411 29.45 681.856 25.49 689.083 25.49C696.805 25.49 702.25 29.45 704.131 36.578C707.398 29.648 712.942 25.49 720.367 25.49C730.069 25.49 736.207 31.727 736.207 42.914V69.446H741.553V74H718.288V69.446H723.931V44.201C723.931 37.568 721.654 32.519 715.318 32.519C710.269 32.519 706.705 35.39 704.725 39.548C704.824 40.637 704.923 41.726 704.923 42.914V69.446H710.368V74H687.103V69.446H692.647V44.201C692.647 37.568 690.37 32.519 684.034 32.519C679.282 32.519 675.817 35.192 673.738 38.954V69.446H679.183V74H655.918ZM745.3 74V69.446H750.844V37.865L744.31 33.905C743.518 33.41 743.518 32.519 744.508 32.123L760.843 25.886C761.437 25.589 761.833 25.49 762.13 25.49C762.724 25.49 763.021 25.985 763.021 26.678V69.446H768.565V74H745.3ZM748.369 12.917C748.369 8.85799 751.834 5.393 755.893 5.393C759.952 5.393 763.516 8.85799 763.516 12.917C763.516 17.075 759.952 20.54 755.893 20.54C751.834 20.54 748.369 17.075 748.369 12.917ZM810.512 44.201C810.512 37.568 808.235 32.519 801.899 32.519C796.85 32.519 793.187 35.489 791.207 39.746V69.446H796.652V74H773.387V69.446H778.931V37.172L772.397 33.212C771.704 32.816 771.605 31.826 772.496 31.529L788.138 25.886C788.831 25.688 789.524 25.49 789.821 25.49C790.316 25.49 790.613 25.787 790.613 26.48V36.875C793.88 29.747 799.424 25.49 806.948 25.49C816.65 25.49 822.788 31.727 822.788 42.914V69.446H828.233V74H804.968V69.446H810.512V44.201ZM866.657 63.902V35.786C864.875 33.806 861.707 31.232 857.846 31.232C850.817 31.232 844.778 36.974 844.778 50.24C844.778 63.803 850.916 69.248 857.153 69.248C861.212 69.248 864.875 66.179 866.756 64.1V63.902H866.657ZM831.314 50.24C831.314 33.806 843.392 25.49 853.688 25.49C860.618 25.49 864.677 29.549 866.657 32.519V24.698H866.756V12.818L860.222 8.759C859.43 8.363 859.43 7.47199 860.321 7.07599L876.755 0.640994C877.25 0.541996 877.646 0.343998 878.042 0.343998C878.537 0.343998 878.933 0.739999 878.933 1.433V66.872L884.378 70.238C885.467 70.931 885.17 71.921 883.982 72.119L872.102 74.297C869.429 74.792 868.34 74.99 867.845 74.99C867.053 74.99 866.756 74.495 866.756 73.604V67.268C864.281 70.733 859.925 74.99 852.599 74.99C842.204 74.99 831.314 66.674 831.314 50.24ZM912.066 74.99C899.196 74.99 888.405 66.377 888.405 50.537C888.405 36.182 896.424 25.49 911.472 25.49C926.619 25.49 933.45 36.38 932.559 49.448H901.176C901.572 60.14 906.225 68.258 916.224 68.258C921.57 68.258 927.411 64.991 929.787 62.219L931.767 64.1C929.292 68.753 922.164 74.99 912.066 74.99ZM901.176 45.686H919.59C920.085 34.499 916.422 28.955 910.878 28.955C904.542 28.955 901.572 34.697 901.176 45.686ZM937.497 74V69.446H943.041V12.818L936.507 8.759C935.715 8.363 935.715 7.47199 936.606 7.07599L953.04 0.640994C953.535 0.541996 953.931 0.343998 954.327 0.343998C954.822 0.343998 955.218 0.739999 955.218 1.433V69.446H960.762V74H937.497ZM966.174 74V69.446H971.718V37.865L965.184 33.905C964.392 33.41 964.392 32.519 965.382 32.123L981.717 25.886C982.311 25.589 982.707 25.49 983.004 25.49C983.598 25.49 983.895 25.985 983.895 26.678V69.446H989.439V74H966.174ZM969.243 12.917C969.243 8.85799 972.708 5.393 976.767 5.393C980.826 5.393 984.39 8.85799 984.39 12.917C984.39 17.075 980.826 20.54 976.767 20.54C972.708 20.54 969.243 17.075 969.243 12.917ZM1015.84 96.77C1000.2 96.77 990.896 93.008 990.896 85.682C990.896 78.356 998.222 76.178 1003.27 75.287C1000.8 74.198 996.836 71.822 996.836 66.377C996.836 61.328 1001.69 57.368 1005.25 56.081C999.014 53.606 994.757 48.656 994.757 41.924C994.757 32.915 1001.88 25.49 1014.95 25.49C1021.09 25.49 1026.14 27.173 1029.7 29.846L1035.64 19.55C1036.34 18.461 1037.23 18.362 1037.92 19.55L1043.76 29.153C1044.45 30.242 1044.06 31.034 1042.77 31.034H1030.99C1034.16 33.905 1035.84 37.766 1035.84 41.825C1035.84 50.537 1028.12 57.764 1015.15 57.764C1012.28 57.764 1009.61 57.368 1007.13 56.675V65.684H1022.28C1033.86 65.684 1041.88 70.634 1041.88 78.851C1041.88 89.543 1032.28 96.77 1015.84 96.77ZM1002.68 83.405C1002.68 89.543 1007.33 92.216 1015.84 92.216C1023.57 92.216 1030.89 90.236 1030.89 83.306C1030.89 78.752 1026.93 75.98 1019.51 75.98H1006.44C1004.95 77.168 1002.68 79.643 1002.68 83.405ZM1006.44 41.528C1006.44 49.448 1010.1 54.002 1015.35 54.002C1020.5 54.002 1024.16 49.448 1024.16 41.528C1024.16 33.41 1020.4 28.955 1015.35 28.955C1010.1 28.955 1006.44 33.41 1006.44 41.528ZM158.277 170.902V142.786C156.495 140.806 153.327 138.232 149.466 138.232C142.437 138.232 136.398 143.974 136.398 157.24C136.398 170.803 142.536 176.248 148.773 176.248C152.832 176.248 156.495 173.179 158.376 171.1V170.902H158.277ZM122.934 157.24C122.934 140.806 135.012 132.49 145.308 132.49C152.238 132.49 156.297 136.549 158.277 139.519V131.698H158.376V119.818L151.842 115.759C151.05 115.363 151.05 114.472 151.941 114.076L168.375 107.641C168.87 107.542 169.266 107.344 169.662 107.344C170.157 107.344 170.553 107.74 170.553 108.433V173.872L175.998 177.238C177.087 177.931 176.79 178.921 175.602 179.119L163.722 181.297C161.049 181.792 159.96 181.99 159.465 181.99C158.673 181.99 158.376 181.495 158.376 180.604V174.268C155.901 177.733 151.545 181.99 144.219 181.99C133.824 181.99 122.934 173.674 122.934 157.24ZM194.891 181.99C187.565 181.99 180.635 178.03 180.635 169.615C180.635 160.507 188.654 154.27 202.415 154.27H209.147V146.152C209.147 140.014 206.672 136.054 200.534 136.054C197.366 136.054 195.287 136.945 194.297 137.638C195.584 138.43 197.069 140.41 197.069 142.885C197.069 146.548 194.198 149.419 190.535 149.419C186.971 149.419 184.001 146.548 184.001 142.687C184.001 135.559 194.495 132.49 203.108 132.49C215.978 132.49 221.324 138.331 221.324 148.726V173.872L226.769 177.238C227.858 177.931 227.561 178.921 226.472 179.119L214.493 181.297C211.82 181.792 210.731 181.99 210.236 181.99C209.444 181.99 209.147 181.594 209.147 180.703V173.179C206.573 178.327 201.92 181.99 194.891 181.99ZM192.713 167.833C192.713 173.377 196.574 175.852 200.336 175.852C203.801 175.852 207.266 173.872 209.147 170.011V157.933H204.197C197.267 157.933 192.713 161.497 192.713 167.833ZM253.126 203.77C237.484 203.77 228.178 200.008 228.178 192.682C228.178 185.356 235.504 183.178 240.553 182.287C238.078 181.198 234.118 178.822 234.118 173.377C234.118 168.328 238.969 164.368 242.533 163.081C236.296 160.606 232.039 155.656 232.039 148.924C232.039 139.915 239.167 132.49 252.235 132.49C258.373 132.49 263.422 134.173 266.986 136.846L272.926 126.55C273.619 125.461 274.51 125.362 275.203 126.55L281.044 136.153C281.737 137.242 281.341 138.034 280.054 138.034H268.273C271.441 140.905 273.124 144.766 273.124 148.825C273.124 157.537 265.402 164.764 252.433 164.764C249.562 164.764 246.889 164.368 244.414 163.675V172.684H259.561C271.144 172.684 279.163 177.634 279.163 185.851C279.163 196.543 269.56 203.77 253.126 203.77ZM239.959 190.405C239.959 196.543 244.612 199.216 253.126 199.216C260.848 199.216 268.174 197.236 268.174 190.306C268.174 185.752 264.214 182.98 256.789 182.98H243.721C242.236 184.168 239.959 186.643 239.959 190.405ZM243.721 148.528C243.721 156.448 247.384 161.002 252.631 161.002C257.779 161.002 261.442 156.448 261.442 148.528C261.442 140.41 257.68 135.955 252.631 135.955C247.384 135.955 243.721 140.41 243.721 148.528ZM320.828 181.99C311.126 181.99 306.869 175.258 306.869 168.229V138.034H300.335V133.48H306.473L316.67 118.927C317.462 117.64 319.046 117.937 319.046 119.521V133.48H333.104V138.034H319.046V167.833C319.046 172.288 320.927 175.159 324.887 175.159C327.461 175.159 329.936 173.971 332.708 171.397L335.084 173.575C331.718 178.822 327.659 181.99 320.828 181.99ZM336.302 181V176.446H341.846V144.865L335.312 140.905C334.52 140.41 334.52 139.519 335.51 139.123L351.845 132.886C352.439 132.589 352.835 132.49 353.132 132.49C353.726 132.49 354.023 132.985 354.023 133.678V176.446H359.567V181H336.302ZM339.371 119.917C339.371 115.858 342.836 112.393 346.895 112.393C350.954 112.393 354.518 115.858 354.518 119.917C354.518 124.075 350.954 127.54 346.895 127.54C342.836 127.54 339.371 124.075 339.371 119.917ZM363.994 181V176.446H369.538V119.818L363.004 115.759C362.212 115.363 362.212 114.472 363.103 114.076L379.537 107.641C380.032 107.542 380.428 107.344 380.824 107.344C381.319 107.344 381.715 107.74 381.715 108.433V176.446H387.259V181H363.994ZM448.505 151.201C448.505 144.568 446.228 139.519 439.892 139.519C434.843 139.519 431.18 142.489 429.2 146.746V176.446H434.645V181H411.38V176.446H416.924V144.172L410.39 140.212C409.697 139.816 409.598 138.826 410.489 138.529L426.131 132.886C426.824 132.688 427.517 132.49 427.814 132.49C428.309 132.49 428.606 132.787 428.606 133.48V143.875C431.873 136.747 437.417 132.49 444.941 132.49C454.643 132.49 460.781 138.727 460.781 149.914V176.446H466.226V181H442.961V176.446H448.505V151.201ZM494.353 181.99C481.483 181.99 469.306 173.575 469.306 157.339C469.306 141.103 481.483 132.49 494.353 132.49C508.213 132.49 519.499 140.905 519.499 157.339C519.499 173.575 507.223 181.99 494.353 181.99ZM482.671 157.339C482.671 171.397 487.423 178.624 494.353 178.624C501.283 178.624 506.035 171.397 506.035 157.339C506.035 142.489 501.283 135.856 494.353 135.856C487.423 135.856 482.671 142.489 482.671 157.339ZM546.274 203.77C530.632 203.77 521.326 200.008 521.326 192.682C521.326 185.356 528.652 183.178 533.701 182.287C531.226 181.198 527.266 178.822 527.266 173.377C527.266 168.328 532.117 164.368 535.681 163.081C529.444 160.606 525.187 155.656 525.187 148.924C525.187 139.915 532.315 132.49 545.383 132.49C551.521 132.49 556.57 134.173 560.134 136.846L566.074 126.55C566.767 125.461 567.658 125.362 568.351 126.55L574.192 136.153C574.885 137.242 574.489 138.034 573.202 138.034H561.421C564.589 140.905 566.272 144.766 566.272 148.825C566.272 157.537 558.55 164.764 545.581 164.764C542.71 164.764 540.037 164.368 537.562 163.675V172.684H552.709C564.292 172.684 572.311 177.634 572.311 185.851C572.311 196.543 562.708 203.77 546.274 203.77ZM533.107 190.405C533.107 196.543 537.76 199.216 546.274 199.216C553.996 199.216 561.322 197.236 561.322 190.306C561.322 185.752 557.362 182.98 549.937 182.98H536.869C535.384 184.168 533.107 186.643 533.107 190.405ZM536.869 148.528C536.869 156.448 540.532 161.002 545.779 161.002C550.927 161.002 554.59 156.448 554.59 148.528C554.59 140.41 550.828 135.955 545.779 135.955C540.532 135.955 536.869 140.41 536.869 148.528ZM597.289 181.99C584.419 181.99 573.628 173.377 573.628 157.537C573.628 143.182 581.647 132.49 596.695 132.49C611.842 132.49 618.673 143.38 617.782 156.448H586.399C586.795 167.14 591.448 175.258 601.447 175.258C606.793 175.258 612.634 171.991 615.01 169.219L616.99 171.1C614.515 175.753 607.387 181.99 597.289 181.99ZM586.399 152.686H604.813C605.308 141.499 601.645 135.955 596.101 135.955C589.765 135.955 586.795 141.697 586.399 152.686ZM641.53 181.99C631.828 181.99 627.571 175.258 627.571 168.229V138.034H621.037V133.48H627.175L637.372 118.927C638.164 117.64 639.748 117.937 639.748 119.521V133.48H653.806V138.034H639.748V167.833C639.748 172.288 641.629 175.159 645.589 175.159C648.163 175.159 650.638 173.971 653.41 171.397L655.786 173.575C652.42 178.822 648.361 181.99 641.53 181.99ZM677.076 165.061C677.076 163.774 678.462 163.477 678.957 164.566L686.58 177.04C687.867 178.03 690.54 178.921 693.51 178.921C698.46 178.921 703.212 176.149 703.212 171.001C703.212 167.635 700.737 164.863 695.49 162.388L686.877 158.329C682.125 156.25 677.274 152.587 677.274 146.251C677.274 137.836 685.392 132.49 697.371 132.49C703.41 132.49 709.152 133.876 711.627 134.965V146.35C711.627 147.736 710.439 147.934 709.548 146.746L702.321 136.549C701.43 136.054 699.549 135.559 697.371 135.559C691.728 135.559 689.055 138.727 689.055 142.489C689.055 146.053 691.431 147.736 695.49 149.617L704.4 153.676C709.35 155.854 714.399 160.111 714.399 166.942C714.399 176.545 704.697 181.99 693.411 181.99C687.273 181.99 682.026 180.406 677.076 178.426V165.061ZM735.39 181.99C727.569 181.99 719.748 177.931 719.748 169.615C719.748 159.715 729.153 154.27 740.934 154.27H748.458V146.845C748.458 140.311 744.498 136.351 738.756 136.351C736.182 136.351 733.41 137.044 731.43 138.133C733.707 139.123 735.291 141.301 735.291 143.875C735.291 147.34 732.519 150.211 729.054 150.211C725.589 150.211 722.817 147.34 722.817 143.875C722.817 137.935 731.034 132.49 741.825 132.49C748.161 132.49 754.2 134.866 757.467 139.915C760.932 134.866 765.288 132.49 771.228 132.49C785.979 132.49 792.513 143.875 791.622 157.339H761.031C761.328 168.13 765.882 175.258 775.485 175.258C780.732 175.258 786.573 171.892 788.949 169.12L790.83 171.001C788.454 175.654 781.227 181.99 771.426 181.99C763.704 181.99 756.675 178.525 752.418 172.486C750.933 175.357 744.993 181.99 735.39 181.99ZM731.826 167.536C731.826 173.377 736.083 176.05 740.34 176.05C745.587 176.05 749.646 172.09 750.834 169.714C749.151 166.249 748.458 162.19 748.359 157.933H743.508C735.687 157.933 731.826 162.19 731.826 167.536ZM760.932 153.577H778.653C778.851 145.459 776.871 135.955 770.337 135.955C764.1 135.955 761.427 142.192 760.932 153.577ZM832.099 143.974C830.911 143.479 828.238 142.885 825.565 142.885C821.506 142.885 816.754 144.568 814.774 149.815V176.446H824.575V181H797.053V176.446H802.597V144.568L796.162 140.806C795.073 140.014 795.073 139.123 796.459 138.628L811.606 132.886C812.497 132.589 812.992 132.49 813.289 132.49C813.883 132.49 814.279 132.886 814.279 133.579V146.647C816.952 138.133 822.1 132.49 829.822 132.49C830.911 132.49 831.505 132.688 832.099 132.886V143.974ZM835.183 181V176.446H840.727V119.818L834.193 115.759C833.401 115.363 833.401 114.472 834.292 114.076L850.726 107.641C851.221 107.542 851.617 107.344 852.013 107.344C852.508 107.344 852.904 107.74 852.904 108.433V176.446H858.448V181H835.183ZM863.86 181V176.446H869.404V144.865L862.87 140.905C862.078 140.41 862.078 139.519 863.068 139.123L879.403 132.886C879.997 132.589 880.393 132.49 880.69 132.49C881.284 132.49 881.581 132.985 881.581 133.678V176.446H887.125V181H863.86ZM866.929 119.917C866.929 115.858 870.394 112.393 874.453 112.393C878.512 112.393 882.076 115.858 882.076 119.917C882.076 124.075 878.512 127.54 874.453 127.54C870.394 127.54 866.929 124.075 866.929 119.917ZM913.529 203.77C897.887 203.77 888.581 200.008 888.581 192.682C888.581 185.356 895.907 183.178 900.956 182.287C898.481 181.198 894.521 178.822 894.521 173.377C894.521 168.328 899.372 164.368 902.936 163.081C896.699 160.606 892.442 155.656 892.442 148.924C892.442 139.915 899.57 132.49 912.638 132.49C918.776 132.49 923.825 134.173 927.389 136.846L933.329 126.55C934.022 125.461 934.913 125.362 935.606 126.55L941.447 136.153C942.14 137.242 941.744 138.034 940.457 138.034H928.676C931.844 140.905 933.527 144.766 933.527 148.825C933.527 157.537 925.805 164.764 912.836 164.764C909.965 164.764 907.292 164.368 904.817 163.675V172.684H919.964C931.547 172.684 939.566 177.634 939.566 185.851C939.566 196.543 929.963 203.77 913.529 203.77ZM900.362 190.405C900.362 196.543 905.015 199.216 913.529 199.216C921.251 199.216 928.577 197.236 928.577 190.306C928.577 185.752 924.617 182.98 917.192 182.98H904.124C902.639 184.168 900.362 186.643 900.362 190.405ZM904.124 148.528C904.124 156.448 907.787 161.002 913.034 161.002C918.182 161.002 921.845 156.448 921.845 148.528C921.845 140.41 918.083 135.955 913.034 135.955C907.787 135.955 904.124 140.41 904.124 148.528ZM960.105 181.99C950.403 181.99 946.146 175.258 946.146 168.229V138.034H939.612V133.48H945.75L955.947 118.927C956.739 117.64 958.323 117.937 958.323 119.521V133.48H972.381V138.034H958.323V167.833C958.323 172.288 960.204 175.159 964.164 175.159C966.738 175.159 969.213 173.971 971.985 171.397L974.361 173.575C970.995 178.822 966.936 181.99 960.105 181.99ZM986.05 181.99C981.496 181.99 977.833 178.525 977.833 173.971C977.833 169.417 981.496 165.853 986.05 165.853C990.802 165.853 994.168 169.417 994.168 173.971C994.168 178.525 990.802 181.99 986.05 181.99Z" fill="white"/>
</svg>
