<svg width="678" height="452" viewBox="0 0 678 452" fill="none" xmlns="http://www.w3.org/2000/svg">
<g clip-path="url(#clip0)">
<rect width="678" height="452" transform="translate(0 0.00012207)" fill="#2E933B"/>
<path d="M58.1153 367.59L51.1065 373.569L40.3358 339.357L40.0982 339.119L27.0309 352.82L21.7644 347.554L41.8802 327.438L45.4836 331.041L58.1153 367.59Z" fill="white" fill-opacity="0.04"/>
<path d="M81.8382 344.184C80.3335 345.689 78.7232 346.877 77.0073 347.748C75.3177 348.593 73.4699 348.989 71.4636 348.936C69.4309 348.857 67.2002 348.157 64.7715 346.837C62.3428 345.464 59.6633 343.313 56.7331 340.383C53.8028 337.452 51.6646 334.786 50.3182 332.384C48.9983 329.955 48.3119 327.738 48.2591 325.731C48.1799 323.699 48.5627 321.838 49.4075 320.148C50.2787 318.432 51.4666 316.822 52.9713 315.317C54.476 313.812 56.0863 312.625 57.8022 311.753C59.5182 310.882 61.3793 310.499 63.3856 310.605C65.3919 310.658 67.5962 311.357 69.9984 312.704C72.4271 314.024 75.1066 316.149 78.0368 319.079C80.9671 322.009 83.1054 324.702 84.4517 327.157C85.798 329.559 86.5108 331.777 86.59 333.809C86.6692 335.789 86.2732 337.637 85.402 339.353C84.5309 341.069 83.3429 342.679 81.8382 344.184ZM76.6905 338.957C77.6408 338.007 78.1952 336.977 78.3536 335.869C78.512 334.707 78.0764 333.295 77.0469 331.632C76.0173 329.968 74.2486 327.883 71.7408 325.375C69.1801 322.814 67.0682 321.046 65.4051 320.069C63.7419 319.092 62.3428 318.696 61.2077 318.881C60.0989 319.039 59.0826 319.581 58.1586 320.504C57.2347 321.428 56.6803 322.458 56.4955 323.593C56.3371 324.702 56.7463 326.088 57.7231 327.751C58.6998 329.361 60.4553 331.434 62.9896 333.968C65.4975 336.476 67.5829 338.244 69.2461 339.274C70.9356 340.277 72.3611 340.726 73.5226 340.62C74.6842 340.462 75.7401 339.908 76.6905 338.957Z" fill="white" fill-opacity="0.04"/>
<path d="M117.693 308.329C115.423 310.599 113.113 312.091 110.764 312.804C108.388 313.49 106.144 313.569 104.032 313.041C101.946 312.487 100.191 311.497 98.7654 310.071C97.2871 308.593 96.3764 306.864 96.0332 304.884C95.69 302.904 95.7164 301.056 96.1124 299.34C94.5284 299.551 92.9709 299.419 91.4398 298.944C89.9087 298.416 88.47 297.479 87.1236 296.133C84.9325 293.942 83.9294 291.355 84.1142 288.372C84.299 285.389 85.9093 282.379 88.9451 279.343C91.057 277.231 93.1425 275.832 95.2016 275.146C97.2607 274.407 99.201 274.262 101.023 274.71C102.844 275.159 104.454 276.083 105.853 277.482C107.332 278.961 108.256 280.571 108.625 282.313C109.021 284.029 109.061 285.732 108.744 287.421C109.774 287.025 110.948 286.775 112.268 286.669C113.588 286.563 114.921 286.709 116.268 287.104C117.64 287.474 118.908 288.24 120.069 289.401C121.495 290.827 122.419 292.595 122.841 294.707C123.29 296.793 123.118 299.023 122.326 301.399C121.508 303.749 119.964 306.059 117.693 308.329ZM101.102 290.391C101.577 289.23 101.775 288.108 101.696 287.025C101.616 285.943 101.102 284.927 100.151 283.976C99.2274 283.052 98.2375 282.564 97.1815 282.511C96.1256 282.458 95.0168 283.013 93.8553 284.174C92.5882 285.441 91.9678 286.563 91.9942 287.54C92.047 288.49 92.4561 289.348 93.2217 290.114C94.1193 291.012 95.1884 291.5 96.4291 291.579C97.6435 291.632 99.201 291.236 101.102 290.391ZM112.585 302.983C114.063 301.505 114.882 300.159 115.04 298.944C115.172 297.704 114.776 296.621 113.852 295.697C112.849 294.694 111.648 294.259 110.249 294.391C108.823 294.496 106.791 295.262 104.151 296.687C103.544 297.981 103.24 299.208 103.24 300.37C103.266 301.505 103.86 302.653 105.022 303.815C105.972 304.765 107.081 305.267 108.348 305.32C109.615 305.32 111.028 304.541 112.585 302.983Z" fill="white" fill-opacity="0.04"/>
<path d="M139.91 286.112C138.511 287.511 137.032 288.673 135.475 289.597C133.917 290.521 132.452 291.273 131.08 291.854C129.707 292.382 128.585 292.765 127.714 293.002C126.869 293.214 126.447 293.319 126.447 293.319L123.754 286.984C123.754 286.984 124.176 286.799 125.021 286.429C125.866 286.007 126.922 285.479 128.189 284.845C129.43 284.185 130.684 283.459 131.951 282.667C133.191 281.849 134.234 281.017 135.079 280.173C136.003 279.249 136.531 278.378 136.663 277.559C136.742 277.058 136.584 276.45 136.188 275.738C135.765 274.999 135.185 274.259 134.445 273.52C133.759 272.834 133.046 272.279 132.307 271.857C131.568 271.435 130.974 271.263 130.525 271.342C129.892 271.395 129.034 271.804 127.951 272.57C126.843 273.309 125.272 274.695 123.239 276.728C122.738 277.229 122.13 277.863 121.418 278.628C120.678 279.368 120.032 280.041 119.477 280.648C118.923 281.202 118.646 281.479 118.646 281.479L105.658 263.66L120.269 249.049L125.417 254.196L115.795 263.502L120.269 269.56C122.619 267.475 124.929 265.851 127.199 264.69C129.469 263.476 131.7 262.987 133.891 263.225C136.108 263.436 138.339 264.663 140.583 266.907C143.513 269.838 144.899 273.019 144.741 276.451C144.582 279.83 142.972 283.05 139.91 286.112Z" fill="white" fill-opacity="0.04"/>
<path d="M60.2491 252.636C57.9789 254.906 55.669 256.398 53.3195 257.111C50.9436 257.797 48.6998 257.876 46.5879 257.348C44.5024 256.794 42.7468 255.804 41.3213 254.378C39.843 252.9 38.9322 251.171 38.5891 249.191C38.2459 247.211 38.2723 245.363 38.6682 243.647C37.0843 243.858 35.5268 243.727 33.9957 243.251C32.4646 242.723 31.0258 241.786 29.6795 240.44C27.4884 238.249 26.4853 235.662 26.6701 232.679C26.8549 229.696 28.4652 226.686 31.501 223.65C33.6129 221.538 35.6984 220.139 37.7575 219.453C39.8166 218.714 41.7569 218.569 43.5784 219.017C45.3999 219.466 47.0102 220.39 48.4094 221.789C49.8877 223.268 50.8116 224.878 51.1812 226.62C51.5772 228.336 51.6168 230.039 51.3 231.728C52.3296 231.332 53.5043 231.082 54.8242 230.976C56.1442 230.87 57.4773 231.016 58.8236 231.412C60.1964 231.781 61.4635 232.547 62.625 233.708C64.0506 235.134 64.9745 236.902 65.3969 239.014C65.8457 241.1 65.6741 243.331 64.8821 245.706C64.0638 248.056 62.5194 250.366 60.2491 252.636ZM43.6576 234.698C44.1328 233.537 44.3308 232.415 44.2516 231.332C44.1724 230.25 43.6576 229.234 42.7072 228.283C41.7833 227.359 40.7933 226.871 39.7374 226.818C38.6814 226.765 37.5727 227.32 36.4112 228.481C35.144 229.748 34.5237 230.87 34.5501 231.847C34.6029 232.797 35.0121 233.655 35.7776 234.421C36.6752 235.319 37.7443 235.807 38.985 235.886C40.1994 235.939 41.7569 235.543 43.6576 234.698ZM55.141 247.29C56.6193 245.812 57.4377 244.466 57.5961 243.251C57.7281 242.011 57.3321 240.928 56.4081 240.004C55.405 239.001 54.2039 238.566 52.8047 238.698C51.3792 238.803 49.3465 239.569 46.7066 240.994C46.0995 242.288 45.7959 243.515 45.7959 244.677C45.8223 245.812 46.4162 246.96 47.5778 248.122C48.5281 249.072 49.6369 249.574 50.904 249.627C52.1712 249.627 53.5835 248.848 55.141 247.29Z" fill="white" fill-opacity="0.04"/>
<path d="M84.5249 227.331L78.9812 221.787L66.1514 234.617L62.1916 230.657L50.1143 204.958L56.7667 199.81L67.5769 222.975L67.8145 223.213L73.9126 216.639L65.4387 205.473L70.1508 200.761L79.8127 210.422L82.347 207.73L87.6927 213.076L85.0793 215.689L90.6626 221.193L84.5249 227.331Z" fill="white" fill-opacity="0.04"/>
<path d="M119.814 192.042L114.508 186.736L121.398 179.925L105.717 163.769L105.479 164.007L105.519 173.233L97.5201 173.074L98.8269 156.72L105.123 151.216L127.654 173.748L133.594 167.65L138.9 172.956L119.814 192.042Z" fill="white" fill-opacity="0.04"/>
<path d="M107.128 89.2272L101.822 83.9211L108.712 77.1103L93.0308 60.9543L92.7932 61.1919L92.8328 70.4182L84.834 70.2598L86.1407 53.9058L92.4368 48.4017L114.968 70.933L120.908 64.8349L126.214 70.141L107.128 89.2272Z" fill="white" fill-opacity="0.04"/>
<path d="M138.399 58.9858C136.128 61.2561 133.818 62.7476 131.469 63.4604C129.093 64.1468 126.849 64.226 124.737 63.698C122.652 63.1436 120.896 62.1537 119.471 60.7281C117.992 59.2498 117.082 57.5207 116.739 55.5408C116.395 53.5609 116.422 51.713 116.818 49.9971C115.234 50.2083 113.676 50.0763 112.145 49.6011C110.614 49.0731 109.175 48.136 107.829 46.7896C105.638 44.5986 104.635 42.0115 104.82 39.0284C105.004 36.0454 106.615 33.0359 109.65 30.0001C111.762 27.8882 113.848 26.4891 115.907 25.8027C117.966 25.0635 119.906 24.9184 121.728 25.3672C123.549 25.8159 125.16 26.7399 126.559 28.139C128.037 29.6173 128.961 31.2276 129.331 32.9699C129.727 34.6859 129.766 36.3886 129.449 38.0781C130.479 37.6821 131.654 37.4313 132.974 37.3257C134.294 37.2202 135.627 37.3653 136.973 37.7613C138.346 38.1309 139.613 38.8964 140.775 40.058C142.2 41.4835 143.124 43.2522 143.546 45.3641C143.995 47.4496 143.824 49.6803 143.032 52.0562C142.213 54.4057 140.669 56.7156 138.399 58.9858ZM121.807 41.0479C122.282 39.8864 122.48 38.7644 122.401 37.6821C122.322 36.5998 121.807 35.5834 120.857 34.6331C119.933 33.7091 118.943 33.2207 117.887 33.1679C116.831 33.1151 115.722 33.6695 114.561 34.8311C113.294 36.0982 112.673 37.2201 112.7 38.1969C112.752 39.1472 113.162 40.0052 113.927 40.7708C114.825 41.6683 115.894 42.1567 117.134 42.2359C118.349 42.2887 119.906 41.8927 121.807 41.0479ZM133.29 53.6401C134.769 52.1618 135.587 50.8154 135.746 49.6011C135.878 48.3604 135.482 47.278 134.558 46.3541C133.554 45.3509 132.353 44.9153 130.954 45.0473C129.529 45.1529 127.496 45.9185 124.856 47.344C124.249 48.6376 123.945 49.8651 123.945 51.0266C123.972 52.1618 124.566 53.3101 125.727 54.4716C126.678 55.422 127.786 55.9236 129.053 55.9764C130.321 55.9764 131.733 55.1976 133.29 53.6401Z" fill="white" fill-opacity="0.04"/>
<path d="M164.878 146.978L159.572 141.672L166.462 134.861L150.781 118.705L150.544 118.942L150.583 128.169L142.584 128.01L143.891 111.656L150.187 106.152L172.718 128.683L178.658 122.585L183.964 127.891L164.878 146.978Z" fill="white" fill-opacity="0.04"/>
<path d="M196.149 116.736C193.879 119.006 191.569 120.498 189.219 121.211C186.843 121.897 184.6 121.976 182.488 121.448C180.402 120.894 178.647 119.904 177.221 118.479C175.743 117 174.832 115.271 174.489 113.291C174.146 111.311 174.172 109.463 174.568 107.747C172.984 107.959 171.427 107.827 169.896 107.352C168.364 106.824 166.926 105.886 165.579 104.54C163.388 102.349 162.385 99.7619 162.57 96.7788C162.755 93.7958 164.365 90.7863 167.401 87.7505C169.513 85.6386 171.598 84.2395 173.657 83.5531C175.716 82.814 177.657 82.6687 179.478 83.1175C181.3 83.5663 182.91 84.4903 184.309 85.8894C185.788 87.3677 186.711 88.9781 187.081 90.7204C187.477 92.4363 187.517 94.139 187.2 95.8285C188.229 95.4325 189.404 95.1817 190.724 95.0761C192.044 94.9705 193.377 95.1157 194.723 95.5117C196.096 95.8813 197.363 96.6468 198.525 97.8084C199.95 99.2339 200.874 101.003 201.297 103.115C201.745 105.2 201.574 107.431 200.782 109.807C199.964 112.156 198.419 114.466 196.149 116.736ZM179.557 98.7983C180.033 97.6368 180.231 96.5149 180.151 95.4325C180.072 94.3502 179.557 93.3338 178.607 92.3835C177.683 91.4595 176.693 90.9712 175.637 90.9184C174.581 90.8656 173.473 91.4199 172.311 92.5815C171.044 93.8486 170.423 94.9705 170.45 95.9473C170.503 96.8976 170.912 97.7556 171.677 98.5211C172.575 99.4187 173.644 99.9071 174.885 99.9863C176.099 100.039 177.657 99.6431 179.557 98.7983ZM191.041 111.391C192.519 109.912 193.338 108.566 193.496 107.352C193.628 106.111 193.232 105.028 192.308 104.104C191.305 103.101 190.104 102.666 188.705 102.798C187.279 102.903 185.246 103.669 182.606 105.094C181.999 106.388 181.696 107.615 181.696 108.777C181.722 109.912 182.316 111.061 183.478 112.222C184.428 113.172 185.537 113.674 186.804 113.727C188.071 113.727 189.483 112.948 191.041 111.391Z" fill="white" fill-opacity="0.04"/>
<path d="M277.488 260.642L272.181 255.336L279.071 248.525L263.391 232.369L263.153 232.607L263.193 241.833L255.194 241.675L256.501 225.321L262.797 219.817L285.328 242.348L291.268 236.25L296.574 241.556L277.488 260.642Z" fill="white" fill-opacity="0.04"/>
<path d="M308.6 230.559C307.518 231.642 306.303 232.592 304.957 233.41C303.637 234.202 302.37 234.889 301.156 235.469C299.941 235.997 298.938 236.393 298.146 236.657C297.354 236.921 296.958 237.053 296.958 237.053L294.028 230.718C294.028 230.718 294.371 230.559 295.058 230.242C295.77 229.899 296.642 229.477 297.671 228.975C298.701 228.421 299.743 227.827 300.799 227.193C301.855 226.507 302.726 225.821 303.413 225.134C304.126 224.422 304.64 223.801 304.957 223.273C305.3 222.719 305.485 222.244 305.511 221.848C305.591 221.029 305.3 220.079 304.64 218.997C303.98 217.914 303.03 216.674 301.789 215.274C301.789 215.274 301.591 215.525 301.195 216.027C300.826 216.502 300.351 217.083 299.77 217.769C299.215 218.429 298.635 219.063 298.027 219.67C296.074 221.623 294.054 223.036 291.969 223.907C289.883 224.778 287.785 224.976 285.673 224.501C283.561 224.026 281.489 222.772 279.456 220.739C276.473 217.756 275.034 214.575 275.14 211.196C275.272 207.79 276.895 204.53 280.01 201.415C282.096 199.33 284.353 197.944 286.782 197.257C289.184 196.545 291.85 196.782 294.78 197.97C297.711 199.158 300.984 201.56 304.601 205.177C307.689 208.266 309.973 211.262 311.451 214.166C312.956 217.043 313.51 219.841 313.114 222.56C312.718 225.28 311.214 227.946 308.6 230.559ZM292.642 214.601C293.223 214.021 293.804 213.361 294.384 212.621C294.939 211.856 295.414 211.196 295.81 210.641C296.18 210.061 296.364 209.77 296.364 209.77C294.596 208.002 293.183 206.748 292.127 206.009C291.098 205.243 290.293 204.781 289.712 204.623C289.131 204.464 288.656 204.438 288.286 204.543C287.785 204.623 287.257 204.887 286.702 205.335C286.148 205.731 285.594 206.206 285.039 206.761C283.508 208.292 282.875 209.638 283.139 210.8C283.376 211.935 284.221 213.229 285.673 214.68C286.333 215.34 286.993 215.868 287.653 216.264C288.339 216.634 289.078 216.713 289.87 216.502C290.662 216.291 291.586 215.657 292.642 214.601Z" fill="white" fill-opacity="0.04"/>
<path d="M242.176 296.984C240.011 299.149 237.701 300.587 235.246 301.3C232.791 301.96 230.138 301.709 227.287 300.548C224.462 299.36 221.347 297.063 217.942 293.658C214.906 290.622 212.728 287.81 211.408 285.223C210.062 282.61 209.388 280.221 209.388 278.056C209.388 275.839 209.89 273.779 210.893 271.879C211.896 269.978 213.203 268.222 214.813 266.612C216.08 265.345 217.387 264.276 218.733 263.405C220.053 262.507 221.175 261.834 222.099 261.385C223.023 260.936 223.485 260.712 223.485 260.712L226.97 266.889C226.97 266.889 226.706 267.074 226.178 267.444C225.624 267.787 224.95 268.249 224.158 268.83C223.34 269.384 222.509 270.004 221.664 270.691C220.819 271.324 220.08 271.958 219.446 272.591C217.994 274.043 217.229 275.337 217.15 276.472C217.07 277.238 217.255 278.135 217.704 279.165C218.179 280.168 218.998 281.382 220.159 282.808C220.159 282.808 220.317 282.623 220.634 282.253C220.951 281.884 221.334 281.475 221.783 281.026C222.205 280.551 222.588 280.142 222.931 279.798C225.201 277.528 227.432 275.852 229.623 274.769C231.814 273.687 234.005 273.344 236.196 273.74C238.361 274.109 240.526 275.377 242.69 277.541C245.726 280.577 247.165 283.811 247.006 287.243C246.874 290.648 245.264 293.895 242.176 296.984ZM237.226 291.559C238.625 290.16 239.272 288.906 239.166 287.797C239.06 286.636 238.255 285.302 236.751 283.798C235.351 282.399 234.111 281.712 233.028 281.739C231.946 281.712 230.587 282.517 228.95 284.154C228.448 284.656 227.92 285.236 227.366 285.896C226.785 286.53 226.297 287.098 225.901 287.599C225.531 288.074 225.346 288.312 225.346 288.312L227.326 290.292C229.069 292.034 230.441 293.09 231.444 293.46C232.421 293.803 233.094 293.948 233.464 293.895C233.86 293.869 234.361 293.71 234.969 293.42C235.576 293.077 236.328 292.456 237.226 291.559Z" fill="white" fill-opacity="0.04"/>
<path d="M289.031 363.65L284.557 359.175C284.557 359.175 284.557 357.803 284.557 355.057C284.53 352.285 284.372 348.405 284.082 343.415C283.923 339.983 283.646 337.066 283.25 334.664C282.854 332.209 282.115 330.44 281.032 329.358C280.504 328.83 279.897 328.592 279.211 328.645C278.551 328.672 277.785 329.12 276.914 329.992C276.175 330.731 275.449 331.747 274.736 333.041C274.024 334.334 273.364 335.76 272.757 337.317C272.149 338.822 271.661 340.34 271.291 341.871L264.243 339.733C264.349 338.73 264.639 337.383 265.114 335.694C265.563 333.978 266.249 332.183 267.173 330.308C268.071 328.408 269.259 326.718 270.737 325.24C272.532 323.445 274.42 322.138 276.4 321.32C278.379 320.501 280.32 320.25 282.22 320.567C284.148 320.858 285.89 321.782 287.447 323.339C288.583 324.474 289.454 325.873 290.061 327.536C290.668 329.2 291.117 330.968 291.407 332.843C291.698 334.717 291.922 336.578 292.08 338.426C292.397 342.122 292.569 344.88 292.595 346.702C292.621 348.523 292.635 349.434 292.635 349.434L292.872 349.672L303.682 338.386L308.989 343.693L289.031 363.65Z" fill="white" fill-opacity="0.04"/>
<path d="M335.194 317.487L329.888 312.181L336.778 305.37L321.097 289.214L320.86 289.452L320.899 298.678L312.9 298.52L314.207 282.166L320.503 276.661L343.034 299.193L348.974 293.095L354.28 298.401L335.194 317.487Z" fill="white" fill-opacity="0.04"/>
<path d="M356.209 296.472L351.735 291.997C351.735 291.997 351.735 290.625 351.735 287.879C351.708 285.107 351.55 281.227 351.259 276.237C351.101 272.806 350.824 269.888 350.428 267.486C350.032 265.031 349.293 263.262 348.21 262.18C347.682 261.652 347.075 261.415 346.389 261.467C345.729 261.494 344.963 261.942 344.092 262.814C343.353 263.553 342.627 264.569 341.914 265.863C341.202 267.156 340.542 268.582 339.934 270.139C339.327 271.644 338.839 273.162 338.469 274.693L331.421 272.555C331.526 271.552 331.817 270.205 332.292 268.516C332.741 266.8 333.427 265.005 334.351 263.13C335.249 261.23 336.437 259.54 337.915 258.062C339.71 256.267 341.598 254.96 343.577 254.142C345.557 253.323 347.498 253.073 349.398 253.389C351.325 253.68 353.068 254.604 354.625 256.161C355.76 257.296 356.632 258.695 357.239 260.359C357.846 262.022 358.295 263.79 358.585 265.665C358.875 267.539 359.1 269.4 359.258 271.248C359.575 274.944 359.747 277.702 359.773 279.524C359.799 281.345 359.813 282.256 359.813 282.256L360.05 282.494L370.86 271.208L376.167 276.515L356.209 296.472Z" fill="white" fill-opacity="0.04"/>
<path d="M457.032 196.679C455.738 197.972 454.379 199.068 452.953 199.965C451.581 200.863 450.261 201.602 448.994 202.183C447.726 202.764 446.644 203.212 445.746 203.529C444.849 203.846 444.242 204.057 443.925 204.163L441.351 197.867C441.747 197.629 442.381 197.286 443.252 196.837C444.149 196.362 445.139 195.794 446.222 195.134C447.304 194.474 448.373 193.775 449.429 193.036C450.485 192.297 451.409 191.531 452.201 190.739C453.363 189.578 453.904 188.561 453.824 187.69C453.745 186.766 453.191 185.789 452.161 184.76C450.604 183.202 449.178 182.463 447.885 182.542C446.618 182.595 445.271 183.334 443.846 184.76L438.619 189.987L433.471 184.839C435.557 182.437 437.14 180.536 438.223 179.137C439.332 177.711 439.939 176.55 440.044 175.652C440.176 174.728 439.794 173.818 438.896 172.92C438.342 172.366 437.853 171.983 437.431 171.772C437.035 171.534 436.692 171.428 436.401 171.455C435.953 171.481 435.372 171.772 434.659 172.326C433.946 172.828 433.128 173.54 432.204 174.464C431.729 174.939 431.24 175.481 430.739 176.088C430.237 176.642 429.617 177.368 428.878 178.266C428.139 179.163 427.175 180.364 425.987 181.869L420.325 177.632C420.853 176.682 421.513 175.679 422.305 174.623C423.096 173.514 423.915 172.458 424.76 171.455C425.631 170.425 426.423 169.554 427.135 168.841C429.063 166.914 431.029 165.423 433.036 164.367C435.015 163.284 436.982 162.849 438.936 163.06C440.916 163.245 442.869 164.301 444.796 166.228C446.38 167.812 447.317 169.356 447.608 170.861C447.872 172.339 447.845 173.686 447.528 174.9L447.766 175.137C449.244 174.61 450.868 174.464 452.637 174.702C454.432 174.913 456.306 175.995 458.259 177.949C459.843 179.533 460.965 181.315 461.625 183.295C462.312 185.248 462.338 187.36 461.704 189.63C461.045 191.874 459.487 194.224 457.032 196.679Z" fill="white" fill-opacity="0.04"/>
<path d="M470.545 182.136L466.07 177.662C466.07 177.662 466.07 176.289 466.07 173.543C466.044 170.771 465.886 166.891 465.595 161.902C465.437 158.47 465.16 155.553 464.764 153.15C464.368 150.695 463.629 148.927 462.546 147.844C462.018 147.316 461.411 147.079 460.725 147.131C460.065 147.158 459.299 147.607 458.428 148.478C457.689 149.217 456.963 150.233 456.25 151.527C455.537 152.82 454.877 154.246 454.27 155.803C453.663 157.308 453.175 158.826 452.805 160.357L445.757 158.219C445.862 157.216 446.153 155.869 446.628 154.18C447.077 152.464 447.763 150.669 448.687 148.795C449.585 146.894 450.772 145.204 452.251 143.726C454.046 141.931 455.933 140.624 457.913 139.806C459.893 138.987 461.833 138.737 463.734 139.053C465.661 139.344 467.404 140.268 468.961 141.825C470.096 142.961 470.967 144.36 471.575 146.023C472.182 147.686 472.631 149.455 472.921 151.329C473.211 153.203 473.436 155.064 473.594 156.912C473.911 160.608 474.082 163.367 474.109 165.188C474.135 167.01 474.148 167.92 474.148 167.92L474.386 168.158L485.196 156.873L490.502 162.179L470.545 182.136Z" fill="white" fill-opacity="0.04"/>
<path d="M627.945 368.006C626.651 369.299 625.292 370.395 623.866 371.292C622.493 372.19 621.173 372.929 619.906 373.51C618.639 374.091 617.557 374.539 616.659 374.856C615.762 375.173 615.154 375.384 614.838 375.49L612.264 369.194C612.66 368.956 613.293 368.613 614.164 368.164C615.062 367.689 616.052 367.121 617.134 366.461C618.217 365.801 619.286 365.102 620.342 364.363C621.398 363.624 622.322 362.858 623.114 362.066C624.275 360.904 624.816 359.888 624.737 359.017C624.658 358.093 624.104 357.116 623.074 356.087C621.517 354.529 620.091 353.79 618.797 353.869C617.53 353.922 616.184 354.661 614.758 356.087L609.531 361.314L604.384 356.166C606.469 353.764 608.053 351.863 609.136 350.464C610.244 349.038 610.851 347.877 610.957 346.979C611.089 346.055 610.706 345.145 609.809 344.247C609.254 343.693 608.766 343.31 608.344 343.099C607.948 342.861 607.604 342.755 607.314 342.782C606.865 342.808 606.285 343.099 605.572 343.653C604.859 344.155 604.041 344.867 603.117 345.791C602.642 346.266 602.153 346.808 601.652 347.415C601.15 347.969 600.53 348.695 599.79 349.593C599.051 350.49 598.088 351.691 596.9 353.196L591.237 348.959C591.765 348.009 592.425 347.006 593.217 345.95C594.009 344.841 594.827 343.785 595.672 342.782C596.543 341.752 597.335 340.881 598.048 340.168C599.975 338.241 601.942 336.75 603.948 335.694C605.928 334.611 607.895 334.176 609.848 334.387C611.828 334.572 613.782 335.628 615.709 337.555C617.293 339.139 618.23 340.683 618.52 342.188C618.784 343.666 618.758 345.013 618.441 346.227L618.679 346.464C620.157 345.936 621.78 345.791 623.549 346.029C625.344 346.24 627.219 347.322 629.172 349.276C630.756 350.86 631.878 352.642 632.538 354.622C633.224 356.575 633.251 358.687 632.617 360.957C631.957 363.201 630.4 365.551 627.945 368.006Z" fill="white" fill-opacity="0.04"/>
<path d="M652.268 343.682C650.974 344.976 649.615 346.071 648.189 346.969C646.817 347.867 645.497 348.606 644.23 349.186C642.962 349.767 641.88 350.216 640.983 350.533C640.085 350.85 639.478 351.061 639.161 351.166L636.587 344.87C636.983 344.633 637.617 344.29 638.488 343.841C639.385 343.366 640.375 342.798 641.458 342.138C642.54 341.478 643.609 340.779 644.665 340.039C645.721 339.3 646.645 338.535 647.437 337.743C648.599 336.581 649.14 335.565 649.06 334.694C648.981 333.77 648.427 332.793 647.397 331.763C645.84 330.206 644.414 329.467 643.121 329.546C641.854 329.599 640.507 330.338 639.082 331.763L633.855 336.99L628.707 331.843C630.793 329.44 632.377 327.54 633.459 326.141C634.568 324.715 635.175 323.553 635.28 322.656C635.412 321.732 635.03 320.821 634.132 319.924C633.578 319.369 633.089 318.986 632.667 318.775C632.271 318.538 631.928 318.432 631.637 318.458C631.189 318.485 630.608 318.775 629.895 319.33C629.182 319.831 628.364 320.544 627.44 321.468C626.965 321.943 626.476 322.484 625.975 323.091C625.473 323.646 624.853 324.372 624.114 325.269C623.375 326.167 622.411 327.368 621.223 328.873L615.561 324.636C616.089 323.685 616.749 322.682 617.541 321.626C618.332 320.518 619.151 319.462 619.996 318.458C620.867 317.429 621.659 316.558 622.372 315.845C624.299 313.918 626.265 312.426 628.272 311.37C630.252 310.288 632.218 309.852 634.172 310.064C636.152 310.248 638.105 311.304 640.032 313.232C641.616 314.815 642.553 316.36 642.844 317.865C643.108 319.343 643.081 320.689 642.764 321.903L643.002 322.141C644.48 321.613 646.104 321.468 647.873 321.706C649.668 321.917 651.542 322.999 653.495 324.953C655.079 326.536 656.201 328.318 656.861 330.298C657.548 332.252 657.574 334.364 656.94 336.634C656.281 338.878 654.723 341.227 652.268 343.682Z" fill="white" fill-opacity="0.04"/>
<path d="M561.334 433.587L556.859 429.113C556.859 429.113 556.859 427.74 556.859 424.994C556.833 422.223 556.674 418.342 556.384 413.353C556.226 409.921 555.948 407.004 555.552 404.601C555.156 402.146 554.417 400.378 553.335 399.295C552.807 398.767 552.2 398.53 551.513 398.583C550.853 398.609 550.088 399.058 549.217 399.929C548.478 400.668 547.752 401.684 547.039 402.978C546.326 404.271 545.666 405.697 545.059 407.254C544.452 408.759 543.963 410.277 543.594 411.808L536.545 409.67C536.651 408.667 536.941 407.32 537.417 405.631C537.865 403.915 538.552 402.12 539.476 400.246C540.373 398.345 541.561 396.655 543.039 395.177C544.835 393.382 546.722 392.075 548.702 391.257C550.682 390.439 552.622 390.188 554.523 390.505C556.45 390.795 558.192 391.719 559.75 393.276C560.885 394.412 561.756 395.811 562.363 397.474C562.97 399.137 563.419 400.906 563.71 402.78C564 404.654 564.224 406.515 564.383 408.363C564.699 412.059 564.871 414.818 564.898 416.639C564.924 418.461 564.937 419.371 564.937 419.371L565.175 419.609L575.985 408.324L581.291 413.63L561.334 433.587Z" fill="white" fill-opacity="0.04"/>
<path d="M584.536 410.385L580.061 405.911C580.061 405.911 580.061 404.538 580.061 401.792C580.035 399.021 579.876 395.14 579.586 390.151C579.427 386.719 579.15 383.802 578.754 381.399C578.358 378.944 577.619 377.176 576.537 376.093C576.009 375.565 575.402 375.328 574.715 375.381C574.055 375.407 573.29 375.856 572.419 376.727C571.679 377.466 570.953 378.482 570.241 379.776C569.528 381.069 568.868 382.495 568.261 384.053C567.654 385.557 567.165 387.075 566.796 388.606L559.747 386.468C559.853 385.465 560.143 384.119 560.618 382.429C561.067 380.713 561.754 378.918 562.678 377.044C563.575 375.143 564.763 373.453 566.241 371.975C568.036 370.18 569.924 368.873 571.904 368.055C573.884 367.237 575.824 366.986 577.725 367.303C579.652 367.593 581.394 368.517 582.952 370.074C584.087 371.21 584.958 372.609 585.565 374.272C586.172 375.935 586.621 377.704 586.911 379.578C587.202 381.452 587.426 383.313 587.585 385.161C587.901 388.857 588.073 391.616 588.099 393.437C588.126 395.259 588.139 396.169 588.139 396.169L588.377 396.407L599.187 385.122L604.493 390.428L584.536 410.385Z" fill="white" fill-opacity="0.04"/>
<path d="M505.442 376.342L500.967 371.867C500.967 371.867 500.967 370.495 500.967 367.749C500.941 364.977 500.782 361.097 500.492 356.107C500.334 352.675 500.057 349.758 499.661 347.356C499.265 344.901 498.525 343.132 497.443 342.05C496.915 341.522 496.308 341.284 495.622 341.337C494.962 341.364 494.196 341.812 493.325 342.684C492.586 343.423 491.86 344.439 491.147 345.733C490.434 347.026 489.774 348.452 489.167 350.009C488.56 351.514 488.071 353.032 487.702 354.563L480.654 352.425C480.759 351.422 481.049 350.075 481.525 348.386C481.973 346.67 482.66 344.875 483.584 343C484.481 341.1 485.669 339.41 487.148 337.932C488.943 336.137 490.83 334.83 492.81 334.012C494.79 333.193 496.73 332.942 498.631 333.259C500.558 333.55 502.3 334.474 503.858 336.031C504.993 337.166 505.864 338.565 506.471 340.229C507.079 341.892 507.527 343.66 507.818 345.535C508.108 347.409 508.333 349.27 508.491 351.118C508.808 354.814 508.979 357.572 509.006 359.394C509.032 361.215 509.045 362.126 509.045 362.126L509.283 362.364L520.093 351.078L525.399 356.385L505.442 376.342Z" fill="white" fill-opacity="0.04"/>
<path d="M538.108 344.706C536.709 346.105 535.23 347.266 533.673 348.19C532.115 349.114 530.65 349.866 529.277 350.447C527.905 350.975 526.783 351.358 525.911 351.596C525.067 351.807 524.644 351.912 524.644 351.912L521.952 345.577C521.952 345.577 522.374 345.392 523.219 345.022C524.064 344.6 525.12 344.072 526.387 343.438C527.627 342.779 528.881 342.053 530.148 341.261C531.389 340.442 532.432 339.611 533.277 338.766C534.201 337.842 534.729 336.971 534.861 336.152C534.94 335.651 534.781 335.044 534.385 334.331C533.963 333.592 533.382 332.853 532.643 332.113C531.957 331.427 531.244 330.873 530.505 330.45C529.766 330.028 529.172 329.856 528.723 329.936C528.089 329.988 527.231 330.397 526.149 331.163C525.04 331.902 523.47 333.288 521.437 335.321C520.935 335.822 520.328 336.456 519.615 337.222C518.876 337.961 518.229 338.634 517.675 339.241C517.121 339.795 516.844 340.073 516.844 340.073L503.855 322.254L518.467 307.642L523.615 312.79L513.992 322.095L518.467 328.154C520.817 326.068 523.126 324.445 525.397 323.283C527.667 322.069 529.898 321.58 532.089 321.818C534.306 322.029 536.537 323.257 538.781 325.501C541.711 328.431 543.097 331.612 542.939 335.044C542.78 338.423 541.17 341.643 538.108 344.706Z" fill="white" fill-opacity="0.04"/>
<path d="M633.03 248.754L627.486 243.21L614.656 256.04L610.697 252.08L598.619 226.381L605.272 221.233L616.082 244.398L616.319 244.636L622.418 238.062L613.944 226.896L618.656 222.184L628.318 231.846L630.852 229.153L636.198 234.499L633.584 237.112L639.167 242.616L633.03 248.754Z" fill="white" fill-opacity="0.04"/>
<path d="M651.021 231.475L644.013 237.454L633.242 203.242L633.004 203.004L619.937 216.705L614.671 211.438L634.786 191.323L638.39 194.926L651.021 231.475Z" fill="white" fill-opacity="0.04"/>
<path d="M573.511 193.721L567.968 188.177L555.138 201.007L551.178 197.047L539.101 171.348L545.753 166.201L556.563 189.365L556.801 189.603L562.899 183.03L554.425 171.863L559.137 167.151L568.799 176.813L571.333 174.12L576.679 179.466L574.066 182.079L579.649 187.583L573.511 193.721Z" fill="white" fill-opacity="0.04"/>
<path d="M595.691 172.571C594.398 173.864 593.038 174.96 591.612 175.858C590.24 176.755 588.92 177.494 587.653 178.075C586.386 178.656 585.303 179.105 584.406 179.421C583.508 179.738 582.901 179.949 582.584 180.055L580.01 173.759C580.406 173.521 581.04 173.178 581.911 172.729C582.809 172.254 583.799 171.687 584.881 171.027C585.963 170.367 587.032 169.667 588.088 168.928C589.144 168.189 590.068 167.423 590.86 166.631C592.022 165.47 592.563 164.453 592.484 163.582C592.404 162.658 591.85 161.681 590.821 160.652C589.263 159.094 587.837 158.355 586.544 158.434C585.277 158.487 583.93 159.226 582.505 160.652L577.278 165.879L572.13 160.731C574.216 158.329 575.8 156.428 576.882 155.029C577.991 153.603 578.598 152.442 578.704 151.544C578.836 150.62 578.453 149.71 577.555 148.812C577.001 148.258 576.512 147.875 576.09 147.664C575.694 147.426 575.351 147.321 575.061 147.347C574.612 147.373 574.031 147.664 573.318 148.218C572.605 148.72 571.787 149.432 570.863 150.356C570.388 150.832 569.9 151.373 569.398 151.98C568.896 152.534 568.276 153.26 567.537 154.158C566.798 155.055 565.834 156.257 564.646 157.761L558.984 153.524C559.512 152.574 560.172 151.571 560.964 150.515C561.756 149.406 562.574 148.35 563.419 147.347C564.29 146.317 565.082 145.446 565.795 144.733C567.722 142.806 569.688 141.315 571.695 140.259C573.675 139.177 575.641 138.741 577.595 138.952C579.575 139.137 581.528 140.193 583.455 142.12C585.039 143.704 585.976 145.248 586.267 146.753C586.531 148.231 586.504 149.578 586.188 150.792L586.425 151.03C587.903 150.502 589.527 150.356 591.296 150.594C593.091 150.805 594.965 151.888 596.919 153.841C598.503 155.425 599.625 157.207 600.284 159.187C600.971 161.14 600.997 163.252 600.364 165.522C599.704 167.766 598.146 170.116 595.691 172.571Z" fill="white" fill-opacity="0.04"/>
<path d="M629.534 138.728C628.135 140.127 626.657 141.288 625.099 142.212C623.542 143.136 622.077 143.888 620.704 144.469C619.331 144.997 618.209 145.38 617.338 145.618C616.493 145.829 616.071 145.934 616.071 145.934L613.378 139.599C613.378 139.599 613.801 139.414 614.646 139.044C615.49 138.622 616.546 138.094 617.813 137.46C619.054 136.8 620.308 136.074 621.575 135.283C622.816 134.464 623.859 133.633 624.704 132.788C625.628 131.864 626.155 130.993 626.287 130.174C626.367 129.673 626.208 129.066 625.812 128.353C625.39 127.614 624.809 126.875 624.07 126.135C623.384 125.449 622.671 124.895 621.932 124.472C621.192 124.05 620.598 123.878 620.15 123.957C619.516 124.01 618.658 124.419 617.576 125.185C616.467 125.924 614.896 127.31 612.864 129.343C612.362 129.844 611.755 130.478 611.042 131.243C610.303 131.983 609.656 132.656 609.102 133.263C608.548 133.817 608.27 134.095 608.27 134.095L595.282 116.275L609.894 101.664L615.042 106.812L605.419 116.117L609.894 122.176C612.243 120.09 614.553 118.467 616.823 117.305C619.094 116.091 621.324 115.602 623.516 115.84C625.733 116.051 627.964 117.279 630.208 119.523C633.138 122.453 634.524 125.634 634.365 129.066C634.207 132.445 632.597 135.665 629.534 138.728Z" fill="white" fill-opacity="0.04"/>
<path d="M642.83 124.403L637.524 119.097L644.414 112.286L628.733 96.1297L628.495 96.3673L628.535 105.594L620.536 105.435L621.843 89.0812L628.139 83.5771L650.67 106.108L656.61 100.01L661.916 105.316L642.83 124.403Z" fill="white" fill-opacity="0.04"/>
<path d="M446.929 320.304L442.454 315.829C442.454 315.829 442.454 314.456 442.454 311.711C442.428 308.939 442.269 305.058 441.979 300.069C441.821 296.637 441.543 293.72 441.147 291.318C440.751 288.863 440.012 287.094 438.93 286.012C438.402 285.484 437.795 285.246 437.108 285.299C436.448 285.325 435.683 285.774 434.812 286.645C434.073 287.385 433.347 288.401 432.634 289.694C431.921 290.988 431.261 292.413 430.654 293.971C430.047 295.476 429.558 296.994 429.189 298.525L422.14 296.386C422.246 295.383 422.536 294.037 423.012 292.347C423.46 290.632 424.147 288.836 425.071 286.962C425.968 285.061 427.156 283.372 428.635 281.894C430.43 280.099 432.317 278.792 434.297 277.973C436.277 277.155 438.217 276.904 440.118 277.221C442.045 277.511 443.787 278.435 445.345 279.993C446.48 281.128 447.351 282.527 447.958 284.19C448.565 285.853 449.014 287.622 449.305 289.496C449.595 291.371 449.819 293.232 449.978 295.08C450.295 298.776 450.466 301.534 450.493 303.356C450.519 305.177 450.532 306.088 450.532 306.088L450.77 306.326L461.58 295.04L466.886 300.346L446.929 320.304Z" fill="white" fill-opacity="0.04"/>
<path d="M481.218 287.044C479.713 288.549 478.103 289.737 476.387 290.608C474.698 291.452 472.85 291.848 470.844 291.796C468.811 291.716 466.58 291.017 464.151 289.697C461.723 288.324 459.043 286.173 456.113 283.242C453.183 280.312 451.045 277.646 449.698 275.244C448.378 272.815 447.692 270.597 447.639 268.591C447.56 266.558 447.943 264.697 448.787 263.008C449.659 261.292 450.846 259.682 452.351 258.177C453.856 256.672 455.466 255.484 457.182 254.613C458.898 253.742 460.759 253.359 462.766 253.465C464.772 253.518 466.976 254.217 469.378 255.563C471.807 256.883 474.486 259.008 477.417 261.939C480.347 264.869 482.485 267.562 483.832 270.017C485.178 272.419 485.891 274.636 485.97 276.669C486.049 278.649 485.653 280.497 484.782 282.213C483.911 283.929 482.723 285.539 481.218 287.044ZM476.07 281.817C477.021 280.867 477.575 279.837 477.734 278.728C477.892 277.567 477.456 276.154 476.427 274.491C475.397 272.828 473.629 270.743 471.121 268.235C468.56 265.674 466.448 263.905 464.785 262.929C463.122 261.952 461.723 261.556 460.588 261.741C459.479 261.899 458.462 262.44 457.539 263.364C456.615 264.288 456.06 265.318 455.875 266.453C455.717 267.562 456.126 268.948 457.103 270.611C458.08 272.221 459.835 274.293 462.37 276.828C464.877 279.335 466.963 281.104 468.626 282.134C470.315 283.137 471.741 283.586 472.903 283.48C474.064 283.322 475.12 282.767 476.07 281.817Z" fill="white" fill-opacity="0.04"/>
<path d="M276.292 148.7L271.818 144.226C271.818 144.226 271.818 142.853 271.818 140.108C271.791 137.336 271.633 133.455 271.343 128.466C271.184 125.034 270.907 122.117 270.511 119.715C270.115 117.26 269.376 115.491 268.293 114.409C267.766 113.881 267.158 113.643 266.472 113.696C265.812 113.722 265.046 114.171 264.175 115.042C263.436 115.781 262.71 116.798 261.997 118.091C261.285 119.385 260.625 120.81 260.018 122.368C259.41 123.873 258.922 125.39 258.552 126.922L251.504 124.783C251.61 123.78 251.9 122.434 252.375 120.744C252.824 119.028 253.51 117.233 254.434 115.359C255.332 113.458 256.52 111.769 257.998 110.29C259.793 108.495 261.681 107.189 263.661 106.37C265.64 105.552 267.581 105.301 269.481 105.618C271.409 105.908 273.151 106.832 274.708 108.39C275.844 109.525 276.715 110.924 277.322 112.587C277.929 114.25 278.378 116.019 278.668 117.893C278.959 119.768 279.183 121.629 279.341 123.477C279.658 127.172 279.83 129.931 279.856 131.753C279.882 133.574 279.896 134.485 279.896 134.485L280.133 134.722L290.944 123.437L296.25 128.743L276.292 148.7Z" fill="white" fill-opacity="0.04"/>
<path d="M309.592 116.431C308.509 117.513 307.295 118.463 305.949 119.282C304.629 120.074 303.362 120.76 302.147 121.341C300.933 121.869 299.93 122.265 299.138 122.529C298.346 122.793 297.95 122.925 297.95 122.925L295.02 116.589C295.02 116.589 295.363 116.431 296.049 116.114C296.762 115.771 297.633 115.348 298.663 114.847C299.692 114.292 300.735 113.698 301.791 113.065C302.847 112.378 303.718 111.692 304.404 111.006C305.117 110.293 305.632 109.673 305.949 109.145C306.292 108.59 306.477 108.115 306.503 107.719C306.582 106.901 306.292 105.95 305.632 104.868C304.972 103.786 304.022 102.545 302.781 101.146C302.781 101.146 302.583 101.397 302.187 101.898C301.817 102.373 301.342 102.954 300.761 103.64C300.207 104.3 299.626 104.934 299.019 105.541C297.066 107.495 295.046 108.907 292.961 109.778C290.875 110.649 288.776 110.847 286.664 110.372C284.553 109.897 282.48 108.643 280.448 106.61C277.465 103.627 276.026 100.446 276.131 97.0672C276.263 93.6617 277.887 90.4015 281.002 87.2865C283.087 85.201 285.345 83.815 287.773 83.1287C290.176 82.4159 292.842 82.6535 295.772 83.8414C298.702 85.0294 301.976 87.4317 305.592 91.0483C308.681 94.1369 310.964 97.1332 312.443 100.037C313.947 102.914 314.502 105.713 314.106 108.432C313.71 111.151 312.205 113.817 309.592 116.431ZM293.634 100.473C294.214 99.8918 294.795 99.2319 295.376 98.4927C295.93 97.7271 296.406 97.0672 296.802 96.5128C297.171 95.932 297.356 95.6416 297.356 95.6416C295.587 93.8729 294.175 92.619 293.119 91.8798C292.089 91.1143 291.284 90.6523 290.703 90.4939C290.123 90.3355 289.648 90.3091 289.278 90.4147C288.776 90.4939 288.248 90.7579 287.694 91.2067C287.14 91.6026 286.585 92.0778 286.031 92.6322C284.5 94.1633 283.866 95.5096 284.13 96.6712C284.368 97.8063 285.213 99.0999 286.664 100.552C287.324 101.212 287.984 101.74 288.644 102.136C289.331 102.505 290.07 102.584 290.862 102.373C291.654 102.162 292.578 101.529 293.634 100.473Z" fill="white" fill-opacity="0.04"/>
<path d="M343.188 82.8346C341.894 84.1281 340.535 85.2237 339.109 86.1212C337.736 87.0188 336.416 87.7579 335.149 88.3387C333.882 88.9195 332.8 89.3682 331.902 89.685C331.005 90.0018 330.398 90.213 330.081 90.3186L327.507 84.0225C327.903 83.7849 328.536 83.4418 329.408 82.993C330.305 82.5178 331.295 81.9502 332.377 81.2903C333.46 80.6303 334.529 79.9307 335.585 79.1916C336.641 78.4524 337.565 77.6868 338.357 76.8949C339.518 75.7333 340.059 74.717 339.98 73.8459C339.901 72.9219 339.347 71.9451 338.317 70.9156C336.76 69.3581 335.334 68.6189 334.041 68.6981C332.773 68.7509 331.427 69.4901 330.002 70.9156L324.775 76.1425L319.627 70.9948C321.712 68.5925 323.296 66.6918 324.379 65.2927C325.487 63.8671 326.095 62.7056 326.2 61.808C326.332 60.8841 325.949 59.9733 325.052 59.0758C324.497 58.5214 324.009 58.1386 323.587 57.9275C323.191 57.6899 322.848 57.5843 322.557 57.6107C322.108 57.6371 321.528 57.9274 320.815 58.4818C320.102 58.9834 319.284 59.6962 318.36 60.6201C317.885 61.0953 317.396 61.6365 316.895 62.2436C316.393 62.798 315.773 63.524 315.034 64.4215C314.294 65.3191 313.331 66.5202 312.143 68.0249L306.48 63.788C307.008 62.8376 307.668 61.8344 308.46 60.7785C309.252 59.6698 310.071 58.6138 310.915 57.6107C311.787 56.5811 312.578 55.71 313.291 54.9972C315.218 53.0701 317.185 51.5786 319.191 50.5226C321.171 49.4403 323.138 49.0047 325.091 49.2159C327.071 49.4007 329.025 50.4566 330.952 52.3837C332.536 53.9676 333.473 55.512 333.763 57.0167C334.027 58.495 334.001 59.8414 333.684 61.0557L333.922 61.2933C335.4 60.7653 337.024 60.6201 338.792 60.8577C340.587 61.0689 342.462 62.1512 344.415 64.1047C345.999 65.6887 347.121 67.4706 347.781 69.4505C348.467 71.404 348.494 73.5158 347.86 75.7861C347.2 78.03 345.643 80.3795 343.188 82.8346Z" fill="white" fill-opacity="0.04"/>
<path d="M356.701 68.2919L352.226 63.8174C352.226 63.8174 352.226 62.4446 352.226 59.6992C352.2 56.9273 352.041 53.0467 351.751 48.0574C351.593 44.6255 351.315 41.7085 350.919 39.3062C350.524 36.8511 349.784 35.0824 348.702 34.0001C348.174 33.4721 347.567 33.2345 346.88 33.2873C346.221 33.3137 345.455 33.7625 344.584 34.6336C343.845 35.3728 343.119 36.3891 342.406 37.6827C341.693 38.9762 341.033 40.4017 340.426 41.9593C339.819 43.464 339.331 44.9819 338.961 46.513L331.912 44.3747C332.018 43.3716 332.308 42.0253 332.784 40.3358C333.232 38.6198 333.919 36.8247 334.843 34.9504C335.74 33.0497 336.928 31.3602 338.407 29.8819C340.202 28.0868 342.089 26.78 344.069 25.9617C346.049 25.1433 347.989 24.8925 349.89 25.2093C351.817 25.4997 353.559 26.4237 355.117 27.9812C356.252 29.1163 357.123 30.5154 357.73 32.1786C358.338 33.8417 358.786 35.6104 359.077 37.4847C359.367 39.359 359.591 41.2201 359.75 43.068C360.067 46.7638 360.238 49.5225 360.265 51.344C360.291 53.1655 360.304 54.0763 360.304 54.0763L360.542 54.3138L371.352 43.0284L376.658 48.3345L356.701 68.2919Z" fill="white" fill-opacity="0.04"/>
<path d="M556.168 -0.359848L565.36 -9.55223L574.552 -0.359848L565.36 8.83255L556.168 -0.359848Z" fill="white" fill-opacity="0.04"/>
<path d="M499.599 56.2087L508.791 47.0163L517.984 56.2087L508.791 65.4011L499.599 56.2087Z" fill="white" fill-opacity="0.04"/>
<path d="M329.893 225.914L339.086 216.722L348.278 225.914L339.086 235.107L329.893 225.914Z" fill="white" fill-opacity="0.04"/>
<path d="M386.462 169.346L395.654 160.153L404.847 169.346L395.654 178.538L386.462 169.346Z" fill="white" fill-opacity="0.04"/>
<path d="M443.03 112.777L452.223 103.585L461.415 112.777L452.223 121.97L443.03 112.777Z" fill="white" fill-opacity="0.04"/>
<path d="M273.325 282.483L282.517 273.291L291.71 282.483L282.517 291.675L273.325 282.483Z" fill="white" fill-opacity="0.04"/>
<path d="M216.756 339.051L225.949 329.859L235.141 339.051L225.949 348.244L216.756 339.051Z" fill="white" fill-opacity="0.04"/>
<path d="M160.188 395.62L169.38 386.428L178.572 395.62L169.38 404.812L160.188 395.62Z" fill="white" fill-opacity="0.04"/>
<path d="M103.619 452.189L112.811 442.996L122.004 452.189L112.811 461.381L103.619 452.189Z" fill="white" fill-opacity="0.04"/>
<path d="M669.305 -0.359879L678.497 -9.55226L687.689 -0.359879L678.497 8.83252L669.305 -0.359879Z" fill="white" fill-opacity="0.04"/>
<path d="M612.736 56.2087L621.928 47.0163L631.121 56.2087L621.928 65.4011L612.736 56.2087Z" fill="white" fill-opacity="0.04"/>
<path d="M443.03 225.914L452.223 216.722L461.415 225.914L452.223 235.107L443.03 225.914Z" fill="white" fill-opacity="0.04"/>
<path d="M499.599 169.346L508.791 160.153L517.984 169.346L508.791 178.538L499.599 169.346Z" fill="white" fill-opacity="0.04"/>
<path d="M556.168 112.777L565.36 103.585L574.552 112.777L565.36 121.97L556.168 112.777Z" fill="white" fill-opacity="0.04"/>
<path d="M386.462 282.483L395.654 273.291L404.847 282.483L395.654 291.675L386.462 282.483Z" fill="white" fill-opacity="0.04"/>
<path d="M329.893 339.051L339.086 329.859L348.278 339.051L339.086 348.244L329.893 339.051Z" fill="white" fill-opacity="0.04"/>
<path d="M273.325 395.62L282.517 386.427L291.709 395.62L282.517 404.812L273.325 395.62Z" fill="white" fill-opacity="0.04"/>
<path d="M216.756 452.188L225.949 442.996L235.141 452.188L225.949 461.381L216.756 452.188Z" fill="white" fill-opacity="0.04"/>
<path d="M669.305 112.777L678.497 103.585L687.689 112.777L678.497 121.97L669.305 112.777Z" fill="white" fill-opacity="0.04"/>
<path d="M612.736 169.346L621.928 160.153L631.121 169.346L621.928 178.538L612.736 169.346Z" fill="white" fill-opacity="0.04"/>
<path d="M443.03 339.051L452.223 329.859L461.415 339.051L452.223 348.244L443.03 339.051Z" fill="white" fill-opacity="0.04"/>
<path d="M499.599 282.483L508.791 273.29L517.984 282.483L508.791 291.675L499.599 282.483Z" fill="white" fill-opacity="0.04"/>
<path d="M556.168 225.914L565.36 216.722L574.552 225.914L565.36 235.107L556.168 225.914Z" fill="white" fill-opacity="0.04"/>
<path d="M386.462 395.62L395.654 386.428L404.847 395.62L395.654 404.812L386.462 395.62Z" fill="white" fill-opacity="0.04"/>
<path d="M329.893 452.189L339.086 442.996L348.278 452.189L339.086 461.381L329.893 452.189Z" fill="white" fill-opacity="0.04"/>
<path d="M273.325 508.757L282.517 499.565L291.709 508.757L282.517 517.949L273.325 508.757Z" fill="white" fill-opacity="0.04"/>
<path d="M216.756 565.326L225.949 556.133L235.141 565.326L225.949 574.518L216.756 565.326Z" fill="white" fill-opacity="0.04"/>
<path d="M725.873 169.346L735.066 160.153L744.258 169.346L735.066 178.538L725.873 169.346Z" fill="white" fill-opacity="0.04"/>
<path d="M669.305 225.914L678.497 216.722L687.689 225.914L678.497 235.107L669.305 225.914Z" fill="white" fill-opacity="0.04"/>
<path d="M499.599 395.62L508.791 386.427L517.984 395.62L508.791 404.812L499.599 395.62Z" fill="white" fill-opacity="0.04"/>
<path d="M556.167 339.051L565.36 329.859L574.552 339.051L565.36 348.244L556.167 339.051Z" fill="white" fill-opacity="0.04"/>
<path d="M612.736 282.483L621.928 273.29L631.121 282.483L621.928 291.675L612.736 282.483Z" fill="white" fill-opacity="0.04"/>
<path d="M443.03 452.188L452.223 442.996L461.415 452.188L452.223 461.381L443.03 452.188Z" fill="white" fill-opacity="0.04"/>
<path d="M386.462 508.757L395.654 499.565L404.847 508.757L395.654 517.949L386.462 508.757Z" fill="white" fill-opacity="0.04"/>
<path d="M329.893 565.326L339.086 556.133L348.278 565.326L339.086 574.518L329.893 565.326Z" fill="white" fill-opacity="0.04"/>
<path d="M273.325 621.894L282.517 612.702L291.709 621.894L282.517 631.086L273.325 621.894Z" fill="white" fill-opacity="0.04"/>
<path d="M782.442 225.914L791.634 216.722L800.827 225.914L791.634 235.107L782.442 225.914Z" fill="white" fill-opacity="0.04"/>
<path d="M725.873 282.483L735.066 273.29L744.258 282.483L735.066 291.675L725.873 282.483Z" fill="white" fill-opacity="0.04"/>
<path d="M556.167 452.188L565.36 442.996L574.552 452.188L565.36 461.381L556.167 452.188Z" fill="white" fill-opacity="0.04"/>
<path d="M612.736 395.62L621.928 386.428L631.121 395.62L621.928 404.812L612.736 395.62Z" fill="white" fill-opacity="0.04"/>
<path d="M669.305 339.051L678.497 329.859L687.689 339.051L678.497 348.244L669.305 339.051Z" fill="white" fill-opacity="0.04"/>
<path d="M499.599 508.757L508.791 499.565L517.984 508.757L508.791 517.949L499.599 508.757Z" fill="white" fill-opacity="0.04"/>
<path d="M443.03 565.326L452.223 556.133L461.415 565.326L452.223 574.518L443.03 565.326Z" fill="white" fill-opacity="0.04"/>
<path d="M386.462 621.894L395.654 612.702L404.846 621.894L395.654 631.086L386.462 621.894Z" fill="white" fill-opacity="0.04"/>
<path d="M329.893 678.463L339.086 669.27L348.278 678.463L339.086 687.655L329.893 678.463Z" fill="white" fill-opacity="0.04"/>
<path d="M839.01 282.483L848.203 273.29L857.395 282.483L848.203 291.675L839.01 282.483Z" fill="white" fill-opacity="0.04"/>
<path d="M782.442 339.051L791.634 329.859L800.827 339.051L791.634 348.244L782.442 339.051Z" fill="white" fill-opacity="0.04"/>
<path d="M612.736 508.757L621.928 499.565L631.121 508.757L621.928 517.949L612.736 508.757Z" fill="white" fill-opacity="0.04"/>
<path d="M669.305 452.188L678.497 442.996L687.689 452.188L678.497 461.381L669.305 452.188Z" fill="white" fill-opacity="0.04"/>
<path d="M725.873 395.62L735.066 386.427L744.258 395.62L735.066 404.812L725.873 395.62Z" fill="white" fill-opacity="0.04"/>
<path d="M556.168 565.326L565.36 556.133L574.552 565.326L565.36 574.518L556.168 565.326Z" fill="white" fill-opacity="0.04"/>
<path d="M499.599 621.894L508.791 612.702L517.984 621.894L508.791 631.086L499.599 621.894Z" fill="white" fill-opacity="0.04"/>
<path d="M443.03 678.463L452.223 669.27L461.415 678.463L452.223 687.655L443.03 678.463Z" fill="white" fill-opacity="0.04"/>
<path d="M386.462 735.031L395.654 725.839L404.847 735.031L395.654 744.224L386.462 735.031Z" fill="white" fill-opacity="0.04"/>
<path d="M443.031 -0.359863L452.223 -9.55225L461.415 -0.359863L452.223 8.83252L443.031 -0.359863Z" fill="white" fill-opacity="0.04"/>
<path d="M386.462 56.2087L395.654 47.0163L404.847 56.2087L395.654 65.4011L386.462 56.2087Z" fill="white" fill-opacity="0.04"/>
<path d="M216.756 225.914L225.949 216.722L235.141 225.914L225.949 235.107L216.756 225.914Z" fill="white" fill-opacity="0.04"/>
<path d="M273.325 169.346L282.517 160.153L291.71 169.346L282.517 178.538L273.325 169.346Z" fill="white" fill-opacity="0.04"/>
<path d="M329.893 112.777L339.086 103.585L348.278 112.777L339.086 121.97L329.893 112.777Z" fill="white" fill-opacity="0.04"/>
<path d="M160.188 282.483L169.38 273.291L178.572 282.483L169.38 291.675L160.188 282.483Z" fill="white" fill-opacity="0.04"/>
<path d="M103.619 339.051L112.812 329.859L122.004 339.051L112.811 348.244L103.619 339.051Z" fill="white" fill-opacity="0.04"/>
<path d="M47.0505 395.62L56.2429 386.427L65.4353 395.62L56.2429 404.812L47.0505 395.62Z" fill="white" fill-opacity="0.04"/>
<path d="M-9.51801 452.189L-0.325607 442.996L8.86678 452.189L-0.325607 461.381L-9.51801 452.189Z" fill="white" fill-opacity="0.04"/>
<path d="M386.462 -56.9284L395.654 -66.1208L404.847 -56.9284L395.654 -47.736L386.462 -56.9284Z" fill="white" fill-opacity="0.04"/>
<path d="M329.893 -0.359879L339.086 -9.55228L348.278 -0.359879L339.086 8.8325L329.893 -0.359879Z" fill="white" fill-opacity="0.04"/>
<path d="M160.188 169.346L169.38 160.153L178.572 169.346L169.38 178.538L160.188 169.346Z" fill="white" fill-opacity="0.04"/>
<path d="M216.756 112.777L225.949 103.585L235.141 112.777L225.949 121.97L216.756 112.777Z" fill="white" fill-opacity="0.04"/>
<path d="M273.325 56.2086L282.517 47.0162L291.71 56.2086L282.517 65.401L273.325 56.2086Z" fill="white" fill-opacity="0.04"/>
<path d="M103.619 225.914L112.812 216.722L122.004 225.914L112.812 235.107L103.619 225.914Z" fill="white" fill-opacity="0.04"/>
<path d="M47.0505 282.483L56.243 273.29L65.4353 282.483L56.243 291.675L47.0505 282.483Z" fill="white" fill-opacity="0.04"/>
<path d="M-9.51808 339.051L-0.325699 329.859L8.8667 339.051L-0.325699 348.244L-9.51808 339.051Z" fill="white" fill-opacity="0.04"/>
<path d="M-66.0866 395.62L-56.8942 386.428L-47.7018 395.62L-56.8942 404.812L-66.0866 395.62Z" fill="white" fill-opacity="0.04"/>
<path d="M329.893 -113.497L339.086 -122.689L348.278 -113.497L339.086 -104.305L329.893 -113.497Z" fill="white" fill-opacity="0.04"/>
<path d="M273.325 -56.9284L282.517 -66.1208L291.71 -56.9284L282.517 -47.736L273.325 -56.9284Z" fill="white" fill-opacity="0.04"/>
<path d="M103.619 112.777L112.811 103.585L122.004 112.777L112.811 121.97L103.619 112.777Z" fill="white" fill-opacity="0.04"/>
<path d="M160.188 56.2087L169.38 47.0163L178.572 56.2087L169.38 65.4011L160.188 56.2087Z" fill="white" fill-opacity="0.04"/>
<path d="M216.756 -0.359909L225.949 -9.55229L235.141 -0.359909L225.949 8.83247L216.756 -0.359909Z" fill="white" fill-opacity="0.04"/>
<path d="M47.0506 169.346L56.243 160.153L65.4354 169.346L56.243 178.538L47.0506 169.346Z" fill="white" fill-opacity="0.04"/>
<path d="M-9.51799 225.914L-0.325607 216.722L8.86678 225.914L-0.325607 235.107L-9.51799 225.914Z" fill="white" fill-opacity="0.04"/>
<path d="M-66.0866 282.483L-56.8942 273.29L-47.7019 282.483L-56.8942 291.675L-66.0866 282.483Z" fill="white" fill-opacity="0.04"/>
<path d="M-122.655 339.051L-113.463 329.859L-104.27 339.051L-113.463 348.244L-122.655 339.051Z" fill="white" fill-opacity="0.04"/>
<path d="M273.325 -170.066L282.517 -179.258L291.71 -170.066L282.517 -160.873L273.325 -170.066Z" fill="white" fill-opacity="0.04"/>
<path d="M216.756 -113.497L225.949 -122.689L235.141 -113.497L225.949 -104.305L216.756 -113.497Z" fill="white" fill-opacity="0.04"/>
<path d="M47.0506 56.2086L56.243 47.0163L65.4353 56.2087L56.243 65.4011L47.0506 56.2086Z" fill="white" fill-opacity="0.04"/>
<path d="M103.619 -0.359863L112.812 -9.55226L122.004 -0.359863L112.812 8.83252L103.619 -0.359863Z" fill="white" fill-opacity="0.04"/>
<path d="M160.188 -56.9285L169.38 -66.1208L178.572 -56.9285L169.38 -47.7361L160.188 -56.9285Z" fill="white" fill-opacity="0.04"/>
<path d="M-9.51796 112.777L-0.325562 103.585L8.86682 112.777L-0.325562 121.97L-9.51796 112.777Z" fill="white" fill-opacity="0.04"/>
<path d="M-66.0865 169.346L-56.8941 160.153L-47.7018 169.346L-56.8941 178.538L-66.0865 169.346Z" fill="white" fill-opacity="0.04"/>
<path d="M-122.655 225.914L-113.463 216.722L-104.27 225.914L-113.463 235.107L-122.655 225.914Z" fill="white" fill-opacity="0.04"/>
<path d="M-179.224 282.483L-170.031 273.29L-160.839 282.483L-170.031 291.675L-179.224 282.483Z" fill="white" fill-opacity="0.04"/>
<path d="M216.756 -226.634L225.949 -235.826L235.141 -226.634L225.949 -217.442L216.756 -226.634Z" fill="white" fill-opacity="0.04"/>
<path d="M160.188 -170.065L169.38 -179.258L178.572 -170.065L169.38 -160.873L160.188 -170.065Z" fill="white" fill-opacity="0.04"/>
<path d="M-9.51801 -0.359848L-0.325623 -9.55223L8.86676 -0.359833L-0.325623 8.83255L-9.51801 -0.359848Z" fill="white" fill-opacity="0.04"/>
<path d="M47.0506 -56.9284L56.243 -66.1208L65.4353 -56.9284L56.243 -47.736L47.0506 -56.9284Z" fill="white" fill-opacity="0.04"/>
<path d="M103.619 -113.497L112.812 -122.689L122.004 -113.497L112.812 -104.305L103.619 -113.497Z" fill="white" fill-opacity="0.04"/>
<path d="M-66.0865 56.2087L-56.8941 47.0164L-47.7018 56.2087L-56.8941 65.4012L-66.0865 56.2087Z" fill="white" fill-opacity="0.04"/>
<path d="M-122.655 112.777L-113.463 103.585L-104.27 112.777L-113.463 121.97L-122.655 112.777Z" fill="white" fill-opacity="0.04"/>
<path d="M-179.224 169.346L-170.031 160.153L-160.839 169.346L-170.031 178.538L-179.224 169.346Z" fill="white" fill-opacity="0.04"/>
<path d="M-235.792 225.914L-226.6 216.722L-217.407 225.914L-226.6 235.107L-235.792 225.914Z" fill="white" fill-opacity="0.04"/>
<path d="M655.102 541.102L-52.005 -166.005M598.533 597.67L-108.573 -109.437M541.965 654.239L-165.142 -52.8682M485.396 710.807L-221.71 3.70032M428.828 767.376L-278.279 60.2688M711.67 484.533L4.56342 -222.574M768.238 427.965L61.1318 -279.142M824.807 371.396L117.7 -335.711M881.375 314.828L174.269 -392.279M665.001 -213.381L-42.106 493.726M608.432 -269.95L-98.6746 437.157M551.864 -326.518L-155.243 380.589M495.295 -383.087L-211.812 324.02M721.569 -156.813L14.4625 550.294M778.138 -100.244L71.031 606.863M834.706 -43.6754L127.6 663.431M891.275 12.8931L184.168 720M947.843 69.4617L240.737 776.568" stroke="white" stroke-opacity="0.04"/>
</g>
<defs>
<clipPath id="clip0">
<rect width="678" height="452" fill="white" transform="translate(0 0.00012207)"/>
</clipPath>
</defs>
</svg>
