<svg width="1522" height="1752" viewBox="0 0 1522 1752" fill="none" xmlns="http://www.w3.org/2000/svg">
<path d="M297.776 29.0028C202.176 45.8028 130.676 58.8028 127.576 60.0028C118.176 63.5028 118.576 63.1028 45.776 132.803C28.876 148.903 13.476 164.303 11.576 166.903C6.77596 173.403 2.57596 182.403 1.17596 188.703C-1.72404 202.403 -1.82404 201.603 32.176 393.803C66.876 590.403 65.376 583.303 73.176 590.403C80.376 596.903 83.576 597.903 97.076 597.903C110.376 597.903 112.276 597.603 320.076 560.903C449.576 538.003 457.476 536.503 464.176 534.003C476.276 529.403 488.676 519.203 496.576 507.403C501.476 500.003 554.076 387.003 556.976 377.503C559.676 368.703 559.776 355.503 557.076 339.403C555.276 328.303 537.976 230.203 511.476 81.4028C500.276 18.1028 499.576 15.4028 492.576 8.40282C486.476 2.40282 480.076 -0.0971769 470.576 0.00282312C464.876 0.102823 414.476 8.60282 297.776 29.0028ZM305.476 54.6028L322.176 55.2028L288.876 65.5028L255.576 75.9028L231.076 75.8028H206.576L241.076 64.9028C279.476 52.9028 276.176 53.4028 305.476 54.6028ZM194.276 68.6028C189.876 73.5028 185.376 78.2028 184.276 79.2028C182.776 80.6028 174.176 82.3028 148.576 86.4028C130.076 89.4028 114.376 91.9028 113.776 91.9028C112.476 91.9028 127.076 76.8028 131.476 73.6028C133.776 72.0028 141.676 70.2028 165.976 65.8028C183.376 62.7028 198.676 60.1028 199.976 60.0028C201.976 59.9028 201.076 61.2028 194.276 68.6028ZM381.576 61.3028C387.676 65.7028 369.776 75.5028 342.476 82.5028C320.976 88.0028 301.676 89.3028 296.676 85.6028C289.776 80.5028 321.976 66.5028 352.076 61.4028C362.576 59.6028 379.176 59.5028 381.576 61.3028ZM492.576 95.5028C493.376 112.003 493.976 128.503 493.976 132.403V139.403L484.476 115.903C479.276 103.003 474.776 91.5028 474.476 90.3028C474.076 88.8028 476.176 85.0028 482.076 76.5028C486.676 70.1028 490.476 65.0028 490.776 65.2028C490.976 65.5028 491.876 79.1028 492.576 95.5028ZM395.376 85.1028C394.876 85.8028 390.676 91.2028 386.176 97.0028L377.976 107.703L355.776 108.403C343.576 108.703 329.076 108.903 323.576 108.703L313.576 108.403L354.076 96.2028C376.376 89.5028 394.976 84.0028 395.476 84.0028C395.976 83.9028 395.876 84.5028 395.376 85.1028ZM472.976 135.503C475.676 138.903 479.576 151.403 481.776 163.303C484.276 176.703 484.276 205.603 481.776 212.103C479.376 218.303 477.076 218.403 473.676 212.603C466.376 200.003 461.276 164.603 463.976 145.403C465.676 133.503 468.776 130.103 472.976 135.503ZM373.576 178.603C372.176 182.403 365.076 202.003 357.676 222.403C350.276 242.703 343.876 259.303 343.476 259.103C342.376 258.803 283.176 188.503 283.576 188.103C283.976 187.703 371.176 172.103 373.776 172.003L376.076 171.903L373.576 178.603ZM244.576 227.503C256.976 230.703 267.876 239.703 273.876 251.703C277.176 258.503 277.576 260.103 277.876 268.803C278.176 276.303 277.776 279.803 276.276 284.503C272.476 296.603 263.076 307.203 251.576 312.503C222.176 325.903 188.076 303.903 188.076 271.503C188.076 241.503 215.776 219.903 244.576 227.503ZM476.476 256.903L484.976 280.403L486.576 312.003C488.876 357.303 489.276 356.503 478.876 328.103L470.276 304.403L468.676 270.403C466.876 233.403 466.876 232.403 467.476 233.003C467.676 233.203 471.776 244.003 476.476 256.903ZM169.576 340.703L193.376 369.103L180.076 405.703C172.776 425.903 166.676 442.503 166.476 442.703C166.376 442.903 154.876 429.503 140.876 412.803L115.476 382.603L127.276 350.003C144.076 303.603 141.976 308.403 144.076 310.503C144.976 311.603 156.476 325.203 169.576 340.703ZM497.476 411.403L503.776 447.203L497.076 461.303L490.376 475.403L489.176 468.203C488.476 464.303 485.576 447.803 482.676 431.503L477.476 402.003L483.976 388.503C487.476 381.003 490.576 375.103 490.776 375.303C490.976 375.503 493.976 391.703 497.476 411.403ZM169.376 477.103C174.976 507.903 181.376 546.003 180.876 546.403C179.776 547.603 103.076 560.403 103.076 559.503C103.076 558.903 99.976 541.303 96.276 520.303L89.476 482.203L126.076 475.703C146.176 472.103 163.776 469.103 165.176 469.003C167.776 468.903 167.876 469.203 169.376 477.103Z" fill="black" fill-opacity="0.04"/>
<path d="M1170.98 988.86C1042.89 1011.37 947.087 1028.79 942.934 1030.4C930.339 1035.09 930.875 1034.55 833.333 1127.94C810.69 1149.51 790.056 1170.14 787.51 1173.63C781.079 1182.34 775.451 1194.39 773.576 1202.84C769.69 1221.19 769.556 1220.12 815.111 1477.64C861.604 1741.06 859.595 1731.54 870.045 1741.06C879.692 1749.77 883.98 1751.11 902.068 1751.11C919.888 1751.11 922.434 1750.7 1200.86 1701.53C1374.37 1670.85 1384.95 1668.84 1393.93 1665.49C1410.14 1659.32 1426.76 1645.66 1437.34 1629.85C1443.91 1619.93 1514.38 1468.53 1518.27 1455.8C1521.89 1444.01 1522.02 1426.32 1518.4 1404.75C1515.99 1389.88 1492.81 1258.44 1457.31 1059.07C1442.3 974.255 1441.36 970.638 1431.98 961.259C1423.81 953.22 1415.23 949.87 1402.51 950.004C1394.87 950.138 1327.34 961.527 1170.98 988.86ZM1181.29 1023.16L1203.67 1023.96L1159.05 1037.76L1114.44 1051.7L1081.61 1051.57H1048.78L1095.01 1036.96C1146.46 1020.88 1142.04 1021.55 1181.29 1023.16ZM1032.3 1041.92C1026.41 1048.48 1020.38 1054.78 1018.9 1056.12C1016.89 1058 1005.37 1060.27 971.071 1065.77C946.283 1069.79 925.248 1073.14 924.444 1073.14C922.702 1073.14 942.264 1052.91 948.159 1048.62C951.241 1046.47 961.826 1044.06 994.384 1038.17C1017.7 1034.01 1038.2 1030.53 1039.94 1030.4C1042.62 1030.26 1041.41 1032 1032.3 1041.92ZM1283.26 1032.14C1291.43 1038.03 1267.45 1051.16 1230.87 1060.54C1202.06 1067.91 1176.2 1069.65 1169.5 1064.7C1160.26 1057.86 1203.4 1039.1 1243.73 1032.27C1257.8 1029.86 1280.04 1029.73 1283.26 1032.14ZM1431.98 1077.96C1433.05 1100.07 1433.86 1122.18 1433.86 1127.4V1136.78L1421.13 1105.29C1414.16 1088.01 1408.13 1072.6 1407.73 1070.99C1407.19 1068.98 1410.01 1063.89 1417.91 1052.5C1424.08 1043.93 1429.17 1037.09 1429.57 1037.36C1429.84 1037.76 1431.04 1055.99 1431.98 1077.96ZM1301.75 1064.03C1301.08 1064.96 1295.45 1072.2 1289.42 1079.97L1278.43 1094.31L1248.69 1095.24C1232.34 1095.65 1212.92 1095.91 1205.55 1095.65L1192.15 1095.24L1246.41 1078.9C1276.29 1069.92 1301.21 1062.55 1301.88 1062.55C1302.55 1062.42 1302.42 1063.22 1301.75 1064.03ZM1405.72 1131.55C1409.34 1136.11 1414.56 1152.86 1417.51 1168.8C1420.86 1186.76 1420.86 1225.48 1417.51 1234.19C1414.3 1242.5 1411.21 1242.63 1406.66 1234.86C1396.88 1217.98 1390.04 1170.54 1393.66 1144.82C1395.94 1128.88 1400.09 1124.32 1405.72 1131.55ZM1272.54 1189.3C1270.66 1194.39 1261.15 1220.66 1251.24 1247.99C1241.32 1275.19 1232.75 1297.43 1232.21 1297.16C1230.74 1296.76 1151.42 1202.57 1151.95 1202.03C1152.49 1201.5 1269.32 1180.59 1272.81 1180.46L1275.89 1180.33L1272.54 1189.3ZM1099.7 1254.82C1116.31 1259.11 1130.92 1271.17 1138.95 1287.25C1143.38 1296.36 1143.91 1298.5 1144.31 1310.16C1144.72 1320.21 1144.18 1324.9 1142.17 1331.19C1137.08 1347.41 1124.48 1361.61 1109.08 1368.71C1069.68 1386.66 1024 1357.19 1024 1313.78C1024 1273.58 1061.11 1244.64 1099.7 1254.82ZM1410.41 1294.21L1421.8 1325.7L1423.94 1368.04C1427.02 1428.74 1427.56 1427.66 1413.63 1389.61L1402.1 1357.86L1399.96 1312.3C1397.55 1262.73 1397.55 1261.39 1398.35 1262.19C1398.62 1262.46 1404.11 1276.93 1410.41 1294.21ZM999.208 1406.49L1031.1 1444.55L1013.28 1493.58C1003.5 1520.65 995.322 1542.89 995.054 1543.16C994.92 1543.43 979.512 1525.47 960.754 1503.1L926.721 1462.63L942.532 1418.95C965.041 1356.78 962.228 1363.22 965.041 1366.03C966.247 1367.5 981.656 1385.73 999.208 1406.49ZM1438.55 1501.22L1446.99 1549.19L1438.01 1568.08L1429.03 1586.97L1427.43 1577.33C1426.49 1572.1 1422.6 1549.99 1418.72 1528.15L1411.75 1488.63L1420.46 1470.54C1425.15 1460.49 1429.3 1452.58 1429.57 1452.85C1429.84 1453.12 1433.86 1474.83 1438.55 1501.22ZM998.94 1589.25C1006.44 1630.52 1015.02 1681.57 1014.35 1682.1C1012.87 1683.71 910.107 1700.86 910.107 1699.65C910.107 1698.85 905.954 1675.27 900.996 1647.13L891.885 1596.08L940.924 1587.37C967.855 1582.55 991.437 1578.53 993.312 1578.4C996.796 1578.26 996.93 1578.67 998.94 1589.25Z" fill="black" fill-opacity="0.04"/>
</svg>
