<svg width="559" height="598" viewBox="0 0 559 598" fill="none" xmlns="http://www.w3.org/2000/svg">
<path d="M297.7 29.1C202.1 45.9 130.6 58.9 127.5 60.1C118.1 63.6 118.5 63.2 45.7 132.9C28.8 149 13.4 164.4 11.5 167C6.70003 173.5 2.50003 182.5 1.10003 188.8C-1.79997 202.5 -1.89997 201.7 32.1 393.9C66.8 590.5 65.3 583.4 73.1 590.5C80.3 597 83.5 598 97 598C110.3 598 112.2 597.7 320 561C449.5 538.1 457.4 536.6 464.1 534.1C476.2 529.5 488.6 519.3 496.5 507.5C501.4 500.1 554 387.1 556.9 377.6C559.6 368.8 559.7 355.6 557 339.5C555.2 328.4 537.9 230.3 511.4 81.5C500.2 18.2 499.5 15.5 492.5 8.49999C486.4 2.49999 480 -8.91089e-06 470.5 0.0999911C464.8 0.199991 414.4 8.69999 297.7 29.1ZM305.4 54.7L322.1 55.3L288.8 65.6L255.5 76L231 75.9H206.5L241 65C279.4 53 276.1 53.5 305.4 54.7ZM194.2 68.7C189.8 73.6 185.3 78.3 184.2 79.3C182.7 80.7 174.1 82.4 148.5 86.5C130 89.5 114.3 92 113.7 92C112.4 92 127 76.9 131.4 73.7C133.7 72.1 141.6 70.3 165.9 65.9C183.3 62.8 198.6 60.2 199.9 60.1C201.9 60 201 61.3 194.2 68.7ZM381.5 61.4C387.6 65.8 369.7 75.6 342.4 82.6C320.9 88.1 301.6 89.4 296.6 85.7C289.7 80.6 321.9 66.6 352 61.5C362.5 59.7 379.1 59.6 381.5 61.4ZM492.5 95.6C493.3 112.1 493.9 128.6 493.9 132.5V139.5L484.4 116C479.2 103.1 474.7 91.6 474.4 90.4C474 88.9 476.1 85.1 482 76.6C486.6 70.2 490.4 65.1 490.7 65.3C490.9 65.6 491.8 79.2 492.5 95.6ZM395.3 85.2C394.8 85.9 390.6 91.3 386.1 97.1L377.9 107.8L355.7 108.5C343.5 108.8 329 109 323.5 108.8L313.5 108.5L354 96.3C376.3 89.6 394.9 84.1 395.4 84.1C395.9 84 395.8 84.6 395.3 85.2ZM472.9 135.6C475.6 139 479.5 151.5 481.7 163.4C484.2 176.8 484.2 205.7 481.7 212.2C479.3 218.4 477 218.5 473.6 212.7C466.3 200.1 461.2 164.7 463.9 145.5C465.6 133.6 468.7 130.2 472.9 135.6ZM373.5 178.7C372.1 182.5 365 202.1 357.6 222.5C350.2 242.8 343.8 259.4 343.4 259.2C342.3 258.9 283.1 188.6 283.5 188.2C283.9 187.8 371.1 172.2 373.7 172.1L376 172L373.5 178.7ZM244.5 227.6C256.9 230.8 267.8 239.8 273.8 251.8C277.1 258.6 277.5 260.2 277.8 268.9C278.1 276.4 277.7 279.9 276.2 284.6C272.4 296.7 263 307.3 251.5 312.6C222.1 326 188 304 188 271.6C188 241.6 215.7 220 244.5 227.6ZM476.4 257L484.9 280.5L486.5 312.1C488.8 357.4 489.2 356.6 478.8 328.2L470.2 304.5L468.6 270.5C466.8 233.5 466.8 232.5 467.4 233.1C467.6 233.3 471.7 244.1 476.4 257ZM169.5 340.8L193.3 369.2L180 405.8C172.7 426 166.6 442.6 166.4 442.8C166.3 443 154.8 429.6 140.8 412.9L115.4 382.7L127.2 350.1C144 303.7 141.9 308.5 144 310.6C144.9 311.7 156.4 325.3 169.5 340.8ZM497.4 411.5L503.7 447.3L497 461.4L490.3 475.5L489.1 468.3C488.4 464.4 485.5 447.9 482.6 431.6L477.4 402.1L483.9 388.6C487.4 381.1 490.5 375.2 490.7 375.4C490.9 375.6 493.9 391.8 497.4 411.5ZM169.3 477.2C174.9 508 181.3 546.1 180.8 546.5C179.7 547.7 103 560.5 103 559.6C103 559 99.9 541.4 96.2 520.4L89.4 482.3L126 475.8C146.1 472.2 163.7 469.2 165.1 469.1C167.7 469 167.8 469.3 169.3 477.2Z" fill="black" fill-opacity="0.04"/>
</svg>
