<svg width="2052" height="912" viewBox="0 0 2052 912" fill="none" xmlns="http://www.w3.org/2000/svg">
<path d="M297.776 29.0028C202.176 45.8028 130.676 58.8028 127.576 60.0028C118.176 63.5028 118.576 63.1028 45.776 132.803C28.876 148.903 13.476 164.303 11.576 166.903C6.77596 173.403 2.57596 182.403 1.17596 188.703C-1.72404 202.403 -1.82404 201.603 32.176 393.803C66.876 590.403 65.376 583.303 73.176 590.403C80.376 596.903 83.576 597.903 97.076 597.903C110.376 597.903 112.276 597.603 320.076 560.903C449.576 538.003 457.476 536.503 464.176 534.003C476.276 529.403 488.676 519.203 496.576 507.403C501.476 500.003 554.076 387.003 556.976 377.503C559.676 368.703 559.776 355.503 557.076 339.403C555.276 328.303 537.976 230.203 511.476 81.4028C500.276 18.1028 499.576 15.4028 492.576 8.40282C486.476 2.40282 480.076 -0.0971769 470.576 0.00282312C464.876 0.102823 414.476 8.60282 297.776 29.0028ZM305.476 54.6028L322.176 55.2028L288.876 65.5028L255.576 75.9028L231.076 75.8028H206.576L241.076 64.9028C279.476 52.9028 276.176 53.4028 305.476 54.6028ZM194.276 68.6028C189.876 73.5028 185.376 78.2028 184.276 79.2028C182.776 80.6028 174.176 82.3028 148.576 86.4028C130.076 89.4028 114.376 91.9028 113.776 91.9028C112.476 91.9028 127.076 76.8028 131.476 73.6028C133.776 72.0028 141.676 70.2028 165.976 65.8028C183.376 62.7028 198.676 60.1028 199.976 60.0028C201.976 59.9028 201.076 61.2028 194.276 68.6028ZM381.576 61.3028C387.676 65.7028 369.776 75.5028 342.476 82.5028C320.976 88.0028 301.676 89.3028 296.676 85.6028C289.776 80.5028 321.976 66.5028 352.076 61.4028C362.576 59.6028 379.176 59.5028 381.576 61.3028ZM492.576 95.5028C493.376 112.003 493.976 128.503 493.976 132.403V139.403L484.476 115.903C479.276 103.003 474.776 91.5028 474.476 90.3028C474.076 88.8028 476.176 85.0028 482.076 76.5028C486.676 70.1028 490.476 65.0028 490.776 65.2028C490.976 65.5028 491.876 79.1028 492.576 95.5028ZM395.376 85.1028C394.876 85.8028 390.676 91.2028 386.176 97.0028L377.976 107.703L355.776 108.403C343.576 108.703 329.076 108.903 323.576 108.703L313.576 108.403L354.076 96.2028C376.376 89.5028 394.976 84.0028 395.476 84.0028C395.976 83.9028 395.876 84.5028 395.376 85.1028ZM472.976 135.503C475.676 138.903 479.576 151.403 481.776 163.303C484.276 176.703 484.276 205.603 481.776 212.103C479.376 218.303 477.076 218.403 473.676 212.603C466.376 200.003 461.276 164.603 463.976 145.403C465.676 133.503 468.776 130.103 472.976 135.503ZM373.576 178.603C372.176 182.403 365.076 202.003 357.676 222.403C350.276 242.703 343.876 259.303 343.476 259.103C342.376 258.803 283.176 188.503 283.576 188.103C283.976 187.703 371.176 172.103 373.776 172.003L376.076 171.903L373.576 178.603ZM244.576 227.503C256.976 230.703 267.876 239.703 273.876 251.703C277.176 258.503 277.576 260.103 277.876 268.803C278.176 276.303 277.776 279.803 276.276 284.503C272.476 296.603 263.076 307.203 251.576 312.503C222.176 325.903 188.076 303.903 188.076 271.503C188.076 241.503 215.776 219.903 244.576 227.503ZM476.476 256.903L484.976 280.403L486.576 312.003C488.876 357.303 489.276 356.503 478.876 328.103L470.276 304.403L468.676 270.403C466.876 233.403 466.876 232.403 467.476 233.003C467.676 233.203 471.776 244.003 476.476 256.903ZM169.576 340.703L193.376 369.103L180.076 405.703C172.776 425.903 166.676 442.503 166.476 442.703C166.376 442.903 154.876 429.503 140.876 412.803L115.476 382.603L127.276 350.003C144.076 303.603 141.976 308.403 144.076 310.503C144.976 311.603 156.476 325.203 169.576 340.703ZM497.476 411.403L503.776 447.203L497.076 461.303L490.376 475.403L489.176 468.203C488.476 464.303 485.576 447.803 482.676 431.503L477.476 402.003L483.976 388.503C487.476 381.003 490.576 375.103 490.776 375.303C490.976 375.503 493.976 391.703 497.476 411.403ZM169.376 477.103C174.976 507.903 181.376 546.003 180.876 546.403C179.776 547.603 103.076 560.403 103.076 559.503C103.076 558.903 99.976 541.303 96.276 520.303L89.476 482.203L126.076 475.703C146.176 472.103 163.776 469.103 165.176 469.003C167.776 468.903 167.876 469.203 169.376 477.103Z" fill="black" fill-opacity="0.04"/>
<path d="M1700.98 148.86C1572.89 171.369 1477.09 188.788 1472.93 190.395C1460.34 195.085 1460.87 194.549 1363.33 287.937C1340.69 309.509 1320.06 330.143 1317.51 333.626C1311.08 342.335 1305.45 354.394 1303.58 362.835C1299.69 381.191 1299.56 380.119 1345.11 637.64C1391.6 901.056 1389.59 891.543 1400.05 901.056C1409.69 909.765 1413.98 911.105 1432.07 911.105C1449.89 911.105 1452.43 910.703 1730.86 861.53C1904.37 830.848 1914.95 828.838 1923.93 825.488C1940.14 819.325 1956.76 805.658 1967.34 789.848C1973.91 779.933 2044.38 628.529 2048.27 615.8C2051.89 604.01 2052.02 586.323 2048.4 564.752C2045.99 549.879 2022.81 418.439 1987.31 219.068C1972.3 134.255 1971.36 130.638 1961.98 121.259C1953.81 113.22 1945.23 109.87 1932.51 110.004C1924.87 110.138 1857.34 121.527 1700.98 148.86ZM1711.29 183.16L1733.67 183.964L1689.05 197.765L1644.44 211.699L1611.61 211.565H1578.78L1625.01 196.961C1676.46 180.882 1672.04 181.552 1711.29 183.16ZM1562.3 201.918C1556.41 208.483 1550.38 214.781 1548.9 216.121C1546.89 217.996 1535.37 220.274 1501.07 225.768C1476.28 229.787 1455.25 233.137 1454.44 233.137C1452.7 233.137 1472.26 212.905 1478.16 208.617C1481.24 206.474 1491.83 204.062 1524.38 198.167C1547.7 194.013 1568.2 190.529 1569.94 190.395C1572.62 190.261 1571.41 192.003 1562.3 201.918ZM1813.26 192.137C1821.43 198.033 1797.45 211.163 1760.87 220.542C1732.06 227.911 1706.2 229.653 1699.5 224.696C1690.26 217.862 1733.4 199.104 1773.73 192.271C1787.8 189.859 1810.04 189.725 1813.26 192.137ZM1961.98 237.96C1963.05 260.068 1963.86 282.176 1963.86 287.401V296.78L1951.13 265.293C1944.16 248.009 1938.13 232.601 1937.73 230.993C1937.19 228.983 1940.01 223.892 1947.91 212.503C1954.08 203.928 1959.17 197.095 1959.57 197.363C1959.84 197.765 1961.04 215.987 1961.98 237.96ZM1831.75 224.026C1831.08 224.964 1825.45 232.199 1819.42 239.97L1808.43 254.307L1778.69 255.245C1762.34 255.646 1742.92 255.914 1735.55 255.646L1722.15 255.245L1776.41 238.898C1806.29 229.921 1831.21 222.552 1831.88 222.552C1832.55 222.418 1832.42 223.222 1831.75 224.026ZM1935.72 291.555C1939.34 296.11 1944.56 312.858 1947.51 328.803C1950.86 346.757 1950.86 385.479 1947.51 394.188C1944.3 402.495 1941.21 402.629 1936.66 394.858C1926.88 377.976 1920.04 330.545 1923.66 304.819C1925.94 288.875 1930.09 284.319 1935.72 291.555ZM1802.54 349.303C1800.66 354.394 1791.15 380.655 1781.24 407.988C1771.32 435.187 1762.75 457.429 1762.21 457.161C1760.74 456.759 1681.42 362.567 1681.95 362.031C1682.49 361.495 1799.32 340.593 1802.81 340.46L1805.89 340.326L1802.54 349.303ZM1629.7 414.822C1646.31 419.109 1660.92 431.168 1668.95 447.246C1673.38 456.357 1673.91 458.501 1674.31 470.158C1674.72 480.207 1674.18 484.896 1672.17 491.194C1667.08 507.406 1654.48 521.608 1639.08 528.71C1599.68 546.664 1554 517.187 1554 473.775C1554 433.58 1591.11 404.639 1629.7 414.822ZM1940.41 454.213L1951.8 485.7L1953.94 528.04C1957.02 588.735 1957.56 587.663 1943.63 549.611L1932.1 517.857L1929.96 472.302C1927.55 422.727 1927.55 421.387 1928.35 422.191C1928.62 422.459 1934.11 436.929 1940.41 454.213ZM1529.21 566.494L1561.1 604.546L1543.28 653.584C1533.5 680.649 1525.32 702.891 1525.05 703.159C1524.92 703.427 1509.51 685.473 1490.75 663.097L1456.72 622.634L1472.53 578.954C1495.04 516.785 1492.23 523.216 1495.04 526.03C1496.25 527.504 1511.66 545.726 1529.21 566.494ZM1968.55 661.222L1976.99 709.188L1968.01 728.08L1959.03 746.972L1957.43 737.325C1956.49 732.1 1952.6 709.992 1948.72 688.153L1941.75 648.627L1950.46 630.539C1955.15 620.49 1959.3 612.585 1959.57 612.853C1959.84 613.121 1963.86 634.826 1968.55 661.222ZM1528.94 749.25C1536.44 790.518 1545.02 841.566 1544.35 842.102C1542.87 843.71 1440.11 860.86 1440.11 859.655C1440.11 858.851 1435.95 835.269 1431 807.132L1421.89 756.084L1470.92 747.374C1497.86 742.551 1521.44 738.531 1523.31 738.397C1526.8 738.263 1526.93 738.665 1528.94 749.25Z" fill="black" fill-opacity="0.04"/>
</svg>
