<svg width="70" height="70" viewBox="0 0 70 70" fill="none" xmlns="http://www.w3.org/2000/svg">
<g filter="url(#filter0_d)">
<path d="M34.88 58.76C50.2777 58.76 62.76 46.2777 62.76 30.88C62.76 15.4823 50.2777 3 34.88 3C19.4823 3 7 15.4823 7 30.88C7 46.2777 19.4823 58.76 34.88 58.76Z" fill="white" stroke="white" stroke-width="5.76"/>
<path d="M34.88 57.3199C49.4824 57.3199 61.32 45.4824 61.32 30.8799C61.32 16.2775 49.4824 4.43994 34.88 4.43994C20.2776 4.43994 8.44 16.2775 8.44 30.8799C8.44 45.4824 20.2776 57.3199 34.88 57.3199Z" stroke="#FFC42B" stroke-width="2.88"/>
</g>
<path d="M42.5283 42H28.0566V38.9556L33.2534 33.7021C34.7922 32.1257 35.7975 31.0353 36.2695 30.4312C36.7415 29.8175 37.0814 29.2511 37.2891 28.7319C37.4967 28.2127 37.6006 27.6746 37.6006 27.1177C37.6006 26.2869 37.3693 25.6686 36.9067 25.2627C36.4536 24.8568 35.8447 24.6538 35.0801 24.6538C34.2777 24.6538 33.4989 24.8379 32.7437 25.2061C31.9884 25.5742 31.2002 26.0981 30.3789 26.7778L28 23.96C29.0195 23.0915 29.8644 22.4779 30.5347 22.1191C31.2049 21.7604 31.9365 21.4867 32.7295 21.2979C33.5225 21.0996 34.4098 21.0005 35.3916 21.0005C36.6849 21.0005 37.8271 21.2365 38.8184 21.7085C39.8096 22.1805 40.5789 22.8413 41.1265 23.6909C41.674 24.5405 41.9478 25.5129 41.9478 26.6079C41.9478 27.5614 41.7778 28.4582 41.438 29.2983C41.1076 30.1291 40.5884 30.9834 39.8804 31.8613C39.1818 32.7393 37.9451 33.9901 36.1704 35.6138L33.5083 38.1201V38.3184H42.5283V42Z" fill="black"/>
<defs>
<filter id="filter0_d" x="0.119995" y="0.119995" width="69.52" height="69.52" filterUnits="userSpaceOnUse" color-interpolation-filters="sRGB">
<feFlood flood-opacity="0" result="BackgroundImageFix"/>
<feColorMatrix in="SourceAlpha" type="matrix" values="0 0 0 0 0 0 0 0 0 0 0 0 0 0 0 0 0 0 127 0"/>
<feOffset dy="4"/>
<feGaussianBlur stdDeviation="2"/>
<feColorMatrix type="matrix" values="0 0 0 0 0 0 0 0 0 0 0 0 0 0 0 0 0 0 0.25 0"/>
<feBlend mode="normal" in2="BackgroundImageFix" result="effect1_dropShadow"/>
<feBlend mode="normal" in="SourceGraphic" in2="effect1_dropShadow" result="shape"/>
</filter>
</defs>
</svg>
