<svg width="70" height="70" viewBox="0 0 70 70" fill="none" xmlns="http://www.w3.org/2000/svg">
<g filter="url(#filter0_d)">
<path d="M34.88 58.76C50.2777 58.76 62.76 46.2777 62.76 30.88C62.76 15.4823 50.2777 3 34.88 3C19.4823 3 7 15.4823 7 30.88C7 46.2777 19.4823 58.76 34.88 58.76Z" fill="white" stroke="white" stroke-width="5.76"/>
<path d="M34.88 57.3199C49.4824 57.3199 61.32 45.4824 61.32 30.8799C61.32 16.2775 49.4824 4.43994 34.88 4.43994C20.2776 4.43994 8.44 16.2775 8.44 30.8799C8.44 45.4824 20.2776 57.3199 34.88 57.3199Z" stroke="#FFC42B" stroke-width="2.88"/>
</g>
<path d="M41.7212 25.9282C41.7212 27.2215 41.3294 28.3213 40.5459 29.2275C39.7624 30.1338 38.6626 30.7568 37.2466 31.0967V31.1816C38.9175 31.3893 40.1825 31.8991 41.0415 32.7109C41.9006 33.5133 42.3301 34.599 42.3301 35.9678C42.3301 37.9596 41.6079 39.5125 40.1636 40.6265C38.7192 41.731 36.6566 42.2832 33.9756 42.2832C31.7288 42.2832 29.737 41.9103 28 41.1646V37.4404C28.8024 37.8464 29.6851 38.1768 30.6479 38.4316C31.6108 38.6865 32.5643 38.814 33.5083 38.814C34.9526 38.814 36.0194 38.5685 36.7085 38.0776C37.3976 37.5868 37.7422 36.7985 37.7422 35.7129C37.7422 34.7406 37.3457 34.0514 36.5527 33.6455C35.7598 33.2396 34.4948 33.0366 32.7578 33.0366H31.186V29.6807H32.7861C34.391 29.6807 35.5615 29.473 36.2979 29.0576C37.0436 28.6328 37.4165 27.9106 37.4165 26.8911C37.4165 25.3241 36.4347 24.5405 34.4712 24.5405C33.7915 24.5405 33.0977 24.6538 32.3896 24.8804C31.6911 25.1069 30.9123 25.4987 30.0532 26.0557L28.0283 23.0396C29.9163 21.6802 32.1678 21.0005 34.7827 21.0005C36.9256 21.0005 38.6154 21.4347 39.8521 22.3032C41.0981 23.1717 41.7212 24.38 41.7212 25.9282Z" fill="black"/>
<defs>
<filter id="filter0_d" x="0.119995" y="0.119995" width="69.52" height="69.52" filterUnits="userSpaceOnUse" color-interpolation-filters="sRGB">
<feFlood flood-opacity="0" result="BackgroundImageFix"/>
<feColorMatrix in="SourceAlpha" type="matrix" values="0 0 0 0 0 0 0 0 0 0 0 0 0 0 0 0 0 0 127 0"/>
<feOffset dy="4"/>
<feGaussianBlur stdDeviation="2"/>
<feColorMatrix type="matrix" values="0 0 0 0 0 0 0 0 0 0 0 0 0 0 0 0 0 0 0.25 0"/>
<feBlend mode="normal" in2="BackgroundImageFix" result="effect1_dropShadow"/>
<feBlend mode="normal" in="SourceGraphic" in2="effect1_dropShadow" result="shape"/>
</filter>
</defs>
</svg>
