<svg width="200" height="200" viewBox="0 0 200 200" fill="none" xmlns="http://www.w3.org/2000/svg">
<circle cx="100" cy="100" r="100" fill="white" fill-opacity="0.2"/>
<g filter="url(#filter0_f)">
<circle cx="100" cy="100" r="43" fill="#DC9F01"/>
</g>
<circle cx="100" cy="100" r="43" fill="#DC9F01"/>
<path d="M91.7153 100.927H90.9736V102.076H90.4302V100.927H88V100.432L90.3721 97.0513H90.9736V100.411H91.7153V100.927ZM90.4302 100.411V98.75C90.4302 98.4242 90.4416 98.0562 90.4644 97.646H90.437C90.3276 97.8647 90.2251 98.0459 90.1294 98.1895L88.5674 100.411H90.4302Z" fill="white"/>
<path d="M94.205 97.0068C94.6607 97.0068 95.0219 97.1128 95.2885 97.3247C95.5551 97.5366 95.6884 97.8294 95.6884 98.2031C95.6884 98.4492 95.612 98.6737 95.4594 98.8765C95.3067 99.0793 95.0629 99.2638 94.7279 99.4302C95.1335 99.6239 95.4218 99.8278 95.5927 100.042C95.7636 100.254 95.849 100.5 95.849 100.78C95.849 101.195 95.7043 101.527 95.4149 101.775C95.1256 102.021 94.7291 102.144 94.2255 102.144C93.6923 102.144 93.2821 102.028 92.995 101.795C92.7079 101.561 92.5644 101.229 92.5644 100.801C92.5644 100.229 92.913 99.7834 93.6103 99.4644C93.2958 99.2866 93.0702 99.0952 92.9335 98.8901C92.7968 98.6828 92.7284 98.4515 92.7284 98.1963C92.7284 97.834 92.8617 97.5457 93.1283 97.3315C93.3972 97.1151 93.7561 97.0068 94.205 97.0068ZM93.1249 100.814C93.1249 101.088 93.2195 101.301 93.4086 101.454C93.6 101.606 93.8677 101.683 94.2118 101.683C94.5513 101.683 94.8157 101.603 95.0048 101.443C95.1939 101.284 95.2885 101.065 95.2885 100.787C95.2885 100.566 95.1996 100.37 95.0219 100.199C94.8441 100.026 94.5342 99.8586 94.0922 99.6968C93.7527 99.8426 93.5066 100.004 93.3539 100.182C93.2012 100.358 93.1249 100.568 93.1249 100.814ZM94.1981 97.4683C93.9133 97.4683 93.69 97.5366 93.5282 97.6733C93.3664 97.8101 93.2855 97.9924 93.2855 98.2202C93.2855 98.4299 93.3528 98.6099 93.4872 98.7603C93.6216 98.9106 93.87 99.061 94.2323 99.2114C94.5582 99.0747 94.7883 98.9277 94.9228 98.7705C95.0595 98.6133 95.1278 98.4299 95.1278 98.2202C95.1278 97.9901 95.0447 97.8078 94.8783 97.6733C94.7143 97.5366 94.4875 97.4683 94.1981 97.4683Z" fill="white"/>
<path d="M97.761 101.262L97.8123 101.341C97.7531 101.569 97.6676 101.833 97.556 102.134C97.4443 102.437 97.3281 102.718 97.2073 102.978H96.7801C96.8416 102.741 96.9088 102.448 96.9817 102.1C97.0569 101.751 97.1093 101.472 97.139 101.262H97.761Z" fill="white"/>
<path d="M100.534 99.0234C101.061 99.0234 101.474 99.1545 101.775 99.4165C102.078 99.6763 102.23 100.033 102.23 100.486C102.23 101.004 102.064 101.409 101.734 101.703C101.406 101.997 100.953 102.144 100.374 102.144C99.8109 102.144 99.3814 102.054 99.0852 101.874V101.327C99.2447 101.43 99.4429 101.511 99.6799 101.57C99.9169 101.627 100.15 101.655 100.381 101.655C100.782 101.655 101.093 101.561 101.314 101.372C101.537 101.182 101.649 100.909 101.649 100.551C101.649 99.854 101.221 99.5054 100.367 99.5054C100.15 99.5054 99.861 99.5384 99.4987 99.6045L99.2048 99.4165L99.3928 97.0786H101.878V97.6016H99.8781L99.7517 99.1021C100.014 99.0496 100.275 99.0234 100.534 99.0234Z" fill="white"/>
<path d="M106.64 99.5703C106.64 100.434 106.504 101.079 106.23 101.505C105.959 101.931 105.543 102.144 104.983 102.144C104.445 102.144 104.036 101.926 103.755 101.491C103.475 101.054 103.335 100.413 103.335 99.5703C103.335 98.6999 103.471 98.0539 103.742 97.6323C104.013 97.2108 104.427 97 104.983 97C105.525 97 105.936 97.2199 106.216 97.6597C106.499 98.0994 106.64 98.7363 106.64 99.5703ZM103.909 99.5703C103.909 100.297 103.995 100.827 104.166 101.16C104.337 101.49 104.609 101.655 104.983 101.655C105.361 101.655 105.634 101.488 105.803 101.153C105.974 100.816 106.059 100.288 106.059 99.5703C106.059 98.8525 105.974 98.3273 105.803 97.9946C105.634 97.6597 105.361 97.4922 104.983 97.4922C104.609 97.4922 104.337 97.6574 104.166 97.9878C103.995 98.3159 103.909 98.8434 103.909 99.5703Z" fill="white"/>
<path d="M108.169 98.5688C108.169 98.9562 108.212 99.2467 108.296 99.4404C108.38 99.6341 108.517 99.731 108.706 99.731C109.08 99.731 109.267 99.3436 109.267 98.5688C109.267 97.7987 109.08 97.4136 108.706 97.4136C108.517 97.4136 108.38 97.5093 108.296 97.7007C108.212 97.8921 108.169 98.1815 108.169 98.5688ZM109.735 98.5688C109.735 99.0884 109.647 99.4814 109.472 99.748C109.299 100.012 109.043 100.145 108.706 100.145C108.387 100.145 108.139 100.009 107.961 99.7378C107.785 99.4666 107.698 99.077 107.698 98.5688C107.698 98.0516 107.782 97.6619 107.951 97.3999C108.122 97.1379 108.373 97.0068 108.706 97.0068C109.036 97.0068 109.291 97.1424 109.468 97.4136C109.646 97.6847 109.735 98.0698 109.735 98.5688ZM111.177 100.572C111.177 100.961 111.219 101.253 111.304 101.447C111.388 101.638 111.526 101.734 111.717 101.734C111.909 101.734 112.05 101.639 112.141 101.45C112.232 101.259 112.278 100.966 112.278 100.572C112.278 100.182 112.232 99.8939 112.141 99.707C112.05 99.5179 111.909 99.4233 111.717 99.4233C111.526 99.4233 111.388 99.5179 111.304 99.707C111.219 99.8939 111.177 100.182 111.177 100.572ZM112.746 100.572C112.746 101.089 112.658 101.481 112.483 101.748C112.31 102.012 112.055 102.144 111.717 102.144C111.394 102.144 111.144 102.008 110.969 101.737C110.796 101.466 110.709 101.078 110.709 100.572C110.709 100.055 110.793 99.6649 110.962 99.4028C111.133 99.1408 111.385 99.0098 111.717 99.0098C112.041 99.0098 112.293 99.1442 112.473 99.4131C112.655 99.6797 112.746 100.066 112.746 100.572ZM111.864 97.0786L109.092 102.076H108.59L111.362 97.0786H111.864Z" fill="white"/>
<defs>
<filter id="filter0_f" x="47" y="47" width="106" height="106" filterUnits="userSpaceOnUse" color-interpolation-filters="sRGB">
<feFlood flood-opacity="0" result="BackgroundImageFix"/>
<feBlend mode="normal" in="SourceGraphic" in2="BackgroundImageFix" result="shape"/>
<feGaussianBlur stdDeviation="5" result="effect1_foregroundBlur"/>
</filter>
</defs>
</svg>
