<svg width="15" height="15" viewBox="0 0 15 15" fill="none" xmlns="http://www.w3.org/2000/svg">
<path d="M0.357017 7.8105L7.29452 0.8835C7.54052 0.6375 7.87052 0.429 8.28452 0.258C8.69852 0.0855 9.07652 0 9.42002 0H13.4565C13.7925 0 14.0835 0.123 14.3295 0.369C14.5755 0.615 14.6985 0.906 14.6985 1.242V5.2785C14.6985 5.622 14.613 6 14.442 6.414C14.271 6.828 14.0625 7.155 13.8165 7.3935L6.87902 14.3415C6.63902 14.5815 6.34802 14.7 6.00602 14.7C5.67002 14.7 5.37602 14.58 5.12252 14.3415L0.358516 9.567C0.118516 9.327 1.58954e-05 9.036 1.58954e-05 8.694C-0.0014841 8.358 0.118517 8.0625 0.357017 7.8105ZM10.716 3.9825C10.959 4.2255 11.2515 4.347 11.5935 4.347C11.9355 4.347 12.2295 4.2255 12.471 3.9825C12.714 3.7395 12.8355 3.447 12.8355 3.105C12.8355 2.7615 12.714 2.469 12.471 2.2275C12.228 1.9845 11.9355 1.863 11.5935 1.863C11.25 1.863 10.9575 1.9845 10.716 2.2275C10.473 2.4705 10.3515 2.763 10.3515 3.105C10.3515 3.4485 10.473 3.741 10.716 3.9825Z" fill="white"/>
</svg>
