<svg width="332" height="215" viewBox="0 0 332 215" fill="none" xmlns="http://www.w3.org/2000/svg">
<rect width="332" height="215" fill="url(#paint0_radial)"/>
<mask id="mask0" mask-type="alpha" maskUnits="userSpaceOnUse" x="34" y="64" width="276" height="101">
<path d="M34.8158 64.3612H310V164.116H34.8158V64.3612Z" fill="white"/>
</mask>
<g mask="url(#mask0)">
<path d="M309.996 89.3895C310.007 90.9118 309.995 93.0312 309.963 95.6876C309.902 100.919 309.764 107.877 309.588 114.784C309.37 123.255 308.775 143.598 307.996 149.482C307.965 149.705 307.926 149.929 307.882 150.149C307.365 152.61 305.463 156.916 298.521 158.074C296.626 158.391 294.563 158.483 293.161 158.503C287.218 158.588 284.124 157.799 281.747 155.596C281.287 155.17 280.873 154.695 280.51 154.181C279.685 153.018 276.829 148.406 269.57 136.637C269.489 141.252 269.392 145.223 269.275 147.953C269.115 151.698 266.662 154.956 263.108 156.15C262.425 156.383 260.343 157.082 254.821 157.161C252.883 157.188 251.003 157.124 249.529 156.978C248.412 156.869 247.472 156.711 246.65 156.493C245.69 156.235 244.835 155.888 244.04 155.429C241.365 153.885 239.624 151.153 239.382 148.118C239.374 147.981 239.364 147.846 239.363 147.71C239.35 147.313 239.339 146.784 239.333 146.128C238.394 146.291 237.17 146.49 235.681 146.723C232.258 147.264 227.795 147.934 223.427 148.56C215.014 149.765 204.24 151.214 200.699 151.265C200.546 151.267 200.402 151.265 200.27 151.264C195.935 151.218 192.236 148.106 191.454 143.845C191.338 143.202 191.192 142.347 191.027 141.307C189.808 145.527 187.979 149.227 185.548 152.376C182.679 156.09 179.024 158.975 174.681 160.951C170.257 162.966 165.094 164.029 159.346 164.111C158.471 164.123 157.568 164.115 156.661 164.083C145.959 163.698 137.544 160.386 131.647 154.228C128.684 151.137 126.471 147.451 125.019 143.188C122.436 145.95 118.792 146.417 115.824 146.797C113.426 147.106 110.828 147.307 108.876 147.335C107.792 147.351 106.926 147.314 106.144 147.225C102.1 146.749 99.6505 144.442 98.4477 141.995C97.183 147.697 94.0832 152.766 89.5402 156.487C84.1989 160.86 77.1023 163.233 69.0155 163.349C67.1364 163.376 65.1793 163.278 63.2024 163.062C50.1986 161.652 40.7385 154.736 37.1965 150.869C35.7515 149.294 34.9102 147.257 34.8241 145.118C34.7218 142.607 35.5623 139.947 37.6288 136.222C38.2988 135.021 40.0551 132.013 41.9306 130.031C43.38 128.502 44.9936 127.482 46.7471 126.986C46.026 126.272 45.3533 125.525 44.7317 124.75C40.5502 119.506 38.8433 113.019 39.6658 105.463C40.3905 98.7752 43.6294 92.6932 48.7805 88.3369C54.033 83.8919 60.8955 81.4874 68.6307 81.3772C70.273 81.3539 71.9718 81.4337 73.676 81.6219C74.5173 81.7143 75.3596 81.8281 76.191 81.9626C75.8905 77.5302 76.0098 73.6294 79.2487 70.6834C79.9779 70.0181 80.8103 69.4766 81.7153 69.0839C83.1701 68.4456 84.4285 67.8951 104.973 66.1102C114.498 65.2853 125.967 64.4247 130.122 64.3655C130.46 64.3617 130.753 64.3617 131.025 64.3628C132.294 64.3861 133.542 64.6757 134.694 65.21C139.99 67.6746 140.554 73.4447 140.893 76.89C140.941 77.3876 141.106 79.1735 141.151 81.0786C142.316 81.1252 143.503 81.2059 144.599 81.3117C145.734 81.4211 146.709 81.5538 147.501 81.7026C148.205 81.8389 148.821 82.0012 149.385 82.1957C152.436 83.2527 154.707 85.6949 155.457 88.7305C155.576 89.1958 155.652 89.6719 155.694 90.1488C155.829 91.7464 155.683 94.523 154.742 108.73C154.259 115.947 153.766 123.413 153.628 127.189C153.464 131.844 154.442 133.172 154.556 133.31C154.804 133.609 155.799 133.94 157.466 133.995C157.648 134.004 157.825 134.004 157.997 134.003C160.004 133.974 160.446 133.403 160.658 133.128C161.377 132.194 161.855 130.288 161.938 128.022C162.192 120.912 162.338 111.351 162.459 103.671C162.571 96.3932 162.64 92.1893 162.748 90.3792C162.938 87.1248 164.863 84.2263 167.788 82.7865C169.222 82.0765 170.918 81.4839 177.169 81.3951C178.378 81.3781 180.721 81.3727 182.818 81.5305C182.962 81.543 183.101 81.5547 183.241 81.5663C183.217 81.3297 183.192 81.1037 183.172 80.8913C182.727 76.336 185.753 72.1662 190.219 71.1693C195.822 69.9213 226.793 65.2459 231.836 65.1742C232.505 65.1643 233.092 65.202 233.68 65.2943C235.762 65.6198 237.666 66.6633 239.067 68.243C240.842 70.2485 241.717 72.7355 242.403 77.7507C242.442 78.0394 242.543 78.7835 242.644 79.7338C243.619 78.4859 245.128 77.1993 247.439 76.414C248.313 76.1154 249.293 75.8931 250.438 75.7299C252.192 75.4789 254.132 75.4054 255.454 75.3866C261.254 75.3041 264.689 75.7748 267.368 78.5657C267.846 79.065 268.265 79.6164 268.619 80.2108C268.772 80.4663 269.532 81.6721 270.335 82.9497C272.436 86.2964 275.925 91.8477 279.772 98.0688C279.848 92.6313 279.93 88.4167 280.085 86.2256C280.346 82.5391 282.821 79.3779 286.344 78.2402C287.49 77.8682 289.324 77.4378 293.35 77.3804C295.209 77.3535 297.263 77.4154 298.984 77.5481C301.483 77.7382 305.256 78.0295 307.921 81.3655C309.96 83.9188 309.977 86.3332 309.996 89.3895Z" fill="#FFB700"/>
</g>
<mask id="mask1" mask-type="alpha" maskUnits="userSpaceOnUse" x="30" y="61" width="276" height="101">
<path d="M30 61.3358H305.223V161.091H30V61.3358Z" fill="white"/>
</mask>
<g mask="url(#mask1)">
<path d="M305.218 86.364C305.23 87.8864 305.218 90.0058 305.186 92.6622C305.125 97.8934 304.987 104.851 304.81 111.758C304.593 120.23 303.997 140.573 303.219 146.457C303.187 146.68 303.149 146.903 303.104 147.124C302.587 149.585 300.685 153.891 293.742 155.049C291.847 155.366 289.783 155.458 288.381 155.478C282.437 155.563 279.343 154.774 276.965 152.57C276.506 152.144 276.091 151.669 275.728 151.155C274.903 149.993 272.047 145.381 264.787 133.611C264.706 138.227 264.609 142.197 264.491 144.927C264.332 148.673 261.878 151.931 258.325 153.125C257.641 153.357 255.558 154.057 250.036 154.135C248.098 154.163 246.217 154.099 244.743 153.953C243.627 153.843 242.686 153.685 241.864 153.468C240.904 153.209 240.049 152.862 239.253 152.403C236.578 150.86 234.837 148.128 234.595 145.092C234.587 144.956 234.578 144.821 234.575 144.684C234.563 144.287 234.552 143.758 234.546 143.103C233.607 143.266 232.383 143.465 230.893 143.698C227.47 144.239 223.006 144.908 218.638 145.535C210.223 146.739 199.448 148.189 195.906 148.24C195.753 148.242 195.609 148.24 195.477 148.239C191.142 148.192 187.443 145.081 186.66 140.819C186.544 140.176 186.398 139.321 186.234 138.281C185.014 142.501 183.184 146.201 180.753 149.351C177.884 153.065 174.229 155.95 169.884 157.926C165.46 159.941 160.297 161.004 154.548 161.085C153.672 161.098 152.77 161.09 151.862 161.058C141.158 160.673 132.742 157.36 126.845 151.203C123.882 148.112 121.668 144.425 120.215 140.163C117.633 142.925 113.989 143.391 111.02 143.772C108.621 144.081 106.023 144.282 104.07 144.31C102.986 144.326 102.121 144.289 101.338 144.199C97.2935 143.723 94.8436 141.416 93.6416 138.97C92.3758 144.672 89.2756 149.742 84.7328 153.461C79.3899 157.835 72.2932 160.208 64.2043 160.323C62.325 160.35 60.3676 160.253 58.3914 160.036C45.3848 158.626 35.9234 151.71 32.3809 147.844C30.9357 146.268 30.0943 144.232 30.0082 142.092C29.9059 139.581 30.7474 136.921 32.8142 133.197C33.4834 131.996 35.2399 128.988 37.1156 127.006C38.5653 125.476 40.1791 124.457 41.9329 123.961C41.2116 123.246 40.5388 122.5 39.9172 121.725C35.735 116.48 34.0279 109.994 34.8505 102.438C35.5754 95.7498 38.8147 89.6678 43.9665 85.3115C49.2206 80.8665 56.0832 78.462 63.8195 78.3518C65.462 78.3284 67.1611 78.4082 68.8655 78.5965C69.707 78.6888 70.5493 78.8027 71.3818 78.9372C71.0813 74.5047 71.1997 70.6039 74.439 67.6579C75.1683 66.9927 76.0008 66.4512 76.9059 66.0585C78.361 65.4202 79.6195 64.8697 100.168 63.0847C109.693 62.2599 121.164 61.3993 125.32 61.3401C125.657 61.3363 125.95 61.3363 126.222 61.3374C127.491 61.3616 128.741 61.6503 129.892 62.1846C135.189 64.6492 135.753 70.4193 136.092 73.8646C136.14 74.3622 136.305 76.1481 136.35 78.0532C137.515 78.0998 138.702 78.1805 139.798 78.2863C140.933 78.3957 141.908 78.5284 142.702 78.6772C143.405 78.8135 144.021 78.9757 144.585 79.1703C147.637 80.2273 149.907 82.6694 150.659 85.7051C150.777 86.1704 150.853 86.6465 150.895 87.1234C151.03 88.721 150.884 91.4976 149.943 105.705C149.461 112.922 148.966 120.387 148.829 124.164C148.665 128.818 149.643 130.146 149.757 130.284C150.005 130.584 151 130.914 152.668 130.971C152.849 130.978 153.027 130.979 153.198 130.977C155.205 130.949 155.648 130.377 155.859 130.103C156.579 129.169 157.057 127.263 157.14 124.996C157.394 117.887 157.541 108.325 157.661 100.646C157.774 93.3677 157.842 89.1639 157.95 87.3538C158.14 84.0994 160.065 81.2009 162.991 79.7611C164.425 79.051 166.121 78.4584 172.373 78.3697C173.582 78.3527 175.926 78.3473 178.023 78.5051C178.167 78.5176 178.306 78.5293 178.446 78.5409C178.422 78.3042 178.397 78.0783 178.378 77.8658C177.932 73.3106 180.958 69.1408 185.425 68.1439C191.029 66.8959 222.004 62.2205 227.049 62.1488C227.718 62.1389 228.304 62.1766 228.891 62.2689C230.974 62.5952 232.879 63.6379 234.279 65.2176C236.054 67.224 236.93 69.7101 237.616 74.7253C237.655 75.014 237.756 75.7581 237.857 76.7084C238.833 75.4604 240.342 74.1748 242.653 73.3886C243.527 73.0909 244.508 72.8677 245.653 72.7045C247.407 72.4535 249.348 72.38 250.669 72.3611C256.471 72.2787 259.905 72.7493 262.584 75.5402C263.062 76.0396 263.481 76.591 263.836 77.1854C263.989 77.4409 264.749 78.6467 265.552 79.9243C267.654 83.271 271.143 88.8223 274.991 95.0434C275.067 89.6059 275.15 85.3913 275.303 83.2002C275.564 79.5137 278.041 76.3525 281.564 75.2148C282.709 74.8427 284.544 74.4124 288.571 74.355C290.429 74.3281 292.484 74.39 294.205 74.5227C296.704 74.7127 300.478 75.0041 303.143 78.3401C305.182 80.8934 305.199 83.3078 305.218 86.364Z" fill="#CA3D42"/>
</g>
<path d="M41.2836 142.848C41.2096 141.05 46.0551 133.157 46.8803 133.873C48.9193 135.882 54.4014 141.127 62.3537 141.982C68.8766 142.685 73.8456 141.07 74.4769 135.321C74.8944 131.516 72.0681 128.438 62.0444 125.032C50.3532 121.179 44.9684 115.05 46.1047 104.699C47.1535 95.1454 56.0482 87.4208 70.2554 88.9493C79.2799 89.9207 86.2176 93.4419 89.3912 96.6471C90.2867 97.5488 84.8676 105.738 84.1714 105.484C82.0837 103.916 76.6061 100.283 69.368 99.505C62.5773 98.7746 58.8312 101.594 58.3658 105.84C58.006 109.112 59.2632 111.665 68.9198 115.121C81.1783 119.573 88.7851 125.224 87.5812 136.194C86.4837 146.19 77.3311 153.797 61.6936 152.115C51.6861 151.039 43.9512 145.731 41.2836 142.848Z" fill="#022920"/>
<path d="M82.493 75.6507C84.4207 74.8067 122.666 71.5669 128.255 71.6626C129.275 72.1383 129.817 82.1103 129.285 82.2349C127.144 82.5509 120.166 83.2649 112.458 83.8444C113.685 100.354 115.601 129.169 115.741 135.652C115.159 136.41 103.971 137.481 103.83 136.679C103.162 130.411 101.026 99.535 100.26 84.6189C95.3274 84.9313 86.0113 85.704 83.4893 85.6841C82.383 83.8607 82.0674 76.0379 82.493 75.6507Z" fill="#022920"/>
<path d="M144.089 88.899C144.277 91.1518 142.309 116.604 142.011 125.041C141.611 136.35 146.163 141.007 154.517 141.309C164.204 141.658 168.003 134.875 168.298 126.528C168.758 113.513 168.869 92.7576 169.093 88.9008C170.271 88.3151 181.578 88.1835 181.724 89.0873C182.023 90.7156 181.423 115.228 180.995 127.345C180.519 140.808 174.889 154.085 154.358 153.345C138.273 152.766 128.877 144.158 129.525 125.849C129.87 116.066 131.288 93.5596 132.171 88.7386C132.392 87.4887 143.933 88.2637 144.089 88.899Z" fill="#022920"/>
<path d="M236.813 134.682C237.382 134.874 202.402 140.092 197.514 140.041C196.088 132.33 190.427 89.3582 189.326 78.1009C195.64 76.7009 227.628 72.0704 229.475 72.357C230.331 73.3187 231.152 80.5715 231.064 82.5599C229.504 83.0429 208.947 86.0242 202.08 86.6912L204.412 102.272C210.875 101.301 226.158 99.3977 226.816 99.5771C227.788 100.074 228.396 109.062 228.433 109.327C228.481 109.68 213.4 111.735 205.747 112.6L207.937 128.47C215.796 127.128 233.349 124.645 235.325 124.555C236.315 126.486 237.022 133.576 236.813 134.682Z" fill="#022920"/>
<path d="M285.426 147.065C283.956 144.969 267.351 117.502 258.566 103.399C258.362 117.491 258.212 137.509 257.862 145.671C255.621 146.432 246.188 146.412 246.117 145.512C245.898 138.954 246.731 90.4884 247.417 83.2312C247.888 81.9839 257.943 82.1073 258.465 82.6575C259.153 83.8392 278.02 113.778 285.735 127.948C286.328 112.338 286.257 90.1606 286.638 84.692C288.967 83.9337 297.861 84.3021 298.295 84.8497C298.728 85.3972 297.641 137.538 296.476 146.402C296.179 147.832 286.211 147.799 285.426 147.065Z" fill="#022920"/>
<path d="M38.2065 139.771C38.1325 137.973 42.978 130.08 43.8032 130.795C45.8422 132.805 51.3243 138.05 59.2766 138.906C65.7994 139.607 70.7685 137.994 71.3998 132.244C71.8173 128.439 68.991 125.361 58.9673 121.955C47.2761 118.102 41.8913 111.973 43.0276 101.622C44.0764 92.0683 52.9711 84.3437 67.1783 85.8722C76.2028 86.8436 83.1405 90.3648 86.314 93.5709C87.2096 94.4726 81.7905 102.661 81.0943 102.407C79.0066 100.84 73.5289 97.2064 66.2909 96.4278C59.5002 95.6975 55.7541 98.517 55.2887 102.763C54.9289 106.036 56.186 108.588 65.8427 112.044C78.1012 116.495 85.708 122.147 84.5041 133.117C83.4066 143.113 74.254 150.72 58.6165 149.038C48.609 147.961 40.874 142.654 38.2065 139.771Z" fill="#F3EDDE"/>
<path d="M80.0997 72.2317C82.0274 71.3877 120.273 68.1479 125.861 68.2436C126.882 68.7193 127.424 78.6914 126.892 78.8151C124.751 79.1319 117.773 79.8459 110.065 80.4246C111.291 96.9349 113.207 125.751 113.348 132.233C112.766 132.991 101.578 134.062 101.437 133.26C100.769 126.992 98.6327 96.1161 97.8672 81.2C92.9341 81.5123 83.618 82.285 81.096 82.2652C79.9897 80.4417 79.6741 72.619 80.0997 72.2317Z" fill="#F3EDDE"/>
<path d="M141.354 85.8219C141.541 88.0747 139.574 113.527 139.276 121.964C138.876 133.273 143.428 137.93 151.782 138.232C161.469 138.581 165.268 131.798 165.562 123.451C166.023 110.436 166.133 89.6805 166.358 85.8246C167.536 85.2379 178.843 85.1064 178.988 86.0102C179.287 87.6385 178.688 112.151 178.259 124.268C177.784 137.731 172.154 151.008 151.623 150.268C135.537 149.689 126.142 141.081 126.789 122.772C127.135 112.989 128.553 90.4825 129.436 85.6615C129.657 84.4116 141.198 85.1866 141.354 85.8219Z" fill="#F3EDDE"/>
<path d="M195.463 137.647C194.037 129.937 188.376 86.965 187.274 75.7076C193.588 74.3076 225.577 69.6772 227.424 69.9638C228.28 70.9254 229.1 78.1782 229.013 80.1666C227.453 80.6497 206.896 83.631 200.028 84.2988L202.361 99.8795C208.824 98.9089 224.107 97.0044 224.764 97.1839C225.737 97.6803 226.345 106.67 226.382 106.934C226.43 107.287 211.348 109.343 203.696 110.206L205.886 126.076C213.744 124.735 231.298 122.252 233.273 122.163C234.263 124.093 234.97 131.183 234.762 132.289C235.331 132.481 200.351 137.7 195.463 137.647Z" fill="#F3EDDE"/>
<path d="M282.349 144.671C280.879 142.575 264.274 115.108 255.489 101.006C255.285 115.098 255.135 135.116 254.785 143.278C252.544 144.039 243.11 144.018 243.04 143.119C242.821 136.56 243.654 88.0951 244.34 80.8379C244.81 79.5906 254.866 79.714 255.388 80.2642C256.076 81.4459 274.944 111.384 282.659 125.555C283.252 109.945 283.18 87.7673 283.561 82.2987C285.891 81.5404 294.785 81.9088 295.218 82.4563C295.652 83.0039 294.564 135.144 293.4 144.008C293.102 145.439 283.135 145.406 282.349 144.671Z" fill="#F3EDDE"/>
<path d="M135.68 48.3022V34.1604C135.68 32.9486 136.263 32.3419 137.428 32.3419H137.982C139.183 32.3419 139.783 32.9486 139.783 34.1604V48.3022C139.783 49.5148 139.183 50.1207 137.982 50.1207H137.428C136.263 50.1207 135.68 49.5148 135.68 48.3022Z" fill="#F3EDDE"/>
<path d="M156.195 48.3022V34.3231C156.195 33.6902 156.352 33.2014 156.669 32.8576C156.985 32.5138 157.422 32.3419 157.98 32.3419H158.482C159.021 32.3419 159.426 32.4321 159.696 32.6132C159.965 32.7944 160.257 33.0842 160.574 33.4813L168.386 43.9321V34.1604C168.386 32.9486 168.971 32.3419 170.143 32.3419H170.534C171.687 32.3419 172.264 32.9486 172.264 34.1604V48.1388C172.264 48.791 172.105 49.2843 171.789 49.6189C171.473 49.9535 171.045 50.1207 170.506 50.1207H170.171C169.893 50.1207 169.66 50.1022 169.474 50.0668C169.287 50.0298 169.126 49.9712 168.986 49.8902C168.847 49.8085 168.716 49.7091 168.595 49.5911C168.474 49.474 168.34 49.3244 168.191 49.1433L160.073 38.2862V48.3022C160.073 49.5148 159.477 50.1207 158.287 50.1207H157.896C156.762 50.1207 156.195 49.5148 156.195 48.3022Z" fill="#F3EDDE"/>
<path d="M202.235 47.9863C201.693 48.7568 200.95 49.3624 200.006 49.8023C199.062 50.2423 197.926 50.4626 196.599 50.4626C195.29 50.4626 194.104 50.2329 193.038 49.775C191.973 49.3163 191.066 48.6787 190.318 47.8629C189.57 47.0471 188.995 46.0789 188.594 44.9599C188.192 43.8409 187.991 42.6125 187.991 41.2731C187.991 39.9158 188.225 38.6687 188.692 37.5309C189.159 36.3939 189.813 35.4172 190.655 34.6006C191.496 33.7848 192.506 33.1471 193.683 32.6884C194.86 32.2297 196.16 32 197.581 32C198.702 32 199.697 32.1149 200.567 32.3438C201.436 32.5736 202.169 32.8768 202.768 33.2526C203.366 33.6285 203.82 34.0458 204.127 34.5045C204.436 34.9632 204.591 35.4218 204.591 35.8798C204.591 36.2838 204.482 36.6143 204.268 36.8706C204.053 37.1277 203.82 37.334 203.567 37.4895C203.314 37.6458 203.076 37.7466 202.851 37.7919C202.628 37.838 202.496 37.8427 202.46 37.806C201.936 37.0355 201.254 36.4533 200.412 36.0587C199.571 35.6649 198.692 35.4672 197.776 35.4672C196.973 35.4672 196.229 35.6094 195.548 35.8938C194.865 36.1783 194.276 36.5815 193.781 37.1042C193.286 37.627 192.897 38.2553 192.617 38.989C192.337 39.7228 192.197 40.53 192.197 41.4107C192.197 42.2913 192.323 43.0938 192.576 43.8182C192.828 44.5426 193.183 45.1662 193.641 45.6889C194.098 46.2117 194.66 46.6204 195.323 46.9134C195.986 47.2072 196.721 47.3534 197.524 47.3534C198.814 47.3534 199.875 47.0416 200.707 46.418C201.538 45.7952 202.019 44.9693 202.151 43.9417V43.5017H198.926C198.253 43.5017 197.753 43.3963 197.426 43.1853C197.099 42.9743 196.936 42.5937 196.936 42.0436V41.878C196.936 41.2911 197.099 40.9012 197.426 40.7089C197.753 40.5159 198.253 40.4198 198.926 40.4198H204.058C204.712 40.4198 205.166 40.5808 205.417 40.9012C205.67 41.2223 205.787 41.7045 205.768 42.346V49.8852C205.768 49.9399 205.632 50.018 205.361 50.1188C205.09 50.2196 204.768 50.2704 204.394 50.2704C204.151 50.2704 203.908 50.2384 203.664 50.1735C203.422 50.1102 203.203 49.9907 203.006 49.8164C202.81 49.6422 202.642 49.4085 202.501 49.1147C202.362 48.8217 202.272 48.445 202.235 47.9863Z" fill="#F3EDDE"/>
<path d="M230.892 47.5322C231.677 47.5322 232.387 47.3999 233.023 47.1354C233.659 46.8701 234.21 46.4912 234.678 45.998C235.146 45.5047 235.506 44.9118 235.758 44.2171C236.011 43.5239 236.137 42.7567 236.137 41.9165C236.137 41.0762 236.006 40.3091 235.744 39.6151C235.482 38.9211 235.123 38.3228 234.665 37.821C234.206 37.3184 233.654 36.9302 233.009 36.6563C232.365 36.3825 231.648 36.2455 230.863 36.2455C230.078 36.2455 229.367 36.3786 228.732 36.6423C228.095 36.9076 227.549 37.2865 227.091 37.7798C226.632 38.273 226.277 38.8667 226.025 39.5599C225.772 40.2547 225.646 41.0303 225.646 41.8885C225.646 42.7287 225.772 43.4959 226.025 44.1898C226.277 44.8838 226.637 45.4775 227.105 45.9707C227.572 46.464 228.123 46.8475 228.76 47.1214C229.395 47.3953 230.106 47.5322 230.892 47.5322ZM230.863 51.1212C229.498 51.1212 228.24 50.8971 227.091 50.4498C225.94 50.0024 224.953 49.3722 224.131 48.56C223.307 47.7469 222.668 46.7744 222.21 45.6416C221.751 44.5096 221.522 43.2679 221.522 41.9165C221.522 40.5651 221.756 39.3234 222.224 38.1906C222.691 37.0586 223.341 36.0861 224.173 35.273C225.005 34.4608 225.991 33.8259 227.133 33.3692C228.273 32.9125 229.526 32.6846 230.892 32.6846C232.275 32.6846 233.537 32.9125 234.678 33.3692C235.819 33.8259 236.8 34.4608 237.624 35.273C238.446 36.0861 239.087 37.0539 239.546 38.1766C240.004 39.3 240.232 40.5378 240.232 41.8885C240.232 43.2407 240.004 44.4824 239.546 45.6144C239.087 46.7472 238.441 47.7197 237.61 48.5319C236.777 49.345 235.79 49.9798 234.65 50.4357C233.509 50.8924 232.247 51.1212 230.863 51.1212Z" fill="#022920"/>
<path d="M113.021 47.7514C114.256 47.7514 115.125 47.5646 115.63 47.1896C116.135 46.8154 116.388 46.1992 116.388 45.3403C116.388 44.5553 116.125 43.9803 115.602 43.6147C115.079 43.2498 114.227 43.0669 113.049 43.0669H109.318V47.7514H113.021ZM112.797 40.4917C113.751 40.4917 114.47 40.291 114.957 39.8887C115.443 39.4873 115.686 38.9302 115.686 38.2176C115.686 37.4878 115.457 36.944 114.998 36.5876C114.54 36.2321 113.807 36.0539 112.797 36.0539H109.318V40.4917H112.797ZM105.826 50.1757C105.442 49.7835 105.251 49.2311 105.251 48.5185V35.2868C105.251 34.5741 105.442 34.0225 105.826 33.6296C106.209 33.2367 106.738 33.0399 107.411 33.0399H113.638C115.695 33.0399 117.261 33.4281 118.337 34.2046C119.412 34.981 119.95 36.1084 119.95 37.5882C119.95 38.5739 119.674 39.3729 119.123 39.9852C118.571 40.5967 117.762 41.0488 116.696 41.3405C118.042 41.6517 119.033 42.1901 119.669 42.9572C120.305 43.7244 120.623 44.6471 120.623 45.7239C120.623 47.4409 120.044 48.7099 118.884 49.5322C117.724 50.3538 115.863 50.7646 113.302 50.7646H107.411C106.738 50.7646 106.209 50.5686 105.826 50.1757Z" fill="#022920"/>
<path d="M136.247 49.0391V34.7664C136.247 33.5434 136.837 32.9311 138.015 32.9311H138.576C139.791 32.9311 140.399 33.5434 140.399 34.7664V49.0391C140.399 50.2629 139.791 50.8744 138.576 50.8744H138.015C136.837 50.8744 136.247 50.2629 136.247 49.0391Z" fill="#022920"/>
<path d="M156.781 49.0391V34.9306C156.781 34.2918 156.939 33.7986 157.258 33.4516C157.576 33.1046 158.015 32.9311 158.576 32.9311H159.081C159.623 32.9311 160.03 33.0221 160.301 33.205C160.572 33.3878 160.866 33.6803 161.185 34.081L169.039 44.6285V34.7664C169.039 33.5434 169.628 32.9311 170.806 32.9311H171.199C172.359 32.9311 172.939 33.5434 172.939 34.7664V48.8742C172.939 49.5324 172.779 50.0303 172.461 50.368C172.144 50.7056 171.713 50.8744 171.171 50.8744H170.835C170.554 50.8744 170.32 50.8558 170.134 50.82C169.946 50.7826 169.783 50.7235 169.643 50.6418C169.503 50.5593 169.371 50.459 169.249 50.3399C169.128 50.2217 168.993 50.0708 168.843 49.8879L160.68 38.9304V49.0391C160.68 50.2629 160.081 50.8744 158.885 50.8744H158.492C157.351 50.8744 156.781 50.2629 156.781 49.0391Z" fill="#022920"/>
<path d="M202.756 48.6004C202.214 49.3675 201.471 49.9705 200.526 50.4085C199.582 50.8465 198.446 51.0659 197.118 51.0659C195.809 51.0659 194.622 50.8372 193.556 50.3813C192.49 49.9246 191.582 49.2897 190.834 48.4775C190.086 47.6652 189.511 46.7013 189.11 45.5871C188.707 44.473 188.507 43.25 188.507 41.9165C188.507 40.5651 188.74 39.3234 189.208 38.1906C189.674 37.0586 190.329 36.086 191.171 35.273C192.013 34.4608 193.023 33.8259 194.2 33.3692C195.379 32.9125 196.679 32.6838 198.1 32.6838C199.222 32.6838 200.217 32.7981 201.087 33.0261C201.957 33.2548 202.69 33.5567 203.289 33.9309C203.888 34.3052 204.342 34.7206 204.649 35.1773C204.958 35.634 205.113 36.0907 205.113 36.5466C205.113 36.9489 205.004 37.278 204.79 37.5331C204.575 37.7891 204.342 37.9945 204.088 38.1493C203.836 38.3049 203.598 38.4053 203.373 38.4504C203.149 38.4963 203.018 38.501 202.981 38.4644C202.457 37.6973 201.775 37.1177 200.933 36.7248C200.091 36.3327 199.212 36.1358 198.296 36.1358C197.492 36.1358 196.748 36.2774 196.066 36.5606C195.383 36.8438 194.794 37.2453 194.299 37.7658C193.804 38.2863 193.415 38.9118 193.134 39.6423C192.854 40.3729 192.715 41.1766 192.715 42.0534C192.715 42.9302 192.84 43.7292 193.093 44.4505C193.345 45.1717 193.7 45.7925 194.159 46.313C194.616 46.8335 195.178 47.2404 195.841 47.5322C196.505 47.8247 197.239 47.9702 198.043 47.9702C199.334 47.9702 200.395 47.6598 201.228 47.0389C202.059 46.4188 202.54 45.5965 202.673 44.5734V44.1354H199.446C198.773 44.1354 198.273 44.0303 197.945 43.8203C197.618 43.6102 197.455 43.2313 197.455 42.6836V42.5187C197.455 41.9344 197.618 41.5461 197.945 41.3547C198.273 41.1626 198.773 41.0669 199.446 41.0669H204.58C205.234 41.0669 205.688 41.2272 205.94 41.5461C206.192 41.8659 206.309 42.3459 206.291 42.9847V50.491C206.291 50.5454 206.155 50.6232 205.884 50.7236C205.612 50.824 205.29 50.8745 204.916 50.8745C204.673 50.8745 204.43 50.8426 204.186 50.7781C203.943 50.715 203.724 50.596 203.527 50.4225C203.331 50.249 203.163 50.0164 203.022 49.7239C202.883 49.4321 202.794 49.0571 202.756 48.6004Z" fill="#022920"/>
<path d="M112.344 47.0983C113.58 47.0983 114.45 46.911 114.956 46.5348C115.461 46.1595 115.714 45.5414 115.714 44.6799C115.714 43.8924 115.451 43.3157 114.928 42.949C114.404 42.5829 113.552 42.3996 112.372 42.3996H108.638V47.0983H112.344ZM112.12 39.8165C113.075 39.8165 113.795 39.6151 114.282 39.2117C114.768 38.809 115.012 38.2502 115.012 37.5354C115.012 36.8034 114.783 36.2579 114.324 35.9005C113.865 35.5438 113.131 35.3651 112.12 35.3651H108.638V39.8165H112.12ZM105.142 49.53C104.759 49.1367 104.568 48.5826 104.568 47.8677V34.5957C104.568 33.8808 104.759 33.3275 105.142 32.9334C105.526 32.5393 106.055 32.3419 106.729 32.3419H112.962C115.021 32.3419 116.588 32.7313 117.665 33.5101C118.741 34.289 119.279 35.4197 119.279 36.904C119.279 37.8928 119.003 38.6943 118.452 39.3084C117.899 39.9218 117.09 40.3752 116.023 40.6679C117.37 40.98 118.362 41.5201 118.999 42.2895C119.635 43.059 119.953 43.9845 119.953 45.0646C119.953 46.7869 119.373 48.0597 118.212 48.8846C117.052 49.7087 115.189 50.1207 112.626 50.1207H106.729C106.055 50.1207 105.526 49.9241 105.142 49.53Z" fill="#F3EDDE"/>
<path d="M135.68 48.3022V34.1604C135.68 32.9486 136.263 32.3419 137.428 32.3419H137.982C139.183 32.3419 139.783 32.9486 139.783 34.1604V48.3022C139.783 49.5148 139.183 50.1207 137.982 50.1207H137.428C136.263 50.1207 135.68 49.5148 135.68 48.3022Z" fill="#F3EDDE"/>
<path d="M156.195 48.3022V34.3231C156.195 33.6902 156.352 33.2014 156.669 32.8576C156.985 32.5138 157.422 32.3419 157.98 32.3419H158.482C159.021 32.3419 159.426 32.4321 159.696 32.6132C159.965 32.7944 160.257 33.0842 160.574 33.4813L168.386 43.9321V34.1604C168.386 32.9486 168.971 32.3419 170.143 32.3419H170.534C171.687 32.3419 172.264 32.9486 172.264 34.1604V48.1388C172.264 48.791 172.105 49.2843 171.789 49.6189C171.473 49.9535 171.045 50.1207 170.506 50.1207H170.171C169.893 50.1207 169.66 50.1022 169.474 50.0668C169.287 50.0298 169.126 49.9712 168.986 49.8902C168.847 49.8085 168.716 49.7091 168.595 49.5911C168.474 49.474 168.34 49.3244 168.191 49.1433L160.073 38.2862V48.3022C160.073 49.5148 159.477 50.1207 158.287 50.1207H157.896C156.762 50.1207 156.195 49.5148 156.195 48.3022Z" fill="#F3EDDE"/>
<path d="M202.235 47.9863C201.693 48.7568 200.95 49.3624 200.006 49.8023C199.062 50.2423 197.926 50.4626 196.599 50.4626C195.29 50.4626 194.104 50.2329 193.038 49.775C191.973 49.3163 191.066 48.6787 190.318 47.8629C189.57 47.0471 188.995 46.0789 188.594 44.9599C188.192 43.8409 187.991 42.6125 187.991 41.2731C187.991 39.9158 188.225 38.6687 188.692 37.5309C189.159 36.3939 189.813 35.4172 190.655 34.6006C191.496 33.7848 192.506 33.1471 193.683 32.6884C194.86 32.2297 196.16 32 197.581 32C198.702 32 199.697 32.1149 200.567 32.3438C201.436 32.5736 202.169 32.8768 202.768 33.2526C203.366 33.6285 203.82 34.0458 204.127 34.5045C204.436 34.9632 204.591 35.4218 204.591 35.8798C204.591 36.2838 204.482 36.6143 204.268 36.8706C204.053 37.1277 203.82 37.334 203.567 37.4895C203.314 37.6458 203.076 37.7466 202.851 37.7919C202.628 37.838 202.496 37.8427 202.46 37.806C201.936 37.0355 201.254 36.4533 200.412 36.0587C199.571 35.6649 198.692 35.4672 197.776 35.4672C196.973 35.4672 196.229 35.6094 195.548 35.8938C194.865 36.1783 194.276 36.5815 193.781 37.1042C193.286 37.627 192.897 38.2553 192.617 38.989C192.337 39.7228 192.197 40.53 192.197 41.4107C192.197 42.2913 192.323 43.0938 192.576 43.8182C192.828 44.5426 193.183 45.1662 193.641 45.6889C194.098 46.2117 194.66 46.6204 195.323 46.9134C195.986 47.2072 196.721 47.3534 197.524 47.3534C198.814 47.3534 199.875 47.0416 200.707 46.418C201.538 45.7952 202.019 44.9693 202.151 43.9417V43.5017H198.926C198.253 43.5017 197.753 43.3963 197.426 43.1853C197.099 42.9743 196.936 42.5937 196.936 42.0436V41.878C196.936 41.2911 197.099 40.9012 197.426 40.7089C197.753 40.5159 198.253 40.4198 198.926 40.4198H204.058C204.712 40.4198 205.166 40.5808 205.417 40.9012C205.67 41.2223 205.787 41.7045 205.768 42.346V49.8852C205.768 49.9399 205.632 50.018 205.361 50.1188C205.09 50.2196 204.768 50.2704 204.394 50.2704C204.151 50.2704 203.908 50.2384 203.664 50.1735C203.422 50.1102 203.203 49.9907 203.006 49.8164C202.81 49.6422 202.642 49.4085 202.501 49.1147C202.362 48.8217 202.272 48.445 202.235 47.9863Z" fill="#F3EDDE"/>
<path d="M230.231 46.8686C231.02 46.8686 231.733 46.7361 232.373 46.4712C233.012 46.2056 233.566 45.8261 234.036 45.3322C234.506 44.8382 234.868 44.2445 235.122 43.5488C235.376 42.8546 235.502 42.0864 235.502 41.245C235.502 40.4035 235.371 39.6353 235.107 38.9403C234.844 38.2454 234.483 37.6462 234.023 37.1437C233.561 36.6404 233.007 36.2516 232.359 35.9774C231.711 35.7031 230.991 35.566 230.202 35.566C229.413 35.566 228.698 35.6992 228.06 35.9633C227.42 36.229 226.871 36.6085 226.411 37.1024C225.949 37.5964 225.593 38.1908 225.339 38.885C225.085 39.5808 224.959 40.3575 224.959 41.2169C224.959 42.0584 225.085 42.8266 225.339 43.5215C225.593 44.2165 225.954 44.811 226.425 45.3049C226.894 45.7989 227.448 46.183 228.088 46.4572C228.727 46.7315 229.441 46.8686 230.231 46.8686ZM230.202 50.4626C228.83 50.4626 227.566 50.2383 226.411 49.7903C225.254 49.3423 224.262 48.7112 223.436 47.8978C222.608 47.0836 221.965 46.1097 221.505 44.9754C221.044 43.8417 220.814 42.5983 220.814 41.245C220.814 39.8916 221.049 38.6482 221.519 37.5138C221.988 36.3802 222.642 35.4063 223.478 34.5921C224.314 33.7787 225.306 33.143 226.453 32.6856C227.599 32.2283 228.858 32 230.231 32C231.621 32 232.89 32.2283 234.036 32.6856C235.183 33.143 236.169 33.7787 236.997 34.5921C237.823 35.4063 238.467 36.3755 238.928 37.4998C239.389 38.6248 239.618 39.8644 239.618 41.2169C239.618 42.571 239.389 43.8145 238.928 44.9481C238.467 46.0825 237.818 47.0564 236.983 47.8698C236.146 48.6839 235.154 49.3197 234.008 49.7762C232.862 50.2336 231.592 50.4626 230.202 50.4626Z" fill="#F3EDDE"/>
<path d="M112.344 47.0983C113.58 47.0983 114.45 46.911 114.956 46.5348C115.461 46.1595 115.714 45.5414 115.714 44.6799C115.714 43.8924 115.451 43.3157 114.928 42.949C114.404 42.5829 113.552 42.3996 112.372 42.3996H108.638V47.0983H112.344ZM112.12 39.8165C113.075 39.8165 113.795 39.6151 114.282 39.2117C114.768 38.809 115.012 38.2502 115.012 37.5354C115.012 36.8034 114.783 36.2579 114.324 35.9005C113.865 35.5438 113.131 35.3651 112.12 35.3651H108.638V39.8165H112.12ZM105.142 49.53C104.759 49.1367 104.568 48.5826 104.568 47.8677V34.5957C104.568 33.8808 104.759 33.3275 105.142 32.9334C105.526 32.5393 106.055 32.3419 106.729 32.3419H112.962C115.021 32.3419 116.588 32.7313 117.665 33.5101C118.741 34.289 119.279 35.4197 119.279 36.904C119.279 37.8928 119.003 38.6943 118.452 39.3084C117.899 39.9218 117.09 40.3752 116.023 40.6679C117.37 40.98 118.362 41.5201 118.999 42.2895C119.635 43.059 119.953 43.9845 119.953 45.0646C119.953 46.7869 119.373 48.0597 118.212 48.8846C117.052 49.7087 115.189 50.1207 112.626 50.1207H106.729C106.055 50.1207 105.526 49.9241 105.142 49.53Z" fill="#F3EDDE"/>
<defs>
<radialGradient id="paint0_radial" cx="0" cy="0" r="1" gradientUnits="userSpaceOnUse" gradientTransform="translate(166 107.5) rotate(90) scale(149 166)">
<stop stop-color="#597765"/>
<stop offset="1" stop-color="#253F31"/>
</radialGradient>
</defs>
</svg>
