<svg width="1080" height="1080" viewBox="0 0 1080 1080" fill="none" xmlns="http://www.w3.org/2000/svg">
<rect width="1080" height="1080" fill="#F41116"/>
<path fill-rule="evenodd" clip-rule="evenodd" d="M366.866 84.413C370.059 78.5269 372.691 71.8 373.755 66.0829C376.108 66.4193 378.629 66.5874 381.373 66.5874C384.51 66.5874 386.919 66.3635 389.047 66.0271C389.999 70.623 387.814 75.3317 382.045 75.3317C381.597 75.3317 381.149 75.2754 380.701 75.2193C379.525 78.246 378.18 80.9373 376.669 83.3474C383.558 85.2529 388.879 90.5225 388.879 99.2665C388.879 108.067 383.614 113 377.844 113C374.54 113 372.075 111.374 370.955 108.964C374.932 108.403 379.469 105.601 379.469 100.107C379.469 94.278 374.316 90.2983 366.866 89.9619V102.406C366.866 105.601 367.146 108.684 367.931 111.43H356.56C357.344 108.684 357.624 105.601 357.624 102.406V76.229C357.624 73.0342 357.232 70.0071 356 67.4283L366.866 65.6907V84.413ZM417.953 79.7041C425.571 79.7042 431.004 83.7965 431.004 90.5787V102.125C431.004 105.601 431.956 108.516 433.86 110.533C432.348 111.542 430.499 112.327 428.539 112.327C426.299 112.327 424.283 111.374 423.33 108.572C421.538 110.87 418.625 112.327 414.873 112.327C408.823 112.327 404.567 108.572 404.567 102.742C404.567 96.8002 408.991 93.7733 415.377 93.7733C418.289 93.7733 420.698 94.3905 422.378 95.6232V91.8111C422.378 88.7283 420.473 87.3277 417.897 87.3277C415.545 87.3277 413.64 88.5603 413.64 90.8028C413.64 91.3633 413.752 91.9793 413.92 92.4837C410.391 93.2126 406.19 91.4752 406.19 87.2711C406.19 82.3384 411.848 79.7041 417.953 79.7041ZM446.41 79.7041C450.219 79.7042 454.196 80.6015 456.716 82.563V91.5312C454.028 88.7843 449.771 87.1031 446.354 87.103C444.282 87.103 443.161 87.7198 443.161 88.8963C443.161 89.9615 444.057 90.354 446.13 90.8586L449.322 91.6436C453.972 92.8203 458.621 95.2315 458.621 101.509C458.621 108.235 453.299 112.327 446.074 112.327C439.632 112.327 434.199 109.02 434.199 104.087C434.199 99.771 438.512 98.2021 442.096 98.9301C441.872 99.4907 441.76 100.276 441.76 100.892C441.76 103.471 443.722 104.928 446.074 104.928C448.315 104.928 449.938 103.639 449.938 101.733C449.938 99.6589 448.09 98.6502 445.514 98.0335L442.209 97.2484C438.288 96.3513 434.647 93.8294 434.647 88.8405C434.647 83.7401 438.456 79.7041 446.41 79.7041ZM472.401 79.7041C476.21 79.7042 480.186 80.6015 482.707 82.563V91.5312C480.019 88.7843 475.762 87.1031 472.345 87.103C470.273 87.103 469.152 87.7198 469.152 88.8963C469.152 89.9615 470.049 90.354 472.121 90.8586L475.314 91.6436C479.963 92.8203 484.612 95.2315 484.612 101.509C484.612 108.235 479.291 112.327 472.065 112.327C465.624 112.327 460.191 109.02 460.191 104.087C460.191 99.771 464.503 98.2021 468.087 98.9301C467.864 99.4907 467.752 100.276 467.752 100.892C467.752 103.471 469.713 104.928 472.065 104.928C474.306 104.928 475.929 103.639 475.929 101.733C475.929 99.6589 474.081 98.6502 471.504 98.0335L468.2 97.2484C464.279 96.3513 460.639 93.8294 460.639 88.8405C460.639 83.7401 464.448 79.7041 472.401 79.7041ZM500.186 79.7041C508.083 79.7042 512.06 85.3651 512.396 93.661L495.984 99.3223C497.161 102.91 500.073 104.312 503.49 104.312C506.738 104.312 509.595 103.134 511.724 101.116C512.395 106.217 509.091 112.327 500.745 112.327C491.728 112.327 486.519 105.209 486.519 95.9596C486.519 87.2717 491.111 79.7041 500.186 79.7041ZM542.254 79.7041C552.391 79.7041 556.536 86.9351 556.536 96.0154C556.536 105.096 552.391 112.327 542.254 112.327C532.059 112.327 527.971 105.096 527.971 96.0154C527.971 86.9351 532.059 79.7041 542.254 79.7041ZM583.858 71.3521C585.145 71.3521 586.322 71.6323 587.498 72.0248C586.993 74.7712 586.826 77.6302 586.826 80.6015C588.954 80.6015 591.139 80.3208 593.043 79.7041C593.379 80.9929 593.491 82.0582 593.491 82.9552C593.491 86.7669 591.698 88.5041 588.393 88.5041H586.826V102.125C586.826 105.657 587.777 108.516 589.682 110.533C588.057 111.598 586.098 112.327 584.192 112.327C581.112 112.327 578.199 110.421 578.199 104.255V88.5041H570.862V102.125C570.862 105.657 571.815 108.516 573.719 110.533C572.095 111.598 570.134 112.327 568.174 112.327C565.149 112.327 562.236 110.421 562.236 104.255V88.5041C561.228 88.5042 559.379 88.6163 558.259 89.0087C557.811 87.6639 557.643 86.4866 557.643 85.3655C557.643 82.1706 559.492 80.6016 562.46 80.6015C562.46 78.8075 561.956 77.2938 561.956 76.0044C561.956 73.4263 564.309 71.3521 567.893 71.3521C569.182 71.3521 570.358 71.6323 571.534 72.0248C571.03 74.7712 570.862 77.6302 570.862 80.6015H578.423C578.423 78.8075 577.919 77.2938 577.919 76.0044C577.919 73.4263 580.273 71.3521 583.858 71.3521ZM607.457 79.7041C615.354 79.7041 619.331 85.3651 619.667 93.661L603.257 99.3223C604.433 102.91 607.345 104.312 610.762 104.312C614.01 104.312 616.867 103.134 618.996 101.116C619.667 106.217 616.363 112.327 608.018 112.327C598.999 112.327 593.791 105.209 593.791 95.9596C593.791 87.2718 598.383 79.7042 607.457 79.7041ZM673.893 79.7041C681.791 79.7042 685.768 85.3651 686.104 93.661L669.692 99.3223C670.869 102.91 673.781 104.312 677.197 104.312C680.446 104.312 683.303 103.134 685.431 101.116C686.103 106.217 682.799 112.327 674.453 112.327C665.435 112.327 660.226 105.209 660.226 95.9596C660.226 87.2717 664.819 79.7041 673.893 79.7041ZM697.46 71.3521C698.748 71.3521 699.925 71.6323 701.101 72.0248C700.597 74.7712 700.428 77.6302 700.428 80.6015C702.557 80.6015 704.741 80.3208 706.646 79.7041C706.982 80.9929 707.093 82.0582 707.093 82.9552C707.093 86.7669 705.302 88.5041 701.997 88.5041H700.428V102.125C700.428 105.657 701.381 108.516 703.284 110.533C701.661 111.598 699.7 112.327 697.74 112.327C694.715 112.327 691.803 110.421 691.803 104.255V88.5041C690.795 88.5041 688.945 88.6162 687.826 89.0087C687.378 87.6639 687.21 86.4866 687.21 85.3655C687.21 82.1705 689.058 80.6015 692.027 80.6015C692.027 78.8075 691.523 77.2938 691.523 76.0044C691.523 73.4263 693.875 71.3522 697.46 71.3521ZM656.976 102.406C656.976 105.545 657.256 108.74 657.984 111.431H647.286C648.014 108.74 648.294 105.545 648.294 102.406V90.3548C648.294 87.1598 647.846 84.0769 646.67 81.554L656.976 79.7041V102.406ZM401.765 102.406C401.765 105.545 402.045 108.74 402.773 111.43H392.13C392.859 108.74 393.139 105.545 393.139 102.406V73.9304C393.139 70.7355 392.691 68.045 391.515 65.6349C394.931 65.0182 398.684 64.0652 401.765 63V102.406ZM524.721 102.406C524.721 105.545 525.001 108.74 525.728 111.43H515.086C515.815 108.74 516.094 105.545 516.094 102.406V73.9304C516.094 70.7355 515.646 68.045 514.47 65.6349C517.887 65.0182 521.64 64.0652 524.721 63V102.406ZM638.602 79.7041C642.355 79.7042 645.547 82.1143 645.547 86.7108C645.547 91.1952 642.579 93.3247 638.322 93.3247C639.33 89.5131 637.986 87.664 635.914 87.664C632.833 87.6642 632.217 91.4197 632.217 97.1368V102.406C632.217 105.545 632.61 108.74 633.729 111.43H622.526C623.254 108.74 623.535 105.545 623.535 102.406V90.3541C623.535 87.1592 623.087 84.0762 621.911 81.5533L631.432 79.8165V84.5245C633.001 81.3857 635.41 79.7041 638.602 79.7041ZM417.897 98.986C415.153 98.986 413.248 100.219 413.248 102.294C413.248 104.311 415.153 105.601 417.897 105.601C420.641 105.601 422.658 104.311 422.658 102.294C422.658 100.219 420.641 98.986 417.897 98.986ZM542.254 87.7199C538.837 87.7199 536.931 90.8588 536.931 96.0154C536.931 101.172 538.837 104.312 542.254 104.312C545.67 104.312 547.63 101.172 547.63 96.0154C547.63 90.8588 545.67 87.7199 542.254 87.7199ZM500.353 87.1595C497.273 87.1595 495.704 90.018 495.424 93.8856L504.386 90.8028C504.05 88.8967 502.762 87.1596 500.353 87.1595ZM607.625 87.1595C604.544 87.1596 602.976 90.0181 602.696 93.8856L611.658 90.8028C611.322 88.8966 610.034 87.1595 607.625 87.1595ZM674.061 87.1595C670.981 87.1595 669.412 90.018 669.132 93.8856L678.094 90.8028C677.758 88.8967 676.469 87.1596 674.061 87.1595ZM718.806 65.7473C722.382 65.7473 724.999 68.406 725 71.894C725 75.3819 722.382 78.0938 718.806 78.0938C715.188 78.0938 712.571 75.3556 712.571 71.894C712.571 68.4324 715.226 65.7473 718.806 65.7473ZM718.806 66.9323C715.953 66.9323 713.928 68.9983 713.928 71.894C713.928 74.8291 716.006 76.9088 718.806 76.9088C721.607 76.9088 723.658 74.8028 723.658 71.894C723.658 68.9853 721.66 66.9323 718.806 66.9323ZM652.327 65.7473C656.192 65.7474 657.816 68.2696 657.816 70.6235C657.816 73.0342 656.192 75.5563 652.327 75.5563C648.463 75.5563 646.837 73.0343 646.837 70.6235C646.837 68.2695 648.462 65.7473 652.327 65.7473ZM719.455 68.6472C720.657 68.6473 721.448 69.3888 721.448 70.3989C721.447 71.2425 720.913 71.8181 720.03 72.0099C720.772 72.1761 721.102 72.7256 721.296 73.5694L721.615 74.9373H720.224L720.03 73.7616C719.888 72.8283 719.773 72.6105 718.743 72.6105H717.754V74.9373H716.468V68.6472H719.455ZM717.754 69.6958V71.5619H718.817C719.685 71.5619 720.161 71.2168 720.161 70.5777C720.161 69.9385 719.658 69.6958 718.817 69.6958H717.754Z" fill="#FFF0D3"/>
<path d="M107.8 308H58.9C60.3 303.1 60.8 297.6 60.8 291.9V244.1C60.8 238.4 60.3 232.9 58.9 228H106.4V247C101.5 244.8 96 244 90.3 244H78.4V259.5H85.7C91.4 259.5 96.9 258.7 101.8 256.5V276.5C96.9 275.1 91.4 274.6 85.7 274.6H78.4V292H91.7C97.4 292 102.9 291.2 107.8 289V308ZM130.371 309.6C124.771 309.6 119.171 306.4 119.171 295.3V268.1C117.471 268.1 114.071 268.3 112.171 269C111.371 266.5 110.971 264.2 110.971 262.1C110.971 256.1 114.271 253 119.571 253C119.571 249.8 118.671 247.3 118.671 245.1C118.671 240.3 123.171 236.5 129.971 236.5C132.471 236.5 134.771 237 136.871 237.7C135.971 242.5 135.671 247.5 135.671 253C139.471 253 143.471 252.5 146.771 251.4C147.371 253.8 147.571 255.9 147.571 257.6C147.571 264.8 144.171 268.1 138.071 268.1H135.671V291.3C135.671 297.5 137.271 302.6 140.771 306.3C137.671 308.3 133.971 309.6 130.371 309.6ZM189.281 309.6C178.181 309.6 170.781 302.8 170.781 292.5C170.781 282 178.481 276.7 190.081 276.7C195.181 276.7 199.281 277.8 202.181 279.7V273.3C202.181 268.2 198.981 265.9 194.881 265.9C191.081 265.9 187.781 267.9 187.781 271.6C187.781 272.5 187.981 273.6 188.281 274.5C181.581 275.9 173.781 272.7 173.781 264.9C173.781 255.9 184.081 251.4 194.881 251.4C201.681 251.4 207.681 253.3 211.781 256.4C215.581 253.3 220.681 251.4 226.781 251.4C241.281 251.4 248.281 261.6 248.881 276.8L220.181 286.5C222.381 292.3 227.181 294.3 232.981 294.3C238.581 294.3 243.681 292.4 247.581 288.9C248.981 298.2 243.181 309.6 227.681 309.6C218.781 309.6 212.081 305.9 207.681 299.8C204.481 305.6 197.781 309.6 189.281 309.6ZM194.981 296.9C199.481 296.9 202.781 294.9 202.781 291.6C202.781 288.3 199.481 286.4 194.981 286.4C190.481 286.4 187.281 288.3 187.281 291.6C187.281 294.9 190.481 296.9 194.981 296.9ZM219.081 276.5L233.681 271.5C233.181 268.6 231.081 265.6 227.081 265.6C221.981 265.6 219.481 270.4 219.081 276.5ZM254.589 308C255.989 303.1 256.489 297.6 256.489 291.9V245.7C256.489 240 255.689 234.6 253.489 230L272.989 226.4V291.9C272.989 297.6 273.489 303.1 274.889 308H254.589ZM301.745 309.6C287.745 309.6 280.545 296.5 280.545 280.5C280.545 264.5 287.745 251.4 301.745 251.4C306.945 251.4 311.345 253.1 314.545 256.9V245.7C314.545 240 313.745 234.6 311.545 230L331.045 226.4V291.3C331.045 297.5 332.645 302.6 336.145 306.3C333.245 308.2 329.845 309.6 326.145 309.6C321.745 309.6 317.645 307.5 316.145 301.9C312.945 307.1 307.845 309.6 301.745 309.6ZM306.245 294.3C311.745 294.3 314.745 289 314.745 280.5C314.745 272 311.745 266.7 306.245 266.7C300.645 266.7 297.545 272 297.545 280.5C297.545 289 300.645 294.3 306.245 294.3ZM340.436 308C341.836 303.1 342.336 297.6 342.336 291.9V270.5C342.336 264.8 341.536 259.4 339.336 254.8L357.236 251.6V260.1C360.036 254.4 364.436 251.4 370.136 251.4C376.836 251.4 382.736 255.7 382.736 264.2C382.736 272.5 377.236 276.6 369.136 276.6C370.936 269.7 368.536 266.6 364.936 266.6C359.636 266.6 358.836 273.1 358.836 283.3V291.9C358.836 297.6 359.636 303.1 361.736 308H340.436ZM410.83 309.6C394.43 309.6 385.33 296.7 385.33 280.4C385.33 265.1 393.23 251.4 409.93 251.4C424.43 251.4 431.43 261.6 432.03 276.8L403.33 286.5C405.53 292.3 410.33 294.3 416.13 294.3C421.73 294.3 426.83 292.4 430.73 288.9C432.13 298.2 426.33 309.6 410.83 309.6ZM402.23 276.5L416.83 271.5C416.33 268.6 414.23 265.6 410.23 265.6C405.13 265.6 402.63 270.4 402.23 276.5ZM475.414 309.6C464.314 309.6 456.914 302.8 456.914 292.5C456.914 282 464.614 276.7 476.214 276.7C481.314 276.7 485.414 277.8 488.314 279.7V273.3C488.314 268.2 485.114 265.9 481.014 265.9C477.214 265.9 473.914 267.9 473.914 271.6C473.914 272.5 474.114 273.6 474.414 274.5C467.714 275.9 459.914 272.7 459.914 264.9C459.914 255.9 470.214 251.4 481.014 251.4C487.814 251.4 493.814 253.3 497.914 256.4C501.714 253.3 506.814 251.4 512.914 251.4C527.414 251.4 534.414 261.6 535.014 276.8L506.314 286.5C508.514 292.3 513.314 294.3 519.114 294.3C524.714 294.3 529.814 292.4 533.714 288.9C535.114 298.2 529.314 309.6 513.814 309.6C504.914 309.6 498.214 305.9 493.814 299.8C490.614 305.6 483.914 309.6 475.414 309.6ZM481.114 296.9C485.614 296.9 488.914 294.9 488.914 291.6C488.914 288.3 485.614 286.4 481.114 286.4C476.614 286.4 473.414 288.3 473.414 291.6C473.414 294.9 476.614 296.9 481.114 296.9ZM505.214 276.5L519.814 271.5C519.314 268.6 517.214 265.6 513.214 265.6C508.114 265.6 505.614 270.4 505.214 276.5ZM575.81 329.6C576.21 323.6 570.41 321.6 563.61 320L556.01 318.3C548.91 316.6 542.71 314 542.71 306.8C542.71 302.1 545.31 298.7 550.51 296.7C543.51 292.2 540.61 284.1 540.61 275.9C540.61 264.5 546.21 253.3 560.51 251.6C559.71 248.1 558.91 243.4 558.91 239.5C558.91 229.8 564.21 226.4 569.11 226.4C573.91 226.4 578.01 229.7 578.01 235.1C578.01 242.8 569.81 244 569.31 251.8C582.91 253.9 588.21 264.8 588.21 275.9C588.21 288.3 581.61 300.4 564.41 300.4C561.51 300.4 559.11 300.8 559.11 302.9C559.11 304.5 560.51 305.4 564.41 305.9L576.31 307.2C584.51 308.1 590.81 311.4 590.81 318.2C590.81 326.9 580.71 329.5 575.81 329.6ZM564.41 285.6C569.31 285.6 572.01 281.3 572.01 275.9C572.01 270.5 569.31 266.2 564.41 266.2C559.51 266.2 556.81 270.5 556.81 275.9C556.81 281.3 559.51 285.6 564.41 285.6ZM610.742 309.6C605.142 309.6 599.542 306.4 599.542 295.3V268.1C597.842 268.1 594.442 268.3 592.542 269C591.742 266.5 591.342 264.2 591.342 262.1C591.342 256.1 594.642 253 599.942 253C599.942 249.8 599.042 247.3 599.042 245.1C599.042 240.3 603.542 236.5 610.342 236.5C612.842 236.5 615.142 237 617.242 237.7C616.342 242.5 616.042 247.5 616.042 253C619.842 253 623.842 252.5 627.142 251.4C627.742 253.8 627.942 255.9 627.942 257.6C627.942 264.8 624.542 268.1 618.442 268.1H616.042V291.3C616.042 297.5 617.642 302.6 621.142 306.3C618.042 308.3 614.342 309.6 610.742 309.6ZM654.677 309.6C638.277 309.6 629.177 296.7 629.177 280.4C629.177 265.1 637.077 251.4 653.777 251.4C668.277 251.4 675.277 261.6 675.877 276.8L647.177 286.5C649.377 292.3 654.177 294.3 659.977 294.3C665.577 294.3 670.677 292.4 674.577 288.9C675.977 298.2 670.177 309.6 654.677 309.6ZM646.077 276.5L660.677 271.5C660.177 268.6 658.077 265.6 654.077 265.6C648.977 265.6 646.477 270.4 646.077 276.5ZM681.842 328C683.242 323.1 683.742 317.6 683.742 311.9V270.5C683.742 264.8 682.942 259.4 680.742 254.8L698.642 251.6V259.2C701.842 253.9 706.942 251.4 713.042 251.4C727.042 251.4 734.242 264.5 734.242 280.5C734.242 296.5 727.042 309.6 713.042 309.6C707.842 309.6 703.442 307.9 700.242 304.1V311.9C700.242 317.6 701.042 323.1 703.142 328H681.842ZM708.542 294.3C714.142 294.3 717.242 289 717.242 280.5C717.242 272 714.142 266.7 708.542 266.7C703.042 266.7 700.042 272 700.042 280.5C700.042 289 703.042 294.3 708.542 294.3ZM757.541 309.6C746.541 309.6 739.141 302.8 739.141 292.5C739.141 282 746.841 276.7 758.441 276.7C763.541 276.7 767.641 277.8 770.541 279.7V273.3C770.541 268.2 767.441 265.9 763.241 265.9C759.441 265.9 756.141 267.8 756.141 271.6C756.141 272.5 756.341 273.6 756.641 274.5C749.941 275.9 742.141 272.7 742.141 264.9C742.141 255.9 752.441 251.4 763.341 251.4C777.341 251.4 787.041 259 787.041 270.9V291.3C787.041 297.5 788.641 302.6 792.141 306.3C789.241 308.2 785.841 309.6 782.141 309.6C778.041 309.6 774.341 308 772.541 303.1C769.341 307.1 764.241 309.6 757.541 309.6ZM763.341 296.9C767.841 296.9 771.141 294.9 771.141 291.6C771.141 288.3 767.841 286.4 763.341 286.4C758.841 286.4 755.641 288.3 755.641 291.6C755.641 294.9 758.841 296.9 763.341 296.9ZM796.198 308C797.598 303.1 798.098 297.6 798.098 291.9V270.5C798.098 264.8 797.298 259.4 795.098 254.8L812.998 251.6V260.1C815.798 254.4 820.198 251.4 825.898 251.4C832.598 251.4 838.498 255.7 838.498 264.2C838.498 272.5 832.998 276.6 824.898 276.6C826.698 269.7 824.298 266.6 820.698 266.6C815.398 266.6 814.598 273.1 814.598 283.3V291.9C814.598 297.6 815.398 303.1 817.498 308H796.198ZM73 420L61.3 380.7C59.7 375.2 57.7 369.9 55.3 365H77.1C76 368.9 76.4 373.2 77.5 377.6L83.6 400.5L90.2 377.6C91.4 373.2 91.9 368.9 90.8 365H111.5C109.1 369.9 107.1 375.2 105.3 380.6L92.6 420H73ZM115.436 420C116.836 415.1 117.336 409.6 117.336 403.9V382.5C117.336 376.8 116.536 371.4 114.336 366.8L133.836 363.4V403.9C133.836 409.6 134.336 415.1 135.736 420H115.436ZM125.036 356.8C117.736 356.8 114.736 352 114.736 347.6C114.736 343.2 117.736 338.4 125.036 338.4C132.336 338.4 135.336 343.2 135.336 347.6C135.336 352 132.336 356.8 125.036 356.8ZM142.682 420C144.082 415.1 144.582 409.6 144.582 403.9V382.5C144.582 376.8 143.782 371.4 141.582 366.8L159.482 363.6V371.6C162.282 366.2 166.982 363.4 173.782 363.4C186.482 363.4 190.582 373.4 190.582 385.2V403.9C190.582 409.6 191.082 415.1 192.482 420H172.182C173.582 415.1 174.082 409.6 174.082 403.9V386.7C174.082 381.7 172.482 378.6 168.682 378.6C163.182 378.6 161.082 385.1 161.082 393.3V403.9C161.082 409.6 161.582 415.1 162.982 420H142.682ZM219.127 421.6C205.127 421.6 197.927 408.5 197.927 392.5C197.927 376.5 205.127 363.4 219.127 363.4C224.327 363.4 228.727 365.1 231.927 368.9V357.7C231.927 352 231.127 346.6 228.927 342L248.427 338.4V403.3C248.427 409.5 250.027 414.6 253.527 418.3C250.627 420.2 247.227 421.6 243.527 421.6C239.127 421.6 235.027 419.5 233.527 413.9C230.327 419.1 225.227 421.6 219.127 421.6ZM223.627 406.3C229.127 406.3 232.127 401 232.127 392.5C232.127 384 229.127 378.7 223.627 378.7C218.027 378.7 214.927 384 214.927 392.5C214.927 401 218.027 406.3 223.627 406.3ZM282.119 421.6C265.719 421.6 256.619 408.7 256.619 392.4C256.619 377.1 264.519 363.4 281.219 363.4C295.719 363.4 302.719 373.6 303.319 388.8L274.619 398.5C276.819 404.3 281.619 406.3 287.419 406.3C293.019 406.3 298.119 404.4 302.019 400.9C303.419 410.2 297.619 421.6 282.119 421.6ZM273.519 388.5L288.119 383.5C287.619 380.6 285.519 377.6 281.519 377.6C276.419 377.6 273.919 382.4 273.519 388.5ZM309.284 420C310.684 415.1 311.184 409.6 311.184 403.9V382.5C311.184 376.8 310.384 371.4 308.184 366.8L326.084 363.6V372.1C328.884 366.4 333.284 363.4 338.984 363.4C345.684 363.4 351.584 367.7 351.584 376.2C351.584 384.5 346.084 388.6 337.984 388.6C339.784 381.7 337.384 378.6 333.784 378.6C328.484 378.6 327.684 385.1 327.684 395.3V403.9C327.684 409.6 328.484 415.1 330.584 420H309.284ZM401.685 421.6C384.685 421.6 375.085 411.2 375.085 396.9C375.085 388.1 378.885 380.8 386.185 377.3C379.785 374.1 376.885 367.7 376.885 359.9C376.885 347.9 385.085 338.4 401.685 338.4C418.285 338.4 426.485 347.9 426.485 359.9C426.485 367.7 423.585 374.1 417.185 377.3C424.485 380.8 428.285 388.1 428.285 396.9C428.285 411.2 418.685 421.6 401.685 421.6ZM401.685 405.2C406.785 405.2 409.685 400.7 409.685 394C409.685 387.3 406.885 382.7 401.685 382.7C396.485 382.7 393.685 387.3 393.685 394C393.685 400.7 396.585 405.2 401.685 405.2ZM401.685 371.1C405.985 371.1 408.185 367.6 408.185 362.9C408.185 358.4 405.985 354.8 401.685 354.8C397.385 354.8 395.185 358.4 395.185 362.9C395.185 367.6 397.385 371.1 401.685 371.1ZM457.274 421.6C441.974 421.6 433.474 411.7 433.474 401.6C433.474 392.4 440.474 388 447.474 388C448.974 388 450.274 388.2 451.474 388.5C450.774 389.9 450.074 392.3 450.074 395.4C450.074 401.4 452.474 405.6 457.274 405.6C461.974 405.6 465.074 401.6 465.074 394.3C465.074 384.9 459.274 381.6 450.974 381.6C446.674 381.6 441.874 382.5 437.674 384.4L442.474 338.5C446.874 339.6 453.274 340.9 461.374 340.9C468.374 340.9 473.974 339.9 477.874 338.4C478.274 340 478.574 341.9 478.574 344C478.574 350.4 475.674 357.7 465.674 357.7C463.374 357.7 460.474 357.3 456.974 356.1L456.074 366.1C472.674 366.1 482.874 376.4 482.874 393.7C482.874 411.2 472.674 421.6 457.274 421.6ZM515.964 421.6C497.564 421.6 488.964 406.6 488.964 380C488.964 353.4 497.564 338.4 515.964 338.4C534.364 338.4 542.964 353.4 542.964 380C542.964 406.6 534.364 421.6 515.964 421.6ZM515.964 405.2C521.964 405.2 524.964 396.9 524.964 380C524.964 363.1 521.964 354.8 515.964 354.8C509.964 354.8 506.964 363.1 506.964 380C506.964 396.9 509.964 405.2 515.964 405.2ZM559.544 421.6C553.244 421.6 548.544 416.7 548.544 410.6C548.544 404.5 553.244 399.6 559.544 399.6C565.844 399.6 570.544 404.5 570.544 410.6C570.544 416.7 565.844 421.6 559.544 421.6ZM603.073 421.6C584.673 421.6 576.073 406.6 576.073 380C576.073 353.4 584.673 338.4 603.073 338.4C621.473 338.4 630.073 353.4 630.073 380C630.073 406.6 621.473 421.6 603.073 421.6ZM603.073 405.2C609.073 405.2 612.073 396.9 612.073 380C612.073 363.1 609.073 354.8 603.073 354.8C597.073 354.8 594.073 363.1 594.073 380C594.073 396.9 597.073 405.2 603.073 405.2ZM658.841 421.6C643.541 421.6 635.041 411.7 635.041 401.6C635.041 392.4 642.041 388 649.041 388C650.541 388 651.841 388.2 653.041 388.5C652.341 389.9 651.641 392.3 651.641 395.4C651.641 401.4 654.041 405.6 658.941 405.6C663.541 405.6 666.741 401.8 666.741 393.7C666.741 384.8 662.941 378.6 651.241 378.6C649.741 378.6 647.941 378.7 646.141 379L658.341 356H650.141C645.541 356 641.141 356.6 637.241 358.5V340H685.541L670.541 368.9C679.141 373 684.541 381.5 684.541 394C684.541 411.3 674.241 421.6 658.841 421.6ZM718.601 421.6C700.201 421.6 691.601 406.6 691.601 380C691.601 353.4 700.201 338.4 718.601 338.4C737.001 338.4 745.601 353.4 745.601 380C745.601 406.6 737.001 421.6 718.601 421.6ZM718.601 405.2C724.601 405.2 727.601 396.9 727.601 380C727.601 363.1 724.601 354.8 718.601 354.8C712.601 354.8 709.601 363.1 709.601 380C709.601 396.9 712.601 405.2 718.601 405.2ZM772.265 420C773.665 415.1 774.165 409.6 774.165 403.9V357.7C774.165 352 773.365 346.6 771.165 342L790.665 338.4V367.8C794.865 364.6 799.765 363.4 804.665 363.4C816.865 363.4 822.765 371.7 822.765 381.7C822.765 389.1 819.665 394.4 813.165 397.4C816.065 405.2 820.165 412.6 825.665 420H806.165C802.765 414.1 800.265 407.8 798.965 401.6H790.665V403.9C790.665 409.6 791.165 415.1 792.565 420H772.265ZM790.665 390.9H797.865C802.765 390.9 805.765 388.2 805.765 384.1C805.765 380.6 803.565 377.8 799.465 377.8C794.765 377.8 790.665 381.5 790.665 389V390.9ZM831.159 420C832.559 415.1 833.059 409.6 833.059 403.9V382.5C833.059 376.8 832.259 371.4 830.059 366.8L847.959 363.6V372.1C850.759 366.4 855.159 363.4 860.859 363.4C867.559 363.4 873.459 367.7 873.459 376.2C873.459 384.5 867.959 388.6 859.859 388.6C861.659 381.7 859.259 378.6 855.659 378.6C850.359 378.6 849.559 385.1 849.559 395.3V403.9C849.559 409.6 850.359 415.1 852.459 420H831.159ZM878.88 421.6C872.58 421.6 867.88 416.7 867.88 410.6C867.88 404.5 872.58 399.6 878.88 399.6C885.18 399.6 889.88 404.5 889.88 410.6C889.88 416.7 885.18 421.6 878.88 421.6ZM58.6 532C60 527.1 60.5 521.6 60.5 515.9V494.5C60.5 488.8 59.7 483.4 57.5 478.8L77 475.4V515.9C77 521.6 77.5 527.1 78.9 532H58.6ZM68.2 468.8C60.9 468.8 57.9 464 57.9 459.6C57.9 455.2 60.9 450.4 68.2 450.4C75.5 450.4 78.5 455.2 78.5 459.6C78.5 464 75.5 468.8 68.2 468.8ZM106.166 532C107.566 527.1 108.066 521.6 108.066 515.9V468.1C108.066 462.4 107.566 456.9 106.166 452H127.566C126.166 456.9 125.666 462.4 125.666 468.1V484.2C132.966 475.1 139.866 463.2 141.566 452H161.566C157.866 463.6 152.866 472.3 143.466 482.7C154.066 484.9 158.666 494.1 159.666 505.1L160.766 516.7C161.366 523.2 163.366 527.8 166.866 532H146.066C143.966 527.4 143.266 523.3 142.966 519.1L142.166 505.8C141.766 499.5 138.866 496.4 134.066 496.4C129.266 496.4 125.666 499.5 125.666 505.9V515.9C125.666 521.6 126.366 527.1 128.166 532H106.166ZM171.679 532C173.079 527.1 173.579 521.6 173.579 515.9V469.7C173.579 464 172.779 458.6 170.579 454L190.079 450.4V515.9C190.079 521.6 190.579 527.1 191.979 532H171.679ZM216.134 533.6C205.134 533.6 197.734 526.8 197.734 516.5C197.734 506 205.434 500.7 217.034 500.7C222.134 500.7 226.234 501.8 229.134 503.7V497.3C229.134 492.2 226.034 489.9 221.834 489.9C218.034 489.9 214.734 491.8 214.734 495.6C214.734 496.5 214.934 497.6 215.234 498.5C208.534 499.9 200.734 496.7 200.734 488.9C200.734 479.9 211.034 475.4 221.934 475.4C235.934 475.4 245.634 483 245.634 494.9V515.3C245.634 521.5 247.234 526.6 250.734 530.3C247.834 532.2 244.434 533.6 240.734 533.6C236.634 533.6 232.934 532 231.134 527.1C227.934 531.1 222.834 533.6 216.134 533.6ZM221.934 520.9C226.434 520.9 229.734 518.9 229.734 515.6C229.734 512.3 226.434 510.4 221.934 510.4C217.434 510.4 214.234 512.3 214.234 515.6C214.234 518.9 217.434 520.9 221.934 520.9ZM274.891 533.6C263.491 533.6 253.591 528 253.591 519.1C253.591 511.2 261.591 508.3 268.391 509.7C267.991 510.7 267.791 512 267.791 513C267.791 517.1 270.991 519.6 274.891 519.6C278.491 519.6 281.091 517.5 281.091 514.5C281.091 511.1 277.891 509.4 273.591 508.4L267.791 507.1C260.591 505.5 254.291 501 254.291 492C254.291 482.9 260.791 475.4 275.591 475.4C282.291 475.4 289.491 476.9 293.991 480.3V497.1C289.191 492.3 281.491 489.5 275.491 489.5C272.191 489.5 270.491 490.3 270.491 492.1C270.491 493.8 271.991 494.4 275.491 495.2L280.891 496.5C288.991 498.5 297.591 502.7 297.591 514.1C297.591 525.9 288.091 533.6 274.891 533.6ZM323.72 533.6C312.32 533.6 302.42 528 302.42 519.1C302.42 511.2 310.42 508.3 317.22 509.7C316.82 510.7 316.62 512 316.62 513C316.62 517.1 319.82 519.6 323.72 519.6C327.32 519.6 329.92 517.5 329.92 514.5C329.92 511.1 326.72 509.4 322.42 508.4L316.62 507.1C309.42 505.5 303.12 501 303.12 492C303.12 482.9 309.62 475.4 324.42 475.4C331.12 475.4 338.32 476.9 342.82 480.3V497.1C338.02 492.3 330.32 489.5 324.32 489.5C321.02 489.5 319.32 490.3 319.32 492.1C319.32 493.8 320.82 494.4 324.32 495.2L329.72 496.5C337.82 498.5 346.42 502.7 346.42 514.1C346.42 525.9 336.92 533.6 323.72 533.6ZM376.748 533.6C360.348 533.6 351.248 520.7 351.248 504.4C351.248 489.1 359.148 475.4 375.848 475.4C390.348 475.4 397.348 485.6 397.948 500.8L369.248 510.5C371.448 516.3 376.248 518.3 382.048 518.3C387.648 518.3 392.748 516.4 396.648 512.9C398.048 522.2 392.248 533.6 376.748 533.6ZM368.148 500.5L382.748 495.5C382.248 492.6 380.148 489.6 376.148 489.6C371.048 489.6 368.548 494.4 368.148 500.5ZM403.612 532C405.013 527.1 405.513 521.6 405.513 515.9V469.7C405.513 464 404.713 458.6 402.513 454L422.013 450.4V515.9C422.013 521.6 422.513 527.1 423.913 532H403.612ZM455.368 533.6C436.768 533.6 429.568 520.5 429.568 504.5C429.568 488.5 436.768 475.4 455.368 475.4C473.968 475.4 481.168 488.5 481.168 504.5C481.168 520.5 473.968 533.6 455.368 533.6ZM455.368 518.3C461.068 518.3 464.168 513 464.168 504.5C464.168 496 461.068 490.7 455.368 490.7C449.668 490.7 446.568 496 446.568 504.5C446.568 513 449.668 518.3 455.368 518.3ZM503.613 533.6C498.013 533.6 492.413 530.4 492.413 519.3V492.1C490.713 492.1 487.313 492.3 485.413 493C484.613 490.5 484.213 488.2 484.213 486.1C484.213 480.1 487.513 477 492.813 477C492.813 473.8 491.913 471.3 491.913 469.1C491.913 464.3 496.413 460.5 503.213 460.5C505.713 460.5 508.013 461 510.113 461.7C509.213 466.5 508.913 471.5 508.913 477H521.713C521.713 473.8 520.813 471.3 520.813 469.1C520.813 464.3 525.313 460.5 532.113 460.5C534.613 460.5 536.913 461 539.013 461.7C538.113 466.5 537.813 471.5 537.813 477C541.613 477 545.613 476.5 548.913 475.4C549.513 477.8 549.713 479.9 549.713 481.6C549.713 488.8 546.313 492.1 540.213 492.1H537.813V515.3C537.813 521.5 539.413 526.6 542.913 530.3C539.813 532.3 536.113 533.6 532.513 533.6C526.913 533.6 521.313 530.4 521.313 519.3V492.1H508.913V515.3C508.913 521.5 510.513 526.6 514.013 530.3C510.913 532.3 507.213 533.6 503.613 533.6ZM576.455 533.6C560.055 533.6 550.955 520.7 550.955 504.4C550.955 489.1 558.855 475.4 575.555 475.4C590.055 475.4 597.055 485.6 597.655 500.8L568.955 510.5C571.155 516.3 575.955 518.3 581.755 518.3C587.355 518.3 592.455 516.4 596.355 512.9C597.755 522.2 591.955 533.6 576.455 533.6ZM567.855 500.5L582.455 495.5C581.955 492.6 579.855 489.6 575.855 489.6C570.755 489.6 568.255 494.4 567.855 500.5ZM603.62 532C605.02 527.1 605.52 521.6 605.52 515.9V494.5C605.52 488.8 604.72 483.4 602.52 478.8L620.42 475.6V484.1C623.22 478.4 627.62 475.4 633.32 475.4C640.02 475.4 645.92 479.7 645.92 488.2C645.92 496.5 640.42 500.6 632.32 500.6C634.12 493.7 631.72 490.6 628.12 490.6C622.82 490.6 622.02 497.1 622.02 507.3V515.9C622.02 521.6 622.82 527.1 624.92 532H603.62ZM650.202 532C651.602 527.1 652.102 521.6 652.102 515.9V494.5C652.102 488.8 651.302 483.4 649.102 478.8L668.602 475.4V515.9C668.602 521.6 669.102 527.1 670.502 532H650.202ZM659.802 468.8C652.502 468.8 649.502 464 649.502 459.6C649.502 455.2 652.502 450.4 659.802 450.4C667.102 450.4 670.102 455.2 670.102 459.6C670.102 464 667.102 468.8 659.802 468.8ZM701.748 533.6C685.348 533.6 676.248 520.7 676.248 504.4C676.248 489.1 684.148 475.4 700.848 475.4C715.348 475.4 722.348 485.6 722.948 500.8L694.248 510.5C696.448 516.3 701.248 518.3 707.048 518.3C712.648 518.3 717.748 516.4 721.648 512.9C723.048 522.2 717.248 533.6 701.748 533.6ZM693.148 500.5L707.748 495.5C707.248 492.6 705.148 489.6 701.148 489.6C696.048 489.6 693.548 494.4 693.148 500.5ZM745.313 533.6C739.713 533.6 734.113 530.4 734.113 519.3V492.1C732.413 492.1 729.013 492.3 727.113 493C726.313 490.5 725.913 488.2 725.913 486.1C725.913 480.1 729.213 477 734.513 477C734.513 473.8 733.613 471.3 733.613 469.1C733.613 464.3 738.113 460.5 744.913 460.5C747.413 460.5 749.713 461 751.813 461.7C750.913 466.5 750.613 471.5 750.613 477C754.413 477 758.413 476.5 761.713 475.4C762.313 477.8 762.513 479.9 762.513 481.6C762.513 488.8 759.113 492.1 753.013 492.1H750.613V515.3C750.613 521.5 752.213 526.6 755.713 530.3C752.613 532.3 748.913 533.6 745.313 533.6Z" fill="#FFF0D3"/>
<path d="M60.134 612.468C57.924 612.468 56.258 610.7 56.258 608.32C56.258 605.294 58.876 603.186 58.876 600.568C58.876 599.888 58.706 599.208 58.264 598.46C60.27 597.916 62.718 598.562 62.718 601.01C62.718 602.744 61.494 603.866 60.236 604.988C62.276 605.022 63.874 606.688 63.874 608.728C63.874 610.802 62.276 612.468 60.134 612.468ZM69.416 612.468C67.206 612.468 65.54 610.7 65.54 608.32C65.54 605.294 68.158 603.186 68.158 600.568C68.158 599.888 67.988 599.208 67.546 598.46C69.552 597.916 72 598.562 72 601.01C72 602.744 70.776 603.866 69.518 604.988C71.558 605.022 73.156 606.688 73.156 608.728C73.156 610.802 71.558 612.468 69.416 612.468ZM82.6178 626L76.5658 604.172C76.0218 602.302 75.4098 600.466 74.5938 598.8H82.3118C81.9378 600.126 82.0738 601.588 82.4478 603.084L86.1878 617.84L89.9618 603.084C90.3358 601.588 90.4718 600.126 90.0638 598.8H97.4418C96.6258 600.466 96.0138 602.302 95.4698 604.172L89.4178 626H82.6178ZM98.4916 626C98.9676 624.334 99.1376 622.464 99.1376 620.526V613.25C99.1376 611.312 98.8656 609.476 98.1176 607.912L104.748 606.756V620.526C104.748 622.464 104.918 624.334 105.394 626H98.4916ZM101.756 604.512C99.2736 604.512 98.2536 602.88 98.2536 601.384C98.2536 599.888 99.2736 598.256 101.756 598.256C104.238 598.256 105.258 599.888 105.258 601.384C105.258 602.88 104.238 604.512 101.756 604.512ZM114.46 626C114.936 624.334 115.106 622.464 115.106 620.526V604.818C115.106 602.88 114.834 601.044 114.086 599.48L120.716 598.256V608.932C121.6 607.538 122.994 606.756 125.034 606.756C129.352 606.756 130.746 610.156 130.746 614.168V620.526C130.746 622.464 130.916 624.334 131.392 626H124.49C124.966 624.334 125.136 622.464 125.136 620.526V614.678C125.136 612.978 124.592 611.924 123.3 611.924C121.43 611.924 120.716 614.134 120.716 616.922V620.526C120.716 622.464 120.886 624.334 121.362 626H114.46ZM139.502 626.544C135.762 626.544 133.246 624.232 133.246 620.73C133.246 617.16 135.864 615.358 139.808 615.358C141.542 615.358 142.936 615.732 143.922 616.378V614.202C143.922 612.468 142.868 611.686 141.44 611.686C140.148 611.686 139.026 612.332 139.026 613.624C139.026 613.93 139.094 614.304 139.196 614.61C136.918 615.086 134.266 613.998 134.266 611.346C134.266 608.286 137.768 606.756 141.474 606.756C146.234 606.756 149.532 609.34 149.532 613.386V620.322C149.532 622.43 150.076 624.164 151.266 625.422C150.28 626.068 149.124 626.544 147.866 626.544C146.472 626.544 145.214 626 144.602 624.334C143.514 625.694 141.78 626.544 139.502 626.544ZM141.474 622.226C143.004 622.226 144.126 621.546 144.126 620.424C144.126 619.302 143.004 618.656 141.474 618.656C139.944 618.656 138.856 619.302 138.856 620.424C138.856 621.546 139.944 622.226 141.474 622.226ZM152.646 626C153.122 624.334 153.292 622.464 153.292 620.526V613.25C153.292 611.312 153.02 609.476 152.272 607.912L158.358 606.824V609.714C159.31 607.776 160.806 606.756 162.744 606.756C165.022 606.756 167.028 608.218 167.028 611.108C167.028 613.93 165.158 615.324 162.404 615.324C163.016 612.978 162.2 611.924 160.976 611.924C159.174 611.924 158.902 614.134 158.902 617.602V620.526C158.902 622.464 159.174 624.334 159.888 626H152.646ZM180.186 626L176.208 612.638C175.664 610.768 174.984 608.966 174.168 607.3H181.58C181.206 608.626 181.342 610.088 181.716 611.584L183.79 619.37L186.034 611.584C186.442 610.088 186.612 608.626 186.238 607.3H193.276C192.46 608.966 191.78 610.768 191.168 612.604L186.85 626H180.186ZM199.501 626.544C195.727 626.544 193.211 624.232 193.211 620.73C193.211 617.16 195.829 615.358 199.773 615.358C201.507 615.358 202.901 615.732 203.887 616.378V614.202C203.887 612.468 202.799 611.686 201.405 611.686C200.113 611.686 198.991 612.366 198.991 613.624C198.991 613.93 199.059 614.304 199.161 614.61C196.883 615.086 194.231 613.998 194.231 611.346C194.231 608.286 197.733 606.756 201.405 606.756C203.717 606.756 205.757 607.402 207.151 608.456C208.443 607.402 210.177 606.756 212.251 606.756C217.181 606.756 219.561 610.224 219.765 615.392L210.007 618.69C210.755 620.662 212.387 621.342 214.359 621.342C216.263 621.342 217.997 620.696 219.323 619.506C219.799 622.668 217.827 626.544 212.557 626.544C209.531 626.544 207.253 625.286 205.757 623.212C204.669 625.184 202.391 626.544 199.501 626.544ZM201.439 622.226C202.969 622.226 204.091 621.546 204.091 620.424C204.091 619.302 202.969 618.656 201.439 618.656C199.909 618.656 198.821 619.302 198.821 620.424C198.821 621.546 199.909 622.226 201.439 622.226ZM209.633 615.29L214.597 613.59C214.427 612.604 213.713 611.584 212.353 611.584C210.619 611.584 209.769 613.216 209.633 615.29ZM221.808 626C222.284 624.334 222.454 622.464 222.454 620.526V613.25C222.454 611.312 222.182 609.476 221.434 607.912L227.52 606.824V609.714C228.472 607.776 229.968 606.756 231.906 606.756C234.184 606.756 236.19 608.218 236.19 611.108C236.19 613.93 234.32 615.324 231.566 615.324C232.178 612.978 231.362 611.924 230.138 611.924C228.336 611.924 228.064 614.134 228.064 617.602V620.526C228.064 622.464 228.336 624.334 229.05 626H221.808ZM245.742 626.544C240.166 626.544 237.072 622.158 237.072 616.616C237.072 611.414 239.758 606.756 245.436 606.756C250.366 606.756 252.746 610.224 252.95 615.392L243.192 618.69C243.94 620.662 245.572 621.342 247.544 621.342C249.448 621.342 251.182 620.696 252.508 619.506C252.984 622.668 251.012 626.544 245.742 626.544ZM242.818 615.29L247.782 613.59C247.612 612.604 246.898 611.584 245.538 611.584C243.804 611.584 242.954 613.216 242.818 615.29ZM260.554 626.544C258.65 626.544 256.746 625.456 256.746 621.682V612.434C256.168 612.434 255.012 612.502 254.366 612.74C254.094 611.89 253.958 611.108 253.958 610.394C253.958 608.354 255.08 607.3 256.882 607.3C256.882 606.212 256.576 605.362 256.576 604.614C256.576 602.982 258.106 601.69 260.418 601.69C261.268 601.69 262.05 601.86 262.764 602.098C262.458 603.73 262.356 605.43 262.356 607.3C263.648 607.3 265.008 607.13 266.13 606.756C266.334 607.572 266.402 608.286 266.402 608.864C266.402 611.312 265.246 612.434 263.172 612.434H262.356V620.322C262.356 622.43 262.9 624.164 264.09 625.422C263.036 626.102 261.778 626.544 260.554 626.544ZM274.667 626C275.143 624.334 275.313 622.464 275.313 620.526V613.25C275.313 611.312 275.041 609.476 274.293 607.912L280.923 606.756V620.526C280.923 622.464 281.093 624.334 281.569 626H274.667ZM277.931 604.512C275.449 604.512 274.429 602.88 274.429 601.384C274.429 599.888 275.449 598.256 277.931 598.256C280.413 598.256 281.433 599.888 281.433 601.384C281.433 602.88 280.413 604.512 277.931 604.512ZM304.338 626C303.692 624.436 303.454 623.042 303.352 621.614L303.08 617.84C302.91 615.698 301.958 614.644 300.326 614.644C298.694 614.644 297.47 615.698 297.47 617.874V620.526C297.47 622.464 297.708 624.334 298.32 626H290.84C291.316 624.334 291.486 622.464 291.486 620.526V604.274C291.486 602.336 291.316 600.466 290.84 598.8H301.108C306.582 598.8 309.302 601.52 309.302 605.328C309.302 608.422 307.534 610.666 304.542 611.584C307.568 612.4 308.656 614.44 309.03 617.602L309.404 620.798C309.676 623.008 310.288 624.572 311.478 626H304.338ZM297.47 610.768C297.98 610.19 298.694 609.816 299.646 609.544L300.462 609.306C302.332 608.762 303.182 607.878 303.182 606.45C303.182 604.92 302.23 604.24 300.394 604.24H297.47V610.768ZM320.916 626.544C314.592 626.544 312.144 622.09 312.144 616.65C312.144 611.21 314.592 606.756 320.916 606.756C327.24 606.756 329.688 611.21 329.688 616.65C329.688 622.09 327.24 626.544 320.916 626.544ZM320.916 621.342C322.854 621.342 323.908 619.54 323.908 616.65C323.908 613.76 322.854 611.958 320.916 611.958C318.978 611.958 317.924 613.76 317.924 616.65C317.924 619.54 318.978 621.342 320.916 621.342ZM331.744 626C332.22 624.334 332.39 622.464 332.39 620.526V613.25C332.39 611.312 332.118 609.476 331.37 607.912L337.456 606.824V609.442C338.408 607.64 339.938 606.756 342.216 606.756C344.8 606.756 346.262 607.946 347.044 609.816C347.962 607.81 349.526 606.756 351.974 606.756C356.292 606.756 357.516 610.156 357.516 614.168V620.526C357.516 622.464 357.686 624.334 358.162 626H351.26C351.736 624.334 351.906 622.464 351.906 620.526V614.678C351.906 612.978 351.362 611.924 350.07 611.924C348.2 611.924 347.758 614.134 347.758 616.922V620.526C347.758 622.464 347.928 624.334 348.404 626H341.502C341.978 624.334 342.148 622.464 342.148 620.526V614.678C342.148 612.978 341.604 611.924 340.312 611.924C338.442 611.924 338 614.134 338 616.922V620.526C338 622.464 338.17 624.334 338.646 626H331.744ZM368.972 626C369.448 624.334 369.618 622.464 369.618 620.526V612.366C368.598 612.4 367.612 612.502 366.796 612.74C366.422 611.822 366.184 610.972 366.184 610.156C366.184 608.694 366.932 607.572 369.006 607.334C368.224 605.804 367.884 604.682 367.884 603.56C367.884 600.16 371.012 598.256 374.922 598.256C377.948 598.256 380.804 599.446 380.804 602.064C380.804 604.648 378.016 605.09 376.316 605.124C376.35 604.92 376.35 604.784 376.35 604.648C376.35 603.73 375.942 603.152 375.126 603.152C374.446 603.152 373.698 603.56 373.698 604.58C373.698 605.362 374.174 606.416 374.786 607.3H375.976C377.54 607.3 378.798 607.13 379.852 606.824C380.056 607.64 380.158 608.354 380.158 609C380.158 611.21 378.934 612.434 376.894 612.434H375.228V620.526C375.228 622.464 375.5 624.334 376.214 626H368.972ZM389.482 626.544C387.34 626.544 385.64 626.034 384.348 625.15L383.668 626H380.268L382.444 623.28C381.254 621.546 380.71 619.2 380.71 616.65C380.71 611.21 383.158 606.756 389.482 606.756C391.59 606.756 393.256 607.232 394.582 608.116L395.262 607.3H398.662L396.486 610.02C397.71 611.754 398.254 614.1 398.254 616.65C398.254 622.09 395.806 626.544 389.482 626.544ZM389.482 621.478C391.42 621.478 392.474 619.54 392.474 616.65C392.474 616.14 392.44 615.63 392.372 615.188L387.816 620.866C388.224 621.24 388.802 621.478 389.482 621.478ZM386.592 618.112L391.148 612.434C390.74 612.06 390.162 611.822 389.482 611.822C387.544 611.822 386.49 613.76 386.49 616.65C386.49 617.16 386.524 617.67 386.592 618.112ZM400.374 626C400.85 624.334 401.02 622.464 401.02 620.526V613.25C401.02 611.312 400.748 609.476 400 607.912L406.086 606.824V609.714C407.038 607.776 408.534 606.756 410.472 606.756C412.75 606.756 414.756 608.218 414.756 611.108C414.756 613.93 412.886 615.324 410.132 615.324C410.744 612.978 409.928 611.924 408.704 611.924C406.902 611.924 406.63 614.134 406.63 617.602V620.526C406.63 622.464 406.902 624.334 407.616 626H400.374ZM418.47 633.072C416.464 633.616 414.016 632.97 414.016 630.522C414.016 628.788 415.24 627.666 416.498 626.544C414.458 626.51 412.86 624.844 412.86 622.804C412.86 620.73 414.458 619.064 416.6 619.064C418.81 619.064 420.476 620.832 420.476 623.212C420.476 626.238 417.858 628.346 417.858 630.964C417.858 631.644 418.028 632.324 418.47 633.072ZM429.759 626C430.235 624.334 430.405 622.464 430.405 620.526V613.25C430.405 611.312 430.133 609.476 429.385 607.912L435.471 606.824V609.442C436.423 607.64 437.953 606.756 440.231 606.756C442.815 606.756 444.277 607.946 445.059 609.816C445.977 607.81 447.541 606.756 449.989 606.756C454.307 606.756 455.531 610.156 455.531 614.168V620.526C455.531 622.464 455.701 624.334 456.177 626H449.275C449.751 624.334 449.921 622.464 449.921 620.526V614.678C449.921 612.978 449.377 611.924 448.085 611.924C446.215 611.924 445.773 614.134 445.773 616.922V620.526C445.773 622.464 445.943 624.334 446.419 626H439.517C439.993 624.334 440.163 622.464 440.163 620.526V614.678C440.163 612.978 439.619 611.924 438.327 611.924C436.457 611.924 436.015 614.134 436.015 616.922V620.526C436.015 622.464 436.185 624.334 436.661 626H429.759ZM466.675 626.544C461.099 626.544 458.005 622.158 458.005 616.616C458.005 611.414 460.691 606.756 466.369 606.756C471.299 606.756 473.679 610.224 473.883 615.392L464.125 618.69C464.873 620.662 466.505 621.342 468.477 621.342C470.381 621.342 472.115 620.696 473.441 619.506C473.917 622.668 471.945 626.544 466.675 626.544ZM463.751 615.29L468.715 613.59C468.545 612.604 467.831 611.584 466.471 611.584C464.737 611.584 463.887 613.216 463.751 615.29ZM475.912 626C476.388 624.334 476.558 622.464 476.558 620.526V613.25C476.558 611.312 476.286 609.476 475.538 607.912L481.624 606.824V609.544C482.576 607.708 484.174 606.756 486.486 606.756C490.804 606.756 492.198 610.156 492.198 614.168V620.526C492.198 622.464 492.368 624.334 492.844 626H485.942C486.418 624.334 486.588 622.464 486.588 620.526V614.678C486.588 612.978 486.044 611.924 484.752 611.924C482.882 611.924 482.168 614.134 482.168 616.922V620.526C482.168 622.464 482.338 624.334 482.814 626H475.912ZM508.71 626.544C503.95 626.544 501.502 622.09 501.502 616.65C501.502 611.21 503.95 606.756 508.71 606.756C510.478 606.756 511.974 607.334 513.062 608.626V604.818C513.062 602.88 512.79 601.044 512.042 599.48L518.672 598.256V620.322C518.672 622.43 519.216 624.164 520.406 625.422C519.42 626.068 518.264 626.544 517.006 626.544C515.51 626.544 514.116 625.83 513.606 623.926C512.518 625.694 510.784 626.544 508.71 626.544ZM510.24 621.342C512.11 621.342 513.13 619.54 513.13 616.65C513.13 613.76 512.11 611.958 510.24 611.958C508.336 611.958 507.282 613.76 507.282 616.65C507.282 619.54 508.336 621.342 510.24 621.342ZM530.127 626.544C524.551 626.544 521.457 622.158 521.457 616.616C521.457 611.414 524.143 606.756 529.821 606.756C534.751 606.756 537.131 610.224 537.335 615.392L527.577 618.69C528.325 620.662 529.957 621.342 531.929 621.342C533.833 621.342 535.567 620.696 536.893 619.506C537.369 622.668 535.397 626.544 530.127 626.544ZM527.203 615.29L532.167 613.59C531.997 612.604 531.283 611.584 529.923 611.584C528.189 611.584 527.339 613.216 527.203 615.29ZM544.939 626.544C543.035 626.544 541.131 625.456 541.131 621.682V612.434C540.553 612.434 539.397 612.502 538.751 612.74C538.479 611.89 538.343 611.108 538.343 610.394C538.343 608.354 539.465 607.3 541.267 607.3C541.267 606.212 540.961 605.362 540.961 604.614C540.961 602.982 542.491 601.69 544.803 601.69C545.653 601.69 546.435 601.86 547.149 602.098C546.843 603.73 546.741 605.43 546.741 607.3C548.033 607.3 549.393 607.13 550.515 606.756C550.719 607.572 550.787 608.286 550.787 608.864C550.787 611.312 549.631 612.434 547.557 612.434H546.741V620.322C546.741 622.43 547.285 624.164 548.475 625.422C547.421 626.102 546.163 626.544 544.939 626.544ZM567.314 626.544C561.738 626.544 558.644 622.158 558.644 616.616C558.644 611.414 561.33 606.756 567.008 606.756C571.938 606.756 574.318 610.224 574.522 615.392L564.764 618.69C565.512 620.662 567.144 621.342 569.116 621.342C571.02 621.342 572.754 620.696 574.08 619.506C574.556 622.668 572.584 626.544 567.314 626.544ZM564.39 615.29L569.354 613.59C569.184 612.604 568.47 611.584 567.11 611.584C565.376 611.584 564.526 613.216 564.39 615.29ZM576.55 626C577.026 624.334 577.196 622.464 577.196 620.526V613.25C577.196 611.312 576.924 609.476 576.176 607.912L582.262 606.824V609.714C583.214 607.776 584.71 606.756 586.648 606.756C588.926 606.756 590.932 608.218 590.932 611.108C590.932 613.93 589.062 615.324 586.308 615.324C586.92 612.978 586.104 611.924 584.88 611.924C583.078 611.924 582.806 614.134 582.806 617.602V620.526C582.806 622.464 583.078 624.334 583.792 626H576.55ZM599.195 626C599.671 624.334 599.841 622.464 599.841 620.526V613.25C599.841 611.312 599.569 609.476 598.821 607.912L605.451 606.756V620.526C605.451 622.464 605.621 624.334 606.097 626H599.195ZM602.459 604.512C599.977 604.512 598.957 602.88 598.957 601.384C598.957 599.888 599.977 598.256 602.459 598.256C604.941 598.256 605.961 599.888 605.961 601.384C605.961 602.88 604.941 604.512 602.459 604.512ZM615.163 626C615.639 624.334 615.809 622.464 615.809 620.526V604.818C615.809 602.88 615.537 601.044 614.789 599.48L621.419 598.256V608.932C622.303 607.538 623.697 606.756 625.737 606.756C630.055 606.756 631.449 610.156 631.449 614.168V620.526C631.449 622.464 631.619 624.334 632.095 626H625.193C625.669 624.334 625.839 622.464 625.839 620.526V614.678C625.839 612.978 625.295 611.924 624.003 611.924C622.133 611.924 621.419 614.134 621.419 616.922V620.526C621.419 622.464 621.589 624.334 622.065 626H615.163ZM637.858 626L633.88 612.638C633.336 610.768 632.656 608.966 631.84 607.3H639.252C638.878 608.626 639.014 610.088 639.388 611.584L641.462 619.37L643.706 611.584C644.114 610.088 644.284 608.626 643.91 607.3H650.948C650.132 608.966 649.452 610.768 648.84 612.604L644.522 626H637.858ZM659.519 626.544C653.943 626.544 650.849 622.158 650.849 616.616C650.849 611.414 653.535 606.756 659.213 606.756C664.143 606.756 666.523 610.224 666.727 615.392L656.969 618.69C657.717 620.662 659.349 621.342 661.321 621.342C663.225 621.342 664.959 620.696 666.285 619.506C666.761 622.668 664.789 626.544 659.519 626.544ZM656.595 615.29L661.559 613.59C661.389 612.604 660.675 611.584 659.315 611.584C657.581 611.584 656.731 613.216 656.595 615.29ZM668.755 626C669.231 624.334 669.401 622.464 669.401 620.526V613.25C669.401 611.312 669.129 609.476 668.381 607.912L674.467 606.824V609.714C675.419 607.776 676.915 606.756 678.853 606.756C681.131 606.756 683.137 608.218 683.137 611.108C683.137 613.93 681.267 615.324 678.513 615.324C679.125 612.978 678.309 611.924 677.085 611.924C675.283 611.924 675.011 614.134 675.011 617.602V620.526C675.011 622.464 675.283 624.334 675.997 626H668.755ZM690.501 626.544C688.597 626.544 686.693 625.456 686.693 621.682V612.434C686.115 612.434 684.959 612.502 684.313 612.74C684.041 611.89 683.905 611.108 683.905 610.394C683.905 608.354 685.027 607.3 686.829 607.3C686.829 606.212 686.523 605.362 686.523 604.614C686.523 602.982 688.053 601.69 690.365 601.69C691.215 601.69 691.997 601.86 692.711 602.098C692.405 603.73 692.303 605.43 692.303 607.3C693.595 607.3 694.955 607.13 696.077 606.756C696.281 607.572 696.349 608.286 696.349 608.864C696.349 611.312 695.193 612.434 693.119 612.434H692.303V620.322C692.303 622.43 692.847 624.164 694.037 625.422C692.983 626.102 691.725 626.544 690.501 626.544ZM706.383 626C706.859 624.334 707.029 622.464 707.029 620.526V612.366C706.009 612.4 705.023 612.502 704.207 612.74C703.833 611.822 703.595 610.972 703.595 610.156C703.595 608.694 704.343 607.572 706.417 607.334C705.635 605.804 705.295 604.682 705.295 603.56C705.295 600.16 708.423 598.256 712.333 598.256C715.359 598.256 718.215 599.446 718.215 602.064C718.215 604.648 715.427 605.09 713.727 605.124C713.761 604.92 713.761 604.784 713.761 604.648C713.761 603.73 713.353 603.152 712.537 603.152C711.857 603.152 711.109 603.56 711.109 604.58C711.109 605.362 711.585 606.416 712.197 607.3H713.387C714.951 607.3 716.209 607.13 717.263 606.824C717.467 607.64 717.569 608.354 717.569 609C717.569 611.21 716.345 612.434 714.305 612.434H712.639V620.526C712.639 622.464 712.911 624.334 713.625 626H706.383ZM724.243 626.544C720.503 626.544 717.987 624.232 717.987 620.73C717.987 617.16 720.605 615.358 724.549 615.358C726.283 615.358 727.677 615.732 728.663 616.378V614.202C728.663 612.468 727.609 611.686 726.181 611.686C724.889 611.686 723.767 612.332 723.767 613.624C723.767 613.93 723.835 614.304 723.937 614.61C721.659 615.086 719.007 613.998 719.007 611.346C719.007 608.286 722.509 606.756 726.215 606.756C730.975 606.756 734.273 609.34 734.273 613.386V620.322C734.273 622.43 734.817 624.164 736.007 625.422C735.021 626.068 733.865 626.544 732.607 626.544C731.213 626.544 729.955 626 729.343 624.334C728.255 625.694 726.521 626.544 724.243 626.544ZM726.215 622.226C727.745 622.226 728.867 621.546 728.867 620.424C728.867 619.302 727.745 618.656 726.215 618.656C724.685 618.656 723.597 619.302 723.597 620.424C723.597 621.546 724.685 622.226 726.215 622.226ZM737.284 626C737.76 624.334 737.93 622.464 737.93 620.526V604.818C737.93 602.88 737.658 601.044 736.91 599.48L743.54 598.256V620.526C743.54 622.464 743.71 624.334 744.186 626H737.284ZM753.317 626.544C748.557 626.544 746.109 622.09 746.109 616.65C746.109 611.21 748.557 606.756 753.317 606.756C755.085 606.756 756.581 607.334 757.669 608.626V604.818C757.669 602.88 757.397 601.044 756.649 599.48L763.279 598.256V620.322C763.279 622.43 763.823 624.164 765.013 625.422C764.027 626.068 762.871 626.544 761.613 626.544C760.117 626.544 758.723 625.83 758.213 623.926C757.125 625.694 755.391 626.544 753.317 626.544ZM754.847 621.342C756.717 621.342 757.737 619.54 757.737 616.65C757.737 613.76 756.717 611.958 754.847 611.958C752.943 611.958 751.889 613.76 751.889 616.65C751.889 619.54 752.943 621.342 754.847 621.342ZM773.211 626C773.211 615.8 783.683 612.808 783.683 606.688C783.683 604.92 782.799 603.696 781.269 603.696C779.535 603.696 778.549 605.294 778.549 607.266C778.549 608.388 778.855 609.204 779.093 609.68C778.685 609.782 778.243 609.85 777.733 609.85C775.353 609.85 772.973 608.354 772.973 605.226C772.973 601.69 775.999 598.256 781.269 598.256C786.335 598.256 789.735 601.418 789.735 606.688C789.735 613.556 783.819 615.902 780.929 620.56H785.519C787.083 620.56 788.579 620.22 789.905 619.268V626H773.211ZM801.415 626.544C795.159 626.544 792.235 621.444 792.235 612.4C792.235 603.356 795.159 598.256 801.415 598.256C807.671 598.256 810.595 603.356 810.595 612.4C810.595 621.444 807.671 626.544 801.415 626.544ZM801.415 620.968C803.455 620.968 804.475 618.146 804.475 612.4C804.475 606.654 803.455 603.832 801.415 603.832C799.375 603.832 798.355 606.654 798.355 612.4C798.355 618.146 799.375 620.968 801.415 620.968ZM825.645 626.544C821.905 626.544 819.389 624.232 819.389 620.73C819.389 617.16 822.007 615.358 825.951 615.358C827.685 615.358 829.079 615.732 830.065 616.378V614.202C830.065 612.468 829.011 611.686 827.583 611.686C826.291 611.686 825.169 612.332 825.169 613.624C825.169 613.93 825.237 614.304 825.339 614.61C823.061 615.086 820.409 613.998 820.409 611.346C820.409 608.286 823.911 606.756 827.617 606.756C832.377 606.756 835.675 609.34 835.675 613.386V620.322C835.675 622.43 836.219 624.164 837.409 625.422C836.423 626.068 835.267 626.544 834.009 626.544C832.615 626.544 831.357 626 830.745 624.334C829.657 625.694 827.923 626.544 825.645 626.544ZM827.617 622.226C829.147 622.226 830.269 621.546 830.269 620.424C830.269 619.302 829.147 618.656 827.617 618.656C826.087 618.656 824.999 619.302 824.999 620.424C824.999 621.546 826.087 622.226 827.617 622.226ZM827.617 605.226C825.271 605.226 823.503 603.56 823.503 601.282C823.503 599.004 825.271 597.338 827.617 597.338C829.963 597.338 831.731 599.004 831.731 601.282C831.731 603.56 829.963 605.226 827.617 605.226ZM827.617 603.254C828.841 603.254 829.691 602.438 829.691 601.282C829.691 600.126 828.841 599.31 827.617 599.31C826.393 599.31 825.543 600.126 825.543 601.282C825.543 602.438 826.393 603.254 827.617 603.254ZM838.788 626C839.264 624.334 839.434 622.464 839.434 620.526V613.25C839.434 611.312 839.162 609.476 838.414 607.912L844.5 606.824V609.714C845.452 607.776 846.948 606.756 848.886 606.756C851.164 606.756 853.17 608.218 853.17 611.108C853.17 613.93 851.3 615.324 848.546 615.324C849.158 612.978 848.342 611.924 847.118 611.924C845.316 611.924 845.044 614.134 845.044 617.602V620.526C845.044 622.464 845.316 624.334 846.03 626H838.788ZM868.267 626.544C864.391 626.544 861.025 624.64 861.025 621.614C861.025 618.928 863.745 617.942 866.057 618.418C865.921 618.758 865.853 619.2 865.853 619.54C865.853 620.934 866.941 621.784 868.267 621.784C869.491 621.784 870.375 621.07 870.375 620.05C870.375 618.894 869.287 618.316 867.825 617.976L865.853 617.534C863.405 616.99 861.263 615.46 861.263 612.4C861.263 609.306 863.473 606.756 868.505 606.756C870.783 606.756 873.231 607.266 874.761 608.422V614.134C873.129 612.502 870.511 611.55 868.471 611.55C867.349 611.55 866.771 611.822 866.771 612.434C866.771 613.012 867.281 613.216 868.471 613.488L870.307 613.93C873.061 614.61 875.985 616.038 875.985 619.914C875.985 623.926 872.755 626.544 868.267 626.544ZM878.035 626C878.511 624.334 878.681 622.464 878.681 620.526V613.25C878.681 611.312 878.409 609.476 877.661 607.912L884.291 606.756V620.526C884.291 622.464 884.461 624.334 884.937 626H878.035ZM881.299 604.512C878.817 604.512 877.797 602.88 877.797 601.384C877.797 599.888 878.817 598.256 881.299 598.256C883.781 598.256 884.801 599.888 884.801 601.384C884.801 602.88 883.781 604.512 881.299 604.512ZM894.098 626.544C889.338 626.544 886.89 622.09 886.89 616.65C886.89 611.21 889.338 606.756 894.098 606.756C895.866 606.756 897.362 607.334 898.45 608.626V604.818C898.45 602.88 898.178 601.044 897.43 599.48L904.06 598.256V620.322C904.06 622.43 904.604 624.164 905.794 625.422C904.808 626.068 903.652 626.544 902.394 626.544C900.898 626.544 899.504 625.83 898.994 623.926C897.906 625.694 896.172 626.544 894.098 626.544ZM895.628 621.342C897.498 621.342 898.518 619.54 898.518 616.65C898.518 613.76 897.498 611.958 895.628 611.958C893.724 611.958 892.67 613.76 892.67 616.65C892.67 619.54 893.724 621.342 895.628 621.342ZM915.515 626.544C909.939 626.544 906.845 622.158 906.845 616.616C906.845 611.414 909.531 606.756 915.209 606.756C920.139 606.756 922.519 610.224 922.723 615.392L912.965 618.69C913.713 620.662 915.345 621.342 917.317 621.342C919.221 621.342 920.955 620.696 922.281 619.506C922.757 622.668 920.785 626.544 915.515 626.544ZM912.591 615.29L917.555 613.59C917.385 612.604 916.671 611.584 915.311 611.584C913.577 611.584 912.727 613.216 912.591 615.29ZM924.751 626C925.227 624.334 925.397 622.464 925.397 620.526V613.25C925.397 611.312 925.125 609.476 924.377 607.912L930.463 606.824V609.544C931.415 607.708 933.013 606.756 935.325 606.756C939.643 606.756 941.037 610.156 941.037 614.168V620.526C941.037 622.464 941.207 624.334 941.683 626H934.781C935.257 624.334 935.427 622.464 935.427 620.526V614.678C935.427 612.978 934.883 611.924 933.591 611.924C931.721 611.924 931.007 614.134 931.007 616.922V620.526C931.007 622.464 931.177 624.334 931.653 626H924.751ZM948.557 612.23C946.551 612.774 944.103 612.128 944.103 609.68C944.103 607.946 945.327 606.824 946.585 605.702C944.545 605.668 942.947 604.002 942.947 601.962C942.947 599.888 944.545 598.222 946.687 598.222C948.897 598.222 950.563 599.99 950.563 602.37C950.563 605.396 947.945 607.504 947.945 610.122C947.945 610.802 948.115 611.482 948.557 612.23ZM957.839 612.23C955.833 612.774 953.385 612.128 953.385 609.68C953.385 607.946 954.609 606.824 955.867 605.702C953.827 605.668 952.229 604.002 952.229 601.962C952.229 599.888 953.827 598.222 955.969 598.222C958.179 598.222 959.845 599.99 959.845 602.37C959.845 605.396 957.227 607.504 957.227 610.122C957.227 610.802 957.397 611.482 957.839 612.23Z" fill="#5F141E"/>
</svg>
