<svg width="1080" height="1080" viewBox="0 0 1080 1080" fill="none" xmlns="http://www.w3.org/2000/svg">
<rect width="1080" height="1080" fill="#F41116"/>
<path fill-rule="evenodd" clip-rule="evenodd" d="M366.866 84.413C370.059 78.5269 372.691 71.8 373.755 66.0829C376.108 66.4193 378.629 66.5874 381.373 66.5874C384.51 66.5874 386.919 66.3635 389.047 66.0271C389.999 70.623 387.814 75.3317 382.045 75.3317C381.597 75.3317 381.149 75.2754 380.701 75.2193C379.525 78.246 378.18 80.9373 376.669 83.3474C383.558 85.2529 388.879 90.5225 388.879 99.2665C388.879 108.067 383.614 113 377.844 113C374.54 113 372.075 111.374 370.955 108.964C374.932 108.403 379.469 105.601 379.469 100.107C379.469 94.278 374.316 90.2983 366.866 89.9619V102.406C366.866 105.601 367.146 108.684 367.931 111.43H356.56C357.344 108.684 357.624 105.601 357.624 102.406V76.229C357.624 73.0342 357.232 70.0071 356 67.4283L366.866 65.6907V84.413ZM417.953 79.7041C425.571 79.7042 431.004 83.7965 431.004 90.5787V102.125C431.004 105.601 431.956 108.516 433.86 110.533C432.348 111.542 430.499 112.327 428.539 112.327C426.299 112.327 424.283 111.374 423.33 108.572C421.538 110.87 418.625 112.327 414.873 112.327C408.823 112.327 404.567 108.572 404.567 102.742C404.567 96.8002 408.991 93.7733 415.377 93.7733C418.289 93.7733 420.698 94.3905 422.378 95.6232V91.8111C422.378 88.7283 420.473 87.3277 417.897 87.3277C415.545 87.3277 413.64 88.5603 413.64 90.8028C413.64 91.3633 413.752 91.9793 413.92 92.4837C410.391 93.2126 406.19 91.4752 406.19 87.2711C406.19 82.3384 411.848 79.7041 417.953 79.7041ZM446.41 79.7041C450.219 79.7042 454.196 80.6015 456.716 82.563V91.5312C454.028 88.7843 449.771 87.1031 446.354 87.103C444.282 87.103 443.161 87.7198 443.161 88.8963C443.161 89.9615 444.057 90.354 446.13 90.8586L449.322 91.6436C453.972 92.8203 458.621 95.2315 458.621 101.509C458.621 108.235 453.299 112.327 446.074 112.327C439.632 112.327 434.199 109.02 434.199 104.087C434.199 99.771 438.512 98.2021 442.096 98.9301C441.872 99.4907 441.76 100.276 441.76 100.892C441.76 103.471 443.722 104.928 446.074 104.928C448.315 104.928 449.938 103.639 449.938 101.733C449.938 99.6589 448.09 98.6502 445.514 98.0335L442.209 97.2484C438.288 96.3513 434.647 93.8294 434.647 88.8405C434.647 83.7401 438.456 79.7041 446.41 79.7041ZM472.401 79.7041C476.21 79.7042 480.186 80.6015 482.707 82.563V91.5312C480.019 88.7843 475.762 87.1031 472.345 87.103C470.273 87.103 469.152 87.7198 469.152 88.8963C469.152 89.9615 470.049 90.354 472.121 90.8586L475.314 91.6436C479.963 92.8203 484.612 95.2315 484.612 101.509C484.612 108.235 479.291 112.327 472.065 112.327C465.624 112.327 460.191 109.02 460.191 104.087C460.191 99.771 464.503 98.2021 468.087 98.9301C467.864 99.4907 467.752 100.276 467.752 100.892C467.752 103.471 469.713 104.928 472.065 104.928C474.306 104.928 475.929 103.639 475.929 101.733C475.929 99.6589 474.081 98.6502 471.504 98.0335L468.2 97.2484C464.279 96.3513 460.639 93.8294 460.639 88.8405C460.639 83.7401 464.448 79.7041 472.401 79.7041ZM500.186 79.7041C508.083 79.7042 512.06 85.3651 512.396 93.661L495.984 99.3223C497.161 102.91 500.073 104.312 503.49 104.312C506.738 104.312 509.595 103.134 511.724 101.116C512.395 106.217 509.091 112.327 500.745 112.327C491.728 112.327 486.519 105.209 486.519 95.9596C486.519 87.2717 491.111 79.7041 500.186 79.7041ZM542.254 79.7041C552.391 79.7041 556.536 86.9351 556.536 96.0154C556.536 105.096 552.391 112.327 542.254 112.327C532.059 112.327 527.971 105.096 527.971 96.0154C527.971 86.9351 532.059 79.7041 542.254 79.7041ZM583.858 71.3521C585.145 71.3521 586.322 71.6323 587.498 72.0248C586.993 74.7712 586.826 77.6302 586.826 80.6015C588.954 80.6015 591.139 80.3208 593.043 79.7041C593.379 80.9929 593.491 82.0582 593.491 82.9552C593.491 86.7669 591.698 88.5041 588.393 88.5041H586.826V102.125C586.826 105.657 587.777 108.516 589.682 110.533C588.057 111.598 586.098 112.327 584.192 112.327C581.112 112.327 578.199 110.421 578.199 104.255V88.5041H570.862V102.125C570.862 105.657 571.815 108.516 573.719 110.533C572.095 111.598 570.134 112.327 568.174 112.327C565.149 112.327 562.236 110.421 562.236 104.255V88.5041C561.228 88.5042 559.379 88.6163 558.259 89.0087C557.811 87.6639 557.643 86.4866 557.643 85.3655C557.643 82.1706 559.492 80.6016 562.46 80.6015C562.46 78.8075 561.956 77.2938 561.956 76.0044C561.956 73.4263 564.309 71.3521 567.893 71.3521C569.182 71.3521 570.358 71.6323 571.534 72.0248C571.03 74.7712 570.862 77.6302 570.862 80.6015H578.423C578.423 78.8075 577.919 77.2938 577.919 76.0044C577.919 73.4263 580.273 71.3521 583.858 71.3521ZM607.457 79.7041C615.354 79.7041 619.331 85.3651 619.667 93.661L603.257 99.3223C604.433 102.91 607.345 104.312 610.762 104.312C614.01 104.312 616.867 103.134 618.996 101.116C619.667 106.217 616.363 112.327 608.018 112.327C598.999 112.327 593.791 105.209 593.791 95.9596C593.791 87.2718 598.383 79.7042 607.457 79.7041ZM673.893 79.7041C681.791 79.7042 685.768 85.3651 686.104 93.661L669.692 99.3223C670.869 102.91 673.781 104.312 677.197 104.312C680.446 104.312 683.303 103.134 685.431 101.116C686.103 106.217 682.799 112.327 674.453 112.327C665.435 112.327 660.226 105.209 660.226 95.9596C660.226 87.2717 664.819 79.7041 673.893 79.7041ZM697.46 71.3521C698.748 71.3521 699.925 71.6323 701.101 72.0248C700.597 74.7712 700.428 77.6302 700.428 80.6015C702.557 80.6015 704.741 80.3208 706.646 79.7041C706.982 80.9929 707.093 82.0582 707.093 82.9552C707.093 86.7669 705.302 88.5041 701.997 88.5041H700.428V102.125C700.428 105.657 701.381 108.516 703.284 110.533C701.661 111.598 699.7 112.327 697.74 112.327C694.715 112.327 691.803 110.421 691.803 104.255V88.5041C690.795 88.5041 688.945 88.6162 687.826 89.0087C687.378 87.6639 687.21 86.4866 687.21 85.3655C687.21 82.1705 689.058 80.6015 692.027 80.6015C692.027 78.8075 691.523 77.2938 691.523 76.0044C691.523 73.4263 693.875 71.3522 697.46 71.3521ZM656.976 102.406C656.976 105.545 657.256 108.74 657.984 111.431H647.286C648.014 108.74 648.294 105.545 648.294 102.406V90.3548C648.294 87.1598 647.846 84.0769 646.67 81.554L656.976 79.7041V102.406ZM401.765 102.406C401.765 105.545 402.045 108.74 402.773 111.43H392.13C392.859 108.74 393.139 105.545 393.139 102.406V73.9304C393.139 70.7355 392.691 68.045 391.515 65.6349C394.931 65.0182 398.684 64.0652 401.765 63V102.406ZM524.721 102.406C524.721 105.545 525.001 108.74 525.728 111.43H515.086C515.815 108.74 516.094 105.545 516.094 102.406V73.9304C516.094 70.7355 515.646 68.045 514.47 65.6349C517.887 65.0182 521.64 64.0652 524.721 63V102.406ZM638.602 79.7041C642.355 79.7042 645.547 82.1143 645.547 86.7108C645.547 91.1952 642.579 93.3247 638.322 93.3247C639.33 89.5131 637.986 87.664 635.914 87.664C632.833 87.6642 632.217 91.4197 632.217 97.1368V102.406C632.217 105.545 632.61 108.74 633.729 111.43H622.526C623.254 108.74 623.535 105.545 623.535 102.406V90.3541C623.535 87.1592 623.087 84.0762 621.911 81.5533L631.432 79.8165V84.5245C633.001 81.3857 635.41 79.7041 638.602 79.7041ZM417.897 98.986C415.153 98.986 413.248 100.219 413.248 102.294C413.248 104.311 415.153 105.601 417.897 105.601C420.641 105.601 422.658 104.311 422.658 102.294C422.658 100.219 420.641 98.986 417.897 98.986ZM542.254 87.7199C538.837 87.7199 536.931 90.8588 536.931 96.0154C536.931 101.172 538.837 104.312 542.254 104.312C545.67 104.312 547.63 101.172 547.63 96.0154C547.63 90.8588 545.67 87.7199 542.254 87.7199ZM500.353 87.1595C497.273 87.1595 495.704 90.018 495.424 93.8856L504.386 90.8028C504.05 88.8967 502.762 87.1596 500.353 87.1595ZM607.625 87.1595C604.544 87.1596 602.976 90.0181 602.696 93.8856L611.658 90.8028C611.322 88.8966 610.034 87.1595 607.625 87.1595ZM674.061 87.1595C670.981 87.1595 669.412 90.018 669.132 93.8856L678.094 90.8028C677.758 88.8967 676.469 87.1596 674.061 87.1595ZM718.806 65.7473C722.382 65.7473 724.999 68.406 725 71.894C725 75.3819 722.382 78.0938 718.806 78.0938C715.188 78.0938 712.571 75.3556 712.571 71.894C712.571 68.4324 715.226 65.7473 718.806 65.7473ZM718.806 66.9323C715.953 66.9323 713.928 68.9983 713.928 71.894C713.928 74.8291 716.006 76.9088 718.806 76.9088C721.607 76.9088 723.658 74.8028 723.658 71.894C723.658 68.9853 721.66 66.9323 718.806 66.9323ZM652.327 65.7473C656.192 65.7474 657.816 68.2696 657.816 70.6235C657.816 73.0342 656.192 75.5563 652.327 75.5563C648.463 75.5563 646.837 73.0343 646.837 70.6235C646.837 68.2695 648.462 65.7473 652.327 65.7473ZM719.455 68.6472C720.657 68.6473 721.448 69.3888 721.448 70.3989C721.447 71.2425 720.913 71.8181 720.03 72.0099C720.772 72.1761 721.102 72.7256 721.296 73.5694L721.615 74.9373H720.224L720.03 73.7616C719.888 72.8283 719.773 72.6105 718.743 72.6105H717.754V74.9373H716.468V68.6472H719.455ZM717.754 69.6958V71.5619H718.817C719.685 71.5619 720.161 71.2168 720.161 70.5777C720.161 69.9385 719.658 69.6958 718.817 69.6958H717.754Z" fill="#FFF0D3"/>
<path d="M79.1 308L61.3 243.8C59.7 238.3 57.9 232.9 55.5 228H78.2C77.1 231.9 77.5 236.2 78.6 240.6L89.6 284L100.7 240.6C101.8 236.2 102.2 231.9 101 228H122.7C120.3 232.9 118.5 238.3 116.9 243.8L99.1 308H79.1ZM125.788 308C127.188 303.1 127.688 297.6 127.688 291.9V270.5C127.688 264.8 126.888 259.4 124.688 254.8L144.188 251.4V291.9C144.188 297.6 144.688 303.1 146.088 308H125.788ZM135.387 244.8C128.088 244.8 125.088 240 125.088 235.6C125.088 231.2 128.088 226.4 135.387 226.4C142.688 226.4 145.688 231.2 145.688 235.6C145.688 240 142.688 244.8 135.387 244.8ZM153.034 308C154.434 303.1 154.934 297.6 154.934 291.9V270.5C154.934 264.8 154.134 259.4 151.934 254.8L169.834 251.6V259.6C172.634 254.2 177.334 251.4 184.134 251.4C196.834 251.4 200.934 261.4 200.934 273.2V291.9C200.934 297.6 201.434 303.1 202.834 308H182.534C183.934 303.1 184.434 297.6 184.434 291.9V274.7C184.434 269.7 182.834 266.6 179.034 266.6C173.534 266.6 171.434 273.1 171.434 281.3V291.9C171.434 297.6 171.934 303.1 173.334 308H153.034ZM229.479 309.6C215.479 309.6 208.279 296.5 208.279 280.5C208.279 264.5 215.479 251.4 229.479 251.4C234.679 251.4 239.079 253.1 242.279 256.9V245.7C242.279 240 241.479 234.6 239.279 230L258.779 226.4V291.3C258.779 297.5 260.379 302.6 263.879 306.3C260.979 308.2 257.579 309.6 253.879 309.6C249.479 309.6 245.379 307.5 243.879 301.9C240.679 307.1 235.579 309.6 229.479 309.6ZM233.979 294.3C239.479 294.3 242.479 289 242.479 280.5C242.479 272 239.479 266.7 233.979 266.7C228.379 266.7 225.279 272 225.279 280.5C225.279 289 228.379 294.3 233.979 294.3ZM292.47 309.6C276.07 309.6 266.97 296.7 266.97 280.4C266.97 265.1 274.87 251.4 291.57 251.4C306.07 251.4 313.07 261.6 313.67 276.8L284.97 286.5C287.17 292.3 291.97 294.3 297.77 294.3C303.37 294.3 308.47 292.4 312.37 288.9C313.77 298.2 307.97 309.6 292.47 309.6ZM283.87 276.5L298.47 271.5C297.97 268.6 295.87 265.6 291.87 265.6C286.77 265.6 284.27 270.4 283.87 276.5ZM319.635 308C321.035 303.1 321.535 297.6 321.535 291.9V270.5C321.535 264.8 320.735 259.4 318.535 254.8L336.435 251.6V260.1C339.235 254.4 343.635 251.4 349.335 251.4C356.035 251.4 361.935 255.7 361.935 264.2C361.935 272.5 356.435 276.6 348.335 276.6C350.135 269.7 347.735 266.6 344.135 266.6C338.835 266.6 338.035 273.1 338.035 283.3V291.9C338.035 297.6 338.835 303.1 340.935 308H319.635ZM386.037 308C386.037 278 416.837 269.2 416.837 251.2C416.837 246 414.237 242.4 409.737 242.4C404.637 242.4 401.737 247.1 401.737 252.9C401.737 256.2 402.637 258.6 403.337 260C402.137 260.3 400.837 260.5 399.337 260.5C392.337 260.5 385.337 256.1 385.337 246.9C385.337 236.5 394.237 226.4 409.737 226.4C424.637 226.4 434.637 235.7 434.637 251.2C434.637 271.4 417.237 278.3 408.737 292H422.237C426.837 292 431.237 291 435.137 288.2V308H386.037ZM469.691 309.6C451.891 309.6 441.991 294.6 441.991 268C441.991 242.7 450.591 226.4 469.991 226.4C481.991 226.4 492.291 232.7 492.291 243.4C492.291 251.5 486.391 255.3 479.791 255.3C478.291 255.3 476.791 255.1 475.291 254.7C475.991 253.4 476.491 251.6 476.491 249.7C476.491 245.4 473.991 242.4 469.991 242.4C462.991 242.4 460.491 251.5 460.091 264C463.091 260.5 467.491 258.2 473.791 258.2C486.791 258.2 495.791 268.1 495.791 282.6C495.791 297.3 486.391 309.6 469.691 309.6ZM469.691 293.2C474.891 293.2 477.791 288.5 477.791 282.6C477.791 276.7 474.891 272 469.691 272C464.491 272 461.591 276.7 461.591 282.6C461.591 288.5 464.491 293.2 469.691 293.2ZM524.95 309.6C509.65 309.6 501.15 299.7 501.15 289.6C501.15 280.4 508.15 276 515.15 276C516.65 276 517.95 276.2 519.15 276.5C518.45 277.9 517.75 280.3 517.75 283.4C517.75 289.4 520.15 293.6 524.95 293.6C529.65 293.6 532.75 289.6 532.75 282.3C532.75 272.9 526.95 269.6 518.65 269.6C514.35 269.6 509.55 270.5 505.35 272.4L510.15 226.5C514.55 227.6 520.95 228.9 529.05 228.9C536.05 228.9 541.65 227.9 545.55 226.4C545.95 228 546.25 229.9 546.25 232C546.25 238.4 543.35 245.7 533.35 245.7C531.05 245.7 528.15 245.3 524.65 244.1L523.75 254.1C540.35 254.1 550.55 264.4 550.55 281.7C550.55 299.2 540.35 309.6 524.95 309.6ZM566.087 309.6C559.787 309.6 555.087 304.7 555.087 298.6C555.087 292.5 559.787 287.6 566.087 287.6C572.387 287.6 577.087 292.5 577.087 298.6C577.087 304.7 572.387 309.6 566.087 309.6ZM610.316 309.6C592.516 309.6 582.616 294.6 582.616 268C582.616 242.7 591.216 226.4 610.616 226.4C622.616 226.4 632.916 232.7 632.916 243.4C632.916 251.5 627.016 255.3 620.416 255.3C618.916 255.3 617.416 255.1 615.916 254.7C616.616 253.4 617.116 251.6 617.116 249.7C617.116 245.4 614.616 242.4 610.616 242.4C603.616 242.4 601.116 251.5 600.716 264C603.716 260.5 608.116 258.2 614.416 258.2C627.416 258.2 636.416 268.1 636.416 282.6C636.416 297.3 627.016 309.6 610.316 309.6ZM610.316 293.2C615.516 293.2 618.416 288.5 618.416 282.6C618.416 276.7 615.516 272 610.316 272C605.116 272 602.216 276.7 602.216 282.6C602.216 288.5 605.116 293.2 610.316 293.2ZM668.775 309.6C651.775 309.6 642.175 299.2 642.175 284.9C642.175 276.1 645.975 268.8 653.275 265.3C646.875 262.1 643.975 255.7 643.975 247.9C643.975 235.9 652.175 226.4 668.775 226.4C685.375 226.4 693.575 235.9 693.575 247.9C693.575 255.7 690.675 262.1 684.275 265.3C691.575 268.8 695.375 276.1 695.375 284.9C695.375 299.2 685.775 309.6 668.775 309.6ZM668.775 293.2C673.875 293.2 676.775 288.7 676.775 282C676.775 275.3 673.975 270.7 668.775 270.7C663.575 270.7 660.775 275.3 660.775 282C660.775 288.7 663.675 293.2 668.775 293.2ZM668.775 259.1C673.075 259.1 675.275 255.6 675.275 250.9C675.275 246.4 673.075 242.8 668.775 242.8C664.475 242.8 662.275 246.4 662.275 250.9C662.275 255.6 664.475 259.1 668.775 259.1ZM724.364 309.6C709.064 309.6 700.564 299.7 700.564 289.6C700.564 280.4 707.564 276 714.564 276C716.064 276 717.364 276.2 718.564 276.5C717.864 277.9 717.164 280.3 717.164 283.4C717.164 289.4 719.564 293.6 724.364 293.6C729.064 293.6 732.164 289.6 732.164 282.3C732.164 272.9 726.364 269.6 718.064 269.6C713.764 269.6 708.964 270.5 704.764 272.4L709.564 226.5C713.964 227.6 720.364 228.9 728.464 228.9C735.464 228.9 741.064 227.9 744.964 226.4C745.364 228 745.664 229.9 745.664 232C745.664 238.4 742.764 245.7 732.764 245.7C730.464 245.7 727.564 245.3 724.064 244.1L723.164 254.1C739.764 254.1 749.964 264.4 749.964 281.7C749.964 299.2 739.764 309.6 724.364 309.6ZM776.073 308C777.473 303.1 777.973 297.6 777.973 291.9V245.7C777.973 240 777.173 234.6 774.973 230L794.473 226.4V255.8C798.673 252.6 803.573 251.4 808.473 251.4C820.673 251.4 826.573 259.7 826.573 269.7C826.573 277.1 823.473 282.4 816.973 285.4C819.873 293.2 823.973 300.6 829.473 308H809.973C806.573 302.1 804.073 295.8 802.773 289.6H794.473V291.9C794.473 297.6 794.973 303.1 796.373 308H776.073ZM794.473 278.9H801.673C806.573 278.9 809.573 276.2 809.573 272.1C809.573 268.6 807.373 265.8 803.273 265.8C798.573 265.8 794.473 269.5 794.473 277V278.9ZM834.967 308C836.367 303.1 836.867 297.6 836.867 291.9V270.5C836.867 264.8 836.067 259.4 833.867 254.8L851.767 251.6V260.1C854.567 254.4 858.967 251.4 864.667 251.4C871.367 251.4 877.267 255.7 877.267 264.2C877.267 272.5 871.767 276.6 863.667 276.6C865.467 269.7 863.067 266.6 859.467 266.6C854.167 266.6 853.367 273.1 853.367 283.3V291.9C853.367 297.6 854.167 303.1 856.267 308H834.967ZM882.688 309.6C876.388 309.6 871.688 304.7 871.688 298.6C871.688 292.5 876.388 287.6 882.688 287.6C888.988 287.6 893.688 292.5 893.688 298.6C893.688 304.7 888.988 309.6 882.688 309.6ZM58.6 420C60 415.1 60.5 409.6 60.5 403.9V382.5C60.5 376.8 59.7 371.4 57.5 366.8L77 363.4V403.9C77 409.6 77.5 415.1 78.9 420H58.6ZM68.2 356.8C60.9 356.8 57.9 352 57.9 347.6C57.9 343.2 60.9 338.4 68.2 338.4C75.5 338.4 78.5 343.2 78.5 347.6C78.5 352 75.5 356.8 68.2 356.8ZM106.166 420C107.566 415.1 108.066 409.6 108.066 403.9V356.1C108.066 350.4 107.566 344.9 106.166 340H127.566C126.166 344.9 125.666 350.4 125.666 356.1V372.2C132.966 363.1 139.866 351.2 141.566 340H161.566C157.866 351.6 152.866 360.3 143.466 370.7C154.066 372.9 158.666 382.1 159.666 393.1L160.766 404.7C161.366 411.2 163.366 415.8 166.866 420H146.066C143.966 415.4 143.266 411.3 142.966 407.1L142.166 393.8C141.766 387.5 138.866 384.4 134.066 384.4C129.266 384.4 125.666 387.5 125.666 393.9V403.9C125.666 409.6 126.366 415.1 128.166 420H106.166ZM171.679 420C173.079 415.1 173.579 409.6 173.579 403.9V357.7C173.579 352 172.779 346.6 170.579 342L190.079 338.4V403.9C190.079 409.6 190.579 415.1 191.979 420H171.679ZM216.134 421.6C205.134 421.6 197.734 414.8 197.734 404.5C197.734 394 205.434 388.7 217.034 388.7C222.134 388.7 226.234 389.8 229.134 391.7V385.3C229.134 380.2 226.034 377.9 221.834 377.9C218.034 377.9 214.734 379.8 214.734 383.6C214.734 384.5 214.934 385.6 215.234 386.5C208.534 387.9 200.734 384.7 200.734 376.9C200.734 367.9 211.034 363.4 221.934 363.4C235.934 363.4 245.634 371 245.634 382.9V403.3C245.634 409.5 247.234 414.6 250.734 418.3C247.834 420.2 244.434 421.6 240.734 421.6C236.634 421.6 232.934 420 231.134 415.1C227.934 419.1 222.834 421.6 216.134 421.6ZM221.934 408.9C226.434 408.9 229.734 406.9 229.734 403.6C229.734 400.3 226.434 398.4 221.934 398.4C217.434 398.4 214.234 400.3 214.234 403.6C214.234 406.9 217.434 408.9 221.934 408.9ZM274.891 421.6C263.491 421.6 253.591 416 253.591 407.1C253.591 399.2 261.591 396.3 268.391 397.7C267.991 398.7 267.791 400 267.791 401C267.791 405.1 270.991 407.6 274.891 407.6C278.491 407.6 281.091 405.5 281.091 402.5C281.091 399.1 277.891 397.4 273.591 396.4L267.791 395.1C260.591 393.5 254.291 389 254.291 380C254.291 370.9 260.791 363.4 275.591 363.4C282.291 363.4 289.491 364.9 293.991 368.3V385.1C289.191 380.3 281.491 377.5 275.491 377.5C272.191 377.5 270.491 378.3 270.491 380.1C270.491 381.8 271.991 382.4 275.491 383.2L280.891 384.5C288.991 386.5 297.591 390.7 297.591 402.1C297.591 413.9 288.091 421.6 274.891 421.6ZM323.72 421.6C312.32 421.6 302.42 416 302.42 407.1C302.42 399.2 310.42 396.3 317.22 397.7C316.82 398.7 316.62 400 316.62 401C316.62 405.1 319.82 407.6 323.72 407.6C327.32 407.6 329.92 405.5 329.92 402.5C329.92 399.1 326.72 397.4 322.42 396.4L316.62 395.1C309.42 393.5 303.12 389 303.12 380C303.12 370.9 309.62 363.4 324.42 363.4C331.12 363.4 338.32 364.9 342.82 368.3V385.1C338.02 380.3 330.32 377.5 324.32 377.5C321.02 377.5 319.32 378.3 319.32 380.1C319.32 381.8 320.82 382.4 324.32 383.2L329.72 384.5C337.82 386.5 346.42 390.7 346.42 402.1C346.42 413.9 336.92 421.6 323.72 421.6ZM376.748 421.6C360.348 421.6 351.248 408.7 351.248 392.4C351.248 377.1 359.148 363.4 375.848 363.4C390.348 363.4 397.348 373.6 397.948 388.8L369.248 398.5C371.448 404.3 376.248 406.3 382.048 406.3C387.648 406.3 392.748 404.4 396.648 400.9C398.048 410.2 392.248 421.6 376.748 421.6ZM368.148 388.5L382.748 383.5C382.248 380.6 380.148 377.6 376.148 377.6C371.048 377.6 368.548 382.4 368.148 388.5ZM403.612 420C405.013 415.1 405.513 409.6 405.513 403.9V357.7C405.513 352 404.713 346.6 402.513 342L422.013 338.4V403.9C422.013 409.6 422.513 415.1 423.913 420H403.612ZM455.368 421.6C436.768 421.6 429.568 408.5 429.568 392.5C429.568 376.5 436.768 363.4 455.368 363.4C473.968 363.4 481.168 376.5 481.168 392.5C481.168 408.5 473.968 421.6 455.368 421.6ZM455.368 406.3C461.068 406.3 464.168 401 464.168 392.5C464.168 384 461.068 378.7 455.368 378.7C449.668 378.7 446.568 384 446.568 392.5C446.568 401 449.668 406.3 455.368 406.3ZM503.613 421.6C498.013 421.6 492.413 418.4 492.413 407.3V380.1C490.713 380.1 487.313 380.3 485.413 381C484.613 378.5 484.213 376.2 484.213 374.1C484.213 368.1 487.513 365 492.813 365C492.813 361.8 491.913 359.3 491.913 357.1C491.913 352.3 496.413 348.5 503.213 348.5C505.713 348.5 508.013 349 510.113 349.7C509.213 354.5 508.913 359.5 508.913 365H521.713C521.713 361.8 520.813 359.3 520.813 357.1C520.813 352.3 525.313 348.5 532.113 348.5C534.613 348.5 536.913 349 539.013 349.7C538.113 354.5 537.813 359.5 537.813 365C541.613 365 545.613 364.5 548.913 363.4C549.513 365.8 549.713 367.9 549.713 369.6C549.713 376.8 546.313 380.1 540.213 380.1H537.813V403.3C537.813 409.5 539.413 414.6 542.913 418.3C539.813 420.3 536.113 421.6 532.513 421.6C526.913 421.6 521.313 418.4 521.313 407.3V380.1H508.913V403.3C508.913 409.5 510.513 414.6 514.013 418.3C510.913 420.3 507.213 421.6 503.613 421.6ZM576.455 421.6C560.055 421.6 550.955 408.7 550.955 392.4C550.955 377.1 558.855 363.4 575.555 363.4C590.055 363.4 597.055 373.6 597.655 388.8L568.955 398.5C571.155 404.3 575.955 406.3 581.755 406.3C587.355 406.3 592.455 404.4 596.355 400.9C597.755 410.2 591.955 421.6 576.455 421.6ZM567.855 388.5L582.455 383.5C581.955 380.6 579.855 377.6 575.855 377.6C570.755 377.6 568.255 382.4 567.855 388.5ZM603.62 420C605.02 415.1 605.52 409.6 605.52 403.9V382.5C605.52 376.8 604.72 371.4 602.52 366.8L620.42 363.6V372.1C623.22 366.4 627.62 363.4 633.32 363.4C640.02 363.4 645.92 367.7 645.92 376.2C645.92 384.5 640.42 388.6 632.32 388.6C634.12 381.7 631.72 378.6 628.12 378.6C622.82 378.6 622.02 385.1 622.02 395.3V403.9C622.02 409.6 622.82 415.1 624.92 420H603.62ZM650.202 420C651.602 415.1 652.102 409.6 652.102 403.9V382.5C652.102 376.8 651.302 371.4 649.102 366.8L668.602 363.4V403.9C668.602 409.6 669.102 415.1 670.502 420H650.202ZM659.802 356.8C652.502 356.8 649.502 352 649.502 347.6C649.502 343.2 652.502 338.4 659.802 338.4C667.102 338.4 670.102 343.2 670.102 347.6C670.102 352 667.102 356.8 659.802 356.8ZM701.748 421.6C685.348 421.6 676.248 408.7 676.248 392.4C676.248 377.1 684.148 363.4 700.848 363.4C715.348 363.4 722.348 373.6 722.948 388.8L694.248 398.5C696.448 404.3 701.248 406.3 707.048 406.3C712.648 406.3 717.748 404.4 721.648 400.9C723.048 410.2 717.248 421.6 701.748 421.6ZM693.148 388.5L707.748 383.5C707.248 380.6 705.148 377.6 701.148 377.6C696.048 377.6 693.548 382.4 693.148 388.5ZM745.313 421.6C739.713 421.6 734.113 418.4 734.113 407.3V380.1C732.413 380.1 729.013 380.3 727.113 381C726.313 378.5 725.913 376.2 725.913 374.1C725.913 368.1 729.213 365 734.513 365C734.513 361.8 733.613 359.3 733.613 357.1C733.613 352.3 738.113 348.5 744.913 348.5C747.413 348.5 749.713 349 751.813 349.7C750.913 354.5 750.613 359.5 750.613 365C754.413 365 758.413 364.5 761.713 363.4C762.313 365.8 762.513 367.9 762.513 369.6C762.513 376.8 759.113 380.1 753.013 380.1H750.613V403.3C750.613 409.5 752.213 414.6 755.713 418.3C752.613 420.3 748.913 421.6 745.313 421.6ZM83.2 533.6C64.6 533.6 57.4 520.5 57.4 504.5C57.4 488.5 64.6 475.4 83.2 475.4C101.8 475.4 109 488.5 109 504.5C109 520.5 101.8 533.6 83.2 533.6ZM83.2 518.3C88.9 518.3 92 513 92 504.5C92 496 88.9 490.7 83.2 490.7C77.5 490.7 74.4 496 74.4 504.5C74.4 513 77.5 518.3 83.2 518.3ZM149.834 553.6C150.234 547.6 144.434 545.6 137.634 544L130.034 542.3C122.934 540.6 116.734 538 116.734 530.8C116.734 526.1 119.334 522.7 124.534 520.7C117.534 516.2 114.634 508.1 114.634 499.9C114.634 488.5 120.234 477.3 134.534 475.6C133.734 472.1 132.934 467.4 132.934 463.5C132.934 453.8 138.234 450.4 143.134 450.4C147.934 450.4 152.034 453.7 152.034 459.1C152.034 466.8 143.834 468 143.334 475.8C156.934 477.9 162.234 488.8 162.234 499.9C162.234 512.3 155.634 524.4 138.434 524.4C135.534 524.4 133.134 524.8 133.134 526.9C133.134 528.5 134.534 529.4 138.434 529.9L150.334 531.2C158.534 532.1 164.834 535.4 164.834 542.2C164.834 550.9 154.734 553.5 149.834 553.6ZM138.434 509.6C143.334 509.6 146.034 505.3 146.034 499.9C146.034 494.5 143.334 490.2 138.434 490.2C133.534 490.2 130.834 494.5 130.834 499.9C130.834 505.3 133.534 509.6 138.434 509.6ZM188.085 532C189.485 527.1 189.985 521.6 189.985 515.9V469.7C189.985 464 189.185 458.6 186.985 454L206.485 450.4V481.8C209.085 477.7 213.185 475.4 219.185 475.4C231.885 475.4 235.985 485.4 235.985 497.2V515.9C235.985 521.6 236.485 527.1 237.885 532H217.585C218.985 527.1 219.485 521.6 219.485 515.9V498.7C219.485 493.7 217.885 490.6 214.085 490.6C208.585 490.6 206.485 497.1 206.485 505.3V515.9C206.485 521.6 206.985 527.1 208.385 532H188.085ZM269.04 533.6C250.44 533.6 243.24 520.5 243.24 504.5C243.24 488.5 250.44 475.4 269.04 475.4C287.64 475.4 294.84 488.5 294.84 504.5C294.84 520.5 287.64 533.6 269.04 533.6ZM269.04 518.3C274.74 518.3 277.84 513 277.84 504.5C277.84 496 274.74 490.7 269.04 490.7C263.34 490.7 260.24 496 260.24 504.5C260.24 513 263.34 518.3 269.04 518.3ZM300.585 532C301.985 527.1 302.485 521.6 302.485 515.9V469.7C302.485 464 301.685 458.6 299.485 454L318.985 450.4V515.9C318.985 521.6 319.485 527.1 320.885 532H300.585ZM347.741 533.6C333.741 533.6 326.541 520.5 326.541 504.5C326.541 488.5 333.741 475.4 347.741 475.4C352.941 475.4 357.341 477.1 360.541 480.9V469.7C360.541 464 359.741 458.6 357.541 454L377.041 450.4V515.3C377.041 521.5 378.641 526.6 382.141 530.3C379.241 532.2 375.841 533.6 372.141 533.6C367.741 533.6 363.641 531.5 362.141 525.9C358.941 531.1 353.841 533.6 347.741 533.6ZM352.241 518.3C357.741 518.3 360.741 513 360.741 504.5C360.741 496 357.741 490.7 352.241 490.7C346.641 490.7 343.541 496 343.541 504.5C343.541 513 346.641 518.3 352.241 518.3ZM410.732 533.6C394.332 533.6 385.232 520.7 385.232 504.4C385.232 489.1 393.132 475.4 409.832 475.4C424.332 475.4 431.332 485.6 431.932 500.8L403.232 510.5C405.432 516.3 410.232 518.3 416.032 518.3C421.632 518.3 426.732 516.4 430.632 512.9C432.032 522.2 426.232 533.6 410.732 533.6ZM402.132 500.5L416.732 495.5C416.232 492.6 414.132 489.6 410.132 489.6C405.032 489.6 402.532 494.4 402.132 500.5ZM437.897 532C439.297 527.1 439.797 521.6 439.797 515.9V494.5C439.797 488.8 438.997 483.4 436.797 478.8L454.697 475.6V484.1C457.497 478.4 461.897 475.4 467.597 475.4C474.297 475.4 480.197 479.7 480.197 488.2C480.197 496.5 474.697 500.6 466.597 500.6C468.397 493.7 465.997 490.6 462.397 490.6C457.097 490.6 456.297 497.1 456.297 507.3V515.9C456.297 521.6 457.097 527.1 459.197 532H437.897ZM58.6 644C60 639.1 60.5 633.6 60.5 627.9V606.5C60.5 600.8 59.7 595.4 57.5 590.8L75.4 587.6V596.1C78.2 590.4 82.6 587.4 88.3 587.4C95 587.4 100.9 591.7 100.9 600.2C100.9 608.5 95.4 612.6 87.3 612.6C89.1 605.7 86.7 602.6 83.1 602.6C77.8 602.6 77 609.1 77 619.3V627.9C77 633.6 77.8 639.1 79.9 644H58.6ZM105.182 644C106.582 639.1 107.082 633.6 107.082 627.9V606.5C107.082 600.8 106.282 595.4 104.082 590.8L123.582 587.4V627.9C123.582 633.6 124.082 639.1 125.482 644H105.182ZM114.782 580.8C107.482 580.8 104.482 576 104.482 571.6C104.482 567.2 107.482 562.4 114.782 562.4C122.082 562.4 125.082 567.2 125.082 571.6C125.082 576 122.082 580.8 114.782 580.8ZM166.728 665.6C167.128 659.6 161.328 657.6 154.528 656L146.928 654.3C139.828 652.6 133.628 650 133.628 642.8C133.628 638.1 136.228 634.7 141.428 632.7C134.428 628.2 131.528 620.1 131.528 611.9C131.528 600.5 137.128 589.3 151.428 587.6C150.628 584.1 149.828 579.4 149.828 575.5C149.828 565.8 155.128 562.4 160.028 562.4C164.828 562.4 168.928 565.7 168.928 571.1C168.928 578.8 160.728 580 160.228 587.8C173.828 589.9 179.128 600.8 179.128 611.9C179.128 624.3 172.528 636.4 155.328 636.4C152.428 636.4 150.028 636.8 150.028 638.9C150.028 640.5 151.428 641.4 155.328 641.9L167.228 643.2C175.428 644.1 181.728 647.4 181.728 654.2C181.728 662.9 171.628 665.5 166.728 665.6ZM155.328 621.6C160.228 621.6 162.928 617.3 162.928 611.9C162.928 606.5 160.228 602.2 155.328 602.2C150.428 602.2 147.728 606.5 147.728 611.9C147.728 617.3 150.428 621.6 155.328 621.6ZM201.66 645.6C196.06 645.6 190.46 642.4 190.46 631.3V604.1C188.76 604.1 185.36 604.3 183.46 605C182.66 602.5 182.26 600.2 182.26 598.1C182.26 592.1 185.56 589 190.86 589C190.86 585.8 189.96 583.3 189.96 581.1C189.96 576.3 194.46 572.5 201.26 572.5C203.76 572.5 206.06 573 208.16 573.7C207.26 578.5 206.96 583.5 206.96 589C210.76 589 214.76 588.5 218.06 587.4C218.66 589.8 218.86 591.9 218.86 593.6C218.86 600.8 215.46 604.1 209.36 604.1H206.96V627.3C206.96 633.5 208.56 638.6 212.06 642.3C208.96 644.3 205.26 645.6 201.66 645.6ZM223.151 644C224.551 639.1 225.051 633.6 225.051 627.9V606.5C225.051 600.8 224.251 595.4 222.051 590.8L241.551 587.4V627.9C241.551 633.6 242.051 639.1 243.451 644H223.151ZM232.751 580.8C225.451 580.8 222.451 576 222.451 571.6C222.451 567.2 225.451 562.4 232.751 562.4C240.051 562.4 243.051 567.2 243.051 571.6C243.051 576 240.051 580.8 232.751 580.8ZM284.697 665.6C285.097 659.6 279.297 657.6 272.497 656L264.897 654.3C257.797 652.6 251.597 650 251.597 642.8C251.597 638.1 254.197 634.7 259.397 632.7C252.397 628.2 249.497 620.1 249.497 611.9C249.497 600.5 255.097 589.3 269.397 587.6C268.597 584.1 267.797 579.4 267.797 575.5C267.797 565.8 273.097 562.4 277.997 562.4C282.797 562.4 286.897 565.7 286.897 571.1C286.897 578.8 278.697 580 278.197 587.8C291.797 589.9 297.097 600.8 297.097 611.9C297.097 624.3 290.497 636.4 273.297 636.4C270.397 636.4 267.997 636.8 267.997 638.9C267.997 640.5 269.397 641.4 273.297 641.9L285.197 643.2C293.397 644.1 299.697 647.4 299.697 654.2C299.697 662.9 289.597 665.5 284.697 665.6ZM273.297 621.6C278.197 621.6 280.897 617.3 280.897 611.9C280.897 606.5 278.197 602.2 273.297 602.2C268.397 602.2 265.697 606.5 265.697 611.9C265.697 617.3 268.397 621.6 273.297 621.6ZM319.629 645.6C314.029 645.6 308.429 642.4 308.429 631.3V604.1C306.729 604.1 303.329 604.3 301.429 605C300.629 602.5 300.229 600.2 300.229 598.1C300.229 592.1 303.529 589 308.829 589C308.829 585.8 307.929 583.3 307.929 581.1C307.929 576.3 312.429 572.5 319.229 572.5C321.729 572.5 324.029 573 326.129 573.7C325.229 578.5 324.929 583.5 324.929 589C328.729 589 332.729 588.5 336.029 587.4C336.629 589.8 336.829 591.9 336.829 593.6C336.829 600.8 333.429 604.1 327.329 604.1H324.929V627.3C324.929 633.5 326.529 638.6 330.029 642.3C326.929 644.3 323.229 645.6 319.629 645.6ZM392.039 645.6C385.739 645.6 380.539 643 377.339 637.3C375.739 641.3 372.039 644.6 366.039 644.6C363.739 644.6 361.839 644.1 360.339 643.4C362.239 638.9 362.739 633.6 362.739 627.9V581.7C362.739 576 361.939 570.6 359.739 566L379.239 562.4V592.9C382.439 589.1 386.839 587.4 392.039 587.4C406.039 587.4 413.239 600.5 413.239 616.5C413.239 632.5 406.039 645.6 392.039 645.6ZM387.539 630.3C393.139 630.3 396.239 625 396.239 616.5C396.239 608 393.139 602.7 387.539 602.7C382.039 602.7 379.039 608 379.039 616.5C379.039 625 382.039 630.3 387.539 630.3ZM419.245 644C420.645 639.1 421.145 633.6 421.145 627.9V606.5C421.145 600.8 420.345 595.4 418.145 590.8L436.045 587.6V596.1C438.845 590.4 443.245 587.4 448.945 587.4C455.645 587.4 461.545 591.7 461.545 600.2C461.545 608.5 456.045 612.6 447.945 612.6C449.745 605.7 447.345 602.6 443.745 602.6C438.445 602.6 437.645 609.1 437.645 619.3V627.9C437.645 633.6 438.445 639.1 440.545 644H419.245ZM473.627 664C476.727 659.1 479.227 653.8 481.227 648.5L482.827 644.2L468.927 604.6C467.127 599.2 464.927 593.9 462.527 589H484.827C483.727 592.9 484.227 597.2 485.527 601.6L491.527 622.2L498.327 601.5C499.727 597.2 500.327 592.9 499.227 589H519.927C517.527 593.9 515.427 599.2 513.527 604.5L496.827 651.6C495.327 655.9 494.627 660.1 495.827 664H473.627ZM522.07 644C523.47 639.1 523.97 633.6 523.97 627.9V581.7C523.97 576 523.17 570.6 520.97 566L540.47 562.4V627.9C540.47 633.6 540.97 639.1 542.37 644H522.07ZM548.925 644C550.325 639.1 550.825 633.6 550.825 627.9V581.7C550.825 576 550.025 570.6 547.825 566L567.325 562.4V627.9C567.325 633.6 567.825 639.1 569.225 644H548.925ZM600.38 645.6C583.98 645.6 574.88 632.7 574.88 616.4C574.88 601.1 582.78 587.4 599.48 587.4C613.98 587.4 620.98 597.6 621.58 612.8L592.88 622.5C595.08 628.3 599.88 630.3 605.68 630.3C611.28 630.3 616.38 628.4 620.28 624.9C621.68 634.2 615.88 645.6 600.38 645.6ZM591.78 612.5L606.38 607.5C605.88 604.6 603.78 601.6 599.78 601.6C594.68 601.6 592.18 606.4 591.78 612.5ZM645.545 645.6C632.845 645.6 628.745 635.6 628.745 623.8V606.5C628.745 600.8 627.945 595.4 625.745 590.8L645.245 587.4V622.3C645.245 627.3 646.845 630.4 650.645 630.4C656.145 630.4 658.245 623.9 658.245 615.7V606.5C658.245 600.8 657.445 595.4 655.245 590.8L674.745 587.4V627.3C674.745 633.5 676.345 638.6 679.845 642.3C676.945 644.2 673.545 645.6 669.845 645.6C665.345 645.6 661.245 643.6 659.745 637.6C656.845 643 652.345 645.6 645.545 645.6ZM684.577 664C685.977 659.1 686.477 653.6 686.477 647.9V606.5C686.477 600.8 685.677 595.4 683.477 590.8L701.377 587.6V595.2C704.577 589.9 709.677 587.4 715.777 587.4C729.777 587.4 736.977 600.5 736.977 616.5C736.977 632.5 729.777 645.6 715.777 645.6C710.577 645.6 706.177 643.9 702.977 640.1V647.9C702.977 653.6 703.777 659.1 705.877 664H684.577ZM711.277 630.3C716.877 630.3 719.977 625 719.977 616.5C719.977 608 716.877 602.7 711.277 602.7C705.777 602.7 702.777 608 702.777 616.5C702.777 625 705.777 630.3 711.277 630.3Z" fill="#FFF0D3"/>
<path d="M60.134 723.468C57.924 723.468 56.258 721.7 56.258 719.32C56.258 716.294 58.876 714.186 58.876 711.568C58.876 710.888 58.706 710.208 58.264 709.46C60.27 708.916 62.718 709.562 62.718 712.01C62.718 713.744 61.494 714.866 60.236 715.988C62.276 716.022 63.874 717.688 63.874 719.728C63.874 721.802 62.276 723.468 60.134 723.468ZM69.416 723.468C67.206 723.468 65.54 721.7 65.54 719.32C65.54 716.294 68.158 714.186 68.158 711.568C68.158 710.888 67.988 710.208 67.546 709.46C69.552 708.916 72 709.562 72 712.01C72 713.744 70.776 714.866 69.518 715.988C71.558 716.022 73.156 717.688 73.156 719.728C73.156 721.802 71.558 723.468 69.416 723.468ZM78.4398 737.544C73.2718 737.544 70.4158 734.178 70.4158 730.744C70.4158 727.616 72.7958 726.12 75.1758 726.12C75.6858 726.12 76.1278 726.188 76.5358 726.29C76.2978 726.766 76.0598 727.582 76.0598 728.636C76.0598 730.676 76.8758 731.968 78.4398 731.968C79.9358 731.968 80.8198 730.778 80.8198 727.922V715.274C80.8198 713.336 80.6158 711.466 79.9698 709.8H87.4498C86.9738 711.466 86.8038 713.336 86.8038 715.274V728.296C86.8038 734.076 83.5738 737.544 78.4398 737.544ZM97.9215 737.544C92.3455 737.544 89.2515 733.158 89.2515 727.616C89.2515 722.414 91.9375 717.756 97.6155 717.756C102.546 717.756 104.926 721.224 105.13 726.392L95.3715 729.69C96.1195 731.662 97.7515 732.342 99.7235 732.342C101.628 732.342 103.362 731.696 104.688 730.506C105.164 733.668 103.192 737.544 97.9215 737.544ZM94.9975 726.29L99.9615 724.59C99.7915 723.604 99.0775 722.584 97.7175 722.584C95.9835 722.584 95.1335 724.216 94.9975 726.29ZM118.986 744.344C119.122 742.304 117.15 741.624 114.838 741.08L112.254 740.502C109.84 739.924 107.732 739.04 107.732 736.592C107.732 734.994 108.616 733.838 110.384 733.158C108.004 731.628 107.018 728.874 107.018 726.086C107.018 722.21 108.922 718.402 113.784 717.824C113.512 716.634 113.24 715.036 113.24 713.71C113.24 710.412 115.042 709.256 116.708 709.256C118.34 709.256 119.734 710.378 119.734 712.214C119.734 714.832 116.946 715.24 116.776 717.892C121.4 718.606 123.202 722.312 123.202 726.086C123.202 730.302 120.958 734.416 115.11 734.416C114.124 734.416 113.308 734.552 113.308 735.266C113.308 735.81 113.784 736.116 115.11 736.286L119.156 736.728C121.944 737.034 124.086 738.156 124.086 740.468C124.086 743.426 120.652 744.31 118.986 744.344ZM115.11 729.384C116.776 729.384 117.694 727.922 117.694 726.086C117.694 724.25 116.776 722.788 115.11 722.788C113.444 722.788 112.526 724.25 112.526 726.086C112.526 727.922 113.444 729.384 115.11 729.384ZM137.669 737.544C135.765 737.544 133.861 736.456 133.861 732.682V723.434C133.283 723.434 132.127 723.502 131.481 723.74C131.209 722.89 131.073 722.108 131.073 721.394C131.073 719.354 132.195 718.3 133.997 718.3C133.997 717.212 133.691 716.362 133.691 715.614C133.691 713.982 135.221 712.69 137.533 712.69C138.383 712.69 139.165 712.86 139.879 713.098C139.573 714.73 139.471 716.43 139.471 718.3C140.763 718.3 142.123 718.13 143.245 717.756C143.449 718.572 143.517 719.286 143.517 719.864C143.517 722.312 142.361 723.434 140.287 723.434H139.471V731.322C139.471 733.43 140.015 735.164 141.205 736.422C140.151 737.102 138.893 737.544 137.669 737.544ZM144.976 737C145.452 735.334 145.622 733.464 145.622 731.526V724.25C145.622 722.312 145.35 720.476 144.602 718.912L150.688 717.824V720.714C151.64 718.776 153.136 717.756 155.074 717.756C157.352 717.756 159.358 719.218 159.358 722.108C159.358 724.93 157.488 726.324 154.734 726.324C155.346 723.978 154.53 722.924 153.306 722.924C151.504 722.924 151.232 725.134 151.232 728.602V731.526C151.232 733.464 151.504 735.334 152.218 737H144.976ZM169.012 737.544C162.688 737.544 160.24 733.09 160.24 727.65C160.24 722.21 162.688 717.756 169.012 717.756C175.336 717.756 177.784 722.21 177.784 727.65C177.784 733.09 175.336 737.544 169.012 737.544ZM169.012 732.342C170.95 732.342 172.004 730.54 172.004 727.65C172.004 724.76 170.95 722.958 169.012 722.958C167.074 722.958 166.02 724.76 166.02 727.65C166.02 730.54 167.074 732.342 169.012 732.342ZM188.433 737.544C182.857 737.544 179.763 733.158 179.763 727.616C179.763 722.414 182.449 717.756 188.127 717.756C193.057 717.756 195.437 721.224 195.641 726.392L185.883 729.69C186.631 731.662 188.263 732.342 190.235 732.342C192.139 732.342 193.873 731.696 195.199 730.506C195.675 733.668 193.703 737.544 188.433 737.544ZM185.509 726.29L190.473 724.59C190.303 723.604 189.589 722.584 188.229 722.584C186.495 722.584 185.645 724.216 185.509 726.29ZM204.801 737.544C200.041 737.544 197.593 733.09 197.593 727.65C197.593 722.21 200.041 717.756 204.801 717.756C206.569 717.756 208.065 718.334 209.153 719.626V715.818C209.153 713.88 208.881 712.044 208.133 710.48L214.763 709.256V731.322C214.763 733.43 215.307 735.164 216.497 736.422C215.511 737.068 214.355 737.544 213.097 737.544C211.601 737.544 210.207 736.83 209.697 734.926C208.609 736.694 206.875 737.544 204.801 737.544ZM206.331 732.342C208.201 732.342 209.221 730.54 209.221 727.65C209.221 724.76 208.201 722.958 206.331 722.958C204.427 722.958 203.373 724.76 203.373 727.65C203.373 730.54 204.427 732.342 206.331 732.342ZM226.218 737.544C220.642 737.544 217.548 733.158 217.548 727.616C217.548 722.414 220.234 717.756 225.912 717.756C230.842 717.756 233.222 721.224 233.426 726.392L223.668 729.69C224.416 731.662 226.048 732.342 228.02 732.342C229.924 732.342 231.658 731.696 232.984 730.506C233.46 733.668 231.488 737.544 226.218 737.544ZM223.294 726.29L228.258 724.59C228.088 723.604 227.374 722.584 226.014 722.584C224.28 722.584 223.43 724.216 223.294 726.29ZM244.981 744.344C243.757 744.344 242.465 743.902 241.275 743.222C242.363 742.1 243.009 740.91 243.009 738.122V724.182C243.009 722.244 242.873 720.476 241.955 718.912L248.619 717.756V740.162C248.619 743.256 246.885 744.344 244.981 744.344ZM245.797 715.512C243.315 715.512 242.295 713.88 242.295 712.384C242.295 710.888 243.315 709.256 245.797 709.256C248.279 709.256 249.299 710.888 249.299 712.384C249.299 713.88 248.279 715.512 245.797 715.512ZM260.154 737.544C253.83 737.544 251.382 733.09 251.382 727.65C251.382 722.21 253.83 717.756 260.154 717.756C266.478 717.756 268.926 722.21 268.926 727.65C268.926 733.09 266.478 737.544 260.154 737.544ZM260.154 732.342C262.092 732.342 263.146 730.54 263.146 727.65C263.146 724.76 262.092 722.958 260.154 722.958C258.216 722.958 257.162 724.76 257.162 727.65C257.162 730.54 258.216 732.342 260.154 732.342ZM277.788 737C278.264 735.334 278.434 733.464 278.434 731.526V724.25C278.434 722.312 278.162 720.476 277.414 718.912L284.044 717.756V731.526C284.044 733.464 284.214 735.334 284.69 737H277.788ZM281.052 715.512C278.57 715.512 277.55 713.88 277.55 712.384C277.55 710.888 278.57 709.256 281.052 709.256C283.534 709.256 284.554 710.888 284.554 712.384C284.554 713.88 283.534 715.512 281.052 715.512ZM286.95 737C287.426 735.334 287.596 733.464 287.596 731.526V715.818C287.596 713.88 287.324 712.044 286.576 710.48L293.206 709.256V719.252C294.634 718.164 296.3 717.756 297.966 717.756C302.114 717.756 304.12 720.578 304.12 723.978C304.12 726.494 303.066 728.296 300.856 729.316C301.842 731.968 303.236 734.484 305.106 737H298.476C297.32 734.994 296.47 732.852 296.028 730.744H293.206V731.526C293.206 733.464 293.376 735.334 293.852 737H286.95ZM293.206 727.106H295.654C297.32 727.106 298.34 726.188 298.34 724.794C298.34 723.604 297.592 722.652 296.198 722.652C294.6 722.652 293.206 723.91 293.206 726.46V727.106ZM306.872 737C307.348 735.334 307.518 733.464 307.518 731.526V715.818C307.518 713.88 307.246 712.044 306.498 710.48L313.128 709.256V719.252C314.556 718.164 316.222 717.756 317.888 717.756C322.036 717.756 324.042 720.578 324.042 723.978C324.042 726.494 322.988 728.296 320.778 729.316C321.764 731.968 323.158 734.484 325.028 737H318.398C317.242 734.994 316.392 732.852 315.95 730.744H313.128V731.526C313.128 733.464 313.298 735.334 313.774 737H306.872ZM313.128 727.106H315.576C317.242 727.106 318.262 726.188 318.262 724.794C318.262 723.604 317.514 722.652 316.12 722.652C314.522 722.652 313.128 723.91 313.128 726.46V727.106ZM334.726 737.544C329.15 737.544 326.056 733.158 326.056 727.616C326.056 722.414 328.742 717.756 334.42 717.756C339.35 717.756 341.73 721.224 341.934 726.392L332.176 729.69C332.924 731.662 334.556 732.342 336.528 732.342C338.432 732.342 340.166 731.696 341.492 730.506C341.968 733.668 339.996 737.544 334.726 737.544ZM331.802 726.29L336.766 724.59C336.596 723.604 335.882 722.584 334.522 722.584C332.788 722.584 331.938 724.216 331.802 726.29ZM350.769 743.8C351.245 742.134 351.415 740.264 351.415 738.326V724.25C351.415 722.312 351.143 720.476 350.395 718.912L356.481 717.824V720.408C357.569 718.606 359.303 717.756 361.377 717.756C366.137 717.756 368.585 722.21 368.585 727.65C368.585 733.09 366.137 737.544 361.377 737.544C359.609 737.544 358.113 736.966 357.025 735.674V738.326C357.025 740.264 357.297 742.134 358.011 743.8H350.769ZM359.847 732.342C361.751 732.342 362.805 730.54 362.805 727.65C362.805 724.76 361.751 722.958 359.847 722.958C357.977 722.958 356.957 724.76 356.957 727.65C356.957 730.54 357.977 732.342 359.847 732.342ZM376.506 737.544C372.766 737.544 370.25 735.232 370.25 731.73C370.25 728.16 372.868 726.358 376.812 726.358C378.546 726.358 379.94 726.732 380.926 727.378V725.202C380.926 723.468 379.872 722.686 378.444 722.686C377.152 722.686 376.03 723.332 376.03 724.624C376.03 724.93 376.098 725.304 376.2 725.61C373.922 726.086 371.27 724.998 371.27 722.346C371.27 719.286 374.772 717.756 378.478 717.756C383.238 717.756 386.536 720.34 386.536 724.386V731.322C386.536 733.43 387.08 735.164 388.27 736.422C387.284 737.068 386.128 737.544 384.87 737.544C383.476 737.544 382.218 737 381.606 735.334C380.518 736.694 378.784 737.544 376.506 737.544ZM378.478 733.226C380.008 733.226 381.13 732.546 381.13 731.424C381.13 730.302 380.008 729.656 378.478 729.656C376.948 729.656 375.86 730.302 375.86 731.424C375.86 732.546 376.948 733.226 378.478 733.226ZM378.478 716.226C376.132 716.226 374.364 714.56 374.364 712.282C374.364 710.004 376.132 708.338 378.478 708.338C380.824 708.338 382.592 710.004 382.592 712.282C382.592 714.56 380.824 716.226 378.478 716.226ZM378.478 714.254C379.702 714.254 380.552 713.438 380.552 712.282C380.552 711.126 379.702 710.31 378.478 710.31C377.254 710.31 376.404 711.126 376.404 712.282C376.404 713.438 377.254 714.254 378.478 714.254ZM403.256 737.544C398.496 737.544 396.048 733.09 396.048 727.65C396.048 722.21 398.496 717.756 403.256 717.756C405.024 717.756 406.52 718.334 407.608 719.626V715.818C407.608 713.88 407.336 712.044 406.588 710.48L413.218 709.256V731.322C413.218 733.43 413.762 735.164 414.952 736.422C413.966 737.068 412.81 737.544 411.552 737.544C410.056 737.544 408.662 736.83 408.152 734.926C407.064 736.694 405.33 737.544 403.256 737.544ZM404.786 732.342C406.656 732.342 407.676 730.54 407.676 727.65C407.676 724.76 406.656 722.958 404.786 722.958C402.882 722.958 401.828 724.76 401.828 727.65C401.828 730.54 402.882 732.342 404.786 732.342ZM424.674 737.544C419.098 737.544 416.004 733.158 416.004 727.616C416.004 722.414 418.69 717.756 424.368 717.756C429.298 717.756 431.678 721.224 431.882 726.392L422.124 729.69C422.872 731.662 424.504 732.342 426.476 732.342C428.38 732.342 430.114 731.696 431.44 730.506C431.916 733.668 429.944 737.544 424.674 737.544ZM421.75 726.29L426.714 724.59C426.544 723.604 425.83 722.584 424.47 722.584C422.736 722.584 421.886 724.216 421.75 726.29ZM439.486 737.544C437.582 737.544 435.678 736.456 435.678 732.682V723.434C435.1 723.434 433.944 723.502 433.298 723.74C433.026 722.89 432.89 722.108 432.89 721.394C432.89 719.354 434.012 718.3 435.814 718.3C435.814 717.212 435.508 716.362 435.508 715.614C435.508 713.982 437.038 712.69 439.35 712.69C440.2 712.69 440.982 712.86 441.696 713.098C441.39 714.73 441.288 716.43 441.288 718.3C442.58 718.3 443.94 718.13 445.062 717.756C445.266 718.572 445.334 719.286 445.334 719.864C445.334 722.312 444.178 723.434 442.104 723.434H441.288V731.322C441.288 733.43 441.832 735.164 443.022 736.422C441.968 737.102 440.71 737.544 439.486 737.544ZM453.599 737C454.075 735.334 454.245 733.464 454.245 731.526V724.25C454.245 722.312 453.973 720.476 453.225 718.912L459.855 717.756V731.526C459.855 733.464 460.025 735.334 460.501 737H453.599ZM456.863 715.512C454.381 715.512 453.361 713.88 453.361 712.384C453.361 710.888 454.381 709.256 456.863 709.256C459.345 709.256 460.365 710.888 460.365 712.384C460.365 713.88 459.345 715.512 456.863 715.512ZM471.437 737C471.913 735.334 472.083 733.464 472.083 731.526V723.366C471.063 723.4 470.077 723.502 469.261 723.74C468.887 722.822 468.649 721.972 468.649 721.156C468.649 719.694 469.397 718.572 471.471 718.334C470.689 716.804 470.349 715.682 470.349 714.56C470.349 711.16 473.477 709.256 477.387 709.256C480.413 709.256 483.269 710.446 483.269 713.064C483.269 715.648 480.481 716.09 478.781 716.124C478.815 715.92 478.815 715.784 478.815 715.648C478.815 714.73 478.407 714.152 477.591 714.152C476.911 714.152 476.163 714.56 476.163 715.58C476.163 716.362 476.639 717.416 477.251 718.3H478.441C480.005 718.3 481.263 718.13 482.317 717.824C482.521 718.64 482.623 719.354 482.623 720C482.623 722.21 481.399 723.434 479.359 723.434H477.693V731.526C477.693 733.464 477.965 735.334 478.679 737H471.437ZM491.947 737.544C489.805 737.544 488.105 737.034 486.813 736.15L486.133 737H482.733L484.909 734.28C483.719 732.546 483.175 730.2 483.175 727.65C483.175 722.21 485.623 717.756 491.947 717.756C494.055 717.756 495.721 718.232 497.047 719.116L497.727 718.3H501.127L498.951 721.02C500.175 722.754 500.719 725.1 500.719 727.65C500.719 733.09 498.271 737.544 491.947 737.544ZM491.947 732.478C493.885 732.478 494.939 730.54 494.939 727.65C494.939 727.14 494.905 726.63 494.837 726.188L490.281 731.866C490.689 732.24 491.267 732.478 491.947 732.478ZM489.057 729.112L493.613 723.434C493.205 723.06 492.627 722.822 491.947 722.822C490.009 722.822 488.955 724.76 488.955 727.65C488.955 728.16 488.989 728.67 489.057 729.112ZM502.839 737C503.315 735.334 503.485 733.464 503.485 731.526V724.25C503.485 722.312 503.213 720.476 502.465 718.912L508.551 717.824V720.714C509.503 718.776 510.999 717.756 512.937 717.756C515.215 717.756 517.221 719.218 517.221 722.108C517.221 724.93 515.351 726.324 512.597 726.324C513.209 723.978 512.393 722.924 511.169 722.924C509.367 722.924 509.095 725.134 509.095 728.602V731.526C509.095 733.464 509.367 735.334 510.081 737H502.839ZM525.511 737.544C521.635 737.544 518.269 735.64 518.269 732.614C518.269 729.928 520.989 728.942 523.301 729.418C523.165 729.758 523.097 730.2 523.097 730.54C523.097 731.934 524.185 732.784 525.511 732.784C526.735 732.784 527.619 732.07 527.619 731.05C527.619 729.894 526.531 729.316 525.069 728.976L523.097 728.534C520.649 727.99 518.507 726.46 518.507 723.4C518.507 720.306 520.717 717.756 525.749 717.756C528.027 717.756 530.475 718.266 532.005 719.422V725.134C530.373 723.502 527.755 722.55 525.715 722.55C524.593 722.55 524.015 722.822 524.015 723.434C524.015 724.012 524.525 724.216 525.715 724.488L527.551 724.93C530.305 725.61 533.229 727.038 533.229 730.914C533.229 734.926 529.999 737.544 525.511 737.544ZM540.523 737.544C538.619 737.544 536.715 736.456 536.715 732.682V723.434C536.137 723.434 534.981 723.502 534.335 723.74C534.063 722.89 533.927 722.108 533.927 721.394C533.927 719.354 535.049 718.3 536.851 718.3C536.851 717.212 536.545 716.362 536.545 715.614C536.545 713.982 538.075 712.69 540.387 712.69C541.237 712.69 542.019 712.86 542.733 713.098C542.427 714.73 542.325 716.43 542.325 718.3C543.617 718.3 544.977 718.13 546.099 717.756C546.303 718.572 546.371 719.286 546.371 719.864C546.371 722.312 545.215 723.434 543.141 723.434H542.325V731.322C542.325 733.43 542.869 735.164 544.059 736.422C543.005 737.102 541.747 737.544 540.523 737.544ZM555.461 737.544C549.885 737.544 546.791 733.158 546.791 727.616C546.791 722.414 549.477 717.756 555.155 717.756C560.085 717.756 562.465 721.224 562.669 726.392L552.911 729.69C553.659 731.662 555.291 732.342 557.263 732.342C559.167 732.342 560.901 731.696 562.227 730.506C562.703 733.668 560.731 737.544 555.461 737.544ZM552.537 726.29L557.501 724.59C557.331 723.604 556.617 722.584 555.257 722.584C553.523 722.584 552.673 724.216 552.537 726.29ZM579.867 737.544C573.543 737.544 571.095 733.09 571.095 727.65C571.095 722.21 573.543 717.756 579.867 717.756C586.191 717.756 588.639 722.21 588.639 727.65C588.639 733.09 586.191 737.544 579.867 737.544ZM579.867 732.342C581.805 732.342 582.859 730.54 582.859 727.65C582.859 724.76 581.805 722.958 579.867 722.958C577.929 722.958 576.875 724.76 576.875 727.65C576.875 730.54 577.929 732.342 579.867 732.342ZM590.695 737C591.171 735.334 591.341 733.464 591.341 731.526V724.25C591.341 722.312 591.069 720.476 590.321 718.912L596.407 717.824V720.442C597.359 718.64 598.889 717.756 601.167 717.756C603.751 717.756 605.213 718.946 605.995 720.816C606.913 718.81 608.477 717.756 610.925 717.756C615.243 717.756 616.467 721.156 616.467 725.168V731.526C616.467 733.464 616.637 735.334 617.113 737H610.211C610.687 735.334 610.857 733.464 610.857 731.526V725.678C610.857 723.978 610.313 722.924 609.021 722.924C607.151 722.924 606.709 725.134 606.709 727.922V731.526C606.709 733.464 606.879 735.334 607.355 737H600.453C600.929 735.334 601.099 733.464 601.099 731.526V725.678C601.099 723.978 600.555 722.924 599.263 722.924C597.393 722.924 596.951 725.134 596.951 727.922V731.526C596.951 733.464 597.121 735.334 597.597 737H590.695ZM631.011 744.344C631.147 742.304 629.175 741.624 626.863 741.08L624.279 740.502C621.865 739.924 619.757 739.04 619.757 736.592C619.757 734.994 620.641 733.838 622.409 733.158C620.029 731.628 619.043 728.874 619.043 726.086C619.043 722.21 620.947 718.402 625.809 717.824C625.537 716.634 625.265 715.036 625.265 713.71C625.265 710.412 627.067 709.256 628.733 709.256C630.365 709.256 631.759 710.378 631.759 712.214C631.759 714.832 628.971 715.24 628.801 717.892C633.425 718.606 635.227 722.312 635.227 726.086C635.227 730.302 632.983 734.416 627.135 734.416C626.149 734.416 625.333 734.552 625.333 735.266C625.333 735.81 625.809 736.116 627.135 736.286L631.181 736.728C633.969 737.034 636.111 738.156 636.111 740.468C636.111 743.426 632.677 744.31 631.011 744.344ZM627.135 729.384C628.801 729.384 629.719 727.922 629.719 726.086C629.719 724.25 628.801 722.788 627.135 722.788C625.469 722.788 624.551 724.25 624.551 726.086C624.551 727.922 625.469 729.384 627.135 729.384ZM643.028 737.544C639.288 737.544 636.772 735.232 636.772 731.73C636.772 728.16 639.39 726.358 643.334 726.358C645.068 726.358 646.462 726.732 647.448 727.378V725.202C647.448 723.468 646.394 722.686 644.966 722.686C643.674 722.686 642.552 723.332 642.552 724.624C642.552 724.93 642.62 725.304 642.722 725.61C640.444 726.086 637.792 724.998 637.792 722.346C637.792 719.286 641.294 717.756 645 717.756C649.76 717.756 653.058 720.34 653.058 724.386V731.322C653.058 733.43 653.602 735.164 654.792 736.422C653.806 737.068 652.65 737.544 651.392 737.544C649.998 737.544 648.74 737 648.128 735.334C647.04 736.694 645.306 737.544 643.028 737.544ZM645 733.226C646.53 733.226 647.652 732.546 647.652 731.424C647.652 730.302 646.53 729.656 645 729.656C643.47 729.656 642.382 730.302 642.382 731.424C642.382 732.546 643.47 733.226 645 733.226ZM656.171 737C656.647 735.334 656.817 733.464 656.817 731.526V724.25C656.817 722.312 656.545 720.476 655.797 718.912L661.883 717.824V720.544C662.835 718.708 664.433 717.756 666.745 717.756C671.063 717.756 672.457 721.156 672.457 725.168V731.526C672.457 733.464 672.627 735.334 673.103 737H666.201C666.677 735.334 666.847 733.464 666.847 731.526V725.678C666.847 723.978 666.303 722.924 665.011 722.924C663.141 722.924 662.427 725.134 662.427 727.922V731.526C662.427 733.464 662.597 735.334 663.073 737H656.171ZM687.025 744.344C687.161 742.304 685.189 741.624 682.877 741.08L680.293 740.502C677.879 739.924 675.771 739.04 675.771 736.592C675.771 734.994 676.655 733.838 678.423 733.158C676.043 731.628 675.057 728.874 675.057 726.086C675.057 722.21 676.961 718.402 681.823 717.824C681.551 716.634 681.279 715.036 681.279 713.71C681.279 710.412 683.081 709.256 684.747 709.256C686.379 709.256 687.773 710.378 687.773 712.214C687.773 714.832 684.985 715.24 684.815 717.892C689.439 718.606 691.241 722.312 691.241 726.086C691.241 730.302 688.997 734.416 683.149 734.416C682.163 734.416 681.347 734.552 681.347 735.266C681.347 735.81 681.823 736.116 683.149 736.286L687.195 736.728C689.983 737.034 692.125 738.156 692.125 740.468C692.125 743.426 688.691 744.31 687.025 744.344ZM683.149 729.384C684.815 729.384 685.733 727.922 685.733 726.086C685.733 724.25 684.815 722.788 683.149 722.788C681.483 722.788 680.565 724.25 680.565 726.086C680.565 727.922 681.483 729.384 683.149 729.384ZM697.608 723.23C695.602 723.774 693.154 723.128 693.154 720.68C693.154 718.946 694.378 717.824 695.636 716.702C693.596 716.668 691.998 715.002 691.998 712.962C691.998 710.888 693.596 709.222 695.738 709.222C697.948 709.222 699.614 710.99 699.614 713.37C699.614 716.396 696.996 718.504 696.996 721.122C696.996 721.802 697.166 722.482 697.608 723.23ZM706.89 723.23C704.884 723.774 702.436 723.128 702.436 720.68C702.436 718.946 703.66 717.824 704.918 716.702C702.878 716.668 701.28 715.002 701.28 712.962C701.28 710.888 702.878 709.222 705.02 709.222C707.23 709.222 708.896 710.99 708.896 713.37C708.896 716.396 706.278 718.504 706.278 721.122C706.278 721.802 706.448 722.482 706.89 723.23Z" fill="#5F141E"/>
</svg>
