<svg width="1080" height="1080" viewBox="0 0 1080 1080" fill="none" xmlns="http://www.w3.org/2000/svg">
<rect width="1080" height="1080" fill="#F41116"/>
<path fill-rule="evenodd" clip-rule="evenodd" d="M366.866 84.413C370.059 78.5269 372.691 71.8 373.755 66.0829C376.108 66.4193 378.629 66.5874 381.373 66.5874C384.51 66.5874 386.919 66.3635 389.047 66.0271C389.999 70.623 387.814 75.3317 382.045 75.3317C381.597 75.3317 381.149 75.2754 380.701 75.2193C379.525 78.246 378.18 80.9373 376.669 83.3474C383.558 85.2529 388.879 90.5225 388.879 99.2665C388.879 108.067 383.614 113 377.844 113C374.54 113 372.075 111.374 370.955 108.964C374.932 108.403 379.469 105.601 379.469 100.107C379.469 94.278 374.316 90.2983 366.866 89.9619V102.406C366.866 105.601 367.146 108.684 367.931 111.43H356.56C357.344 108.684 357.624 105.601 357.624 102.406V76.229C357.624 73.0342 357.232 70.0071 356 67.4283L366.866 65.6907V84.413ZM417.953 79.7041C425.571 79.7042 431.004 83.7965 431.004 90.5787V102.125C431.004 105.601 431.956 108.516 433.86 110.533C432.348 111.542 430.499 112.327 428.539 112.327C426.299 112.327 424.283 111.374 423.33 108.572C421.538 110.87 418.625 112.327 414.873 112.327C408.823 112.327 404.567 108.572 404.567 102.742C404.567 96.8002 408.991 93.7733 415.377 93.7733C418.289 93.7733 420.698 94.3905 422.378 95.6232V91.8111C422.378 88.7283 420.473 87.3277 417.897 87.3277C415.545 87.3277 413.64 88.5603 413.64 90.8028C413.64 91.3633 413.752 91.9793 413.92 92.4837C410.391 93.2126 406.19 91.4752 406.19 87.2711C406.19 82.3384 411.848 79.7041 417.953 79.7041ZM446.41 79.7041C450.219 79.7042 454.196 80.6015 456.716 82.563V91.5312C454.028 88.7843 449.771 87.1031 446.354 87.103C444.282 87.103 443.161 87.7198 443.161 88.8963C443.161 89.9615 444.057 90.354 446.13 90.8586L449.322 91.6436C453.972 92.8203 458.621 95.2315 458.621 101.509C458.621 108.235 453.299 112.327 446.074 112.327C439.632 112.327 434.199 109.02 434.199 104.087C434.199 99.771 438.512 98.2021 442.096 98.9301C441.872 99.4907 441.76 100.276 441.76 100.892C441.76 103.471 443.722 104.928 446.074 104.928C448.315 104.928 449.938 103.639 449.938 101.733C449.938 99.6589 448.09 98.6502 445.514 98.0335L442.209 97.2484C438.288 96.3513 434.647 93.8294 434.647 88.8405C434.647 83.7401 438.456 79.7041 446.41 79.7041ZM472.401 79.7041C476.21 79.7042 480.186 80.6015 482.707 82.563V91.5312C480.019 88.7843 475.762 87.1031 472.345 87.103C470.273 87.103 469.152 87.7198 469.152 88.8963C469.152 89.9615 470.049 90.354 472.121 90.8586L475.314 91.6436C479.963 92.8203 484.612 95.2315 484.612 101.509C484.612 108.235 479.291 112.327 472.065 112.327C465.624 112.327 460.191 109.02 460.191 104.087C460.191 99.771 464.503 98.2021 468.087 98.9301C467.864 99.4907 467.752 100.276 467.752 100.892C467.752 103.471 469.713 104.928 472.065 104.928C474.306 104.928 475.929 103.639 475.929 101.733C475.929 99.6589 474.081 98.6502 471.504 98.0335L468.2 97.2484C464.279 96.3513 460.639 93.8294 460.639 88.8405C460.639 83.7401 464.448 79.7041 472.401 79.7041ZM500.186 79.7041C508.083 79.7042 512.06 85.3651 512.396 93.661L495.984 99.3223C497.161 102.91 500.073 104.312 503.49 104.312C506.738 104.312 509.595 103.134 511.724 101.116C512.395 106.217 509.091 112.327 500.745 112.327C491.728 112.327 486.519 105.209 486.519 95.9596C486.519 87.2717 491.111 79.7041 500.186 79.7041ZM542.254 79.7041C552.391 79.7041 556.536 86.9351 556.536 96.0154C556.536 105.096 552.391 112.327 542.254 112.327C532.059 112.327 527.971 105.096 527.971 96.0154C527.971 86.9351 532.059 79.7041 542.254 79.7041ZM583.858 71.3521C585.145 71.3521 586.322 71.6323 587.498 72.0248C586.993 74.7712 586.826 77.6302 586.826 80.6015C588.954 80.6015 591.139 80.3208 593.043 79.7041C593.379 80.9929 593.491 82.0582 593.491 82.9552C593.491 86.7669 591.698 88.5041 588.393 88.5041H586.826V102.125C586.826 105.657 587.777 108.516 589.682 110.533C588.057 111.598 586.098 112.327 584.192 112.327C581.112 112.327 578.199 110.421 578.199 104.255V88.5041H570.862V102.125C570.862 105.657 571.815 108.516 573.719 110.533C572.095 111.598 570.134 112.327 568.174 112.327C565.149 112.327 562.236 110.421 562.236 104.255V88.5041C561.228 88.5042 559.379 88.6163 558.259 89.0087C557.811 87.6639 557.643 86.4866 557.643 85.3655C557.643 82.1706 559.492 80.6016 562.46 80.6015C562.46 78.8075 561.956 77.2938 561.956 76.0044C561.956 73.4263 564.309 71.3521 567.893 71.3521C569.182 71.3521 570.358 71.6323 571.534 72.0248C571.03 74.7712 570.862 77.6302 570.862 80.6015H578.423C578.423 78.8075 577.919 77.2938 577.919 76.0044C577.919 73.4263 580.273 71.3521 583.858 71.3521ZM607.457 79.7041C615.354 79.7041 619.331 85.3651 619.667 93.661L603.257 99.3223C604.433 102.91 607.345 104.312 610.762 104.312C614.01 104.312 616.867 103.134 618.996 101.116C619.667 106.217 616.363 112.327 608.018 112.327C598.999 112.327 593.791 105.209 593.791 95.9596C593.791 87.2718 598.383 79.7042 607.457 79.7041ZM673.893 79.7041C681.791 79.7042 685.768 85.3651 686.104 93.661L669.692 99.3223C670.869 102.91 673.781 104.312 677.197 104.312C680.446 104.312 683.303 103.134 685.431 101.116C686.103 106.217 682.799 112.327 674.453 112.327C665.435 112.327 660.226 105.209 660.226 95.9596C660.226 87.2717 664.819 79.7041 673.893 79.7041ZM697.46 71.3521C698.748 71.3521 699.925 71.6323 701.101 72.0248C700.597 74.7712 700.428 77.6302 700.428 80.6015C702.557 80.6015 704.741 80.3208 706.646 79.7041C706.982 80.9929 707.093 82.0582 707.093 82.9552C707.093 86.7669 705.302 88.5041 701.997 88.5041H700.428V102.125C700.428 105.657 701.381 108.516 703.284 110.533C701.661 111.598 699.7 112.327 697.74 112.327C694.715 112.327 691.803 110.421 691.803 104.255V88.5041C690.795 88.5041 688.945 88.6162 687.826 89.0087C687.378 87.6639 687.21 86.4866 687.21 85.3655C687.21 82.1705 689.058 80.6015 692.027 80.6015C692.027 78.8075 691.523 77.2938 691.523 76.0044C691.523 73.4263 693.875 71.3522 697.46 71.3521ZM656.976 102.406C656.976 105.545 657.256 108.74 657.984 111.431H647.286C648.014 108.74 648.294 105.545 648.294 102.406V90.3548C648.294 87.1598 647.846 84.0769 646.67 81.554L656.976 79.7041V102.406ZM401.765 102.406C401.765 105.545 402.045 108.74 402.773 111.43H392.13C392.859 108.74 393.139 105.545 393.139 102.406V73.9304C393.139 70.7355 392.691 68.045 391.515 65.6349C394.931 65.0182 398.684 64.0652 401.765 63V102.406ZM524.721 102.406C524.721 105.545 525.001 108.74 525.728 111.43H515.086C515.815 108.74 516.094 105.545 516.094 102.406V73.9304C516.094 70.7355 515.646 68.045 514.47 65.6349C517.887 65.0182 521.64 64.0652 524.721 63V102.406ZM638.602 79.7041C642.355 79.7042 645.547 82.1143 645.547 86.7108C645.547 91.1952 642.579 93.3247 638.322 93.3247C639.33 89.5131 637.986 87.664 635.914 87.664C632.833 87.6642 632.217 91.4197 632.217 97.1368V102.406C632.217 105.545 632.61 108.74 633.729 111.43H622.526C623.254 108.74 623.535 105.545 623.535 102.406V90.3541C623.535 87.1592 623.087 84.0762 621.911 81.5533L631.432 79.8165V84.5245C633.001 81.3857 635.41 79.7041 638.602 79.7041ZM417.897 98.986C415.153 98.986 413.248 100.219 413.248 102.294C413.248 104.311 415.153 105.601 417.897 105.601C420.641 105.601 422.658 104.311 422.658 102.294C422.658 100.219 420.641 98.986 417.897 98.986ZM542.254 87.7199C538.837 87.7199 536.931 90.8588 536.931 96.0154C536.931 101.172 538.837 104.312 542.254 104.312C545.67 104.312 547.63 101.172 547.63 96.0154C547.63 90.8588 545.67 87.7199 542.254 87.7199ZM500.353 87.1595C497.273 87.1595 495.704 90.018 495.424 93.8856L504.386 90.8028C504.05 88.8967 502.762 87.1596 500.353 87.1595ZM607.625 87.1595C604.544 87.1596 602.976 90.0181 602.696 93.8856L611.658 90.8028C611.322 88.8966 610.034 87.1595 607.625 87.1595ZM674.061 87.1595C670.981 87.1595 669.412 90.018 669.132 93.8856L678.094 90.8028C677.758 88.8967 676.469 87.1596 674.061 87.1595ZM718.806 65.7473C722.382 65.7473 724.999 68.406 725 71.894C725 75.3819 722.382 78.0938 718.806 78.0938C715.188 78.0938 712.571 75.3556 712.571 71.894C712.571 68.4324 715.226 65.7473 718.806 65.7473ZM718.806 66.9323C715.953 66.9323 713.928 68.9983 713.928 71.894C713.928 74.8291 716.006 76.9088 718.806 76.9088C721.607 76.9088 723.658 74.8028 723.658 71.894C723.658 68.9853 721.66 66.9323 718.806 66.9323ZM652.327 65.7473C656.192 65.7474 657.816 68.2696 657.816 70.6235C657.816 73.0342 656.192 75.5563 652.327 75.5563C648.463 75.5563 646.837 73.0343 646.837 70.6235C646.837 68.2695 648.462 65.7473 652.327 65.7473ZM719.455 68.6472C720.657 68.6473 721.448 69.3888 721.448 70.3989C721.447 71.2425 720.913 71.8181 720.03 72.0099C720.772 72.1761 721.102 72.7256 721.296 73.5694L721.615 74.9373H720.224L720.03 73.7616C719.888 72.8283 719.773 72.6105 718.743 72.6105H717.754V74.9373H716.468V68.6472H719.455ZM717.754 69.6958V71.5619H718.817C719.685 71.5619 720.161 71.2168 720.161 70.5777C720.161 69.9385 719.658 69.6958 718.817 69.6958H717.754Z" fill="#FFF0D3"/>
<path d="M79.1 308L61.3 243.8C59.7 238.3 57.9 232.9 55.5 228H78.2C77.1 231.9 77.5 236.2 78.6 240.6L89.6 284L100.7 240.6C101.8 236.2 102.2 231.9 101 228H122.7C120.3 232.9 118.5 238.3 116.9 243.8L99.1 308H79.1ZM137.033 309.6C126.033 309.6 118.633 302.8 118.633 292.5C118.633 282 126.333 276.7 137.933 276.7C143.033 276.7 147.133 277.8 150.033 279.7V273.3C150.033 268.2 146.933 265.9 142.733 265.9C138.933 265.9 135.633 267.8 135.633 271.6C135.633 272.5 135.833 273.6 136.133 274.5C129.433 275.9 121.633 272.7 121.633 264.9C121.633 255.9 131.933 251.4 142.833 251.4C156.833 251.4 166.533 259 166.533 270.9V291.3C166.533 297.5 168.133 302.6 171.633 306.3C168.733 308.2 165.333 309.6 161.633 309.6C157.533 309.6 153.833 308 152.033 303.1C148.833 307.1 143.733 309.6 137.033 309.6ZM142.833 296.9C147.333 296.9 150.633 294.9 150.633 291.6C150.633 288.3 147.333 286.4 142.833 286.4C138.333 286.4 135.133 288.3 135.133 291.6C135.133 294.9 138.333 296.9 142.833 296.9ZM175.69 308C177.09 303.1 177.59 297.6 177.59 291.9V270.5C177.59 264.8 176.79 259.4 174.59 254.8L192.49 251.6V259.6C195.29 254.2 199.99 251.4 206.79 251.4C219.49 251.4 223.59 261.4 223.59 273.2V291.9C223.59 297.6 224.09 303.1 225.49 308H205.19C206.59 303.1 207.09 297.6 207.09 291.9V274.7C207.09 269.7 205.49 266.6 201.69 266.6C196.19 266.6 194.09 273.1 194.09 281.3V291.9C194.09 297.6 194.59 303.1 195.99 308H175.69ZM252.135 309.6C238.135 309.6 230.935 296.5 230.935 280.5C230.935 264.5 238.135 251.4 252.135 251.4C257.335 251.4 261.735 253.1 264.935 256.9V245.7C264.935 240 264.135 234.6 261.935 230L281.435 226.4V291.3C281.435 297.5 283.035 302.6 286.535 306.3C283.635 308.2 280.235 309.6 276.535 309.6C272.135 309.6 268.035 307.5 266.535 301.9C263.335 307.1 258.235 309.6 252.135 309.6ZM256.635 294.3C262.135 294.3 265.135 289 265.135 280.5C265.135 272 262.135 266.7 256.635 266.7C251.035 266.7 247.935 272 247.935 280.5C247.935 289 251.035 294.3 256.635 294.3ZM306.25 309.6C300.65 309.6 295.05 306.4 295.05 295.3V268.1C293.35 268.1 289.95 268.3 288.05 269C287.25 266.5 286.85 264.2 286.85 262.1C286.85 256.1 290.15 253 295.45 253C295.45 249.8 294.55 247.3 294.55 245.1C294.55 240.3 299.05 236.5 305.85 236.5C308.35 236.5 310.65 237 312.75 237.7C311.85 242.5 311.55 247.5 311.55 253C315.35 253 319.35 252.5 322.65 251.4C323.25 253.8 323.45 255.9 323.45 257.6C323.45 264.8 320.05 268.1 313.95 268.1H311.55V291.3C311.55 297.5 313.15 302.6 316.65 306.3C313.55 308.3 309.85 309.6 306.25 309.6ZM58.9 420C60.9 415.1 61.6 409.6 61.6 403.9V363.5C61.6 357.8 60.5 352.7 57.1 348.8L79.1 338.4V403.9C79.1 409.6 79.8 415.1 81.8 420H58.9ZM105.864 440.8C99.9641 442.4 92.7641 440.5 92.7641 433.3C92.7641 428.2 96.3641 424.9 100.064 421.6C94.0641 421.5 89.3641 416.6 89.3641 410.6C89.3641 404.5 94.0641 399.6 100.364 399.6C106.864 399.6 111.764 404.8 111.764 411.8C111.764 420.7 104.064 426.9 104.064 434.6C104.064 436.6 104.564 438.6 105.864 440.8ZM133.918 421.6C123.918 421.6 120.418 412.2 120.418 404.5C120.418 387 136.818 372.3 141.218 359.1C140.218 359.2 139.118 359.3 138.118 359.3C131.318 359.3 124.618 356.2 119.918 356.2C115.818 356.2 113.318 358.6 112.218 360.6C110.618 357.6 109.418 353.9 109.418 350C109.418 342.4 113.918 338.4 120.818 338.4C128.518 338.4 136.918 343.3 145.018 343.3C151.118 343.3 155.218 340.5 157.018 338.9C158.018 342.1 158.418 345.4 158.418 348.5C158.418 369.9 138.818 384.7 138.818 402.8C138.818 408.4 140.718 413.2 143.718 417.3C141.018 419.9 138.018 421.6 133.918 421.6ZM183.112 420C184.512 415.1 185.012 409.6 185.012 403.9V382.5C185.012 376.8 184.212 371.4 182.012 366.8L199.912 363.6V371.3C202.712 366 207.212 363.4 213.912 363.4C221.512 363.4 225.812 366.9 228.112 372.4C230.812 366.5 235.412 363.4 242.612 363.4C255.312 363.4 258.912 373.4 258.912 385.2V403.9C258.912 409.6 259.412 415.1 260.812 420H240.512C241.912 415.1 242.412 409.6 242.412 403.9V386.7C242.412 381.7 240.812 378.6 237.012 378.6C231.512 378.6 230.212 385.1 230.212 393.3V403.9C230.212 409.6 230.712 415.1 232.112 420H211.812C213.212 415.1 213.712 409.6 213.712 403.9V386.7C213.712 381.7 212.112 378.6 208.312 378.6C202.812 378.6 201.512 385.1 201.512 393.3V403.9C201.512 409.6 202.012 415.1 203.412 420H183.112ZM267.389 420C268.789 415.1 269.289 409.6 269.289 403.9V382.5C269.289 376.8 268.489 371.4 266.289 366.8L285.789 363.4V403.9C285.789 409.6 286.289 415.1 287.689 420H267.389ZM276.989 356.8C269.689 356.8 266.689 352 266.689 347.6C266.689 343.2 269.689 338.4 276.989 338.4C284.289 338.4 287.289 343.2 287.289 347.6C287.289 352 284.289 356.8 276.989 356.8ZM294.335 420C295.735 415.1 296.235 409.6 296.235 403.9V357.7C296.235 352 295.435 346.6 293.235 342L312.735 338.4V403.9C312.735 409.6 313.235 415.1 314.635 420H294.335ZM321.191 420C322.591 415.1 323.091 409.6 323.091 403.9V357.7C323.091 352 322.291 346.6 320.091 342L339.591 338.4V403.9C339.591 409.6 340.091 415.1 341.491 420H321.191ZM348.346 420C349.746 415.1 350.246 409.6 350.246 403.9V382.5C350.246 376.8 349.446 371.4 347.246 366.8L366.746 363.4V403.9C366.746 409.6 367.246 415.1 368.646 420H348.346ZM357.946 356.8C350.646 356.8 347.646 352 347.646 347.6C347.646 343.2 350.646 338.4 357.946 338.4C365.246 338.4 368.246 343.2 368.246 347.6C368.246 352 365.246 356.8 357.946 356.8ZM400.192 421.6C381.592 421.6 374.392 408.5 374.392 392.5C374.392 376.5 381.592 363.4 400.192 363.4C418.792 363.4 425.992 376.5 425.992 392.5C425.992 408.5 418.792 421.6 400.192 421.6ZM400.192 406.3C405.892 406.3 408.992 401 408.992 392.5C408.992 384 405.892 378.7 400.192 378.7C394.492 378.7 391.392 384 391.392 392.5C391.392 401 394.492 406.3 400.192 406.3ZM432.038 420C433.438 415.1 433.938 409.6 433.938 403.9V382.5C433.938 376.8 433.138 371.4 430.938 366.8L448.838 363.6V371.6C451.638 366.2 456.338 363.4 463.138 363.4C475.838 363.4 479.938 373.4 479.938 385.2V403.9C479.938 409.6 480.438 415.1 481.838 420H461.538C462.938 415.1 463.438 409.6 463.438 403.9V386.7C463.438 381.7 461.838 378.6 458.038 378.6C452.538 378.6 450.438 385.1 450.438 393.3V403.9C450.438 409.6 450.938 415.1 452.338 420H432.038ZM512.783 421.6C496.383 421.6 487.283 408.7 487.283 392.4C487.283 377.1 495.183 363.4 511.883 363.4C526.383 363.4 533.383 373.6 533.983 388.8L505.283 398.5C507.483 404.3 512.283 406.3 518.083 406.3C523.683 406.3 528.783 404.4 532.683 400.9C534.083 410.2 528.283 421.6 512.783 421.6ZM504.183 388.5L518.783 383.5C518.283 380.6 516.183 377.6 512.183 377.6C507.083 377.6 504.583 382.4 504.183 388.5ZM539.948 420C541.348 415.1 541.848 409.6 541.848 403.9V382.5C541.848 376.8 541.048 371.4 538.848 366.8L556.748 363.6V372.1C559.548 366.4 563.948 363.4 569.648 363.4C576.348 363.4 582.248 367.7 582.248 376.2C582.248 384.5 576.748 388.6 568.648 388.6C570.448 381.7 568.048 378.6 564.448 378.6C559.148 378.6 558.348 385.1 558.348 395.3V403.9C558.348 409.6 559.148 415.1 561.248 420H539.948ZM606.249 420C607.649 415.1 608.149 409.6 608.149 403.9V357.7C608.149 352 607.349 346.6 605.149 342L624.649 338.4V367.8C628.849 364.6 633.749 363.4 638.649 363.4C650.849 363.4 656.749 371.7 656.749 381.7C656.749 389.1 653.649 394.4 647.149 397.4C650.049 405.2 654.149 412.6 659.649 420H640.149C636.749 414.1 634.249 407.8 632.949 401.6H624.649V403.9C624.649 409.6 625.149 415.1 626.549 420H606.249ZM624.649 390.9H631.849C636.749 390.9 639.749 388.2 639.749 384.1C639.749 380.6 637.549 377.8 633.449 377.8C628.749 377.8 624.649 381.5 624.649 389V390.9ZM665.143 420C666.543 415.1 667.043 409.6 667.043 403.9V382.5C667.043 376.8 666.243 371.4 664.043 366.8L681.943 363.6V372.1C684.743 366.4 689.143 363.4 694.843 363.4C701.543 363.4 707.443 367.7 707.443 376.2C707.443 384.5 701.943 388.6 693.843 388.6C695.643 381.7 693.243 378.6 689.643 378.6C684.343 378.6 683.543 385.1 683.543 395.3V403.9C683.543 409.6 684.343 415.1 686.443 420H665.143ZM712.864 421.6C706.564 421.6 701.864 416.7 701.864 410.6C701.864 404.5 706.564 399.6 712.864 399.6C719.164 399.6 723.864 404.5 723.864 410.6C723.864 416.7 719.164 421.6 712.864 421.6ZM58.6 532C60 527.1 60.5 521.6 60.5 515.9V494.5C60.5 488.8 59.7 483.4 57.5 478.8L77 475.4V515.9C77 521.6 77.5 527.1 78.9 532H58.6ZM68.2 468.8C60.9 468.8 57.9 464 57.9 459.6C57.9 455.2 60.9 450.4 68.2 450.4C75.5 450.4 78.5 455.2 78.5 459.6C78.5 464 75.5 468.8 68.2 468.8ZM106.166 532C107.566 527.1 108.066 521.6 108.066 515.9V468.1C108.066 462.4 107.566 456.9 106.166 452H127.566C126.166 456.9 125.666 462.4 125.666 468.1V484.2C132.966 475.1 139.866 463.2 141.566 452H161.566C157.866 463.6 152.866 472.3 143.466 482.7C154.066 484.9 158.666 494.1 159.666 505.1L160.766 516.7C161.366 523.2 163.366 527.8 166.866 532H146.066C143.966 527.4 143.266 523.3 142.966 519.1L142.166 505.8C141.766 499.5 138.866 496.4 134.066 496.4C129.266 496.4 125.666 499.5 125.666 505.9V515.9C125.666 521.6 126.366 527.1 128.166 532H106.166ZM171.679 532C173.079 527.1 173.579 521.6 173.579 515.9V469.7C173.579 464 172.779 458.6 170.579 454L190.079 450.4V515.9C190.079 521.6 190.579 527.1 191.979 532H171.679ZM216.134 533.6C205.134 533.6 197.734 526.8 197.734 516.5C197.734 506 205.434 500.7 217.034 500.7C222.134 500.7 226.234 501.8 229.134 503.7V497.3C229.134 492.2 226.034 489.9 221.834 489.9C218.034 489.9 214.734 491.8 214.734 495.6C214.734 496.5 214.934 497.6 215.234 498.5C208.534 499.9 200.734 496.7 200.734 488.9C200.734 479.9 211.034 475.4 221.934 475.4C235.934 475.4 245.634 483 245.634 494.9V515.3C245.634 521.5 247.234 526.6 250.734 530.3C247.834 532.2 244.434 533.6 240.734 533.6C236.634 533.6 232.934 532 231.134 527.1C227.934 531.1 222.834 533.6 216.134 533.6ZM221.934 520.9C226.434 520.9 229.734 518.9 229.734 515.6C229.734 512.3 226.434 510.4 221.934 510.4C217.434 510.4 214.234 512.3 214.234 515.6C214.234 518.9 217.434 520.9 221.934 520.9ZM274.891 533.6C263.491 533.6 253.591 528 253.591 519.1C253.591 511.2 261.591 508.3 268.391 509.7C267.991 510.7 267.791 512 267.791 513C267.791 517.1 270.991 519.6 274.891 519.6C278.491 519.6 281.091 517.5 281.091 514.5C281.091 511.1 277.891 509.4 273.591 508.4L267.791 507.1C260.591 505.5 254.291 501 254.291 492C254.291 482.9 260.791 475.4 275.591 475.4C282.291 475.4 289.491 476.9 293.991 480.3V497.1C289.191 492.3 281.491 489.5 275.491 489.5C272.191 489.5 270.491 490.3 270.491 492.1C270.491 493.8 271.991 494.4 275.491 495.2L280.891 496.5C288.991 498.5 297.591 502.7 297.591 514.1C297.591 525.9 288.091 533.6 274.891 533.6ZM323.72 533.6C312.32 533.6 302.42 528 302.42 519.1C302.42 511.2 310.42 508.3 317.22 509.7C316.82 510.7 316.62 512 316.62 513C316.62 517.1 319.82 519.6 323.72 519.6C327.32 519.6 329.92 517.5 329.92 514.5C329.92 511.1 326.72 509.4 322.42 508.4L316.62 507.1C309.42 505.5 303.12 501 303.12 492C303.12 482.9 309.62 475.4 324.42 475.4C331.12 475.4 338.32 476.9 342.82 480.3V497.1C338.02 492.3 330.32 489.5 324.32 489.5C321.02 489.5 319.32 490.3 319.32 492.1C319.32 493.8 320.82 494.4 324.32 495.2L329.72 496.5C337.82 498.5 346.42 502.7 346.42 514.1C346.42 525.9 336.92 533.6 323.72 533.6ZM376.748 533.6C360.348 533.6 351.248 520.7 351.248 504.4C351.248 489.1 359.148 475.4 375.848 475.4C390.348 475.4 397.348 485.6 397.948 500.8L369.248 510.5C371.448 516.3 376.248 518.3 382.048 518.3C387.648 518.3 392.748 516.4 396.648 512.9C398.048 522.2 392.248 533.6 376.748 533.6ZM368.148 500.5L382.748 495.5C382.248 492.6 380.148 489.6 376.148 489.6C371.048 489.6 368.548 494.4 368.148 500.5ZM403.612 532C405.013 527.1 405.513 521.6 405.513 515.9V469.7C405.513 464 404.713 458.6 402.513 454L422.013 450.4V515.9C422.013 521.6 422.513 527.1 423.913 532H403.612ZM455.368 533.6C436.768 533.6 429.568 520.5 429.568 504.5C429.568 488.5 436.768 475.4 455.368 475.4C473.968 475.4 481.168 488.5 481.168 504.5C481.168 520.5 473.968 533.6 455.368 533.6ZM455.368 518.3C461.068 518.3 464.168 513 464.168 504.5C464.168 496 461.068 490.7 455.368 490.7C449.668 490.7 446.568 496 446.568 504.5C446.568 513 449.668 518.3 455.368 518.3ZM503.613 533.6C498.013 533.6 492.413 530.4 492.413 519.3V492.1C490.713 492.1 487.313 492.3 485.413 493C484.613 490.5 484.213 488.2 484.213 486.1C484.213 480.1 487.513 477 492.813 477C492.813 473.8 491.913 471.3 491.913 469.1C491.913 464.3 496.413 460.5 503.213 460.5C505.713 460.5 508.013 461 510.113 461.7C509.213 466.5 508.913 471.5 508.913 477H521.713C521.713 473.8 520.813 471.3 520.813 469.1C520.813 464.3 525.313 460.5 532.113 460.5C534.613 460.5 536.913 461 539.013 461.7C538.113 466.5 537.813 471.5 537.813 477C541.613 477 545.613 476.5 548.913 475.4C549.513 477.8 549.713 479.9 549.713 481.6C549.713 488.8 546.313 492.1 540.213 492.1H537.813V515.3C537.813 521.5 539.413 526.6 542.913 530.3C539.813 532.3 536.113 533.6 532.513 533.6C526.913 533.6 521.313 530.4 521.313 519.3V492.1H508.913V515.3C508.913 521.5 510.513 526.6 514.013 530.3C510.913 532.3 507.213 533.6 503.613 533.6ZM576.455 533.6C560.055 533.6 550.955 520.7 550.955 504.4C550.955 489.1 558.855 475.4 575.555 475.4C590.055 475.4 597.055 485.6 597.655 500.8L568.955 510.5C571.155 516.3 575.955 518.3 581.755 518.3C587.355 518.3 592.455 516.4 596.355 512.9C597.755 522.2 591.955 533.6 576.455 533.6ZM567.855 500.5L582.455 495.5C581.955 492.6 579.855 489.6 575.855 489.6C570.755 489.6 568.255 494.4 567.855 500.5ZM603.62 532C605.02 527.1 605.52 521.6 605.52 515.9V494.5C605.52 488.8 604.72 483.4 602.52 478.8L620.42 475.6V484.1C623.22 478.4 627.62 475.4 633.32 475.4C640.02 475.4 645.92 479.7 645.92 488.2C645.92 496.5 640.42 500.6 632.32 500.6C634.12 493.7 631.72 490.6 628.12 490.6C622.82 490.6 622.02 497.1 622.02 507.3V515.9C622.02 521.6 622.82 527.1 624.92 532H603.62ZM650.202 532C651.602 527.1 652.102 521.6 652.102 515.9V494.5C652.102 488.8 651.302 483.4 649.102 478.8L668.602 475.4V515.9C668.602 521.6 669.102 527.1 670.502 532H650.202ZM659.802 468.8C652.502 468.8 649.502 464 649.502 459.6C649.502 455.2 652.502 450.4 659.802 450.4C667.102 450.4 670.102 455.2 670.102 459.6C670.102 464 667.102 468.8 659.802 468.8ZM701.748 533.6C685.348 533.6 676.248 520.7 676.248 504.4C676.248 489.1 684.148 475.4 700.848 475.4C715.348 475.4 722.348 485.6 722.948 500.8L694.248 510.5C696.448 516.3 701.248 518.3 707.048 518.3C712.648 518.3 717.748 516.4 721.648 512.9C723.048 522.2 717.248 533.6 701.748 533.6ZM693.148 500.5L707.748 495.5C707.248 492.6 705.148 489.6 701.148 489.6C696.048 489.6 693.548 494.4 693.148 500.5ZM745.313 533.6C739.713 533.6 734.113 530.4 734.113 519.3V492.1C732.413 492.1 729.013 492.3 727.113 493C726.313 490.5 725.913 488.2 725.913 486.1C725.913 480.1 729.213 477 734.513 477C734.513 473.8 733.613 471.3 733.613 469.1C733.613 464.3 738.113 460.5 744.913 460.5C747.413 460.5 749.713 461 751.813 461.7C750.913 466.5 750.613 471.5 750.613 477C754.413 477 758.413 476.5 761.713 475.4C762.313 477.8 762.513 479.9 762.513 481.6C762.513 488.8 759.113 492.1 753.013 492.1H750.613V515.3C750.613 521.5 752.213 526.6 755.713 530.3C752.613 532.3 748.913 533.6 745.313 533.6Z" fill="#FFF0D3"/>
<path d="M60.134 612.468C57.924 612.468 56.258 610.7 56.258 608.32C56.258 605.294 58.876 603.186 58.876 600.568C58.876 599.888 58.706 599.208 58.264 598.46C60.27 597.916 62.718 598.562 62.718 601.01C62.718 602.744 61.494 603.866 60.236 604.988C62.276 605.022 63.874 606.688 63.874 608.728C63.874 610.802 62.276 612.468 60.134 612.468ZM69.416 612.468C67.206 612.468 65.54 610.7 65.54 608.32C65.54 605.294 68.158 603.186 68.158 600.568C68.158 599.888 67.988 599.208 67.546 598.46C69.552 597.916 72 598.562 72 601.01C72 602.744 70.776 603.866 69.518 604.988C71.558 605.022 73.156 606.688 73.156 608.728C73.156 610.802 71.558 612.468 69.416 612.468ZM75.7498 626C76.2258 624.334 76.3958 622.464 76.3958 620.526V604.274C76.3958 602.336 76.2258 600.466 75.7498 598.8H83.0258C82.5498 600.466 82.3798 602.336 82.3798 604.274V608.66H90.9818V604.274C90.9818 602.336 90.8118 600.466 90.3358 598.8H97.6118C97.1358 600.466 96.9658 602.336 96.9658 604.274V620.526C96.9658 622.464 97.1358 624.334 97.6118 626H90.3358C90.8118 624.334 90.9818 622.464 90.9818 620.526V614.1H82.3798V620.526C82.3798 622.464 82.5498 624.334 83.0258 626H75.7498ZM108.414 626.544C102.838 626.544 99.7437 622.158 99.7437 616.616C99.7437 611.414 102.43 606.756 108.108 606.756C113.038 606.756 115.418 610.224 115.622 615.392L105.864 618.69C106.612 620.662 108.244 621.342 110.216 621.342C112.12 621.342 113.854 620.696 115.18 619.506C115.656 622.668 113.684 626.544 108.414 626.544ZM105.49 615.29L110.454 613.59C110.284 612.604 109.57 611.584 108.21 611.584C106.476 611.584 105.626 613.216 105.49 615.29ZM117.548 626C118.024 624.334 118.194 622.464 118.194 620.526V604.818C118.194 602.88 117.922 601.044 117.174 599.48L123.804 598.256V620.526C123.804 622.464 123.974 624.334 124.45 626H117.548ZM135.043 626.544C129.467 626.544 126.373 622.158 126.373 616.616C126.373 611.414 129.059 606.756 134.737 606.756C139.667 606.756 142.047 610.224 142.251 615.392L132.493 618.69C133.241 620.662 134.873 621.342 136.845 621.342C138.749 621.342 140.483 620.696 141.809 619.506C142.285 622.668 140.313 626.544 135.043 626.544ZM132.119 615.29L137.083 613.59C136.913 612.604 136.199 611.584 134.839 611.584C133.105 611.584 132.255 613.216 132.119 615.29ZM150.983 626C151.459 624.334 151.629 622.464 151.629 620.526V604.818C151.629 602.88 151.357 601.044 150.609 599.48L157.239 598.256V608.252C158.667 607.164 160.333 606.756 161.999 606.756C166.147 606.756 168.153 609.578 168.153 612.978C168.153 615.494 167.099 617.296 164.889 618.316C165.875 620.968 167.269 623.484 169.139 626H162.509C161.353 623.994 160.503 621.852 160.061 619.744H157.239V620.526C157.239 622.464 157.409 624.334 157.885 626H150.983ZM157.239 616.106H159.687C161.353 616.106 162.373 615.188 162.373 613.794C162.373 612.604 161.625 611.652 160.231 611.652C158.633 611.652 157.239 612.91 157.239 615.46V616.106ZM171.007 626C171.483 624.334 171.653 622.464 171.653 620.526V613.25C171.653 611.312 171.381 609.476 170.633 607.912L176.719 606.824V609.714C177.671 607.776 179.167 606.756 181.105 606.756C183.383 606.756 185.389 608.218 185.389 611.108C185.389 613.93 183.519 615.324 180.765 615.324C181.377 612.978 180.561 611.924 179.337 611.924C177.535 611.924 177.263 614.134 177.263 617.602V620.526C177.263 622.464 177.535 624.334 178.249 626H171.007ZM195.043 626.544C188.719 626.544 186.271 622.09 186.271 616.65C186.271 611.21 188.719 606.756 195.043 606.756C201.367 606.756 203.815 611.21 203.815 616.65C203.815 622.09 201.367 626.544 195.043 626.544ZM195.043 621.342C196.981 621.342 198.035 619.54 198.035 616.65C198.035 613.76 196.981 611.958 195.043 611.958C193.105 611.958 192.051 613.76 192.051 616.65C192.051 619.54 193.105 621.342 195.043 621.342ZM205.87 632.8C206.346 631.134 206.516 629.264 206.516 627.326V613.25C206.516 611.312 206.244 609.476 205.496 607.912L211.582 606.824V609.408C212.67 607.606 214.404 606.756 216.478 606.756C221.238 606.756 223.686 611.21 223.686 616.65C223.686 622.09 221.238 626.544 216.478 626.544C214.71 626.544 213.214 625.966 212.126 624.674V627.326C212.126 629.264 212.398 631.134 213.112 632.8H205.87ZM214.948 621.342C216.852 621.342 217.906 619.54 217.906 616.65C217.906 613.76 216.852 611.958 214.948 611.958C213.078 611.958 212.058 613.76 212.058 616.65C212.058 619.54 213.078 621.342 214.948 621.342ZM225.726 632.8C226.202 631.134 226.372 629.264 226.372 627.326V613.25C226.372 611.312 226.1 609.476 225.352 607.912L231.438 606.824V609.408C232.526 607.606 234.26 606.756 236.334 606.756C241.094 606.756 243.542 611.21 243.542 616.65C243.542 622.09 241.094 626.544 236.334 626.544C234.566 626.544 233.07 625.966 231.982 624.674V627.326C231.982 629.264 232.254 631.134 232.968 632.8H225.726ZM234.804 621.342C236.708 621.342 237.762 619.54 237.762 616.65C237.762 613.76 236.708 611.958 234.804 611.958C232.934 611.958 231.914 613.76 231.914 616.65C231.914 619.54 232.934 621.342 234.804 621.342ZM254.175 626.544C248.599 626.544 245.505 622.158 245.505 616.616C245.505 611.414 248.191 606.756 253.869 606.756C258.799 606.756 261.179 610.224 261.383 615.392L251.625 618.69C252.373 620.662 254.005 621.342 255.977 621.342C257.881 621.342 259.615 620.696 260.941 619.506C261.417 622.668 259.445 626.544 254.175 626.544ZM251.251 615.29L256.215 613.59C256.045 612.604 255.331 611.584 253.971 611.584C252.237 611.584 251.387 613.216 251.251 615.29ZM263.412 626C263.888 624.334 264.058 622.464 264.058 620.526V613.25C264.058 611.312 263.786 609.476 263.038 607.912L269.124 606.824V609.544C270.076 607.708 271.674 606.756 273.986 606.756C278.304 606.756 279.698 610.156 279.698 614.168V620.526C279.698 622.464 279.868 624.334 280.344 626H273.442C273.918 624.334 274.088 622.464 274.088 620.526V614.678C274.088 612.978 273.544 611.924 272.252 611.924C270.382 611.924 269.668 614.134 269.668 616.922V620.526C269.668 622.464 269.838 624.334 270.314 626H263.412ZM296.244 626.544C292.368 626.544 289.002 624.64 289.002 621.614C289.002 618.928 291.722 617.942 294.034 618.418C293.898 618.758 293.83 619.2 293.83 619.54C293.83 620.934 294.918 621.784 296.244 621.784C297.468 621.784 298.352 621.07 298.352 620.05C298.352 618.894 297.264 618.316 295.802 617.976L293.83 617.534C291.382 616.99 289.24 615.46 289.24 612.4C289.24 609.306 291.45 606.756 296.482 606.756C298.76 606.756 301.208 607.266 302.738 608.422V614.134C301.106 612.502 298.488 611.55 296.448 611.55C295.326 611.55 294.748 611.822 294.748 612.434C294.748 613.012 295.258 613.216 296.448 613.488L298.284 613.93C301.038 614.61 303.962 616.038 303.962 619.914C303.962 623.926 300.732 626.544 296.244 626.544ZM306.011 626C306.487 624.334 306.657 622.464 306.657 620.526V613.25C306.657 611.312 306.385 609.476 305.637 607.912L312.267 606.756V620.526C312.267 622.464 312.437 624.334 312.913 626H306.011ZM309.275 604.512C306.793 604.512 305.773 602.88 305.773 601.384C305.773 599.888 306.793 598.256 309.275 598.256C311.757 598.256 312.777 599.888 312.777 601.384C312.777 602.88 311.757 604.512 309.275 604.512ZM320.652 626.544C318.748 626.544 316.844 625.456 316.844 621.682V612.434C316.266 612.434 315.11 612.502 314.464 612.74C314.192 611.89 314.056 611.108 314.056 610.394C314.056 608.354 315.178 607.3 316.98 607.3C316.98 606.212 316.674 605.362 316.674 604.614C316.674 602.982 318.204 601.69 320.516 601.69C321.366 601.69 322.148 601.86 322.862 602.098C322.556 603.73 322.454 605.43 322.454 607.3C323.746 607.3 325.106 607.13 326.228 606.756C326.432 607.572 326.5 608.286 326.5 608.864C326.5 611.312 325.344 612.434 323.27 612.434H322.454V620.322C322.454 622.43 322.998 624.164 324.188 625.422C323.134 626.102 321.876 626.544 320.652 626.544ZM327.958 626C328.434 624.334 328.604 622.464 328.604 620.526V613.25C328.604 611.312 328.332 609.476 327.584 607.912L333.67 606.824V609.714C334.622 607.776 336.118 606.756 338.056 606.756C340.334 606.756 342.34 608.218 342.34 611.108C342.34 613.93 340.47 615.324 337.716 615.324C338.328 612.978 337.512 611.924 336.288 611.924C334.486 611.924 334.214 614.134 334.214 617.602V620.526C334.214 622.464 334.486 624.334 335.2 626H327.958ZM351.892 626.544C346.316 626.544 343.222 622.158 343.222 616.616C343.222 611.414 345.908 606.756 351.586 606.756C356.516 606.756 358.896 610.224 359.1 615.392L349.342 618.69C350.09 620.662 351.722 621.342 353.694 621.342C355.598 621.342 357.332 620.696 358.658 619.506C359.134 622.668 357.162 626.544 351.892 626.544ZM348.968 615.29L353.932 613.59C353.762 612.604 353.048 611.584 351.688 611.584C349.954 611.584 349.104 613.216 348.968 615.29ZM368.26 626.544C363.5 626.544 361.052 622.09 361.052 616.65C361.052 611.21 363.5 606.756 368.26 606.756C370.028 606.756 371.524 607.334 372.612 608.626V604.818C372.612 602.88 372.34 601.044 371.592 599.48L378.222 598.256V620.322C378.222 622.43 378.766 624.164 379.956 625.422C378.97 626.068 377.814 626.544 376.556 626.544C375.06 626.544 373.666 625.83 373.156 623.926C372.068 625.694 370.334 626.544 368.26 626.544ZM369.79 621.342C371.66 621.342 372.68 619.54 372.68 616.65C372.68 613.76 371.66 611.958 369.79 611.958C367.886 611.958 366.832 613.76 366.832 616.65C366.832 619.54 367.886 621.342 369.79 621.342ZM389.677 626.544C384.101 626.544 381.007 622.158 381.007 616.616C381.007 611.414 383.693 606.756 389.371 606.756C394.301 606.756 396.681 610.224 396.885 615.392L387.127 618.69C387.875 620.662 389.507 621.342 391.479 621.342C393.383 621.342 395.117 620.696 396.443 619.506C396.919 622.668 394.947 626.544 389.677 626.544ZM386.753 615.29L391.717 613.59C391.547 612.604 390.833 611.584 389.473 611.584C387.739 611.584 386.889 613.216 386.753 615.29ZM404.557 633.072C402.551 633.616 400.103 632.97 400.103 630.522C400.103 628.788 401.327 627.666 402.585 626.544C400.545 626.51 398.947 624.844 398.947 622.804C398.947 620.73 400.545 619.064 402.687 619.064C404.897 619.064 406.563 620.832 406.563 623.212C406.563 626.238 403.945 628.346 403.945 630.964C403.945 631.644 404.115 632.324 404.557 633.072ZM424.211 626.544C417.887 626.544 415.439 622.09 415.439 616.65C415.439 611.21 417.887 606.756 424.211 606.756C430.535 606.756 432.983 611.21 432.983 616.65C432.983 622.09 430.535 626.544 424.211 626.544ZM424.211 621.342C426.149 621.342 427.203 619.54 427.203 616.65C427.203 613.76 426.149 611.958 424.211 611.958C422.273 611.958 421.219 613.76 421.219 616.65C421.219 619.54 422.273 621.342 424.211 621.342ZM446.866 633.344C447.002 631.304 445.03 630.624 442.718 630.08L440.134 629.502C437.72 628.924 435.612 628.04 435.612 625.592C435.612 623.994 436.496 622.838 438.264 622.158C435.884 620.628 434.898 617.874 434.898 615.086C434.898 611.21 436.802 607.402 441.664 606.824C441.392 605.634 441.12 604.036 441.12 602.71C441.12 599.412 442.922 598.256 444.588 598.256C446.22 598.256 447.614 599.378 447.614 601.214C447.614 603.832 444.826 604.24 444.656 606.892C449.28 607.606 451.082 611.312 451.082 615.086C451.082 619.302 448.838 623.416 442.99 623.416C442.004 623.416 441.188 623.552 441.188 624.266C441.188 624.81 441.664 625.116 442.99 625.286L447.036 625.728C449.824 626.034 451.966 627.156 451.966 629.468C451.966 632.426 448.532 633.31 446.866 633.344ZM442.99 618.384C444.656 618.384 445.574 616.922 445.574 615.086C445.574 613.25 444.656 611.788 442.99 611.788C441.324 611.788 440.406 613.25 440.406 615.086C440.406 616.922 441.324 618.384 442.99 618.384ZM462.694 633.344C461.47 633.344 460.178 632.902 458.988 632.222C460.076 631.1 460.722 629.91 460.722 627.122V613.182C460.722 611.244 460.586 609.476 459.668 607.912L466.332 606.756V629.162C466.332 632.256 464.598 633.344 462.694 633.344ZM463.51 604.512C461.028 604.512 460.008 602.88 460.008 601.384C460.008 599.888 461.028 598.256 463.51 598.256C465.992 598.256 467.012 599.888 467.012 601.384C467.012 602.88 465.992 604.512 463.51 604.512ZM477.765 626.544C472.189 626.544 469.095 622.158 469.095 616.616C469.095 611.414 471.781 606.756 477.459 606.756C482.389 606.756 484.769 610.224 484.973 615.392L475.215 618.69C475.963 620.662 477.595 621.342 479.567 621.342C481.471 621.342 483.205 620.696 484.531 619.506C485.007 622.668 483.035 626.544 477.765 626.544ZM474.841 615.29L479.805 613.59C479.635 612.604 478.921 611.584 477.561 611.584C475.827 611.584 474.977 613.216 474.841 615.29ZM498.829 633.344C498.965 631.304 496.993 630.624 494.681 630.08L492.097 629.502C489.683 628.924 487.575 628.04 487.575 625.592C487.575 623.994 488.459 622.838 490.227 622.158C487.847 620.628 486.861 617.874 486.861 615.086C486.861 611.21 488.765 607.402 493.627 606.824C493.355 605.634 493.083 604.036 493.083 602.71C493.083 599.412 494.885 598.256 496.551 598.256C498.183 598.256 499.577 599.378 499.577 601.214C499.577 603.832 496.789 604.24 496.619 606.892C501.243 607.606 503.045 611.312 503.045 615.086C503.045 619.302 500.801 623.416 494.953 623.416C493.967 623.416 493.151 623.552 493.151 624.266C493.151 624.81 493.627 625.116 494.953 625.286L498.999 625.728C501.787 626.034 503.929 627.156 503.929 629.468C503.929 632.426 500.495 633.31 498.829 633.344ZM494.953 618.384C496.619 618.384 497.537 616.922 497.537 615.086C497.537 613.25 496.619 611.788 494.953 611.788C493.287 611.788 492.369 613.25 492.369 615.086C492.369 616.922 493.287 618.384 494.953 618.384ZM522.443 626.544C520.301 626.544 518.533 625.66 517.445 623.722C516.901 625.082 515.643 626.204 513.603 626.204C512.821 626.204 512.175 626.034 511.665 625.796C512.311 624.266 512.481 622.464 512.481 620.526V604.818C512.481 602.88 512.209 601.044 511.461 599.48L518.091 598.256V608.626C519.179 607.334 520.675 606.756 522.443 606.756C527.203 606.756 529.651 611.21 529.651 616.65C529.651 622.09 527.203 626.544 522.443 626.544ZM520.913 621.342C522.817 621.342 523.871 619.54 523.871 616.65C523.871 613.76 522.817 611.958 520.913 611.958C519.043 611.958 518.023 613.76 518.023 616.65C518.023 619.54 519.043 621.342 520.913 621.342ZM531.591 626C532.067 624.334 532.237 622.464 532.237 620.526V604.818C532.237 602.88 531.965 601.044 531.217 599.48L537.847 598.256V620.526C537.847 622.464 538.017 624.334 538.493 626H531.591ZM549.086 626.544C543.51 626.544 540.416 622.158 540.416 616.616C540.416 611.414 543.102 606.756 548.78 606.756C553.71 606.756 556.09 610.224 556.294 615.392L546.536 618.69C547.284 620.662 548.916 621.342 550.888 621.342C552.792 621.342 554.526 620.696 555.852 619.506C556.328 622.668 554.356 626.544 549.086 626.544ZM546.162 615.29L551.126 613.59C550.956 612.604 550.242 611.584 548.882 611.584C547.148 611.584 546.298 613.216 546.162 615.29ZM562.188 626L558.21 612.638C557.666 610.768 556.986 608.966 556.17 607.3H563.582C563.208 608.626 563.344 610.088 563.718 611.584L565.792 619.37L568.036 611.584C568.444 610.088 568.614 608.626 568.24 607.3H575.278C574.462 608.966 573.782 610.768 573.17 612.604L568.852 626H562.188ZM583.321 626C583.797 624.334 583.967 622.464 583.967 620.526V604.818C583.967 602.88 583.695 601.044 582.947 599.48L589.577 598.256V608.932C590.461 607.538 591.855 606.756 593.895 606.756C598.213 606.756 599.607 610.156 599.607 614.168V620.526C599.607 622.464 599.777 624.334 600.253 626H593.351C593.827 624.334 593.997 622.464 593.997 620.526V614.678C593.997 612.978 593.453 611.924 592.161 611.924C590.291 611.924 589.577 614.134 589.577 616.922V620.526C589.577 622.464 589.747 624.334 590.223 626H583.321ZM610.744 626.544C605.168 626.544 602.074 622.158 602.074 616.616C602.074 611.414 604.76 606.756 610.438 606.756C615.368 606.756 617.748 610.224 617.952 615.392L608.194 618.69C608.942 620.662 610.574 621.342 612.546 621.342C614.45 621.342 616.184 620.696 617.51 619.506C617.986 622.668 616.014 626.544 610.744 626.544ZM607.82 615.29L612.784 613.59C612.614 612.604 611.9 611.584 610.54 611.584C608.806 611.584 607.956 613.216 607.82 615.29ZM619.878 626C620.354 624.334 620.524 622.464 620.524 620.526V604.818C620.524 602.88 620.252 601.044 619.504 599.48L626.134 598.256V620.526C626.134 622.464 626.304 624.334 626.78 626H619.878ZM634.687 626.544C632.783 626.544 630.879 625.456 630.879 621.682V612.434C630.301 612.434 629.145 612.502 628.499 612.74C628.227 611.89 628.091 611.108 628.091 610.394C628.091 608.354 629.213 607.3 631.015 607.3C631.015 606.212 630.709 605.362 630.709 604.614C630.709 602.982 632.239 601.69 634.551 601.69C635.401 601.69 636.183 601.86 636.897 602.098C636.591 603.73 636.489 605.43 636.489 607.3C637.781 607.3 639.141 607.13 640.263 606.756C640.467 607.572 640.535 608.286 640.535 608.864C640.535 611.312 639.379 612.434 637.305 612.434H636.489V620.322C636.489 622.43 637.033 624.164 638.223 625.422C637.169 626.102 635.911 626.544 634.687 626.544ZM648.698 626C649.174 624.334 649.344 622.464 649.344 620.526V604.818C649.344 602.88 649.072 601.044 648.324 599.48L654.954 598.256V608.932C655.838 607.538 657.232 606.756 659.272 606.756C663.59 606.756 664.984 610.156 664.984 614.168V620.526C664.984 622.464 665.154 624.334 665.63 626H658.728C659.204 624.334 659.374 622.464 659.374 620.526V614.678C659.374 612.978 658.83 611.924 657.538 611.924C655.668 611.924 654.954 614.134 654.954 616.922V620.526C654.954 622.464 655.124 624.334 655.6 626H648.698ZM671.393 626L667.415 612.638C666.871 610.768 666.191 608.966 665.375 607.3H672.787C672.413 608.626 672.549 610.088 672.923 611.584L674.997 619.37L677.241 611.584C677.649 610.088 677.819 608.626 677.445 607.3H684.483C683.667 608.966 682.987 610.768 682.375 612.604L678.057 626H671.393ZM685.822 626C686.298 624.334 686.468 622.464 686.468 620.526V613.25C686.468 611.312 686.196 609.476 685.448 607.912L692.078 606.756V620.526C692.078 622.464 692.248 624.334 692.724 626H685.822ZM689.086 604.512C686.604 604.512 685.584 602.88 685.584 601.384C685.584 599.888 686.604 598.256 689.086 598.256C691.568 598.256 692.588 599.888 692.588 601.384C692.588 602.88 691.568 604.512 689.086 604.512ZM701.885 626.544C697.125 626.544 694.677 622.09 694.677 616.65C694.677 611.21 697.125 606.756 701.885 606.756C703.653 606.756 705.149 607.334 706.237 608.626V604.818C706.237 602.88 705.965 601.044 705.217 599.48L711.847 598.256V620.322C711.847 622.43 712.391 624.164 713.581 625.422C712.595 626.068 711.439 626.544 710.181 626.544C708.685 626.544 707.291 625.83 706.781 623.926C705.693 625.694 703.959 626.544 701.885 626.544ZM703.415 621.342C705.285 621.342 706.305 619.54 706.305 616.65C706.305 613.76 705.285 611.958 703.415 611.958C701.511 611.958 700.457 613.76 700.457 616.65C700.457 619.54 701.511 621.342 703.415 621.342ZM721.847 626C722.323 624.334 722.493 622.464 722.493 620.526V613.25C722.493 611.312 722.221 609.476 721.473 607.912L728.103 606.756V620.526C728.103 622.464 728.273 624.334 728.749 626H721.847ZM725.111 604.512C722.629 604.512 721.609 602.88 721.609 601.384C721.609 599.888 722.629 598.256 725.111 598.256C727.593 598.256 728.613 599.888 728.613 601.384C728.613 602.88 727.593 604.512 725.111 604.512ZM737.815 626C738.291 624.334 738.461 622.464 738.461 620.526V604.818C738.461 602.88 738.189 601.044 737.441 599.48L744.071 598.256V608.932C744.955 607.538 746.349 606.756 748.389 606.756C752.707 606.756 754.101 610.156 754.101 614.168V620.526C754.101 622.464 754.271 624.334 754.747 626H747.845C748.321 624.334 748.491 622.464 748.491 620.526V614.678C748.491 612.978 747.947 611.924 746.655 611.924C744.785 611.924 744.071 614.134 744.071 616.922V620.526C744.071 622.464 744.241 624.334 744.717 626H737.815ZM765.34 626.544C759.016 626.544 756.568 622.09 756.568 616.65C756.568 611.21 759.016 606.756 765.34 606.756C771.664 606.756 774.112 611.21 774.112 616.65C774.112 622.09 771.664 626.544 765.34 626.544ZM765.34 621.342C767.278 621.342 768.332 619.54 768.332 616.65C768.332 613.76 767.278 611.958 765.34 611.958C763.402 611.958 762.348 613.76 762.348 616.65C762.348 619.54 763.402 621.342 765.34 621.342ZM780.034 626L776.056 612.638C775.512 610.768 774.832 608.966 774.016 607.3H781.428C781.054 608.626 781.19 610.088 781.564 611.584L783.638 619.37L785.882 611.584C786.29 610.088 786.46 608.626 786.086 607.3H793.124C792.308 608.966 791.628 610.768 791.016 612.604L786.698 626H780.034ZM801.695 626.544C796.119 626.544 793.025 622.158 793.025 616.616C793.025 611.414 795.711 606.756 801.389 606.756C806.319 606.756 808.699 610.224 808.903 615.392L799.145 618.69C799.893 620.662 801.525 621.342 803.497 621.342C805.401 621.342 807.135 620.696 808.461 619.506C808.937 622.668 806.965 626.544 801.695 626.544ZM798.771 615.29L803.735 613.59C803.565 612.604 802.851 611.584 801.491 611.584C799.757 611.584 798.907 613.216 798.771 615.29ZM818.063 626.544C813.303 626.544 810.855 622.09 810.855 616.65C810.855 611.21 813.303 606.756 818.063 606.756C819.831 606.756 821.327 607.334 822.415 608.626V604.818C822.415 602.88 822.143 601.044 821.395 599.48L828.025 598.256V620.322C828.025 622.43 828.569 624.164 829.759 625.422C828.773 626.068 827.617 626.544 826.359 626.544C824.863 626.544 823.469 625.83 822.959 623.926C821.871 625.694 820.137 626.544 818.063 626.544ZM819.593 621.342C821.463 621.342 822.483 619.54 822.483 616.65C822.483 613.76 821.463 611.958 819.593 611.958C817.689 611.958 816.635 613.76 816.635 616.65C816.635 619.54 817.689 621.342 819.593 621.342ZM839.48 626.544C833.904 626.544 830.81 622.158 830.81 616.616C830.81 611.414 833.496 606.756 839.174 606.756C844.104 606.756 846.484 610.224 846.688 615.392L836.93 618.69C837.678 620.662 839.31 621.342 841.282 621.342C843.186 621.342 844.92 620.696 846.246 619.506C846.722 622.668 844.75 626.544 839.48 626.544ZM836.556 615.29L841.52 613.59C841.35 612.604 840.636 611.584 839.276 611.584C837.542 611.584 836.692 613.216 836.556 615.29ZM854.292 626.544C852.388 626.544 850.484 625.456 850.484 621.682V612.434C849.906 612.434 848.75 612.502 848.104 612.74C847.832 611.89 847.696 611.108 847.696 610.394C847.696 608.354 848.818 607.3 850.62 607.3C850.62 606.212 850.314 605.362 850.314 604.614C850.314 602.982 851.844 601.69 854.156 601.69C855.006 601.69 855.788 601.86 856.502 602.098C856.196 603.73 856.094 605.43 856.094 607.3C857.386 607.3 858.746 607.13 859.868 606.756C860.072 607.572 860.14 608.286 860.14 608.864C860.14 611.312 858.984 612.434 856.91 612.434H856.094V620.322C856.094 622.43 856.638 624.164 857.828 625.422C856.774 626.102 855.516 626.544 854.292 626.544ZM864.012 626.544C861.87 626.544 860.272 624.878 860.272 622.804C860.272 620.73 861.87 619.064 864.012 619.064C866.154 619.064 867.752 620.73 867.752 622.804C867.752 624.878 866.154 626.544 864.012 626.544ZM56.326 678C56.802 676.334 56.972 674.464 56.972 672.526V656.274C56.972 654.336 56.802 652.466 56.326 650.8H66.016C71.252 650.8 74.89 653.452 74.89 658.586C74.89 663.312 71.83 665.454 68.94 666.338L65.54 667.392C63.568 668.004 62.956 669.16 62.956 671.064V672.526C62.956 674.464 63.194 676.334 63.874 678H56.326ZM62.956 663.176C63.5 662.666 64.214 662.326 65.132 662.054L66.288 661.714C67.92 661.238 68.804 660.354 68.804 658.892C68.804 657.022 67.376 656.24 65.54 656.24H62.956V663.176ZM81.5298 678.544C77.7898 678.544 75.2738 676.232 75.2738 672.73C75.2738 669.16 77.8918 667.358 81.8358 667.358C83.5698 667.358 84.9638 667.732 85.9498 668.378V666.202C85.9498 664.468 84.8958 663.686 83.4678 663.686C82.1758 663.686 81.0538 664.332 81.0538 665.624C81.0538 665.93 81.1218 666.304 81.2238 666.61C78.9458 667.086 76.2938 665.998 76.2938 663.346C76.2938 660.286 79.7958 658.756 83.5018 658.756C88.2618 658.756 91.5598 661.34 91.5598 665.386V672.322C91.5598 674.43 92.1038 676.164 93.2938 677.422C92.3078 678.068 91.1518 678.544 89.8938 678.544C88.4998 678.544 87.2418 678 86.6298 676.334C85.5418 677.694 83.8078 678.544 81.5298 678.544ZM83.5018 674.226C85.0318 674.226 86.1538 673.546 86.1538 672.424C86.1538 671.302 85.0318 670.656 83.5018 670.656C81.9718 670.656 80.8838 671.302 80.8838 672.424C80.8838 673.546 81.9718 674.226 83.5018 674.226ZM83.5018 657.226C81.1558 657.226 79.3878 655.56 79.3878 653.282C79.3878 651.004 81.1558 649.338 83.5018 649.338C85.8478 649.338 87.6158 651.004 87.6158 653.282C87.6158 655.56 85.8478 657.226 83.5018 657.226ZM83.5018 655.254C84.7258 655.254 85.5758 654.438 85.5758 653.282C85.5758 652.126 84.7258 651.31 83.5018 651.31C82.2778 651.31 81.4278 652.126 81.4278 653.282C81.4278 654.438 82.2778 655.254 83.5018 655.254ZM108.28 678.544C103.52 678.544 101.072 674.09 101.072 668.65C101.072 663.21 103.52 658.756 108.28 658.756C110.048 658.756 111.544 659.334 112.632 660.626V656.818C112.632 654.88 112.36 653.044 111.612 651.48L118.242 650.256V672.322C118.242 674.43 118.786 676.164 119.976 677.422C118.99 678.068 117.834 678.544 116.576 678.544C115.08 678.544 113.686 677.83 113.176 675.926C112.088 677.694 110.354 678.544 108.28 678.544ZM109.81 673.342C111.68 673.342 112.7 671.54 112.7 668.65C112.7 665.76 111.68 663.958 109.81 663.958C107.906 663.958 106.852 665.76 106.852 668.65C106.852 671.54 107.906 673.342 109.81 673.342ZM129.697 678.544C124.121 678.544 121.027 674.158 121.027 668.616C121.027 663.414 123.713 658.756 129.391 658.756C134.321 658.756 136.701 662.224 136.905 667.392L127.147 670.69C127.895 672.662 129.527 673.342 131.499 673.342C133.403 673.342 135.137 672.696 136.463 671.506C136.939 674.668 134.967 678.544 129.697 678.544ZM126.773 667.29L131.737 665.59C131.567 664.604 130.853 663.584 129.493 663.584C127.759 663.584 126.909 665.216 126.773 667.29ZM138.933 678C139.409 676.334 139.579 674.464 139.579 672.526V665.25C139.579 663.312 139.307 661.476 138.559 659.912L144.645 658.824V661.544C145.597 659.708 147.195 658.756 149.507 658.756C153.825 658.756 155.219 662.156 155.219 666.168V672.526C155.219 674.464 155.389 676.334 155.865 678H148.963C149.439 676.334 149.609 674.464 149.609 672.526V666.678C149.609 664.978 149.065 663.924 147.773 663.924C145.903 663.924 145.189 666.134 145.189 668.922V672.526C145.189 674.464 145.359 676.334 145.835 678H138.933ZM164.931 678C165.407 676.334 165.577 674.464 165.577 672.526V665.25C165.577 663.312 165.305 661.476 164.557 659.912L170.643 658.824V661.442C171.595 659.64 173.125 658.756 175.403 658.756C177.987 658.756 179.449 659.946 180.231 661.816C181.149 659.81 182.713 658.756 185.161 658.756C189.479 658.756 190.703 662.156 190.703 666.168V672.526C190.703 674.464 190.873 676.334 191.349 678H184.447C184.923 676.334 185.093 674.464 185.093 672.526V666.678C185.093 664.978 184.549 663.924 183.257 663.924C181.387 663.924 180.945 666.134 180.945 668.922V672.526C180.945 674.464 181.115 676.334 181.591 678H174.689C175.165 676.334 175.335 674.464 175.335 672.526V666.678C175.335 664.978 174.791 663.924 173.499 663.924C171.629 663.924 171.187 666.134 171.187 668.922V672.526C171.187 674.464 171.357 676.334 171.833 678H164.931ZM199.467 678.544C195.727 678.544 193.211 676.232 193.211 672.73C193.211 669.16 195.829 667.358 199.773 667.358C201.507 667.358 202.901 667.732 203.887 668.378V666.202C203.887 664.468 202.833 663.686 201.405 663.686C200.113 663.686 198.991 664.332 198.991 665.624C198.991 665.93 199.059 666.304 199.161 666.61C196.883 667.086 194.231 665.998 194.231 663.346C194.231 660.286 197.733 658.756 201.439 658.756C206.199 658.756 209.497 661.34 209.497 665.386V672.322C209.497 674.43 210.041 676.164 211.231 677.422C210.245 678.068 209.089 678.544 207.831 678.544C206.437 678.544 205.179 678 204.567 676.334C203.479 677.694 201.745 678.544 199.467 678.544ZM201.439 674.226C202.969 674.226 204.091 673.546 204.091 672.424C204.091 671.302 202.969 670.656 201.439 670.656C199.909 670.656 198.821 671.302 198.821 672.424C198.821 673.546 199.909 674.226 201.439 674.226ZM201.439 657.226C199.093 657.226 197.325 655.56 197.325 653.282C197.325 651.004 199.093 649.338 201.439 649.338C203.785 649.338 205.553 651.004 205.553 653.282C205.553 655.56 203.785 657.226 201.439 657.226ZM201.439 655.254C202.663 655.254 203.513 654.438 203.513 653.282C203.513 652.126 202.663 651.31 201.439 651.31C200.215 651.31 199.365 652.126 199.365 653.282C199.365 654.438 200.215 655.254 201.439 655.254ZM219.411 678.544C214.651 678.544 212.203 674.09 212.203 668.65C212.203 663.21 214.651 658.756 219.411 658.756C221.179 658.756 222.675 659.334 223.763 660.626V656.818C223.763 654.88 223.491 653.044 222.743 651.48L229.373 650.256V672.322C229.373 674.43 229.917 676.164 231.107 677.422C230.121 678.068 228.965 678.544 227.707 678.544C226.211 678.544 224.817 677.83 224.307 675.926C223.219 677.694 221.485 678.544 219.411 678.544ZM220.941 673.342C222.811 673.342 223.831 671.54 223.831 668.65C223.831 665.76 222.811 663.958 220.941 663.958C219.037 663.958 217.983 665.76 217.983 668.65C217.983 671.54 219.037 673.342 220.941 673.342ZM240.828 678.544C235.252 678.544 232.158 674.158 232.158 668.616C232.158 663.414 234.844 658.756 240.522 658.756C245.452 658.756 247.832 662.224 248.036 667.392L238.278 670.69C239.026 672.662 240.658 673.342 242.63 673.342C244.534 673.342 246.268 672.696 247.594 671.506C248.07 674.668 246.098 678.544 240.828 678.544ZM237.904 667.29L242.868 665.59C242.698 664.604 241.984 663.584 240.624 663.584C238.89 663.584 238.04 665.216 237.904 667.29ZM256.768 678C257.244 676.334 257.414 674.464 257.414 672.526V656.818C257.414 654.88 257.142 653.044 256.394 651.48L263.024 650.256V660.252C264.452 659.164 266.118 658.756 267.784 658.756C271.932 658.756 273.938 661.578 273.938 664.978C273.938 667.494 272.884 669.296 270.674 670.316C271.66 672.968 273.054 675.484 274.924 678H268.294C267.138 675.994 266.288 673.852 265.846 671.744H263.024V672.526C263.024 674.464 263.194 676.334 263.67 678H256.768ZM263.024 668.106H265.472C267.138 668.106 268.158 667.188 268.158 665.794C268.158 664.604 267.41 663.652 266.016 663.652C264.418 663.652 263.024 664.91 263.024 667.46V668.106ZM282.342 678.544C278.602 678.544 276.086 676.232 276.086 672.73C276.086 669.16 278.704 667.358 282.648 667.358C284.382 667.358 285.776 667.732 286.762 668.378V666.202C286.762 664.468 285.708 663.686 284.28 663.686C282.988 663.686 281.866 664.332 281.866 665.624C281.866 665.93 281.934 666.304 282.036 666.61C279.758 667.086 277.106 665.998 277.106 663.346C277.106 660.286 280.608 658.756 284.314 658.756C289.074 658.756 292.372 661.34 292.372 665.386V672.322C292.372 674.43 292.916 676.164 294.106 677.422C293.12 678.068 291.964 678.544 290.706 678.544C289.312 678.544 288.054 678 287.442 676.334C286.354 677.694 284.62 678.544 282.342 678.544ZM284.314 674.226C285.844 674.226 286.966 673.546 286.966 672.424C286.966 671.302 285.844 670.656 284.314 670.656C282.784 670.656 281.696 671.302 281.696 672.424C281.696 673.546 282.784 674.226 284.314 674.226ZM295.486 678C295.962 676.334 296.132 674.464 296.132 672.526V665.25C296.132 663.312 295.86 661.476 295.112 659.912L301.198 658.824V661.544C302.15 659.708 303.748 658.756 306.06 658.756C310.378 658.756 311.772 662.156 311.772 666.168V672.526C311.772 674.464 311.942 676.334 312.418 678H305.516C305.992 676.334 306.162 674.464 306.162 672.526V666.678C306.162 664.978 305.618 663.924 304.326 663.924C302.456 663.924 301.742 666.134 301.742 668.922V672.526C301.742 674.464 301.912 676.334 302.388 678H295.486ZM326.38 678L322.402 664.638C321.858 662.768 321.178 660.966 320.362 659.3H327.774C327.4 660.626 327.536 662.088 327.91 663.584L329.984 671.37L332.228 663.584C332.636 662.088 332.806 660.626 332.432 659.3H339.47C338.654 660.966 337.974 662.768 337.362 664.604L333.044 678H326.38ZM340.808 678C341.284 676.334 341.454 674.464 341.454 672.526V665.25C341.454 663.312 341.182 661.476 340.434 659.912L347.064 658.756V672.526C347.064 674.464 347.234 676.334 347.71 678H340.808ZM344.072 656.512C341.59 656.512 340.57 654.88 340.57 653.384C340.57 651.888 341.59 650.256 344.072 650.256C346.554 650.256 347.574 651.888 347.574 653.384C347.574 654.88 346.554 656.512 344.072 656.512ZM368.54 685.344C368.676 683.304 366.704 682.624 364.392 682.08L361.808 681.502C359.394 680.924 357.286 680.04 357.286 677.592C357.286 675.994 358.17 674.838 359.938 674.158C357.558 672.628 356.572 669.874 356.572 667.086C356.572 663.21 358.476 659.402 363.338 658.824C363.066 657.634 362.794 656.036 362.794 654.71C362.794 651.412 364.596 650.256 366.262 650.256C367.894 650.256 369.288 651.378 369.288 653.214C369.288 655.832 366.5 656.24 366.33 658.892C370.954 659.606 372.756 663.312 372.756 667.086C372.756 671.302 370.512 675.416 364.664 675.416C363.678 675.416 362.862 675.552 362.862 676.266C362.862 676.81 363.338 677.116 364.664 677.286L368.71 677.728C371.498 678.034 373.64 679.156 373.64 681.468C373.64 684.426 370.206 685.31 368.54 685.344ZM364.664 670.384C366.33 670.384 367.248 668.922 367.248 667.086C367.248 665.25 366.33 663.788 364.664 663.788C362.998 663.788 362.08 665.25 362.08 667.086C362.08 668.922 362.998 670.384 364.664 670.384ZM374.739 678C375.215 676.334 375.385 674.464 375.385 672.526V656.818C375.385 654.88 375.113 653.044 374.365 651.48L380.995 650.256V672.526C380.995 674.464 381.165 676.334 381.641 678H374.739ZM389.888 678.544C386.114 678.544 383.598 676.232 383.598 672.73C383.598 669.16 386.216 667.358 390.16 667.358C391.894 667.358 393.288 667.732 394.274 668.378V666.202C394.274 664.468 393.186 663.686 391.792 663.686C390.5 663.686 389.378 664.366 389.378 665.624C389.378 665.93 389.446 666.304 389.548 666.61C387.27 667.086 384.618 665.998 384.618 663.346C384.618 660.286 388.12 658.756 391.792 658.756C394.104 658.756 396.144 659.402 397.538 660.456C398.83 659.402 400.564 658.756 402.638 658.756C407.568 658.756 409.948 662.224 410.152 667.392L400.394 670.69C401.142 672.662 402.774 673.342 404.746 673.342C406.65 673.342 408.384 672.696 409.71 671.506C410.186 674.668 408.214 678.544 402.944 678.544C399.918 678.544 397.64 677.286 396.144 675.212C395.056 677.184 392.778 678.544 389.888 678.544ZM391.826 674.226C393.356 674.226 394.478 673.546 394.478 672.424C394.478 671.302 393.356 670.656 391.826 670.656C390.296 670.656 389.208 671.302 389.208 672.424C389.208 673.546 390.296 674.226 391.826 674.226ZM400.02 667.29L404.984 665.59C404.814 664.604 404.1 663.584 402.74 663.584C401.006 663.584 400.156 665.216 400.02 667.29ZM419.327 678.544C414.567 678.544 412.119 674.09 412.119 668.65C412.119 663.21 414.567 658.756 419.327 658.756C421.095 658.756 422.591 659.334 423.679 660.626V656.818C423.679 654.88 423.407 653.044 422.659 651.48L429.289 650.256V672.322C429.289 674.43 429.833 676.164 431.023 677.422C430.037 678.068 428.881 678.544 427.623 678.544C426.127 678.544 424.733 677.83 424.223 675.926C423.135 677.694 421.401 678.544 419.327 678.544ZM420.857 673.342C422.727 673.342 423.747 671.54 423.747 668.65C423.747 665.76 422.727 663.958 420.857 663.958C418.953 663.958 417.899 665.76 417.899 668.65C417.899 671.54 418.953 673.342 420.857 673.342ZM440.744 678.544C435.168 678.544 432.074 674.158 432.074 668.616C432.074 663.414 434.76 658.756 440.438 658.756C445.368 658.756 447.748 662.224 447.952 667.392L438.194 670.69C438.942 672.662 440.574 673.342 442.546 673.342C444.45 673.342 446.184 672.696 447.51 671.506C447.986 674.668 446.014 678.544 440.744 678.544ZM437.82 667.29L442.784 665.59C442.614 664.604 441.9 663.584 440.54 663.584C438.806 663.584 437.956 665.216 437.82 667.29ZM465.151 678.544C458.827 678.544 456.379 674.09 456.379 668.65C456.379 663.21 458.827 658.756 465.151 658.756C471.475 658.756 473.923 663.21 473.923 668.65C473.923 674.09 471.475 678.544 465.151 678.544ZM465.151 673.342C467.089 673.342 468.143 671.54 468.143 668.65C468.143 665.76 467.089 663.958 465.151 663.958C463.213 663.958 462.159 665.76 462.159 668.65C462.159 671.54 463.213 673.342 465.151 673.342ZM482.812 678.544C478.936 678.544 475.57 676.64 475.57 673.614C475.57 670.928 478.29 669.942 480.602 670.418C480.466 670.758 480.398 671.2 480.398 671.54C480.398 672.934 481.486 673.784 482.812 673.784C484.036 673.784 484.92 673.07 484.92 672.05C484.92 670.894 483.832 670.316 482.37 669.976L480.398 669.534C477.95 668.99 475.808 667.46 475.808 664.4C475.808 661.306 478.018 658.756 483.05 658.756C485.328 658.756 487.776 659.266 489.306 660.422V666.134C487.674 664.502 485.056 663.55 483.016 663.55C481.894 663.55 481.316 663.822 481.316 664.434C481.316 665.012 481.826 665.216 483.016 665.488L484.852 665.93C487.606 666.61 490.53 668.038 490.53 671.914C490.53 675.926 487.3 678.544 482.812 678.544ZM507.75 678.544C501.426 678.544 498.978 674.09 498.978 668.65C498.978 663.21 501.426 658.756 507.75 658.756C514.074 658.756 516.522 663.21 516.522 668.65C516.522 674.09 514.074 678.544 507.75 678.544ZM507.75 673.342C509.688 673.342 510.742 671.54 510.742 668.65C510.742 665.76 509.688 663.958 507.75 663.958C505.812 663.958 504.758 665.76 504.758 668.65C504.758 671.54 505.812 673.342 507.75 673.342ZM522.444 678L518.466 664.638C517.922 662.768 517.242 660.966 516.426 659.3H523.838C523.464 660.626 523.6 662.088 523.974 663.584L526.048 671.37L528.292 663.584C528.7 662.088 528.87 660.626 528.496 659.3H535.534C534.718 660.966 534.038 662.768 533.426 664.604L529.108 678H522.444ZM544.105 678.544C538.529 678.544 535.435 674.158 535.435 668.616C535.435 663.414 538.121 658.756 543.799 658.756C548.729 658.756 551.109 662.224 551.313 667.392L541.555 670.69C542.303 672.662 543.935 673.342 545.907 673.342C547.811 673.342 549.545 672.696 550.871 671.506C551.347 674.668 549.375 678.544 544.105 678.544ZM541.181 667.29L546.145 665.59C545.975 664.604 545.261 663.584 543.901 663.584C542.167 663.584 541.317 665.216 541.181 667.29ZM553.341 678C553.817 676.334 553.987 674.464 553.987 672.526V665.25C553.987 663.312 553.715 661.476 552.967 659.912L559.053 658.824V661.714C560.005 659.776 561.501 658.756 563.439 658.756C565.717 658.756 567.723 660.218 567.723 663.108C567.723 665.93 565.853 667.324 563.099 667.324C563.711 664.978 562.895 663.924 561.671 663.924C559.869 663.924 559.597 666.134 559.597 669.602V672.526C559.597 674.464 559.869 676.334 560.583 678H553.341ZM582.786 678.544C578.026 678.544 575.578 674.09 575.578 668.65C575.578 663.21 578.026 658.756 582.786 658.756C584.554 658.756 586.05 659.334 587.138 660.626V656.818C587.138 654.88 586.866 653.044 586.118 651.48L592.748 650.256V672.322C592.748 674.43 593.292 676.164 594.482 677.422C593.496 678.068 592.34 678.544 591.082 678.544C589.586 678.544 588.192 677.83 587.682 675.926C586.594 677.694 584.86 678.544 582.786 678.544ZM584.316 673.342C586.186 673.342 587.206 671.54 587.206 668.65C587.206 665.76 586.186 663.958 584.316 663.958C582.412 663.958 581.358 665.76 581.358 668.65C581.358 671.54 582.412 673.342 584.316 673.342ZM604.203 678.544C598.627 678.544 595.533 674.158 595.533 668.616C595.533 663.414 598.219 658.756 603.897 658.756C608.827 658.756 611.207 662.224 611.411 667.392L601.653 670.69C602.401 672.662 604.033 673.342 606.005 673.342C607.909 673.342 609.643 672.696 610.969 671.506C611.445 674.668 609.473 678.544 604.203 678.544ZM601.279 667.29L606.243 665.59C606.073 664.604 605.359 663.584 603.999 663.584C602.265 663.584 601.415 665.216 601.279 667.29ZM613.439 678C613.915 676.334 614.085 674.464 614.085 672.526V665.25C614.085 663.312 613.813 661.476 613.065 659.912L619.151 658.824V661.544C620.103 659.708 621.701 658.756 624.013 658.756C628.331 658.756 629.725 662.156 629.725 666.168V672.526C629.725 674.464 629.895 676.334 630.371 678H623.469C623.945 676.334 624.115 674.464 624.115 672.526V666.678C624.115 664.978 623.571 663.924 622.279 663.924C620.409 663.924 619.695 666.134 619.695 668.922V672.526C619.695 674.464 619.865 676.334 620.341 678H613.439ZM632.63 678C633.106 676.334 633.276 674.464 633.276 672.526V665.25C633.276 663.312 633.004 661.476 632.256 659.912L638.342 658.824V661.544C639.294 659.708 640.892 658.756 643.204 658.756C647.522 658.756 648.916 662.156 648.916 666.168V672.526C648.916 674.464 649.086 676.334 649.562 678H642.66C643.136 676.334 643.306 674.464 643.306 672.526V666.678C643.306 664.978 642.762 663.924 641.47 663.924C639.6 663.924 638.886 666.134 638.886 668.922V672.526C638.886 674.464 639.056 676.334 639.532 678H632.63ZM660.084 678.544C654.508 678.544 651.414 674.158 651.414 668.616C651.414 663.414 654.1 658.756 659.778 658.756C664.708 658.756 667.088 662.224 667.292 667.392L657.534 670.69C658.282 672.662 659.914 673.342 661.886 673.342C663.79 673.342 665.524 672.696 666.85 671.506C667.326 674.668 665.354 678.544 660.084 678.544ZM657.16 667.29L662.124 665.59C661.954 664.604 661.24 663.584 659.88 663.584C658.146 663.584 657.296 665.216 657.16 667.29ZM676.024 678C676.5 676.334 676.67 674.464 676.67 672.526V656.818C676.67 654.88 676.398 653.044 675.65 651.48L682.28 650.256V660.932C683.164 659.538 684.558 658.756 686.598 658.756C690.916 658.756 692.31 662.156 692.31 666.168V672.526C692.31 674.464 692.48 676.334 692.956 678H686.054C686.53 676.334 686.7 674.464 686.7 672.526V666.678C686.7 664.978 686.156 663.924 684.864 663.924C682.994 663.924 682.28 666.134 682.28 668.922V672.526C682.28 674.464 682.45 676.334 682.926 678H676.024ZM703.447 678.544C697.871 678.544 694.777 674.158 694.777 668.616C694.777 663.414 697.463 658.756 703.141 658.756C708.071 658.756 710.451 662.224 710.655 667.392L700.897 670.69C701.645 672.662 703.277 673.342 705.249 673.342C707.153 673.342 708.887 672.696 710.213 671.506C710.689 674.668 708.717 678.544 703.447 678.544ZM700.523 667.29L705.487 665.59C705.317 664.604 704.603 663.584 703.243 663.584C701.509 663.584 700.659 665.216 700.523 667.29ZM712.683 678C713.159 676.334 713.329 674.464 713.329 672.526V665.25C713.329 663.312 713.057 661.476 712.309 659.912L718.395 658.824V661.714C719.347 659.776 720.843 658.756 722.781 658.756C725.059 658.756 727.065 660.218 727.065 663.108C727.065 665.93 725.195 667.324 722.441 667.324C723.053 664.978 722.237 663.924 721.013 663.924C719.211 663.924 718.939 666.134 718.939 669.602V672.526C718.939 674.464 719.211 676.334 719.925 678H712.683ZM746.99 685.344C747.126 683.304 745.154 682.624 742.842 682.08L740.258 681.502C737.844 680.924 735.736 680.04 735.736 677.592C735.736 675.994 736.62 674.838 738.388 674.158C736.008 672.628 735.022 669.874 735.022 667.086C735.022 663.21 736.926 659.402 741.788 658.824C741.516 657.634 741.244 656.036 741.244 654.71C741.244 651.412 743.046 650.256 744.712 650.256C746.344 650.256 747.738 651.378 747.738 653.214C747.738 655.832 744.95 656.24 744.78 658.892C749.404 659.606 751.206 663.312 751.206 667.086C751.206 671.302 748.962 675.416 743.114 675.416C742.128 675.416 741.312 675.552 741.312 676.266C741.312 676.81 741.788 677.116 743.114 677.286L747.16 677.728C749.948 678.034 752.09 679.156 752.09 681.468C752.09 684.426 748.656 685.31 746.99 685.344ZM743.114 670.384C744.78 670.384 745.698 668.922 745.698 667.086C745.698 665.25 744.78 663.788 743.114 663.788C741.448 663.788 740.53 665.25 740.53 667.086C740.53 668.922 741.448 670.384 743.114 670.384ZM761.718 678.544C756.142 678.544 753.048 674.158 753.048 668.616C753.048 663.414 755.734 658.756 761.412 658.756C766.342 658.756 768.722 662.224 768.926 667.392L759.168 670.69C759.916 672.662 761.548 673.342 763.52 673.342C765.424 673.342 767.158 672.696 768.484 671.506C768.96 674.668 766.988 678.544 761.718 678.544ZM758.794 667.29L763.758 665.59C763.588 664.604 762.874 663.584 761.514 663.584C759.78 663.584 758.93 665.216 758.794 667.29ZM774.821 678L770.843 664.638C770.299 662.768 769.619 660.966 768.803 659.3H776.215C775.841 660.626 775.977 662.088 776.351 663.584L778.425 671.37L780.669 663.584C781.077 662.088 781.247 660.626 780.873 659.3H787.911C787.095 660.966 786.415 662.768 785.803 664.604L781.485 678H774.821ZM789.249 678C789.725 676.334 789.895 674.464 789.895 672.526V665.25C789.895 663.312 789.623 661.476 788.875 659.912L795.505 658.756V672.526C795.505 674.464 795.675 676.334 796.151 678H789.249ZM792.513 656.512C790.031 656.512 789.011 654.88 789.011 653.384C789.011 651.888 790.031 650.256 792.513 650.256C794.995 650.256 796.015 651.888 796.015 653.384C796.015 654.88 794.995 656.512 792.513 656.512ZM798.513 678C798.989 676.334 799.159 674.464 799.159 672.526V665.25C799.159 663.312 798.887 661.476 798.139 659.912L804.225 658.824V661.544C805.177 659.708 806.775 658.756 809.087 658.756C813.405 658.756 814.799 662.156 814.799 666.168V672.526C814.799 674.464 814.969 676.334 815.445 678H808.543C809.019 676.334 809.189 674.464 809.189 672.526V666.678C809.189 664.978 808.645 663.924 807.353 663.924C805.483 663.924 804.769 666.134 804.769 668.922V672.526C804.769 674.464 804.939 676.334 805.415 678H798.513ZM824.538 678.544C820.662 678.544 817.296 676.64 817.296 673.614C817.296 670.928 820.016 669.942 822.328 670.418C822.192 670.758 822.124 671.2 822.124 671.54C822.124 672.934 823.212 673.784 824.538 673.784C825.762 673.784 826.646 673.07 826.646 672.05C826.646 670.894 825.558 670.316 824.096 669.976L822.124 669.534C819.676 668.99 817.534 667.46 817.534 664.4C817.534 661.306 819.744 658.756 824.776 658.756C827.054 658.756 829.502 659.266 831.032 660.422V666.134C829.4 664.502 826.782 663.55 824.742 663.55C823.62 663.55 823.042 663.822 823.042 664.434C823.042 665.012 823.552 665.216 824.742 665.488L826.578 665.93C829.332 666.61 832.256 668.038 832.256 671.914C832.256 675.926 829.026 678.544 824.538 678.544ZM839.55 678.544C837.646 678.544 835.742 677.456 835.742 673.682V664.434C835.164 664.434 834.008 664.502 833.362 664.74C833.09 663.89 832.954 663.108 832.954 662.394C832.954 660.354 834.076 659.3 835.878 659.3C835.878 658.212 835.572 657.362 835.572 656.614C835.572 654.982 837.102 653.69 839.414 653.69C840.264 653.69 841.046 653.86 841.76 654.098C841.454 655.73 841.352 657.43 841.352 659.3C842.644 659.3 844.004 659.13 845.126 658.756C845.33 659.572 845.398 660.286 845.398 660.864C845.398 663.312 844.242 664.434 842.168 664.434H841.352V672.322C841.352 674.43 841.896 676.164 843.086 677.422C842.032 678.102 840.774 678.544 839.55 678.544ZM56.224 730C56.7 728.334 56.87 726.464 56.87 724.526V717.25C56.87 715.312 56.598 713.476 55.85 711.912L62.48 710.756V724.526C62.48 726.464 62.65 728.334 63.126 730H56.224ZM59.488 708.512C57.006 708.512 55.986 706.88 55.986 705.384C55.986 703.888 57.006 702.256 59.488 702.256C61.97 702.256 62.99 703.888 62.99 705.384C62.99 706.88 61.97 708.512 59.488 708.512ZM72.2943 730C72.7703 728.334 72.9403 726.464 72.9403 724.526V717.25C72.9403 715.312 72.6683 713.476 71.9203 711.912L78.0063 710.824V713.442C78.9583 711.64 80.4883 710.756 82.7663 710.756C85.3503 710.756 86.8123 711.946 87.5943 713.816C88.5123 711.81 90.0763 710.756 92.5243 710.756C96.8423 710.756 98.0663 714.156 98.0663 718.168V724.526C98.0663 726.464 98.2363 728.334 98.7123 730H91.8103C92.2863 728.334 92.4563 726.464 92.4563 724.526V718.678C92.4563 716.978 91.9123 715.924 90.6203 715.924C88.7503 715.924 88.3083 718.134 88.3083 720.922V724.526C88.3083 726.464 88.4783 728.334 88.9543 730H82.0523C82.5283 728.334 82.6983 726.464 82.6983 724.526V718.678C82.6983 716.978 82.1543 715.924 80.8623 715.924C78.9923 715.924 78.5503 718.134 78.5503 720.922V724.526C78.5503 726.464 78.7203 728.334 79.1963 730H72.2943ZM106.831 730.544C103.091 730.544 100.575 728.232 100.575 724.73C100.575 721.16 103.193 719.358 107.137 719.358C108.871 719.358 110.265 719.732 111.251 720.378V718.202C111.251 716.468 110.197 715.686 108.769 715.686C107.477 715.686 106.355 716.332 106.355 717.624C106.355 717.93 106.423 718.304 106.525 718.61C104.247 719.086 101.595 717.998 101.595 715.346C101.595 712.286 105.097 710.756 108.803 710.756C113.563 710.756 116.861 713.34 116.861 717.386V724.322C116.861 726.43 117.405 728.164 118.595 729.422C117.609 730.068 116.453 730.544 115.195 730.544C113.801 730.544 112.543 730 111.931 728.334C110.843 729.694 109.109 730.544 106.831 730.544ZM108.803 726.226C110.333 726.226 111.455 725.546 111.455 724.424C111.455 723.302 110.333 722.656 108.803 722.656C107.273 722.656 106.185 723.302 106.185 724.424C106.185 725.546 107.273 726.226 108.803 726.226ZM119.974 730C120.45 728.334 120.62 726.464 120.62 724.526V717.25C120.62 715.312 120.348 713.476 119.6 711.912L125.686 710.824V713.544C126.638 711.708 128.236 710.756 130.548 710.756C134.866 710.756 136.26 714.156 136.26 718.168V724.526C136.26 726.464 136.43 728.334 136.906 730H130.004C130.48 728.334 130.65 726.464 130.65 724.526V718.678C130.65 716.978 130.106 715.924 128.814 715.924C126.944 715.924 126.23 718.134 126.23 720.922V724.526C126.23 726.464 126.4 728.334 126.876 730H119.974ZM150.827 737.344C150.963 735.304 148.991 734.624 146.679 734.08L144.095 733.502C141.681 732.924 139.573 732.04 139.573 729.592C139.573 727.994 140.457 726.838 142.225 726.158C139.845 724.628 138.859 721.874 138.859 719.086C138.859 715.21 140.763 711.402 145.625 710.824C145.353 709.634 145.081 708.036 145.081 706.71C145.081 703.412 146.883 702.256 148.549 702.256C150.181 702.256 151.575 703.378 151.575 705.214C151.575 707.832 148.787 708.24 148.617 710.892C153.241 711.606 155.043 715.312 155.043 719.086C155.043 723.302 152.799 727.416 146.951 727.416C145.965 727.416 145.149 727.552 145.149 728.266C145.149 728.81 145.625 729.116 146.951 729.286L150.997 729.728C153.785 730.034 155.927 731.156 155.927 733.468C155.927 736.426 152.493 737.31 150.827 737.344ZM146.951 722.384C148.617 722.384 149.535 720.922 149.535 719.086C149.535 717.25 148.617 715.788 146.951 715.788C145.285 715.788 144.367 717.25 144.367 719.086C144.367 720.922 145.285 722.384 146.951 722.384ZM165.556 730.544C159.98 730.544 156.886 726.158 156.886 720.616C156.886 715.414 159.572 710.756 165.25 710.756C170.18 710.756 172.56 714.224 172.764 719.392L163.006 722.69C163.754 724.662 165.386 725.342 167.358 725.342C169.262 725.342 170.996 724.696 172.322 723.506C172.798 726.668 170.826 730.544 165.556 730.544ZM162.632 719.29L167.596 717.59C167.426 716.604 166.712 715.584 165.352 715.584C163.618 715.584 162.768 717.216 162.632 719.29ZM187.481 730.544C183.741 730.544 181.225 728.232 181.225 724.73C181.225 721.16 183.843 719.358 187.787 719.358C189.521 719.358 190.915 719.732 191.901 720.378V718.202C191.901 716.468 190.847 715.686 189.419 715.686C188.127 715.686 187.005 716.332 187.005 717.624C187.005 717.93 187.073 718.304 187.175 718.61C184.897 719.086 182.245 717.998 182.245 715.346C182.245 712.286 185.747 710.756 189.453 710.756C194.213 710.756 197.511 713.34 197.511 717.386V724.322C197.511 726.43 198.055 728.164 199.245 729.422C198.259 730.068 197.103 730.544 195.845 730.544C194.451 730.544 193.193 730 192.581 728.334C191.493 729.694 189.759 730.544 187.481 730.544ZM189.453 726.226C190.983 726.226 192.105 725.546 192.105 724.424C192.105 723.302 190.983 722.656 189.453 722.656C187.923 722.656 186.835 723.302 186.835 724.424C186.835 725.546 187.923 726.226 189.453 726.226ZM189.453 709.226C187.107 709.226 185.339 707.56 185.339 705.282C185.339 703.004 187.107 701.338 189.453 701.338C191.799 701.338 193.567 703.004 193.567 705.282C193.567 707.56 191.799 709.226 189.453 709.226ZM189.453 707.254C190.677 707.254 191.527 706.438 191.527 705.282C191.527 704.126 190.677 703.31 189.453 703.31C188.229 703.31 187.379 704.126 187.379 705.282C187.379 706.438 188.229 707.254 189.453 707.254ZM200.624 730C201.1 728.334 201.27 726.464 201.27 724.526V717.25C201.27 715.312 200.998 713.476 200.25 711.912L206.336 710.824V713.714C207.288 711.776 208.784 710.756 210.722 710.756C213 710.756 215.006 712.218 215.006 715.108C215.006 717.93 213.136 719.324 210.382 719.324C210.994 716.978 210.178 715.924 208.954 715.924C207.152 715.924 206.88 718.134 206.88 721.602V724.526C206.88 726.464 207.152 728.334 207.866 730H200.624ZM222.106 716.23C220.1 716.774 217.652 716.128 217.652 713.68C217.652 711.946 218.876 710.824 220.134 709.702C218.094 709.668 216.496 708.002 216.496 705.962C216.496 703.888 218.094 702.222 220.236 702.222C222.446 702.222 224.112 703.99 224.112 706.37C224.112 709.396 221.494 711.504 221.494 714.122C221.494 714.802 221.664 715.482 222.106 716.23ZM231.388 716.23C229.382 716.774 226.934 716.128 226.934 713.68C226.934 711.946 228.158 710.824 229.416 709.702C227.376 709.668 225.778 708.002 225.778 705.962C225.778 703.888 227.376 702.222 229.518 702.222C231.728 702.222 233.394 703.99 233.394 706.37C233.394 709.396 230.776 711.504 230.776 714.122C230.776 714.802 230.946 715.482 231.388 716.23Z" fill="#5F141E"/>
</svg>
