<svg width="1080" height="1080" viewBox="0 0 1080 1080" fill="none" xmlns="http://www.w3.org/2000/svg">
<rect width="1080" height="1080" fill="#F41116"/>
<path fill-rule="evenodd" clip-rule="evenodd" d="M366.866 84.413C370.059 78.5269 372.691 71.8 373.755 66.0829C376.108 66.4193 378.629 66.5874 381.373 66.5874C384.51 66.5874 386.919 66.3635 389.047 66.0271C389.999 70.623 387.814 75.3317 382.045 75.3317C381.597 75.3317 381.149 75.2754 380.701 75.2193C379.525 78.246 378.18 80.9373 376.669 83.3474C383.558 85.2529 388.879 90.5225 388.879 99.2665C388.879 108.067 383.614 113 377.844 113C374.54 113 372.075 111.374 370.955 108.964C374.932 108.403 379.469 105.601 379.469 100.107C379.469 94.278 374.316 90.2983 366.866 89.9619V102.406C366.866 105.601 367.146 108.684 367.931 111.43H356.56C357.344 108.684 357.624 105.601 357.624 102.406V76.229C357.624 73.0342 357.232 70.0071 356 67.4283L366.866 65.6907V84.413ZM417.953 79.7041C425.571 79.7042 431.004 83.7965 431.004 90.5787V102.125C431.004 105.601 431.956 108.516 433.86 110.533C432.348 111.542 430.499 112.327 428.539 112.327C426.299 112.327 424.283 111.374 423.33 108.572C421.538 110.87 418.625 112.327 414.873 112.327C408.823 112.327 404.567 108.572 404.567 102.742C404.567 96.8002 408.991 93.7733 415.377 93.7733C418.289 93.7733 420.698 94.3905 422.378 95.6232V91.8111C422.378 88.7283 420.473 87.3277 417.897 87.3277C415.545 87.3277 413.64 88.5603 413.64 90.8028C413.64 91.3633 413.752 91.9793 413.92 92.4837C410.391 93.2126 406.19 91.4752 406.19 87.2711C406.19 82.3384 411.848 79.7041 417.953 79.7041ZM446.41 79.7041C450.219 79.7042 454.196 80.6015 456.716 82.563V91.5312C454.028 88.7843 449.771 87.1031 446.354 87.103C444.282 87.103 443.161 87.7198 443.161 88.8963C443.161 89.9615 444.057 90.354 446.13 90.8586L449.322 91.6436C453.972 92.8203 458.621 95.2315 458.621 101.509C458.621 108.235 453.299 112.327 446.074 112.327C439.632 112.327 434.199 109.02 434.199 104.087C434.199 99.771 438.512 98.2021 442.096 98.9301C441.872 99.4907 441.76 100.276 441.76 100.892C441.76 103.471 443.722 104.928 446.074 104.928C448.315 104.928 449.938 103.639 449.938 101.733C449.938 99.6589 448.09 98.6502 445.514 98.0335L442.209 97.2484C438.288 96.3513 434.647 93.8294 434.647 88.8405C434.647 83.7401 438.456 79.7041 446.41 79.7041ZM472.401 79.7041C476.21 79.7042 480.186 80.6015 482.707 82.563V91.5312C480.019 88.7843 475.762 87.1031 472.345 87.103C470.273 87.103 469.152 87.7198 469.152 88.8963C469.152 89.9615 470.049 90.354 472.121 90.8586L475.314 91.6436C479.963 92.8203 484.612 95.2315 484.612 101.509C484.612 108.235 479.291 112.327 472.065 112.327C465.624 112.327 460.191 109.02 460.191 104.087C460.191 99.771 464.503 98.2021 468.087 98.9301C467.864 99.4907 467.752 100.276 467.752 100.892C467.752 103.471 469.713 104.928 472.065 104.928C474.306 104.928 475.929 103.639 475.929 101.733C475.929 99.6589 474.081 98.6502 471.504 98.0335L468.2 97.2484C464.279 96.3513 460.639 93.8294 460.639 88.8405C460.639 83.7401 464.448 79.7041 472.401 79.7041ZM500.186 79.7041C508.083 79.7042 512.06 85.3651 512.396 93.661L495.984 99.3223C497.161 102.91 500.073 104.312 503.49 104.312C506.738 104.312 509.595 103.134 511.724 101.116C512.395 106.217 509.091 112.327 500.745 112.327C491.728 112.327 486.519 105.209 486.519 95.9596C486.519 87.2717 491.111 79.7041 500.186 79.7041ZM542.254 79.7041C552.391 79.7041 556.536 86.9351 556.536 96.0154C556.536 105.096 552.391 112.327 542.254 112.327C532.059 112.327 527.971 105.096 527.971 96.0154C527.971 86.9351 532.059 79.7041 542.254 79.7041ZM583.858 71.3521C585.145 71.3521 586.322 71.6323 587.498 72.0248C586.993 74.7712 586.826 77.6302 586.826 80.6015C588.954 80.6015 591.139 80.3208 593.043 79.7041C593.379 80.9929 593.491 82.0582 593.491 82.9552C593.491 86.7669 591.698 88.5041 588.393 88.5041H586.826V102.125C586.826 105.657 587.777 108.516 589.682 110.533C588.057 111.598 586.098 112.327 584.192 112.327C581.112 112.327 578.199 110.421 578.199 104.255V88.5041H570.862V102.125C570.862 105.657 571.815 108.516 573.719 110.533C572.095 111.598 570.134 112.327 568.174 112.327C565.149 112.327 562.236 110.421 562.236 104.255V88.5041C561.228 88.5042 559.379 88.6163 558.259 89.0087C557.811 87.6639 557.643 86.4866 557.643 85.3655C557.643 82.1706 559.492 80.6016 562.46 80.6015C562.46 78.8075 561.956 77.2938 561.956 76.0044C561.956 73.4263 564.309 71.3521 567.893 71.3521C569.182 71.3521 570.358 71.6323 571.534 72.0248C571.03 74.7712 570.862 77.6302 570.862 80.6015H578.423C578.423 78.8075 577.919 77.2938 577.919 76.0044C577.919 73.4263 580.273 71.3521 583.858 71.3521ZM607.457 79.7041C615.354 79.7041 619.331 85.3651 619.667 93.661L603.257 99.3223C604.433 102.91 607.345 104.312 610.762 104.312C614.01 104.312 616.867 103.134 618.996 101.116C619.667 106.217 616.363 112.327 608.018 112.327C598.999 112.327 593.791 105.209 593.791 95.9596C593.791 87.2718 598.383 79.7042 607.457 79.7041ZM673.893 79.7041C681.791 79.7042 685.768 85.3651 686.104 93.661L669.692 99.3223C670.869 102.91 673.781 104.312 677.197 104.312C680.446 104.312 683.303 103.134 685.431 101.116C686.103 106.217 682.799 112.327 674.453 112.327C665.435 112.327 660.226 105.209 660.226 95.9596C660.226 87.2717 664.819 79.7041 673.893 79.7041ZM697.46 71.3521C698.748 71.3521 699.925 71.6323 701.101 72.0248C700.597 74.7712 700.428 77.6302 700.428 80.6015C702.557 80.6015 704.741 80.3208 706.646 79.7041C706.982 80.9929 707.093 82.0582 707.093 82.9552C707.093 86.7669 705.302 88.5041 701.997 88.5041H700.428V102.125C700.428 105.657 701.381 108.516 703.284 110.533C701.661 111.598 699.7 112.327 697.74 112.327C694.715 112.327 691.803 110.421 691.803 104.255V88.5041C690.795 88.5041 688.945 88.6162 687.826 89.0087C687.378 87.6639 687.21 86.4866 687.21 85.3655C687.21 82.1705 689.058 80.6015 692.027 80.6015C692.027 78.8075 691.523 77.2938 691.523 76.0044C691.523 73.4263 693.875 71.3522 697.46 71.3521ZM656.976 102.406C656.976 105.545 657.256 108.74 657.984 111.431H647.286C648.014 108.74 648.294 105.545 648.294 102.406V90.3548C648.294 87.1598 647.846 84.0769 646.67 81.554L656.976 79.7041V102.406ZM401.765 102.406C401.765 105.545 402.045 108.74 402.773 111.43H392.13C392.859 108.74 393.139 105.545 393.139 102.406V73.9304C393.139 70.7355 392.691 68.045 391.515 65.6349C394.931 65.0182 398.684 64.0652 401.765 63V102.406ZM524.721 102.406C524.721 105.545 525.001 108.74 525.728 111.43H515.086C515.815 108.74 516.094 105.545 516.094 102.406V73.9304C516.094 70.7355 515.646 68.045 514.47 65.6349C517.887 65.0182 521.64 64.0652 524.721 63V102.406ZM638.602 79.7041C642.355 79.7042 645.547 82.1143 645.547 86.7108C645.547 91.1952 642.579 93.3247 638.322 93.3247C639.33 89.5131 637.986 87.664 635.914 87.664C632.833 87.6642 632.217 91.4197 632.217 97.1368V102.406C632.217 105.545 632.61 108.74 633.729 111.43H622.526C623.254 108.74 623.535 105.545 623.535 102.406V90.3541C623.535 87.1592 623.087 84.0762 621.911 81.5533L631.432 79.8165V84.5245C633.001 81.3857 635.41 79.7041 638.602 79.7041ZM417.897 98.986C415.153 98.986 413.248 100.219 413.248 102.294C413.248 104.311 415.153 105.601 417.897 105.601C420.641 105.601 422.658 104.311 422.658 102.294C422.658 100.219 420.641 98.986 417.897 98.986ZM542.254 87.7199C538.837 87.7199 536.931 90.8588 536.931 96.0154C536.931 101.172 538.837 104.312 542.254 104.312C545.67 104.312 547.63 101.172 547.63 96.0154C547.63 90.8588 545.67 87.7199 542.254 87.7199ZM500.353 87.1595C497.273 87.1595 495.704 90.018 495.424 93.8856L504.386 90.8028C504.05 88.8967 502.762 87.1596 500.353 87.1595ZM607.625 87.1595C604.544 87.1596 602.976 90.0181 602.696 93.8856L611.658 90.8028C611.322 88.8966 610.034 87.1595 607.625 87.1595ZM674.061 87.1595C670.981 87.1595 669.412 90.018 669.132 93.8856L678.094 90.8028C677.758 88.8967 676.469 87.1596 674.061 87.1595ZM718.806 65.7473C722.382 65.7473 724.999 68.406 725 71.894C725 75.3819 722.382 78.0938 718.806 78.0938C715.188 78.0938 712.571 75.3556 712.571 71.894C712.571 68.4324 715.226 65.7473 718.806 65.7473ZM718.806 66.9323C715.953 66.9323 713.928 68.9983 713.928 71.894C713.928 74.8291 716.006 76.9088 718.806 76.9088C721.607 76.9088 723.658 74.8028 723.658 71.894C723.658 68.9853 721.66 66.9323 718.806 66.9323ZM652.327 65.7473C656.192 65.7474 657.816 68.2696 657.816 70.6235C657.816 73.0342 656.192 75.5563 652.327 75.5563C648.463 75.5563 646.837 73.0343 646.837 70.6235C646.837 68.2695 648.462 65.7473 652.327 65.7473ZM719.455 68.6472C720.657 68.6473 721.448 69.3888 721.448 70.3989C721.447 71.2425 720.913 71.8181 720.03 72.0099C720.772 72.1761 721.102 72.7256 721.296 73.5694L721.615 74.9373H720.224L720.03 73.7616C719.888 72.8283 719.773 72.6105 718.743 72.6105H717.754V74.9373H716.468V68.6472H719.455ZM717.754 69.6958V71.5619H718.817C719.685 71.5619 720.161 71.2168 720.161 70.5777C720.161 69.9385 719.658 69.6958 718.817 69.6958H717.754Z" fill="#FFF0D3"/>
<path d="M58.9 308C60.3 303.1 60.8 297.6 60.8 291.9V244.1C60.8 238.4 60.3 232.9 58.9 228H89.7C88.7 231.4 89.2 235.1 90.4 238.9L100 268.9L109.6 239C110.8 235.2 111.3 231.4 110.3 228H141.3C139.9 232.9 139.4 238.4 139.4 244.1V291.9C139.4 297.6 139.9 303.1 141.3 308H119.9C121.3 303.1 121.8 297.6 121.8 291.9V252.7L104.1 308H94.6L76.9 252.7V291.9C76.9 297.6 77.4 303.1 78.8 308H58.9ZM166.134 309.6C155.134 309.6 147.734 302.8 147.734 292.5C147.734 282 155.434 276.7 167.034 276.7C172.134 276.7 176.234 277.8 179.134 279.7V273.3C179.134 268.2 176.034 265.9 171.834 265.9C168.034 265.9 164.734 267.8 164.734 271.6C164.734 272.5 164.934 273.6 165.234 274.5C158.534 275.9 150.734 272.7 150.734 264.9C150.734 255.9 161.034 251.4 171.934 251.4C185.934 251.4 195.634 259 195.634 270.9V291.3C195.634 297.5 197.234 302.6 200.734 306.3C197.834 308.2 194.434 309.6 190.734 309.6C186.634 309.6 182.934 308 181.134 303.1C177.934 307.1 172.834 309.6 166.134 309.6ZM171.934 296.9C176.434 296.9 179.734 294.9 179.734 291.6C179.734 288.3 176.434 286.4 171.934 286.4C167.434 286.4 164.234 288.3 164.234 291.6C164.234 294.9 167.434 296.9 171.934 296.9ZM204.791 308C206.191 303.1 206.691 297.6 206.691 291.9V270.5C206.691 264.8 205.891 259.4 203.691 254.8L221.591 251.6V259.6C224.391 254.2 229.091 251.4 235.891 251.4C248.591 251.4 252.691 261.4 252.691 273.2V291.9C252.691 297.6 253.191 303.1 254.591 308H234.291C235.691 303.1 236.191 297.6 236.191 291.9V274.7C236.191 269.7 234.591 266.6 230.791 266.6C225.291 266.6 223.191 273.1 223.191 281.3V291.9C223.191 297.6 223.691 303.1 225.091 308H204.791ZM281.237 309.6C267.237 309.6 260.037 296.5 260.037 280.5C260.037 264.5 267.237 251.4 281.237 251.4C286.437 251.4 290.837 253.1 294.037 256.9V245.7C294.037 240 293.237 234.6 291.037 230L310.537 226.4V291.3C310.537 297.5 312.137 302.6 315.637 306.3C312.737 308.2 309.337 309.6 305.637 309.6C301.237 309.6 297.137 307.5 295.637 301.9C292.437 307.1 287.337 309.6 281.237 309.6ZM285.737 294.3C291.237 294.3 294.237 289 294.237 280.5C294.237 272 291.237 266.7 285.737 266.7C280.137 266.7 277.037 272 277.037 280.5C277.037 289 280.137 294.3 285.737 294.3ZM345.148 308C346.548 303.1 347.048 297.6 347.048 291.9V267.9C344.048 268 341.148 268.3 338.748 269C337.648 266.3 336.948 263.8 336.948 261.4C336.948 257.1 339.148 253.8 345.248 253.1C342.948 248.6 341.948 245.3 341.948 242C341.948 232 351.148 226.4 362.648 226.4C371.548 226.4 379.948 229.9 379.948 237.6C379.948 245.2 371.748 246.5 366.748 246.6C366.848 246 366.848 245.6 366.848 245.2C366.848 242.5 365.648 240.8 363.248 240.8C361.248 240.8 359.048 242 359.048 245C359.048 247.3 360.448 250.4 362.248 253H365.748C370.348 253 374.048 252.5 377.148 251.6C377.748 254 378.048 256.1 378.048 258C378.048 264.5 374.448 268.1 368.448 268.1H363.548V291.9C363.548 297.6 364.348 303.1 366.448 308H345.148ZM382.916 308C384.316 303.1 384.816 297.6 384.816 291.9V270.5C384.816 264.8 384.016 259.4 381.816 254.8L399.716 251.6V260.1C402.516 254.4 406.916 251.4 412.616 251.4C419.316 251.4 425.216 255.7 425.216 264.2C425.216 272.5 419.716 276.6 411.616 276.6C413.416 269.7 411.016 266.6 407.416 266.6C402.116 266.6 401.316 273.1 401.316 283.3V291.9C401.316 297.6 402.116 303.1 404.216 308H382.916ZM444.845 309.6C433.845 309.6 426.445 302.8 426.445 292.5C426.445 282 434.145 276.7 445.745 276.7C450.845 276.7 454.945 277.8 457.845 279.7V273.3C457.845 268.2 454.745 265.9 450.545 265.9C446.745 265.9 443.445 267.8 443.445 271.6C443.445 272.5 443.645 273.6 443.945 274.5C437.245 275.9 429.445 272.7 429.445 264.9C429.445 255.9 439.745 251.4 450.645 251.4C464.645 251.4 474.345 259 474.345 270.9V291.3C474.345 297.5 475.945 302.6 479.445 306.3C476.545 308.2 473.145 309.6 469.445 309.6C465.345 309.6 461.645 308 459.845 303.1C456.645 307.1 451.545 309.6 444.845 309.6ZM450.645 296.9C455.145 296.9 458.445 294.9 458.445 291.6C458.445 288.3 455.145 286.4 450.645 286.4C446.145 286.4 442.945 288.3 442.945 291.6C442.945 294.9 446.145 296.9 450.645 296.9ZM524.022 308L506.222 243.8C504.622 238.3 502.822 232.9 500.422 228H523.122C522.022 231.9 522.422 236.2 523.522 240.6L534.522 284L545.622 240.6C546.722 236.2 547.122 231.9 545.922 228H567.622C565.222 232.9 563.422 238.3 561.822 243.8L544.022 308H524.022ZM588.955 309.6C572.555 309.6 563.455 296.7 563.455 280.4C563.455 265.1 571.355 251.4 588.055 251.4C602.555 251.4 609.555 261.6 610.155 276.8L581.455 286.5C583.655 292.3 588.455 294.3 594.255 294.3C599.855 294.3 604.955 292.4 608.855 288.9C610.255 298.2 604.455 309.6 588.955 309.6ZM580.355 276.5L594.955 271.5C594.455 268.6 592.355 265.6 588.355 265.6C583.255 265.6 580.755 270.4 580.355 276.5ZM636.22 309.6C624.82 309.6 614.92 304 614.92 295.1C614.92 287.2 622.92 284.3 629.72 285.7C629.32 286.7 629.12 288 629.12 289C629.12 293.1 632.32 295.6 636.22 295.6C639.82 295.6 642.42 293.5 642.42 290.5C642.42 287.1 639.22 285.4 634.92 284.4L629.12 283.1C621.92 281.5 615.62 277 615.62 268C615.62 258.9 622.12 251.4 636.92 251.4C643.62 251.4 650.82 252.9 655.32 256.3V273.1C650.52 268.3 642.82 265.5 636.82 265.5C633.52 265.5 631.82 266.3 631.82 268.1C631.82 269.8 633.32 270.4 636.82 271.2L642.22 272.5C650.32 274.5 658.92 278.7 658.92 290.1C658.92 301.9 649.42 309.6 636.22 309.6ZM680.371 309.6C674.771 309.6 669.171 306.4 669.171 295.3V268.1C667.471 268.1 664.071 268.3 662.171 269C661.371 266.5 660.971 264.2 660.971 262.1C660.971 256.1 664.271 253 669.571 253C669.571 249.8 668.671 247.3 668.671 245.1C668.671 240.3 673.171 236.5 679.971 236.5C682.471 236.5 684.771 237 686.871 237.7C685.971 242.5 685.671 247.5 685.671 253C689.471 253 693.471 252.5 696.771 251.4C697.371 253.8 697.571 255.9 697.571 257.6C697.571 264.8 694.171 268.1 688.071 268.1H685.671V291.3C685.671 297.5 687.271 302.6 690.771 306.3C687.671 308.3 683.971 309.6 680.371 309.6ZM724.306 309.6C707.906 309.6 698.806 296.7 698.806 280.4C698.806 265.1 706.706 251.4 723.406 251.4C737.906 251.4 744.906 261.6 745.506 276.8L716.806 286.5C719.006 292.3 723.806 294.3 729.606 294.3C735.206 294.3 740.306 292.4 744.206 288.9C745.606 298.2 739.806 309.6 724.306 309.6ZM715.706 276.5L730.306 271.5C729.806 268.6 727.706 265.6 723.706 265.6C718.606 265.6 716.106 270.4 715.706 276.5ZM786.259 329.6C786.659 323.6 780.859 321.6 774.059 320L766.459 318.3C759.359 316.6 753.159 314 753.159 306.8C753.159 302.1 755.759 298.7 760.959 296.7C753.959 292.2 751.059 284.1 751.059 275.9C751.059 264.5 756.659 253.3 770.959 251.6C770.159 248.1 769.359 243.4 769.359 239.5C769.359 229.8 774.659 226.4 779.559 226.4C784.359 226.4 788.459 229.7 788.459 235.1C788.459 242.8 780.259 244 779.759 251.8C793.359 253.9 798.659 264.8 798.659 275.9C798.659 288.3 792.059 300.4 774.859 300.4C771.959 300.4 769.559 300.8 769.559 302.9C769.559 304.5 770.959 305.4 774.859 305.9L786.759 307.2C794.959 308.1 801.259 311.4 801.259 318.2C801.259 326.9 791.159 329.5 786.259 329.6ZM774.859 285.6C779.759 285.6 782.459 281.3 782.459 275.9C782.459 270.5 779.759 266.2 774.859 266.2C769.959 266.2 767.259 270.5 767.259 275.9C767.259 281.3 769.959 285.6 774.859 285.6ZM804.791 308C806.191 303.1 806.691 297.6 806.691 291.9V270.5C806.691 264.8 805.891 259.4 803.691 254.8L821.591 251.6V259.6C824.391 254.2 829.091 251.4 835.891 251.4C848.591 251.4 852.691 261.4 852.691 273.2V291.9C852.691 297.6 853.191 303.1 854.591 308H834.291C835.691 303.1 836.191 297.6 836.191 291.9V274.7C836.191 269.7 834.591 266.6 830.791 266.6C825.291 266.6 823.191 273.1 823.191 281.3V291.9C823.191 297.6 823.691 303.1 825.091 308H804.791ZM885.537 309.6C869.137 309.6 860.037 296.7 860.037 280.4C860.037 265.1 867.937 251.4 884.637 251.4C899.137 251.4 906.137 261.6 906.737 276.8L878.037 286.5C880.237 292.3 885.037 294.3 890.837 294.3C896.437 294.3 901.537 292.4 905.437 288.9C906.837 298.2 901.037 309.6 885.537 309.6ZM876.937 276.5L891.537 271.5C891.037 268.6 888.937 265.6 884.937 265.6C879.837 265.6 877.337 270.4 876.937 276.5ZM912.702 308C914.102 303.1 914.602 297.6 914.602 291.9V270.5C914.602 264.8 913.802 259.4 911.602 254.8L929.502 251.6V259.6C932.302 254.2 937.002 251.4 943.802 251.4C956.502 251.4 960.602 261.4 960.602 273.2V291.9C960.602 297.6 961.102 303.1 962.502 308H942.202C943.602 303.1 944.102 297.6 944.102 291.9V274.7C944.102 269.7 942.502 266.6 938.702 266.6C933.202 266.6 931.102 273.1 931.102 281.3V291.9C931.102 297.6 931.602 303.1 933.002 308H912.702ZM73 420L61.3 380.7C59.7 375.2 57.7 369.9 55.3 365H77.1C76 368.9 76.4 373.2 77.5 377.6L83.6 400.5L90.2 377.6C91.4 373.2 91.9 368.9 90.8 365H111.5C109.1 369.9 107.1 375.2 105.3 380.6L92.6 420H73ZM115.436 420C116.836 415.1 117.336 409.6 117.336 403.9V382.5C117.336 376.8 116.536 371.4 114.336 366.8L133.836 363.4V403.9C133.836 409.6 134.336 415.1 135.736 420H115.436ZM125.036 356.8C117.736 356.8 114.736 352 114.736 347.6C114.736 343.2 117.736 338.4 125.036 338.4C132.336 338.4 135.336 343.2 135.336 347.6C135.336 352 132.336 356.8 125.036 356.8ZM142.682 420C144.082 415.1 144.582 409.6 144.582 403.9V382.5C144.582 376.8 143.782 371.4 141.582 366.8L159.482 363.6V371.6C162.282 366.2 166.982 363.4 173.782 363.4C186.482 363.4 190.582 373.4 190.582 385.2V403.9C190.582 409.6 191.082 415.1 192.482 420H172.182C173.582 415.1 174.082 409.6 174.082 403.9V386.7C174.082 381.7 172.482 378.6 168.682 378.6C163.182 378.6 161.082 385.1 161.082 393.3V403.9C161.082 409.6 161.582 415.1 162.982 420H142.682ZM219.127 421.6C205.127 421.6 197.927 408.5 197.927 392.5C197.927 376.5 205.127 363.4 219.127 363.4C224.327 363.4 228.727 365.1 231.927 368.9V357.7C231.927 352 231.127 346.6 228.927 342L248.427 338.4V403.3C248.427 409.5 250.027 414.6 253.527 418.3C250.627 420.2 247.227 421.6 243.527 421.6C239.127 421.6 235.027 419.5 233.527 413.9C230.327 419.1 225.227 421.6 219.127 421.6ZM223.627 406.3C229.127 406.3 232.127 401 232.127 392.5C232.127 384 229.127 378.7 223.627 378.7C218.027 378.7 214.927 384 214.927 392.5C214.927 401 218.027 406.3 223.627 406.3ZM282.119 421.6C265.719 421.6 256.619 408.7 256.619 392.4C256.619 377.1 264.519 363.4 281.219 363.4C295.719 363.4 302.719 373.6 303.319 388.8L274.619 398.5C276.819 404.3 281.619 406.3 287.419 406.3C293.019 406.3 298.119 404.4 302.019 400.9C303.419 410.2 297.619 421.6 282.119 421.6ZM273.519 388.5L288.119 383.5C287.619 380.6 285.519 377.6 281.519 377.6C276.419 377.6 273.919 382.4 273.519 388.5ZM309.284 420C310.684 415.1 311.184 409.6 311.184 403.9V382.5C311.184 376.8 310.384 371.4 308.184 366.8L326.084 363.6V372.1C328.884 366.4 333.284 363.4 338.984 363.4C345.684 363.4 351.584 367.7 351.584 376.2C351.584 384.5 346.084 388.6 337.984 388.6C339.784 381.7 337.384 378.6 333.784 378.6C328.484 378.6 327.684 385.1 327.684 395.3V403.9C327.684 409.6 328.484 415.1 330.584 420H309.284ZM376.185 420C378.185 415.1 378.885 409.6 378.885 403.9V363.5C378.885 357.8 377.785 352.7 374.385 348.8L396.385 338.4V403.9C396.385 409.6 397.085 415.1 399.085 420H376.185ZM417.649 421.6C411.349 421.6 406.649 416.7 406.649 410.6C406.649 404.5 411.349 399.6 417.649 399.6C423.949 399.6 428.649 404.5 428.649 410.6C428.649 416.7 423.949 421.6 417.649 421.6ZM461.179 421.6C442.779 421.6 434.179 406.6 434.179 380C434.179 353.4 442.779 338.4 461.179 338.4C479.579 338.4 488.179 353.4 488.179 380C488.179 406.6 479.579 421.6 461.179 421.6ZM461.179 405.2C467.179 405.2 470.179 396.9 470.179 380C470.179 363.1 467.179 354.8 461.179 354.8C455.179 354.8 452.179 363.1 452.179 380C452.179 396.9 455.179 405.2 461.179 405.2ZM521.823 421.6C503.423 421.6 494.823 406.6 494.823 380C494.823 353.4 503.423 338.4 521.823 338.4C540.223 338.4 548.823 353.4 548.823 380C548.823 406.6 540.223 421.6 521.823 421.6ZM521.823 405.2C527.823 405.2 530.823 396.9 530.823 380C530.823 363.1 527.823 354.8 521.823 354.8C515.823 354.8 512.823 363.1 512.823 380C512.823 396.9 515.823 405.2 521.823 405.2ZM577.591 421.6C562.291 421.6 553.791 411.7 553.791 401.6C553.791 392.4 560.791 388 567.791 388C569.291 388 570.591 388.2 571.791 388.5C571.091 389.9 570.391 392.3 570.391 395.4C570.391 401.4 572.791 405.6 577.691 405.6C582.291 405.6 585.491 401.8 585.491 393.7C585.491 384.8 581.691 378.6 569.991 378.6C568.491 378.6 566.691 378.7 564.891 379L577.091 356H568.891C564.291 356 559.891 356.6 555.991 358.5V340H604.291L589.291 368.9C597.891 373 603.291 381.5 603.291 394C603.291 411.3 592.991 421.6 577.591 421.6ZM620.774 421.6C614.474 421.6 609.774 416.7 609.774 410.6C609.774 404.5 614.474 399.6 620.774 399.6C627.074 399.6 631.774 404.5 631.774 410.6C631.774 416.7 627.074 421.6 620.774 421.6ZM664.304 421.6C645.904 421.6 637.304 406.6 637.304 380C637.304 353.4 645.904 338.4 664.304 338.4C682.704 338.4 691.304 353.4 691.304 380C691.304 406.6 682.704 421.6 664.304 421.6ZM664.304 405.2C670.304 405.2 673.304 396.9 673.304 380C673.304 363.1 670.304 354.8 664.304 354.8C658.304 354.8 655.304 363.1 655.304 380C655.304 396.9 658.304 405.2 664.304 405.2ZM720.072 421.6C704.772 421.6 696.272 411.7 696.272 401.6C696.272 392.4 703.272 388 710.272 388C711.772 388 713.072 388.2 714.272 388.5C713.572 389.9 712.872 392.3 712.872 395.4C712.872 401.4 715.272 405.6 720.172 405.6C724.772 405.6 727.972 401.8 727.972 393.7C727.972 384.8 724.172 378.6 712.472 378.6C710.972 378.6 709.172 378.7 707.372 379L719.572 356H711.372C706.772 356 702.372 356.6 698.472 358.5V340H746.772L731.772 368.9C740.372 373 745.772 381.5 745.772 394C745.772 411.3 735.472 421.6 720.072 421.6ZM779.831 421.6C761.431 421.6 752.831 406.6 752.831 380C752.831 353.4 761.431 338.4 779.831 338.4C798.231 338.4 806.831 353.4 806.831 380C806.831 406.6 798.231 421.6 779.831 421.6ZM779.831 405.2C785.831 405.2 788.831 396.9 788.831 380C788.831 363.1 785.831 354.8 779.831 354.8C773.831 354.8 770.831 363.1 770.831 380C770.831 396.9 773.831 405.2 779.831 405.2ZM833.495 420C834.895 415.1 835.395 409.6 835.395 403.9V357.7C835.395 352 834.595 346.6 832.395 342L851.895 338.4V367.8C856.095 364.6 860.995 363.4 865.895 363.4C878.095 363.4 883.995 371.7 883.995 381.7C883.995 389.1 880.895 394.4 874.395 397.4C877.295 405.2 881.395 412.6 886.895 420H867.395C863.995 414.1 861.495 407.8 860.195 401.6H851.895V403.9C851.895 409.6 852.395 415.1 853.795 420H833.495ZM851.895 390.9H859.095C863.995 390.9 866.995 388.2 866.995 384.1C866.995 380.6 864.795 377.8 860.695 377.8C855.995 377.8 851.895 381.5 851.895 389V390.9ZM892.389 420C893.789 415.1 894.289 409.6 894.289 403.9V382.5C894.289 376.8 893.489 371.4 891.289 366.8L909.189 363.6V372.1C911.989 366.4 916.389 363.4 922.089 363.4C928.789 363.4 934.689 367.7 934.689 376.2C934.689 384.5 929.189 388.6 921.089 388.6C922.889 381.7 920.489 378.6 916.889 378.6C911.589 378.6 910.789 385.1 910.789 395.3V403.9C910.789 409.6 911.589 415.1 913.689 420H892.389ZM940.11 421.6C933.81 421.6 929.11 416.7 929.11 410.6C929.11 404.5 933.81 399.6 940.11 399.6C946.41 399.6 951.11 404.5 951.11 410.6C951.11 416.7 946.41 421.6 940.11 421.6ZM58.6 532C60 527.1 60.5 521.6 60.5 515.9V494.5C60.5 488.8 59.7 483.4 57.5 478.8L77 475.4V515.9C77 521.6 77.5 527.1 78.9 532H58.6ZM68.2 468.8C60.9 468.8 57.9 464 57.9 459.6C57.9 455.2 60.9 450.4 68.2 450.4C75.5 450.4 78.5 455.2 78.5 459.6C78.5 464 75.5 468.8 68.2 468.8ZM106.166 532C107.566 527.1 108.066 521.6 108.066 515.9V468.1C108.066 462.4 107.566 456.9 106.166 452H127.566C126.166 456.9 125.666 462.4 125.666 468.1V484.2C132.966 475.1 139.866 463.2 141.566 452H161.566C157.866 463.6 152.866 472.3 143.466 482.7C154.066 484.9 158.666 494.1 159.666 505.1L160.766 516.7C161.366 523.2 163.366 527.8 166.866 532H146.066C143.966 527.4 143.266 523.3 142.966 519.1L142.166 505.8C141.766 499.5 138.866 496.4 134.066 496.4C129.266 496.4 125.666 499.5 125.666 505.9V515.9C125.666 521.6 126.366 527.1 128.166 532H106.166ZM171.679 532C173.079 527.1 173.579 521.6 173.579 515.9V469.7C173.579 464 172.779 458.6 170.579 454L190.079 450.4V515.9C190.079 521.6 190.579 527.1 191.979 532H171.679ZM216.134 533.6C205.134 533.6 197.734 526.8 197.734 516.5C197.734 506 205.434 500.7 217.034 500.7C222.134 500.7 226.234 501.8 229.134 503.7V497.3C229.134 492.2 226.034 489.9 221.834 489.9C218.034 489.9 214.734 491.8 214.734 495.6C214.734 496.5 214.934 497.6 215.234 498.5C208.534 499.9 200.734 496.7 200.734 488.9C200.734 479.9 211.034 475.4 221.934 475.4C235.934 475.4 245.634 483 245.634 494.9V515.3C245.634 521.5 247.234 526.6 250.734 530.3C247.834 532.2 244.434 533.6 240.734 533.6C236.634 533.6 232.934 532 231.134 527.1C227.934 531.1 222.834 533.6 216.134 533.6ZM221.934 520.9C226.434 520.9 229.734 518.9 229.734 515.6C229.734 512.3 226.434 510.4 221.934 510.4C217.434 510.4 214.234 512.3 214.234 515.6C214.234 518.9 217.434 520.9 221.934 520.9ZM274.891 533.6C263.491 533.6 253.591 528 253.591 519.1C253.591 511.2 261.591 508.3 268.391 509.7C267.991 510.7 267.791 512 267.791 513C267.791 517.1 270.991 519.6 274.891 519.6C278.491 519.6 281.091 517.5 281.091 514.5C281.091 511.1 277.891 509.4 273.591 508.4L267.791 507.1C260.591 505.5 254.291 501 254.291 492C254.291 482.9 260.791 475.4 275.591 475.4C282.291 475.4 289.491 476.9 293.991 480.3V497.1C289.191 492.3 281.491 489.5 275.491 489.5C272.191 489.5 270.491 490.3 270.491 492.1C270.491 493.8 271.991 494.4 275.491 495.2L280.891 496.5C288.991 498.5 297.591 502.7 297.591 514.1C297.591 525.9 288.091 533.6 274.891 533.6ZM323.72 533.6C312.32 533.6 302.42 528 302.42 519.1C302.42 511.2 310.42 508.3 317.22 509.7C316.82 510.7 316.62 512 316.62 513C316.62 517.1 319.82 519.6 323.72 519.6C327.32 519.6 329.92 517.5 329.92 514.5C329.92 511.1 326.72 509.4 322.42 508.4L316.62 507.1C309.42 505.5 303.12 501 303.12 492C303.12 482.9 309.62 475.4 324.42 475.4C331.12 475.4 338.32 476.9 342.82 480.3V497.1C338.02 492.3 330.32 489.5 324.32 489.5C321.02 489.5 319.32 490.3 319.32 492.1C319.32 493.8 320.82 494.4 324.32 495.2L329.72 496.5C337.82 498.5 346.42 502.7 346.42 514.1C346.42 525.9 336.92 533.6 323.72 533.6ZM376.748 533.6C360.348 533.6 351.248 520.7 351.248 504.4C351.248 489.1 359.148 475.4 375.848 475.4C390.348 475.4 397.348 485.6 397.948 500.8L369.248 510.5C371.448 516.3 376.248 518.3 382.048 518.3C387.648 518.3 392.748 516.4 396.648 512.9C398.048 522.2 392.248 533.6 376.748 533.6ZM368.148 500.5L382.748 495.5C382.248 492.6 380.148 489.6 376.148 489.6C371.048 489.6 368.548 494.4 368.148 500.5ZM403.612 532C405.013 527.1 405.513 521.6 405.513 515.9V469.7C405.513 464 404.713 458.6 402.513 454L422.013 450.4V515.9C422.013 521.6 422.513 527.1 423.913 532H403.612ZM455.368 533.6C436.768 533.6 429.568 520.5 429.568 504.5C429.568 488.5 436.768 475.4 455.368 475.4C473.968 475.4 481.168 488.5 481.168 504.5C481.168 520.5 473.968 533.6 455.368 533.6ZM455.368 518.3C461.068 518.3 464.168 513 464.168 504.5C464.168 496 461.068 490.7 455.368 490.7C449.668 490.7 446.568 496 446.568 504.5C446.568 513 449.668 518.3 455.368 518.3ZM503.613 533.6C498.013 533.6 492.413 530.4 492.413 519.3V492.1C490.713 492.1 487.313 492.3 485.413 493C484.613 490.5 484.213 488.2 484.213 486.1C484.213 480.1 487.513 477 492.813 477C492.813 473.8 491.913 471.3 491.913 469.1C491.913 464.3 496.413 460.5 503.213 460.5C505.713 460.5 508.013 461 510.113 461.7C509.213 466.5 508.913 471.5 508.913 477H521.713C521.713 473.8 520.813 471.3 520.813 469.1C520.813 464.3 525.313 460.5 532.113 460.5C534.613 460.5 536.913 461 539.013 461.7C538.113 466.5 537.813 471.5 537.813 477C541.613 477 545.613 476.5 548.913 475.4C549.513 477.8 549.713 479.9 549.713 481.6C549.713 488.8 546.313 492.1 540.213 492.1H537.813V515.3C537.813 521.5 539.413 526.6 542.913 530.3C539.813 532.3 536.113 533.6 532.513 533.6C526.913 533.6 521.313 530.4 521.313 519.3V492.1H508.913V515.3C508.913 521.5 510.513 526.6 514.013 530.3C510.913 532.3 507.213 533.6 503.613 533.6ZM576.455 533.6C560.055 533.6 550.955 520.7 550.955 504.4C550.955 489.1 558.855 475.4 575.555 475.4C590.055 475.4 597.055 485.6 597.655 500.8L568.955 510.5C571.155 516.3 575.955 518.3 581.755 518.3C587.355 518.3 592.455 516.4 596.355 512.9C597.755 522.2 591.955 533.6 576.455 533.6ZM567.855 500.5L582.455 495.5C581.955 492.6 579.855 489.6 575.855 489.6C570.755 489.6 568.255 494.4 567.855 500.5ZM603.62 532C605.02 527.1 605.52 521.6 605.52 515.9V494.5C605.52 488.8 604.72 483.4 602.52 478.8L620.42 475.6V484.1C623.22 478.4 627.62 475.4 633.32 475.4C640.02 475.4 645.92 479.7 645.92 488.2C645.92 496.5 640.42 500.6 632.32 500.6C634.12 493.7 631.72 490.6 628.12 490.6C622.82 490.6 622.02 497.1 622.02 507.3V515.9C622.02 521.6 622.82 527.1 624.92 532H603.62ZM650.202 532C651.602 527.1 652.102 521.6 652.102 515.9V494.5C652.102 488.8 651.302 483.4 649.102 478.8L668.602 475.4V515.9C668.602 521.6 669.102 527.1 670.502 532H650.202ZM659.802 468.8C652.502 468.8 649.502 464 649.502 459.6C649.502 455.2 652.502 450.4 659.802 450.4C667.102 450.4 670.102 455.2 670.102 459.6C670.102 464 667.102 468.8 659.802 468.8ZM701.748 533.6C685.348 533.6 676.248 520.7 676.248 504.4C676.248 489.1 684.148 475.4 700.848 475.4C715.348 475.4 722.348 485.6 722.948 500.8L694.248 510.5C696.448 516.3 701.248 518.3 707.048 518.3C712.648 518.3 717.748 516.4 721.648 512.9C723.048 522.2 717.248 533.6 701.748 533.6ZM693.148 500.5L707.748 495.5C707.248 492.6 705.148 489.6 701.148 489.6C696.048 489.6 693.548 494.4 693.148 500.5ZM745.313 533.6C739.713 533.6 734.113 530.4 734.113 519.3V492.1C732.413 492.1 729.013 492.3 727.113 493C726.313 490.5 725.913 488.2 725.913 486.1C725.913 480.1 729.213 477 734.513 477C734.513 473.8 733.613 471.3 733.613 469.1C733.613 464.3 738.113 460.5 744.913 460.5C747.413 460.5 749.713 461 751.813 461.7C750.913 466.5 750.613 471.5 750.613 477C754.413 477 758.413 476.5 761.713 475.4C762.313 477.8 762.513 479.9 762.513 481.6C762.513 488.8 759.113 492.1 753.013 492.1H750.613V515.3C750.613 521.5 752.213 526.6 755.713 530.3C752.613 532.3 748.913 533.6 745.313 533.6Z" fill="#FFF0D3"/>
<path d="M60.134 612.468C57.924 612.468 56.258 610.7 56.258 608.32C56.258 605.294 58.876 603.186 58.876 600.568C58.876 599.888 58.706 599.208 58.264 598.46C60.27 597.916 62.718 598.562 62.718 601.01C62.718 602.744 61.494 603.866 60.236 604.988C62.276 605.022 63.874 606.688 63.874 608.728C63.874 610.802 62.276 612.468 60.134 612.468ZM69.416 612.468C67.206 612.468 65.54 610.7 65.54 608.32C65.54 605.294 68.158 603.186 68.158 600.568C68.158 599.888 67.988 599.208 67.546 598.46C69.552 597.916 72 598.562 72 601.01C72 602.744 70.776 603.866 69.518 604.988C71.558 605.022 73.156 606.688 73.156 608.728C73.156 610.802 71.558 612.468 69.416 612.468ZM78.4398 626.544C73.2718 626.544 70.4158 623.178 70.4158 619.744C70.4158 616.616 72.7958 615.12 75.1758 615.12C75.6858 615.12 76.1278 615.188 76.5358 615.29C76.2978 615.766 76.0598 616.582 76.0598 617.636C76.0598 619.676 76.8758 620.968 78.4398 620.968C79.9358 620.968 80.8198 619.778 80.8198 616.922V604.274C80.8198 602.336 80.6158 600.466 79.9698 598.8H87.4498C86.9738 600.466 86.8038 602.336 86.8038 604.274V617.296C86.8038 623.076 83.5738 626.544 78.4398 626.544ZM97.9215 626.544C92.3455 626.544 89.2515 622.158 89.2515 616.616C89.2515 611.414 91.9375 606.756 97.6155 606.756C102.546 606.756 104.926 610.224 105.13 615.392L95.3715 618.69C96.1195 620.662 97.7515 621.342 99.7235 621.342C101.628 621.342 103.362 620.696 104.688 619.506C105.164 622.668 103.192 626.544 97.9215 626.544ZM94.9975 615.29L99.9615 613.59C99.7915 612.604 99.0775 611.584 97.7175 611.584C95.9835 611.584 95.1335 613.216 94.9975 615.29ZM118.986 633.344C119.122 631.304 117.15 630.624 114.838 630.08L112.254 629.502C109.84 628.924 107.732 628.04 107.732 625.592C107.732 623.994 108.616 622.838 110.384 622.158C108.004 620.628 107.018 617.874 107.018 615.086C107.018 611.21 108.922 607.402 113.784 606.824C113.512 605.634 113.24 604.036 113.24 602.71C113.24 599.412 115.042 598.256 116.708 598.256C118.34 598.256 119.734 599.378 119.734 601.214C119.734 603.832 116.946 604.24 116.776 606.892C121.4 607.606 123.202 611.312 123.202 615.086C123.202 619.302 120.958 623.416 115.11 623.416C114.124 623.416 113.308 623.552 113.308 624.266C113.308 624.81 113.784 625.116 115.11 625.286L119.156 625.728C121.944 626.034 124.086 627.156 124.086 629.468C124.086 632.426 120.652 633.31 118.986 633.344ZM115.11 618.384C116.776 618.384 117.694 616.922 117.694 615.086C117.694 613.25 116.776 611.788 115.11 611.788C113.444 611.788 112.526 613.25 112.526 615.086C112.526 616.922 113.444 618.384 115.11 618.384ZM133.861 626C134.337 624.334 134.507 622.464 134.507 620.526V612.366C133.487 612.4 132.501 612.502 131.685 612.74C131.311 611.822 131.073 610.972 131.073 610.156C131.073 608.694 131.821 607.572 133.895 607.334C133.113 605.804 132.773 604.682 132.773 603.56C132.773 600.16 135.901 598.256 139.811 598.256C142.837 598.256 145.693 599.446 145.693 602.064C145.693 604.648 142.905 605.09 141.205 605.124C141.239 604.92 141.239 604.784 141.239 604.648C141.239 603.73 140.831 603.152 140.015 603.152C139.335 603.152 138.587 603.56 138.587 604.58C138.587 605.362 139.063 606.416 139.675 607.3H140.865C142.429 607.3 143.687 607.13 144.741 606.824C144.945 607.64 145.047 608.354 145.047 609C145.047 611.21 143.823 612.434 141.783 612.434H140.117V620.526C140.117 622.464 140.389 624.334 141.103 626H133.861ZM146.713 626C147.189 624.334 147.359 622.464 147.359 620.526V613.25C147.359 611.312 147.087 609.476 146.339 607.912L152.969 606.756V620.526C152.969 622.464 153.139 624.334 153.615 626H146.713ZM149.977 604.512C147.495 604.512 146.475 602.88 146.475 601.384C146.475 599.888 147.495 598.256 149.977 598.256C152.459 598.256 153.479 599.888 153.479 601.384C153.479 602.88 152.459 604.512 149.977 604.512ZM155.864 626C156.34 624.334 156.51 622.464 156.51 620.526V604.818C156.51 602.88 156.238 601.044 155.49 599.48L162.12 598.256V608.252C163.548 607.164 165.214 606.756 166.88 606.756C171.028 606.756 173.034 609.578 173.034 612.978C173.034 615.494 171.98 617.296 169.77 618.316C170.756 620.968 172.15 623.484 174.02 626H167.39C166.234 623.994 165.384 621.852 164.942 619.744H162.12V620.526C162.12 622.464 162.29 624.334 162.766 626H155.864ZM162.12 616.106H164.568C166.234 616.106 167.254 615.188 167.254 613.794C167.254 612.604 166.506 611.652 165.112 611.652C163.514 611.652 162.12 612.91 162.12 615.46V616.106ZM190.957 626.544C185.381 626.544 182.287 622.158 182.287 616.616C182.287 611.414 184.973 606.756 190.651 606.756C195.581 606.756 197.961 610.224 198.165 615.392L188.407 618.69C189.155 620.662 190.787 621.342 192.759 621.342C194.663 621.342 196.397 620.696 197.723 619.506C198.199 622.668 196.227 626.544 190.957 626.544ZM188.033 615.29L192.997 613.59C192.827 612.604 192.113 611.584 190.753 611.584C189.019 611.584 188.169 613.216 188.033 615.29ZM200.193 626C200.669 624.334 200.839 622.464 200.839 620.526V613.25C200.839 611.312 200.567 609.476 199.819 607.912L205.905 606.824V609.544C206.857 607.708 208.455 606.756 210.767 606.756C215.085 606.756 216.479 610.156 216.479 614.168V620.526C216.479 622.464 216.649 624.334 217.125 626H210.223C210.699 624.334 210.869 622.464 210.869 620.526V614.678C210.869 612.978 210.325 611.924 209.033 611.924C207.163 611.924 206.449 614.134 206.449 616.922V620.526C206.449 622.464 206.619 624.334 207.095 626H200.193ZM235.371 626.544C229.727 626.544 225.885 623.552 225.885 619.37C225.885 616.31 227.959 614.372 230.747 614.372C231.393 614.372 232.039 614.474 232.685 614.746C232.277 615.664 232.073 616.548 232.073 617.398C232.073 619.506 233.297 620.968 235.371 620.968C237.173 620.968 238.737 619.88 238.737 617.772C238.737 616.004 237.649 614.746 234.963 613.896L231.767 612.876C228.265 611.754 226.395 609.204 226.395 605.804C226.395 601.18 229.863 598.256 235.371 598.256C238.261 598.256 241.083 599.072 243.293 600.67V608.014C241.185 605.226 238.533 603.832 235.541 603.832C233.671 603.832 232.515 604.376 232.515 605.498C232.515 606.348 233.195 606.824 234.623 607.266L237.819 608.286C242.647 609.816 244.857 612.706 244.857 617.33C244.857 623.212 241.287 626.544 235.371 626.544ZM247.211 626C247.687 624.334 247.857 622.464 247.857 620.526V604.274C247.857 602.336 247.687 600.466 247.211 598.8H257.683C257.343 599.956 257.513 601.214 257.921 602.506L261.185 612.706L264.449 602.54C264.857 601.248 265.027 599.956 264.687 598.8H275.227C274.751 600.466 274.581 602.336 274.581 604.274V620.526C274.581 622.464 274.751 624.334 275.227 626H267.951C268.427 624.334 268.597 622.464 268.597 620.526V607.198L262.579 626H259.349L253.331 607.198V620.526C253.331 622.464 253.501 624.334 253.977 626H247.211ZM286.968 626.544C281.324 626.544 277.482 623.552 277.482 619.37C277.482 616.31 279.556 614.372 282.344 614.372C282.99 614.372 283.636 614.474 284.282 614.746C283.874 615.664 283.67 616.548 283.67 617.398C283.67 619.506 284.894 620.968 286.968 620.968C288.77 620.968 290.334 619.88 290.334 617.772C290.334 616.004 289.246 614.746 286.56 613.896L283.364 612.876C279.862 611.754 277.992 609.204 277.992 605.804C277.992 601.18 281.46 598.256 286.968 598.256C289.858 598.256 292.68 599.072 294.89 600.67V608.014C292.782 605.226 290.13 603.832 287.138 603.832C285.268 603.832 284.112 604.376 284.112 605.498C284.112 606.348 284.792 606.824 286.22 607.266L289.416 608.286C294.244 609.816 296.454 612.706 296.454 617.33C296.454 623.212 292.884 626.544 286.968 626.544ZM304.35 633.072C302.344 633.616 299.896 632.97 299.896 630.522C299.896 628.788 301.12 627.666 302.378 626.544C300.338 626.51 298.74 624.844 298.74 622.804C298.74 620.73 300.338 619.064 302.48 619.064C304.69 619.064 306.356 620.832 306.356 623.212C306.356 626.238 303.738 628.346 303.738 630.964C303.738 631.644 303.908 632.324 304.35 633.072ZM315.538 626C316.014 624.334 316.184 622.464 316.184 620.526V604.818C316.184 602.88 315.912 601.044 315.164 599.48L321.794 598.256V608.932C322.678 607.538 324.072 606.756 326.112 606.756C330.43 606.756 331.824 610.156 331.824 614.168V620.526C331.824 622.464 331.994 624.334 332.47 626H325.568C326.044 624.334 326.214 622.464 326.214 620.526V614.678C326.214 612.978 325.67 611.924 324.378 611.924C322.508 611.924 321.794 614.134 321.794 616.922V620.526C321.794 622.464 321.964 624.334 322.44 626H315.538ZM338.233 626L334.255 612.638C333.711 610.768 333.031 608.966 332.215 607.3H339.627C339.253 608.626 339.389 610.088 339.763 611.584L341.837 619.37L344.081 611.584C344.489 610.088 344.659 608.626 344.285 607.3H351.323C350.507 608.966 349.827 610.768 349.215 612.604L344.897 626H338.233ZM359.996 626.544C353.672 626.544 351.224 622.09 351.224 616.65C351.224 611.21 353.672 606.756 359.996 606.756C366.32 606.756 368.768 611.21 368.768 616.65C368.768 622.09 366.32 626.544 359.996 626.544ZM359.996 621.342C361.934 621.342 362.988 619.54 362.988 616.65C362.988 613.76 361.934 611.958 359.996 611.958C358.058 611.958 357.004 613.76 357.004 616.65C357.004 619.54 358.058 621.342 359.996 621.342ZM370.824 626C371.3 624.334 371.47 622.464 371.47 620.526V613.25C371.47 611.312 371.198 609.476 370.45 607.912L376.536 606.824V609.714C377.488 607.776 378.984 606.756 380.922 606.756C383.2 606.756 385.206 608.218 385.206 611.108C385.206 613.93 383.336 615.324 380.582 615.324C381.194 612.978 380.378 611.924 379.154 611.924C377.352 611.924 377.08 614.134 377.08 617.602V620.526C377.08 622.464 377.352 624.334 378.066 626H370.824ZM400.268 626.544C395.508 626.544 393.06 622.09 393.06 616.65C393.06 611.21 395.508 606.756 400.268 606.756C402.036 606.756 403.532 607.334 404.62 608.626V604.818C404.62 602.88 404.348 601.044 403.6 599.48L410.23 598.256V620.322C410.23 622.43 410.774 624.164 411.964 625.422C410.978 626.068 409.822 626.544 408.564 626.544C407.068 626.544 405.674 625.83 405.164 623.926C404.076 625.694 402.342 626.544 400.268 626.544ZM401.798 621.342C403.668 621.342 404.688 619.54 404.688 616.65C404.688 613.76 403.668 611.958 401.798 611.958C399.894 611.958 398.84 613.76 398.84 616.65C398.84 619.54 399.894 621.342 401.798 621.342ZM421.685 626.544C416.109 626.544 413.015 622.158 413.015 616.616C413.015 611.414 415.701 606.756 421.379 606.756C426.309 606.756 428.689 610.224 428.893 615.392L419.135 618.69C419.883 620.662 421.515 621.342 423.487 621.342C425.391 621.342 427.125 620.696 428.451 619.506C428.927 622.668 426.955 626.544 421.685 626.544ZM418.761 615.29L423.725 613.59C423.555 612.604 422.841 611.584 421.481 611.584C419.747 611.584 418.897 613.216 418.761 615.29ZM430.921 626C431.397 624.334 431.567 622.464 431.567 620.526V613.25C431.567 611.312 431.295 609.476 430.547 607.912L436.633 606.824V609.714C437.585 607.776 439.081 606.756 441.019 606.756C443.297 606.756 445.303 608.218 445.303 611.108C445.303 613.93 443.433 615.324 440.679 615.324C441.291 612.978 440.475 611.924 439.251 611.924C437.449 611.924 437.177 614.134 437.177 617.602V620.526C437.177 622.464 437.449 624.334 438.163 626H430.921ZM460.4 626.544C456.524 626.544 453.158 624.64 453.158 621.614C453.158 618.928 455.878 617.942 458.19 618.418C458.054 618.758 457.986 619.2 457.986 619.54C457.986 620.934 459.074 621.784 460.4 621.784C461.624 621.784 462.508 621.07 462.508 620.05C462.508 618.894 461.42 618.316 459.958 617.976L457.986 617.534C455.538 616.99 453.396 615.46 453.396 612.4C453.396 609.306 455.606 606.756 460.638 606.756C462.916 606.756 465.364 607.266 466.894 608.422V614.134C465.262 612.502 462.644 611.55 460.604 611.55C459.482 611.55 458.904 611.822 458.904 612.434C458.904 613.012 459.414 613.216 460.604 613.488L462.44 613.93C465.194 614.61 468.118 616.038 468.118 619.914C468.118 623.926 464.888 626.544 460.4 626.544ZM475.411 626.544C473.507 626.544 471.603 625.456 471.603 621.682V612.434C471.025 612.434 469.869 612.502 469.223 612.74C468.951 611.89 468.815 611.108 468.815 610.394C468.815 608.354 469.937 607.3 471.739 607.3C471.739 606.212 471.433 605.362 471.433 604.614C471.433 602.982 472.963 601.69 475.275 601.69C476.125 601.69 476.907 601.86 477.621 602.098C477.315 603.73 477.213 605.43 477.213 607.3C478.505 607.3 479.865 607.13 480.987 606.756C481.191 607.572 481.259 608.286 481.259 608.864C481.259 611.312 480.103 612.434 478.029 612.434H477.213V620.322C477.213 622.43 477.757 624.164 478.947 625.422C477.893 626.102 476.635 626.544 475.411 626.544ZM490.75 626.544C484.426 626.544 481.978 622.09 481.978 616.65C481.978 611.21 484.426 606.756 490.75 606.756C497.074 606.756 499.522 611.21 499.522 616.65C499.522 622.09 497.074 626.544 490.75 626.544ZM490.75 621.342C492.688 621.342 493.742 619.54 493.742 616.65C493.742 613.76 492.688 611.958 490.75 611.958C488.812 611.958 487.758 613.76 487.758 616.65C487.758 619.54 488.812 621.342 490.75 621.342ZM508.71 626.544C503.95 626.544 501.502 622.09 501.502 616.65C501.502 611.21 503.95 606.756 508.71 606.756C510.478 606.756 511.974 607.334 513.062 608.626V604.818C513.062 602.88 512.79 601.044 512.042 599.48L518.672 598.256V620.322C518.672 622.43 519.216 624.164 520.406 625.422C519.42 626.068 518.264 626.544 517.006 626.544C515.51 626.544 514.116 625.83 513.606 623.926C512.518 625.694 510.784 626.544 508.71 626.544ZM510.24 621.342C512.11 621.342 513.13 619.54 513.13 616.65C513.13 613.76 512.11 611.958 510.24 611.958C508.336 611.958 507.282 613.76 507.282 616.65C507.282 619.54 508.336 621.342 510.24 621.342ZM536.933 626.544C531.357 626.544 528.263 622.158 528.263 616.616C528.263 611.414 530.949 606.756 536.627 606.756C541.557 606.756 543.937 610.224 544.141 615.392L534.383 618.69C535.131 620.662 536.763 621.342 538.735 621.342C540.639 621.342 542.373 620.696 543.699 619.506C544.175 622.668 542.203 626.544 536.933 626.544ZM534.009 615.29L538.973 613.59C538.803 612.604 538.089 611.584 536.729 611.584C534.995 611.584 534.145 613.216 534.009 615.29ZM551.745 626.544C549.841 626.544 547.937 625.456 547.937 621.682V612.434C547.359 612.434 546.203 612.502 545.557 612.74C545.285 611.89 545.149 611.108 545.149 610.394C545.149 608.354 546.271 607.3 548.073 607.3C548.073 606.212 547.767 605.362 547.767 604.614C547.767 602.982 549.297 601.69 551.609 601.69C552.459 601.69 553.241 601.86 553.955 602.098C553.649 603.73 553.547 605.43 553.547 607.3C554.839 607.3 556.199 607.13 557.321 606.756C557.525 607.572 557.593 608.286 557.593 608.864C557.593 611.312 556.437 612.434 554.363 612.434H553.547V620.322C553.547 622.43 554.091 624.164 555.281 625.422C554.227 626.102 552.969 626.544 551.745 626.544ZM576.365 626.544C574.223 626.544 572.455 625.66 571.367 623.722C570.823 625.082 569.565 626.204 567.525 626.204C566.743 626.204 566.097 626.034 565.587 625.796C566.233 624.266 566.403 622.464 566.403 620.526V604.818C566.403 602.88 566.131 601.044 565.383 599.48L572.013 598.256V608.626C573.101 607.334 574.597 606.756 576.365 606.756C581.125 606.756 583.573 611.21 583.573 616.65C583.573 622.09 581.125 626.544 576.365 626.544ZM574.835 621.342C576.739 621.342 577.793 619.54 577.793 616.65C577.793 613.76 576.739 611.958 574.835 611.958C572.965 611.958 571.945 613.76 571.945 616.65C571.945 619.54 572.965 621.342 574.835 621.342ZM594.209 626.544C588.633 626.544 585.539 622.158 585.539 616.616C585.539 611.414 588.225 606.756 593.903 606.756C598.833 606.756 601.213 610.224 601.417 615.392L591.659 618.69C592.407 620.662 594.039 621.342 596.011 621.342C597.915 621.342 599.649 620.696 600.975 619.506C601.451 622.668 599.479 626.544 594.209 626.544ZM591.285 615.29L596.249 613.59C596.079 612.604 595.365 611.584 594.005 611.584C592.271 611.584 591.421 613.216 591.285 615.29ZM603.343 626C603.819 624.334 603.989 622.464 603.989 620.526V604.818C603.989 602.88 603.717 601.044 602.969 599.48L609.599 598.256V620.526C609.599 622.464 609.769 624.334 610.245 626H603.343ZM621.008 626.544C618.866 626.544 617.166 626.034 615.874 625.15L615.194 626H611.794L613.97 623.28C612.78 621.546 612.236 619.2 612.236 616.65C612.236 611.21 614.684 606.756 621.008 606.756C623.116 606.756 624.782 607.232 626.108 608.116L626.788 607.3H630.188L628.012 610.02C629.236 611.754 629.78 614.1 629.78 616.65C629.78 622.09 627.332 626.544 621.008 626.544ZM621.008 621.478C622.946 621.478 624 619.54 624 616.65C624 616.14 623.966 615.63 623.898 615.188L619.342 620.866C619.75 621.24 620.328 621.478 621.008 621.478ZM618.118 618.112L622.674 612.434C622.266 612.06 621.688 611.822 621.008 611.822C619.07 611.822 618.016 613.76 618.016 616.65C618.016 617.16 618.05 617.67 618.118 618.112ZM642.406 626.544C640.264 626.544 638.496 625.66 637.408 623.722C636.864 625.082 635.606 626.204 633.566 626.204C632.784 626.204 632.138 626.034 631.628 625.796C632.274 624.266 632.444 622.464 632.444 620.526V604.818C632.444 602.88 632.172 601.044 631.424 599.48L638.054 598.256V608.626C639.142 607.334 640.638 606.756 642.406 606.756C647.166 606.756 649.614 611.21 649.614 616.65C649.614 622.09 647.166 626.544 642.406 626.544ZM640.876 621.342C642.78 621.342 643.834 619.54 643.834 616.65C643.834 613.76 642.78 611.958 640.876 611.958C639.006 611.958 637.986 613.76 637.986 616.65C637.986 619.54 639.006 621.342 640.876 621.342ZM657.3 633.072C655.294 633.616 652.846 632.97 652.846 630.522C652.846 628.788 654.07 627.666 655.328 626.544C653.288 626.51 651.69 624.844 651.69 622.804C651.69 620.73 653.288 619.064 655.43 619.064C657.64 619.064 659.306 620.832 659.306 623.212C659.306 626.238 656.688 628.346 656.688 630.964C656.688 631.644 656.858 632.324 657.3 633.072ZM676.953 626.544C670.629 626.544 668.181 622.09 668.181 616.65C668.181 611.21 670.629 606.756 676.953 606.756C683.277 606.756 685.725 611.21 685.725 616.65C685.725 622.09 683.277 626.544 676.953 626.544ZM676.953 621.342C678.891 621.342 679.945 619.54 679.945 616.65C679.945 613.76 678.891 611.958 676.953 611.958C675.015 611.958 673.961 613.76 673.961 616.65C673.961 619.54 675.015 621.342 676.953 621.342ZM699.609 633.344C699.745 631.304 697.773 630.624 695.461 630.08L692.877 629.502C690.463 628.924 688.355 628.04 688.355 625.592C688.355 623.994 689.239 622.838 691.007 622.158C688.627 620.628 687.641 617.874 687.641 615.086C687.641 611.21 689.545 607.402 694.407 606.824C694.135 605.634 693.863 604.036 693.863 602.71C693.863 599.412 695.665 598.256 697.331 598.256C698.963 598.256 700.357 599.378 700.357 601.214C700.357 603.832 697.569 604.24 697.399 606.892C702.023 607.606 703.825 611.312 703.825 615.086C703.825 619.302 701.581 623.416 695.733 623.416C694.747 623.416 693.931 623.552 693.931 624.266C693.931 624.81 694.407 625.116 695.733 625.286L699.779 625.728C702.567 626.034 704.709 627.156 704.709 629.468C704.709 632.426 701.275 633.31 699.609 633.344ZM695.733 618.384C697.399 618.384 698.317 616.922 698.317 615.086C698.317 613.25 697.399 611.788 695.733 611.788C694.067 611.788 693.149 613.25 693.149 615.086C693.149 616.922 694.067 618.384 695.733 618.384ZM719.516 626.544C714.756 626.544 712.308 622.09 712.308 616.65C712.308 611.21 714.756 606.756 719.516 606.756C721.284 606.756 722.78 607.334 723.868 608.626V604.818C723.868 602.88 723.596 601.044 722.848 599.48L729.478 598.256V620.322C729.478 622.43 730.022 624.164 731.212 625.422C730.226 626.068 729.07 626.544 727.812 626.544C726.316 626.544 724.922 625.83 724.412 623.926C723.324 625.694 721.59 626.544 719.516 626.544ZM721.046 621.342C722.916 621.342 723.936 619.54 723.936 616.65C723.936 613.76 722.916 611.958 721.046 611.958C719.142 611.958 718.088 613.76 718.088 616.65C718.088 619.54 719.142 621.342 721.046 621.342ZM738.553 626.544C734.813 626.544 732.297 624.232 732.297 620.73C732.297 617.16 734.915 615.358 738.859 615.358C740.593 615.358 741.987 615.732 742.973 616.378V614.202C742.973 612.468 741.919 611.686 740.491 611.686C739.199 611.686 738.077 612.332 738.077 613.624C738.077 613.93 738.145 614.304 738.247 614.61C735.969 615.086 733.317 613.998 733.317 611.346C733.317 608.286 736.819 606.756 740.525 606.756C745.285 606.756 748.583 609.34 748.583 613.386V620.322C748.583 622.43 749.127 624.164 750.317 625.422C749.331 626.068 748.175 626.544 746.917 626.544C745.523 626.544 744.265 626 743.653 624.334C742.565 625.694 740.831 626.544 738.553 626.544ZM740.525 622.226C742.055 622.226 743.177 621.546 743.177 620.424C743.177 619.302 742.055 618.656 740.525 618.656C738.995 618.656 737.907 619.302 737.907 620.424C737.907 621.546 738.995 622.226 740.525 622.226ZM761.223 633.344C759.999 633.344 758.707 632.902 757.517 632.222C758.605 631.1 759.251 629.91 759.251 627.122V613.182C759.251 611.244 759.115 609.476 758.197 607.912L764.861 606.756V629.162C764.861 632.256 763.127 633.344 761.223 633.344ZM762.039 604.512C759.557 604.512 758.537 602.88 758.537 601.384C758.537 599.888 759.557 598.256 762.039 598.256C764.521 598.256 765.541 599.888 765.541 601.384C765.541 602.88 764.521 604.512 762.039 604.512ZM776.295 626.544C770.719 626.544 767.625 622.158 767.625 616.616C767.625 611.414 770.311 606.756 775.989 606.756C780.919 606.756 783.299 610.224 783.503 615.392L773.745 618.69C774.493 620.662 776.125 621.342 778.097 621.342C780.001 621.342 781.735 620.696 783.061 619.506C783.537 622.668 781.565 626.544 776.295 626.544ZM773.371 615.29L778.335 613.59C778.165 612.604 777.451 611.584 776.091 611.584C774.357 611.584 773.507 613.216 773.371 615.29ZM797.359 633.344C797.495 631.304 795.523 630.624 793.211 630.08L790.627 629.502C788.213 628.924 786.105 628.04 786.105 625.592C786.105 623.994 786.989 622.838 788.757 622.158C786.377 620.628 785.391 617.874 785.391 615.086C785.391 611.21 787.295 607.402 792.157 606.824C791.885 605.634 791.613 604.036 791.613 602.71C791.613 599.412 793.415 598.256 795.081 598.256C796.713 598.256 798.107 599.378 798.107 601.214C798.107 603.832 795.319 604.24 795.149 606.892C799.773 607.606 801.575 611.312 801.575 615.086C801.575 619.302 799.331 623.416 793.483 623.416C792.497 623.416 791.681 623.552 791.681 624.266C791.681 624.81 792.157 625.116 793.483 625.286L797.529 625.728C800.317 626.034 802.459 627.156 802.459 629.468C802.459 632.426 799.025 633.31 797.359 633.344ZM793.483 618.384C795.149 618.384 796.067 616.922 796.067 615.086C796.067 613.25 795.149 611.788 793.483 611.788C791.817 611.788 790.899 613.25 790.899 615.086C790.899 616.922 791.817 618.384 793.483 618.384ZM817.3 626.544C813.424 626.544 810.058 624.64 810.058 621.614C810.058 618.928 812.778 617.942 815.09 618.418C814.954 618.758 814.886 619.2 814.886 619.54C814.886 620.934 815.974 621.784 817.3 621.784C818.524 621.784 819.408 621.07 819.408 620.05C819.408 618.894 818.32 618.316 816.858 617.976L814.886 617.534C812.438 616.99 810.296 615.46 810.296 612.4C810.296 609.306 812.506 606.756 817.538 606.756C819.816 606.756 822.264 607.266 823.794 608.422V614.134C822.162 612.502 819.544 611.55 817.504 611.55C816.382 611.55 815.804 611.822 815.804 612.434C815.804 613.012 816.314 613.216 817.504 613.488L819.34 613.93C822.094 614.61 825.018 616.038 825.018 619.914C825.018 623.926 821.788 626.544 817.3 626.544ZM832.95 626.544C829.21 626.544 826.694 624.232 826.694 620.73C826.694 617.16 829.312 615.358 833.256 615.358C834.99 615.358 836.384 615.732 837.37 616.378V614.202C837.37 612.468 836.316 611.686 834.888 611.686C833.596 611.686 832.474 612.332 832.474 613.624C832.474 613.93 832.542 614.304 832.644 614.61C830.366 615.086 827.714 613.998 827.714 611.346C827.714 608.286 831.216 606.756 834.922 606.756C839.682 606.756 842.98 609.34 842.98 613.386V620.322C842.98 622.43 843.524 624.164 844.714 625.422C843.728 626.068 842.572 626.544 841.314 626.544C839.92 626.544 838.662 626 838.05 624.334C836.962 625.694 835.228 626.544 832.95 626.544ZM834.922 622.226C836.452 622.226 837.574 621.546 837.574 620.424C837.574 619.302 836.452 618.656 834.922 618.656C833.392 618.656 832.304 619.302 832.304 620.424C832.304 621.546 833.392 622.226 834.922 622.226ZM834.922 605.226C832.576 605.226 830.808 603.56 830.808 601.282C830.808 599.004 832.576 597.338 834.922 597.338C837.268 597.338 839.036 599.004 839.036 601.282C839.036 603.56 837.268 605.226 834.922 605.226ZM834.922 603.254C836.146 603.254 836.996 602.438 836.996 601.282C836.996 600.126 836.146 599.31 834.922 599.31C833.698 599.31 832.848 600.126 832.848 601.282C832.848 602.438 833.698 603.254 834.922 603.254ZM859.7 626.544C854.94 626.544 852.492 622.09 852.492 616.65C852.492 611.21 854.94 606.756 859.7 606.756C861.468 606.756 862.964 607.334 864.052 608.626V604.818C864.052 602.88 863.78 601.044 863.032 599.48L869.662 598.256V620.322C869.662 622.43 870.206 624.164 871.396 625.422C870.41 626.068 869.254 626.544 867.996 626.544C866.5 626.544 865.106 625.83 864.596 623.926C863.508 625.694 861.774 626.544 859.7 626.544ZM861.23 621.342C863.1 621.342 864.12 619.54 864.12 616.65C864.12 613.76 863.1 611.958 861.23 611.958C859.326 611.958 858.272 613.76 858.272 616.65C858.272 619.54 859.326 621.342 861.23 621.342ZM881.117 626.544C875.541 626.544 872.447 622.158 872.447 616.616C872.447 611.414 875.133 606.756 880.811 606.756C885.741 606.756 888.121 610.224 888.325 615.392L878.567 618.69C879.315 620.662 880.947 621.342 882.919 621.342C884.823 621.342 886.557 620.696 887.883 619.506C888.359 622.668 886.387 626.544 881.117 626.544ZM878.193 615.29L883.157 613.59C882.987 612.604 882.273 611.584 880.913 611.584C879.179 611.584 878.329 613.216 878.193 615.29ZM895.929 626.544C894.025 626.544 892.121 625.456 892.121 621.682V612.434C891.543 612.434 890.387 612.502 889.741 612.74C889.469 611.89 889.333 611.108 889.333 610.394C889.333 608.354 890.455 607.3 892.257 607.3C892.257 606.212 891.951 605.362 891.951 604.614C891.951 602.982 893.481 601.69 895.793 601.69C896.643 601.69 897.425 601.86 898.139 602.098C897.833 603.73 897.731 605.43 897.731 607.3C899.023 607.3 900.383 607.13 901.505 606.756C901.709 607.572 901.777 608.286 901.777 608.864C901.777 611.312 900.621 612.434 898.547 612.434H897.731V620.322C897.731 622.43 898.275 624.164 899.465 625.422C898.411 626.102 897.153 626.544 895.929 626.544ZM907.518 633.072C905.512 633.616 903.064 632.97 903.064 630.522C903.064 628.788 904.288 627.666 905.546 626.544C903.506 626.51 901.908 624.844 901.908 622.804C901.908 620.73 903.506 619.064 905.648 619.064C907.858 619.064 909.524 620.832 909.524 623.212C909.524 626.238 906.906 628.346 906.906 630.964C906.906 631.644 907.076 632.324 907.518 633.072ZM925.642 626.544C921.766 626.544 918.4 624.64 918.4 621.614C918.4 618.928 921.12 617.942 923.432 618.418C923.296 618.758 923.228 619.2 923.228 619.54C923.228 620.934 924.316 621.784 925.642 621.784C926.866 621.784 927.75 621.07 927.75 620.05C927.75 618.894 926.662 618.316 925.2 617.976L923.228 617.534C920.78 616.99 918.638 615.46 918.638 612.4C918.638 609.306 920.848 606.756 925.88 606.756C928.158 606.756 930.606 607.266 932.136 608.422V614.134C930.504 612.502 927.886 611.55 925.846 611.55C924.724 611.55 924.146 611.822 924.146 612.434C924.146 613.012 924.656 613.216 925.846 613.488L927.682 613.93C930.436 614.61 933.36 616.038 933.36 619.914C933.36 623.926 930.13 626.544 925.642 626.544ZM941.292 626.544C937.552 626.544 935.036 624.232 935.036 620.73C935.036 617.16 937.654 615.358 941.598 615.358C943.332 615.358 944.726 615.732 945.712 616.378V614.202C945.712 612.468 944.658 611.686 943.23 611.686C941.938 611.686 940.816 612.332 940.816 613.624C940.816 613.93 940.884 614.304 940.986 614.61C938.708 615.086 936.056 613.998 936.056 611.346C936.056 608.286 939.558 606.756 943.264 606.756C948.024 606.756 951.322 609.34 951.322 613.386V620.322C951.322 622.43 951.866 624.164 953.056 625.422C952.07 626.068 950.914 626.544 949.656 626.544C948.262 626.544 947.004 626 946.392 624.334C945.304 625.694 943.57 626.544 941.292 626.544ZM943.264 622.226C944.794 622.226 945.916 621.546 945.916 620.424C945.916 619.302 944.794 618.656 943.264 618.656C941.734 618.656 940.646 619.302 940.646 620.424C940.646 621.546 941.734 622.226 943.264 622.226ZM943.264 605.226C940.918 605.226 939.15 603.56 939.15 601.282C939.15 599.004 940.918 597.338 943.264 597.338C945.61 597.338 947.378 599.004 947.378 601.282C947.378 603.56 945.61 605.226 943.264 605.226ZM943.264 603.254C944.488 603.254 945.338 602.438 945.338 601.282C945.338 600.126 944.488 599.31 943.264 599.31C942.04 599.31 941.19 600.126 941.19 601.282C941.19 602.438 942.04 603.254 943.264 603.254ZM56.224 678C56.7 676.334 56.87 674.464 56.87 672.526V665.25C56.87 663.312 56.598 661.476 55.85 659.912L61.936 658.824V661.714C62.888 659.776 64.384 658.756 66.322 658.756C68.6 658.756 70.606 660.218 70.606 663.108C70.606 665.93 68.736 667.324 65.982 667.324C66.594 664.978 65.778 663.924 64.554 663.924C62.752 663.924 62.48 666.134 62.48 669.602V672.526C62.48 674.464 62.752 676.334 63.466 678H56.224ZM77.2798 678.544C73.5398 678.544 71.0238 676.232 71.0238 672.73C71.0238 669.16 73.6418 667.358 77.5858 667.358C79.3198 667.358 80.7138 667.732 81.6998 668.378V666.202C81.6998 664.468 80.6458 663.686 79.2178 663.686C77.9258 663.686 76.8038 664.332 76.8038 665.624C76.8038 665.93 76.8718 666.304 76.9738 666.61C74.6958 667.086 72.0438 665.998 72.0438 663.346C72.0438 660.286 75.5458 658.756 79.2518 658.756C84.0118 658.756 87.3098 661.34 87.3098 665.386V672.322C87.3098 674.43 87.8538 676.164 89.0438 677.422C88.0578 678.068 86.9018 678.544 85.6438 678.544C84.2498 678.544 82.9918 678 82.3798 676.334C81.2918 677.694 79.5578 678.544 77.2798 678.544ZM79.2518 674.226C80.7818 674.226 81.9038 673.546 81.9038 672.424C81.9038 671.302 80.7818 670.656 79.2518 670.656C77.7218 670.656 76.6338 671.302 76.6338 672.424C76.6338 673.546 77.7218 674.226 79.2518 674.226ZM79.2518 657.226C76.9058 657.226 75.1378 655.56 75.1378 653.282C75.1378 651.004 76.9058 649.338 79.2518 649.338C81.5978 649.338 83.3658 651.004 83.3658 653.282C83.3658 655.56 81.5978 657.226 79.2518 657.226ZM79.2518 655.254C80.4758 655.254 81.3258 654.438 81.3258 653.282C81.3258 652.126 80.4758 651.31 79.2518 651.31C78.0278 651.31 77.1778 652.126 77.1778 653.282C77.1778 654.438 78.0278 655.254 79.2518 655.254ZM100.929 678.544C98.7872 678.544 97.0192 677.66 95.9312 675.722C95.3872 677.082 94.1292 678.204 92.0892 678.204C91.3072 678.204 90.6612 678.034 90.1512 677.796C90.7972 676.266 90.9672 674.464 90.9672 672.526V656.818C90.9672 654.88 90.6952 653.044 89.9472 651.48L96.5772 650.256V660.626C97.6652 659.334 99.1612 658.756 100.929 658.756C105.689 658.756 108.137 663.21 108.137 668.65C108.137 674.09 105.689 678.544 100.929 678.544ZM99.3992 673.342C101.303 673.342 102.357 671.54 102.357 668.65C102.357 665.76 101.303 663.958 99.3992 663.958C97.5292 663.958 96.5092 665.76 96.5092 668.65C96.5092 671.54 97.5292 673.342 99.3992 673.342ZM115.755 678.544C113.851 678.544 111.947 677.456 111.947 673.682V664.434C111.369 664.434 110.213 664.502 109.567 664.74C109.295 663.89 109.159 663.108 109.159 662.394C109.159 660.354 110.281 659.3 112.083 659.3C112.083 658.212 111.777 657.362 111.777 656.614C111.777 654.982 113.307 653.69 115.619 653.69C116.469 653.69 117.251 653.86 117.965 654.098C117.659 655.73 117.557 657.43 117.557 659.3C118.849 659.3 120.209 659.13 121.331 658.756C121.535 659.572 121.603 660.286 121.603 660.864C121.603 663.312 120.447 664.434 118.373 664.434H117.557V672.322C117.557 674.43 118.101 676.164 119.291 677.422C118.237 678.102 116.979 678.544 115.755 678.544ZM130.693 678.544C125.117 678.544 122.023 674.158 122.023 668.616C122.023 663.414 124.709 658.756 130.387 658.756C135.317 658.756 137.697 662.224 137.901 667.392L128.143 670.69C128.891 672.662 130.523 673.342 132.495 673.342C134.399 673.342 136.133 672.696 137.459 671.506C137.935 674.668 135.963 678.544 130.693 678.544ZM127.769 667.29L132.733 665.59C132.563 664.604 131.849 663.584 130.489 663.584C128.755 663.584 127.905 665.216 127.769 667.29ZM155.1 678.544C148.776 678.544 146.328 674.09 146.328 668.65C146.328 663.21 148.776 658.756 155.1 658.756C161.424 658.756 163.872 663.21 163.872 668.65C163.872 674.09 161.424 678.544 155.1 678.544ZM155.1 673.342C157.038 673.342 158.092 671.54 158.092 668.65C158.092 665.76 157.038 663.958 155.1 663.958C153.162 663.958 152.108 665.76 152.108 668.65C152.108 671.54 153.162 673.342 155.1 673.342ZM177.755 685.344C177.891 683.304 175.919 682.624 173.607 682.08L171.023 681.502C168.609 680.924 166.501 680.04 166.501 677.592C166.501 675.994 167.385 674.838 169.153 674.158C166.773 672.628 165.787 669.874 165.787 667.086C165.787 663.21 167.691 659.402 172.553 658.824C172.281 657.634 172.009 656.036 172.009 654.71C172.009 651.412 173.811 650.256 175.477 650.256C177.109 650.256 178.503 651.378 178.503 653.214C178.503 655.832 175.715 656.24 175.545 658.892C180.169 659.606 181.971 663.312 181.971 667.086C181.971 671.302 179.727 675.416 173.879 675.416C172.893 675.416 172.077 675.552 172.077 676.266C172.077 676.81 172.553 677.116 173.879 677.286L177.925 677.728C180.713 678.034 182.855 679.156 182.855 681.468C182.855 684.426 179.421 685.31 177.755 685.344ZM173.879 670.384C175.545 670.384 176.463 668.922 176.463 667.086C176.463 665.25 175.545 663.788 173.879 663.788C172.213 663.788 171.295 665.25 171.295 667.086C171.295 668.922 172.213 670.384 173.879 670.384ZM197.697 678.544C193.821 678.544 190.455 676.64 190.455 673.614C190.455 670.928 193.175 669.942 195.487 670.418C195.351 670.758 195.283 671.2 195.283 671.54C195.283 672.934 196.371 673.784 197.697 673.784C198.921 673.784 199.805 673.07 199.805 672.05C199.805 670.894 198.717 670.316 197.255 669.976L195.283 669.534C192.835 668.99 190.693 667.46 190.693 664.4C190.693 661.306 192.903 658.756 197.935 658.756C200.213 658.756 202.661 659.266 204.191 660.422V666.134C202.559 664.502 199.941 663.55 197.901 663.55C196.779 663.55 196.201 663.822 196.201 664.434C196.201 665.012 196.711 665.216 197.901 665.488L199.737 665.93C202.491 666.61 205.415 668.038 205.415 671.914C205.415 675.926 202.185 678.544 197.697 678.544ZM207.362 678C207.838 676.334 208.008 674.464 208.008 672.526V656.818C208.008 654.88 207.736 653.044 206.988 651.48L213.618 650.256V660.252C215.046 659.164 216.712 658.756 218.378 658.756C222.526 658.756 224.532 661.578 224.532 664.978C224.532 667.494 223.478 669.296 221.268 670.316C222.254 672.968 223.648 675.484 225.518 678H218.888C217.732 675.994 216.882 673.852 216.44 671.744H213.618V672.526C213.618 674.464 213.788 676.334 214.264 678H207.362ZM213.618 668.106H216.066C217.732 668.106 218.752 667.188 218.752 665.794C218.752 664.604 218.004 663.652 216.61 663.652C215.012 663.652 213.618 664.91 213.618 667.46V668.106ZM227.386 678C227.862 676.334 228.032 674.464 228.032 672.526V665.25C228.032 663.312 227.76 661.476 227.012 659.912L233.098 658.824V661.714C234.05 659.776 235.546 658.756 237.484 658.756C239.762 658.756 241.768 660.218 241.768 663.108C241.768 665.93 239.898 667.324 237.144 667.324C237.756 664.978 236.94 663.924 235.716 663.924C233.914 663.924 233.642 666.134 233.642 669.602V672.526C233.642 674.464 233.914 676.334 234.628 678H227.386ZM251.32 678.544C245.744 678.544 242.65 674.158 242.65 668.616C242.65 663.414 245.336 658.756 251.014 658.756C255.944 658.756 258.324 662.224 258.528 667.392L248.77 670.69C249.518 672.662 251.15 673.342 253.122 673.342C255.026 673.342 256.76 672.696 258.086 671.506C258.562 674.668 256.59 678.544 251.32 678.544ZM248.396 667.29L253.36 665.59C253.19 664.604 252.476 663.584 251.116 663.584C249.382 663.584 248.532 665.216 248.396 667.29ZM272.384 685.344C272.52 683.304 270.548 682.624 268.236 682.08L265.652 681.502C263.238 680.924 261.13 680.04 261.13 677.592C261.13 675.994 262.014 674.838 263.782 674.158C261.402 672.628 260.416 669.874 260.416 667.086C260.416 663.21 262.32 659.402 267.182 658.824C266.91 657.634 266.638 656.036 266.638 654.71C266.638 651.412 268.44 650.256 270.106 650.256C271.738 650.256 273.132 651.378 273.132 653.214C273.132 655.832 270.344 656.24 270.174 658.892C274.798 659.606 276.6 663.312 276.6 667.086C276.6 671.302 274.356 675.416 268.508 675.416C267.522 675.416 266.706 675.552 266.706 676.266C266.706 676.81 267.182 677.116 268.508 677.286L272.554 677.728C275.342 678.034 277.484 679.156 277.484 681.468C277.484 684.426 274.05 685.31 272.384 685.344ZM268.508 670.384C270.174 670.384 271.092 668.922 271.092 667.086C271.092 665.25 270.174 663.788 268.508 663.788C266.842 663.788 265.924 665.25 265.924 667.086C265.924 668.922 266.842 670.384 268.508 670.384ZM293.856 678.544C287.532 678.544 285.084 674.09 285.084 668.65C285.084 663.21 287.532 658.756 293.856 658.756C300.18 658.756 302.628 663.21 302.628 668.65C302.628 674.09 300.18 678.544 293.856 678.544ZM293.856 673.342C295.794 673.342 296.848 671.54 296.848 668.65C296.848 665.76 295.794 663.958 293.856 663.958C291.918 663.958 290.864 665.76 290.864 668.65C290.864 671.54 291.918 673.342 293.856 673.342ZM316.511 685.344C316.647 683.304 314.675 682.624 312.363 682.08L309.779 681.502C307.365 680.924 305.257 680.04 305.257 677.592C305.257 675.994 306.141 674.838 307.909 674.158C305.529 672.628 304.543 669.874 304.543 667.086C304.543 663.21 306.447 659.402 311.309 658.824C311.037 657.634 310.765 656.036 310.765 654.71C310.765 651.412 312.567 650.256 314.233 650.256C315.865 650.256 317.259 651.378 317.259 653.214C317.259 655.832 314.471 656.24 314.301 658.892C318.925 659.606 320.727 663.312 320.727 667.086C320.727 671.302 318.483 675.416 312.635 675.416C311.649 675.416 310.833 675.552 310.833 676.266C310.833 676.81 311.309 677.116 312.635 677.286L316.681 677.728C319.469 678.034 321.611 679.156 321.611 681.468C321.611 684.426 318.177 685.31 316.511 685.344ZM312.635 670.384C314.301 670.384 315.219 668.922 315.219 667.086C315.219 665.25 314.301 663.788 312.635 663.788C310.969 663.788 310.051 665.25 310.051 667.086C310.051 668.922 310.969 670.384 312.635 670.384ZM340.125 678.544C337.983 678.544 336.215 677.66 335.127 675.722C334.583 677.082 333.325 678.204 331.285 678.204C330.503 678.204 329.857 678.034 329.347 677.796C329.993 676.266 330.163 674.464 330.163 672.526V656.818C330.163 654.88 329.891 653.044 329.143 651.48L335.773 650.256V660.626C336.861 659.334 338.357 658.756 340.125 658.756C344.885 658.756 347.333 663.21 347.333 668.65C347.333 674.09 344.885 678.544 340.125 678.544ZM338.595 673.342C340.499 673.342 341.553 671.54 341.553 668.65C341.553 665.76 340.499 663.958 338.595 663.958C336.725 663.958 335.705 665.76 335.705 668.65C335.705 671.54 336.725 673.342 338.595 673.342ZM349.374 678C349.85 676.334 350.02 674.464 350.02 672.526V665.25C350.02 663.312 349.748 661.476 349 659.912L355.086 658.824V661.714C356.038 659.776 357.534 658.756 359.472 658.756C361.75 658.756 363.756 660.218 363.756 663.108C363.756 665.93 361.886 667.324 359.132 667.324C359.744 664.978 358.928 663.924 357.704 663.924C355.902 663.924 355.63 666.134 355.63 669.602V672.526C355.63 674.464 355.902 676.334 356.616 678H349.374ZM373.478 678.544C371.336 678.544 369.636 678.034 368.344 677.15L367.664 678H364.264L366.44 675.28C365.25 673.546 364.706 671.2 364.706 668.65C364.706 663.21 367.154 658.756 373.478 658.756C375.586 658.756 377.252 659.232 378.578 660.116L379.258 659.3H382.658L380.482 662.02C381.706 663.754 382.25 666.1 382.25 668.65C382.25 674.09 379.802 678.544 373.478 678.544ZM373.478 673.478C375.416 673.478 376.47 671.54 376.47 668.65C376.47 668.14 376.436 667.63 376.368 667.188L371.812 672.866C372.22 673.24 372.798 673.478 373.478 673.478ZM370.588 670.112L375.144 664.434C374.736 664.06 374.158 663.822 373.478 663.822C371.54 663.822 370.486 665.76 370.486 668.65C370.486 669.16 370.52 669.67 370.588 670.112ZM384.268 678C384.744 676.334 384.914 674.464 384.914 672.526V656.818C384.914 654.88 384.642 653.044 383.894 651.48L390.524 650.256V672.526C390.524 674.464 390.694 676.334 391.17 678H384.268ZM401.763 678.544C396.187 678.544 393.093 674.158 393.093 668.616C393.093 663.414 395.779 658.756 401.457 658.756C406.387 658.756 408.767 662.224 408.971 667.392L399.213 670.69C399.961 672.662 401.593 673.342 403.565 673.342C405.469 673.342 407.203 672.696 408.529 671.506C409.005 674.668 407.033 678.544 401.763 678.544ZM398.839 667.29L403.803 665.59C403.633 664.604 402.919 663.584 401.559 663.584C399.825 663.584 398.975 665.216 398.839 667.29ZM418.131 678.544C413.371 678.544 410.923 674.09 410.923 668.65C410.923 663.21 413.371 658.756 418.131 658.756C419.899 658.756 421.395 659.334 422.483 660.626V656.818C422.483 654.88 422.211 653.044 421.463 651.48L428.093 650.256V672.322C428.093 674.43 428.637 676.164 429.827 677.422C428.841 678.068 427.685 678.544 426.427 678.544C424.931 678.544 423.537 677.83 423.027 675.926C421.939 677.694 420.205 678.544 418.131 678.544ZM419.661 673.342C421.531 673.342 422.551 671.54 422.551 668.65C422.551 665.76 421.531 663.958 419.661 663.958C417.757 663.958 416.703 665.76 416.703 668.65C416.703 671.54 417.757 673.342 419.661 673.342ZM439.549 678.544C433.973 678.544 430.879 674.158 430.879 668.616C430.879 663.414 433.565 658.756 439.243 658.756C444.173 658.756 446.553 662.224 446.757 667.392L436.999 670.69C437.747 672.662 439.379 673.342 441.351 673.342C443.255 673.342 444.989 672.696 446.315 671.506C446.791 674.668 444.819 678.544 439.549 678.544ZM436.625 667.29L441.589 665.59C441.419 664.604 440.705 663.584 439.345 663.584C437.611 663.584 436.761 665.216 436.625 667.29ZM458.311 685.344C457.087 685.344 455.795 684.902 454.605 684.222C455.693 683.1 456.339 681.91 456.339 679.122V665.182C456.339 663.244 456.203 661.476 455.285 659.912L461.949 658.756V681.162C461.949 684.256 460.215 685.344 458.311 685.344ZM459.127 656.512C456.645 656.512 455.625 654.88 455.625 653.384C455.625 651.888 456.645 650.256 459.127 650.256C461.609 650.256 462.629 651.888 462.629 653.384C462.629 654.88 461.609 656.512 459.127 656.512ZM473.382 678.544C467.806 678.544 464.712 674.158 464.712 668.616C464.712 663.414 467.398 658.756 473.076 658.756C478.006 658.756 480.386 662.224 480.59 667.392L470.832 670.69C471.58 672.662 473.212 673.342 475.184 673.342C477.088 673.342 478.822 672.696 480.148 671.506C480.624 674.668 478.652 678.544 473.382 678.544ZM470.458 667.29L475.422 665.59C475.252 664.604 474.538 663.584 473.178 663.584C471.444 663.584 470.594 665.216 470.458 667.29ZM494.447 685.344C494.583 683.304 492.611 682.624 490.299 682.08L487.715 681.502C485.301 680.924 483.193 680.04 483.193 677.592C483.193 675.994 484.077 674.838 485.845 674.158C483.465 672.628 482.479 669.874 482.479 667.086C482.479 663.21 484.383 659.402 489.245 658.824C488.973 657.634 488.701 656.036 488.701 654.71C488.701 651.412 490.503 650.256 492.169 650.256C493.801 650.256 495.195 651.378 495.195 653.214C495.195 655.832 492.407 656.24 492.237 658.892C496.861 659.606 498.663 663.312 498.663 667.086C498.663 671.302 496.419 675.416 490.571 675.416C489.585 675.416 488.769 675.552 488.769 676.266C488.769 676.81 489.245 677.116 490.571 677.286L494.617 677.728C497.405 678.034 499.547 679.156 499.547 681.468C499.547 684.426 496.113 685.31 494.447 685.344ZM490.571 670.384C492.237 670.384 493.155 668.922 493.155 667.086C493.155 665.25 492.237 663.788 490.571 663.788C488.905 663.788 487.987 665.25 487.987 667.086C487.987 668.922 488.905 670.384 490.571 670.384ZM502.345 668.412C502.345 662.088 502.039 656.104 501.359 650.8H507.955C507.309 656.104 506.969 662.088 507.003 668.412H502.345ZM504.657 678.544C502.515 678.544 500.917 676.878 500.917 674.804C500.917 672.73 502.515 671.064 504.657 671.064C506.799 671.064 508.397 672.73 508.397 674.804C508.397 676.878 506.799 678.544 504.657 678.544ZM528.49 678.544C521.894 678.544 517.644 673.444 517.644 664.4C517.644 655.356 521.894 650.256 528.49 650.256C535.086 650.256 539.336 655.356 539.336 664.4C539.336 673.444 535.086 678.544 528.49 678.544ZM528.49 672.968C531.414 672.968 533.216 670.044 533.216 664.4C533.216 658.756 531.414 655.832 528.49 655.832C525.566 655.832 523.764 658.756 523.764 664.4C523.764 670.044 525.566 672.968 528.49 672.968ZM553.282 685.344C553.418 683.304 551.446 682.624 549.134 682.08L546.55 681.502C544.136 680.924 542.028 680.04 542.028 677.592C542.028 675.994 542.912 674.838 544.68 674.158C542.3 672.628 541.314 669.874 541.314 667.086C541.314 663.21 543.218 659.402 548.08 658.824C547.808 657.634 547.536 656.036 547.536 654.71C547.536 651.412 549.338 650.256 551.004 650.256C552.636 650.256 554.03 651.378 554.03 653.214C554.03 655.832 551.242 656.24 551.072 658.892C555.696 659.606 557.498 663.312 557.498 667.086C557.498 671.302 555.254 675.416 549.406 675.416C548.42 675.416 547.604 675.552 547.604 676.266C547.604 676.81 548.08 677.116 549.406 677.286L553.452 677.728C556.24 678.034 558.382 679.156 558.382 681.468C558.382 684.426 554.948 685.31 553.282 685.344ZM549.406 670.384C551.072 670.384 551.99 668.922 551.99 667.086C551.99 665.25 551.072 663.788 549.406 663.788C547.74 663.788 546.822 665.25 546.822 667.086C546.822 668.922 547.74 670.384 549.406 670.384ZM573.224 678.544C569.348 678.544 565.982 676.64 565.982 673.614C565.982 670.928 568.702 669.942 571.014 670.418C570.878 670.758 570.81 671.2 570.81 671.54C570.81 672.934 571.898 673.784 573.224 673.784C574.448 673.784 575.332 673.07 575.332 672.05C575.332 670.894 574.244 670.316 572.782 669.976L570.81 669.534C568.362 668.99 566.22 667.46 566.22 664.4C566.22 661.306 568.43 658.756 573.462 658.756C575.74 658.756 578.188 659.266 579.718 660.422V666.134C578.086 664.502 575.468 663.55 573.428 663.55C572.306 663.55 571.728 663.822 571.728 664.434C571.728 665.012 572.238 665.216 573.428 665.488L575.264 665.93C578.018 666.61 580.942 668.038 580.942 671.914C580.942 675.926 577.712 678.544 573.224 678.544ZM588.874 678.544C585.134 678.544 582.618 676.232 582.618 672.73C582.618 669.16 585.236 667.358 589.18 667.358C590.914 667.358 592.308 667.732 593.294 668.378V666.202C593.294 664.468 592.24 663.686 590.812 663.686C589.52 663.686 588.398 664.332 588.398 665.624C588.398 665.93 588.466 666.304 588.568 666.61C586.29 667.086 583.638 665.998 583.638 663.346C583.638 660.286 587.14 658.756 590.846 658.756C595.606 658.756 598.904 661.34 598.904 665.386V672.322C598.904 674.43 599.448 676.164 600.638 677.422C599.652 678.068 598.496 678.544 597.238 678.544C595.844 678.544 594.586 678 593.974 676.334C592.886 677.694 591.152 678.544 588.874 678.544ZM590.846 674.226C592.376 674.226 593.498 673.546 593.498 672.424C593.498 671.302 592.376 670.656 590.846 670.656C589.316 670.656 588.228 671.302 588.228 672.424C588.228 673.546 589.316 674.226 590.846 674.226ZM590.846 657.226C588.5 657.226 586.732 655.56 586.732 653.282C586.732 651.004 588.5 649.338 590.846 649.338C593.192 649.338 594.96 651.004 594.96 653.282C594.96 655.56 593.192 657.226 590.846 657.226ZM590.846 655.254C592.07 655.254 592.92 654.438 592.92 653.282C592.92 652.126 592.07 651.31 590.846 651.31C589.622 651.31 588.772 652.126 588.772 653.282C588.772 654.438 589.622 655.254 590.846 655.254ZM615.658 678.544C611.782 678.544 608.416 676.64 608.416 673.614C608.416 670.928 611.136 669.942 613.448 670.418C613.312 670.758 613.244 671.2 613.244 671.54C613.244 672.934 614.332 673.784 615.658 673.784C616.882 673.784 617.766 673.07 617.766 672.05C617.766 670.894 616.678 670.316 615.216 669.976L613.244 669.534C610.796 668.99 608.654 667.46 608.654 664.4C608.654 661.306 610.864 658.756 615.896 658.756C618.174 658.756 620.622 659.266 622.152 660.422V666.134C620.52 664.502 617.902 663.55 615.862 663.55C614.74 663.55 614.162 663.822 614.162 664.434C614.162 665.012 614.672 665.216 615.862 665.488L617.698 665.93C620.452 666.61 623.376 668.038 623.376 671.914C623.376 675.926 620.146 678.544 615.658 678.544ZM631.307 678.544C627.567 678.544 625.051 676.232 625.051 672.73C625.051 669.16 627.669 667.358 631.613 667.358C633.347 667.358 634.741 667.732 635.727 668.378V666.202C635.727 664.468 634.673 663.686 633.245 663.686C631.953 663.686 630.831 664.332 630.831 665.624C630.831 665.93 630.899 666.304 631.001 666.61C628.723 667.086 626.071 665.998 626.071 663.346C626.071 660.286 629.573 658.756 633.279 658.756C638.039 658.756 641.337 661.34 641.337 665.386V672.322C641.337 674.43 641.881 676.164 643.071 677.422C642.085 678.068 640.929 678.544 639.671 678.544C638.277 678.544 637.019 678 636.407 676.334C635.319 677.694 633.585 678.544 631.307 678.544ZM633.279 674.226C634.809 674.226 635.931 673.546 635.931 672.424C635.931 671.302 634.809 670.656 633.279 670.656C631.749 670.656 630.661 671.302 630.661 672.424C630.661 673.546 631.749 674.226 633.279 674.226ZM651.251 678.544C646.491 678.544 644.043 674.09 644.043 668.65C644.043 663.21 646.491 658.756 651.251 658.756C653.019 658.756 654.515 659.334 655.603 660.626V656.818C655.603 654.88 655.331 653.044 654.583 651.48L661.213 650.256V672.322C661.213 674.43 661.757 676.164 662.947 677.422C661.961 678.068 660.805 678.544 659.547 678.544C658.051 678.544 656.657 677.83 656.147 675.926C655.059 677.694 653.325 678.544 651.251 678.544ZM652.781 673.342C654.651 673.342 655.671 671.54 655.671 668.65C655.671 665.76 654.651 663.958 652.781 663.958C650.877 663.958 649.823 665.76 649.823 668.65C649.823 671.54 650.877 673.342 652.781 673.342ZM673.932 685.344C672.708 685.344 671.416 684.902 670.226 684.222C671.314 683.1 671.96 681.91 671.96 679.122V665.182C671.96 663.244 671.824 661.476 670.906 659.912L677.57 658.756V681.162C677.57 684.256 675.836 685.344 673.932 685.344ZM674.748 656.512C672.266 656.512 671.246 654.88 671.246 653.384C671.246 651.888 672.266 650.256 674.748 650.256C677.23 650.256 678.25 651.888 678.25 653.384C678.25 654.88 677.23 656.512 674.748 656.512ZM689.004 678.544C683.428 678.544 680.334 674.158 680.334 668.616C680.334 663.414 683.02 658.756 688.698 658.756C693.628 658.756 696.008 662.224 696.212 667.392L686.454 670.69C687.202 672.662 688.834 673.342 690.806 673.342C692.71 673.342 694.444 672.696 695.77 671.506C696.246 674.668 694.274 678.544 689.004 678.544ZM686.08 667.29L691.044 665.59C690.874 664.604 690.16 663.584 688.8 663.584C687.066 663.584 686.216 665.216 686.08 667.29ZM710.068 685.344C710.204 683.304 708.232 682.624 705.92 682.08L703.336 681.502C700.922 680.924 698.814 680.04 698.814 677.592C698.814 675.994 699.698 674.838 701.466 674.158C699.086 672.628 698.1 669.874 698.1 667.086C698.1 663.21 700.004 659.402 704.866 658.824C704.594 657.634 704.322 656.036 704.322 654.71C704.322 651.412 706.124 650.256 707.79 650.256C709.422 650.256 710.816 651.378 710.816 653.214C710.816 655.832 708.028 656.24 707.858 658.892C712.482 659.606 714.284 663.312 714.284 667.086C714.284 671.302 712.04 675.416 706.192 675.416C705.206 675.416 704.39 675.552 704.39 676.266C704.39 676.81 704.866 677.116 706.192 677.286L710.238 677.728C713.026 678.034 715.168 679.156 715.168 681.468C715.168 684.426 711.734 685.31 710.068 685.344ZM706.192 670.384C707.858 670.384 708.776 668.922 708.776 667.086C708.776 665.25 707.858 663.788 706.192 663.788C704.526 663.788 703.608 665.25 703.608 667.086C703.608 668.922 704.526 670.384 706.192 670.384ZM733.681 678.544C731.539 678.544 729.771 677.66 728.683 675.722C728.139 677.082 726.881 678.204 724.841 678.204C724.059 678.204 723.413 678.034 722.903 677.796C723.549 676.266 723.719 674.464 723.719 672.526V656.818C723.719 654.88 723.447 653.044 722.699 651.48L729.329 650.256V660.626C730.417 659.334 731.913 658.756 733.681 658.756C738.441 658.756 740.889 663.21 740.889 668.65C740.889 674.09 738.441 678.544 733.681 678.544ZM732.151 673.342C734.055 673.342 735.109 671.54 735.109 668.65C735.109 665.76 734.055 663.958 732.151 663.958C730.281 663.958 729.261 665.76 729.261 668.65C729.261 671.54 730.281 673.342 732.151 673.342ZM748.813 678.544C745.073 678.544 742.557 676.232 742.557 672.73C742.557 669.16 745.175 667.358 749.119 667.358C750.853 667.358 752.247 667.732 753.233 668.378V666.202C753.233 664.468 752.179 663.686 750.751 663.686C749.459 663.686 748.337 664.332 748.337 665.624C748.337 665.93 748.405 666.304 748.507 666.61C746.229 667.086 743.577 665.998 743.577 663.346C743.577 660.286 747.079 658.756 750.785 658.756C755.545 658.756 758.843 661.34 758.843 665.386V672.322C758.843 674.43 759.387 676.164 760.577 677.422C759.591 678.068 758.435 678.544 757.177 678.544C755.783 678.544 754.525 678 753.913 676.334C752.825 677.694 751.091 678.544 748.813 678.544ZM750.785 674.226C752.315 674.226 753.437 673.546 753.437 672.424C753.437 671.302 752.315 670.656 750.785 670.656C749.255 670.656 748.167 671.302 748.167 672.424C748.167 673.546 749.255 674.226 750.785 674.226ZM761.956 678C762.432 676.334 762.602 674.464 762.602 672.526V665.25C762.602 663.312 762.33 661.476 761.582 659.912L767.668 658.824V661.714C768.62 659.776 770.116 658.756 772.054 658.756C774.332 658.756 776.338 660.218 776.338 663.108C776.338 665.93 774.468 667.324 771.714 667.324C772.326 664.978 771.51 663.924 770.286 663.924C768.484 663.924 768.212 666.134 768.212 669.602V672.526C768.212 674.464 768.484 676.334 769.198 678H761.956ZM785.89 678.544C780.314 678.544 777.22 674.158 777.22 668.616C777.22 663.414 779.906 658.756 785.584 658.756C790.514 658.756 792.894 662.224 793.098 667.392L783.34 670.69C784.088 672.662 785.72 673.342 787.692 673.342C789.596 673.342 791.33 672.696 792.656 671.506C793.132 674.668 791.16 678.544 785.89 678.544ZM782.966 667.29L787.93 665.59C787.76 664.604 787.046 663.584 785.686 663.584C783.952 663.584 783.102 665.216 782.966 667.29ZM810.297 678.544C803.973 678.544 801.525 674.09 801.525 668.65C801.525 663.21 803.973 658.756 810.297 658.756C816.621 658.756 819.069 663.21 819.069 668.65C819.069 674.09 816.621 678.544 810.297 678.544ZM810.297 673.342C812.235 673.342 813.289 671.54 813.289 668.65C813.289 665.76 812.235 663.958 810.297 663.958C808.359 663.958 807.305 665.76 807.305 668.65C807.305 671.54 808.359 673.342 810.297 673.342ZM832.952 685.344C833.088 683.304 831.116 682.624 828.804 682.08L826.22 681.502C823.806 680.924 821.698 680.04 821.698 677.592C821.698 675.994 822.582 674.838 824.35 674.158C821.97 672.628 820.984 669.874 820.984 667.086C820.984 663.21 822.888 659.402 827.75 658.824C827.478 657.634 827.206 656.036 827.206 654.71C827.206 651.412 829.008 650.256 830.674 650.256C832.306 650.256 833.7 651.378 833.7 653.214C833.7 655.832 830.912 656.24 830.742 658.892C835.366 659.606 837.168 663.312 837.168 667.086C837.168 671.302 834.924 675.416 829.076 675.416C828.09 675.416 827.274 675.552 827.274 676.266C827.274 676.81 827.75 677.116 829.076 677.286L833.122 677.728C835.91 678.034 838.052 679.156 838.052 681.468C838.052 684.426 834.618 685.31 832.952 685.344ZM829.076 670.384C830.742 670.384 831.66 668.922 831.66 667.086C831.66 665.25 830.742 663.788 829.076 663.788C827.41 663.788 826.492 665.25 826.492 667.086C826.492 668.922 827.41 670.384 829.076 670.384ZM852.894 678.544C849.018 678.544 845.652 676.64 845.652 673.614C845.652 670.928 848.372 669.942 850.684 670.418C850.548 670.758 850.48 671.2 850.48 671.54C850.48 672.934 851.568 673.784 852.894 673.784C854.118 673.784 855.002 673.07 855.002 672.05C855.002 670.894 853.914 670.316 852.452 669.976L850.48 669.534C848.032 668.99 845.89 667.46 845.89 664.4C845.89 661.306 848.1 658.756 853.132 658.756C855.41 658.756 857.858 659.266 859.388 660.422V666.134C857.756 664.502 855.138 663.55 853.098 663.55C851.976 663.55 851.398 663.822 851.398 664.434C851.398 665.012 851.908 665.216 853.098 665.488L854.934 665.93C857.688 666.61 860.612 668.038 860.612 671.914C860.612 675.926 857.382 678.544 852.894 678.544ZM867.905 678.544C866.001 678.544 864.097 677.456 864.097 673.682V664.434C863.519 664.434 862.363 664.502 861.717 664.74C861.445 663.89 861.309 663.108 861.309 662.394C861.309 660.354 862.431 659.3 864.233 659.3C864.233 658.212 863.927 657.362 863.927 656.614C863.927 654.982 865.457 653.69 867.769 653.69C868.619 653.69 869.401 653.86 870.115 654.098C869.809 655.73 869.707 657.43 869.707 659.3C870.999 659.3 872.359 659.13 873.481 658.756C873.685 659.572 873.753 660.286 873.753 660.864C873.753 663.312 872.597 664.434 870.523 664.434H869.707V672.322C869.707 674.43 870.251 676.164 871.441 677.422C870.387 678.102 869.129 678.544 867.905 678.544ZM875.212 678C875.688 676.334 875.858 674.464 875.858 672.526V665.25C875.858 663.312 875.586 661.476 874.838 659.912L881.468 658.756V672.526C881.468 674.464 881.638 676.334 882.114 678H875.212ZM878.476 656.512C875.994 656.512 874.974 654.88 874.974 653.384C874.974 651.888 875.994 650.256 878.476 650.256C880.958 650.256 881.978 651.888 881.978 653.384C881.978 654.88 880.958 656.512 878.476 656.512ZM884.476 678C884.952 676.334 885.122 674.464 885.122 672.526V665.25C885.122 663.312 884.85 661.476 884.102 659.912L890.188 658.824V661.714C891.14 659.776 892.636 658.756 894.574 658.756C896.852 658.756 898.858 660.218 898.858 663.108C898.858 665.93 896.988 667.324 894.234 667.324C894.846 664.978 894.03 663.924 892.806 663.924C891.004 663.924 890.732 666.134 890.732 669.602V672.526C890.732 674.464 891.004 676.334 891.718 678H884.476ZM900.314 678C900.79 676.334 900.96 674.464 900.96 672.526V665.25C900.96 663.312 900.688 661.476 899.94 659.912L906.026 658.824V661.714C906.978 659.776 908.474 658.756 910.412 658.756C912.69 658.756 914.696 660.218 914.696 663.108C914.696 665.93 912.826 667.324 910.072 667.324C910.684 664.978 909.868 663.924 908.644 663.924C906.842 663.924 906.57 666.134 906.57 669.602V672.526C906.57 674.464 906.842 676.334 907.556 678H900.314ZM924.248 678.544C918.672 678.544 915.578 674.158 915.578 668.616C915.578 663.414 918.264 658.756 923.942 658.756C928.872 658.756 931.252 662.224 931.456 667.392L921.698 670.69C922.446 672.662 924.078 673.342 926.05 673.342C927.954 673.342 929.688 672.696 931.014 671.506C931.49 674.668 929.518 678.544 924.248 678.544ZM921.324 667.29L926.288 665.59C926.118 664.604 925.404 663.584 924.044 663.584C922.31 663.584 921.46 665.216 921.324 667.29ZM940.616 678.544C935.856 678.544 933.408 674.09 933.408 668.65C933.408 663.21 935.856 658.756 940.616 658.756C942.384 658.756 943.88 659.334 944.968 660.626V656.818C944.968 654.88 944.696 653.044 943.948 651.48L950.578 650.256V672.322C950.578 674.43 951.122 676.164 952.312 677.422C951.326 678.068 950.17 678.544 948.912 678.544C947.416 678.544 946.022 677.83 945.512 675.926C944.424 677.694 942.69 678.544 940.616 678.544ZM942.146 673.342C944.016 673.342 945.036 671.54 945.036 668.65C945.036 665.76 944.016 663.958 942.146 663.958C940.242 663.958 939.188 665.76 939.188 668.65C939.188 671.54 940.242 673.342 942.146 673.342ZM962.033 678.544C956.457 678.544 953.363 674.158 953.363 668.616C953.363 663.414 956.049 658.756 961.727 658.756C966.657 658.756 969.037 662.224 969.241 667.392L959.483 670.69C960.231 672.662 961.863 673.342 963.835 673.342C965.739 673.342 967.473 672.696 968.799 671.506C969.275 674.668 967.303 678.544 962.033 678.544ZM959.109 667.29L964.073 665.59C963.903 664.604 963.189 663.584 961.829 663.584C960.095 663.584 959.245 665.216 959.109 667.29ZM62.344 730.544C58.026 730.544 56.632 727.144 56.632 723.132V717.25C56.632 715.312 56.36 713.476 55.612 711.912L62.242 710.756V722.622C62.242 724.322 62.786 725.376 64.078 725.376C65.948 725.376 66.662 723.166 66.662 720.378V717.25C66.662 715.312 66.39 713.476 65.642 711.912L72.272 710.756V724.322C72.272 726.43 72.816 728.164 74.006 729.422C73.02 730.068 71.864 730.544 70.606 730.544C69.076 730.544 67.682 729.864 67.172 727.824C66.186 729.66 64.656 730.544 62.344 730.544ZM82.4146 730.544C77.6546 730.544 75.2066 726.09 75.2066 720.65C75.2066 715.21 77.6546 710.756 82.4146 710.756C84.1826 710.756 85.6786 711.334 86.7666 712.626V708.818C86.7666 706.88 86.4946 705.044 85.7466 703.48L92.3766 702.256V724.322C92.3766 726.43 92.9206 728.164 94.1106 729.422C93.1246 730.068 91.9686 730.544 90.7106 730.544C89.2146 730.544 87.8206 729.83 87.3106 727.926C86.2226 729.694 84.4886 730.544 82.4146 730.544ZM83.9446 725.342C85.8146 725.342 86.8346 723.54 86.8346 720.65C86.8346 717.76 85.8146 715.958 83.9446 715.958C82.0406 715.958 80.9866 717.76 80.9866 720.65C80.9866 723.54 82.0406 725.342 83.9446 725.342ZM102.376 730C102.852 728.334 103.022 726.464 103.022 724.526V717.25C103.022 715.312 102.75 713.476 102.002 711.912L108.632 710.756V724.526C108.632 726.464 108.802 728.334 109.278 730H102.376ZM105.64 708.512C103.158 708.512 102.138 706.88 102.138 705.384C102.138 703.888 103.158 702.256 105.64 702.256C108.122 702.256 109.142 703.888 109.142 705.384C109.142 706.88 108.122 708.512 105.64 708.512ZM118.345 730C118.821 728.334 118.991 726.464 118.991 724.526V708.818C118.991 706.88 118.719 705.044 117.971 703.48L124.601 702.256V724.526C124.601 726.464 124.771 728.334 125.247 730H118.345ZM133.698 730.544C129.38 730.544 127.986 727.144 127.986 723.132V717.25C127.986 715.312 127.714 713.476 126.966 711.912L133.596 710.756V722.622C133.596 724.322 134.14 725.376 135.432 725.376C137.302 725.376 138.016 723.166 138.016 720.378V717.25C138.016 715.312 137.744 713.476 136.996 711.912L143.626 710.756V724.322C143.626 726.43 144.17 728.164 145.36 729.422C144.374 730.068 143.218 730.544 141.96 730.544C140.43 730.544 139.036 729.864 138.526 727.824C137.54 729.66 136.01 730.544 133.698 730.544ZM148.736 730C149.212 728.334 149.382 726.464 149.382 724.526V716.366C148.362 716.4 147.376 716.502 146.56 716.74C146.186 715.822 145.948 714.972 145.948 714.156C145.948 712.694 146.696 711.572 148.77 711.334C147.988 709.804 147.648 708.682 147.648 707.56C147.648 704.16 150.776 702.256 154.686 702.256C157.712 702.256 160.568 703.446 160.568 706.064C160.568 708.648 157.78 709.09 156.08 709.124C156.114 708.92 156.114 708.784 156.114 708.648C156.114 707.73 155.706 707.152 154.89 707.152C154.21 707.152 153.462 707.56 153.462 708.58C153.462 709.362 153.938 710.416 154.55 711.3H155.74C157.304 711.3 158.562 711.13 159.616 710.824C159.82 711.64 159.922 712.354 159.922 713C159.922 715.21 158.698 716.434 156.658 716.434H154.992V724.526C154.992 726.464 155.264 728.334 155.978 730H148.736ZM167.486 730.544C165.582 730.544 163.678 729.456 163.678 725.682V716.434C163.1 716.434 161.944 716.502 161.298 716.74C161.026 715.89 160.89 715.108 160.89 714.394C160.89 712.354 162.012 711.3 163.814 711.3C163.814 710.212 163.508 709.362 163.508 708.614C163.508 706.982 165.038 705.69 167.35 705.69C168.2 705.69 168.982 705.86 169.696 706.098C169.39 707.73 169.288 709.43 169.288 711.3C170.58 711.3 171.94 711.13 173.062 710.756C173.266 711.572 173.334 712.286 173.334 712.864C173.334 715.312 172.178 716.434 170.104 716.434H169.288V724.322C169.288 726.43 169.832 728.164 171.022 729.422C169.968 730.102 168.71 730.544 167.486 730.544ZM182.424 730.544C176.848 730.544 173.754 726.158 173.754 720.616C173.754 715.414 176.44 710.756 182.118 710.756C187.048 710.756 189.428 714.224 189.632 719.392L179.874 722.69C180.622 724.662 182.254 725.342 184.226 725.342C186.13 725.342 187.864 724.696 189.19 723.506C189.666 726.668 187.694 730.544 182.424 730.544ZM179.5 719.29L184.464 717.59C184.294 716.604 183.58 715.584 182.22 715.584C180.486 715.584 179.636 717.216 179.5 719.29ZM191.66 730C192.136 728.334 192.306 726.464 192.306 724.526V717.25C192.306 715.312 192.034 713.476 191.286 711.912L197.372 710.824V713.544C198.324 711.708 199.922 710.756 202.234 710.756C206.552 710.756 207.946 714.156 207.946 718.168V724.526C207.946 726.464 208.116 728.334 208.592 730H201.69C202.166 728.334 202.336 726.464 202.336 724.526V718.678C202.336 716.978 201.792 715.924 200.5 715.924C198.63 715.924 197.916 718.134 197.916 720.922V724.526C197.916 726.464 198.086 728.334 198.562 730H191.66ZM215.466 716.23C213.46 716.774 211.012 716.128 211.012 713.68C211.012 711.946 212.236 710.824 213.494 709.702C211.454 709.668 209.856 708.002 209.856 705.962C209.856 703.888 211.454 702.222 213.596 702.222C215.806 702.222 217.472 703.99 217.472 706.37C217.472 709.396 214.854 711.504 214.854 714.122C214.854 714.802 215.024 715.482 215.466 716.23ZM224.748 716.23C222.742 716.774 220.294 716.128 220.294 713.68C220.294 711.946 221.518 710.824 222.776 709.702C220.736 709.668 219.138 708.002 219.138 705.962C219.138 703.888 220.736 702.222 222.878 702.222C225.088 702.222 226.754 703.99 226.754 706.37C226.754 709.396 224.136 711.504 224.136 714.122C224.136 714.802 224.306 715.482 224.748 716.23Z" fill="#5F141E"/>
</svg>
