<svg width="1080" height="1080" viewBox="0 0 1080 1080" fill="none" xmlns="http://www.w3.org/2000/svg">
<rect width="1080" height="1080" fill="#F41116"/>
<path fill-rule="evenodd" clip-rule="evenodd" d="M366.866 84.413C370.059 78.5269 372.691 71.8 373.755 66.0829C376.108 66.4193 378.629 66.5874 381.373 66.5874C384.51 66.5874 386.919 66.3635 389.047 66.0271C389.999 70.623 387.814 75.3317 382.045 75.3317C381.597 75.3317 381.149 75.2754 380.701 75.2193C379.525 78.246 378.18 80.9373 376.669 83.3474C383.558 85.2529 388.879 90.5225 388.879 99.2665C388.879 108.067 383.614 113 377.844 113C374.54 113 372.075 111.374 370.955 108.964C374.932 108.403 379.469 105.601 379.469 100.107C379.469 94.278 374.316 90.2983 366.866 89.9619V102.406C366.866 105.601 367.146 108.684 367.931 111.43H356.56C357.344 108.684 357.624 105.601 357.624 102.406V76.229C357.624 73.0342 357.232 70.0071 356 67.4283L366.866 65.6907V84.413ZM417.953 79.7041C425.571 79.7042 431.004 83.7965 431.004 90.5787V102.125C431.004 105.601 431.956 108.516 433.86 110.533C432.348 111.542 430.499 112.327 428.539 112.327C426.299 112.327 424.283 111.374 423.33 108.572C421.538 110.87 418.625 112.327 414.873 112.327C408.823 112.327 404.567 108.572 404.567 102.742C404.567 96.8002 408.991 93.7733 415.377 93.7733C418.289 93.7733 420.698 94.3905 422.378 95.6232V91.8111C422.378 88.7283 420.473 87.3277 417.897 87.3277C415.545 87.3277 413.64 88.5603 413.64 90.8028C413.64 91.3633 413.752 91.9793 413.92 92.4837C410.391 93.2126 406.19 91.4752 406.19 87.2711C406.19 82.3384 411.848 79.7041 417.953 79.7041ZM446.41 79.7041C450.219 79.7042 454.196 80.6015 456.716 82.563V91.5312C454.028 88.7843 449.771 87.1031 446.354 87.103C444.282 87.103 443.161 87.7198 443.161 88.8963C443.161 89.9615 444.057 90.354 446.13 90.8586L449.322 91.6436C453.972 92.8203 458.621 95.2315 458.621 101.509C458.621 108.235 453.299 112.327 446.074 112.327C439.632 112.327 434.199 109.02 434.199 104.087C434.199 99.771 438.512 98.2021 442.096 98.9301C441.872 99.4907 441.76 100.276 441.76 100.892C441.76 103.471 443.722 104.928 446.074 104.928C448.315 104.928 449.938 103.639 449.938 101.733C449.938 99.6589 448.09 98.6502 445.514 98.0335L442.209 97.2484C438.288 96.3513 434.647 93.8294 434.647 88.8405C434.647 83.7401 438.456 79.7041 446.41 79.7041ZM472.401 79.7041C476.21 79.7042 480.186 80.6015 482.707 82.563V91.5312C480.019 88.7843 475.762 87.1031 472.345 87.103C470.273 87.103 469.152 87.7198 469.152 88.8963C469.152 89.9615 470.049 90.354 472.121 90.8586L475.314 91.6436C479.963 92.8203 484.612 95.2315 484.612 101.509C484.612 108.235 479.291 112.327 472.065 112.327C465.624 112.327 460.191 109.02 460.191 104.087C460.191 99.771 464.503 98.2021 468.087 98.9301C467.864 99.4907 467.752 100.276 467.752 100.892C467.752 103.471 469.713 104.928 472.065 104.928C474.306 104.928 475.929 103.639 475.929 101.733C475.929 99.6589 474.081 98.6502 471.504 98.0335L468.2 97.2484C464.279 96.3513 460.639 93.8294 460.639 88.8405C460.639 83.7401 464.448 79.7041 472.401 79.7041ZM500.186 79.7041C508.083 79.7042 512.06 85.3651 512.396 93.661L495.984 99.3223C497.161 102.91 500.073 104.312 503.49 104.312C506.738 104.312 509.595 103.134 511.724 101.116C512.395 106.217 509.091 112.327 500.745 112.327C491.728 112.327 486.519 105.209 486.519 95.9596C486.519 87.2717 491.111 79.7041 500.186 79.7041ZM542.254 79.7041C552.391 79.7041 556.536 86.9351 556.536 96.0154C556.536 105.096 552.391 112.327 542.254 112.327C532.059 112.327 527.971 105.096 527.971 96.0154C527.971 86.9351 532.059 79.7041 542.254 79.7041ZM583.858 71.3521C585.145 71.3521 586.322 71.6323 587.498 72.0248C586.993 74.7712 586.826 77.6302 586.826 80.6015C588.954 80.6015 591.139 80.3208 593.043 79.7041C593.379 80.9929 593.491 82.0582 593.491 82.9552C593.491 86.7669 591.698 88.5041 588.393 88.5041H586.826V102.125C586.826 105.657 587.777 108.516 589.682 110.533C588.057 111.598 586.098 112.327 584.192 112.327C581.112 112.327 578.199 110.421 578.199 104.255V88.5041H570.862V102.125C570.862 105.657 571.815 108.516 573.719 110.533C572.095 111.598 570.134 112.327 568.174 112.327C565.149 112.327 562.236 110.421 562.236 104.255V88.5041C561.228 88.5042 559.379 88.6163 558.259 89.0087C557.811 87.6639 557.643 86.4866 557.643 85.3655C557.643 82.1706 559.492 80.6016 562.46 80.6015C562.46 78.8075 561.956 77.2938 561.956 76.0044C561.956 73.4263 564.309 71.3521 567.893 71.3521C569.182 71.3521 570.358 71.6323 571.534 72.0248C571.03 74.7712 570.862 77.6302 570.862 80.6015H578.423C578.423 78.8075 577.919 77.2938 577.919 76.0044C577.919 73.4263 580.273 71.3521 583.858 71.3521ZM607.457 79.7041C615.354 79.7041 619.331 85.3651 619.667 93.661L603.257 99.3223C604.433 102.91 607.345 104.312 610.762 104.312C614.01 104.312 616.867 103.134 618.996 101.116C619.667 106.217 616.363 112.327 608.018 112.327C598.999 112.327 593.791 105.209 593.791 95.9596C593.791 87.2718 598.383 79.7042 607.457 79.7041ZM673.893 79.7041C681.791 79.7042 685.768 85.3651 686.104 93.661L669.692 99.3223C670.869 102.91 673.781 104.312 677.197 104.312C680.446 104.312 683.303 103.134 685.431 101.116C686.103 106.217 682.799 112.327 674.453 112.327C665.435 112.327 660.226 105.209 660.226 95.9596C660.226 87.2717 664.819 79.7041 673.893 79.7041ZM697.46 71.3521C698.748 71.3521 699.925 71.6323 701.101 72.0248C700.597 74.7712 700.428 77.6302 700.428 80.6015C702.557 80.6015 704.741 80.3208 706.646 79.7041C706.982 80.9929 707.093 82.0582 707.093 82.9552C707.093 86.7669 705.302 88.5041 701.997 88.5041H700.428V102.125C700.428 105.657 701.381 108.516 703.284 110.533C701.661 111.598 699.7 112.327 697.74 112.327C694.715 112.327 691.803 110.421 691.803 104.255V88.5041C690.795 88.5041 688.945 88.6162 687.826 89.0087C687.378 87.6639 687.21 86.4866 687.21 85.3655C687.21 82.1705 689.058 80.6015 692.027 80.6015C692.027 78.8075 691.523 77.2938 691.523 76.0044C691.523 73.4263 693.875 71.3522 697.46 71.3521ZM656.976 102.406C656.976 105.545 657.256 108.74 657.984 111.431H647.286C648.014 108.74 648.294 105.545 648.294 102.406V90.3548C648.294 87.1598 647.846 84.0769 646.67 81.554L656.976 79.7041V102.406ZM401.765 102.406C401.765 105.545 402.045 108.74 402.773 111.43H392.13C392.859 108.74 393.139 105.545 393.139 102.406V73.9304C393.139 70.7355 392.691 68.045 391.515 65.6349C394.931 65.0182 398.684 64.0652 401.765 63V102.406ZM524.721 102.406C524.721 105.545 525.001 108.74 525.728 111.43H515.086C515.815 108.74 516.094 105.545 516.094 102.406V73.9304C516.094 70.7355 515.646 68.045 514.47 65.6349C517.887 65.0182 521.64 64.0652 524.721 63V102.406ZM638.602 79.7041C642.355 79.7042 645.547 82.1143 645.547 86.7108C645.547 91.1952 642.579 93.3247 638.322 93.3247C639.33 89.5131 637.986 87.664 635.914 87.664C632.833 87.6642 632.217 91.4197 632.217 97.1368V102.406C632.217 105.545 632.61 108.74 633.729 111.43H622.526C623.254 108.74 623.535 105.545 623.535 102.406V90.3541C623.535 87.1592 623.087 84.0762 621.911 81.5533L631.432 79.8165V84.5245C633.001 81.3857 635.41 79.7041 638.602 79.7041ZM417.897 98.986C415.153 98.986 413.248 100.219 413.248 102.294C413.248 104.311 415.153 105.601 417.897 105.601C420.641 105.601 422.658 104.311 422.658 102.294C422.658 100.219 420.641 98.986 417.897 98.986ZM542.254 87.7199C538.837 87.7199 536.931 90.8588 536.931 96.0154C536.931 101.172 538.837 104.312 542.254 104.312C545.67 104.312 547.63 101.172 547.63 96.0154C547.63 90.8588 545.67 87.7199 542.254 87.7199ZM500.353 87.1595C497.273 87.1595 495.704 90.018 495.424 93.8856L504.386 90.8028C504.05 88.8967 502.762 87.1596 500.353 87.1595ZM607.625 87.1595C604.544 87.1596 602.976 90.0181 602.696 93.8856L611.658 90.8028C611.322 88.8966 610.034 87.1595 607.625 87.1595ZM674.061 87.1595C670.981 87.1595 669.412 90.018 669.132 93.8856L678.094 90.8028C677.758 88.8967 676.469 87.1596 674.061 87.1595ZM718.806 65.7473C722.382 65.7473 724.999 68.406 725 71.894C725 75.3819 722.382 78.0938 718.806 78.0938C715.188 78.0938 712.571 75.3556 712.571 71.894C712.571 68.4324 715.226 65.7473 718.806 65.7473ZM718.806 66.9323C715.953 66.9323 713.928 68.9983 713.928 71.894C713.928 74.8291 716.006 76.9088 718.806 76.9088C721.607 76.9088 723.658 74.8028 723.658 71.894C723.658 68.9853 721.66 66.9323 718.806 66.9323ZM652.327 65.7473C656.192 65.7474 657.816 68.2696 657.816 70.6235C657.816 73.0342 656.192 75.5563 652.327 75.5563C648.463 75.5563 646.837 73.0343 646.837 70.6235C646.837 68.2695 648.462 65.7473 652.327 65.7473ZM719.455 68.6472C720.657 68.6473 721.448 69.3888 721.448 70.3989C721.447 71.2425 720.913 71.8181 720.03 72.0099C720.772 72.1761 721.102 72.7256 721.296 73.5694L721.615 74.9373H720.224L720.03 73.7616C719.888 72.8283 719.773 72.6105 718.743 72.6105H717.754V74.9373H716.468V68.6472H719.455ZM717.754 69.6958V71.5619H718.817C719.685 71.5619 720.161 71.2168 720.161 70.5777C720.161 69.9385 719.658 69.6958 718.817 69.6958H717.754Z" fill="#FFF0D3"/>
<path d="M107.8 308H58.9C60.3 303.1 60.8 297.6 60.8 291.9V244.1C60.8 238.4 60.3 232.9 58.9 228H106.4V247C101.5 244.8 96 244 90.3 244H78.4V259.5H85.7C91.4 259.5 96.9 258.7 101.8 256.5V276.5C96.9 275.1 91.4 274.6 85.7 274.6H78.4V292H91.7C97.4 292 102.9 291.2 107.8 289V308ZM114.948 308C116.348 303.1 116.848 297.6 116.848 291.9V270.5C116.848 264.8 116.048 259.4 113.848 254.8L131.748 251.6V259.6C134.548 254.2 139.248 251.4 146.048 251.4C158.748 251.4 162.848 261.4 162.848 273.2V291.9C162.848 297.6 163.348 303.1 164.748 308H144.448C145.848 303.1 146.348 297.6 146.348 291.9V274.7C146.348 269.7 144.748 266.6 140.948 266.6C135.448 266.6 133.348 273.1 133.348 281.3V291.9C133.348 297.6 133.848 303.1 135.248 308H114.948ZM191.112 308C192.513 303.1 193.013 297.6 193.013 291.9V245.7C193.013 240 192.213 234.6 190.013 230L209.513 226.4V255.8C213.713 252.6 218.613 251.4 223.513 251.4C235.713 251.4 241.613 259.7 241.613 269.7C241.613 277.1 238.513 282.4 232.013 285.4C234.913 293.2 239.013 300.6 244.513 308H225.013C221.613 302.1 219.113 295.8 217.813 289.6H209.513V291.9C209.513 297.6 210.013 303.1 211.413 308H191.112ZM209.513 278.9H216.713C221.613 278.9 224.613 276.2 224.613 272.1C224.613 268.6 222.413 265.8 218.313 265.8C213.613 265.8 209.513 269.5 209.513 277V278.9ZM261.379 308L249.679 268.7C248.079 263.2 246.079 257.9 243.679 253H265.479C264.379 256.9 264.779 261.2 265.879 265.6L271.979 288.5L278.579 265.6C279.779 261.2 280.279 256.9 279.179 253H299.879C297.479 257.9 295.479 263.2 293.679 268.6L280.979 308H261.379ZM303.815 308C305.215 303.1 305.715 297.6 305.715 291.9V270.5C305.715 264.8 304.915 259.4 302.715 254.8L322.215 251.4V291.9C322.215 297.6 322.715 303.1 324.115 308H303.815ZM313.415 244.8C306.115 244.8 303.115 240 303.115 235.6C303.115 231.2 306.115 226.4 313.415 226.4C320.715 226.4 323.715 231.2 323.715 235.6C323.715 240 320.715 244.8 313.415 244.8ZM331.061 308C332.461 303.1 332.961 297.6 332.961 291.9V270.5C332.961 264.8 332.161 259.4 329.961 254.8L347.861 251.6V259.6C350.661 254.2 355.361 251.4 362.161 251.4C374.861 251.4 378.961 261.4 378.961 273.2V291.9C378.961 297.6 379.461 303.1 380.861 308H360.561C361.961 303.1 362.461 297.6 362.461 291.9V274.7C362.461 269.7 360.861 266.6 357.061 266.6C351.561 266.6 349.461 273.1 349.461 281.3V291.9C349.461 297.6 349.961 303.1 351.361 308H331.061ZM407.506 309.6C393.506 309.6 386.306 296.5 386.306 280.5C386.306 264.5 393.506 251.4 407.506 251.4C412.706 251.4 417.106 253.1 420.306 256.9V245.7C420.306 240 419.506 234.6 417.306 230L436.806 226.4V291.3C436.806 297.5 438.406 302.6 441.906 306.3C439.006 308.2 435.606 309.6 431.906 309.6C427.506 309.6 423.406 307.5 421.906 301.9C418.706 307.1 413.606 309.6 407.506 309.6ZM412.006 294.3C417.506 294.3 420.506 289 420.506 280.5C420.506 272 417.506 266.7 412.006 266.7C406.406 266.7 403.306 272 403.306 280.5C403.306 289 406.406 294.3 412.006 294.3ZM470.498 309.6C454.098 309.6 444.998 296.7 444.998 280.4C444.998 265.1 452.898 251.4 469.598 251.4C484.098 251.4 491.098 261.6 491.698 276.8L462.998 286.5C465.198 292.3 469.998 294.3 475.798 294.3C481.398 294.3 486.498 292.4 490.398 288.9C491.798 298.2 485.998 309.6 470.498 309.6ZM461.898 276.5L476.498 271.5C475.998 268.6 473.898 265.6 469.898 265.6C464.798 265.6 462.298 270.4 461.898 276.5ZM63.8 420C65.2 415.1 65.7 409.6 65.7 403.9V379.9C62.7 380 59.8 380.3 57.4 381C56.3 378.3 55.6 375.8 55.6 373.4C55.6 369.1 57.8 365.8 63.9 365.1C61.6 360.6 60.6 357.3 60.6 354C60.6 344 69.8 338.4 81.3 338.4C90.2 338.4 98.6 341.9 98.6 349.6C98.6 357.2 90.4 358.5 85.4 358.6C85.5 358 85.5 357.6 85.5 357.2C85.5 354.5 84.3 352.8 81.9 352.8C79.9 352.8 77.7 354 77.7 357C77.7 359.3 79.1 362.4 80.9 365H84.4C89 365 92.7 364.5 95.8 363.6C96.4 366 96.7 368.1 96.7 370C96.7 376.5 93.1 380.1 87.1 380.1H82.2V403.9C82.2 409.6 83 415.1 85.1 420H63.8ZM101.569 420C102.969 415.1 103.469 409.6 103.469 403.9V382.5C103.469 376.8 102.669 371.4 100.469 366.8L118.369 363.6V372.1C121.169 366.4 125.569 363.4 131.269 363.4C137.969 363.4 143.869 367.7 143.869 376.2C143.869 384.5 138.369 388.6 130.269 388.6C132.069 381.7 129.669 378.6 126.069 378.6C120.769 378.6 119.969 385.1 119.969 395.3V403.9C119.969 409.6 120.769 415.1 122.869 420H101.569ZM163.498 421.6C152.498 421.6 145.098 414.8 145.098 404.5C145.098 394 152.798 388.7 164.398 388.7C169.498 388.7 173.598 389.8 176.498 391.7V385.3C176.498 380.2 173.398 377.9 169.198 377.9C165.398 377.9 162.098 379.8 162.098 383.6C162.098 384.5 162.298 385.6 162.598 386.5C155.898 387.9 148.098 384.7 148.098 376.9C148.098 367.9 158.398 363.4 169.298 363.4C183.298 363.4 192.998 371 192.998 382.9V403.3C192.998 409.5 194.598 414.6 198.098 418.3C195.198 420.2 191.798 421.6 188.098 421.6C183.998 421.6 180.298 420 178.498 415.1C175.298 419.1 170.198 421.6 163.498 421.6ZM169.298 408.9C173.798 408.9 177.098 406.9 177.098 403.6C177.098 400.3 173.798 398.4 169.298 398.4C164.798 398.4 161.598 400.3 161.598 403.6C161.598 406.9 164.798 408.9 169.298 408.9ZM242.674 420L224.874 355.8C223.274 350.3 221.474 344.9 219.074 340H241.774C240.674 343.9 241.074 348.2 242.174 352.6L253.174 396L264.274 352.6C265.374 348.2 265.774 343.9 264.574 340H286.274C283.874 344.9 282.074 350.3 280.474 355.8L262.674 420H242.674ZM307.607 421.6C291.207 421.6 282.107 408.7 282.107 392.4C282.107 377.1 290.007 363.4 306.707 363.4C321.207 363.4 328.207 373.6 328.807 388.8L300.107 398.5C302.307 404.3 307.107 406.3 312.907 406.3C318.507 406.3 323.607 404.4 327.507 400.9C328.907 410.2 323.107 421.6 307.607 421.6ZM299.007 388.5L313.607 383.5C313.107 380.6 311.007 377.6 307.007 377.6C301.907 377.6 299.407 382.4 299.007 388.5ZM354.872 421.6C343.472 421.6 333.572 416 333.572 407.1C333.572 399.2 341.572 396.3 348.372 397.7C347.972 398.7 347.772 400 347.772 401C347.772 405.1 350.972 407.6 354.872 407.6C358.472 407.6 361.072 405.5 361.072 402.5C361.072 399.1 357.872 397.4 353.572 396.4L347.772 395.1C340.572 393.5 334.272 389 334.272 380C334.272 370.9 340.772 363.4 355.572 363.4C362.272 363.4 369.472 364.9 373.972 368.3V385.1C369.172 380.3 361.472 377.5 355.472 377.5C352.172 377.5 350.472 378.3 350.472 380.1C350.472 381.8 351.972 382.4 355.472 383.2L360.872 384.5C368.972 386.5 377.572 390.7 377.572 402.1C377.572 413.9 368.072 421.6 354.872 421.6ZM399.023 421.6C393.423 421.6 387.823 418.4 387.823 407.3V380.1C386.123 380.1 382.723 380.3 380.823 381C380.023 378.5 379.623 376.2 379.623 374.1C379.623 368.1 382.923 365 388.223 365C388.223 361.8 387.323 359.3 387.323 357.1C387.323 352.3 391.823 348.5 398.623 348.5C401.123 348.5 403.423 349 405.523 349.7C404.623 354.5 404.323 359.5 404.323 365C408.123 365 412.123 364.5 415.423 363.4C416.023 365.8 416.223 367.9 416.223 369.6C416.223 376.8 412.823 380.1 406.723 380.1H404.323V403.3C404.323 409.5 405.923 414.6 409.423 418.3C406.323 420.3 402.623 421.6 399.023 421.6ZM442.959 421.6C426.559 421.6 417.459 408.7 417.459 392.4C417.459 377.1 425.359 363.4 442.059 363.4C456.559 363.4 463.559 373.6 464.159 388.8L435.459 398.5C437.659 404.3 442.459 406.3 448.259 406.3C453.859 406.3 458.959 404.4 462.859 400.9C464.259 410.2 458.459 421.6 442.959 421.6ZM434.359 388.5L448.959 383.5C448.459 380.6 446.359 377.6 442.359 377.6C437.259 377.6 434.759 382.4 434.359 388.5ZM504.912 441.6C505.312 435.6 499.512 433.6 492.712 432L485.112 430.3C478.012 428.6 471.812 426 471.812 418.8C471.812 414.1 474.412 410.7 479.612 408.7C472.612 404.2 469.712 396.1 469.712 387.9C469.712 376.5 475.312 365.3 489.612 363.6C488.812 360.1 488.012 355.4 488.012 351.5C488.012 341.8 493.312 338.4 498.212 338.4C503.012 338.4 507.112 341.7 507.112 347.1C507.112 354.8 498.912 356 498.412 363.8C512.012 365.9 517.312 376.8 517.312 387.9C517.312 400.3 510.712 412.4 493.512 412.4C490.612 412.4 488.212 412.8 488.212 414.9C488.212 416.5 489.612 417.4 493.512 417.9L505.412 419.2C513.612 420.1 519.912 423.4 519.912 430.2C519.912 438.9 509.812 441.5 504.912 441.6ZM493.512 397.6C498.412 397.6 501.112 393.3 501.112 387.9C501.112 382.5 498.412 378.2 493.512 378.2C488.612 378.2 485.912 382.5 485.912 387.9C485.912 393.3 488.612 397.6 493.512 397.6ZM523.444 420C524.844 415.1 525.344 409.6 525.344 403.9V382.5C525.344 376.8 524.544 371.4 522.344 366.8L540.244 363.6V371.6C543.044 366.2 547.744 363.4 554.544 363.4C567.244 363.4 571.344 373.4 571.344 385.2V403.9C571.344 409.6 571.844 415.1 573.244 420H552.944C554.344 415.1 554.844 409.6 554.844 403.9V386.7C554.844 381.7 553.244 378.6 549.444 378.6C543.944 378.6 541.844 385.1 541.844 393.3V403.9C541.844 409.6 542.344 415.1 543.744 420H523.444ZM604.189 421.6C587.789 421.6 578.689 408.7 578.689 392.4C578.689 377.1 586.589 363.4 603.289 363.4C617.789 363.4 624.789 373.6 625.389 388.8L596.689 398.5C598.889 404.3 603.689 406.3 609.489 406.3C615.089 406.3 620.189 404.4 624.089 400.9C625.489 410.2 619.689 421.6 604.189 421.6ZM595.589 388.5L610.189 383.5C609.689 380.6 607.589 377.6 603.589 377.6C598.489 377.6 595.989 382.4 595.589 388.5ZM631.354 420C632.754 415.1 633.254 409.6 633.254 403.9V382.5C633.254 376.8 632.454 371.4 630.254 366.8L648.154 363.6V371.6C650.954 366.2 655.654 363.4 662.454 363.4C675.154 363.4 679.254 373.4 679.254 385.2V403.9C679.254 409.6 679.754 415.1 681.154 420H660.854C662.254 415.1 662.754 409.6 662.754 403.9V386.7C662.754 381.7 661.154 378.6 657.354 378.6C651.854 378.6 649.754 385.1 649.754 393.3V403.9C649.754 409.6 650.254 415.1 651.654 420H631.354ZM73 532L61.3 492.7C59.7 487.2 57.7 481.9 55.3 477H77.1C76 480.9 76.4 485.2 77.5 489.6L83.6 512.5L90.2 489.6C91.4 485.2 91.9 480.9 90.8 477H111.5C109.1 481.9 107.1 487.2 105.3 492.6L92.6 532H73ZM115.436 532C116.836 527.1 117.336 521.6 117.336 515.9V494.5C117.336 488.8 116.536 483.4 114.336 478.8L133.836 475.4V515.9C133.836 521.6 134.336 527.1 135.736 532H115.436ZM125.036 468.8C117.736 468.8 114.736 464 114.736 459.6C114.736 455.2 117.736 450.4 125.036 450.4C132.336 450.4 135.336 455.2 135.336 459.6C135.336 464 132.336 468.8 125.036 468.8ZM142.682 532C144.082 527.1 144.582 521.6 144.582 515.9V494.5C144.582 488.8 143.782 483.4 141.582 478.8L159.482 475.6V483.6C162.282 478.2 166.982 475.4 173.782 475.4C186.482 475.4 190.582 485.4 190.582 497.2V515.9C190.582 521.6 191.082 527.1 192.482 532H172.182C173.582 527.1 174.082 521.6 174.082 515.9V498.7C174.082 493.7 172.482 490.6 168.682 490.6C163.182 490.6 161.082 497.1 161.082 505.3V515.9C161.082 521.6 161.582 527.1 162.982 532H142.682ZM219.127 533.6C205.127 533.6 197.927 520.5 197.927 504.5C197.927 488.5 205.127 475.4 219.127 475.4C224.327 475.4 228.727 477.1 231.927 480.9V469.7C231.927 464 231.127 458.6 228.927 454L248.427 450.4V515.3C248.427 521.5 250.027 526.6 253.527 530.3C250.627 532.2 247.227 533.6 243.527 533.6C239.127 533.6 235.027 531.5 233.527 525.9C230.327 531.1 225.227 533.6 219.127 533.6ZM223.627 518.3C229.127 518.3 232.127 513 232.127 504.5C232.127 496 229.127 490.7 223.627 490.7C218.027 490.7 214.927 496 214.927 504.5C214.927 513 218.027 518.3 223.627 518.3ZM282.119 533.6C265.719 533.6 256.619 520.7 256.619 504.4C256.619 489.1 264.519 475.4 281.219 475.4C295.719 475.4 302.719 485.6 303.319 500.8L274.619 510.5C276.819 516.3 281.619 518.3 287.419 518.3C293.019 518.3 298.119 516.4 302.019 512.9C303.419 522.2 297.619 533.6 282.119 533.6ZM273.519 500.5L288.119 495.5C287.619 492.6 285.519 489.6 281.519 489.6C276.419 489.6 273.919 494.4 273.519 500.5ZM309.284 532C310.684 527.1 311.184 521.6 311.184 515.9V494.5C311.184 488.8 310.384 483.4 308.184 478.8L326.084 475.6V484.1C328.884 478.4 333.284 475.4 338.984 475.4C345.684 475.4 351.584 479.7 351.584 488.2C351.584 496.5 346.084 500.6 337.984 500.6C339.784 493.7 337.384 490.6 333.784 490.6C328.484 490.6 327.684 497.1 327.684 507.3V515.9C327.684 521.6 328.484 527.1 330.584 532H309.284ZM376.185 532C378.185 527.1 378.885 521.6 378.885 515.9V475.5C378.885 469.8 377.785 464.7 374.385 460.8L396.385 450.4V515.9C396.385 521.6 397.085 527.1 399.085 532H376.185ZM429.349 533.6C414.049 533.6 405.549 523.7 405.549 513.6C405.549 504.4 412.549 500 419.549 500C421.049 500 422.349 500.2 423.549 500.5C422.849 501.9 422.149 504.3 422.149 507.4C422.149 513.4 424.549 517.6 429.449 517.6C434.049 517.6 437.249 513.8 437.249 505.7C437.249 496.8 433.449 490.6 421.749 490.6C420.249 490.6 418.449 490.7 416.649 491L428.849 468H420.649C416.049 468 411.649 468.6 407.749 470.5V452H456.049L441.049 480.9C449.649 485 455.049 493.5 455.049 506C455.049 523.3 444.749 533.6 429.349 533.6ZM459.181 532C459.181 502 489.981 493.2 489.981 475.2C489.981 470 487.381 466.4 482.881 466.4C477.781 466.4 474.881 471.1 474.881 476.9C474.881 480.2 475.781 482.6 476.481 484C475.281 484.3 473.981 484.5 472.481 484.5C465.481 484.5 458.481 480.1 458.481 470.9C458.481 460.5 467.381 450.4 482.881 450.4C497.781 450.4 507.781 459.7 507.781 475.2C507.781 495.4 490.381 502.3 481.881 516H495.381C499.981 516 504.381 515 508.281 512.2V532H459.181ZM526.536 533.6C520.236 533.6 515.536 528.7 515.536 522.6C515.536 516.5 520.236 511.6 526.536 511.6C532.836 511.6 537.536 516.5 537.536 522.6C537.536 528.7 532.836 533.6 526.536 533.6ZM569.166 533.6C552.166 533.6 542.566 523.2 542.566 508.9C542.566 500.1 546.366 492.8 553.666 489.3C547.266 486.1 544.366 479.7 544.366 471.9C544.366 459.9 552.566 450.4 569.166 450.4C585.766 450.4 593.966 459.9 593.966 471.9C593.966 479.7 591.066 486.1 584.666 489.3C591.966 492.8 595.766 500.1 595.766 508.9C595.766 523.2 586.166 533.6 569.166 533.6ZM569.166 517.2C574.266 517.2 577.166 512.7 577.166 506C577.166 499.3 574.366 494.7 569.166 494.7C563.966 494.7 561.166 499.3 561.166 506C561.166 512.7 564.066 517.2 569.166 517.2ZM569.166 483.1C573.466 483.1 575.666 479.6 575.666 474.9C575.666 470.4 573.466 466.8 569.166 466.8C564.866 466.8 562.666 470.4 562.666 474.9C562.666 479.6 564.866 483.1 569.166 483.1ZM626.855 532C628.955 528 629.655 523.5 629.655 518.8V517.5H600.255V512.2C600.255 490.3 621.655 474.2 621.655 458.7C621.655 456.8 621.355 455 620.655 453.1C624.055 451.4 627.055 450.7 629.655 450.7C636.355 450.7 640.455 455.4 640.455 462.9C640.455 477.4 624.155 487.9 618.355 502.3H629.655V492.9C634.955 491.5 641.455 484.5 647.155 484.5V502.3H655.755L652.855 517.5H647.155V518.8C647.155 523.5 647.655 528 649.055 532H626.855ZM659.084 532C659.084 502 689.884 493.2 689.884 475.2C689.884 470 687.284 466.4 682.784 466.4C677.684 466.4 674.784 471.1 674.784 476.9C674.784 480.2 675.684 482.6 676.384 484C675.184 484.3 673.884 484.5 672.384 484.5C665.384 484.5 658.384 480.1 658.384 470.9C658.384 460.5 667.284 450.4 682.784 450.4C697.684 450.4 707.684 459.7 707.684 475.2C707.684 495.4 690.284 502.3 681.784 516H695.284C699.884 516 704.284 515 708.184 512.2V532H659.084ZM735.058 532C736.458 527.1 736.958 521.6 736.958 515.9V469.7C736.958 464 736.158 458.6 733.958 454L753.458 450.4V479.8C757.658 476.6 762.558 475.4 767.458 475.4C779.658 475.4 785.558 483.7 785.558 493.7C785.558 501.1 782.458 506.4 775.958 509.4C778.858 517.2 782.958 524.6 788.458 532H768.958C765.558 526.1 763.058 519.8 761.758 513.6H753.458V515.9C753.458 521.6 753.958 527.1 755.358 532H735.058ZM753.458 502.9H760.658C765.558 502.9 768.558 500.2 768.558 496.1C768.558 492.6 766.358 489.8 762.258 489.8C757.558 489.8 753.458 493.5 753.458 501V502.9ZM793.952 532C795.352 527.1 795.852 521.6 795.852 515.9V494.5C795.852 488.8 795.052 483.4 792.852 478.8L810.752 475.6V484.1C813.552 478.4 817.952 475.4 823.652 475.4C830.352 475.4 836.252 479.7 836.252 488.2C836.252 496.5 830.752 500.6 822.652 500.6C824.452 493.7 822.052 490.6 818.452 490.6C813.152 490.6 812.352 497.1 812.352 507.3V515.9C812.352 521.6 813.152 527.1 815.252 532H793.952ZM841.673 533.6C835.373 533.6 830.673 528.7 830.673 522.6C830.673 516.5 835.373 511.6 841.673 511.6C847.973 511.6 852.673 516.5 852.673 522.6C852.673 528.7 847.973 533.6 841.673 533.6ZM58.6 644C60 639.1 60.5 633.6 60.5 627.9V606.5C60.5 600.8 59.7 595.4 57.5 590.8L77 587.4V627.9C77 633.6 77.5 639.1 78.9 644H58.6ZM68.2 580.8C60.9 580.8 57.9 576 57.9 571.6C57.9 567.2 60.9 562.4 68.2 562.4C75.5 562.4 78.5 567.2 78.5 571.6C78.5 576 75.5 580.8 68.2 580.8ZM106.166 644C107.566 639.1 108.066 633.6 108.066 627.9V580.1C108.066 574.4 107.566 568.9 106.166 564H127.566C126.166 568.9 125.666 574.4 125.666 580.1V596.2C132.966 587.1 139.866 575.2 141.566 564H161.566C157.866 575.6 152.866 584.3 143.466 594.7C154.066 596.9 158.666 606.1 159.666 617.1L160.766 628.7C161.366 635.2 163.366 639.8 166.866 644H146.066C143.966 639.4 143.266 635.3 142.966 631.1L142.166 617.8C141.766 611.5 138.866 608.4 134.066 608.4C129.266 608.4 125.666 611.5 125.666 617.9V627.9C125.666 633.6 126.366 639.1 128.166 644H106.166ZM171.679 644C173.079 639.1 173.579 633.6 173.579 627.9V581.7C173.579 576 172.779 570.6 170.579 566L190.079 562.4V627.9C190.079 633.6 190.579 639.1 191.979 644H171.679ZM216.134 645.6C205.134 645.6 197.734 638.8 197.734 628.5C197.734 618 205.434 612.7 217.034 612.7C222.134 612.7 226.234 613.8 229.134 615.7V609.3C229.134 604.2 226.034 601.9 221.834 601.9C218.034 601.9 214.734 603.8 214.734 607.6C214.734 608.5 214.934 609.6 215.234 610.5C208.534 611.9 200.734 608.7 200.734 600.9C200.734 591.9 211.034 587.4 221.934 587.4C235.934 587.4 245.634 595 245.634 606.9V627.3C245.634 633.5 247.234 638.6 250.734 642.3C247.834 644.2 244.434 645.6 240.734 645.6C236.634 645.6 232.934 644 231.134 639.1C227.934 643.1 222.834 645.6 216.134 645.6ZM221.934 632.9C226.434 632.9 229.734 630.9 229.734 627.6C229.734 624.3 226.434 622.4 221.934 622.4C217.434 622.4 214.234 624.3 214.234 627.6C214.234 630.9 217.434 632.9 221.934 632.9ZM274.891 645.6C263.491 645.6 253.591 640 253.591 631.1C253.591 623.2 261.591 620.3 268.391 621.7C267.991 622.7 267.791 624 267.791 625C267.791 629.1 270.991 631.6 274.891 631.6C278.491 631.6 281.091 629.5 281.091 626.5C281.091 623.1 277.891 621.4 273.591 620.4L267.791 619.1C260.591 617.5 254.291 613 254.291 604C254.291 594.9 260.791 587.4 275.591 587.4C282.291 587.4 289.491 588.9 293.991 592.3V609.1C289.191 604.3 281.491 601.5 275.491 601.5C272.191 601.5 270.491 602.3 270.491 604.1C270.491 605.8 271.991 606.4 275.491 607.2L280.891 608.5C288.991 610.5 297.591 614.7 297.591 626.1C297.591 637.9 288.091 645.6 274.891 645.6ZM323.72 645.6C312.32 645.6 302.42 640 302.42 631.1C302.42 623.2 310.42 620.3 317.22 621.7C316.82 622.7 316.62 624 316.62 625C316.62 629.1 319.82 631.6 323.72 631.6C327.32 631.6 329.92 629.5 329.92 626.5C329.92 623.1 326.72 621.4 322.42 620.4L316.62 619.1C309.42 617.5 303.12 613 303.12 604C303.12 594.9 309.62 587.4 324.42 587.4C331.12 587.4 338.32 588.9 342.82 592.3V609.1C338.02 604.3 330.32 601.5 324.32 601.5C321.02 601.5 319.32 602.3 319.32 604.1C319.32 605.8 320.82 606.4 324.32 607.2L329.72 608.5C337.82 610.5 346.42 614.7 346.42 626.1C346.42 637.9 336.92 645.6 323.72 645.6ZM376.748 645.6C360.348 645.6 351.248 632.7 351.248 616.4C351.248 601.1 359.148 587.4 375.848 587.4C390.348 587.4 397.348 597.6 397.948 612.8L369.248 622.5C371.448 628.3 376.248 630.3 382.048 630.3C387.648 630.3 392.748 628.4 396.648 624.9C398.048 634.2 392.248 645.6 376.748 645.6ZM368.148 612.5L382.748 607.5C382.248 604.6 380.148 601.6 376.148 601.6C371.048 601.6 368.548 606.4 368.148 612.5ZM403.612 644C405.013 639.1 405.513 633.6 405.513 627.9V581.7C405.513 576 404.713 570.6 402.513 566L422.013 562.4V627.9C422.013 633.6 422.513 639.1 423.913 644H403.612ZM455.368 645.6C436.768 645.6 429.568 632.5 429.568 616.5C429.568 600.5 436.768 587.4 455.368 587.4C473.968 587.4 481.168 600.5 481.168 616.5C481.168 632.5 473.968 645.6 455.368 645.6ZM455.368 630.3C461.068 630.3 464.168 625 464.168 616.5C464.168 608 461.068 602.7 455.368 602.7C449.668 602.7 446.568 608 446.568 616.5C446.568 625 449.668 630.3 455.368 630.3ZM503.613 645.6C498.013 645.6 492.413 642.4 492.413 631.3V604.1C490.713 604.1 487.313 604.3 485.413 605C484.613 602.5 484.213 600.2 484.213 598.1C484.213 592.1 487.513 589 492.813 589C492.813 585.8 491.913 583.3 491.913 581.1C491.913 576.3 496.413 572.5 503.213 572.5C505.713 572.5 508.013 573 510.113 573.7C509.213 578.5 508.913 583.5 508.913 589H521.713C521.713 585.8 520.813 583.3 520.813 581.1C520.813 576.3 525.313 572.5 532.113 572.5C534.613 572.5 536.913 573 539.013 573.7C538.113 578.5 537.813 583.5 537.813 589C541.613 589 545.613 588.5 548.913 587.4C549.513 589.8 549.713 591.9 549.713 593.6C549.713 600.8 546.313 604.1 540.213 604.1H537.813V627.3C537.813 633.5 539.413 638.6 542.913 642.3C539.813 644.3 536.113 645.6 532.513 645.6C526.913 645.6 521.313 642.4 521.313 631.3V604.1H508.913V627.3C508.913 633.5 510.513 638.6 514.013 642.3C510.913 644.3 507.213 645.6 503.613 645.6ZM576.455 645.6C560.055 645.6 550.955 632.7 550.955 616.4C550.955 601.1 558.855 587.4 575.555 587.4C590.055 587.4 597.055 597.6 597.655 612.8L568.955 622.5C571.155 628.3 575.955 630.3 581.755 630.3C587.355 630.3 592.455 628.4 596.355 624.9C597.755 634.2 591.955 645.6 576.455 645.6ZM567.855 612.5L582.455 607.5C581.955 604.6 579.855 601.6 575.855 601.6C570.755 601.6 568.255 606.4 567.855 612.5ZM603.62 644C605.02 639.1 605.52 633.6 605.52 627.9V606.5C605.52 600.8 604.72 595.4 602.52 590.8L620.42 587.6V596.1C623.22 590.4 627.62 587.4 633.32 587.4C640.02 587.4 645.92 591.7 645.92 600.2C645.92 608.5 640.42 612.6 632.32 612.6C634.12 605.7 631.72 602.6 628.12 602.6C622.82 602.6 622.02 609.1 622.02 619.3V627.9C622.02 633.6 622.82 639.1 624.92 644H603.62ZM650.202 644C651.602 639.1 652.102 633.6 652.102 627.9V606.5C652.102 600.8 651.302 595.4 649.102 590.8L668.602 587.4V627.9C668.602 633.6 669.102 639.1 670.502 644H650.202ZM659.802 580.8C652.502 580.8 649.502 576 649.502 571.6C649.502 567.2 652.502 562.4 659.802 562.4C667.102 562.4 670.102 567.2 670.102 571.6C670.102 576 667.102 580.8 659.802 580.8ZM701.748 645.6C685.348 645.6 676.248 632.7 676.248 616.4C676.248 601.1 684.148 587.4 700.848 587.4C715.348 587.4 722.348 597.6 722.948 612.8L694.248 622.5C696.448 628.3 701.248 630.3 707.048 630.3C712.648 630.3 717.748 628.4 721.648 624.9C723.048 634.2 717.248 645.6 701.748 645.6ZM693.148 612.5L707.748 607.5C707.248 604.6 705.148 601.6 701.148 601.6C696.048 601.6 693.548 606.4 693.148 612.5ZM745.313 645.6C739.713 645.6 734.113 642.4 734.113 631.3V604.1C732.413 604.1 729.013 604.3 727.113 605C726.313 602.5 725.913 600.2 725.913 598.1C725.913 592.1 729.213 589 734.513 589C734.513 585.8 733.613 583.3 733.613 581.1C733.613 576.3 738.113 572.5 744.913 572.5C747.413 572.5 749.713 573 751.813 573.7C750.913 578.5 750.613 583.5 750.613 589C754.413 589 758.413 588.5 761.713 587.4C762.313 589.8 762.513 591.9 762.513 593.6C762.513 600.8 759.113 604.1 753.013 604.1H750.613V627.3C750.613 633.5 752.213 638.6 755.713 642.3C752.613 644.3 748.913 645.6 745.313 645.6Z" fill="#FFF0D3"/>
<path d="M60.134 723.468C57.924 723.468 56.258 721.7 56.258 719.32C56.258 716.294 58.876 714.186 58.876 711.568C58.876 710.888 58.706 710.208 58.264 709.46C60.27 708.916 62.718 709.562 62.718 712.01C62.718 713.744 61.494 714.866 60.236 715.988C62.276 716.022 63.874 717.688 63.874 719.728C63.874 721.802 62.276 723.468 60.134 723.468ZM69.416 723.468C67.206 723.468 65.54 721.7 65.54 719.32C65.54 716.294 68.158 714.186 68.158 711.568C68.158 710.888 67.988 710.208 67.546 709.46C69.552 708.916 72 709.562 72 712.01C72 713.744 70.776 714.866 69.518 715.988C71.558 716.022 73.156 717.688 73.156 719.728C73.156 721.802 71.558 723.468 69.416 723.468ZM78.4398 737.544C73.2718 737.544 70.4158 734.178 70.4158 730.744C70.4158 727.616 72.7958 726.12 75.1758 726.12C75.6858 726.12 76.1278 726.188 76.5358 726.29C76.2978 726.766 76.0598 727.582 76.0598 728.636C76.0598 730.676 76.8758 731.968 78.4398 731.968C79.9358 731.968 80.8198 730.778 80.8198 727.922V715.274C80.8198 713.336 80.6158 711.466 79.9698 709.8H87.4498C86.9738 711.466 86.8038 713.336 86.8038 715.274V728.296C86.8038 734.076 83.5738 737.544 78.4398 737.544ZM97.9215 737.544C92.3455 737.544 89.2515 733.158 89.2515 727.616C89.2515 722.414 91.9375 717.756 97.6155 717.756C102.546 717.756 104.926 721.224 105.13 726.392L95.3715 729.69C96.1195 731.662 97.7515 732.342 99.7235 732.342C101.628 732.342 103.362 731.696 104.688 730.506C105.164 733.668 103.192 737.544 97.9215 737.544ZM94.9975 726.29L99.9615 724.59C99.7915 723.604 99.0775 722.584 97.7175 722.584C95.9835 722.584 95.1335 724.216 94.9975 726.29ZM118.986 744.344C119.122 742.304 117.15 741.624 114.838 741.08L112.254 740.502C109.84 739.924 107.732 739.04 107.732 736.592C107.732 734.994 108.616 733.838 110.384 733.158C108.004 731.628 107.018 728.874 107.018 726.086C107.018 722.21 108.922 718.402 113.784 717.824C113.512 716.634 113.24 715.036 113.24 713.71C113.24 710.412 115.042 709.256 116.708 709.256C118.34 709.256 119.734 710.378 119.734 712.214C119.734 714.832 116.946 715.24 116.776 717.892C121.4 718.606 123.202 722.312 123.202 726.086C123.202 730.302 120.958 734.416 115.11 734.416C114.124 734.416 113.308 734.552 113.308 735.266C113.308 735.81 113.784 736.116 115.11 736.286L119.156 736.728C121.944 737.034 124.086 738.156 124.086 740.468C124.086 743.426 120.652 744.31 118.986 744.344ZM115.11 729.384C116.776 729.384 117.694 727.922 117.694 726.086C117.694 724.25 116.776 722.788 115.11 722.788C113.444 722.788 112.526 724.25 112.526 726.086C112.526 727.922 113.444 729.384 115.11 729.384ZM131.991 737C132.467 735.334 132.637 733.464 132.637 731.526V715.818C132.637 713.88 132.365 712.044 131.617 710.48L138.247 709.256V719.932C139.131 718.538 140.525 717.756 142.565 717.756C146.883 717.756 148.277 721.156 148.277 725.168V731.526C148.277 733.464 148.447 735.334 148.923 737H142.021C142.497 735.334 142.667 733.464 142.667 731.526V725.678C142.667 723.978 142.123 722.924 140.831 722.924C138.961 722.924 138.247 725.134 138.247 727.922V731.526C138.247 733.464 138.417 735.334 138.893 737H131.991ZM157.034 737.544C153.294 737.544 150.778 735.232 150.778 731.73C150.778 728.16 153.396 726.358 157.34 726.358C159.074 726.358 160.468 726.732 161.454 727.378V725.202C161.454 723.468 160.4 722.686 158.972 722.686C157.68 722.686 156.558 723.332 156.558 724.624C156.558 724.93 156.626 725.304 156.728 725.61C154.45 726.086 151.798 724.998 151.798 722.346C151.798 719.286 155.3 717.756 159.006 717.756C163.766 717.756 167.064 720.34 167.064 724.386V731.322C167.064 733.43 167.608 735.164 168.798 736.422C167.812 737.068 166.656 737.544 165.398 737.544C164.004 737.544 162.746 737 162.134 735.334C161.046 736.694 159.312 737.544 157.034 737.544ZM159.006 733.226C160.536 733.226 161.658 732.546 161.658 731.424C161.658 730.302 160.536 729.656 159.006 729.656C157.476 729.656 156.388 730.302 156.388 731.424C156.388 732.546 157.476 733.226 159.006 733.226ZM170.177 737C170.653 735.334 170.823 733.464 170.823 731.526V724.25C170.823 722.312 170.551 720.476 169.803 718.912L175.889 717.824V720.714C176.841 718.776 178.337 717.756 180.275 717.756C182.553 717.756 184.559 719.218 184.559 722.108C184.559 724.93 182.689 726.324 179.935 726.324C180.547 723.978 179.731 722.924 178.507 722.924C176.705 722.924 176.433 725.134 176.433 728.602V731.526C176.433 733.464 176.705 735.334 177.419 737H170.177ZM199.622 737.544C194.862 737.544 192.414 733.09 192.414 727.65C192.414 722.21 194.862 717.756 199.622 717.756C201.39 717.756 202.886 718.334 203.974 719.626V715.818C203.974 713.88 203.702 712.044 202.954 710.48L209.584 709.256V731.322C209.584 733.43 210.128 735.164 211.318 736.422C210.332 737.068 209.176 737.544 207.918 737.544C206.422 737.544 205.028 736.83 204.518 734.926C203.43 736.694 201.696 737.544 199.622 737.544ZM201.152 732.342C203.022 732.342 204.042 730.54 204.042 727.65C204.042 724.76 203.022 722.958 201.152 722.958C199.248 722.958 198.194 724.76 198.194 727.65C198.194 730.54 199.248 732.342 201.152 732.342ZM221.039 737.544C215.463 737.544 212.369 733.158 212.369 727.616C212.369 722.414 215.055 717.756 220.733 717.756C225.663 717.756 228.043 721.224 228.247 726.392L218.489 729.69C219.237 731.662 220.869 732.342 222.841 732.342C224.745 732.342 226.479 731.696 227.805 730.506C228.281 733.668 226.309 737.544 221.039 737.544ZM218.115 726.29L223.079 724.59C222.909 723.604 222.195 722.584 220.835 722.584C219.101 722.584 218.251 724.216 218.115 726.29ZM235.851 737.544C233.947 737.544 232.043 736.456 232.043 732.682V723.434C231.465 723.434 230.309 723.502 229.663 723.74C229.391 722.89 229.255 722.108 229.255 721.394C229.255 719.354 230.377 718.3 232.179 718.3C232.179 717.212 231.873 716.362 231.873 715.614C231.873 713.982 233.403 712.69 235.715 712.69C236.565 712.69 237.347 712.86 238.061 713.098C237.755 714.73 237.653 716.43 237.653 718.3C238.945 718.3 240.305 718.13 241.427 717.756C241.631 718.572 241.699 719.286 241.699 719.864C241.699 722.312 240.543 723.434 238.469 723.434H237.653V731.322C237.653 733.43 238.197 735.164 239.387 736.422C238.333 737.102 237.075 737.544 235.851 737.544ZM249.862 737C250.338 735.334 250.508 733.464 250.508 731.526V715.818C250.508 713.88 250.236 712.044 249.488 710.48L256.118 709.256V731.526C256.118 733.464 256.288 735.334 256.764 737H249.862ZM259.095 737C259.571 735.334 259.741 733.464 259.741 731.526V724.25C259.741 722.312 259.469 720.476 258.721 718.912L265.351 717.756V731.526C265.351 733.464 265.521 735.334 265.997 737H259.095ZM262.359 715.512C259.877 715.512 258.857 713.88 258.857 712.384C258.857 710.888 259.877 709.256 262.359 709.256C264.841 709.256 265.861 710.888 265.861 712.384C265.861 713.88 264.841 715.512 262.359 715.512ZM280.021 744.344C280.157 742.304 278.185 741.624 275.873 741.08L273.289 740.502C270.875 739.924 268.767 739.04 268.767 736.592C268.767 734.994 269.651 733.838 271.419 733.158C269.039 731.628 268.053 728.874 268.053 726.086C268.053 722.21 269.957 718.402 274.819 717.824C274.547 716.634 274.275 715.036 274.275 713.71C274.275 710.412 276.077 709.256 277.743 709.256C279.375 709.256 280.769 710.378 280.769 712.214C280.769 714.832 277.981 715.24 277.811 717.892C282.435 718.606 284.237 722.312 284.237 726.086C284.237 730.302 281.993 734.416 276.145 734.416C275.159 734.416 274.343 734.552 274.343 735.266C274.343 735.81 274.819 736.116 276.145 736.286L280.191 736.728C282.979 737.034 285.121 738.156 285.121 740.468C285.121 743.426 281.687 744.31 280.021 744.344ZM276.145 729.384C277.811 729.384 278.729 727.922 278.729 726.086C278.729 724.25 277.811 722.788 276.145 722.788C274.479 722.788 273.561 724.25 273.561 726.086C273.561 727.922 274.479 729.384 276.145 729.384ZM294.75 737.544C289.174 737.544 286.08 733.158 286.08 727.616C286.08 722.414 288.766 717.756 294.444 717.756C299.374 717.756 301.754 721.224 301.958 726.392L292.2 729.69C292.948 731.662 294.58 732.342 296.552 732.342C298.456 732.342 300.19 731.696 301.516 730.506C301.992 733.668 300.02 737.544 294.75 737.544ZM291.826 726.29L296.79 724.59C296.62 723.604 295.906 722.584 294.546 722.584C292.812 722.584 291.962 724.216 291.826 726.29ZM310.82 737.544C306.944 737.544 303.578 735.64 303.578 732.614C303.578 729.928 306.298 728.942 308.61 729.418C308.474 729.758 308.406 730.2 308.406 730.54C308.406 731.934 309.494 732.784 310.82 732.784C312.044 732.784 312.928 732.07 312.928 731.05C312.928 729.894 311.84 729.316 310.378 728.976L308.406 728.534C305.958 727.99 303.816 726.46 303.816 723.4C303.816 720.306 306.026 717.756 311.058 717.756C313.336 717.756 315.784 718.266 317.314 719.422V725.134C315.682 723.502 313.064 722.55 311.024 722.55C309.902 722.55 309.324 722.822 309.324 723.434C309.324 724.012 309.834 724.216 311.024 724.488L312.86 724.93C315.614 725.61 318.538 727.038 318.538 730.914C318.538 734.926 315.308 737.544 310.82 737.544ZM328.951 737.544C322.627 737.544 320.179 733.09 320.179 727.65C320.179 722.21 322.627 717.756 328.951 717.756C335.275 717.756 337.723 722.21 337.723 727.65C337.723 733.09 335.275 737.544 328.951 737.544ZM328.951 732.342C330.889 732.342 331.943 730.54 331.943 727.65C331.943 724.76 330.889 722.958 328.951 722.958C327.013 722.958 325.959 724.76 325.959 727.65C325.959 730.54 327.013 732.342 328.951 732.342ZM339.779 737C340.255 735.334 340.425 733.464 340.425 731.526V724.25C340.425 722.312 340.153 720.476 339.405 718.912L345.491 717.824V720.442C346.443 718.64 347.973 717.756 350.251 717.756C352.835 717.756 354.297 718.946 355.079 720.816C355.997 718.81 357.561 717.756 360.009 717.756C364.327 717.756 365.551 721.156 365.551 725.168V731.526C365.551 733.464 365.721 735.334 366.197 737H359.295C359.771 735.334 359.941 733.464 359.941 731.526V725.678C359.941 723.978 359.397 722.924 358.105 722.924C356.235 722.924 355.793 725.134 355.793 727.922V731.526C355.793 733.464 355.963 735.334 356.439 737H349.537C350.013 735.334 350.183 733.464 350.183 731.526V725.678C350.183 723.978 349.639 722.924 348.347 722.924C346.477 722.924 346.035 725.134 346.035 727.922V731.526C346.035 733.464 346.205 735.334 346.681 737H339.779ZM382.448 737.544C377.28 737.544 374.424 734.178 374.424 730.744C374.424 727.616 376.804 726.12 379.184 726.12C379.694 726.12 380.136 726.188 380.544 726.29C380.306 726.766 380.068 727.582 380.068 728.636C380.068 730.676 380.884 731.968 382.448 731.968C383.944 731.968 384.828 730.778 384.828 727.922V715.274C384.828 713.336 384.624 711.466 383.978 709.8H391.458C390.982 711.466 390.812 713.336 390.812 715.274V728.296C390.812 734.076 387.582 737.544 382.448 737.544ZM402.031 737.544C395.707 737.544 393.259 733.09 393.259 727.65C393.259 722.21 395.707 717.756 402.031 717.756C408.355 717.756 410.803 722.21 410.803 727.65C410.803 733.09 408.355 737.544 402.031 737.544ZM402.031 732.342C403.969 732.342 405.023 730.54 405.023 727.65C405.023 724.76 403.969 722.958 402.031 722.958C400.093 722.958 399.039 724.76 399.039 727.65C399.039 730.54 400.093 732.342 402.031 732.342ZM418.741 737.544C415.001 737.544 412.485 735.232 412.485 731.73C412.485 728.16 415.103 726.358 419.047 726.358C420.781 726.358 422.175 726.732 423.161 727.378V725.202C423.161 723.468 422.107 722.686 420.679 722.686C419.387 722.686 418.265 723.332 418.265 724.624C418.265 724.93 418.333 725.304 418.435 725.61C416.157 726.086 413.505 724.998 413.505 722.346C413.505 719.286 417.007 717.756 420.713 717.756C425.473 717.756 428.771 720.34 428.771 724.386V731.322C428.771 733.43 429.315 735.164 430.505 736.422C429.519 737.068 428.363 737.544 427.105 737.544C425.711 737.544 424.453 737 423.841 735.334C422.753 736.694 421.019 737.544 418.741 737.544ZM420.713 733.226C422.243 733.226 423.365 732.546 423.365 731.424C423.365 730.302 422.243 729.656 420.713 729.656C419.183 729.656 418.095 730.302 418.095 731.424C418.095 732.546 419.183 733.226 420.713 733.226ZM431.782 737C432.258 735.334 432.428 733.464 432.428 731.526V715.818C432.428 713.88 432.156 712.044 431.408 710.48L438.038 709.256V719.252C439.466 718.164 441.132 717.756 442.798 717.756C446.946 717.756 448.952 720.578 448.952 723.978C448.952 726.494 447.898 728.296 445.688 729.316C446.674 731.968 448.068 734.484 449.938 737H443.308C442.152 734.994 441.302 732.852 440.86 730.744H438.038V731.526C438.038 733.464 438.208 735.334 438.684 737H431.782ZM438.038 727.106H440.486C442.152 727.106 443.172 726.188 443.172 724.794C443.172 723.604 442.424 722.652 441.03 722.652C439.432 722.652 438.038 723.91 438.038 726.46V727.106ZM451.806 737C452.282 735.334 452.452 733.464 452.452 731.526V724.25C452.452 722.312 452.18 720.476 451.432 718.912L458.062 717.756V731.526C458.062 733.464 458.232 735.334 458.708 737H451.806ZM455.07 715.512C452.588 715.512 451.568 713.88 451.568 712.384C451.568 710.888 452.588 709.256 455.07 709.256C457.552 709.256 458.572 710.888 458.572 712.384C458.572 713.88 457.552 715.512 455.07 715.512ZM461.07 737C461.546 735.334 461.716 733.464 461.716 731.526V724.25C461.716 722.312 461.444 720.476 460.696 718.912L466.782 717.824V720.442C467.734 718.64 469.264 717.756 471.542 717.756C474.126 717.756 475.588 718.946 476.37 720.816C477.288 718.81 478.852 717.756 481.3 717.756C485.618 717.756 486.842 721.156 486.842 725.168V731.526C486.842 733.464 487.012 735.334 487.488 737H480.586C481.062 735.334 481.232 733.464 481.232 731.526V725.678C481.232 723.978 480.688 722.924 479.396 722.924C477.526 722.924 477.084 725.134 477.084 727.922V731.526C477.084 733.464 477.254 735.334 477.73 737H470.828C471.304 735.334 471.474 733.464 471.474 731.526V725.678C471.474 723.978 470.93 722.924 469.638 722.924C467.768 722.924 467.326 725.134 467.326 727.922V731.526C467.326 733.464 467.496 735.334 467.972 737H461.07ZM501.427 737L497.449 723.638C496.905 721.768 496.225 719.966 495.409 718.3H502.821C502.447 719.626 502.583 721.088 502.957 722.584L505.031 730.37L507.275 722.584C507.683 721.088 507.853 719.626 507.479 718.3H514.517C513.701 719.966 513.021 721.768 512.409 723.604L508.091 737H501.427ZM523.19 737.544C516.866 737.544 514.418 733.09 514.418 727.65C514.418 722.21 516.866 717.756 523.19 717.756C529.514 717.756 531.962 722.21 531.962 727.65C531.962 733.09 529.514 737.544 523.19 737.544ZM523.19 732.342C525.128 732.342 526.182 730.54 526.182 727.65C526.182 724.76 525.128 722.958 523.19 722.958C521.252 722.958 520.198 724.76 520.198 727.65C520.198 730.54 521.252 732.342 523.19 732.342ZM534.017 737C534.493 735.334 534.663 733.464 534.663 731.526V724.25C534.663 722.312 534.391 720.476 533.643 718.912L539.729 717.824V720.544C540.681 718.708 542.279 717.756 544.591 717.756C548.909 717.756 550.303 721.156 550.303 725.168V731.526C550.303 733.464 550.473 735.334 550.949 737H544.047C544.523 735.334 544.693 733.464 544.693 731.526V725.678C544.693 723.978 544.149 722.924 542.857 722.924C540.987 722.924 540.273 725.134 540.273 727.922V731.526C540.273 733.464 540.443 735.334 540.919 737H534.017ZM558.961 737C559.641 735.64 560.185 734.144 560.627 732.614L567.427 709.8H575.009L581.843 732.614C582.285 734.144 582.829 735.64 583.441 737H575.689C576.063 735.334 575.825 733.532 575.315 731.662L575.043 730.744H566.951L566.679 731.662C566.135 733.498 565.931 735.334 566.305 737H558.961ZM568.447 725.508H573.547L570.963 716.6L568.447 725.508ZM584.851 737C585.327 735.334 585.497 733.464 585.497 731.526V724.25C585.497 722.312 585.225 720.476 584.477 718.912L590.563 717.824V720.544C591.515 718.708 593.113 717.756 595.425 717.756C599.743 717.756 601.137 721.156 601.137 725.168V731.526C601.137 733.464 601.307 735.334 601.783 737H594.881C595.357 735.334 595.527 733.464 595.527 731.526V725.678C595.527 723.978 594.983 722.924 593.691 722.924C591.821 722.924 591.107 725.134 591.107 727.922V731.526C591.107 733.464 591.277 735.334 591.753 737H584.851ZM610.842 737.544C606.082 737.544 603.634 733.09 603.634 727.65C603.634 722.21 606.082 717.756 610.842 717.756C612.61 717.756 614.106 718.334 615.194 719.626V715.818C615.194 713.88 614.922 712.044 614.174 710.48L620.804 709.256V731.322C620.804 733.43 621.348 735.164 622.538 736.422C621.552 737.068 620.396 737.544 619.138 737.544C617.642 737.544 616.248 736.83 615.738 734.926C614.65 736.694 612.916 737.544 610.842 737.544ZM612.372 732.342C614.242 732.342 615.262 730.54 615.262 727.65C615.262 724.76 614.242 722.958 612.372 722.958C610.468 722.958 609.414 724.76 609.414 727.65C609.414 730.54 610.468 732.342 612.372 732.342ZM629.641 723.23C627.635 723.774 625.187 723.128 625.187 720.68C625.187 718.946 626.411 717.824 627.669 716.702C625.629 716.668 624.031 715.002 624.031 712.962C624.031 710.888 625.629 709.222 627.771 709.222C629.981 709.222 631.647 710.99 631.647 713.37C631.647 716.396 629.029 718.504 629.029 721.122C629.029 721.802 629.199 722.482 629.641 723.23ZM638.923 723.23C636.917 723.774 634.469 723.128 634.469 720.68C634.469 718.946 635.693 717.824 636.951 716.702C634.911 716.668 633.313 715.002 633.313 712.962C633.313 710.888 634.911 709.222 637.053 709.222C639.263 709.222 640.929 710.99 640.929 713.37C640.929 716.396 638.311 718.504 638.311 721.122C638.311 721.802 638.481 722.482 638.923 723.23Z" fill="#5F141E"/>
</svg>
