<svg width="1080" height="1080" viewBox="0 0 1080 1080" fill="none" xmlns="http://www.w3.org/2000/svg">
<rect width="1080" height="1080" fill="#F41116"/>
<path fill-rule="evenodd" clip-rule="evenodd" d="M366.866 84.413C370.059 78.5269 372.691 71.8 373.755 66.0829C376.108 66.4193 378.629 66.5874 381.373 66.5874C384.51 66.5874 386.919 66.3635 389.047 66.0271C389.999 70.623 387.814 75.3317 382.045 75.3317C381.597 75.3317 381.149 75.2754 380.701 75.2193C379.525 78.246 378.18 80.9373 376.669 83.3474C383.558 85.2529 388.879 90.5225 388.879 99.2665C388.879 108.067 383.614 113 377.844 113C374.54 113 372.075 111.374 370.955 108.964C374.932 108.403 379.469 105.601 379.469 100.107C379.469 94.278 374.316 90.2983 366.866 89.9619V102.406C366.866 105.601 367.146 108.684 367.931 111.43H356.56C357.344 108.684 357.624 105.601 357.624 102.406V76.229C357.624 73.0342 357.232 70.0071 356 67.4283L366.866 65.6907V84.413ZM417.953 79.7041C425.571 79.7042 431.004 83.7965 431.004 90.5787V102.125C431.004 105.601 431.956 108.516 433.86 110.533C432.348 111.542 430.499 112.327 428.539 112.327C426.299 112.327 424.283 111.374 423.33 108.572C421.538 110.87 418.625 112.327 414.873 112.327C408.823 112.327 404.567 108.572 404.567 102.742C404.567 96.8002 408.991 93.7733 415.377 93.7733C418.289 93.7733 420.698 94.3905 422.378 95.6232V91.8111C422.378 88.7283 420.473 87.3277 417.897 87.3277C415.545 87.3277 413.64 88.5603 413.64 90.8028C413.64 91.3633 413.752 91.9793 413.92 92.4837C410.391 93.2126 406.19 91.4752 406.19 87.2711C406.19 82.3384 411.848 79.7041 417.953 79.7041ZM446.41 79.7041C450.219 79.7042 454.196 80.6015 456.716 82.563V91.5312C454.028 88.7843 449.771 87.1031 446.354 87.103C444.282 87.103 443.161 87.7198 443.161 88.8963C443.161 89.9615 444.057 90.354 446.13 90.8586L449.322 91.6436C453.972 92.8203 458.621 95.2315 458.621 101.509C458.621 108.235 453.299 112.327 446.074 112.327C439.632 112.327 434.199 109.02 434.199 104.087C434.199 99.771 438.512 98.2021 442.096 98.9301C441.872 99.4907 441.76 100.276 441.76 100.892C441.76 103.471 443.722 104.928 446.074 104.928C448.315 104.928 449.938 103.639 449.938 101.733C449.938 99.6589 448.09 98.6502 445.514 98.0335L442.209 97.2484C438.288 96.3513 434.647 93.8294 434.647 88.8405C434.647 83.7401 438.456 79.7041 446.41 79.7041ZM472.401 79.7041C476.21 79.7042 480.186 80.6015 482.707 82.563V91.5312C480.019 88.7843 475.762 87.1031 472.345 87.103C470.273 87.103 469.152 87.7198 469.152 88.8963C469.152 89.9615 470.049 90.354 472.121 90.8586L475.314 91.6436C479.963 92.8203 484.612 95.2315 484.612 101.509C484.612 108.235 479.291 112.327 472.065 112.327C465.624 112.327 460.191 109.02 460.191 104.087C460.191 99.771 464.503 98.2021 468.087 98.9301C467.864 99.4907 467.752 100.276 467.752 100.892C467.752 103.471 469.713 104.928 472.065 104.928C474.306 104.928 475.929 103.639 475.929 101.733C475.929 99.6589 474.081 98.6502 471.504 98.0335L468.2 97.2484C464.279 96.3513 460.639 93.8294 460.639 88.8405C460.639 83.7401 464.448 79.7041 472.401 79.7041ZM500.186 79.7041C508.083 79.7042 512.06 85.3651 512.396 93.661L495.984 99.3223C497.161 102.91 500.073 104.312 503.49 104.312C506.738 104.312 509.595 103.134 511.724 101.116C512.395 106.217 509.091 112.327 500.745 112.327C491.728 112.327 486.519 105.209 486.519 95.9596C486.519 87.2717 491.111 79.7041 500.186 79.7041ZM542.254 79.7041C552.391 79.7041 556.536 86.9351 556.536 96.0154C556.536 105.096 552.391 112.327 542.254 112.327C532.059 112.327 527.971 105.096 527.971 96.0154C527.971 86.9351 532.059 79.7041 542.254 79.7041ZM583.858 71.3521C585.145 71.3521 586.322 71.6323 587.498 72.0248C586.993 74.7712 586.826 77.6302 586.826 80.6015C588.954 80.6015 591.139 80.3208 593.043 79.7041C593.379 80.9929 593.491 82.0582 593.491 82.9552C593.491 86.7669 591.698 88.5041 588.393 88.5041H586.826V102.125C586.826 105.657 587.777 108.516 589.682 110.533C588.057 111.598 586.098 112.327 584.192 112.327C581.112 112.327 578.199 110.421 578.199 104.255V88.5041H570.862V102.125C570.862 105.657 571.815 108.516 573.719 110.533C572.095 111.598 570.134 112.327 568.174 112.327C565.149 112.327 562.236 110.421 562.236 104.255V88.5041C561.228 88.5042 559.379 88.6163 558.259 89.0087C557.811 87.6639 557.643 86.4866 557.643 85.3655C557.643 82.1706 559.492 80.6016 562.46 80.6015C562.46 78.8075 561.956 77.2938 561.956 76.0044C561.956 73.4263 564.309 71.3521 567.893 71.3521C569.182 71.3521 570.358 71.6323 571.534 72.0248C571.03 74.7712 570.862 77.6302 570.862 80.6015H578.423C578.423 78.8075 577.919 77.2938 577.919 76.0044C577.919 73.4263 580.273 71.3521 583.858 71.3521ZM607.457 79.7041C615.354 79.7041 619.331 85.3651 619.667 93.661L603.257 99.3223C604.433 102.91 607.345 104.312 610.762 104.312C614.01 104.312 616.867 103.134 618.996 101.116C619.667 106.217 616.363 112.327 608.018 112.327C598.999 112.327 593.791 105.209 593.791 95.9596C593.791 87.2718 598.383 79.7042 607.457 79.7041ZM673.893 79.7041C681.791 79.7042 685.768 85.3651 686.104 93.661L669.692 99.3223C670.869 102.91 673.781 104.312 677.197 104.312C680.446 104.312 683.303 103.134 685.431 101.116C686.103 106.217 682.799 112.327 674.453 112.327C665.435 112.327 660.226 105.209 660.226 95.9596C660.226 87.2717 664.819 79.7041 673.893 79.7041ZM697.46 71.3521C698.748 71.3521 699.925 71.6323 701.101 72.0248C700.597 74.7712 700.428 77.6302 700.428 80.6015C702.557 80.6015 704.741 80.3208 706.646 79.7041C706.982 80.9929 707.093 82.0582 707.093 82.9552C707.093 86.7669 705.302 88.5041 701.997 88.5041H700.428V102.125C700.428 105.657 701.381 108.516 703.284 110.533C701.661 111.598 699.7 112.327 697.74 112.327C694.715 112.327 691.803 110.421 691.803 104.255V88.5041C690.795 88.5041 688.945 88.6162 687.826 89.0087C687.378 87.6639 687.21 86.4866 687.21 85.3655C687.21 82.1705 689.058 80.6015 692.027 80.6015C692.027 78.8075 691.523 77.2938 691.523 76.0044C691.523 73.4263 693.875 71.3522 697.46 71.3521ZM656.976 102.406C656.976 105.545 657.256 108.74 657.984 111.431H647.286C648.014 108.74 648.294 105.545 648.294 102.406V90.3548C648.294 87.1598 647.846 84.0769 646.67 81.554L656.976 79.7041V102.406ZM401.765 102.406C401.765 105.545 402.045 108.74 402.773 111.43H392.13C392.859 108.74 393.139 105.545 393.139 102.406V73.9304C393.139 70.7355 392.691 68.045 391.515 65.6349C394.931 65.0182 398.684 64.0652 401.765 63V102.406ZM524.721 102.406C524.721 105.545 525.001 108.74 525.728 111.43H515.086C515.815 108.74 516.094 105.545 516.094 102.406V73.9304C516.094 70.7355 515.646 68.045 514.47 65.6349C517.887 65.0182 521.64 64.0652 524.721 63V102.406ZM638.602 79.7041C642.355 79.7042 645.547 82.1143 645.547 86.7108C645.547 91.1952 642.579 93.3247 638.322 93.3247C639.33 89.5131 637.986 87.664 635.914 87.664C632.833 87.6642 632.217 91.4197 632.217 97.1368V102.406C632.217 105.545 632.61 108.74 633.729 111.43H622.526C623.254 108.74 623.535 105.545 623.535 102.406V90.3541C623.535 87.1592 623.087 84.0762 621.911 81.5533L631.432 79.8165V84.5245C633.001 81.3857 635.41 79.7041 638.602 79.7041ZM417.897 98.986C415.153 98.986 413.248 100.219 413.248 102.294C413.248 104.311 415.153 105.601 417.897 105.601C420.641 105.601 422.658 104.311 422.658 102.294C422.658 100.219 420.641 98.986 417.897 98.986ZM542.254 87.7199C538.837 87.7199 536.931 90.8588 536.931 96.0154C536.931 101.172 538.837 104.312 542.254 104.312C545.67 104.312 547.63 101.172 547.63 96.0154C547.63 90.8588 545.67 87.7199 542.254 87.7199ZM500.353 87.1595C497.273 87.1595 495.704 90.018 495.424 93.8856L504.386 90.8028C504.05 88.8967 502.762 87.1596 500.353 87.1595ZM607.625 87.1595C604.544 87.1596 602.976 90.0181 602.696 93.8856L611.658 90.8028C611.322 88.8966 610.034 87.1595 607.625 87.1595ZM674.061 87.1595C670.981 87.1595 669.412 90.018 669.132 93.8856L678.094 90.8028C677.758 88.8967 676.469 87.1596 674.061 87.1595ZM718.806 65.7473C722.382 65.7473 724.999 68.406 725 71.894C725 75.3819 722.382 78.0938 718.806 78.0938C715.188 78.0938 712.571 75.3556 712.571 71.894C712.571 68.4324 715.226 65.7473 718.806 65.7473ZM718.806 66.9323C715.953 66.9323 713.928 68.9983 713.928 71.894C713.928 74.8291 716.006 76.9088 718.806 76.9088C721.607 76.9088 723.658 74.8028 723.658 71.894C723.658 68.9853 721.66 66.9323 718.806 66.9323ZM652.327 65.7473C656.192 65.7474 657.816 68.2696 657.816 70.6235C657.816 73.0342 656.192 75.5563 652.327 75.5563C648.463 75.5563 646.837 73.0343 646.837 70.6235C646.837 68.2695 648.462 65.7473 652.327 65.7473ZM719.455 68.6472C720.657 68.6473 721.448 69.3888 721.448 70.3989C721.447 71.2425 720.913 71.8181 720.03 72.0099C720.772 72.1761 721.102 72.7256 721.296 73.5694L721.615 74.9373H720.224L720.03 73.7616C719.888 72.8283 719.773 72.6105 718.743 72.6105H717.754V74.9373H716.468V68.6472H719.455ZM717.754 69.6958V71.5619H718.817C719.685 71.5619 720.161 71.2168 720.161 70.5777C720.161 69.9385 719.658 69.6958 718.817 69.6958H717.754Z" fill="#FFF0D3"/>
<path d="M79.1 308L61.3 243.8C59.7 238.3 57.9 232.9 55.5 228H78.2C77.1 231.9 77.5 236.2 78.6 240.6L89.6 284L100.7 240.6C101.8 236.2 102.2 231.9 101 228H122.7C120.3 232.9 118.5 238.3 116.9 243.8L99.1 308H79.1ZM137.033 309.6C126.033 309.6 118.633 302.8 118.633 292.5C118.633 282 126.333 276.7 137.933 276.7C143.033 276.7 147.133 277.8 150.033 279.7V273.3C150.033 268.2 146.933 265.9 142.733 265.9C138.933 265.9 135.633 267.8 135.633 271.6C135.633 272.5 135.833 273.6 136.133 274.5C129.433 275.9 121.633 272.7 121.633 264.9C121.633 255.9 131.933 251.4 142.833 251.4C156.833 251.4 166.533 259 166.533 270.9V291.3C166.533 297.5 168.133 302.6 171.633 306.3C168.733 308.2 165.333 309.6 161.633 309.6C157.533 309.6 153.833 308 152.033 303.1C148.833 307.1 143.733 309.6 137.033 309.6ZM142.833 296.9C147.333 296.9 150.633 294.9 150.633 291.6C150.633 288.3 147.333 286.4 142.833 286.4C138.333 286.4 135.133 288.3 135.133 291.6C135.133 294.9 138.333 296.9 142.833 296.9ZM175.69 308C177.09 303.1 177.59 297.6 177.59 291.9V270.5C177.59 264.8 176.79 259.4 174.59 254.8L192.49 251.6V259.6C195.29 254.2 199.99 251.4 206.79 251.4C219.49 251.4 223.59 261.4 223.59 273.2V291.9C223.59 297.6 224.09 303.1 225.49 308H205.19C206.59 303.1 207.09 297.6 207.09 291.9V274.7C207.09 269.7 205.49 266.6 201.69 266.6C196.19 266.6 194.09 273.1 194.09 281.3V291.9C194.09 297.6 194.59 303.1 195.99 308H175.69ZM252.135 309.6C238.135 309.6 230.935 296.5 230.935 280.5C230.935 264.5 238.135 251.4 252.135 251.4C257.335 251.4 261.735 253.1 264.935 256.9V245.7C264.935 240 264.135 234.6 261.935 230L281.435 226.4V291.3C281.435 297.5 283.035 302.6 286.535 306.3C283.635 308.2 280.235 309.6 276.535 309.6C272.135 309.6 268.035 307.5 266.535 301.9C263.335 307.1 258.235 309.6 252.135 309.6ZM256.635 294.3C262.135 294.3 265.135 289 265.135 280.5C265.135 272 262.135 266.7 256.635 266.7C251.035 266.7 247.935 272 247.935 280.5C247.935 289 251.035 294.3 256.635 294.3ZM306.25 309.6C300.65 309.6 295.05 306.4 295.05 295.3V268.1C293.35 268.1 289.95 268.3 288.05 269C287.25 266.5 286.85 264.2 286.85 262.1C286.85 256.1 290.15 253 295.45 253C295.45 249.8 294.55 247.3 294.55 245.1C294.55 240.3 299.05 236.5 305.85 236.5C308.35 236.5 310.65 237 312.75 237.7C311.85 242.5 311.55 247.5 311.55 253C315.35 253 319.35 252.5 322.65 251.4C323.25 253.8 323.45 255.9 323.45 257.6C323.45 264.8 320.05 268.1 313.95 268.1H311.55V291.3C311.55 297.5 313.15 302.6 316.65 306.3C313.55 308.3 309.85 309.6 306.25 309.6ZM348.06 308C350.06 303.1 350.76 297.6 350.76 291.9V251.5C350.76 245.8 349.66 240.7 346.26 236.8L368.26 226.4V291.9C368.26 297.6 368.96 303.1 370.96 308H348.06ZM395.024 328.8C389.124 330.4 381.924 328.5 381.924 321.3C381.924 316.2 385.524 312.9 389.224 309.6C383.224 309.5 378.524 304.6 378.524 298.6C378.524 292.5 383.224 287.6 389.524 287.6C396.024 287.6 400.924 292.8 400.924 299.8C400.924 308.7 393.224 314.9 393.224 322.6C393.224 324.6 393.724 326.6 395.024 328.8ZM432.545 309.6C415.545 309.6 405.945 299.2 405.945 284.9C405.945 276.1 409.745 268.8 417.045 265.3C410.645 262.1 407.745 255.7 407.745 247.9C407.745 235.9 415.945 226.4 432.545 226.4C449.145 226.4 457.345 235.9 457.345 247.9C457.345 255.7 454.445 262.1 448.045 265.3C455.345 268.8 459.145 276.1 459.145 284.9C459.145 299.2 449.545 309.6 432.545 309.6ZM432.545 293.2C437.645 293.2 440.545 288.7 440.545 282C440.545 275.3 437.745 270.7 432.545 270.7C427.345 270.7 424.545 275.3 424.545 282C424.545 288.7 427.445 293.2 432.545 293.2ZM432.545 259.1C436.845 259.1 439.045 255.6 439.045 250.9C439.045 246.4 436.845 242.8 432.545 242.8C428.245 242.8 426.045 246.4 426.045 250.9C426.045 255.6 428.245 259.1 432.545 259.1ZM485.553 308C486.953 303.1 487.453 297.6 487.453 291.9V270.5C487.453 264.8 486.653 259.4 484.453 254.8L502.353 251.6V259.3C505.153 254 509.653 251.4 516.353 251.4C523.953 251.4 528.253 254.9 530.553 260.4C533.253 254.5 537.853 251.4 545.053 251.4C557.753 251.4 561.353 261.4 561.353 273.2V291.9C561.353 297.6 561.853 303.1 563.253 308H542.953C544.353 303.1 544.853 297.6 544.853 291.9V274.7C544.853 269.7 543.253 266.6 539.453 266.6C533.953 266.6 532.653 273.1 532.653 281.3V291.9C532.653 297.6 533.153 303.1 534.553 308H514.253C515.653 303.1 516.153 297.6 516.153 291.9V274.7C516.153 269.7 514.553 266.6 510.753 266.6C505.253 266.6 503.953 273.1 503.953 281.3V291.9C503.953 297.6 504.453 303.1 505.853 308H485.553ZM569.83 308C571.23 303.1 571.73 297.6 571.73 291.9V270.5C571.73 264.8 570.93 259.4 568.73 254.8L588.23 251.4V291.9C588.23 297.6 588.73 303.1 590.13 308H569.83ZM579.43 244.8C572.13 244.8 569.13 240 569.13 235.6C569.13 231.2 572.13 226.4 579.43 226.4C586.73 226.4 589.73 231.2 589.73 235.6C589.73 240 586.73 244.8 579.43 244.8ZM621.677 309.6C603.077 309.6 595.877 296.5 595.877 280.5C595.877 264.5 603.077 251.4 621.677 251.4C640.277 251.4 647.477 264.5 647.477 280.5C647.477 296.5 640.277 309.6 621.677 309.6ZM621.677 294.3C627.377 294.3 630.477 289 630.477 280.5C630.477 272 627.377 266.7 621.677 266.7C615.977 266.7 612.877 272 612.877 280.5C612.877 289 615.977 294.3 621.677 294.3ZM664.622 309.6C658.322 309.6 653.622 304.7 653.622 298.6C653.622 292.5 658.322 287.6 664.622 287.6C670.922 287.6 675.622 292.5 675.622 298.6C675.622 304.7 670.922 309.6 664.622 309.6ZM702.636 308C704.036 303.1 704.536 297.6 704.536 291.9V245.7C704.536 240 703.736 234.6 701.536 230L721.036 226.4V255.8C725.236 252.6 730.136 251.4 735.036 251.4C747.236 251.4 753.136 259.7 753.136 269.7C753.136 277.1 750.036 282.4 743.536 285.4C746.436 293.2 750.536 300.6 756.036 308H736.536C733.136 302.1 730.636 295.8 729.336 289.6H721.036V291.9C721.036 297.6 721.536 303.1 722.936 308H702.636ZM721.036 278.9H728.236C733.136 278.9 736.136 276.2 736.136 272.1C736.136 268.6 733.936 265.8 729.836 265.8C725.136 265.8 721.036 269.5 721.036 277V278.9ZM761.53 308C762.93 303.1 763.43 297.6 763.43 291.9V270.5C763.43 264.8 762.63 259.4 760.43 254.8L778.33 251.6V260.1C781.13 254.4 785.53 251.4 791.23 251.4C797.93 251.4 803.83 255.7 803.83 264.2C803.83 272.5 798.33 276.6 790.23 276.6C792.03 269.7 789.63 266.6 786.03 266.6C780.73 266.6 779.93 273.1 779.93 283.3V291.9C779.93 297.6 780.73 303.1 782.83 308H761.53ZM809.251 309.6C802.951 309.6 798.251 304.7 798.251 298.6C798.251 292.5 802.951 287.6 809.251 287.6C815.551 287.6 820.251 292.5 820.251 298.6C820.251 304.7 815.551 309.6 809.251 309.6ZM872.165 309.6C853.565 309.6 846.365 296.5 846.365 280.5C846.365 264.5 853.565 251.4 872.165 251.4C890.765 251.4 897.965 264.5 897.965 280.5C897.965 296.5 890.765 309.6 872.165 309.6ZM872.165 294.3C877.865 294.3 880.965 289 880.965 280.5C880.965 272 877.865 266.7 872.165 266.7C866.465 266.7 863.365 272 863.365 280.5C863.365 289 866.465 294.3 872.165 294.3ZM938.798 329.6C939.198 323.6 933.398 321.6 926.598 320L918.998 318.3C911.898 316.6 905.698 314 905.698 306.8C905.698 302.1 908.298 298.7 913.498 296.7C906.498 292.2 903.598 284.1 903.598 275.9C903.598 264.5 909.198 253.3 923.498 251.6C922.698 248.1 921.898 243.4 921.898 239.5C921.898 229.8 927.198 226.4 932.098 226.4C936.898 226.4 940.998 229.7 940.998 235.1C940.998 242.8 932.798 244 932.298 251.8C945.898 253.9 951.198 264.8 951.198 275.9C951.198 288.3 944.598 300.4 927.398 300.4C924.498 300.4 922.098 300.8 922.098 302.9C922.098 304.5 923.498 305.4 927.398 305.9L939.298 307.2C947.498 308.1 953.798 311.4 953.798 318.2C953.798 326.9 943.698 329.5 938.798 329.6ZM927.398 285.6C932.298 285.6 934.998 281.3 934.998 275.9C934.998 270.5 932.298 266.2 927.398 266.2C922.498 266.2 919.798 270.5 919.798 275.9C919.798 281.3 922.498 285.6 927.398 285.6ZM63.8 420C65.2 415.1 65.7 409.6 65.7 403.9V379.9C62.7 380 59.8 380.3 57.4 381C56.3 378.3 55.6 375.8 55.6 373.4C55.6 369.1 57.8 365.8 63.9 365.1C61.6 360.6 60.6 357.3 60.6 354C60.6 344 69.8 338.4 81.3 338.4C90.2 338.4 98.6 341.9 98.6 349.6C98.6 357.2 90.4 358.5 85.4 358.6C85.5 358 85.5 357.6 85.5 357.2C85.5 354.5 84.3 352.8 81.9 352.8C79.9 352.8 77.7 354 77.7 357C77.7 359.3 79.1 362.4 80.9 365H84.4C89 365 92.7 364.5 95.8 363.6C96.4 366 96.7 368.1 96.7 370C96.7 376.5 93.1 380.1 87.1 380.1H82.2V403.9C82.2 409.6 83 415.1 85.1 420H63.8ZM101.6 420C103 415.1 103.5 409.6 103.5 403.9V382.5C103.5 376.8 102.7 371.4 100.5 366.8L120 363.4V403.9C120 409.6 120.5 415.1 121.9 420H101.6ZM111.2 356.8C103.9 356.8 100.9 352 100.9 347.6C100.9 343.2 103.9 338.4 111.2 338.4C118.5 338.4 121.5 343.2 121.5 347.6C121.5 352 118.5 356.8 111.2 356.8ZM128.515 420C129.915 415.1 130.415 409.6 130.415 403.9V357.7C130.415 352 129.615 346.6 127.415 342L146.915 338.4V367.8C151.115 364.6 156.015 363.4 160.915 363.4C173.115 363.4 179.015 371.7 179.015 381.7C179.015 389.1 175.915 394.4 169.415 397.4C172.315 405.2 176.415 412.6 181.915 420H162.415C159.015 414.1 156.515 407.8 155.215 401.6H146.915V403.9C146.915 409.6 147.415 415.1 148.815 420H128.515ZM146.915 390.9H154.115C159.015 390.9 162.015 388.2 162.015 384.1C162.015 380.6 159.815 377.8 155.715 377.8C151.015 377.8 146.915 381.5 146.915 389V390.9ZM238.328 421.6C232.028 421.6 226.828 419 223.628 413.3C222.028 417.3 218.328 420.6 212.328 420.6C210.028 420.6 208.128 420.1 206.628 419.4C208.528 414.9 209.028 409.6 209.028 403.9V357.7C209.028 352 208.228 346.6 206.028 342L225.528 338.4V368.9C228.728 365.1 233.128 363.4 238.328 363.4C252.328 363.4 259.528 376.5 259.528 392.5C259.528 408.5 252.328 421.6 238.328 421.6ZM233.828 406.3C239.428 406.3 242.528 401 242.528 392.5C242.528 384 239.428 378.7 233.828 378.7C228.328 378.7 225.328 384 225.328 392.5C225.328 401 228.328 406.3 233.828 406.3ZM265.534 420C266.934 415.1 267.434 409.6 267.434 403.9V382.5C267.434 376.8 266.634 371.4 264.434 366.8L282.334 363.6V372.1C285.134 366.4 289.534 363.4 295.234 363.4C301.934 363.4 307.834 367.7 307.834 376.2C307.834 384.5 302.334 388.6 294.234 388.6C296.034 381.7 293.634 378.6 290.034 378.6C284.734 378.6 283.934 385.1 283.934 395.3V403.9C283.934 409.6 284.734 415.1 286.834 420H265.534ZM319.916 440C323.016 435.1 325.516 429.8 327.516 424.5L329.116 420.2L315.216 380.6C313.416 375.2 311.216 369.9 308.816 365H331.116C330.016 368.9 330.516 373.2 331.816 377.6L337.816 398.2L344.616 377.5C346.016 373.2 346.616 368.9 345.516 365H366.216C363.816 369.9 361.716 375.2 359.816 380.5L343.116 427.6C341.616 431.9 340.916 436.1 342.116 440H319.916ZM368.359 420C369.759 415.1 370.259 409.6 370.259 403.9V357.7C370.259 352 369.459 346.6 367.259 342L386.759 338.4V403.9C386.759 409.6 387.259 415.1 388.659 420H368.359ZM395.214 420C396.614 415.1 397.114 409.6 397.114 403.9V357.7C397.114 352 396.314 346.6 394.114 342L413.614 338.4V403.9C413.614 409.6 414.114 415.1 415.514 420H395.214ZM440.37 421.6C427.67 421.6 423.57 411.6 423.57 399.8V382.5C423.57 376.8 422.77 371.4 420.57 366.8L440.07 363.4V398.3C440.07 403.3 441.67 406.4 445.47 406.4C450.97 406.4 453.07 399.9 453.07 391.7V382.5C453.07 376.8 452.27 371.4 450.07 366.8L469.57 363.4V403.3C469.57 409.5 471.17 414.6 474.67 418.3C471.77 420.2 468.37 421.6 464.67 421.6C460.17 421.6 456.07 419.6 454.57 413.6C451.67 419 447.17 421.6 440.37 421.6ZM479.401 440C480.801 435.1 481.301 429.6 481.301 423.9V382.5C481.301 376.8 480.501 371.4 478.301 366.8L496.201 363.6V371.2C499.401 365.9 504.501 363.4 510.601 363.4C524.601 363.4 531.801 376.5 531.801 392.5C531.801 408.5 524.601 421.6 510.601 421.6C505.401 421.6 501.001 419.9 497.801 416.1V423.9C497.801 429.6 498.601 435.1 500.701 440H479.401ZM506.101 406.3C511.701 406.3 514.801 401 514.801 392.5C514.801 384 511.701 378.7 506.101 378.7C500.601 378.7 497.601 384 497.601 392.5C497.601 401 500.601 406.3 506.101 406.3ZM557.899 421.6C546.499 421.6 536.599 416 536.599 407.1C536.599 399.2 544.599 396.3 551.399 397.7C550.999 398.7 550.799 400 550.799 401C550.799 405.1 553.999 407.6 557.899 407.6C561.499 407.6 564.099 405.5 564.099 402.5C564.099 399.1 560.899 397.4 556.599 396.4L550.799 395.1C543.599 393.5 537.299 389 537.299 380C537.299 370.9 543.799 363.4 558.599 363.4C565.299 363.4 572.499 364.9 576.999 368.3V385.1C572.199 380.3 564.499 377.5 558.499 377.5C555.199 377.5 553.499 378.3 553.499 380.1C553.499 381.8 554.999 382.4 558.499 383.2L563.899 384.5C571.999 386.5 580.599 390.7 580.599 402.1C580.599 413.9 571.099 421.6 557.899 421.6ZM586.327 420C587.727 415.1 588.227 409.6 588.227 403.9V357.7C588.227 352 587.427 346.6 585.227 342L604.727 338.4V367.8C608.927 364.6 613.827 363.4 618.727 363.4C630.927 363.4 636.827 371.7 636.827 381.7C636.827 389.1 633.727 394.4 627.227 397.4C630.127 405.2 634.227 412.6 639.727 420H620.227C616.827 414.1 614.327 407.8 613.027 401.6H604.727V403.9C604.727 409.6 605.227 415.1 606.627 420H586.327ZM604.727 390.9H611.927C616.827 390.9 619.827 388.2 619.827 384.1C619.827 380.6 617.627 377.8 613.527 377.8C608.827 377.8 604.727 381.5 604.727 389V390.9ZM644.921 420C646.321 415.1 646.821 409.6 646.821 403.9V357.7C646.821 352 646.021 346.6 643.821 342L663.321 338.4V403.9C663.321 409.6 663.821 415.1 665.221 420H644.921ZM696.677 421.6C678.077 421.6 670.877 408.5 670.877 392.5C670.877 376.5 678.077 363.4 696.677 363.4C715.277 363.4 722.477 376.5 722.477 392.5C722.477 408.5 715.277 421.6 696.677 421.6ZM696.677 406.3C702.377 406.3 705.477 401 705.477 392.5C705.477 384 702.377 378.7 696.677 378.7C690.977 378.7 687.877 384 687.877 392.5C687.877 401 690.977 406.3 696.677 406.3ZM728.222 420C729.622 415.1 730.122 409.6 730.122 403.9V357.7C730.122 352 729.322 346.6 727.122 342L746.622 338.4V367.8C750.822 364.6 755.722 363.4 760.622 363.4C772.822 363.4 778.722 371.7 778.722 381.7C778.722 389.1 775.622 394.4 769.122 397.4C772.022 405.2 776.122 412.6 781.622 420H762.122C758.722 414.1 756.222 407.8 754.922 401.6H746.622V403.9C746.622 409.6 747.122 415.1 748.522 420H728.222ZM746.622 390.9H753.822C758.722 390.9 761.722 388.2 761.722 384.1C761.722 380.6 759.522 377.8 755.422 377.8C750.722 377.8 746.622 381.5 746.622 389V390.9ZM786.816 420C788.216 415.1 788.716 409.6 788.716 403.9V357.7C788.716 352 787.916 346.6 785.716 342L805.216 338.4V367.8C809.416 364.6 814.316 363.4 819.216 363.4C831.416 363.4 837.316 371.7 837.316 381.7C837.316 389.1 834.216 394.4 827.716 397.4C830.616 405.2 834.716 412.6 840.216 420H820.716C817.316 414.1 814.816 407.8 813.516 401.6H805.216V403.9C805.216 409.6 805.716 415.1 807.116 420H786.816ZM805.216 390.9H812.416C817.316 390.9 820.316 388.2 820.316 384.1C820.316 380.6 818.116 377.8 814.016 377.8C809.316 377.8 805.216 381.5 805.216 389V390.9ZM868.74 421.6C852.34 421.6 843.24 408.7 843.24 392.4C843.24 377.1 851.14 363.4 867.84 363.4C882.34 363.4 889.34 373.6 889.94 388.8L861.24 398.5C863.44 404.3 868.24 406.3 874.04 406.3C879.64 406.3 884.74 404.4 888.64 400.9C890.04 410.2 884.24 421.6 868.74 421.6ZM860.14 388.5L874.74 383.5C874.24 380.6 872.14 377.6 868.14 377.6C863.04 377.6 860.54 382.4 860.14 388.5ZM895.905 420C897.305 415.1 897.805 409.6 897.805 403.9V382.5C897.805 376.8 897.005 371.4 894.805 366.8L912.705 363.6V372.1C915.505 366.4 919.905 363.4 925.605 363.4C932.305 363.4 938.205 367.7 938.205 376.2C938.205 384.5 932.705 388.6 924.605 388.6C926.405 381.7 924.005 378.6 920.405 378.6C915.105 378.6 914.305 385.1 914.305 395.3V403.9C914.305 409.6 915.105 415.1 917.205 420H895.905ZM942.487 420C943.887 415.1 944.387 409.6 944.387 403.9V382.5C944.387 376.8 943.587 371.4 941.387 366.8L959.287 363.6V371.6C962.087 366.2 966.787 363.4 973.587 363.4C986.287 363.4 990.387 373.4 990.387 385.2V403.9C990.387 409.6 990.887 415.1 992.287 420H971.987C973.387 415.1 973.887 409.6 973.887 403.9V386.7C973.887 381.7 972.287 378.6 968.487 378.6C962.987 378.6 960.887 385.1 960.887 393.3V403.9C960.887 409.6 961.387 415.1 962.787 420H942.487ZM1023.23 421.6C1006.83 421.6 997.732 408.7 997.732 392.4C997.732 377.1 1005.63 363.4 1022.33 363.4C1036.83 363.4 1043.83 373.6 1044.43 388.8L1015.73 398.5C1017.93 404.3 1022.73 406.3 1028.53 406.3C1034.13 406.3 1039.23 404.4 1043.13 400.9C1044.53 410.2 1038.73 421.6 1023.23 421.6ZM1014.63 388.5L1029.23 383.5C1028.73 380.6 1026.63 377.6 1022.63 377.6C1017.53 377.6 1015.03 382.4 1014.63 388.5ZM75 533.6C69.4 533.6 63.8 530.4 63.8 519.3V492.1C62.1 492.1 58.7 492.3 56.8 493C56 490.5 55.6 488.2 55.6 486.1C55.6 480.1 58.9 477 64.2 477C64.2 473.8 63.3 471.3 63.3 469.1C63.3 464.3 67.8 460.5 74.6 460.5C77.1 460.5 79.4 461 81.5 461.7C80.6 466.5 80.3 471.5 80.3 477C84.1 477 88.1 476.5 91.4 475.4C92 477.8 92.2 479.9 92.2 481.6C92.2 488.8 88.8 492.1 82.7 492.1H80.3V515.3C80.3 521.5 81.9 526.6 85.4 530.3C82.3 532.3 78.6 533.6 75 533.6ZM96.4906 532C97.8906 527.1 98.3906 521.6 98.3906 515.9V494.5C98.3906 488.8 97.5906 483.4 95.3906 478.8L114.891 475.4V515.9C114.891 521.6 115.391 527.1 116.791 532H96.4906ZM106.091 468.8C98.7906 468.8 95.7906 464 95.7906 459.6C95.7906 455.2 98.7906 450.4 106.091 450.4C113.391 450.4 116.391 455.2 116.391 459.6C116.391 464 113.391 468.8 106.091 468.8ZM123.437 532C124.837 527.1 125.337 521.6 125.337 515.9V469.7C125.337 464 124.537 458.6 122.337 454L141.837 450.4V515.9C141.837 521.6 142.337 527.1 143.737 532H123.437ZM187.912 533.6C176.912 533.6 169.512 526.8 169.512 516.5C169.512 506 177.212 500.7 188.812 500.7C193.912 500.7 198.012 501.8 200.912 503.7V497.3C200.912 492.2 197.812 489.9 193.612 489.9C189.812 489.9 186.512 491.8 186.512 495.6C186.512 496.5 186.712 497.6 187.012 498.5C180.312 499.9 172.512 496.7 172.512 488.9C172.512 479.9 182.812 475.4 193.712 475.4C207.712 475.4 217.412 483 217.412 494.9V515.3C217.412 521.5 219.012 526.6 222.512 530.3C219.612 532.2 216.212 533.6 212.512 533.6C208.412 533.6 204.712 532 202.912 527.1C199.712 531.1 194.612 533.6 187.912 533.6ZM193.712 520.9C198.212 520.9 201.512 518.9 201.512 515.6C201.512 512.3 198.212 510.4 193.712 510.4C189.212 510.4 186.012 512.3 186.012 515.6C186.012 518.9 189.212 520.9 193.712 520.9ZM241.992 533.6C236.392 533.6 230.792 530.4 230.792 519.3V492.1C229.092 492.1 225.692 492.3 223.792 493C222.992 490.5 222.592 488.2 222.592 486.1C222.592 480.1 225.892 477 231.192 477C231.192 473.8 230.292 471.3 230.292 469.1C230.292 464.3 234.792 460.5 241.592 460.5C244.092 460.5 246.392 461 248.492 461.7C247.592 466.5 247.292 471.5 247.292 477C251.092 477 255.092 476.5 258.392 475.4C258.992 477.8 259.192 479.9 259.192 481.6C259.192 488.8 255.792 492.1 249.692 492.1H247.292V515.3C247.292 521.5 248.892 526.6 252.392 530.3C249.292 532.3 245.592 533.6 241.992 533.6ZM283.502 532C284.902 527.1 285.402 521.6 285.402 515.9V494.5C285.402 488.8 284.602 483.4 282.402 478.8L300.302 475.6V484.1C303.102 478.4 307.502 475.4 313.202 475.4C319.902 475.4 325.802 479.7 325.802 488.2C325.802 496.5 320.302 500.6 312.202 500.6C314.002 493.7 311.602 490.6 308.002 490.6C302.702 490.6 301.902 497.1 301.902 507.3V515.9C301.902 521.6 302.702 527.1 304.802 532H283.502ZM330.084 532C331.484 527.1 331.984 521.6 331.984 515.9V494.5C331.984 488.8 331.184 483.4 328.984 478.8L348.484 475.4V515.9C348.484 521.6 348.984 527.1 350.384 532H330.084ZM339.684 468.8C332.384 468.8 329.384 464 329.384 459.6C329.384 455.2 332.384 450.4 339.684 450.4C346.984 450.4 349.984 455.2 349.984 459.6C349.984 464 346.984 468.8 339.684 468.8ZM357.33 532C358.73 527.1 359.23 521.6 359.23 515.9V494.5C359.23 488.8 358.43 483.4 356.23 478.8L374.13 475.6V483.6C376.93 478.2 381.63 475.4 388.43 475.4C401.13 475.4 405.23 485.4 405.23 497.2V515.9C405.23 521.6 405.73 527.1 407.13 532H386.83C388.23 527.1 388.73 521.6 388.73 515.9V498.7C388.73 493.7 387.13 490.6 383.33 490.6C377.83 490.6 375.73 497.1 375.73 505.3V515.9C375.73 521.6 376.23 527.1 377.63 532H357.33ZM448.076 553.6C448.476 547.6 442.676 545.6 435.876 544L428.276 542.3C421.176 540.6 414.976 538 414.976 530.8C414.976 526.1 417.576 522.7 422.776 520.7C415.776 516.2 412.876 508.1 412.876 499.9C412.876 488.5 418.476 477.3 432.776 475.6C431.976 472.1 431.176 467.4 431.176 463.5C431.176 453.8 436.476 450.4 441.376 450.4C446.176 450.4 450.276 453.7 450.276 459.1C450.276 466.8 442.076 468 441.576 475.8C455.176 477.9 460.476 488.8 460.476 499.9C460.476 512.3 453.876 524.4 436.676 524.4C433.776 524.4 431.376 524.8 431.376 526.9C431.376 528.5 432.776 529.4 436.676 529.9L448.576 531.2C456.776 532.1 463.076 535.4 463.076 542.2C463.076 550.9 452.976 553.5 448.076 553.6ZM436.676 509.6C441.576 509.6 444.276 505.3 444.276 499.9C444.276 494.5 441.576 490.2 436.676 490.2C431.776 490.2 429.076 494.5 429.076 499.9C429.076 505.3 431.776 509.6 436.676 509.6ZM491.396 533.6C474.996 533.6 465.896 520.7 465.896 504.4C465.896 489.1 473.796 475.4 490.496 475.4C504.996 475.4 511.996 485.6 512.596 500.8L483.896 510.5C486.096 516.3 490.896 518.3 496.696 518.3C502.296 518.3 507.396 516.4 511.296 512.9C512.696 522.2 506.896 533.6 491.396 533.6ZM482.796 500.5L497.396 495.5C496.896 492.6 494.796 489.6 490.796 489.6C485.696 489.6 483.196 494.4 482.796 500.5Z" fill="#FFF0D3"/>
<path d="M60.134 612.468C57.924 612.468 56.258 610.7 56.258 608.32C56.258 605.294 58.876 603.186 58.876 600.568C58.876 599.888 58.706 599.208 58.264 598.46C60.27 597.916 62.718 598.562 62.718 601.01C62.718 602.744 61.494 603.866 60.236 604.988C62.276 605.022 63.874 606.688 63.874 608.728C63.874 610.802 62.276 612.468 60.134 612.468ZM69.416 612.468C67.206 612.468 65.54 610.7 65.54 608.32C65.54 605.294 68.158 603.186 68.158 600.568C68.158 599.888 67.988 599.208 67.546 598.46C69.552 597.916 72 598.562 72 601.01C72 602.744 70.776 603.866 69.518 604.988C71.558 605.022 73.156 606.688 73.156 608.728C73.156 610.802 71.558 612.468 69.416 612.468ZM78.4398 626.544C73.2718 626.544 70.4158 623.178 70.4158 619.744C70.4158 616.616 72.7958 615.12 75.1758 615.12C75.6858 615.12 76.1278 615.188 76.5358 615.29C76.2978 615.766 76.0598 616.582 76.0598 617.636C76.0598 619.676 76.8758 620.968 78.4398 620.968C79.9358 620.968 80.8198 619.778 80.8198 616.922V604.274C80.8198 602.336 80.6158 600.466 79.9698 598.8H87.4498C86.9738 600.466 86.8038 602.336 86.8038 604.274V617.296C86.8038 623.076 83.5738 626.544 78.4398 626.544ZM97.9215 626.544C92.3455 626.544 89.2515 622.158 89.2515 616.616C89.2515 611.414 91.9375 606.756 97.6155 606.756C102.546 606.756 104.926 610.224 105.13 615.392L95.3715 618.69C96.1195 620.662 97.7515 621.342 99.7235 621.342C101.628 621.342 103.362 620.696 104.688 619.506C105.164 622.668 103.192 626.544 97.9215 626.544ZM94.9975 615.29L99.9615 613.59C99.7915 612.604 99.0775 611.584 97.7175 611.584C95.9835 611.584 95.1335 613.216 94.9975 615.29ZM118.986 633.344C119.122 631.304 117.15 630.624 114.838 630.08L112.254 629.502C109.84 628.924 107.732 628.04 107.732 625.592C107.732 623.994 108.616 622.838 110.384 622.158C108.004 620.628 107.018 617.874 107.018 615.086C107.018 611.21 108.922 607.402 113.784 606.824C113.512 605.634 113.24 604.036 113.24 602.71C113.24 599.412 115.042 598.256 116.708 598.256C118.34 598.256 119.734 599.378 119.734 601.214C119.734 603.832 116.946 604.24 116.776 606.892C121.4 607.606 123.202 611.312 123.202 615.086C123.202 619.302 120.958 623.416 115.11 623.416C114.124 623.416 113.308 623.552 113.308 624.266C113.308 624.81 113.784 625.116 115.11 625.286L119.156 625.728C121.944 626.034 124.086 627.156 124.086 629.468C124.086 632.426 120.652 633.31 118.986 633.344ZM115.11 618.384C116.776 618.384 117.694 616.922 117.694 615.086C117.694 613.25 116.776 611.788 115.11 611.788C113.444 611.788 112.526 613.25 112.526 615.086C112.526 616.922 113.444 618.384 115.11 618.384ZM140.355 626.544C134.779 626.544 131.685 622.158 131.685 616.616C131.685 611.414 134.371 606.756 140.049 606.756C144.979 606.756 147.359 610.224 147.563 615.392L137.805 618.69C138.553 620.662 140.185 621.342 142.157 621.342C144.061 621.342 145.795 620.696 147.121 619.506C147.597 622.668 145.625 626.544 140.355 626.544ZM137.431 615.29L142.395 613.59C142.225 612.604 141.511 611.584 140.151 611.584C138.417 611.584 137.567 613.216 137.431 615.29ZM149.591 626C150.067 624.334 150.237 622.464 150.237 620.526V613.25C150.237 611.312 149.965 609.476 149.217 607.912L155.303 606.824V609.714C156.255 607.776 157.751 606.756 159.689 606.756C161.967 606.756 163.973 608.218 163.973 611.108C163.973 613.93 162.103 615.324 159.349 615.324C159.961 612.978 159.145 611.924 157.921 611.924C156.119 611.924 155.847 614.134 155.847 617.602V620.526C155.847 622.464 156.119 624.334 156.833 626H149.591ZM180.498 626.544C174.922 626.544 171.828 622.158 171.828 616.616C171.828 611.414 174.514 606.756 180.192 606.756C185.122 606.756 187.502 610.224 187.706 615.392L177.948 618.69C178.696 620.662 180.328 621.342 182.3 621.342C184.204 621.342 185.938 620.696 187.264 619.506C187.74 622.668 185.768 626.544 180.498 626.544ZM177.574 615.29L182.538 613.59C182.368 612.604 181.654 611.584 180.294 611.584C178.56 611.584 177.71 613.216 177.574 615.29ZM189.734 626C190.21 624.334 190.38 622.464 190.38 620.526V613.25C190.38 611.312 190.108 609.476 189.36 607.912L195.446 606.824V609.544C196.398 607.708 197.996 606.756 200.308 606.756C204.626 606.756 206.02 610.156 206.02 614.168V620.526C206.02 622.464 206.19 624.334 206.666 626H199.764C200.24 624.334 200.41 622.464 200.41 620.526V614.678C200.41 612.978 199.866 611.924 198.574 611.924C196.704 611.924 195.99 614.134 195.99 616.922V620.526C195.99 622.464 196.16 624.334 196.636 626H189.734ZM215.834 626C216.31 624.334 216.48 622.464 216.48 620.526V604.274C216.48 602.336 216.31 600.466 215.834 598.8H226.306C225.966 599.956 226.136 601.214 226.544 602.506L229.808 612.706L233.072 602.54C233.48 601.248 233.65 599.956 233.31 598.8H243.85C243.374 600.466 243.204 602.336 243.204 604.274V620.526C243.204 622.464 243.374 624.334 243.85 626H236.574C237.05 624.334 237.22 622.464 237.22 620.526V607.198L231.202 626H227.972L221.954 607.198V620.526C221.954 622.464 222.124 624.334 222.6 626H215.834ZM263.139 626H246.514C246.99 624.334 247.16 622.464 247.16 620.526V604.274C247.16 602.336 246.99 600.466 246.514 598.8H262.663V605.26C260.998 604.512 259.128 604.24 257.19 604.24H253.144V609.51H255.626C257.564 609.51 259.434 609.238 261.1 608.49V615.29C259.434 614.814 257.564 614.644 255.626 614.644H253.144V620.56H257.666C259.604 620.56 261.474 620.288 263.139 619.54V626ZM274.146 626.544C268.264 626.544 265.068 620.322 265.068 612.434C265.068 603.016 269.726 598.256 276.832 598.256C279.314 598.256 281.524 598.834 283.632 600.228V607.538C281.762 605.294 279.586 603.832 277.002 603.832C273.432 603.832 271.188 606.62 271.188 612.4C271.188 616.82 272.48 620.934 275.472 620.934C277.444 620.934 278.838 619.132 278.838 615.392C278.838 613.93 278.634 612.434 278.158 611.176H285.468C284.992 612.842 284.822 614.712 284.822 616.65V619.608C284.822 622.192 285.23 624.062 286.182 625.524C285.298 626.102 284.244 626.544 283.088 626.544C281.456 626.544 279.824 625.626 279.314 623.484C278.26 625.694 276.254 626.544 274.146 626.544ZM287.094 626C287.774 624.64 288.318 623.144 288.76 621.614L295.56 598.8H303.142L309.976 621.614C310.418 623.144 310.962 624.64 311.574 626H303.822C304.196 624.334 303.958 622.532 303.448 620.662L303.176 619.744H295.084L294.812 620.662C294.268 622.498 294.064 624.334 294.438 626H287.094ZM296.58 614.508H301.68L299.096 605.6L296.58 614.508ZM324.314 633.344C324.45 631.304 322.478 630.624 320.166 630.08L317.582 629.502C315.168 628.924 313.06 628.04 313.06 625.592C313.06 623.994 313.944 622.838 315.712 622.158C313.332 620.628 312.346 617.874 312.346 615.086C312.346 611.21 314.25 607.402 319.112 606.824C318.84 605.634 318.568 604.036 318.568 602.71C318.568 599.412 320.37 598.256 322.036 598.256C323.668 598.256 325.062 599.378 325.062 601.214C325.062 603.832 322.274 604.24 322.104 606.892C326.728 607.606 328.53 611.312 328.53 615.086C328.53 619.302 326.286 623.416 320.438 623.416C319.452 623.416 318.636 623.552 318.636 624.266C318.636 624.81 319.112 625.116 320.438 625.286L324.484 625.728C327.272 626.034 329.414 627.156 329.414 629.468C329.414 632.426 325.98 633.31 324.314 633.344ZM320.438 618.384C322.104 618.384 323.022 616.922 323.022 615.086C323.022 613.25 322.104 611.788 320.438 611.788C318.772 611.788 317.854 613.25 317.854 615.086C317.854 616.922 318.772 618.384 320.438 618.384ZM330.513 626C330.989 624.334 331.159 622.464 331.159 620.526V604.818C331.159 602.88 330.887 601.044 330.139 599.48L336.769 598.256V620.526C336.769 622.464 336.939 624.334 337.415 626H330.513ZM345.627 626.544C341.887 626.544 339.371 624.232 339.371 620.73C339.371 617.16 341.989 615.358 345.933 615.358C347.667 615.358 349.061 615.732 350.047 616.378V614.202C350.047 612.468 348.993 611.686 347.565 611.686C346.273 611.686 345.151 612.332 345.151 613.624C345.151 613.93 345.219 614.304 345.321 614.61C343.043 615.086 340.391 613.998 340.391 611.346C340.391 608.286 343.893 606.756 347.599 606.756C352.359 606.756 355.657 609.34 355.657 613.386V620.322C355.657 622.43 356.201 624.164 357.391 625.422C356.405 626.068 355.249 626.544 353.991 626.544C352.597 626.544 351.339 626 350.727 624.334C349.639 625.694 347.905 626.544 345.627 626.544ZM347.599 622.226C349.129 622.226 350.251 621.546 350.251 620.424C350.251 619.302 349.129 618.656 347.599 618.656C346.069 618.656 344.981 619.302 344.981 620.424C344.981 621.546 346.069 622.226 347.599 622.226ZM365.571 626.544C360.811 626.544 358.363 622.09 358.363 616.65C358.363 611.21 360.811 606.756 365.571 606.756C367.339 606.756 368.835 607.334 369.923 608.626V604.818C369.923 602.88 369.651 601.044 368.903 599.48L375.533 598.256V620.322C375.533 622.43 376.077 624.164 377.267 625.422C376.281 626.068 375.125 626.544 373.867 626.544C372.371 626.544 370.977 625.83 370.467 623.926C369.379 625.694 367.645 626.544 365.571 626.544ZM367.101 621.342C368.971 621.342 369.991 619.54 369.991 616.65C369.991 613.76 368.971 611.958 367.101 611.958C365.197 611.958 364.143 613.76 364.143 616.65C364.143 619.54 365.197 621.342 367.101 621.342ZM385.533 626C386.009 624.334 386.179 622.464 386.179 620.526V613.25C386.179 611.312 385.907 609.476 385.159 607.912L391.245 606.824V609.442C392.197 607.64 393.727 606.756 396.005 606.756C398.589 606.756 400.051 607.946 400.833 609.816C401.751 607.81 403.315 606.756 405.763 606.756C410.081 606.756 411.305 610.156 411.305 614.168V620.526C411.305 622.464 411.475 624.334 411.951 626H405.049C405.525 624.334 405.695 622.464 405.695 620.526V614.678C405.695 612.978 405.151 611.924 403.859 611.924C401.989 611.924 401.547 614.134 401.547 616.922V620.526C401.547 622.464 401.717 624.334 402.193 626H395.291C395.767 624.334 395.937 622.464 395.937 620.526V614.678C395.937 612.978 395.393 611.924 394.101 611.924C392.231 611.924 391.789 614.134 391.789 616.922V620.526C391.789 622.464 391.959 624.334 392.435 626H385.533ZM420.069 626.544C416.329 626.544 413.813 624.232 413.813 620.73C413.813 617.16 416.431 615.358 420.375 615.358C422.109 615.358 423.503 615.732 424.489 616.378V614.202C424.489 612.468 423.435 611.686 422.007 611.686C420.715 611.686 419.593 612.332 419.593 613.624C419.593 613.93 419.661 614.304 419.763 614.61C417.485 615.086 414.833 613.998 414.833 611.346C414.833 608.286 418.335 606.756 422.041 606.756C426.801 606.756 430.099 609.34 430.099 613.386V620.322C430.099 622.43 430.643 624.164 431.833 625.422C430.847 626.068 429.691 626.544 428.433 626.544C427.039 626.544 425.781 626 425.169 624.334C424.081 625.694 422.347 626.544 420.069 626.544ZM422.041 622.226C423.571 622.226 424.693 621.546 424.693 620.424C424.693 619.302 423.571 618.656 422.041 618.656C420.511 618.656 419.423 619.302 419.423 620.424C419.423 621.546 420.511 622.226 422.041 622.226ZM433.212 626C433.688 624.334 433.858 622.464 433.858 620.526V613.25C433.858 611.312 433.586 609.476 432.838 607.912L438.924 606.824V609.544C439.876 607.708 441.474 606.756 443.786 606.756C448.104 606.756 449.498 610.156 449.498 614.168V620.526C449.498 622.464 449.668 624.334 450.144 626H443.242C443.718 624.334 443.888 622.464 443.888 620.526V614.678C443.888 612.978 443.344 611.924 442.052 611.924C440.182 611.924 439.468 614.134 439.468 616.922V620.526C439.468 622.464 439.638 624.334 440.114 626H433.212ZM459.204 626.544C454.444 626.544 451.996 622.09 451.996 616.65C451.996 611.21 454.444 606.756 459.204 606.756C460.972 606.756 462.468 607.334 463.556 608.626V604.818C463.556 602.88 463.284 601.044 462.536 599.48L469.166 598.256V620.322C469.166 622.43 469.71 624.164 470.9 625.422C469.914 626.068 468.758 626.544 467.5 626.544C466.004 626.544 464.61 625.83 464.1 623.926C463.012 625.694 461.278 626.544 459.204 626.544ZM460.734 621.342C462.604 621.342 463.624 619.54 463.624 616.65C463.624 613.76 462.604 611.958 460.734 611.958C458.83 611.958 457.776 613.76 457.776 616.65C457.776 619.54 458.83 621.342 460.734 621.342ZM473.957 616.412C473.957 610.088 473.651 604.104 472.971 598.8H479.567C478.921 604.104 478.581 610.088 478.615 616.412H473.957ZM476.269 626.544C474.127 626.544 472.529 624.878 472.529 622.804C472.529 620.73 474.127 619.064 476.269 619.064C478.411 619.064 480.009 620.73 480.009 622.804C480.009 624.878 478.411 626.544 476.269 626.544ZM498.095 626H489.527C490.003 624.334 490.173 622.464 490.173 620.526V604.274C490.173 602.336 490.003 600.466 489.527 598.8H498.095C505.711 598.8 510.063 603.356 510.063 612.4C510.063 621.444 505.711 626 498.095 626ZM496.157 620.56H497.891C502.141 620.56 503.943 618.044 503.943 612.4C503.943 606.756 502.141 604.24 497.891 604.24H496.157V620.56ZM520.597 626.544C515.021 626.544 511.927 622.158 511.927 616.616C511.927 611.414 514.613 606.756 520.291 606.756C525.221 606.756 527.601 610.224 527.805 615.392L518.047 618.69C518.795 620.662 520.427 621.342 522.399 621.342C524.303 621.342 526.037 620.696 527.363 619.506C527.839 622.668 525.867 626.544 520.597 626.544ZM517.673 615.29L522.637 613.59C522.467 612.604 521.753 611.584 520.393 611.584C518.659 611.584 517.809 613.216 517.673 615.29ZM535.409 626.544C533.505 626.544 531.601 625.456 531.601 621.682V612.434C531.023 612.434 529.867 612.502 529.221 612.74C528.949 611.89 528.813 611.108 528.813 610.394C528.813 608.354 529.935 607.3 531.737 607.3C531.737 606.212 531.431 605.362 531.431 604.614C531.431 602.982 532.961 601.69 535.273 601.69C536.123 601.69 536.905 601.86 537.619 602.098C537.313 603.73 537.211 605.43 537.211 607.3C538.503 607.3 539.863 607.13 540.985 606.756C541.189 607.572 541.257 608.286 541.257 608.864C541.257 611.312 540.101 612.434 538.027 612.434H537.211V620.322C537.211 622.43 537.755 624.164 538.945 625.422C537.891 626.102 536.633 626.544 535.409 626.544ZM557.785 626.544C552.209 626.544 549.115 622.158 549.115 616.616C549.115 611.414 551.801 606.756 557.479 606.756C562.409 606.756 564.789 610.224 564.993 615.392L555.235 618.69C555.983 620.662 557.615 621.342 559.587 621.342C561.491 621.342 563.225 620.696 564.551 619.506C565.027 622.668 563.055 626.544 557.785 626.544ZM554.861 615.29L559.825 613.59C559.655 612.604 558.941 611.584 557.581 611.584C555.847 611.584 554.997 613.216 554.861 615.29ZM567.021 626C567.497 624.334 567.667 622.464 567.667 620.526V613.25C567.667 611.312 567.395 609.476 566.647 607.912L572.733 606.824V609.714C573.685 607.776 575.181 606.756 577.119 606.756C579.397 606.756 581.403 608.218 581.403 611.108C581.403 613.93 579.533 615.324 576.779 615.324C577.391 612.978 576.575 611.924 575.351 611.924C573.549 611.924 573.277 614.134 573.277 617.602V620.526C573.277 622.464 573.549 624.334 574.263 626H567.021ZM597.927 626.544C592.351 626.544 589.257 622.158 589.257 616.616C589.257 611.414 591.943 606.756 597.621 606.756C602.551 606.756 604.931 610.224 605.135 615.392L595.377 618.69C596.125 620.662 597.757 621.342 599.729 621.342C601.633 621.342 603.367 620.696 604.693 619.506C605.169 622.668 603.197 626.544 597.927 626.544ZM595.003 615.29L599.967 613.59C599.797 612.604 599.083 611.584 597.723 611.584C595.989 611.584 595.139 613.216 595.003 615.29ZM607.163 626C607.639 624.334 607.809 622.464 607.809 620.526V613.25C607.809 611.312 607.537 609.476 606.789 607.912L612.875 606.824V609.544C613.827 607.708 615.425 606.756 617.737 606.756C622.055 606.756 623.449 610.156 623.449 614.168V620.526C623.449 622.464 623.619 624.334 624.095 626H617.193C617.669 624.334 617.839 622.464 617.839 620.526V614.678C617.839 612.978 617.295 611.924 616.003 611.924C614.133 611.924 613.419 614.134 613.419 616.922V620.526C613.419 622.464 613.589 624.334 614.065 626H607.163ZM634.93 626C635.406 624.334 635.576 622.464 635.576 620.526V612.366C634.556 612.4 633.57 612.502 632.754 612.74C632.38 611.822 632.142 610.972 632.142 610.156C632.142 608.694 632.89 607.572 634.964 607.334C634.181 605.804 633.842 604.682 633.842 603.56C633.842 600.16 636.97 598.256 640.88 598.256C643.906 598.256 646.762 599.446 646.762 602.064C646.762 604.648 643.974 605.09 642.274 605.124C642.308 604.92 642.308 604.784 642.308 604.648C642.308 603.73 641.9 603.152 641.084 603.152C640.404 603.152 639.656 603.56 639.656 604.58C639.656 605.362 640.132 606.416 640.744 607.3H641.933C643.498 607.3 644.756 607.13 645.81 606.824C646.014 607.64 646.116 608.354 646.116 609C646.116 611.21 644.892 612.434 642.852 612.434H641.186V620.526C641.186 622.464 641.458 624.334 642.172 626H634.93ZM655.269 626.544C649.693 626.544 646.599 622.158 646.599 616.616C646.599 611.414 649.285 606.756 654.963 606.756C659.893 606.756 662.273 610.224 662.477 615.392L652.719 618.69C653.467 620.662 655.099 621.342 657.071 621.342C658.975 621.342 660.709 620.696 662.035 619.506C662.511 622.668 660.539 626.544 655.269 626.544ZM652.345 615.29L657.309 613.59C657.139 612.604 656.425 611.584 655.065 611.584C653.331 611.584 652.481 613.216 652.345 615.29ZM671.637 626.544C666.877 626.544 664.429 622.09 664.429 616.65C664.429 611.21 666.877 606.756 671.637 606.756C673.405 606.756 674.901 607.334 675.989 608.626V604.818C675.989 602.88 675.717 601.044 674.969 599.48L681.599 598.256V620.322C681.599 622.43 682.143 624.164 683.333 625.422C682.347 626.068 681.191 626.544 679.933 626.544C678.437 626.544 677.043 625.83 676.533 623.926C675.445 625.694 673.711 626.544 671.637 626.544ZM673.167 621.342C675.037 621.342 676.057 619.54 676.057 616.65C676.057 613.76 675.037 611.958 673.167 611.958C671.263 611.958 670.209 613.76 670.209 616.65C670.209 619.54 671.263 621.342 673.167 621.342ZM693.367 626C693.843 624.334 694.013 622.464 694.013 620.526V612.366C692.993 612.4 692.007 612.502 691.191 612.74C690.817 611.822 690.579 610.972 690.579 610.156C690.579 608.694 691.327 607.572 693.401 607.334C692.619 605.804 692.279 604.682 692.279 603.56C692.279 600.16 695.407 598.256 699.317 598.256C702.343 598.256 705.199 599.446 705.199 602.064C705.199 604.648 702.411 605.09 700.711 605.124C700.745 604.92 700.745 604.784 700.745 604.648C700.745 603.73 700.337 603.152 699.521 603.152C698.841 603.152 698.093 603.56 698.093 604.58C698.093 605.362 698.569 606.416 699.181 607.3H700.371C701.935 607.3 703.193 607.13 704.247 606.824C704.451 607.64 704.553 608.354 704.553 609C704.553 611.21 703.329 612.434 701.289 612.434H699.623V620.526C699.623 622.464 699.895 624.334 700.609 626H693.367ZM713.877 626.544C711.735 626.544 710.035 626.034 708.743 625.15L708.063 626H704.663L706.839 623.28C705.649 621.546 705.105 619.2 705.105 616.65C705.105 611.21 707.553 606.756 713.877 606.756C715.985 606.756 717.651 607.232 718.977 608.116L719.657 607.3H723.057L720.881 610.02C722.105 611.754 722.649 614.1 722.649 616.65C722.649 622.09 720.201 626.544 713.877 626.544ZM713.877 621.478C715.815 621.478 716.869 619.54 716.869 616.65C716.869 616.14 716.835 615.63 716.767 615.188L712.211 620.866C712.619 621.24 713.197 621.478 713.877 621.478ZM710.987 618.112L715.543 612.434C715.135 612.06 714.557 611.822 713.877 611.822C711.939 611.822 710.885 613.76 710.885 616.65C710.885 617.16 710.919 617.67 710.987 618.112ZM724.667 626C725.143 624.334 725.313 622.464 725.313 620.526V604.818C725.313 602.88 725.041 601.044 724.293 599.48L730.923 598.256V620.526C730.923 622.464 731.093 624.334 731.569 626H724.667ZM742.162 626.544C736.586 626.544 733.492 622.158 733.492 616.616C733.492 611.414 736.178 606.756 741.856 606.756C746.786 606.756 749.166 610.224 749.37 615.392L739.612 618.69C740.36 620.662 741.992 621.342 743.964 621.342C745.868 621.342 747.602 620.696 748.928 619.506C749.404 622.668 747.432 626.544 742.162 626.544ZM739.238 615.29L744.202 613.59C744.032 612.604 743.318 611.584 741.958 611.584C740.224 611.584 739.374 613.216 739.238 615.29ZM751.296 626C751.772 624.334 751.942 622.464 751.942 620.526V604.818C751.942 602.88 751.67 601.044 750.922 599.48L757.552 598.256V620.526C757.552 622.464 757.722 624.334 758.198 626H751.296ZM767.363 626.544C763.487 626.544 760.121 624.64 760.121 621.614C760.121 618.928 762.841 617.942 765.153 618.418C765.017 618.758 764.949 619.2 764.949 619.54C764.949 620.934 766.037 621.784 767.363 621.784C768.587 621.784 769.471 621.07 769.471 620.05C769.471 618.894 768.383 618.316 766.921 617.976L764.949 617.534C762.501 616.99 760.359 615.46 760.359 612.4C760.359 609.306 762.569 606.756 767.601 606.756C769.879 606.756 772.327 607.266 773.857 608.422V614.134C772.225 612.502 769.607 611.55 767.567 611.55C766.445 611.55 765.867 611.822 765.867 612.434C765.867 613.012 766.377 613.216 767.567 613.488L769.403 613.93C772.157 614.61 775.081 616.038 775.081 619.914C775.081 623.926 771.851 626.544 767.363 626.544ZM785.392 626.544C779.816 626.544 776.722 622.158 776.722 616.616C776.722 611.414 779.408 606.756 785.086 606.756C790.016 606.756 792.396 610.224 792.6 615.392L782.842 618.69C783.59 620.662 785.222 621.342 787.194 621.342C789.098 621.342 790.832 620.696 792.158 619.506C792.634 622.668 790.662 626.544 785.392 626.544ZM782.468 615.29L787.432 613.59C787.262 612.604 786.548 611.584 785.188 611.584C783.454 611.584 782.604 613.216 782.468 615.29ZM798.402 626.544C796.26 626.544 794.662 624.878 794.662 622.804C794.662 620.73 796.26 619.064 798.402 619.064C800.544 619.064 802.142 620.73 802.142 622.804C802.142 624.878 800.544 626.544 798.402 626.544ZM56.326 678C56.802 676.334 56.972 674.464 56.972 672.526V656.274C56.972 654.336 56.802 652.466 56.326 650.8H64.928C64.588 651.956 64.928 653.146 65.574 654.37L72.918 667.902V656.274C72.918 654.336 72.714 652.466 72.068 650.8H79.004C78.528 652.466 78.358 654.336 78.358 656.274V672.526C78.358 674.464 78.528 676.334 79.004 678H70.572C70.878 677.014 70.606 675.96 70.028 674.94L62.412 660.898V672.526C62.412 674.464 62.65 676.334 63.262 678H56.326ZM87.678 678.544C83.36 678.544 81.966 675.144 81.966 671.132V665.25C81.966 663.312 81.694 661.476 80.946 659.912L87.576 658.756V670.622C87.576 672.322 88.12 673.376 89.412 673.376C91.282 673.376 91.996 671.166 91.996 668.378V665.25C91.996 663.312 91.724 661.476 90.976 659.912L97.606 658.756V672.322C97.606 674.43 98.15 676.164 99.34 677.422C98.354 678.068 97.198 678.544 95.94 678.544C94.41 678.544 93.016 677.864 92.506 675.824C91.52 677.66 89.99 678.544 87.678 678.544ZM107.653 678C108.129 676.334 108.299 674.464 108.299 672.526V656.818C108.299 654.88 108.027 653.044 107.279 651.48L113.909 650.256V660.252C115.337 659.164 117.003 658.756 118.669 658.756C122.817 658.756 124.823 661.578 124.823 664.978C124.823 667.494 123.769 669.296 121.559 670.316C122.545 672.968 123.939 675.484 125.809 678H119.179C118.023 675.994 117.173 673.852 116.731 671.744H113.909V672.526C113.909 674.464 114.079 676.334 114.555 678H107.653ZM113.909 668.106H116.357C118.023 668.106 119.043 667.188 119.043 665.794C119.043 664.604 118.295 663.652 116.901 663.652C115.303 663.652 113.909 664.91 113.909 667.46V668.106ZM133.227 678.544C129.487 678.544 126.971 676.232 126.971 672.73C126.971 669.16 129.589 667.358 133.533 667.358C135.267 667.358 136.661 667.732 137.647 668.378V666.202C137.647 664.468 136.593 663.686 135.165 663.686C133.873 663.686 132.751 664.332 132.751 665.624C132.751 665.93 132.819 666.304 132.921 666.61C130.643 667.086 127.991 665.998 127.991 663.346C127.991 660.286 131.493 658.756 135.199 658.756C139.959 658.756 143.257 661.34 143.257 665.386V672.322C143.257 674.43 143.801 676.164 144.991 677.422C144.005 678.068 142.849 678.544 141.591 678.544C140.197 678.544 138.939 678 138.327 676.334C137.239 677.694 135.505 678.544 133.227 678.544ZM135.199 674.226C136.729 674.226 137.851 673.546 137.851 672.424C137.851 671.302 136.729 670.656 135.199 670.656C133.669 670.656 132.581 671.302 132.581 672.424C132.581 673.546 133.669 674.226 135.199 674.226ZM146.37 678C146.846 676.334 147.016 674.464 147.016 672.526V665.25C147.016 663.312 146.744 661.476 145.996 659.912L152.082 658.824V661.544C153.034 659.708 154.632 658.756 156.944 658.756C161.262 658.756 162.656 662.156 162.656 666.168V672.526C162.656 674.464 162.826 676.334 163.302 678H156.4C156.876 676.334 157.046 674.464 157.046 672.526V666.678C157.046 664.978 156.502 663.924 155.21 663.924C153.34 663.924 152.626 666.134 152.626 668.922V672.526C152.626 674.464 152.796 676.334 153.272 678H146.37ZM175.089 685.344C173.865 685.344 172.573 684.902 171.383 684.222C172.471 683.1 173.117 681.91 173.117 679.122V665.182C173.117 663.244 172.981 661.476 172.063 659.912L178.727 658.756V681.162C178.727 684.256 176.993 685.344 175.089 685.344ZM175.905 656.512C173.423 656.512 172.403 654.88 172.403 653.384C172.403 651.888 173.423 650.256 175.905 650.256C178.387 650.256 179.407 651.888 179.407 653.384C179.407 654.88 178.387 656.512 175.905 656.512ZM190.16 678.544C184.584 678.544 181.49 674.158 181.49 668.616C181.49 663.414 184.176 658.756 189.854 658.756C194.784 658.756 197.164 662.224 197.368 667.392L187.61 670.69C188.358 672.662 189.99 673.342 191.962 673.342C193.866 673.342 195.6 672.696 196.926 671.506C197.402 674.668 195.43 678.544 190.16 678.544ZM187.236 667.29L192.2 665.59C192.03 664.604 191.316 663.584 189.956 663.584C188.222 663.584 187.372 665.216 187.236 667.29ZM211.224 685.344C211.36 683.304 209.388 682.624 207.076 682.08L204.492 681.502C202.078 680.924 199.97 680.04 199.97 677.592C199.97 675.994 200.854 674.838 202.622 674.158C200.242 672.628 199.256 669.874 199.256 667.086C199.256 663.21 201.16 659.402 206.022 658.824C205.75 657.634 205.478 656.036 205.478 654.71C205.478 651.412 207.28 650.256 208.946 650.256C210.578 650.256 211.972 651.378 211.972 653.214C211.972 655.832 209.184 656.24 209.014 658.892C213.638 659.606 215.44 663.312 215.44 667.086C215.44 671.302 213.196 675.416 207.348 675.416C206.362 675.416 205.546 675.552 205.546 676.266C205.546 676.81 206.022 677.116 207.348 677.286L211.394 677.728C214.182 678.034 216.324 679.156 216.324 681.468C216.324 684.426 212.89 685.31 211.224 685.344ZM207.348 670.384C209.014 670.384 209.932 668.922 209.932 667.086C209.932 665.25 209.014 663.788 207.348 663.788C205.682 663.788 204.764 665.25 204.764 667.086C204.764 668.922 205.682 670.384 207.348 670.384ZM235.993 685.344C236.129 683.304 234.157 682.624 231.845 682.08L229.261 681.502C226.847 680.924 224.739 680.04 224.739 677.592C224.739 675.994 225.623 674.838 227.391 674.158C225.011 672.628 224.025 669.874 224.025 667.086C224.025 663.21 225.929 659.402 230.791 658.824C230.519 657.634 230.247 656.036 230.247 654.71C230.247 651.412 232.049 650.256 233.715 650.256C235.347 650.256 236.741 651.378 236.741 653.214C236.741 655.832 233.953 656.24 233.783 658.892C238.407 659.606 240.209 663.312 240.209 667.086C240.209 671.302 237.965 675.416 232.117 675.416C231.131 675.416 230.315 675.552 230.315 676.266C230.315 676.81 230.791 677.116 232.117 677.286L236.163 677.728C238.951 678.034 241.093 679.156 241.093 681.468C241.093 684.426 237.659 685.31 235.993 685.344ZM232.117 670.384C233.783 670.384 234.701 668.922 234.701 667.086C234.701 665.25 233.783 663.788 232.117 663.788C230.451 663.788 229.533 665.25 229.533 667.086C229.533 668.922 230.451 670.384 232.117 670.384ZM250.892 678.544C248.75 678.544 247.05 678.034 245.758 677.15L245.078 678H241.678L243.854 675.28C242.664 673.546 242.12 671.2 242.12 668.65C242.12 663.21 244.568 658.756 250.892 658.756C253 658.756 254.666 659.232 255.992 660.116L256.672 659.3H260.072L257.896 662.02C259.12 663.754 259.664 666.1 259.664 668.65C259.664 674.09 257.216 678.544 250.892 678.544ZM250.892 673.478C252.83 673.478 253.884 671.54 253.884 668.65C253.884 668.14 253.85 667.63 253.782 667.188L249.226 672.866C249.634 673.24 250.212 673.478 250.892 673.478ZM248.002 670.112L252.558 664.434C252.15 664.06 251.572 663.822 250.892 663.822C248.954 663.822 247.9 665.76 247.9 668.65C247.9 669.16 247.934 669.67 248.002 670.112ZM261.785 678C262.261 676.334 262.431 674.464 262.431 672.526V665.25C262.431 663.312 262.159 661.476 261.411 659.912L267.497 658.824V661.714C268.449 659.776 269.945 658.756 271.883 658.756C274.161 658.756 276.167 660.218 276.167 663.108C276.167 665.93 274.297 667.324 271.543 667.324C272.155 664.978 271.339 663.924 270.115 663.924C268.313 663.924 268.041 666.134 268.041 669.602V672.526C268.041 674.464 268.313 676.334 269.027 678H261.785ZM285.718 678.544C280.142 678.544 277.048 674.158 277.048 668.616C277.048 663.414 279.734 658.756 285.412 658.756C290.342 658.756 292.722 662.224 292.926 667.392L283.168 670.69C283.916 672.662 285.548 673.342 287.52 673.342C289.424 673.342 291.158 672.696 292.484 671.506C292.96 674.668 290.988 678.544 285.718 678.544ZM282.794 667.29L287.758 665.59C287.588 664.604 286.874 663.584 285.514 663.584C283.78 663.584 282.93 665.216 282.794 667.29ZM301.761 678C302.237 676.334 302.407 674.464 302.407 672.526V665.25C302.407 663.312 302.135 661.476 301.387 659.912L307.473 658.824V661.442C308.425 659.64 309.955 658.756 312.233 658.756C314.817 658.756 316.279 659.946 317.061 661.816C317.979 659.81 319.543 658.756 321.991 658.756C326.309 658.756 327.533 662.156 327.533 666.168V672.526C327.533 674.464 327.703 676.334 328.179 678H321.277C321.753 676.334 321.923 674.464 321.923 672.526V666.678C321.923 664.978 321.379 663.924 320.087 663.924C318.217 663.924 317.775 666.134 317.775 668.922V672.526C317.775 674.464 317.945 676.334 318.421 678H311.519C311.995 676.334 312.165 674.464 312.165 672.526V666.678C312.165 664.978 311.621 663.924 310.329 663.924C308.459 663.924 308.017 666.134 308.017 668.922V672.526C308.017 674.464 308.187 676.334 308.663 678H301.761ZM330.415 678C330.891 676.334 331.061 674.464 331.061 672.526V665.25C331.061 663.312 330.789 661.476 330.041 659.912L336.671 658.756V672.526C336.671 674.464 336.841 676.334 337.317 678H330.415ZM333.679 656.512C331.197 656.512 330.177 654.88 330.177 653.384C330.177 651.888 331.197 650.256 333.679 650.256C336.161 650.256 337.181 651.888 337.181 653.384C337.181 654.88 336.161 656.512 333.679 656.512ZM339.679 678C340.155 676.334 340.325 674.464 340.325 672.526V665.25C340.325 663.312 340.053 661.476 339.305 659.912L345.391 658.824V661.544C346.343 659.708 347.941 658.756 350.253 658.756C354.571 658.756 355.965 662.156 355.965 666.168V672.526C355.965 674.464 356.135 676.334 356.611 678H349.709C350.185 676.334 350.355 674.464 350.355 672.526V666.678C350.355 664.978 349.811 663.924 348.519 663.924C346.649 663.924 345.935 666.134 345.935 668.922V672.526C345.935 674.464 346.105 676.334 346.581 678H339.679ZM372.477 678.544C367.717 678.544 365.269 674.09 365.269 668.65C365.269 663.21 367.717 658.756 372.477 658.756C374.245 658.756 375.741 659.334 376.829 660.626V656.818C376.829 654.88 376.557 653.044 375.809 651.48L382.439 650.256V672.322C382.439 674.43 382.983 676.164 384.173 677.422C383.187 678.068 382.031 678.544 380.773 678.544C379.277 678.544 377.883 677.83 377.373 675.926C376.285 677.694 374.551 678.544 372.477 678.544ZM374.007 673.342C375.877 673.342 376.897 671.54 376.897 668.65C376.897 665.76 375.877 663.958 374.007 663.958C372.103 663.958 371.049 665.76 371.049 668.65C371.049 671.54 372.103 673.342 374.007 673.342ZM385.632 678C386.108 676.334 386.278 674.464 386.278 672.526V665.25C386.278 663.312 386.006 661.476 385.258 659.912L391.344 658.824V661.714C392.296 659.776 393.792 658.756 395.73 658.756C398.008 658.756 400.014 660.218 400.014 663.108C400.014 665.93 398.144 667.324 395.39 667.324C396.002 664.978 395.186 663.924 393.962 663.924C392.16 663.924 391.888 666.134 391.888 669.602V672.526C391.888 674.464 392.16 676.334 392.874 678H385.632ZM409.736 678.544C407.594 678.544 405.894 678.034 404.602 677.15L403.922 678H400.522L402.698 675.28C401.508 673.546 400.964 671.2 400.964 668.65C400.964 663.21 403.412 658.756 409.736 658.756C411.844 658.756 413.51 659.232 414.836 660.116L415.516 659.3H418.916L416.74 662.02C417.964 663.754 418.508 666.1 418.508 668.65C418.508 674.09 416.06 678.544 409.736 678.544ZM409.736 673.478C411.674 673.478 412.728 671.54 412.728 668.65C412.728 668.14 412.694 667.63 412.626 667.188L408.07 672.866C408.478 673.24 409.056 673.478 409.736 673.478ZM406.846 670.112L411.402 664.434C410.994 664.06 410.416 663.822 409.736 663.822C407.798 663.822 406.744 665.76 406.744 668.65C406.744 669.16 406.778 669.67 406.846 670.112ZM420.628 678C421.104 676.334 421.274 674.464 421.274 672.526V665.25C421.274 663.312 421.002 661.476 420.254 659.912L426.34 658.824V661.442C427.292 659.64 428.822 658.756 431.1 658.756C433.684 658.756 435.146 659.946 435.928 661.816C436.846 659.81 438.41 658.756 440.858 658.756C445.176 658.756 446.4 662.156 446.4 666.168V672.526C446.4 674.464 446.57 676.334 447.046 678H440.144C440.62 676.334 440.79 674.464 440.79 672.526V666.678C440.79 664.978 440.246 663.924 438.954 663.924C437.084 663.924 436.642 666.134 436.642 668.922V672.526C436.642 674.464 436.812 676.334 437.288 678H430.386C430.862 676.334 431.032 674.464 431.032 672.526V666.678C431.032 664.978 430.488 663.924 429.196 663.924C427.326 663.924 426.884 666.134 426.884 668.922V672.526C426.884 674.464 427.054 676.334 427.53 678H420.628ZM449.283 678C449.759 676.334 449.929 674.464 449.929 672.526V665.25C449.929 663.312 449.657 661.476 448.909 659.912L454.995 658.824V661.442C455.947 659.64 457.477 658.756 459.755 658.756C462.339 658.756 463.801 659.946 464.583 661.816C465.501 659.81 467.065 658.756 469.513 658.756C473.831 658.756 475.055 662.156 475.055 666.168V672.526C475.055 674.464 475.225 676.334 475.701 678H468.799C469.275 676.334 469.445 674.464 469.445 672.526V666.678C469.445 664.978 468.901 663.924 467.609 663.924C465.739 663.924 465.297 666.134 465.297 668.922V672.526C465.297 674.464 465.467 676.334 465.943 678H459.041C459.517 676.334 459.687 674.464 459.687 672.526V666.678C459.687 664.978 459.143 663.924 457.851 663.924C455.981 663.924 455.539 666.134 455.539 668.922V672.526C455.539 674.464 455.709 676.334 456.185 678H449.283ZM486.199 678.544C480.623 678.544 477.529 674.158 477.529 668.616C477.529 663.414 480.215 658.756 485.893 658.756C490.823 658.756 493.203 662.224 493.407 667.392L483.649 670.69C484.397 672.662 486.029 673.342 488.001 673.342C489.905 673.342 491.639 672.696 492.965 671.506C493.441 674.668 491.469 678.544 486.199 678.544ZM483.275 667.29L488.239 665.59C488.069 664.604 487.355 663.584 485.995 663.584C484.261 663.584 483.411 665.216 483.275 667.29ZM507.818 678.544C505.914 678.544 504.01 677.456 504.01 673.682V664.434C503.432 664.434 502.276 664.502 501.63 664.74C501.358 663.89 501.222 663.108 501.222 662.394C501.222 660.354 502.344 659.3 504.146 659.3C504.146 658.212 503.84 657.362 503.84 656.614C503.84 654.982 505.37 653.69 507.682 653.69C508.532 653.69 509.314 653.86 510.028 654.098C509.722 655.73 509.62 657.43 509.62 659.3C510.912 659.3 512.272 659.13 513.394 658.756C513.598 659.572 513.666 660.286 513.666 660.864C513.666 663.312 512.51 664.434 510.436 664.434H509.62V672.322C509.62 674.43 510.164 676.164 511.354 677.422C510.3 678.102 509.042 678.544 507.818 678.544ZM515.124 678C515.6 676.334 515.77 674.464 515.77 672.526V665.25C515.77 663.312 515.498 661.476 514.75 659.912L521.38 658.756V672.526C521.38 674.464 521.55 676.334 522.026 678H515.124ZM518.388 656.512C515.906 656.512 514.886 654.88 514.886 653.384C514.886 651.888 515.906 650.256 518.388 650.256C520.87 650.256 521.89 651.888 521.89 653.384C521.89 654.88 520.87 656.512 518.388 656.512ZM524.286 678C524.762 676.334 524.932 674.464 524.932 672.526V656.818C524.932 654.88 524.66 653.044 523.912 651.48L530.542 650.256V672.526C530.542 674.464 530.712 676.334 531.188 678H524.286ZM545.222 678L541.244 664.638C540.7 662.768 540.02 660.966 539.204 659.3H546.616C546.242 660.626 546.378 662.088 546.752 663.584L548.826 671.37L551.07 663.584C551.478 662.088 551.648 660.626 551.274 659.3H558.312C557.496 660.966 556.816 662.768 556.204 664.604L551.886 678H545.222ZM559.65 678C560.126 676.334 560.296 674.464 560.296 672.526V665.25C560.296 663.312 560.024 661.476 559.276 659.912L565.906 658.756V672.526C565.906 674.464 566.076 676.334 566.552 678H559.65ZM562.914 656.512C560.432 656.512 559.412 654.88 559.412 653.384C559.412 651.888 560.432 650.256 562.914 650.256C565.396 650.256 566.416 651.888 566.416 653.384C566.416 654.88 565.396 656.512 562.914 656.512ZM568.913 678C569.389 676.334 569.559 674.464 569.559 672.526V665.25C569.559 663.312 569.287 661.476 568.539 659.912L574.625 658.824V661.714C575.577 659.776 577.073 658.756 579.011 658.756C581.289 658.756 583.295 660.218 583.295 663.108C583.295 665.93 581.425 667.324 578.671 667.324C579.283 664.978 578.467 663.924 577.243 663.924C575.441 663.924 575.169 666.134 575.169 669.602V672.526C575.169 674.464 575.441 676.334 576.155 678H568.913ZM584.649 678C585.125 676.334 585.295 674.464 585.295 672.526V656.818C585.295 654.88 585.023 653.044 584.275 651.48L590.905 650.256V660.252C592.333 659.164 593.999 658.756 595.665 658.756C599.813 658.756 601.819 661.578 601.819 664.978C601.819 667.494 600.765 669.296 598.555 670.316C599.541 672.968 600.935 675.484 602.805 678H596.175C595.019 675.994 594.169 673.852 593.727 671.744H590.905V672.526C590.905 674.464 591.075 676.334 591.551 678H584.649ZM590.905 668.106H593.353C595.019 668.106 596.039 667.188 596.039 665.794C596.039 664.604 595.291 663.652 593.897 663.652C592.299 663.652 590.905 664.91 590.905 667.46V668.106ZM612.504 678.544C606.928 678.544 603.834 674.158 603.834 668.616C603.834 663.414 606.52 658.756 612.198 658.756C617.128 658.756 619.508 662.224 619.712 667.392L609.954 670.69C610.702 672.662 612.334 673.342 614.306 673.342C616.21 673.342 617.944 672.696 619.27 671.506C619.746 674.668 617.774 678.544 612.504 678.544ZM609.58 667.29L614.544 665.59C614.374 664.604 613.66 663.584 612.3 663.584C610.566 663.584 609.716 665.216 609.58 667.29ZM621.638 678C622.114 676.334 622.284 674.464 622.284 672.526V656.818C622.284 654.88 622.012 653.044 621.264 651.48L627.894 650.256V672.526C627.894 674.464 628.064 676.334 628.54 678H621.638ZM630.87 678C631.346 676.334 631.516 674.464 631.516 672.526V665.25C631.516 663.312 631.244 661.476 630.496 659.912L637.126 658.756V672.526C637.126 674.464 637.296 676.334 637.772 678H630.87ZM634.134 656.512C631.652 656.512 630.632 654.88 630.632 653.384C630.632 651.888 631.652 650.256 634.134 650.256C636.616 650.256 637.636 651.888 637.636 653.384C637.636 654.88 636.616 656.512 634.134 656.512ZM651.796 685.344C651.932 683.304 649.96 682.624 647.648 682.08L645.064 681.502C642.65 680.924 640.542 680.04 640.542 677.592C640.542 675.994 641.426 674.838 643.194 674.158C640.814 672.628 639.828 669.874 639.828 667.086C639.828 663.21 641.732 659.402 646.594 658.824C646.322 657.634 646.05 656.036 646.05 654.71C646.05 651.412 647.852 650.256 649.518 650.256C651.15 650.256 652.544 651.378 652.544 653.214C652.544 655.832 649.756 656.24 649.586 658.892C654.21 659.606 656.012 663.312 656.012 667.086C656.012 671.302 653.768 675.416 647.92 675.416C646.934 675.416 646.118 675.552 646.118 676.266C646.118 676.81 646.594 677.116 647.92 677.286L651.966 677.728C654.754 678.034 656.896 679.156 656.896 681.468C656.896 684.426 653.462 685.31 651.796 685.344ZM647.92 670.384C649.586 670.384 650.504 668.922 650.504 667.086C650.504 665.25 649.586 663.788 647.92 663.788C646.254 663.788 645.336 665.25 645.336 667.086C645.336 668.922 646.254 670.384 647.92 670.384ZM657.995 678C658.471 676.334 658.641 674.464 658.641 672.526V656.818C658.641 654.88 658.369 653.044 657.621 651.48L664.251 650.256V660.932C665.135 659.538 666.529 658.756 668.569 658.756C672.887 658.756 674.281 662.156 674.281 666.168V672.526C674.281 674.464 674.451 676.334 674.927 678H668.025C668.501 676.334 668.671 674.464 668.671 672.526V666.678C668.671 664.978 668.127 663.924 666.835 663.924C664.965 663.924 664.251 666.134 664.251 668.922V672.526C664.251 674.464 664.421 676.334 664.897 678H657.995ZM685.418 678.544C679.842 678.544 676.748 674.158 676.748 668.616C676.748 663.414 679.434 658.756 685.112 658.756C690.042 658.756 692.422 662.224 692.626 667.392L682.868 670.69C683.616 672.662 685.248 673.342 687.22 673.342C689.124 673.342 690.858 672.696 692.184 671.506C692.66 674.668 690.688 678.544 685.418 678.544ZM682.494 667.29L687.458 665.59C687.288 664.604 686.574 663.584 685.214 663.584C683.48 663.584 682.63 665.216 682.494 667.29ZM701.786 678.544C697.026 678.544 694.578 674.09 694.578 668.65C694.578 663.21 697.026 658.756 701.786 658.756C703.554 658.756 705.05 659.334 706.138 660.626V656.818C706.138 654.88 705.866 653.044 705.118 651.48L711.748 650.256V672.322C711.748 674.43 712.292 676.164 713.482 677.422C712.496 678.068 711.34 678.544 710.082 678.544C708.586 678.544 707.192 677.83 706.682 675.926C705.594 677.694 703.86 678.544 701.786 678.544ZM703.316 673.342C705.186 673.342 706.206 671.54 706.206 668.65C706.206 665.76 705.186 663.958 703.316 663.958C701.412 663.958 700.358 665.76 700.358 668.65C700.358 671.54 701.412 673.342 703.316 673.342ZM718.715 678.544C716.573 678.544 714.975 676.878 714.975 674.804C714.975 672.73 716.573 671.064 718.715 671.064C720.857 671.064 722.455 672.73 722.455 674.804C722.455 676.878 720.857 678.544 718.715 678.544ZM56.326 730C56.802 728.334 56.972 726.464 56.972 724.526V708.274C56.972 706.336 56.802 704.466 56.326 702.8H63.602C63.126 704.466 62.956 706.336 62.956 708.274V724.56H66.356C68.294 724.56 70.164 724.288 71.83 723.54V730H56.326ZM73.6224 730C74.0984 728.334 74.2684 726.464 74.2684 724.526V717.25C74.2684 715.312 73.9964 713.476 73.2484 711.912L79.8784 710.756V724.526C79.8784 726.464 80.0484 728.334 80.5244 730H73.6224ZM76.8864 708.512C74.4044 708.512 73.3844 706.88 73.3844 705.384C73.3844 703.888 74.4044 702.256 76.8864 702.256C79.3684 702.256 80.3884 703.888 80.3884 705.384C80.3884 706.88 79.3684 708.512 76.8864 708.512ZM87.4501 730L83.4721 716.638C82.9281 714.768 82.2481 712.966 81.4321 711.3H88.8441C88.4701 712.626 88.6061 714.088 88.9801 715.584L91.0541 723.37L93.2981 715.584C93.7061 714.088 93.8761 712.626 93.5021 711.3H100.54C99.7241 712.966 99.0441 714.768 98.4321 716.604L94.1141 730H87.4501ZM109.111 730.544C103.535 730.544 100.441 726.158 100.441 720.616C100.441 715.414 103.127 710.756 108.805 710.756C113.735 710.756 116.115 714.224 116.319 719.392L106.561 722.69C107.309 724.662 108.941 725.342 110.913 725.342C112.817 725.342 114.551 724.696 115.877 723.506C116.353 726.668 114.381 730.544 109.111 730.544ZM106.187 719.29L111.151 717.59C110.981 716.604 110.267 715.584 108.907 715.584C107.173 715.584 106.323 717.216 106.187 719.29ZM123.923 730.544C122.019 730.544 120.115 729.456 120.115 725.682V716.434C119.537 716.434 118.381 716.502 117.735 716.74C117.463 715.89 117.327 715.108 117.327 714.394C117.327 712.354 118.449 711.3 120.251 711.3C120.251 710.212 119.945 709.362 119.945 708.614C119.945 706.982 121.475 705.69 123.787 705.69C124.637 705.69 125.419 705.86 126.133 706.098C125.827 707.73 125.725 709.43 125.725 711.3C127.017 711.3 128.377 711.13 129.499 710.756C129.703 711.572 129.771 712.286 129.771 712.864C129.771 715.312 128.615 716.434 126.541 716.434H125.725V724.322C125.725 726.43 126.269 728.164 127.459 729.422C126.405 730.102 125.147 730.544 123.923 730.544ZM146.299 730.544C140.723 730.544 137.629 726.158 137.629 720.616C137.629 715.414 140.315 710.756 145.993 710.756C150.923 710.756 153.303 714.224 153.507 719.392L143.749 722.69C144.497 724.662 146.129 725.342 148.101 725.342C150.005 725.342 151.739 724.696 153.065 723.506C153.541 726.668 151.569 730.544 146.299 730.544ZM143.375 719.29L148.339 717.59C148.169 716.604 147.455 715.584 146.095 715.584C144.361 715.584 143.511 717.216 143.375 719.29ZM155.535 730C156.011 728.334 156.181 726.464 156.181 724.526V717.25C156.181 715.312 155.909 713.476 155.161 711.912L161.247 710.824V713.714C162.199 711.776 163.695 710.756 165.633 710.756C167.911 710.756 169.917 712.218 169.917 715.108C169.917 717.93 168.047 719.324 165.293 719.324C165.905 716.978 165.089 715.924 163.865 715.924C162.063 715.924 161.791 718.134 161.791 721.602V724.526C161.791 726.464 162.063 728.334 162.777 730H155.535ZM179.947 730C180.423 728.334 180.593 726.464 180.593 724.526V716.366C179.573 716.4 178.587 716.502 177.771 716.74C177.397 715.822 177.159 714.972 177.159 714.156C177.159 712.694 177.907 711.572 179.981 711.334C179.199 709.804 178.859 708.682 178.859 707.56C178.859 704.16 181.987 702.256 185.897 702.256C188.923 702.256 191.779 703.446 191.779 706.064C191.779 708.648 188.991 709.09 187.291 709.124C187.325 708.92 187.325 708.784 187.325 708.648C187.325 707.73 186.917 707.152 186.101 707.152C185.421 707.152 184.673 707.56 184.673 708.58C184.673 709.362 185.149 710.416 185.761 711.3H186.951C188.515 711.3 189.773 711.13 190.827 710.824C191.031 711.64 191.133 712.354 191.133 713C191.133 715.21 189.909 716.434 187.869 716.434H186.203V724.526C186.203 726.464 186.475 728.334 187.189 730H179.947ZM197.807 730.544C194.067 730.544 191.551 728.232 191.551 724.73C191.551 721.16 194.169 719.358 198.113 719.358C199.847 719.358 201.241 719.732 202.227 720.378V718.202C202.227 716.468 201.173 715.686 199.745 715.686C198.453 715.686 197.331 716.332 197.331 717.624C197.331 717.93 197.399 718.304 197.501 718.61C195.223 719.086 192.571 717.998 192.571 715.346C192.571 712.286 196.073 710.756 199.779 710.756C204.539 710.756 207.837 713.34 207.837 717.386V724.322C207.837 726.43 208.381 728.164 209.571 729.422C208.585 730.068 207.429 730.544 206.171 730.544C204.777 730.544 203.519 730 202.907 728.334C201.819 729.694 200.085 730.544 197.807 730.544ZM199.779 726.226C201.309 726.226 202.431 725.546 202.431 724.424C202.431 723.302 201.309 722.656 199.779 722.656C198.249 722.656 197.161 723.302 197.161 724.424C197.161 725.546 198.249 726.226 199.779 726.226ZM210.951 730C211.427 728.334 211.597 726.464 211.597 724.526V717.25C211.597 715.312 211.325 713.476 210.577 711.912L216.663 710.824V713.544C217.615 711.708 219.213 710.756 221.525 710.756C225.843 710.756 227.237 714.156 227.237 718.168V724.526C227.237 726.464 227.407 728.334 227.883 730H220.981C221.457 728.334 221.627 726.464 221.627 724.526V718.678C221.627 716.978 221.083 715.924 219.791 715.924C217.921 715.924 217.207 718.134 217.207 720.922V724.526C217.207 726.464 217.377 728.334 217.853 730H210.951ZM235.519 730.544C233.615 730.544 231.711 729.456 231.711 725.682V716.434C231.133 716.434 229.977 716.502 229.331 716.74C229.059 715.89 228.923 715.108 228.923 714.394C228.923 712.354 230.045 711.3 231.847 711.3C231.847 710.212 231.541 709.362 231.541 708.614C231.541 706.982 233.071 705.69 235.383 705.69C236.233 705.69 237.015 705.86 237.729 706.098C237.423 707.73 237.321 709.43 237.321 711.3C238.613 711.3 239.973 711.13 241.095 710.756C241.299 711.572 241.367 712.286 241.367 712.864C241.367 715.312 240.211 716.434 238.137 716.434H237.321V724.322C237.321 726.43 237.865 728.164 239.055 729.422C238.001 730.102 236.743 730.544 235.519 730.544ZM248.376 730.544C244.636 730.544 242.12 728.232 242.12 724.73C242.12 721.16 244.738 719.358 248.682 719.358C250.416 719.358 251.81 719.732 252.796 720.378V718.202C252.796 716.468 251.742 715.686 250.314 715.686C249.022 715.686 247.9 716.332 247.9 717.624C247.9 717.93 247.968 718.304 248.07 718.61C245.792 719.086 243.14 717.998 243.14 715.346C243.14 712.286 246.642 710.756 250.348 710.756C255.108 710.756 258.406 713.34 258.406 717.386V724.322C258.406 726.43 258.95 728.164 260.14 729.422C259.154 730.068 257.998 730.544 256.74 730.544C255.346 730.544 254.088 730 253.476 728.334C252.388 729.694 250.654 730.544 248.376 730.544ZM250.348 726.226C251.878 726.226 253 725.546 253 724.424C253 723.302 251.878 722.656 250.348 722.656C248.818 722.656 247.73 723.302 247.73 724.424C247.73 725.546 248.818 726.226 250.348 726.226ZM268.353 730.544C264.477 730.544 261.111 728.64 261.111 725.614C261.111 722.928 263.831 721.942 266.143 722.418C266.007 722.758 265.939 723.2 265.939 723.54C265.939 724.934 267.027 725.784 268.353 725.784C269.577 725.784 270.461 725.07 270.461 724.05C270.461 722.894 269.373 722.316 267.911 721.976L265.939 721.534C263.491 720.99 261.349 719.46 261.349 716.4C261.349 713.306 263.559 710.756 268.591 710.756C270.869 710.756 273.317 711.266 274.847 712.422V718.134C273.215 716.502 270.597 715.55 268.557 715.55C267.435 715.55 266.857 715.822 266.857 716.434C266.857 717.012 267.367 717.216 268.557 717.488L270.393 717.93C273.147 718.61 276.071 720.038 276.071 723.914C276.071 727.926 272.841 730.544 268.353 730.544ZM283.364 730.544C281.46 730.544 279.556 729.456 279.556 725.682V716.434C278.978 716.434 277.822 716.502 277.176 716.74C276.904 715.89 276.768 715.108 276.768 714.394C276.768 712.354 277.89 711.3 279.692 711.3C279.692 710.212 279.386 709.362 279.386 708.614C279.386 706.982 280.916 705.69 283.228 705.69C284.078 705.69 284.86 705.86 285.574 706.098C285.268 707.73 285.166 709.43 285.166 711.3C286.458 711.3 287.818 711.13 288.94 710.756C289.144 711.572 289.212 712.286 289.212 712.864C289.212 715.312 288.056 716.434 285.982 716.434H285.166V724.322C285.166 726.43 285.71 728.164 286.9 729.422C285.846 730.102 284.588 730.544 283.364 730.544ZM290.671 730C291.147 728.334 291.317 726.464 291.317 724.526V717.25C291.317 715.312 291.045 713.476 290.297 711.912L296.927 710.756V724.526C296.927 726.464 297.097 728.334 297.573 730H290.671ZM293.935 708.512C291.453 708.512 290.433 706.88 290.433 705.384C290.433 703.888 291.453 702.256 293.935 702.256C296.417 702.256 297.437 703.888 297.437 705.384C297.437 706.88 296.417 708.512 293.935 708.512ZM306.769 730.544C302.893 730.544 299.527 728.64 299.527 725.614C299.527 722.928 302.247 721.942 304.559 722.418C304.423 722.758 304.355 723.2 304.355 723.54C304.355 724.934 305.443 725.784 306.769 725.784C307.993 725.784 308.877 725.07 308.877 724.05C308.877 722.894 307.789 722.316 306.327 721.976L304.355 721.534C301.907 720.99 299.765 719.46 299.765 716.4C299.765 713.306 301.975 710.756 307.007 710.756C309.285 710.756 311.733 711.266 313.263 712.422V718.134C311.631 716.502 309.013 715.55 306.973 715.55C305.851 715.55 305.273 715.822 305.273 716.434C305.273 717.012 305.783 717.216 306.973 717.488L308.809 717.93C311.563 718.61 314.487 720.038 314.487 723.914C314.487 727.926 311.257 730.544 306.769 730.544ZM316.434 730C316.911 728.334 317.081 726.464 317.081 724.526V708.818C317.081 706.88 316.809 705.044 316.061 703.48L322.691 702.256V712.252C324.119 711.164 325.785 710.756 327.451 710.756C331.599 710.756 333.605 713.578 333.605 716.978C333.605 719.494 332.551 721.296 330.341 722.316C331.327 724.968 332.721 727.484 334.591 730H327.961C326.805 727.994 325.955 725.852 325.513 723.744H322.691V724.526C322.691 726.464 322.861 728.334 323.337 730H316.434ZM322.691 720.106H325.139C326.805 720.106 327.825 719.188 327.825 717.794C327.825 716.604 327.077 715.652 325.683 715.652C324.085 715.652 322.691 716.91 322.691 719.46V720.106ZM338.056 720.412C338.056 714.088 337.75 708.104 337.07 702.8H343.666C343.02 708.104 342.68 714.088 342.714 720.412H338.056ZM340.368 730.544C338.226 730.544 336.628 728.878 336.628 726.804C336.628 724.73 338.226 723.064 340.368 723.064C342.51 723.064 344.108 724.73 344.108 726.804C344.108 728.878 342.51 730.544 340.368 730.544ZM352.362 716.23C350.356 716.774 347.908 716.128 347.908 713.68C347.908 711.946 349.132 710.824 350.39 709.702C348.35 709.668 346.752 708.002 346.752 705.962C346.752 703.888 348.35 702.222 350.492 702.222C352.702 702.222 354.368 703.99 354.368 706.37C354.368 709.396 351.75 711.504 351.75 714.122C351.75 714.802 351.92 715.482 352.362 716.23ZM361.644 716.23C359.638 716.774 357.19 716.128 357.19 713.68C357.19 711.946 358.414 710.824 359.672 709.702C357.632 709.668 356.034 708.002 356.034 705.962C356.034 703.888 357.632 702.222 359.774 702.222C361.984 702.222 363.65 703.99 363.65 706.37C363.65 709.396 361.032 711.504 361.032 714.122C361.032 714.802 361.202 715.482 361.644 716.23Z" fill="#5F141E"/>
</svg>
