<svg width="1080" height="1080" viewBox="0 0 1080 1080" fill="none" xmlns="http://www.w3.org/2000/svg">
<rect width="1080" height="1080" fill="#F41116"/>
<path fill-rule="evenodd" clip-rule="evenodd" d="M366.866 84.413C370.059 78.5269 372.691 71.8 373.755 66.0829C376.108 66.4193 378.629 66.5874 381.373 66.5874C384.51 66.5874 386.919 66.3635 389.047 66.0271C389.999 70.623 387.814 75.3317 382.045 75.3317C381.597 75.3317 381.149 75.2754 380.701 75.2193C379.525 78.246 378.18 80.9373 376.669 83.3474C383.558 85.2529 388.879 90.5225 388.879 99.2665C388.879 108.067 383.614 113 377.844 113C374.54 113 372.075 111.374 370.955 108.964C374.932 108.403 379.469 105.601 379.469 100.107C379.469 94.278 374.316 90.2983 366.866 89.9619V102.406C366.866 105.601 367.146 108.684 367.931 111.43H356.56C357.344 108.684 357.624 105.601 357.624 102.406V76.229C357.624 73.0342 357.232 70.0071 356 67.4283L366.866 65.6907V84.413ZM417.953 79.7041C425.571 79.7042 431.004 83.7965 431.004 90.5787V102.125C431.004 105.601 431.956 108.516 433.86 110.533C432.348 111.542 430.499 112.327 428.539 112.327C426.299 112.327 424.283 111.374 423.33 108.572C421.538 110.87 418.625 112.327 414.873 112.327C408.823 112.327 404.567 108.572 404.567 102.742C404.567 96.8002 408.991 93.7733 415.377 93.7733C418.289 93.7733 420.698 94.3905 422.378 95.6232V91.8111C422.378 88.7283 420.473 87.3277 417.897 87.3277C415.545 87.3277 413.64 88.5603 413.64 90.8028C413.64 91.3633 413.752 91.9793 413.92 92.4837C410.391 93.2126 406.19 91.4752 406.19 87.2711C406.19 82.3384 411.848 79.7041 417.953 79.7041ZM446.41 79.7041C450.219 79.7042 454.196 80.6015 456.716 82.563V91.5312C454.028 88.7843 449.771 87.1031 446.354 87.103C444.282 87.103 443.161 87.7198 443.161 88.8963C443.161 89.9615 444.057 90.354 446.13 90.8586L449.322 91.6436C453.972 92.8203 458.621 95.2315 458.621 101.509C458.621 108.235 453.299 112.327 446.074 112.327C439.632 112.327 434.199 109.02 434.199 104.087C434.199 99.771 438.512 98.2021 442.096 98.9301C441.872 99.4907 441.76 100.276 441.76 100.892C441.76 103.471 443.722 104.928 446.074 104.928C448.315 104.928 449.938 103.639 449.938 101.733C449.938 99.6589 448.09 98.6502 445.514 98.0335L442.209 97.2484C438.288 96.3513 434.647 93.8294 434.647 88.8405C434.647 83.7401 438.456 79.7041 446.41 79.7041ZM472.401 79.7041C476.21 79.7042 480.186 80.6015 482.707 82.563V91.5312C480.019 88.7843 475.762 87.1031 472.345 87.103C470.273 87.103 469.152 87.7198 469.152 88.8963C469.152 89.9615 470.049 90.354 472.121 90.8586L475.314 91.6436C479.963 92.8203 484.612 95.2315 484.612 101.509C484.612 108.235 479.291 112.327 472.065 112.327C465.624 112.327 460.191 109.02 460.191 104.087C460.191 99.771 464.503 98.2021 468.087 98.9301C467.864 99.4907 467.752 100.276 467.752 100.892C467.752 103.471 469.713 104.928 472.065 104.928C474.306 104.928 475.929 103.639 475.929 101.733C475.929 99.6589 474.081 98.6502 471.504 98.0335L468.2 97.2484C464.279 96.3513 460.639 93.8294 460.639 88.8405C460.639 83.7401 464.448 79.7041 472.401 79.7041ZM500.186 79.7041C508.083 79.7042 512.06 85.3651 512.396 93.661L495.984 99.3223C497.161 102.91 500.073 104.312 503.49 104.312C506.738 104.312 509.595 103.134 511.724 101.116C512.395 106.217 509.091 112.327 500.745 112.327C491.728 112.327 486.519 105.209 486.519 95.9596C486.519 87.2717 491.111 79.7041 500.186 79.7041ZM542.254 79.7041C552.391 79.7041 556.536 86.9351 556.536 96.0154C556.536 105.096 552.391 112.327 542.254 112.327C532.059 112.327 527.971 105.096 527.971 96.0154C527.971 86.9351 532.059 79.7041 542.254 79.7041ZM583.858 71.3521C585.145 71.3521 586.322 71.6323 587.498 72.0248C586.993 74.7712 586.826 77.6302 586.826 80.6015C588.954 80.6015 591.139 80.3208 593.043 79.7041C593.379 80.9929 593.491 82.0582 593.491 82.9552C593.491 86.7669 591.698 88.5041 588.393 88.5041H586.826V102.125C586.826 105.657 587.777 108.516 589.682 110.533C588.057 111.598 586.098 112.327 584.192 112.327C581.112 112.327 578.199 110.421 578.199 104.255V88.5041H570.862V102.125C570.862 105.657 571.815 108.516 573.719 110.533C572.095 111.598 570.134 112.327 568.174 112.327C565.149 112.327 562.236 110.421 562.236 104.255V88.5041C561.228 88.5042 559.379 88.6163 558.259 89.0087C557.811 87.6639 557.643 86.4866 557.643 85.3655C557.643 82.1706 559.492 80.6016 562.46 80.6015C562.46 78.8075 561.956 77.2938 561.956 76.0044C561.956 73.4263 564.309 71.3521 567.893 71.3521C569.182 71.3521 570.358 71.6323 571.534 72.0248C571.03 74.7712 570.862 77.6302 570.862 80.6015H578.423C578.423 78.8075 577.919 77.2938 577.919 76.0044C577.919 73.4263 580.273 71.3521 583.858 71.3521ZM607.457 79.7041C615.354 79.7041 619.331 85.3651 619.667 93.661L603.257 99.3223C604.433 102.91 607.345 104.312 610.762 104.312C614.01 104.312 616.867 103.134 618.996 101.116C619.667 106.217 616.363 112.327 608.018 112.327C598.999 112.327 593.791 105.209 593.791 95.9596C593.791 87.2718 598.383 79.7042 607.457 79.7041ZM673.893 79.7041C681.791 79.7042 685.768 85.3651 686.104 93.661L669.692 99.3223C670.869 102.91 673.781 104.312 677.197 104.312C680.446 104.312 683.303 103.134 685.431 101.116C686.103 106.217 682.799 112.327 674.453 112.327C665.435 112.327 660.226 105.209 660.226 95.9596C660.226 87.2717 664.819 79.7041 673.893 79.7041ZM697.46 71.3521C698.748 71.3521 699.925 71.6323 701.101 72.0248C700.597 74.7712 700.428 77.6302 700.428 80.6015C702.557 80.6015 704.741 80.3208 706.646 79.7041C706.982 80.9929 707.093 82.0582 707.093 82.9552C707.093 86.7669 705.302 88.5041 701.997 88.5041H700.428V102.125C700.428 105.657 701.381 108.516 703.284 110.533C701.661 111.598 699.7 112.327 697.74 112.327C694.715 112.327 691.803 110.421 691.803 104.255V88.5041C690.795 88.5041 688.945 88.6162 687.826 89.0087C687.378 87.6639 687.21 86.4866 687.21 85.3655C687.21 82.1705 689.058 80.6015 692.027 80.6015C692.027 78.8075 691.523 77.2938 691.523 76.0044C691.523 73.4263 693.875 71.3522 697.46 71.3521ZM656.976 102.406C656.976 105.545 657.256 108.74 657.984 111.431H647.286C648.014 108.74 648.294 105.545 648.294 102.406V90.3548C648.294 87.1598 647.846 84.0769 646.67 81.554L656.976 79.7041V102.406ZM401.765 102.406C401.765 105.545 402.045 108.74 402.773 111.43H392.13C392.859 108.74 393.139 105.545 393.139 102.406V73.9304C393.139 70.7355 392.691 68.045 391.515 65.6349C394.931 65.0182 398.684 64.0652 401.765 63V102.406ZM524.721 102.406C524.721 105.545 525.001 108.74 525.728 111.43H515.086C515.815 108.74 516.094 105.545 516.094 102.406V73.9304C516.094 70.7355 515.646 68.045 514.47 65.6349C517.887 65.0182 521.64 64.0652 524.721 63V102.406ZM638.602 79.7041C642.355 79.7042 645.547 82.1143 645.547 86.7108C645.547 91.1952 642.579 93.3247 638.322 93.3247C639.33 89.5131 637.986 87.664 635.914 87.664C632.833 87.6642 632.217 91.4197 632.217 97.1368V102.406C632.217 105.545 632.61 108.74 633.729 111.43H622.526C623.254 108.74 623.535 105.545 623.535 102.406V90.3541C623.535 87.1592 623.087 84.0762 621.911 81.5533L631.432 79.8165V84.5245C633.001 81.3857 635.41 79.7041 638.602 79.7041ZM417.897 98.986C415.153 98.986 413.248 100.219 413.248 102.294C413.248 104.311 415.153 105.601 417.897 105.601C420.641 105.601 422.658 104.311 422.658 102.294C422.658 100.219 420.641 98.986 417.897 98.986ZM542.254 87.7199C538.837 87.7199 536.931 90.8588 536.931 96.0154C536.931 101.172 538.837 104.312 542.254 104.312C545.67 104.312 547.63 101.172 547.63 96.0154C547.63 90.8588 545.67 87.7199 542.254 87.7199ZM500.353 87.1595C497.273 87.1595 495.704 90.018 495.424 93.8856L504.386 90.8028C504.05 88.8967 502.762 87.1596 500.353 87.1595ZM607.625 87.1595C604.544 87.1596 602.976 90.0181 602.696 93.8856L611.658 90.8028C611.322 88.8966 610.034 87.1595 607.625 87.1595ZM674.061 87.1595C670.981 87.1595 669.412 90.018 669.132 93.8856L678.094 90.8028C677.758 88.8967 676.469 87.1596 674.061 87.1595ZM718.806 65.7473C722.382 65.7473 724.999 68.406 725 71.894C725 75.3819 722.382 78.0938 718.806 78.0938C715.188 78.0938 712.571 75.3556 712.571 71.894C712.571 68.4324 715.226 65.7473 718.806 65.7473ZM718.806 66.9323C715.953 66.9323 713.928 68.9983 713.928 71.894C713.928 74.8291 716.006 76.9088 718.806 76.9088C721.607 76.9088 723.658 74.8028 723.658 71.894C723.658 68.9853 721.66 66.9323 718.806 66.9323ZM652.327 65.7473C656.192 65.7474 657.816 68.2696 657.816 70.6235C657.816 73.0342 656.192 75.5563 652.327 75.5563C648.463 75.5563 646.837 73.0343 646.837 70.6235C646.837 68.2695 648.462 65.7473 652.327 65.7473ZM719.455 68.6472C720.657 68.6473 721.448 69.3888 721.448 70.3989C721.447 71.2425 720.913 71.8181 720.03 72.0099C720.772 72.1761 721.102 72.7256 721.296 73.5694L721.615 74.9373H720.224L720.03 73.7616C719.888 72.8283 719.773 72.6105 718.743 72.6105H717.754V74.9373H716.468V68.6472H719.455ZM717.754 69.6958V71.5619H718.817C719.685 71.5619 720.161 71.2168 720.161 70.5777C720.161 69.9385 719.658 69.6958 718.817 69.6958H717.754Z" fill="#FFF0D3"/>
<path d="M79.1 308L61.3 243.8C59.7 238.3 57.9 232.9 55.5 228H78.2C77.1 231.9 77.5 236.2 78.6 240.6L89.6 284L100.7 240.6C101.8 236.2 102.2 231.9 101 228H122.7C120.3 232.9 118.5 238.3 116.9 243.8L99.1 308H79.1ZM137.033 309.6C126.033 309.6 118.633 302.8 118.633 292.5C118.633 282 126.333 276.7 137.933 276.7C143.033 276.7 147.133 277.8 150.033 279.7V273.3C150.033 268.2 146.933 265.9 142.733 265.9C138.933 265.9 135.633 267.8 135.633 271.6C135.633 272.5 135.833 273.6 136.133 274.5C129.433 275.9 121.633 272.7 121.633 264.9C121.633 255.9 131.933 251.4 142.833 251.4C156.833 251.4 166.533 259 166.533 270.9V291.3C166.533 297.5 168.133 302.6 171.633 306.3C168.733 308.2 165.333 309.6 161.633 309.6C157.533 309.6 153.833 308 152.033 303.1C148.833 307.1 143.733 309.6 137.033 309.6ZM142.833 296.9C147.333 296.9 150.633 294.9 150.633 291.6C150.633 288.3 147.333 286.4 142.833 286.4C138.333 286.4 135.133 288.3 135.133 291.6C135.133 294.9 138.333 296.9 142.833 296.9ZM175.69 308C177.09 303.1 177.59 297.6 177.59 291.9V270.5C177.59 264.8 176.79 259.4 174.59 254.8L192.49 251.6V259.6C195.29 254.2 199.99 251.4 206.79 251.4C219.49 251.4 223.59 261.4 223.59 273.2V291.9C223.59 297.6 224.09 303.1 225.49 308H205.19C206.59 303.1 207.09 297.6 207.09 291.9V274.7C207.09 269.7 205.49 266.6 201.69 266.6C196.19 266.6 194.09 273.1 194.09 281.3V291.9C194.09 297.6 194.59 303.1 195.99 308H175.69ZM252.135 309.6C238.135 309.6 230.935 296.5 230.935 280.5C230.935 264.5 238.135 251.4 252.135 251.4C257.335 251.4 261.735 253.1 264.935 256.9V245.7C264.935 240 264.135 234.6 261.935 230L281.435 226.4V291.3C281.435 297.5 283.035 302.6 286.535 306.3C283.635 308.2 280.235 309.6 276.535 309.6C272.135 309.6 268.035 307.5 266.535 301.9C263.335 307.1 258.235 309.6 252.135 309.6ZM256.635 294.3C262.135 294.3 265.135 289 265.135 280.5C265.135 272 262.135 266.7 256.635 266.7C251.035 266.7 247.935 272 247.935 280.5C247.935 289 251.035 294.3 256.635 294.3ZM306.25 309.6C300.65 309.6 295.05 306.4 295.05 295.3V268.1C293.35 268.1 289.95 268.3 288.05 269C287.25 266.5 286.85 264.2 286.85 262.1C286.85 256.1 290.15 253 295.45 253C295.45 249.8 294.55 247.3 294.55 245.1C294.55 240.3 299.05 236.5 305.85 236.5C308.35 236.5 310.65 237 312.75 237.7C311.85 242.5 311.55 247.5 311.55 253C315.35 253 319.35 252.5 322.65 251.4C323.25 253.8 323.45 255.9 323.45 257.6C323.45 264.8 320.05 268.1 313.95 268.1H311.55V291.3C311.55 297.5 313.15 302.6 316.65 306.3C313.55 308.3 309.85 309.6 306.25 309.6ZM372.36 309.6C353.76 309.6 346.56 296.5 346.56 280.5C346.56 264.5 353.76 251.4 372.36 251.4C390.96 251.4 398.16 264.5 398.16 280.5C398.16 296.5 390.96 309.6 372.36 309.6ZM372.36 294.3C378.06 294.3 381.16 289 381.16 280.5C381.16 272 378.06 266.7 372.36 266.7C366.66 266.7 363.56 272 363.56 280.5C363.56 289 366.66 294.3 372.36 294.3ZM415.578 308L403.878 268.7C402.278 263.2 400.278 257.9 397.878 253H419.678C418.578 256.9 418.978 261.2 420.078 265.6L426.178 288.5L432.778 265.6C433.978 261.2 434.478 256.9 433.378 253H454.078C451.678 257.9 449.678 263.2 447.878 268.6L435.178 308H415.578ZM479.287 309.6C462.887 309.6 453.787 296.7 453.787 280.4C453.787 265.1 461.687 251.4 478.387 251.4C492.887 251.4 499.887 261.6 500.487 276.8L471.787 286.5C473.987 292.3 478.787 294.3 484.587 294.3C490.187 294.3 495.287 292.4 499.187 288.9C500.587 298.2 494.787 309.6 479.287 309.6ZM470.687 276.5L485.287 271.5C484.787 268.6 482.687 265.6 478.687 265.6C473.587 265.6 471.087 270.4 470.687 276.5ZM506.452 308C507.852 303.1 508.352 297.6 508.352 291.9V270.5C508.352 264.8 507.552 259.4 505.352 254.8L523.252 251.6V260.1C526.052 254.4 530.452 251.4 536.152 251.4C542.852 251.4 548.752 255.7 548.752 264.2C548.752 272.5 543.252 276.6 535.152 276.6C536.952 269.7 534.552 266.6 530.952 266.6C525.652 266.6 524.852 273.1 524.852 283.3V291.9C524.852 297.6 525.652 303.1 527.752 308H506.452ZM82.9 421.6C66.5 421.6 57.4 408.7 57.4 392.4C57.4 377.1 65.3 363.4 82 363.4C96.5 363.4 103.5 373.6 104.1 388.8L75.4 398.5C77.6 404.3 82.4 406.3 88.2 406.3C93.8 406.3 98.9 404.4 102.8 400.9C104.2 410.2 98.4 421.6 82.9 421.6ZM74.3 388.5L88.9 383.5C88.4 380.6 86.3 377.6 82.3 377.6C77.2 377.6 74.7 382.4 74.3 388.5ZM110.065 420C111.465 415.1 111.965 409.6 111.965 403.9V382.5C111.965 376.8 111.165 371.4 108.965 366.8L126.865 363.6V371.6C129.665 366.2 134.365 363.4 141.165 363.4C153.865 363.4 157.965 373.4 157.965 385.2V403.9C157.965 409.6 158.465 415.1 159.865 420H139.565C140.965 415.1 141.465 409.6 141.465 403.9V386.7C141.465 381.7 139.865 378.6 136.065 378.6C130.565 378.6 128.465 385.1 128.465 393.3V403.9C128.465 409.6 128.965 415.1 130.365 420H110.065ZM186.23 420C187.63 415.1 188.13 409.6 188.13 403.9V357.7C188.13 352 187.33 346.6 185.13 342L204.63 338.4V369.8C207.23 365.7 211.33 363.4 217.33 363.4C230.03 363.4 234.13 373.4 234.13 385.2V403.9C234.13 409.6 234.63 415.1 236.03 420H215.73C217.13 415.1 217.63 409.6 217.63 403.9V386.7C217.63 381.7 216.03 378.6 212.23 378.6C206.73 378.6 204.63 385.1 204.63 393.3V403.9C204.63 409.6 205.13 415.1 206.53 420H186.23ZM259.884 421.6C248.884 421.6 241.484 414.8 241.484 404.5C241.484 394 249.184 388.7 260.784 388.7C265.884 388.7 269.984 389.8 272.884 391.7V385.3C272.884 380.2 269.784 377.9 265.584 377.9C261.784 377.9 258.484 379.8 258.484 383.6C258.484 384.5 258.684 385.6 258.984 386.5C252.284 387.9 244.484 384.7 244.484 376.9C244.484 367.9 254.784 363.4 265.684 363.4C279.684 363.4 289.384 371 289.384 382.9V403.3C289.384 409.5 290.984 414.6 294.484 418.3C291.584 420.2 288.184 421.6 284.484 421.6C280.384 421.6 276.684 420 274.884 415.1C271.684 419.1 266.584 421.6 259.884 421.6ZM265.684 408.9C270.184 408.9 273.484 406.9 273.484 403.6C273.484 400.3 270.184 398.4 265.684 398.4C261.184 398.4 257.984 400.3 257.984 403.6C257.984 406.9 261.184 408.9 265.684 408.9ZM298.241 420C299.641 415.1 300.141 409.6 300.141 403.9V357.7C300.141 352 299.341 346.6 297.141 342L316.641 338.4V403.9C316.641 409.6 317.141 415.1 318.541 420H298.241ZM338.332 420L326.632 380.7C325.032 375.2 323.032 369.9 320.632 365H342.432C341.332 368.9 341.732 373.2 342.832 377.6L348.932 400.5L355.532 377.6C356.732 373.2 357.232 368.9 356.132 365H376.832C374.432 369.9 372.432 375.2 370.632 380.6L357.932 420H338.332ZM400.788 420C402.188 415.1 402.688 409.6 402.688 403.9V382.5C402.688 376.8 401.888 371.4 399.688 366.8L417.588 363.6V371.3C420.388 366 424.888 363.4 431.588 363.4C439.188 363.4 443.488 366.9 445.788 372.4C448.488 366.5 453.088 363.4 460.288 363.4C472.988 363.4 476.588 373.4 476.588 385.2V403.9C476.588 409.6 477.088 415.1 478.488 420H458.188C459.588 415.1 460.088 409.6 460.088 403.9V386.7C460.088 381.7 458.488 378.6 454.688 378.6C449.188 378.6 447.888 385.1 447.888 393.3V403.9C447.888 409.6 448.388 415.1 449.788 420H429.488C430.888 415.1 431.388 409.6 431.388 403.9V386.7C431.388 381.7 429.788 378.6 425.988 378.6C420.488 378.6 419.188 385.1 419.188 393.3V403.9C419.188 409.6 419.688 415.1 421.088 420H400.788ZM485.065 420C486.465 415.1 486.965 409.6 486.965 403.9V382.5C486.965 376.8 486.165 371.4 483.965 366.8L503.465 363.4V403.9C503.465 409.6 503.965 415.1 505.365 420H485.065ZM494.665 356.8C487.365 356.8 484.365 352 484.365 347.6C484.365 343.2 487.365 338.4 494.665 338.4C501.965 338.4 504.965 343.2 504.965 347.6C504.965 352 501.965 356.8 494.665 356.8ZM512.011 420C513.411 415.1 513.911 409.6 513.911 403.9V357.7C513.911 352 513.111 346.6 510.911 342L530.411 338.4V403.9C530.411 409.6 530.911 415.1 532.311 420H512.011ZM538.866 420C540.266 415.1 540.766 409.6 540.766 403.9V357.7C540.766 352 539.966 346.6 537.766 342L557.266 338.4V403.9C557.266 409.6 557.766 415.1 559.166 420H538.866ZM566.022 420C567.422 415.1 567.922 409.6 567.922 403.9V382.5C567.922 376.8 567.122 371.4 564.922 366.8L584.422 363.4V403.9C584.422 409.6 584.922 415.1 586.322 420H566.022ZM575.622 356.8C568.322 356.8 565.322 352 565.322 347.6C565.322 343.2 568.322 338.4 575.622 338.4C582.922 338.4 585.922 343.2 585.922 347.6C585.922 352 582.922 356.8 575.622 356.8ZM617.868 421.6C599.268 421.6 592.068 408.5 592.068 392.5C592.068 376.5 599.268 363.4 617.868 363.4C636.468 363.4 643.668 376.5 643.668 392.5C643.668 408.5 636.468 421.6 617.868 421.6ZM617.868 406.3C623.568 406.3 626.668 401 626.668 392.5C626.668 384 623.568 378.7 617.868 378.7C612.168 378.7 609.068 384 609.068 392.5C609.068 401 612.168 406.3 617.868 406.3ZM649.713 420C651.113 415.1 651.613 409.6 651.613 403.9V382.5C651.613 376.8 650.813 371.4 648.613 366.8L666.513 363.6V371.6C669.313 366.2 674.013 363.4 680.813 363.4C693.513 363.4 697.613 373.4 697.613 385.2V403.9C697.613 409.6 698.113 415.1 699.513 420H679.213C680.613 415.1 681.113 409.6 681.113 403.9V386.7C681.113 381.7 679.513 378.6 675.713 378.6C670.213 378.6 668.113 385.1 668.113 393.3V403.9C668.113 409.6 668.613 415.1 670.013 420H649.713ZM725.878 420C727.278 415.1 727.778 409.6 727.778 403.9V357.7C727.778 352 726.978 346.6 724.778 342L744.278 338.4V367.8C748.478 364.6 753.378 363.4 758.278 363.4C770.478 363.4 776.378 371.7 776.378 381.7C776.378 389.1 773.278 394.4 766.778 397.4C769.678 405.2 773.778 412.6 779.278 420H759.778C756.378 414.1 753.878 407.8 752.578 401.6H744.278V403.9C744.278 409.6 744.778 415.1 746.178 420H725.878ZM744.278 390.9H751.478C756.378 390.9 759.378 388.2 759.378 384.1C759.378 380.6 757.178 377.8 753.078 377.8C748.378 377.8 744.278 381.5 744.278 389V390.9ZM784.772 420C786.172 415.1 786.672 409.6 786.672 403.9V382.5C786.672 376.8 785.872 371.4 783.672 366.8L801.572 363.6V372.1C804.372 366.4 808.772 363.4 814.472 363.4C821.172 363.4 827.072 367.7 827.072 376.2C827.072 384.5 821.572 388.6 813.472 388.6C815.272 381.7 812.872 378.6 809.272 378.6C803.972 378.6 803.172 385.1 803.172 395.3V403.9C803.172 409.6 803.972 415.1 806.072 420H784.772ZM832.493 421.6C826.193 421.6 821.493 416.7 821.493 410.6C821.493 404.5 826.193 399.6 832.493 399.6C838.793 399.6 843.493 404.5 843.493 410.6C843.493 416.7 838.793 421.6 832.493 421.6ZM58.6 532C60 527.1 60.5 521.6 60.5 515.9V494.5C60.5 488.8 59.7 483.4 57.5 478.8L77 475.4V515.9C77 521.6 77.5 527.1 78.9 532H58.6ZM68.2 468.8C60.9 468.8 57.9 464 57.9 459.6C57.9 455.2 60.9 450.4 68.2 450.4C75.5 450.4 78.5 455.2 78.5 459.6C78.5 464 75.5 468.8 68.2 468.8ZM106.166 532C107.566 527.1 108.066 521.6 108.066 515.9V468.1C108.066 462.4 107.566 456.9 106.166 452H127.566C126.166 456.9 125.666 462.4 125.666 468.1V484.2C132.966 475.1 139.866 463.2 141.566 452H161.566C157.866 463.6 152.866 472.3 143.466 482.7C154.066 484.9 158.666 494.1 159.666 505.1L160.766 516.7C161.366 523.2 163.366 527.8 166.866 532H146.066C143.966 527.4 143.266 523.3 142.966 519.1L142.166 505.8C141.766 499.5 138.866 496.4 134.066 496.4C129.266 496.4 125.666 499.5 125.666 505.9V515.9C125.666 521.6 126.366 527.1 128.166 532H106.166ZM171.679 532C173.079 527.1 173.579 521.6 173.579 515.9V469.7C173.579 464 172.779 458.6 170.579 454L190.079 450.4V515.9C190.079 521.6 190.579 527.1 191.979 532H171.679ZM216.134 533.6C205.134 533.6 197.734 526.8 197.734 516.5C197.734 506 205.434 500.7 217.034 500.7C222.134 500.7 226.234 501.8 229.134 503.7V497.3C229.134 492.2 226.034 489.9 221.834 489.9C218.034 489.9 214.734 491.8 214.734 495.6C214.734 496.5 214.934 497.6 215.234 498.5C208.534 499.9 200.734 496.7 200.734 488.9C200.734 479.9 211.034 475.4 221.934 475.4C235.934 475.4 245.634 483 245.634 494.9V515.3C245.634 521.5 247.234 526.6 250.734 530.3C247.834 532.2 244.434 533.6 240.734 533.6C236.634 533.6 232.934 532 231.134 527.1C227.934 531.1 222.834 533.6 216.134 533.6ZM221.934 520.9C226.434 520.9 229.734 518.9 229.734 515.6C229.734 512.3 226.434 510.4 221.934 510.4C217.434 510.4 214.234 512.3 214.234 515.6C214.234 518.9 217.434 520.9 221.934 520.9ZM274.891 533.6C263.491 533.6 253.591 528 253.591 519.1C253.591 511.2 261.591 508.3 268.391 509.7C267.991 510.7 267.791 512 267.791 513C267.791 517.1 270.991 519.6 274.891 519.6C278.491 519.6 281.091 517.5 281.091 514.5C281.091 511.1 277.891 509.4 273.591 508.4L267.791 507.1C260.591 505.5 254.291 501 254.291 492C254.291 482.9 260.791 475.4 275.591 475.4C282.291 475.4 289.491 476.9 293.991 480.3V497.1C289.191 492.3 281.491 489.5 275.491 489.5C272.191 489.5 270.491 490.3 270.491 492.1C270.491 493.8 271.991 494.4 275.491 495.2L280.891 496.5C288.991 498.5 297.591 502.7 297.591 514.1C297.591 525.9 288.091 533.6 274.891 533.6ZM323.72 533.6C312.32 533.6 302.42 528 302.42 519.1C302.42 511.2 310.42 508.3 317.22 509.7C316.82 510.7 316.62 512 316.62 513C316.62 517.1 319.82 519.6 323.72 519.6C327.32 519.6 329.92 517.5 329.92 514.5C329.92 511.1 326.72 509.4 322.42 508.4L316.62 507.1C309.42 505.5 303.12 501 303.12 492C303.12 482.9 309.62 475.4 324.42 475.4C331.12 475.4 338.32 476.9 342.82 480.3V497.1C338.02 492.3 330.32 489.5 324.32 489.5C321.02 489.5 319.32 490.3 319.32 492.1C319.32 493.8 320.82 494.4 324.32 495.2L329.72 496.5C337.82 498.5 346.42 502.7 346.42 514.1C346.42 525.9 336.92 533.6 323.72 533.6ZM376.748 533.6C360.348 533.6 351.248 520.7 351.248 504.4C351.248 489.1 359.148 475.4 375.848 475.4C390.348 475.4 397.348 485.6 397.948 500.8L369.248 510.5C371.448 516.3 376.248 518.3 382.048 518.3C387.648 518.3 392.748 516.4 396.648 512.9C398.048 522.2 392.248 533.6 376.748 533.6ZM368.148 500.5L382.748 495.5C382.248 492.6 380.148 489.6 376.148 489.6C371.048 489.6 368.548 494.4 368.148 500.5ZM403.612 532C405.013 527.1 405.513 521.6 405.513 515.9V469.7C405.513 464 404.713 458.6 402.513 454L422.013 450.4V515.9C422.013 521.6 422.513 527.1 423.913 532H403.612ZM455.368 533.6C436.768 533.6 429.568 520.5 429.568 504.5C429.568 488.5 436.768 475.4 455.368 475.4C473.968 475.4 481.168 488.5 481.168 504.5C481.168 520.5 473.968 533.6 455.368 533.6ZM455.368 518.3C461.068 518.3 464.168 513 464.168 504.5C464.168 496 461.068 490.7 455.368 490.7C449.668 490.7 446.568 496 446.568 504.5C446.568 513 449.668 518.3 455.368 518.3ZM503.613 533.6C498.013 533.6 492.413 530.4 492.413 519.3V492.1C490.713 492.1 487.313 492.3 485.413 493C484.613 490.5 484.213 488.2 484.213 486.1C484.213 480.1 487.513 477 492.813 477C492.813 473.8 491.913 471.3 491.913 469.1C491.913 464.3 496.413 460.5 503.213 460.5C505.713 460.5 508.013 461 510.113 461.7C509.213 466.5 508.913 471.5 508.913 477H521.713C521.713 473.8 520.813 471.3 520.813 469.1C520.813 464.3 525.313 460.5 532.113 460.5C534.613 460.5 536.913 461 539.013 461.7C538.113 466.5 537.813 471.5 537.813 477C541.613 477 545.613 476.5 548.913 475.4C549.513 477.8 549.713 479.9 549.713 481.6C549.713 488.8 546.313 492.1 540.213 492.1H537.813V515.3C537.813 521.5 539.413 526.6 542.913 530.3C539.813 532.3 536.113 533.6 532.513 533.6C526.913 533.6 521.313 530.4 521.313 519.3V492.1H508.913V515.3C508.913 521.5 510.513 526.6 514.013 530.3C510.913 532.3 507.213 533.6 503.613 533.6ZM576.455 533.6C560.055 533.6 550.955 520.7 550.955 504.4C550.955 489.1 558.855 475.4 575.555 475.4C590.055 475.4 597.055 485.6 597.655 500.8L568.955 510.5C571.155 516.3 575.955 518.3 581.755 518.3C587.355 518.3 592.455 516.4 596.355 512.9C597.755 522.2 591.955 533.6 576.455 533.6ZM567.855 500.5L582.455 495.5C581.955 492.6 579.855 489.6 575.855 489.6C570.755 489.6 568.255 494.4 567.855 500.5ZM603.62 532C605.02 527.1 605.52 521.6 605.52 515.9V494.5C605.52 488.8 604.72 483.4 602.52 478.8L620.42 475.6V484.1C623.22 478.4 627.62 475.4 633.32 475.4C640.02 475.4 645.92 479.7 645.92 488.2C645.92 496.5 640.42 500.6 632.32 500.6C634.12 493.7 631.72 490.6 628.12 490.6C622.82 490.6 622.02 497.1 622.02 507.3V515.9C622.02 521.6 622.82 527.1 624.92 532H603.62ZM650.202 532C651.602 527.1 652.102 521.6 652.102 515.9V494.5C652.102 488.8 651.302 483.4 649.102 478.8L668.602 475.4V515.9C668.602 521.6 669.102 527.1 670.502 532H650.202ZM659.802 468.8C652.502 468.8 649.502 464 649.502 459.6C649.502 455.2 652.502 450.4 659.802 450.4C667.102 450.4 670.102 455.2 670.102 459.6C670.102 464 667.102 468.8 659.802 468.8ZM701.748 533.6C685.348 533.6 676.248 520.7 676.248 504.4C676.248 489.1 684.148 475.4 700.848 475.4C715.348 475.4 722.348 485.6 722.948 500.8L694.248 510.5C696.448 516.3 701.248 518.3 707.048 518.3C712.648 518.3 717.748 516.4 721.648 512.9C723.048 522.2 717.248 533.6 701.748 533.6ZM693.148 500.5L707.748 495.5C707.248 492.6 705.148 489.6 701.148 489.6C696.048 489.6 693.548 494.4 693.148 500.5ZM745.313 533.6C739.713 533.6 734.113 530.4 734.113 519.3V492.1C732.413 492.1 729.013 492.3 727.113 493C726.313 490.5 725.913 488.2 725.913 486.1C725.913 480.1 729.213 477 734.513 477C734.513 473.8 733.613 471.3 733.613 469.1C733.613 464.3 738.113 460.5 744.913 460.5C747.413 460.5 749.713 461 751.813 461.7C750.913 466.5 750.613 471.5 750.613 477C754.413 477 758.413 476.5 761.713 475.4C762.313 477.8 762.513 479.9 762.513 481.6C762.513 488.8 759.113 492.1 753.013 492.1H750.613V515.3C750.613 521.5 752.213 526.6 755.713 530.3C752.613 532.3 748.913 533.6 745.313 533.6Z" fill="#FFF0D3"/>
<path d="M64.894 626H56.326C56.802 624.334 56.972 622.464 56.972 620.526V604.274C56.972 602.336 56.802 600.466 56.326 598.8H64.894C72.51 598.8 76.862 603.356 76.862 612.4C76.862 621.444 72.51 626 64.894 626ZM62.956 620.56H64.69C68.94 620.56 70.742 618.044 70.742 612.4C70.742 606.756 68.94 604.24 64.69 604.24H62.956V620.56ZM87.3962 626.544C81.8202 626.544 78.7262 622.158 78.7262 616.616C78.7262 611.414 81.4122 606.756 87.0902 606.756C92.0202 606.756 94.4002 610.224 94.6042 615.392L84.8462 618.69C85.5942 620.662 87.2262 621.342 89.1982 621.342C91.1022 621.342 92.8362 620.696 94.1622 619.506C94.6382 622.668 92.6662 626.544 87.3962 626.544ZM84.4722 615.29L89.4362 613.59C89.2662 612.604 88.5522 611.584 87.1922 611.584C85.4582 611.584 84.6082 613.216 84.4722 615.29ZM102.208 626.544C100.304 626.544 98.4002 625.456 98.4002 621.682V612.434C97.8222 612.434 96.6662 612.502 96.0202 612.74C95.7482 611.89 95.6122 611.108 95.6122 610.394C95.6122 608.354 96.7342 607.3 98.5362 607.3C98.5362 606.212 98.2302 605.362 98.2302 604.614C98.2302 602.982 99.7602 601.69 102.072 601.69C102.922 601.69 103.704 601.86 104.418 602.098C104.112 603.73 104.01 605.43 104.01 607.3C105.302 607.3 106.662 607.13 107.784 606.756C107.988 607.572 108.056 608.286 108.056 608.864C108.056 611.312 106.9 612.434 104.826 612.434H104.01V620.322C104.01 622.43 104.554 624.164 105.744 625.422C104.69 626.102 103.432 626.544 102.208 626.544ZM116.322 626C116.798 624.334 116.968 622.464 116.968 620.526V613.25C116.968 611.312 116.696 609.476 115.948 607.912L122.034 606.824V609.442C122.986 607.64 124.516 606.756 126.794 606.756C129.378 606.756 130.84 607.946 131.622 609.816C132.54 607.81 134.104 606.756 136.552 606.756C140.87 606.756 142.094 610.156 142.094 614.168V620.526C142.094 622.464 142.264 624.334 142.74 626H135.838C136.314 624.334 136.484 622.464 136.484 620.526V614.678C136.484 612.978 135.94 611.924 134.648 611.924C132.778 611.924 132.336 614.134 132.336 616.922V620.526C132.336 622.464 132.506 624.334 132.982 626H126.08C126.556 624.334 126.726 622.464 126.726 620.526V614.678C126.726 612.978 126.182 611.924 124.89 611.924C123.02 611.924 122.578 614.134 122.578 616.922V620.526C122.578 622.464 122.748 624.334 123.224 626H116.322ZM150.858 626.544C147.118 626.544 144.602 624.232 144.602 620.73C144.602 617.16 147.22 615.358 151.164 615.358C152.898 615.358 154.292 615.732 155.278 616.378V614.202C155.278 612.468 154.224 611.686 152.796 611.686C151.504 611.686 150.382 612.332 150.382 613.624C150.382 613.93 150.45 614.304 150.552 614.61C148.274 615.086 145.622 613.998 145.622 611.346C145.622 608.286 149.124 606.756 152.83 606.756C157.59 606.756 160.888 609.34 160.888 613.386V620.322C160.888 622.43 161.432 624.164 162.622 625.422C161.636 626.068 160.48 626.544 159.222 626.544C157.828 626.544 156.57 626 155.958 624.334C154.87 625.694 153.136 626.544 150.858 626.544ZM152.83 622.226C154.36 622.226 155.482 621.546 155.482 620.424C155.482 619.302 154.36 618.656 152.83 618.656C151.3 618.656 150.212 619.302 150.212 620.424C150.212 621.546 151.3 622.226 152.83 622.226ZM152.83 605.226C150.484 605.226 148.716 603.56 148.716 601.282C148.716 599.004 150.484 597.338 152.83 597.338C155.176 597.338 156.944 599.004 156.944 601.282C156.944 603.56 155.176 605.226 152.83 605.226ZM152.83 603.254C154.054 603.254 154.904 602.438 154.904 601.282C154.904 600.126 154.054 599.31 152.83 599.31C151.606 599.31 150.756 600.126 150.756 601.282C150.756 602.438 151.606 603.254 152.83 603.254ZM182.47 633.344C182.606 631.304 180.634 630.624 178.322 630.08L175.738 629.502C173.324 628.924 171.216 628.04 171.216 625.592C171.216 623.994 172.1 622.838 173.868 622.158C171.488 620.628 170.502 617.874 170.502 615.086C170.502 611.21 172.406 607.402 177.268 606.824C176.996 605.634 176.724 604.036 176.724 602.71C176.724 599.412 178.526 598.256 180.192 598.256C181.824 598.256 183.218 599.378 183.218 601.214C183.218 603.832 180.43 604.24 180.26 606.892C184.884 607.606 186.686 611.312 186.686 615.086C186.686 619.302 184.442 623.416 178.594 623.416C177.608 623.416 176.792 623.552 176.792 624.266C176.792 624.81 177.268 625.116 178.594 625.286L182.64 625.728C185.428 626.034 187.57 627.156 187.57 629.468C187.57 632.426 184.136 633.31 182.47 633.344ZM178.594 618.384C180.26 618.384 181.178 616.922 181.178 615.086C181.178 613.25 180.26 611.788 178.594 611.788C176.928 611.788 176.01 613.25 176.01 615.086C176.01 616.922 176.928 618.384 178.594 618.384ZM197.301 626.544C190.977 626.544 188.529 622.09 188.529 616.65C188.529 611.21 190.977 606.756 197.301 606.756C203.625 606.756 206.073 611.21 206.073 616.65C206.073 622.09 203.625 626.544 197.301 626.544ZM197.301 621.342C199.239 621.342 200.293 619.54 200.293 616.65C200.293 613.76 199.239 611.958 197.301 611.958C195.363 611.958 194.309 613.76 194.309 616.65C194.309 619.54 195.363 621.342 197.301 621.342ZM215.26 626.544C210.5 626.544 208.052 622.09 208.052 616.65C208.052 611.21 210.5 606.756 215.26 606.756C217.028 606.756 218.524 607.334 219.612 608.626V604.818C219.612 602.88 219.34 601.044 218.592 599.48L225.222 598.256V620.322C225.222 622.43 225.766 624.164 226.956 625.422C225.97 626.068 224.814 626.544 223.556 626.544C222.06 626.544 220.666 625.83 220.156 623.926C219.068 625.694 217.334 626.544 215.26 626.544ZM216.79 621.342C218.66 621.342 219.68 619.54 219.68 616.65C219.68 613.76 218.66 611.958 216.79 611.958C214.886 611.958 213.832 613.76 213.832 616.65C213.832 619.54 214.886 621.342 216.79 621.342ZM233.659 626.544C231.755 626.544 229.851 625.456 229.851 621.682V612.434C229.273 612.434 228.117 612.502 227.471 612.74C227.199 611.89 227.063 611.108 227.063 610.394C227.063 608.354 228.185 607.3 229.987 607.3C229.987 606.212 229.681 605.362 229.681 604.614C229.681 602.982 231.211 601.69 233.523 601.69C234.373 601.69 235.155 601.86 235.869 602.098C235.563 603.73 235.461 605.43 235.461 607.3C236.753 607.3 238.113 607.13 239.235 606.756C239.439 607.572 239.507 608.286 239.507 608.864C239.507 611.312 238.351 612.434 236.277 612.434H235.461V620.322C235.461 622.43 236.005 624.164 237.195 625.422C236.141 626.102 234.883 626.544 233.659 626.544ZM252.669 626L248.691 612.638C248.147 610.768 247.467 608.966 246.651 607.3H254.063C253.689 608.626 253.825 610.088 254.199 611.584L256.273 619.37L258.517 611.584C258.925 610.088 259.095 608.626 258.721 607.3H265.759C264.943 608.966 264.263 610.768 263.651 612.604L259.333 626H252.669ZM271.984 626.544C268.21 626.544 265.694 624.232 265.694 620.73C265.694 617.16 268.312 615.358 272.256 615.358C273.99 615.358 275.384 615.732 276.37 616.378V614.202C276.37 612.468 275.282 611.686 273.888 611.686C272.596 611.686 271.474 612.366 271.474 613.624C271.474 613.93 271.542 614.304 271.644 614.61C269.366 615.086 266.714 613.998 266.714 611.346C266.714 608.286 270.216 606.756 273.888 606.756C276.2 606.756 278.24 607.402 279.634 608.456C280.926 607.402 282.66 606.756 284.734 606.756C289.664 606.756 292.044 610.224 292.248 615.392L282.49 618.69C283.238 620.662 284.87 621.342 286.842 621.342C288.746 621.342 290.48 620.696 291.806 619.506C292.282 622.668 290.31 626.544 285.04 626.544C282.014 626.544 279.736 625.286 278.24 623.212C277.152 625.184 274.874 626.544 271.984 626.544ZM273.922 622.226C275.452 622.226 276.574 621.546 276.574 620.424C276.574 619.302 275.452 618.656 273.922 618.656C272.392 618.656 271.304 619.302 271.304 620.424C271.304 621.546 272.392 622.226 273.922 622.226ZM282.116 615.29L287.08 613.59C286.91 612.604 286.196 611.584 284.836 611.584C283.102 611.584 282.252 613.216 282.116 615.29ZM294.29 626C294.766 624.334 294.936 622.464 294.936 620.526V613.25C294.936 611.312 294.664 609.476 293.916 607.912L300.002 606.824V609.714C300.954 607.776 302.45 606.756 304.388 606.756C306.666 606.756 308.672 608.218 308.672 611.108C308.672 613.93 306.802 615.324 304.048 615.324C304.66 612.978 303.844 611.924 302.62 611.924C300.818 611.924 300.546 614.134 300.546 617.602V620.526C300.546 622.464 300.818 624.334 301.532 626H294.29ZM318.224 626.544C312.648 626.544 309.554 622.158 309.554 616.616C309.554 611.414 312.24 606.756 317.918 606.756C322.848 606.756 325.228 610.224 325.432 615.392L315.674 618.69C316.422 620.662 318.054 621.342 320.026 621.342C321.93 621.342 323.664 620.696 324.99 619.506C325.466 622.668 323.494 626.544 318.224 626.544ZM315.3 615.29L320.264 613.59C320.094 612.604 319.38 611.584 318.02 611.584C316.286 611.584 315.436 613.216 315.3 615.29ZM342.529 626.544C336.953 626.544 333.859 622.158 333.859 616.616C333.859 611.414 336.545 606.756 342.223 606.756C347.153 606.756 349.533 610.224 349.737 615.392L339.979 618.69C340.727 620.662 342.359 621.342 344.331 621.342C346.235 621.342 347.969 620.696 349.295 619.506C349.771 622.668 347.799 626.544 342.529 626.544ZM339.605 615.29L344.569 613.59C344.399 612.604 343.685 611.584 342.325 611.584C340.591 611.584 339.741 613.216 339.605 615.29ZM351.765 626C352.241 624.334 352.411 622.464 352.411 620.526V613.25C352.411 611.312 352.139 609.476 351.391 607.912L357.477 606.824V609.544C358.429 607.708 360.027 606.756 362.339 606.756C366.657 606.756 368.051 610.156 368.051 614.168V620.526C368.051 622.464 368.221 624.334 368.697 626H361.795C362.271 624.334 362.441 622.464 362.441 620.526V614.678C362.441 612.978 361.897 611.924 360.605 611.924C358.735 611.924 358.021 614.134 358.021 616.922V620.526C358.021 622.464 358.191 624.334 358.667 626H351.765ZM384.597 626.544C380.721 626.544 377.355 624.64 377.355 621.614C377.355 618.928 380.075 617.942 382.387 618.418C382.251 618.758 382.183 619.2 382.183 619.54C382.183 620.934 383.271 621.784 384.597 621.784C385.821 621.784 386.705 621.07 386.705 620.05C386.705 618.894 385.617 618.316 384.155 617.976L382.183 617.534C379.735 616.99 377.593 615.46 377.593 612.4C377.593 609.306 379.803 606.756 384.835 606.756C387.113 606.756 389.561 607.266 391.091 608.422V614.134C389.459 612.502 386.841 611.55 384.801 611.55C383.679 611.55 383.101 611.822 383.101 612.434C383.101 613.012 383.611 613.216 384.801 613.488L386.637 613.93C389.391 614.61 392.315 616.038 392.315 619.914C392.315 623.926 389.085 626.544 384.597 626.544ZM394.365 626C394.841 624.334 395.011 622.464 395.011 620.526V613.25C395.011 611.312 394.739 609.476 393.991 607.912L400.077 606.824V609.442C401.029 607.64 402.559 606.756 404.837 606.756C407.421 606.756 408.883 607.946 409.665 609.816C410.583 607.81 412.147 606.756 414.595 606.756C418.913 606.756 420.137 610.156 420.137 614.168V620.526C420.137 622.464 420.307 624.334 420.783 626H413.881C414.357 624.334 414.527 622.464 414.527 620.526V614.678C414.527 612.978 413.983 611.924 412.691 611.924C410.821 611.924 410.379 614.134 410.379 616.922V620.526C410.379 622.464 410.549 624.334 411.025 626H404.123C404.599 624.334 404.769 622.464 404.769 620.526V614.678C404.769 612.978 404.225 611.924 402.933 611.924C401.063 611.924 400.621 614.134 400.621 616.922V620.526C400.621 622.464 400.791 624.334 401.267 626H394.365ZM429.139 626.544C424.821 626.544 423.427 623.144 423.427 619.132V613.25C423.427 611.312 423.155 609.476 422.407 607.912L429.037 606.756V618.622C429.037 620.322 429.581 621.376 430.873 621.376C432.743 621.376 433.457 619.166 433.457 616.378V613.25C433.457 611.312 433.185 609.476 432.437 607.912L439.067 606.756V620.322C439.067 622.43 439.611 624.164 440.801 625.422C439.815 626.068 438.659 626.544 437.401 626.544C435.871 626.544 434.477 625.864 433.967 623.824C432.981 625.66 431.451 626.544 429.139 626.544ZM442.308 626C442.784 624.334 442.954 622.464 442.954 620.526V604.818C442.954 602.88 442.682 601.044 441.934 599.48L448.564 598.256V620.526C448.564 622.464 448.734 624.334 449.21 626H442.308ZM459.802 626.544C454.226 626.544 451.132 622.158 451.132 616.616C451.132 611.414 453.818 606.756 459.496 606.756C464.426 606.756 466.806 610.224 467.01 615.392L457.252 618.69C458 620.662 459.632 621.342 461.604 621.342C463.508 621.342 465.242 620.696 466.568 619.506C467.044 622.668 465.072 626.544 459.802 626.544ZM456.878 615.29L461.842 613.59C461.672 612.604 460.958 611.584 459.598 611.584C457.864 611.584 457.014 613.216 456.878 615.29ZM477.613 626C478.089 624.334 478.259 622.464 478.259 620.526V612.366C477.239 612.4 476.253 612.502 475.437 612.74C475.063 611.822 474.825 610.972 474.825 610.156C474.825 608.694 475.573 607.572 477.647 607.334C476.865 605.804 476.525 604.682 476.525 603.56C476.525 600.16 479.653 598.256 483.563 598.256C486.589 598.256 489.445 599.446 489.445 602.064C489.445 604.648 486.657 605.09 484.957 605.124C484.991 604.92 484.991 604.784 484.991 604.648C484.991 603.73 484.583 603.152 483.767 603.152C483.087 603.152 482.339 603.56 482.339 604.58C482.339 605.362 482.815 606.416 483.427 607.3H484.617C486.181 607.3 487.439 607.13 488.493 606.824C488.697 607.64 488.799 608.354 488.799 609C488.799 611.21 487.575 612.434 485.535 612.434H483.869V620.526C483.869 622.464 484.141 624.334 484.855 626H477.613ZM497.953 626.544C492.377 626.544 489.283 622.158 489.283 616.616C489.283 611.414 491.969 606.756 497.647 606.756C502.577 606.756 504.957 610.224 505.161 615.392L495.403 618.69C496.151 620.662 497.783 621.342 499.755 621.342C501.659 621.342 503.393 620.696 504.719 619.506C505.195 622.668 503.223 626.544 497.953 626.544ZM495.029 615.29L499.993 613.59C499.823 612.604 499.109 611.584 497.749 611.584C496.015 611.584 495.165 613.216 495.029 615.29ZM514.023 626.544C510.147 626.544 506.781 624.64 506.781 621.614C506.781 618.928 509.501 617.942 511.813 618.418C511.677 618.758 511.609 619.2 511.609 619.54C511.609 620.934 512.697 621.784 514.023 621.784C515.247 621.784 516.131 621.07 516.131 620.05C516.131 618.894 515.043 618.316 513.581 617.976L511.609 617.534C509.161 616.99 507.019 615.46 507.019 612.4C507.019 609.306 509.229 606.756 514.261 606.756C516.539 606.756 518.987 607.266 520.517 608.422V614.134C518.885 612.502 516.267 611.55 514.227 611.55C513.105 611.55 512.527 611.822 512.527 612.434C512.527 613.012 513.037 613.216 514.227 613.488L516.063 613.93C518.817 614.61 521.741 616.038 521.741 619.914C521.741 623.926 518.511 626.544 514.023 626.544ZM529.034 626.544C527.13 626.544 525.226 625.456 525.226 621.682V612.434C524.648 612.434 523.492 612.502 522.846 612.74C522.574 611.89 522.438 611.108 522.438 610.394C522.438 608.354 523.56 607.3 525.362 607.3C525.362 606.212 525.056 605.362 525.056 604.614C525.056 602.982 526.586 601.69 528.898 601.69C529.748 601.69 530.53 601.86 531.244 602.098C530.938 603.73 530.836 605.43 530.836 607.3C532.128 607.3 533.488 607.13 534.61 606.756C534.814 607.572 534.882 608.286 534.882 608.864C534.882 611.312 533.726 612.434 531.652 612.434H530.836V620.322C530.836 622.43 531.38 624.164 532.57 625.422C531.516 626.102 530.258 626.544 529.034 626.544ZM536.239 626C536.715 624.334 536.885 622.464 536.885 620.526V604.818C536.885 602.88 536.613 601.044 535.865 599.48L542.495 598.256V620.526C542.495 622.464 542.665 624.334 543.141 626H536.239ZM545.472 626C545.948 624.334 546.118 622.464 546.118 620.526V613.25C546.118 611.312 545.846 609.476 545.098 607.912L551.728 606.756V620.526C551.728 622.464 551.898 624.334 552.374 626H545.472ZM548.736 604.512C546.254 604.512 545.234 602.88 545.234 601.384C545.234 599.888 546.254 598.256 548.736 598.256C551.218 598.256 552.238 599.888 552.238 601.384C552.238 602.88 551.218 604.512 548.736 604.512ZM566.398 633.344C566.534 631.304 564.562 630.624 562.25 630.08L559.666 629.502C557.252 628.924 555.144 628.04 555.144 625.592C555.144 623.994 556.028 622.838 557.796 622.158C555.416 620.628 554.43 617.874 554.43 615.086C554.43 611.21 556.334 607.402 561.196 606.824C560.924 605.634 560.652 604.036 560.652 602.71C560.652 599.412 562.454 598.256 564.12 598.256C565.752 598.256 567.146 599.378 567.146 601.214C567.146 603.832 564.358 604.24 564.188 606.892C568.812 607.606 570.614 611.312 570.614 615.086C570.614 619.302 568.37 623.416 562.522 623.416C561.536 623.416 560.72 623.552 560.72 624.266C560.72 624.81 561.196 625.116 562.522 625.286L566.568 625.728C569.356 626.034 571.498 627.156 571.498 629.468C571.498 632.426 568.064 633.31 566.398 633.344ZM562.522 618.384C564.188 618.384 565.106 616.922 565.106 615.086C565.106 613.25 564.188 611.788 562.522 611.788C560.856 611.788 559.938 613.25 559.938 615.086C559.938 616.922 560.856 618.384 562.522 618.384ZM578.275 626.544C576.371 626.544 574.467 625.456 574.467 621.682V612.434C573.889 612.434 572.733 612.502 572.087 612.74C571.815 611.89 571.679 611.108 571.679 610.394C571.679 608.354 572.801 607.3 574.603 607.3C574.603 606.212 574.297 605.362 574.297 604.614C574.297 602.982 575.827 601.69 578.139 601.69C578.989 601.69 579.771 601.86 580.485 602.098C580.179 603.73 580.077 605.43 580.077 607.3C581.369 607.3 582.729 607.13 583.851 606.756C584.055 607.572 584.123 608.286 584.123 608.864C584.123 611.312 582.967 612.434 580.893 612.434H580.077V620.322C580.077 622.43 580.621 624.164 581.811 625.422C580.757 626.102 579.499 626.544 578.275 626.544ZM589.864 633.072C587.858 633.616 585.41 632.97 585.41 630.522C585.41 628.788 586.634 627.666 587.892 626.544C585.852 626.51 584.254 624.844 584.254 622.804C584.254 620.73 585.852 619.064 587.994 619.064C590.204 619.064 591.87 620.832 591.87 623.212C591.87 626.238 589.252 628.346 589.252 630.964C589.252 631.644 589.422 632.324 589.864 633.072ZM601.154 626C601.63 624.334 601.8 622.464 601.8 620.526V613.25C601.8 611.312 601.528 609.476 600.78 607.912L606.866 606.824V609.544C607.818 607.708 609.416 606.756 611.728 606.756C616.046 606.756 617.44 610.156 617.44 614.168V620.526C617.44 622.464 617.61 624.334 618.086 626H611.184C611.66 624.334 611.83 622.464 611.83 620.526V614.678C611.83 612.978 611.286 611.924 609.994 611.924C608.124 611.924 607.41 614.134 607.41 616.922V620.526C607.41 622.464 607.58 624.334 608.056 626H601.154ZM626.227 626.544C622.487 626.544 619.971 624.232 619.971 620.73C619.971 617.16 622.589 615.358 626.533 615.358C628.267 615.358 629.661 615.732 630.647 616.378V614.202C630.647 612.468 629.593 611.686 628.165 611.686C626.873 611.686 625.751 612.332 625.751 613.624C625.751 613.93 625.819 614.304 625.921 614.61C623.643 615.086 620.991 613.998 620.991 611.346C620.991 608.286 624.493 606.756 628.199 606.756C632.959 606.756 636.257 609.34 636.257 613.386V620.322C636.257 622.43 636.801 624.164 637.991 625.422C637.005 626.068 635.849 626.544 634.591 626.544C633.197 626.544 631.939 626 631.327 624.334C630.239 625.694 628.505 626.544 626.227 626.544ZM628.199 622.226C629.729 622.226 630.851 621.546 630.851 620.424C630.851 619.302 629.729 618.656 628.199 618.656C626.669 618.656 625.581 619.302 625.581 620.424C625.581 621.546 626.669 622.226 628.199 622.226ZM628.199 605.226C625.853 605.226 624.085 603.56 624.085 601.282C624.085 599.004 625.853 597.338 628.199 597.338C630.545 597.338 632.313 599.004 632.313 601.282C632.313 603.56 630.545 605.226 628.199 605.226ZM628.199 603.254C629.423 603.254 630.273 602.438 630.273 601.282C630.273 600.126 629.423 599.31 628.199 599.31C626.975 599.31 626.125 600.126 626.125 601.282C626.125 602.438 626.975 603.254 628.199 603.254ZM639.37 626C639.846 624.334 640.016 622.464 640.016 620.526V613.25C640.016 611.312 639.744 609.476 638.996 607.912L645.082 606.824V609.714C646.034 607.776 647.53 606.756 649.468 606.756C651.746 606.756 653.752 608.218 653.752 611.108C653.752 613.93 651.882 615.324 649.128 615.324C649.74 612.978 648.924 611.924 647.7 611.924C645.898 611.924 645.626 614.134 645.626 617.602V620.526C645.626 622.464 645.898 624.334 646.612 626H639.37ZM662.015 626C662.491 624.334 662.661 622.464 662.661 620.526V613.25C662.661 611.312 662.389 609.476 661.641 607.912L667.727 606.824V609.442C668.679 607.64 670.209 606.756 672.487 606.756C675.071 606.756 676.533 607.946 677.315 609.816C678.233 607.81 679.797 606.756 682.245 606.756C686.563 606.756 687.787 610.156 687.787 614.168V620.526C687.787 622.464 687.957 624.334 688.433 626H681.531C682.007 624.334 682.177 622.464 682.177 620.526V614.678C682.177 612.978 681.633 611.924 680.341 611.924C678.471 611.924 678.029 614.134 678.029 616.922V620.526C678.029 622.464 678.199 624.334 678.675 626H671.773C672.249 624.334 672.419 622.464 672.419 620.526V614.678C672.419 612.978 671.875 611.924 670.583 611.924C668.713 611.924 668.271 614.134 668.271 616.922V620.526C668.271 622.464 668.441 624.334 668.917 626H662.015ZM696.551 626.544C692.811 626.544 690.295 624.232 690.295 620.73C690.295 617.16 692.913 615.358 696.857 615.358C698.591 615.358 699.985 615.732 700.971 616.378V614.202C700.971 612.468 699.917 611.686 698.489 611.686C697.197 611.686 696.075 612.332 696.075 613.624C696.075 613.93 696.143 614.304 696.245 614.61C693.967 615.086 691.315 613.998 691.315 611.346C691.315 608.286 694.817 606.756 698.523 606.756C703.283 606.756 706.581 609.34 706.581 613.386V620.322C706.581 622.43 707.125 624.164 708.315 625.422C707.329 626.068 706.173 626.544 704.915 626.544C703.521 626.544 702.263 626 701.651 624.334C700.563 625.694 698.829 626.544 696.551 626.544ZM698.523 622.226C700.053 622.226 701.175 621.546 701.175 620.424C701.175 619.302 700.053 618.656 698.523 618.656C696.993 618.656 695.905 619.302 695.905 620.424C695.905 621.546 696.993 622.226 698.523 622.226ZM709.695 626C710.171 624.334 710.341 622.464 710.341 620.526V613.25C710.341 611.312 710.069 609.476 709.321 607.912L715.407 606.824V609.544C716.359 607.708 717.957 606.756 720.269 606.756C724.587 606.756 725.981 610.156 725.981 614.168V620.526C725.981 622.464 726.151 624.334 726.627 626H719.725C720.201 624.334 720.371 622.464 720.371 620.526V614.678C720.371 612.978 719.827 611.924 718.535 611.924C716.665 611.924 715.951 614.134 715.951 616.922V620.526C715.951 622.464 716.121 624.334 716.597 626H709.695ZM740.589 626L736.611 612.638C736.067 610.768 735.387 608.966 734.571 607.3H741.983C741.609 608.626 741.745 610.088 742.119 611.584L744.193 619.37L746.437 611.584C746.845 610.088 747.015 608.626 746.641 607.3H753.679C752.863 608.966 752.183 610.768 751.571 612.604L747.253 626H740.589ZM755.017 626C755.493 624.334 755.663 622.464 755.663 620.526V613.25C755.663 611.312 755.391 609.476 754.643 607.912L761.273 606.756V620.526C761.273 622.464 761.443 624.334 761.919 626H755.017ZM758.281 604.512C755.799 604.512 754.779 602.88 754.779 601.384C754.779 599.888 755.799 598.256 758.281 598.256C760.763 598.256 761.783 599.888 761.783 601.384C761.783 602.88 760.763 604.512 758.281 604.512ZM764.281 626C764.757 624.334 764.927 622.464 764.927 620.526V613.25C764.927 611.312 764.655 609.476 763.907 607.912L769.993 606.824V609.544C770.945 607.708 772.543 606.756 774.855 606.756C779.173 606.756 780.567 610.156 780.567 614.168V620.526C780.567 622.464 780.737 624.334 781.213 626H774.311C774.787 624.334 774.957 622.464 774.957 620.526V614.678C774.957 612.978 774.413 611.924 773.121 611.924C771.251 611.924 770.537 614.134 770.537 616.922V620.526C770.537 622.464 770.707 624.334 771.183 626H764.281ZM790.272 626.544C785.512 626.544 783.064 622.09 783.064 616.65C783.064 611.21 785.512 606.756 790.272 606.756C792.04 606.756 793.536 607.334 794.624 608.626V604.818C794.624 602.88 794.352 601.044 793.604 599.48L800.234 598.256V620.322C800.234 622.43 800.778 624.164 801.968 625.422C800.982 626.068 799.826 626.544 798.568 626.544C797.072 626.544 795.678 625.83 795.168 623.926C794.08 625.694 792.346 626.544 790.272 626.544ZM791.802 621.342C793.672 621.342 794.692 619.54 794.692 616.65C794.692 613.76 793.672 611.958 791.802 611.958C789.898 611.958 788.844 613.76 788.844 616.65C788.844 619.54 789.898 621.342 791.802 621.342ZM811.689 626.544C806.113 626.544 803.019 622.158 803.019 616.616C803.019 611.414 805.705 606.756 811.383 606.756C816.313 606.756 818.693 610.224 818.897 615.392L809.139 618.69C809.887 620.662 811.519 621.342 813.491 621.342C815.395 621.342 817.129 620.696 818.455 619.506C818.931 622.668 816.959 626.544 811.689 626.544ZM808.765 615.29L813.729 613.59C813.559 612.604 812.845 611.584 811.485 611.584C809.751 611.584 808.901 613.216 808.765 615.29ZM820.925 626C821.401 624.334 821.571 622.464 821.571 620.526V613.25C821.571 611.312 821.299 609.476 820.551 607.912L826.637 606.824V609.714C827.589 607.776 829.085 606.756 831.023 606.756C833.301 606.756 835.307 608.218 835.307 611.108C835.307 613.93 833.437 615.324 830.683 615.324C831.295 612.978 830.479 611.924 829.255 611.924C827.453 611.924 827.181 614.134 827.181 617.602V620.526C827.181 622.464 827.453 624.334 828.167 626H820.925ZM63.024 678.544C58.264 678.544 55.816 674.09 55.816 668.65C55.816 663.21 58.264 658.756 63.024 658.756C64.792 658.756 66.288 659.334 67.376 660.626V656.818C67.376 654.88 67.104 653.044 66.356 651.48L72.986 650.256V672.322C72.986 674.43 73.53 676.164 74.72 677.422C73.734 678.068 72.578 678.544 71.32 678.544C69.824 678.544 68.43 677.83 67.92 675.926C66.832 677.694 65.098 678.544 63.024 678.544ZM64.554 673.342C66.424 673.342 67.444 671.54 67.444 668.65C67.444 665.76 66.424 663.958 64.554 663.958C62.65 663.958 61.596 665.76 61.596 668.65C61.596 671.54 62.65 673.342 64.554 673.342ZM84.4411 678.544C78.8651 678.544 75.7711 674.158 75.7711 668.616C75.7711 663.414 78.4571 658.756 84.1351 658.756C89.0651 658.756 91.4451 662.224 91.6491 667.392L81.8911 670.69C82.6391 672.662 84.2711 673.342 86.2431 673.342C88.1471 673.342 89.8811 672.696 91.2071 671.506C91.6831 674.668 89.7111 678.544 84.4411 678.544ZM81.5171 667.29L86.4811 665.59C86.3111 664.604 85.5971 663.584 84.2371 663.584C82.5031 663.584 81.6531 665.216 81.5171 667.29ZM93.6771 678C94.1531 676.334 94.3231 674.464 94.3231 672.526V665.25C94.3231 663.312 94.0511 661.476 93.3031 659.912L99.3891 658.824V661.544C100.341 659.708 101.939 658.756 104.251 658.756C108.569 658.756 109.963 662.156 109.963 666.168V672.526C109.963 674.464 110.133 676.334 110.609 678H103.707C104.183 676.334 104.353 674.464 104.353 672.526V666.678C104.353 664.978 103.809 663.924 102.517 663.924C100.647 663.924 99.9331 666.134 99.9331 668.922V672.526C99.9331 674.464 100.103 676.334 100.579 678H93.6771ZM126.509 678.544C122.633 678.544 119.267 676.64 119.267 673.614C119.267 670.928 121.987 669.942 124.299 670.418C124.163 670.758 124.095 671.2 124.095 671.54C124.095 672.934 125.183 673.784 126.509 673.784C127.733 673.784 128.617 673.07 128.617 672.05C128.617 670.894 127.529 670.316 126.067 669.976L124.095 669.534C121.647 668.99 119.505 667.46 119.505 664.4C119.505 661.306 121.715 658.756 126.747 658.756C129.025 658.756 131.473 659.266 133.003 660.422V666.134C131.371 664.502 128.753 663.55 126.713 663.55C125.591 663.55 125.013 663.822 125.013 664.434C125.013 665.012 125.523 665.216 126.713 665.488L128.549 665.93C131.303 666.61 134.227 668.038 134.227 671.914C134.227 675.926 130.997 678.544 126.509 678.544ZM141.521 678.544C139.617 678.544 137.713 677.456 137.713 673.682V664.434C137.135 664.434 135.979 664.502 135.333 664.74C135.061 663.89 134.925 663.108 134.925 662.394C134.925 660.354 136.047 659.3 137.849 659.3C137.849 658.212 137.543 657.362 137.543 656.614C137.543 654.982 139.073 653.69 141.385 653.69C142.235 653.69 143.017 653.86 143.731 654.098C143.425 655.73 143.323 657.43 143.323 659.3C144.615 659.3 145.975 659.13 147.097 658.756C147.301 659.572 147.369 660.286 147.369 660.864C147.369 663.312 146.213 664.434 144.139 664.434H143.323V672.322C143.323 674.43 143.867 676.164 145.057 677.422C144.003 678.102 142.745 678.544 141.521 678.544ZM156.859 678.544C150.535 678.544 148.087 674.09 148.087 668.65C148.087 663.21 150.535 658.756 156.859 658.756C163.183 658.756 165.631 663.21 165.631 668.65C165.631 674.09 163.183 678.544 156.859 678.544ZM156.859 673.342C158.797 673.342 159.851 671.54 159.851 668.65C159.851 665.76 158.797 663.958 156.859 663.958C154.921 663.958 153.867 665.76 153.867 668.65C153.867 671.54 154.921 673.342 156.859 673.342ZM167.687 678C168.163 676.334 168.333 674.464 168.333 672.526V665.25C168.333 663.312 168.061 661.476 167.313 659.912L173.399 658.824V661.714C174.351 659.776 175.847 658.756 177.785 658.756C180.063 658.756 182.069 660.218 182.069 663.108C182.069 665.93 180.199 667.324 177.445 667.324C178.057 664.978 177.241 663.924 176.017 663.924C174.215 663.924 173.943 666.134 173.943 669.602V672.526C173.943 674.464 174.215 676.334 174.929 678H167.687ZM191.621 678.544C186.045 678.544 182.951 674.158 182.951 668.616C182.951 663.414 185.637 658.756 191.315 658.756C196.245 658.756 198.625 662.224 198.829 667.392L189.071 670.69C189.819 672.662 191.451 673.342 193.423 673.342C195.327 673.342 197.061 672.696 198.387 671.506C198.863 674.668 196.891 678.544 191.621 678.544ZM188.697 667.29L193.661 665.59C193.491 664.604 192.777 663.584 191.417 663.584C189.683 663.584 188.833 665.216 188.697 667.29ZM219.325 685.344C219.461 683.304 217.489 682.624 215.177 682.08L212.593 681.502C210.179 680.924 208.071 680.04 208.071 677.592C208.071 675.994 208.955 674.838 210.723 674.158C208.343 672.628 207.357 669.874 207.357 667.086C207.357 663.21 209.261 659.402 214.123 658.824C213.851 657.634 213.579 656.036 213.579 654.71C213.579 651.412 215.381 650.256 217.047 650.256C218.679 650.256 220.073 651.378 220.073 653.214C220.073 655.832 217.285 656.24 217.115 658.892C221.739 659.606 223.541 663.312 223.541 667.086C223.541 671.302 221.297 675.416 215.449 675.416C214.463 675.416 213.647 675.552 213.647 676.266C213.647 676.81 214.123 677.116 215.449 677.286L219.495 677.728C222.283 678.034 224.425 679.156 224.425 681.468C224.425 684.426 220.991 685.31 219.325 685.344ZM215.449 670.384C217.115 670.384 218.033 668.922 218.033 667.086C218.033 665.25 217.115 663.788 215.449 663.788C213.783 663.788 212.865 665.25 212.865 667.086C212.865 668.922 213.783 670.384 215.449 670.384ZM234.054 678.544C228.478 678.544 225.384 674.158 225.384 668.616C225.384 663.414 228.07 658.756 233.748 658.756C238.678 658.756 241.058 662.224 241.262 667.392L231.504 670.69C232.252 672.662 233.884 673.342 235.856 673.342C237.76 673.342 239.494 672.696 240.82 671.506C241.296 674.668 239.324 678.544 234.054 678.544ZM231.13 667.29L236.094 665.59C235.924 664.604 235.21 663.584 233.85 663.584C232.116 663.584 231.266 665.216 231.13 667.29ZM247.157 678L243.179 664.638C242.635 662.768 241.955 660.966 241.139 659.3H248.551C248.177 660.626 248.313 662.088 248.687 663.584L250.761 671.37L253.005 663.584C253.413 662.088 253.583 660.626 253.209 659.3H260.247C259.431 660.966 258.751 662.768 258.139 664.604L253.821 678H247.157ZM261.585 678C262.061 676.334 262.231 674.464 262.231 672.526V665.25C262.231 663.312 261.959 661.476 261.211 659.912L267.841 658.756V672.526C267.841 674.464 268.011 676.334 268.487 678H261.585ZM264.849 656.512C262.367 656.512 261.347 654.88 261.347 653.384C261.347 651.888 262.367 650.256 264.849 650.256C267.331 650.256 268.351 651.888 268.351 653.384C268.351 654.88 267.331 656.512 264.849 656.512ZM270.849 678C271.325 676.334 271.495 674.464 271.495 672.526V665.25C271.495 663.312 271.223 661.476 270.475 659.912L276.561 658.824V661.544C277.513 659.708 279.111 658.756 281.423 658.756C285.741 658.756 287.135 662.156 287.135 666.168V672.526C287.135 674.464 287.305 676.334 287.781 678H280.879C281.355 676.334 281.525 674.464 281.525 672.526V666.678C281.525 664.978 280.981 663.924 279.689 663.924C277.819 663.924 277.105 666.134 277.105 668.922V672.526C277.105 674.464 277.275 676.334 277.751 678H270.849ZM296.874 678.544C292.998 678.544 289.632 676.64 289.632 673.614C289.632 670.928 292.352 669.942 294.664 670.418C294.528 670.758 294.46 671.2 294.46 671.54C294.46 672.934 295.548 673.784 296.874 673.784C298.098 673.784 298.982 673.07 298.982 672.05C298.982 670.894 297.894 670.316 296.432 669.976L294.46 669.534C292.012 668.99 289.87 667.46 289.87 664.4C289.87 661.306 292.08 658.756 297.112 658.756C299.39 658.756 301.838 659.266 303.368 660.422V666.134C301.736 664.502 299.118 663.55 297.078 663.55C295.956 663.55 295.378 663.822 295.378 664.434C295.378 665.012 295.888 665.216 297.078 665.488L298.914 665.93C301.668 666.61 304.592 668.038 304.592 671.914C304.592 675.926 301.362 678.544 296.874 678.544ZM311.886 678.544C309.982 678.544 308.078 677.456 308.078 673.682V664.434C307.5 664.434 306.344 664.502 305.698 664.74C305.426 663.89 305.29 663.108 305.29 662.394C305.29 660.354 306.412 659.3 308.214 659.3C308.214 658.212 307.908 657.362 307.908 656.614C307.908 654.982 309.438 653.69 311.75 653.69C312.6 653.69 313.382 653.86 314.096 654.098C313.79 655.73 313.688 657.43 313.688 659.3C314.98 659.3 316.34 659.13 317.462 658.756C317.666 659.572 317.734 660.286 317.734 660.864C317.734 663.312 316.578 664.434 314.504 664.434H313.688V672.322C313.688 674.43 314.232 676.164 315.422 677.422C314.368 678.102 313.11 678.544 311.886 678.544ZM325.999 678C326.475 676.334 326.645 674.464 326.645 672.526V665.25C326.645 663.312 326.373 661.476 325.625 659.912L332.255 658.756V672.526C332.255 674.464 332.425 676.334 332.901 678H325.999ZM329.263 656.512C326.781 656.512 325.761 654.88 325.761 653.384C325.761 651.888 326.781 650.256 329.263 650.256C331.745 650.256 332.765 651.888 332.765 653.384C332.765 654.88 331.745 656.512 329.263 656.512ZM341.968 678C342.444 676.334 342.614 674.464 342.614 672.526V656.818C342.614 654.88 342.342 653.044 341.594 651.48L348.224 650.256V672.526C348.224 674.464 348.394 676.334 348.87 678H341.968ZM359.565 678.544C353.241 678.544 350.793 674.09 350.793 668.65C350.793 663.21 353.241 658.756 359.565 658.756C365.889 658.756 368.337 663.21 368.337 668.65C368.337 674.09 365.889 678.544 359.565 678.544ZM359.565 673.342C361.503 673.342 362.557 671.54 362.557 668.65C362.557 665.76 361.503 663.958 359.565 663.958C357.627 663.958 356.573 665.76 356.573 668.65C356.573 671.54 357.627 673.342 359.565 673.342ZM375.968 678.544C374.064 678.544 372.16 677.456 372.16 673.682V664.434C371.582 664.434 370.426 664.502 369.78 664.74C369.508 663.89 369.372 663.108 369.372 662.394C369.372 660.354 370.494 659.3 372.296 659.3C372.296 658.212 371.99 657.362 371.99 656.614C371.99 654.982 373.52 653.69 375.832 653.69C376.682 653.69 377.464 653.86 378.178 654.098C377.872 655.73 377.77 657.43 377.77 659.3H382.122C382.122 658.212 381.816 657.362 381.816 656.614C381.816 654.982 383.346 653.69 385.658 653.69C386.508 653.69 387.29 653.86 388.004 654.098C387.698 655.73 387.596 657.43 387.596 659.3C388.888 659.3 390.248 659.13 391.37 658.756C391.574 659.572 391.642 660.286 391.642 660.864C391.642 663.312 390.486 664.434 388.412 664.434H387.596V672.322C387.596 674.43 388.14 676.164 389.33 677.422C388.276 678.102 387.018 678.544 385.794 678.544C383.89 678.544 381.986 677.456 381.986 673.682V664.434H377.77V672.322C377.77 674.43 378.314 676.164 379.504 677.422C378.45 678.102 377.192 678.544 375.968 678.544ZM400.734 678.544C395.158 678.544 392.064 674.158 392.064 668.616C392.064 663.414 394.75 658.756 400.428 658.756C405.358 658.756 407.738 662.224 407.942 667.392L398.184 670.69C398.932 672.662 400.564 673.342 402.536 673.342C404.44 673.342 406.174 672.696 407.5 671.506C407.976 674.668 406.004 678.544 400.734 678.544ZM397.81 667.29L402.774 665.59C402.604 664.604 401.89 663.584 400.53 663.584C398.796 663.584 397.946 665.216 397.81 667.29ZM409.97 678C410.446 676.334 410.616 674.464 410.616 672.526V665.25C410.616 663.312 410.344 661.476 409.596 659.912L415.682 658.824V661.714C416.634 659.776 418.13 658.756 420.068 658.756C422.346 658.756 424.352 660.218 424.352 663.108C424.352 665.93 422.482 667.324 419.728 667.324C420.34 664.978 419.524 663.924 418.3 663.924C416.498 663.924 416.226 666.134 416.226 669.602V672.526C416.226 674.464 416.498 676.334 417.212 678H409.97ZM425.808 678C426.284 676.334 426.454 674.464 426.454 672.526V665.25C426.454 663.312 426.182 661.476 425.434 659.912L432.064 658.756V672.526C432.064 674.464 432.234 676.334 432.71 678H425.808ZM429.072 656.512C426.59 656.512 425.57 654.88 425.57 653.384C425.57 651.888 426.59 650.256 429.072 650.256C431.554 650.256 432.574 651.888 432.574 653.384C432.574 654.88 431.554 656.512 429.072 656.512ZM443.334 678.544C437.758 678.544 434.664 674.158 434.664 668.616C434.664 663.414 437.35 658.756 443.028 658.756C447.958 658.756 450.338 662.224 450.542 667.392L440.784 670.69C441.532 672.662 443.164 673.342 445.136 673.342C447.04 673.342 448.774 672.696 450.1 671.506C450.576 674.668 448.604 678.544 443.334 678.544ZM440.41 667.29L445.374 665.59C445.204 664.604 444.49 663.584 443.13 663.584C441.396 663.584 440.546 665.216 440.41 667.29ZM458.146 678.544C456.242 678.544 454.338 677.456 454.338 673.682V664.434C453.76 664.434 452.604 664.502 451.958 664.74C451.686 663.89 451.55 663.108 451.55 662.394C451.55 660.354 452.672 659.3 454.474 659.3C454.474 658.212 454.168 657.362 454.168 656.614C454.168 654.982 455.698 653.69 458.01 653.69C458.86 653.69 459.642 653.86 460.356 654.098C460.05 655.73 459.948 657.43 459.948 659.3C461.24 659.3 462.6 659.13 463.722 658.756C463.926 659.572 463.994 660.286 463.994 660.864C463.994 663.312 462.838 664.434 460.764 664.434H459.948V672.322C459.948 674.43 460.492 676.164 461.682 677.422C460.628 678.102 459.37 678.544 458.146 678.544ZM467.051 668.412C467.051 662.088 466.745 656.104 466.065 650.8H472.661C472.015 656.104 471.675 662.088 471.709 668.412H467.051ZM469.363 678.544C467.221 678.544 465.623 676.878 465.623 674.804C465.623 672.73 467.221 671.064 469.363 671.064C471.505 671.064 473.103 672.73 473.103 674.804C473.103 676.878 471.505 678.544 469.363 678.544Z" fill="#5F141E"/>
</svg>
