<svg width="1080" height="1080" viewBox="0 0 1080 1080" fill="none" xmlns="http://www.w3.org/2000/svg">
<rect width="1080" height="1080" fill="#F41116"/>
<path fill-rule="evenodd" clip-rule="evenodd" d="M366.866 84.413C370.059 78.5269 372.691 71.8 373.755 66.0829C376.108 66.4193 378.629 66.5874 381.373 66.5874C384.51 66.5874 386.919 66.3635 389.047 66.0271C389.999 70.623 387.814 75.3317 382.045 75.3317C381.597 75.3317 381.149 75.2754 380.701 75.2193C379.525 78.246 378.18 80.9373 376.669 83.3474C383.558 85.2529 388.879 90.5225 388.879 99.2665C388.879 108.067 383.614 113 377.844 113C374.54 113 372.075 111.374 370.955 108.964C374.932 108.403 379.469 105.601 379.469 100.107C379.469 94.278 374.316 90.2983 366.866 89.9619V102.406C366.866 105.601 367.146 108.684 367.931 111.43H356.56C357.344 108.684 357.624 105.601 357.624 102.406V76.229C357.624 73.0342 357.232 70.0071 356 67.4283L366.866 65.6907V84.413ZM417.953 79.7041C425.571 79.7042 431.004 83.7965 431.004 90.5787V102.125C431.004 105.601 431.956 108.516 433.86 110.533C432.348 111.542 430.499 112.327 428.539 112.327C426.299 112.327 424.283 111.374 423.33 108.572C421.538 110.87 418.625 112.327 414.873 112.327C408.823 112.327 404.567 108.572 404.567 102.742C404.567 96.8002 408.991 93.7733 415.377 93.7733C418.289 93.7733 420.698 94.3905 422.378 95.6232V91.8111C422.378 88.7283 420.473 87.3277 417.897 87.3277C415.545 87.3277 413.64 88.5603 413.64 90.8028C413.64 91.3633 413.752 91.9793 413.92 92.4837C410.391 93.2126 406.19 91.4752 406.19 87.2711C406.19 82.3384 411.848 79.7041 417.953 79.7041ZM446.41 79.7041C450.219 79.7042 454.196 80.6015 456.716 82.563V91.5312C454.028 88.7843 449.771 87.1031 446.354 87.103C444.282 87.103 443.161 87.7198 443.161 88.8963C443.161 89.9615 444.057 90.354 446.13 90.8586L449.322 91.6436C453.972 92.8203 458.621 95.2315 458.621 101.509C458.621 108.235 453.299 112.327 446.074 112.327C439.632 112.327 434.199 109.02 434.199 104.087C434.199 99.771 438.512 98.2021 442.096 98.9301C441.872 99.4907 441.76 100.276 441.76 100.892C441.76 103.471 443.722 104.928 446.074 104.928C448.315 104.928 449.938 103.639 449.938 101.733C449.938 99.6589 448.09 98.6502 445.514 98.0335L442.209 97.2484C438.288 96.3513 434.647 93.8294 434.647 88.8405C434.647 83.7401 438.456 79.7041 446.41 79.7041ZM472.401 79.7041C476.21 79.7042 480.186 80.6015 482.707 82.563V91.5312C480.019 88.7843 475.762 87.1031 472.345 87.103C470.273 87.103 469.152 87.7198 469.152 88.8963C469.152 89.9615 470.049 90.354 472.121 90.8586L475.314 91.6436C479.963 92.8203 484.612 95.2315 484.612 101.509C484.612 108.235 479.291 112.327 472.065 112.327C465.624 112.327 460.191 109.02 460.191 104.087C460.191 99.771 464.503 98.2021 468.087 98.9301C467.864 99.4907 467.752 100.276 467.752 100.892C467.752 103.471 469.713 104.928 472.065 104.928C474.306 104.928 475.929 103.639 475.929 101.733C475.929 99.6589 474.081 98.6502 471.504 98.0335L468.2 97.2484C464.279 96.3513 460.639 93.8294 460.639 88.8405C460.639 83.7401 464.448 79.7041 472.401 79.7041ZM500.186 79.7041C508.083 79.7042 512.06 85.3651 512.396 93.661L495.984 99.3223C497.161 102.91 500.073 104.312 503.49 104.312C506.738 104.312 509.595 103.134 511.724 101.116C512.395 106.217 509.091 112.327 500.745 112.327C491.728 112.327 486.519 105.209 486.519 95.9596C486.519 87.2717 491.111 79.7041 500.186 79.7041ZM542.254 79.7041C552.391 79.7041 556.536 86.9351 556.536 96.0154C556.536 105.096 552.391 112.327 542.254 112.327C532.059 112.327 527.971 105.096 527.971 96.0154C527.971 86.9351 532.059 79.7041 542.254 79.7041ZM583.858 71.3521C585.145 71.3521 586.322 71.6323 587.498 72.0248C586.993 74.7712 586.826 77.6302 586.826 80.6015C588.954 80.6015 591.139 80.3208 593.043 79.7041C593.379 80.9929 593.491 82.0582 593.491 82.9552C593.491 86.7669 591.698 88.5041 588.393 88.5041H586.826V102.125C586.826 105.657 587.777 108.516 589.682 110.533C588.057 111.598 586.098 112.327 584.192 112.327C581.112 112.327 578.199 110.421 578.199 104.255V88.5041H570.862V102.125C570.862 105.657 571.815 108.516 573.719 110.533C572.095 111.598 570.134 112.327 568.174 112.327C565.149 112.327 562.236 110.421 562.236 104.255V88.5041C561.228 88.5042 559.379 88.6163 558.259 89.0087C557.811 87.6639 557.643 86.4866 557.643 85.3655C557.643 82.1706 559.492 80.6016 562.46 80.6015C562.46 78.8075 561.956 77.2938 561.956 76.0044C561.956 73.4263 564.309 71.3521 567.893 71.3521C569.182 71.3521 570.358 71.6323 571.534 72.0248C571.03 74.7712 570.862 77.6302 570.862 80.6015H578.423C578.423 78.8075 577.919 77.2938 577.919 76.0044C577.919 73.4263 580.273 71.3521 583.858 71.3521ZM607.457 79.7041C615.354 79.7041 619.331 85.3651 619.667 93.661L603.257 99.3223C604.433 102.91 607.345 104.312 610.762 104.312C614.01 104.312 616.867 103.134 618.996 101.116C619.667 106.217 616.363 112.327 608.018 112.327C598.999 112.327 593.791 105.209 593.791 95.9596C593.791 87.2718 598.383 79.7042 607.457 79.7041ZM673.893 79.7041C681.791 79.7042 685.768 85.3651 686.104 93.661L669.692 99.3223C670.869 102.91 673.781 104.312 677.197 104.312C680.446 104.312 683.303 103.134 685.431 101.116C686.103 106.217 682.799 112.327 674.453 112.327C665.435 112.327 660.226 105.209 660.226 95.9596C660.226 87.2717 664.819 79.7041 673.893 79.7041ZM697.46 71.3521C698.748 71.3521 699.925 71.6323 701.101 72.0248C700.597 74.7712 700.428 77.6302 700.428 80.6015C702.557 80.6015 704.741 80.3208 706.646 79.7041C706.982 80.9929 707.093 82.0582 707.093 82.9552C707.093 86.7669 705.302 88.5041 701.997 88.5041H700.428V102.125C700.428 105.657 701.381 108.516 703.284 110.533C701.661 111.598 699.7 112.327 697.74 112.327C694.715 112.327 691.803 110.421 691.803 104.255V88.5041C690.795 88.5041 688.945 88.6162 687.826 89.0087C687.378 87.6639 687.21 86.4866 687.21 85.3655C687.21 82.1705 689.058 80.6015 692.027 80.6015C692.027 78.8075 691.523 77.2938 691.523 76.0044C691.523 73.4263 693.875 71.3522 697.46 71.3521ZM656.976 102.406C656.976 105.545 657.256 108.74 657.984 111.431H647.286C648.014 108.74 648.294 105.545 648.294 102.406V90.3548C648.294 87.1598 647.846 84.0769 646.67 81.554L656.976 79.7041V102.406ZM401.765 102.406C401.765 105.545 402.045 108.74 402.773 111.43H392.13C392.859 108.74 393.139 105.545 393.139 102.406V73.9304C393.139 70.7355 392.691 68.045 391.515 65.6349C394.931 65.0182 398.684 64.0652 401.765 63V102.406ZM524.721 102.406C524.721 105.545 525.001 108.74 525.728 111.43H515.086C515.815 108.74 516.094 105.545 516.094 102.406V73.9304C516.094 70.7355 515.646 68.045 514.47 65.6349C517.887 65.0182 521.64 64.0652 524.721 63V102.406ZM638.602 79.7041C642.355 79.7042 645.547 82.1143 645.547 86.7108C645.547 91.1952 642.579 93.3247 638.322 93.3247C639.33 89.5131 637.986 87.664 635.914 87.664C632.833 87.6642 632.217 91.4197 632.217 97.1368V102.406C632.217 105.545 632.61 108.74 633.729 111.43H622.526C623.254 108.74 623.535 105.545 623.535 102.406V90.3541C623.535 87.1592 623.087 84.0762 621.911 81.5533L631.432 79.8165V84.5245C633.001 81.3857 635.41 79.7041 638.602 79.7041ZM417.897 98.986C415.153 98.986 413.248 100.219 413.248 102.294C413.248 104.311 415.153 105.601 417.897 105.601C420.641 105.601 422.658 104.311 422.658 102.294C422.658 100.219 420.641 98.986 417.897 98.986ZM542.254 87.7199C538.837 87.7199 536.931 90.8588 536.931 96.0154C536.931 101.172 538.837 104.312 542.254 104.312C545.67 104.312 547.63 101.172 547.63 96.0154C547.63 90.8588 545.67 87.7199 542.254 87.7199ZM500.353 87.1595C497.273 87.1595 495.704 90.018 495.424 93.8856L504.386 90.8028C504.05 88.8967 502.762 87.1596 500.353 87.1595ZM607.625 87.1595C604.544 87.1596 602.976 90.0181 602.696 93.8856L611.658 90.8028C611.322 88.8966 610.034 87.1595 607.625 87.1595ZM674.061 87.1595C670.981 87.1595 669.412 90.018 669.132 93.8856L678.094 90.8028C677.758 88.8967 676.469 87.1596 674.061 87.1595ZM718.806 65.7473C722.382 65.7473 724.999 68.406 725 71.894C725 75.3819 722.382 78.0938 718.806 78.0938C715.188 78.0938 712.571 75.3556 712.571 71.894C712.571 68.4324 715.226 65.7473 718.806 65.7473ZM718.806 66.9323C715.953 66.9323 713.928 68.9983 713.928 71.894C713.928 74.8291 716.006 76.9088 718.806 76.9088C721.607 76.9088 723.658 74.8028 723.658 71.894C723.658 68.9853 721.66 66.9323 718.806 66.9323ZM652.327 65.7473C656.192 65.7474 657.816 68.2696 657.816 70.6235C657.816 73.0342 656.192 75.5563 652.327 75.5563C648.463 75.5563 646.837 73.0343 646.837 70.6235C646.837 68.2695 648.462 65.7473 652.327 65.7473ZM719.455 68.6472C720.657 68.6473 721.448 69.3888 721.448 70.3989C721.447 71.2425 720.913 71.8181 720.03 72.0099C720.772 72.1761 721.102 72.7256 721.296 73.5694L721.615 74.9373H720.224L720.03 73.7616C719.888 72.8283 719.773 72.6105 718.743 72.6105H717.754V74.9373H716.468V68.6472H719.455ZM717.754 69.6958V71.5619H718.817C719.685 71.5619 720.161 71.2168 720.161 70.5777C720.161 69.9385 719.658 69.6958 718.817 69.6958H717.754Z" fill="#FFF0D3"/>
<path d="M58.9 308C60.3 303.1 60.8 297.6 60.8 291.9V244.1C60.8 238.4 60.3 232.9 58.9 228H89.7C88.7 231.4 89.2 235.1 90.4 238.9L100 268.9L109.6 239C110.8 235.2 111.3 231.4 110.3 228H141.3C139.9 232.9 139.4 238.4 139.4 244.1V291.9C139.4 297.6 139.9 303.1 141.3 308H119.9C121.3 303.1 121.8 297.6 121.8 291.9V252.7L104.1 308H94.6L76.9 252.7V291.9C76.9 297.6 77.4 303.1 78.8 308H58.9ZM173.134 309.6C156.734 309.6 147.634 296.7 147.634 280.4C147.634 265.1 155.534 251.4 172.234 251.4C186.734 251.4 193.734 261.6 194.334 276.8L165.634 286.5C167.834 292.3 172.634 294.3 178.434 294.3C184.034 294.3 189.134 292.4 193.034 288.9C194.434 298.2 188.634 309.6 173.134 309.6ZM164.534 276.5L179.134 271.5C178.634 268.6 176.534 265.6 172.534 265.6C167.434 265.6 164.934 270.4 164.534 276.5ZM216.699 309.6C211.099 309.6 205.499 306.4 205.499 295.3V268.1C203.799 268.1 200.399 268.3 198.499 269C197.699 266.5 197.299 264.2 197.299 262.1C197.299 256.1 200.599 253 205.899 253C205.899 249.8 204.999 247.3 204.999 245.1C204.999 240.3 209.499 236.5 216.299 236.5C218.799 236.5 221.099 237 223.199 237.7C222.299 242.5 221.999 247.5 221.999 253H234.799C234.799 249.8 233.899 247.3 233.899 245.1C233.899 240.3 238.399 236.5 245.199 236.5C247.699 236.5 249.999 237 252.099 237.7C251.199 242.5 250.899 247.5 250.899 253C254.699 253 258.699 252.5 261.999 251.4C262.599 253.8 262.799 255.9 262.799 257.6C262.799 264.8 259.399 268.1 253.299 268.1H250.899V291.3C250.899 297.5 252.499 302.6 255.999 306.3C252.899 308.3 249.199 309.6 245.599 309.6C239.999 309.6 234.399 306.4 234.399 295.3V268.1H221.999V291.3C221.999 297.5 223.599 302.6 227.099 306.3C223.999 308.3 220.299 309.6 216.699 309.6ZM289.541 309.6C273.141 309.6 264.041 296.7 264.041 280.4C264.041 265.1 271.941 251.4 288.641 251.4C303.141 251.4 310.141 261.6 310.741 276.8L282.041 286.5C284.241 292.3 289.041 294.3 294.841 294.3C300.441 294.3 305.541 292.4 309.441 288.9C310.841 298.2 305.041 309.6 289.541 309.6ZM280.941 276.5L295.541 271.5C295.041 268.6 292.941 265.6 288.941 265.6C283.841 265.6 281.341 270.4 280.941 276.5ZM336.425 308C337.825 303.1 338.325 297.6 338.325 291.9V245.7C338.325 240 337.525 234.6 335.325 230L354.825 226.4V257.8C357.425 253.7 361.525 251.4 367.525 251.4C380.225 251.4 384.325 261.4 384.325 273.2V291.9C384.325 297.6 384.825 303.1 386.225 308H365.925C367.325 303.1 367.825 297.6 367.825 291.9V274.7C367.825 269.7 366.225 266.6 362.425 266.6C356.925 266.6 354.825 273.1 354.825 281.3V291.9C354.825 297.6 355.325 303.1 356.725 308H336.425ZM410.08 309.6C399.08 309.6 391.68 302.8 391.68 292.5C391.68 282 399.38 276.7 410.98 276.7C416.08 276.7 420.18 277.8 423.08 279.7V273.3C423.08 268.2 419.98 265.9 415.78 265.9C411.98 265.9 408.68 267.8 408.68 271.6C408.68 272.5 408.88 273.6 409.18 274.5C402.48 275.9 394.68 272.7 394.68 264.9C394.68 255.9 404.98 251.4 415.88 251.4C429.88 251.4 439.58 259 439.58 270.9V291.3C439.58 297.5 441.18 302.6 444.68 306.3C441.78 308.2 438.38 309.6 434.68 309.6C430.58 309.6 426.88 308 425.08 303.1C421.88 307.1 416.78 309.6 410.08 309.6ZM415.88 296.9C420.38 296.9 423.68 294.9 423.68 291.6C423.68 288.3 420.38 286.4 415.88 286.4C411.38 286.4 408.18 288.3 408.18 291.6C408.18 294.9 411.38 296.9 415.88 296.9ZM448.737 308C450.137 303.1 450.637 297.6 450.637 291.9V270.5C450.637 264.8 449.837 259.4 447.637 254.8L465.537 251.6V260.1C468.337 254.4 472.737 251.4 478.437 251.4C485.137 251.4 491.037 255.7 491.037 264.2C491.037 272.5 485.537 276.6 477.437 276.6C479.237 269.7 476.837 266.6 473.237 266.6C467.937 266.6 467.137 273.1 467.137 283.3V291.9C467.137 297.6 467.937 303.1 470.037 308H448.737ZM73 420L61.3 380.7C59.7 375.2 57.7 369.9 55.3 365H77.1C76 368.9 76.4 373.2 77.5 377.6L83.6 400.5L90.2 377.6C91.4 373.2 91.9 368.9 90.8 365H111.5C109.1 369.9 107.1 375.2 105.3 380.6L92.6 420H73ZM133.436 421.6C120.736 421.6 116.636 411.6 116.636 399.8V382.5C116.636 376.8 115.836 371.4 113.636 366.8L133.136 363.4V398.3C133.136 403.3 134.736 406.4 138.536 406.4C144.036 406.4 146.136 399.9 146.136 391.7V382.5C146.136 376.8 145.336 371.4 143.136 366.8L162.636 363.4V403.3C162.636 409.5 164.236 414.6 167.736 418.3C164.836 420.2 161.436 421.6 157.736 421.6C153.236 421.6 149.136 419.6 147.636 413.6C144.736 419 140.236 421.6 133.436 421.6ZM172.467 420C173.867 415.1 174.367 409.6 174.367 403.9V382.5C174.367 376.8 173.567 371.4 171.367 366.8L189.267 363.6V371.6C192.067 366.2 196.767 363.4 203.567 363.4C216.267 363.4 220.367 373.4 220.367 385.2V403.9C220.367 409.6 220.867 415.1 222.267 420H201.967C203.367 415.1 203.867 409.6 203.867 403.9V386.7C203.867 381.7 202.267 378.6 198.467 378.6C192.967 378.6 190.867 385.1 190.867 393.3V403.9C190.867 409.6 191.367 415.1 192.767 420H172.467ZM248.913 421.6C234.913 421.6 227.713 408.5 227.713 392.5C227.713 376.5 234.913 363.4 248.913 363.4C254.113 363.4 258.513 365.1 261.713 368.9V357.7C261.713 352 260.913 346.6 258.713 342L278.213 338.4V403.3C278.213 409.5 279.813 414.6 283.313 418.3C280.412 420.2 277.013 421.6 273.313 421.6C268.913 421.6 264.813 419.5 263.313 413.9C260.113 419.1 255.013 421.6 248.913 421.6ZM253.413 406.3C258.913 406.3 261.913 401 261.913 392.5C261.913 384 258.913 378.7 253.413 378.7C247.813 378.7 244.713 384 244.713 392.5C244.713 401 247.813 406.3 253.413 406.3ZM311.904 421.6C295.504 421.6 286.404 408.7 286.404 392.4C286.404 377.1 294.304 363.4 311.004 363.4C325.504 363.4 332.504 373.6 333.104 388.8L304.404 398.5C306.604 404.3 311.404 406.3 317.204 406.3C322.804 406.3 327.904 404.4 331.804 400.9C333.204 410.2 327.404 421.6 311.904 421.6ZM303.304 388.5L317.904 383.5C317.404 380.6 315.304 377.6 311.304 377.6C306.204 377.6 303.704 382.4 303.304 388.5ZM355.469 421.6C349.869 421.6 344.269 418.4 344.269 407.3V380.1C342.569 380.1 339.169 380.3 337.269 381C336.469 378.5 336.069 376.2 336.069 374.1C336.069 368.1 339.369 365 344.669 365C344.669 361.8 343.769 359.3 343.769 357.1C343.769 352.3 348.269 348.5 355.069 348.5C357.569 348.5 359.869 349 361.969 349.7C361.069 354.5 360.769 359.5 360.769 365C364.569 365 368.569 364.5 371.869 363.4C372.469 365.8 372.669 367.9 372.669 369.6C372.669 376.8 369.269 380.1 363.169 380.1H360.769V403.3C360.769 409.5 362.369 414.6 365.869 418.3C362.769 420.3 359.069 421.6 355.469 421.6ZM397.279 420C399.279 415.1 399.979 409.6 399.979 403.9V363.5C399.979 357.8 398.879 352.7 395.479 348.8L417.479 338.4V403.9C417.479 409.6 418.179 415.1 420.179 420H397.279ZM450.443 421.6C435.143 421.6 426.643 411.7 426.643 401.6C426.643 392.4 433.643 388 440.643 388C442.143 388 443.443 388.2 444.643 388.5C443.943 389.9 443.243 392.3 443.243 395.4C443.243 401.4 445.643 405.6 450.543 405.6C455.143 405.6 458.343 401.8 458.343 393.7C458.343 384.8 454.543 378.6 442.843 378.6C441.343 378.6 439.543 378.7 437.743 379L449.943 356H441.743C437.143 356 432.743 356.6 428.843 358.5V340H477.143L462.143 368.9C470.743 373 476.143 381.5 476.143 394C476.143 411.3 465.843 421.6 450.443 421.6ZM480.275 420C480.275 390 511.075 381.2 511.075 363.2C511.075 358 508.475 354.4 503.975 354.4C498.875 354.4 495.975 359.1 495.975 364.9C495.975 368.2 496.875 370.6 497.575 372C496.375 372.3 495.075 372.5 493.575 372.5C486.575 372.5 479.575 368.1 479.575 358.9C479.575 348.5 488.475 338.4 503.975 338.4C518.875 338.4 528.875 347.7 528.875 363.2C528.875 383.4 511.475 390.3 502.975 404H516.475C521.075 404 525.475 403 529.375 400.2V420H480.275ZM547.63 421.6C541.33 421.6 536.63 416.7 536.63 410.6C536.63 404.5 541.33 399.6 547.63 399.6C553.93 399.6 558.63 404.5 558.63 410.6C558.63 416.7 553.93 421.6 547.63 421.6ZM590.259 421.6C573.259 421.6 563.659 411.2 563.659 396.9C563.659 388.1 567.459 380.8 574.759 377.3C568.359 374.1 565.459 367.7 565.459 359.9C565.459 347.9 573.659 338.4 590.259 338.4C606.859 338.4 615.059 347.9 615.059 359.9C615.059 367.7 612.159 374.1 605.759 377.3C613.059 380.8 616.859 388.1 616.859 396.9C616.859 411.2 607.259 421.6 590.259 421.6ZM590.259 405.2C595.359 405.2 598.259 400.7 598.259 394C598.259 387.3 595.459 382.7 590.259 382.7C585.059 382.7 582.259 387.3 582.259 394C582.259 400.7 585.159 405.2 590.259 405.2ZM590.259 371.1C594.559 371.1 596.759 367.6 596.759 362.9C596.759 358.4 594.559 354.8 590.259 354.8C585.959 354.8 583.759 358.4 583.759 362.9C583.759 367.6 585.959 371.1 590.259 371.1ZM647.948 420C650.048 416 650.748 411.5 650.748 406.8V405.5H621.348V400.2C621.348 378.3 642.748 362.2 642.748 346.7C642.748 344.8 642.448 343 641.748 341.1C645.148 339.4 648.148 338.7 650.748 338.7C657.448 338.7 661.548 343.4 661.548 350.9C661.548 365.4 645.248 375.9 639.448 390.3H650.748V380.9C656.048 379.5 662.548 372.5 668.248 372.5V390.3H676.848L673.948 405.5H668.248V406.8C668.248 411.5 668.748 416 670.148 420H647.948ZM680.177 420C680.177 390 710.977 381.2 710.977 363.2C710.977 358 708.377 354.4 703.877 354.4C698.777 354.4 695.877 359.1 695.877 364.9C695.877 368.2 696.777 370.6 697.477 372C696.277 372.3 694.977 372.5 693.477 372.5C686.477 372.5 679.477 368.1 679.477 358.9C679.477 348.5 688.377 338.4 703.877 338.4C718.777 338.4 728.777 347.7 728.777 363.2C728.777 383.4 711.377 390.3 702.877 404H716.377C720.977 404 725.377 403 729.277 400.2V420H680.177ZM756.152 420C757.552 415.1 758.052 409.6 758.052 403.9V357.7C758.052 352 757.252 346.6 755.052 342L774.552 338.4V367.8C778.752 364.6 783.652 363.4 788.552 363.4C800.752 363.4 806.652 371.7 806.652 381.7C806.652 389.1 803.552 394.4 797.052 397.4C799.952 405.2 804.052 412.6 809.552 420H790.052C786.652 414.1 784.152 407.8 782.852 401.6H774.552V403.9C774.552 409.6 775.052 415.1 776.452 420H756.152ZM774.552 390.9H781.752C786.652 390.9 789.652 388.2 789.652 384.1C789.652 380.6 787.452 377.8 783.352 377.8C778.652 377.8 774.552 381.5 774.552 389V390.9ZM815.045 420C816.445 415.1 816.945 409.6 816.945 403.9V382.5C816.945 376.8 816.145 371.4 813.945 366.8L831.845 363.6V372.1C834.645 366.4 839.045 363.4 844.745 363.4C851.445 363.4 857.345 367.7 857.345 376.2C857.345 384.5 851.845 388.6 843.745 388.6C845.545 381.7 843.145 378.6 839.545 378.6C834.245 378.6 833.445 385.1 833.445 395.3V403.9C833.445 409.6 834.245 415.1 836.345 420H815.045ZM862.766 421.6C856.466 421.6 851.766 416.7 851.766 410.6C851.766 404.5 856.466 399.6 862.766 399.6C869.066 399.6 873.766 404.5 873.766 410.6C873.766 416.7 869.066 421.6 862.766 421.6ZM58.6 532C60 527.1 60.5 521.6 60.5 515.9V494.5C60.5 488.8 59.7 483.4 57.5 478.8L77 475.4V515.9C77 521.6 77.5 527.1 78.9 532H58.6ZM68.2 468.8C60.9 468.8 57.9 464 57.9 459.6C57.9 455.2 60.9 450.4 68.2 450.4C75.5 450.4 78.5 455.2 78.5 459.6C78.5 464 75.5 468.8 68.2 468.8ZM106.166 532C107.566 527.1 108.066 521.6 108.066 515.9V468.1C108.066 462.4 107.566 456.9 106.166 452H127.566C126.166 456.9 125.666 462.4 125.666 468.1V484.2C132.966 475.1 139.866 463.2 141.566 452H161.566C157.866 463.6 152.866 472.3 143.466 482.7C154.066 484.9 158.666 494.1 159.666 505.1L160.766 516.7C161.366 523.2 163.366 527.8 166.866 532H146.066C143.966 527.4 143.266 523.3 142.966 519.1L142.166 505.8C141.766 499.5 138.866 496.4 134.066 496.4C129.266 496.4 125.666 499.5 125.666 505.9V515.9C125.666 521.6 126.366 527.1 128.166 532H106.166ZM171.679 532C173.079 527.1 173.579 521.6 173.579 515.9V469.7C173.579 464 172.779 458.6 170.579 454L190.079 450.4V515.9C190.079 521.6 190.579 527.1 191.979 532H171.679ZM216.134 533.6C205.134 533.6 197.734 526.8 197.734 516.5C197.734 506 205.434 500.7 217.034 500.7C222.134 500.7 226.234 501.8 229.134 503.7V497.3C229.134 492.2 226.034 489.9 221.834 489.9C218.034 489.9 214.734 491.8 214.734 495.6C214.734 496.5 214.934 497.6 215.234 498.5C208.534 499.9 200.734 496.7 200.734 488.9C200.734 479.9 211.034 475.4 221.934 475.4C235.934 475.4 245.634 483 245.634 494.9V515.3C245.634 521.5 247.234 526.6 250.734 530.3C247.834 532.2 244.434 533.6 240.734 533.6C236.634 533.6 232.934 532 231.134 527.1C227.934 531.1 222.834 533.6 216.134 533.6ZM221.934 520.9C226.434 520.9 229.734 518.9 229.734 515.6C229.734 512.3 226.434 510.4 221.934 510.4C217.434 510.4 214.234 512.3 214.234 515.6C214.234 518.9 217.434 520.9 221.934 520.9ZM274.891 533.6C263.491 533.6 253.591 528 253.591 519.1C253.591 511.2 261.591 508.3 268.391 509.7C267.991 510.7 267.791 512 267.791 513C267.791 517.1 270.991 519.6 274.891 519.6C278.491 519.6 281.091 517.5 281.091 514.5C281.091 511.1 277.891 509.4 273.591 508.4L267.791 507.1C260.591 505.5 254.291 501 254.291 492C254.291 482.9 260.791 475.4 275.591 475.4C282.291 475.4 289.491 476.9 293.991 480.3V497.1C289.191 492.3 281.491 489.5 275.491 489.5C272.191 489.5 270.491 490.3 270.491 492.1C270.491 493.8 271.991 494.4 275.491 495.2L280.891 496.5C288.991 498.5 297.591 502.7 297.591 514.1C297.591 525.9 288.091 533.6 274.891 533.6ZM323.72 533.6C312.32 533.6 302.42 528 302.42 519.1C302.42 511.2 310.42 508.3 317.22 509.7C316.82 510.7 316.62 512 316.62 513C316.62 517.1 319.82 519.6 323.72 519.6C327.32 519.6 329.92 517.5 329.92 514.5C329.92 511.1 326.72 509.4 322.42 508.4L316.62 507.1C309.42 505.5 303.12 501 303.12 492C303.12 482.9 309.62 475.4 324.42 475.4C331.12 475.4 338.32 476.9 342.82 480.3V497.1C338.02 492.3 330.32 489.5 324.32 489.5C321.02 489.5 319.32 490.3 319.32 492.1C319.32 493.8 320.82 494.4 324.32 495.2L329.72 496.5C337.82 498.5 346.42 502.7 346.42 514.1C346.42 525.9 336.92 533.6 323.72 533.6ZM376.748 533.6C360.348 533.6 351.248 520.7 351.248 504.4C351.248 489.1 359.148 475.4 375.848 475.4C390.348 475.4 397.348 485.6 397.948 500.8L369.248 510.5C371.448 516.3 376.248 518.3 382.048 518.3C387.648 518.3 392.748 516.4 396.648 512.9C398.048 522.2 392.248 533.6 376.748 533.6ZM368.148 500.5L382.748 495.5C382.248 492.6 380.148 489.6 376.148 489.6C371.048 489.6 368.548 494.4 368.148 500.5ZM403.612 532C405.013 527.1 405.513 521.6 405.513 515.9V469.7C405.513 464 404.713 458.6 402.513 454L422.013 450.4V515.9C422.013 521.6 422.513 527.1 423.913 532H403.612ZM455.368 533.6C436.768 533.6 429.568 520.5 429.568 504.5C429.568 488.5 436.768 475.4 455.368 475.4C473.968 475.4 481.168 488.5 481.168 504.5C481.168 520.5 473.968 533.6 455.368 533.6ZM455.368 518.3C461.068 518.3 464.168 513 464.168 504.5C464.168 496 461.068 490.7 455.368 490.7C449.668 490.7 446.568 496 446.568 504.5C446.568 513 449.668 518.3 455.368 518.3ZM503.613 533.6C498.013 533.6 492.413 530.4 492.413 519.3V492.1C490.713 492.1 487.313 492.3 485.413 493C484.613 490.5 484.213 488.2 484.213 486.1C484.213 480.1 487.513 477 492.813 477C492.813 473.8 491.913 471.3 491.913 469.1C491.913 464.3 496.413 460.5 503.213 460.5C505.713 460.5 508.013 461 510.113 461.7C509.213 466.5 508.913 471.5 508.913 477H521.713C521.713 473.8 520.813 471.3 520.813 469.1C520.813 464.3 525.313 460.5 532.113 460.5C534.613 460.5 536.913 461 539.013 461.7C538.113 466.5 537.813 471.5 537.813 477C541.613 477 545.613 476.5 548.913 475.4C549.513 477.8 549.713 479.9 549.713 481.6C549.713 488.8 546.313 492.1 540.213 492.1H537.813V515.3C537.813 521.5 539.413 526.6 542.913 530.3C539.813 532.3 536.113 533.6 532.513 533.6C526.913 533.6 521.313 530.4 521.313 519.3V492.1H508.913V515.3C508.913 521.5 510.513 526.6 514.013 530.3C510.913 532.3 507.213 533.6 503.613 533.6ZM576.455 533.6C560.055 533.6 550.955 520.7 550.955 504.4C550.955 489.1 558.855 475.4 575.555 475.4C590.055 475.4 597.055 485.6 597.655 500.8L568.955 510.5C571.155 516.3 575.955 518.3 581.755 518.3C587.355 518.3 592.455 516.4 596.355 512.9C597.755 522.2 591.955 533.6 576.455 533.6ZM567.855 500.5L582.455 495.5C581.955 492.6 579.855 489.6 575.855 489.6C570.755 489.6 568.255 494.4 567.855 500.5ZM603.62 532C605.02 527.1 605.52 521.6 605.52 515.9V494.5C605.52 488.8 604.72 483.4 602.52 478.8L620.42 475.6V484.1C623.22 478.4 627.62 475.4 633.32 475.4C640.02 475.4 645.92 479.7 645.92 488.2C645.92 496.5 640.42 500.6 632.32 500.6C634.12 493.7 631.72 490.6 628.12 490.6C622.82 490.6 622.02 497.1 622.02 507.3V515.9C622.02 521.6 622.82 527.1 624.92 532H603.62ZM650.202 532C651.602 527.1 652.102 521.6 652.102 515.9V494.5C652.102 488.8 651.302 483.4 649.102 478.8L668.602 475.4V515.9C668.602 521.6 669.102 527.1 670.502 532H650.202ZM659.802 468.8C652.502 468.8 649.502 464 649.502 459.6C649.502 455.2 652.502 450.4 659.802 450.4C667.102 450.4 670.102 455.2 670.102 459.6C670.102 464 667.102 468.8 659.802 468.8ZM701.748 533.6C685.348 533.6 676.248 520.7 676.248 504.4C676.248 489.1 684.148 475.4 700.848 475.4C715.348 475.4 722.348 485.6 722.948 500.8L694.248 510.5C696.448 516.3 701.248 518.3 707.048 518.3C712.648 518.3 717.748 516.4 721.648 512.9C723.048 522.2 717.248 533.6 701.748 533.6ZM693.148 500.5L707.748 495.5C707.248 492.6 705.148 489.6 701.148 489.6C696.048 489.6 693.548 494.4 693.148 500.5ZM745.313 533.6C739.713 533.6 734.113 530.4 734.113 519.3V492.1C732.413 492.1 729.013 492.3 727.113 493C726.313 490.5 725.913 488.2 725.913 486.1C725.913 480.1 729.213 477 734.513 477C734.513 473.8 733.613 471.3 733.613 469.1C733.613 464.3 738.113 460.5 744.913 460.5C747.413 460.5 749.713 461 751.813 461.7C750.913 466.5 750.613 471.5 750.613 477C754.413 477 758.413 476.5 761.713 475.4C762.313 477.8 762.513 479.9 762.513 481.6C762.513 488.8 759.113 492.1 753.013 492.1H750.613V515.3C750.613 521.5 752.213 526.6 755.713 530.3C752.613 532.3 748.913 533.6 745.313 533.6Z" fill="#FFF0D3"/>
<path d="M60.134 612.468C57.924 612.468 56.258 610.7 56.258 608.32C56.258 605.294 58.876 603.186 58.876 600.568C58.876 599.888 58.706 599.208 58.264 598.46C60.27 597.916 62.718 598.562 62.718 601.01C62.718 602.744 61.494 603.866 60.236 604.988C62.276 605.022 63.874 606.688 63.874 608.728C63.874 610.802 62.276 612.468 60.134 612.468ZM69.416 612.468C67.206 612.468 65.54 610.7 65.54 608.32C65.54 605.294 68.158 603.186 68.158 600.568C68.158 599.888 67.988 599.208 67.546 598.46C69.552 597.916 72 598.562 72 601.01C72 602.744 70.776 603.866 69.518 604.988C71.558 605.022 73.156 606.688 73.156 608.728C73.156 610.802 71.558 612.468 69.416 612.468ZM82.6178 626L76.5658 604.172C76.0218 602.302 75.4098 600.466 74.5938 598.8H82.3118C81.9378 600.126 82.0738 601.588 82.4478 603.084L86.1878 617.84L89.9618 603.084C90.3358 601.588 90.4718 600.126 90.0638 598.8H97.4418C96.6258 600.466 96.0138 602.302 95.4698 604.172L89.4178 626H82.6178ZM98.4916 626C98.9676 624.334 99.1376 622.464 99.1376 620.526V613.25C99.1376 611.312 98.8656 609.476 98.1176 607.912L104.748 606.756V620.526C104.748 622.464 104.918 624.334 105.394 626H98.4916ZM101.756 604.512C99.2736 604.512 98.2536 602.88 98.2536 601.384C98.2536 599.888 99.2736 598.256 101.756 598.256C104.238 598.256 105.258 599.888 105.258 601.384C105.258 602.88 104.238 604.512 101.756 604.512ZM121.396 626.544C117.52 626.544 114.154 624.64 114.154 621.614C114.154 618.928 116.874 617.942 119.186 618.418C119.05 618.758 118.982 619.2 118.982 619.54C118.982 620.934 120.07 621.784 121.396 621.784C122.62 621.784 123.504 621.07 123.504 620.05C123.504 618.894 122.416 618.316 120.954 617.976L118.982 617.534C116.534 616.99 114.392 615.46 114.392 612.4C114.392 609.306 116.602 606.756 121.634 606.756C123.912 606.756 126.36 607.266 127.89 608.422V614.134C126.258 612.502 123.64 611.55 121.6 611.55C120.478 611.55 119.9 611.822 119.9 612.434C119.9 613.012 120.41 613.216 121.6 613.488L123.436 613.93C126.19 614.61 129.114 616.038 129.114 619.914C129.114 623.926 125.884 626.544 121.396 626.544ZM131.061 626C131.537 624.334 131.707 622.464 131.707 620.526V604.818C131.707 602.88 131.435 601.044 130.687 599.48L137.317 598.256V608.252C138.745 607.164 140.411 606.756 142.077 606.756C146.225 606.756 148.231 609.578 148.231 612.978C148.231 615.494 147.177 617.296 144.967 618.316C145.953 620.968 147.347 623.484 149.217 626H142.587C141.431 623.994 140.581 621.852 140.139 619.744H137.317V620.526C137.317 622.464 137.487 624.334 137.963 626H131.061ZM137.317 616.106H139.765C141.431 616.106 142.451 615.188 142.451 613.794C142.451 612.604 141.703 611.652 140.309 611.652C138.711 611.652 137.317 612.91 137.317 615.46V616.106ZM156.635 626.544C152.895 626.544 150.379 624.232 150.379 620.73C150.379 617.16 152.997 615.358 156.941 615.358C158.675 615.358 160.069 615.732 161.055 616.378V614.202C161.055 612.468 160.001 611.686 158.573 611.686C157.281 611.686 156.159 612.332 156.159 613.624C156.159 613.93 156.227 614.304 156.329 614.61C154.051 615.086 151.399 613.998 151.399 611.346C151.399 608.286 154.901 606.756 158.607 606.756C163.367 606.756 166.665 609.34 166.665 613.386V620.322C166.665 622.43 167.209 624.164 168.399 625.422C167.413 626.068 166.257 626.544 164.999 626.544C163.605 626.544 162.347 626 161.735 624.334C160.647 625.694 158.913 626.544 156.635 626.544ZM158.607 622.226C160.137 622.226 161.259 621.546 161.259 620.424C161.259 619.302 160.137 618.656 158.607 618.656C157.077 618.656 155.989 619.302 155.989 620.424C155.989 621.546 157.077 622.226 158.607 622.226ZM169.677 626C170.153 624.334 170.323 622.464 170.323 620.526V604.818C170.323 602.88 170.051 601.044 169.303 599.48L175.933 598.256V620.526C175.933 622.464 176.103 624.334 176.579 626H169.677ZM194.08 626.544C187.756 626.544 185.308 622.09 185.308 616.65C185.308 611.21 187.756 606.756 194.08 606.756C200.404 606.756 202.852 611.21 202.852 616.65C202.852 622.09 200.404 626.544 194.08 626.544ZM194.08 621.342C196.018 621.342 197.072 619.54 197.072 616.65C197.072 613.76 196.018 611.958 194.08 611.958C192.142 611.958 191.088 613.76 191.088 616.65C191.088 619.54 192.142 621.342 194.08 621.342ZM208.774 626L204.796 612.638C204.252 610.768 203.572 608.966 202.756 607.3H210.168C209.794 608.626 209.93 610.088 210.304 611.584L212.378 619.37L214.622 611.584C215.03 610.088 215.2 608.626 214.826 607.3H221.864C221.048 608.966 220.368 610.768 219.756 612.604L215.438 626H208.774ZM230.435 626.544C224.859 626.544 221.765 622.158 221.765 616.616C221.765 611.414 224.451 606.756 230.129 606.756C235.059 606.756 237.439 610.224 237.643 615.392L227.885 618.69C228.633 620.662 230.265 621.342 232.237 621.342C234.141 621.342 235.875 620.696 237.201 619.506C237.677 622.668 235.705 626.544 230.435 626.544ZM227.511 615.29L232.475 613.59C232.305 612.604 231.591 611.584 230.231 611.584C228.497 611.584 227.647 613.216 227.511 615.29ZM239.671 626C240.147 624.334 240.317 622.464 240.317 620.526V613.25C240.317 611.312 240.045 609.476 239.297 607.912L245.383 606.824V609.714C246.335 607.776 247.831 606.756 249.769 606.756C252.047 606.756 254.053 608.218 254.053 611.108C254.053 613.93 252.183 615.324 249.429 615.324C250.041 612.978 249.225 611.924 248.001 611.924C246.199 611.924 245.927 614.134 245.927 617.602V620.526C245.927 622.464 246.199 624.334 246.913 626H239.671ZM270.68 626.544C264.356 626.544 261.908 622.09 261.908 616.65C261.908 611.21 264.356 606.756 270.68 606.756C277.004 606.756 279.452 611.21 279.452 616.65C279.452 622.09 277.004 626.544 270.68 626.544ZM270.68 621.342C272.618 621.342 273.672 619.54 273.672 616.65C273.672 613.76 272.618 611.958 270.68 611.958C268.742 611.958 267.688 613.76 267.688 616.65C267.688 619.54 268.742 621.342 270.68 621.342ZM293.335 633.344C293.471 631.304 291.499 630.624 289.187 630.08L286.603 629.502C284.189 628.924 282.081 628.04 282.081 625.592C282.081 623.994 282.965 622.838 284.733 622.158C282.353 620.628 281.367 617.874 281.367 615.086C281.367 611.21 283.271 607.402 288.133 606.824C287.861 605.634 287.589 604.036 287.589 602.71C287.589 599.412 289.391 598.256 291.057 598.256C292.689 598.256 294.083 599.378 294.083 601.214C294.083 603.832 291.295 604.24 291.125 606.892C295.749 607.606 297.551 611.312 297.551 615.086C297.551 619.302 295.307 623.416 289.459 623.416C288.473 623.416 287.657 623.552 287.657 624.266C287.657 624.81 288.133 625.116 289.459 625.286L293.505 625.728C296.293 626.034 298.435 627.156 298.435 629.468C298.435 632.426 295.001 633.31 293.335 633.344ZM289.459 618.384C291.125 618.384 292.043 616.922 292.043 615.086C292.043 613.25 291.125 611.788 289.459 611.788C287.793 611.788 286.875 613.25 286.875 615.086C286.875 616.922 287.793 618.384 289.459 618.384ZM313.277 626.544C309.401 626.544 306.035 624.64 306.035 621.614C306.035 618.928 308.755 617.942 311.067 618.418C310.931 618.758 310.863 619.2 310.863 619.54C310.863 620.934 311.951 621.784 313.277 621.784C314.501 621.784 315.385 621.07 315.385 620.05C315.385 618.894 314.297 618.316 312.835 617.976L310.863 617.534C308.415 616.99 306.273 615.46 306.273 612.4C306.273 609.306 308.483 606.756 313.515 606.756C315.793 606.756 318.241 607.266 319.771 608.422V614.134C318.139 612.502 315.521 611.55 313.481 611.55C312.359 611.55 311.781 611.822 311.781 612.434C311.781 613.012 312.291 613.216 313.481 613.488L315.317 613.93C318.071 614.61 320.995 616.038 320.995 619.914C320.995 623.926 317.765 626.544 313.277 626.544ZM331.306 626.544C325.73 626.544 322.636 622.158 322.636 616.616C322.636 611.414 325.322 606.756 331 606.756C335.93 606.756 338.31 610.224 338.514 615.392L328.756 618.69C329.504 620.662 331.136 621.342 333.108 621.342C335.012 621.342 336.746 620.696 338.072 619.506C338.548 622.668 336.576 626.544 331.306 626.544ZM328.382 615.29L333.346 613.59C333.176 612.604 332.462 611.584 331.102 611.584C329.368 611.584 328.518 613.216 328.382 615.29ZM347.451 626C347.927 624.334 348.097 622.464 348.097 620.526V604.274C348.097 602.336 347.927 600.466 347.451 598.8H354.727C354.251 600.466 354.081 602.336 354.081 604.274V609.748C356.563 606.654 358.909 602.608 359.487 598.8H366.287C365.029 602.744 363.329 605.702 360.133 609.238C363.737 609.986 365.301 613.114 365.641 616.854L366.015 620.798C366.219 623.008 366.899 624.572 368.089 626H361.017C360.303 624.436 360.065 623.042 359.963 621.614L359.691 617.092C359.555 614.95 358.569 613.896 356.937 613.896C355.305 613.896 354.081 614.95 354.081 617.126V620.526C354.081 622.464 354.319 624.334 354.931 626H347.451ZM377.757 626.544C372.181 626.544 369.087 622.158 369.087 616.616C369.087 611.414 371.773 606.756 377.451 606.756C382.381 606.756 384.761 610.224 384.965 615.392L375.207 618.69C375.955 620.662 377.587 621.342 379.559 621.342C381.463 621.342 383.197 620.696 384.523 619.506C384.999 622.668 383.027 626.544 377.757 626.544ZM374.833 615.29L379.797 613.59C379.627 612.604 378.913 611.584 377.553 611.584C375.819 611.584 374.969 613.216 374.833 615.29ZM388.616 632.8C389.67 631.134 390.52 629.332 391.2 627.53L391.744 626.068L387.018 612.604C386.406 610.768 385.658 608.966 384.842 607.3H392.424C392.05 608.626 392.22 610.088 392.662 611.584L394.702 618.588L397.014 611.55C397.49 610.088 397.694 608.626 397.32 607.3H404.358C403.542 608.966 402.828 610.768 402.182 612.57L396.504 628.584C395.994 630.046 395.756 631.474 396.164 632.8H388.616ZM426.162 603.73C425.686 601.996 425.074 600.33 424.428 598.8H432.01C431.636 600.126 431.772 601.588 432.18 603.084L436.124 617.84L439.66 603.118C440 601.588 440.136 600.126 439.728 598.8H447.14C446.358 600.466 445.712 602.302 445.236 604.172L439.524 626H432.69L429.29 614.406L425.414 626H418.614L413.31 604.172C412.868 602.302 412.256 600.466 411.44 598.8H419.226C418.818 600.126 418.92 601.588 419.26 603.118L422.456 617.908L426.434 604.648L426.162 603.73ZM454.39 626.544C448.814 626.544 445.72 622.158 445.72 616.616C445.72 611.414 448.406 606.756 454.084 606.756C459.014 606.756 461.394 610.224 461.598 615.392L451.84 618.69C452.588 620.662 454.22 621.342 456.192 621.342C458.096 621.342 459.83 620.696 461.156 619.506C461.632 622.668 459.66 626.544 454.39 626.544ZM451.466 615.29L456.43 613.59C456.26 612.604 455.546 611.584 454.186 611.584C452.452 611.584 451.602 613.216 451.466 615.29ZM470.46 626.544C466.584 626.544 463.218 624.64 463.218 621.614C463.218 618.928 465.938 617.942 468.25 618.418C468.114 618.758 468.046 619.2 468.046 619.54C468.046 620.934 469.134 621.784 470.46 621.784C471.684 621.784 472.568 621.07 472.568 620.05C472.568 618.894 471.48 618.316 470.018 617.976L468.046 617.534C465.598 616.99 463.456 615.46 463.456 612.4C463.456 609.306 465.666 606.756 470.698 606.756C472.976 606.756 475.424 607.266 476.954 608.422V614.134C475.322 612.502 472.704 611.55 470.664 611.55C469.542 611.55 468.964 611.822 468.964 612.434C468.964 613.012 469.474 613.216 470.664 613.488L472.5 613.93C475.254 614.61 478.178 616.038 478.178 619.914C478.178 623.926 474.948 626.544 470.46 626.544ZM485.472 626.544C483.568 626.544 481.664 625.456 481.664 621.682V612.434C481.086 612.434 479.93 612.502 479.284 612.74C479.012 611.89 478.876 611.108 478.876 610.394C478.876 608.354 479.998 607.3 481.8 607.3C481.8 606.212 481.494 605.362 481.494 604.614C481.494 602.982 483.024 601.69 485.336 601.69C486.186 601.69 486.968 601.86 487.682 602.098C487.376 603.73 487.274 605.43 487.274 607.3C488.566 607.3 489.926 607.13 491.048 606.756C491.252 607.572 491.32 608.286 491.32 608.864C491.32 611.312 490.164 612.434 488.09 612.434H487.274V620.322C487.274 622.43 487.818 624.164 489.008 625.422C487.954 626.102 486.696 626.544 485.472 626.544ZM497.061 633.072C495.055 633.616 492.607 632.97 492.607 630.522C492.607 628.788 493.831 627.666 495.089 626.544C493.049 626.51 491.451 624.844 491.451 622.804C491.451 620.73 493.049 619.064 495.191 619.064C497.401 619.064 499.067 620.832 499.067 623.212C499.067 626.238 496.449 628.346 496.449 630.964C496.449 631.644 496.619 632.324 497.061 633.072ZM516.715 626.544C510.391 626.544 507.943 622.09 507.943 616.65C507.943 611.21 510.391 606.756 516.715 606.756C523.039 606.756 525.487 611.21 525.487 616.65C525.487 622.09 523.039 626.544 516.715 626.544ZM516.715 621.342C518.653 621.342 519.707 619.54 519.707 616.65C519.707 613.76 518.653 611.958 516.715 611.958C514.777 611.958 513.723 613.76 513.723 616.65C513.723 619.54 514.777 621.342 516.715 621.342ZM539.37 633.344C539.506 631.304 537.534 630.624 535.222 630.08L532.638 629.502C530.224 628.924 528.116 628.04 528.116 625.592C528.116 623.994 529 622.838 530.768 622.158C528.388 620.628 527.402 617.874 527.402 615.086C527.402 611.21 529.306 607.402 534.168 606.824C533.896 605.634 533.624 604.036 533.624 602.71C533.624 599.412 535.426 598.256 537.092 598.256C538.724 598.256 540.118 599.378 540.118 601.214C540.118 603.832 537.33 604.24 537.16 606.892C541.784 607.606 543.586 611.312 543.586 615.086C543.586 619.302 541.342 623.416 535.494 623.416C534.508 623.416 533.692 623.552 533.692 624.266C533.692 624.81 534.168 625.116 535.494 625.286L539.54 625.728C542.328 626.034 544.47 627.156 544.47 629.468C544.47 632.426 541.036 633.31 539.37 633.344ZM535.494 618.384C537.16 618.384 538.078 616.922 538.078 615.086C538.078 613.25 537.16 611.788 535.494 611.788C533.828 611.788 532.91 613.25 532.91 615.086C532.91 616.922 533.828 618.384 535.494 618.384ZM557.374 626L553.396 612.638C552.852 610.768 552.172 608.966 551.356 607.3H558.768C558.394 608.626 558.53 610.088 558.904 611.584L560.978 619.37L563.222 611.584C563.63 610.088 563.8 608.626 563.426 607.3H570.464C569.648 608.966 568.968 610.768 568.356 612.604L564.038 626H557.374ZM571.802 626C572.278 624.334 572.448 622.464 572.448 620.526V613.25C572.448 611.312 572.176 609.476 571.428 607.912L578.058 606.756V620.526C578.058 622.464 578.228 624.334 578.704 626H571.802ZM575.066 604.512C572.584 604.512 571.564 602.88 571.564 601.384C571.564 599.888 572.584 598.256 575.066 598.256C577.548 598.256 578.568 599.888 578.568 601.384C578.568 602.88 577.548 604.512 575.066 604.512ZM594.706 626.544C590.83 626.544 587.464 624.64 587.464 621.614C587.464 618.928 590.184 617.942 592.496 618.418C592.36 618.758 592.292 619.2 592.292 619.54C592.292 620.934 593.38 621.784 594.706 621.784C595.93 621.784 596.814 621.07 596.814 620.05C596.814 618.894 595.726 618.316 594.264 617.976L592.292 617.534C589.844 616.99 587.702 615.46 587.702 612.4C587.702 609.306 589.912 606.756 594.944 606.756C597.222 606.756 599.67 607.266 601.2 608.422V614.134C599.568 612.502 596.95 611.55 594.91 611.55C593.788 611.55 593.21 611.822 593.21 612.434C593.21 613.012 593.72 613.216 594.91 613.488L596.746 613.93C599.5 614.61 602.424 616.038 602.424 619.914C602.424 623.926 599.194 626.544 594.706 626.544ZM604.372 626C604.848 624.334 605.018 622.464 605.018 620.526V604.818C605.018 602.88 604.746 601.044 603.998 599.48L610.628 598.256V608.252C612.056 607.164 613.722 606.756 615.388 606.756C619.536 606.756 621.542 609.578 621.542 612.978C621.542 615.494 620.488 617.296 618.278 618.316C619.264 620.968 620.658 623.484 622.528 626H615.898C614.742 623.994 613.892 621.852 613.45 619.744H610.628V620.526C610.628 622.464 610.798 624.334 611.274 626H604.372ZM610.628 616.106H613.076C614.742 616.106 615.762 615.188 615.762 613.794C615.762 612.604 615.014 611.652 613.62 611.652C612.022 611.652 610.628 612.91 610.628 615.46V616.106ZM629.946 626.544C626.206 626.544 623.69 624.232 623.69 620.73C623.69 617.16 626.308 615.358 630.252 615.358C631.986 615.358 633.38 615.732 634.366 616.378V614.202C634.366 612.468 633.312 611.686 631.884 611.686C630.592 611.686 629.47 612.332 629.47 613.624C629.47 613.93 629.538 614.304 629.64 614.61C627.362 615.086 624.71 613.998 624.71 611.346C624.71 608.286 628.212 606.756 631.918 606.756C636.678 606.756 639.976 609.34 639.976 613.386V620.322C639.976 622.43 640.52 624.164 641.71 625.422C640.724 626.068 639.568 626.544 638.31 626.544C636.916 626.544 635.658 626 635.046 624.334C633.958 625.694 632.224 626.544 629.946 626.544ZM631.918 622.226C633.448 622.226 634.57 621.546 634.57 620.424C634.57 619.302 633.448 618.656 631.918 618.656C630.388 618.656 629.3 619.302 629.3 620.424C629.3 621.546 630.388 622.226 631.918 622.226ZM642.987 626C643.463 624.334 643.633 622.464 643.633 620.526V604.818C643.633 602.88 643.361 601.044 642.613 599.48L649.243 598.256V620.526C649.243 622.464 649.413 624.334 649.889 626H642.987ZM665.861 626.544C661.985 626.544 658.619 624.64 658.619 621.614C658.619 618.928 661.339 617.942 663.651 618.418C663.515 618.758 663.447 619.2 663.447 619.54C663.447 620.934 664.535 621.784 665.861 621.784C667.085 621.784 667.969 621.07 667.969 620.05C667.969 618.894 666.881 618.316 665.419 617.976L663.447 617.534C660.999 616.99 658.857 615.46 658.857 612.4C658.857 609.306 661.067 606.756 666.099 606.756C668.377 606.756 670.825 607.266 672.355 608.422V614.134C670.723 612.502 668.105 611.55 666.065 611.55C664.943 611.55 664.365 611.822 664.365 612.434C664.365 613.012 664.875 613.216 666.065 613.488L667.901 613.93C670.655 614.61 673.579 616.038 673.579 619.914C673.579 623.926 670.349 626.544 665.861 626.544ZM683.89 626.544C678.314 626.544 675.22 622.158 675.22 616.616C675.22 611.414 677.906 606.756 683.584 606.756C688.514 606.756 690.894 610.224 691.098 615.392L681.34 618.69C682.088 620.662 683.72 621.342 685.692 621.342C687.596 621.342 689.33 620.696 690.656 619.506C691.132 622.668 689.16 626.544 683.89 626.544ZM680.966 615.29L685.93 613.59C685.76 612.604 685.046 611.584 683.686 611.584C681.952 611.584 681.102 613.216 680.966 615.29ZM69.892 655.73C69.416 653.996 68.804 652.33 68.158 650.8H75.74C75.366 652.126 75.502 653.588 75.91 655.084L79.854 669.84L83.39 655.118C83.73 653.588 83.866 652.126 83.458 650.8H90.87C90.088 652.466 89.442 654.302 88.966 656.172L83.254 678H76.42L73.02 666.406L69.144 678H62.344L57.04 656.172C56.598 654.302 55.986 652.466 55.17 650.8H62.956C62.548 652.126 62.65 653.588 62.99 655.118L66.186 669.908L70.164 656.648L69.892 655.73ZM95.7408 678.544C92.0008 678.544 89.4848 676.232 89.4848 672.73C89.4848 669.16 92.1028 667.358 96.0468 667.358C97.7808 667.358 99.1748 667.732 100.161 668.378V666.202C100.161 664.468 99.1068 663.686 97.6788 663.686C96.3868 663.686 95.2648 664.332 95.2648 665.624C95.2648 665.93 95.3328 666.304 95.4348 666.61C93.1568 667.086 90.5048 665.998 90.5048 663.346C90.5048 660.286 94.0068 658.756 97.7128 658.756C102.473 658.756 105.771 661.34 105.771 665.386V672.322C105.771 674.43 106.315 676.164 107.505 677.422C106.519 678.068 105.363 678.544 104.105 678.544C102.711 678.544 101.453 678 100.841 676.334C99.7528 677.694 98.0188 678.544 95.7408 678.544ZM97.7128 674.226C99.2428 674.226 100.365 673.546 100.365 672.424C100.365 671.302 99.2428 670.656 97.7128 670.656C96.1828 670.656 95.0948 671.302 95.0948 672.424C95.0948 673.546 96.1828 674.226 97.7128 674.226ZM108.782 678C109.258 676.334 109.428 674.464 109.428 672.526V656.818C109.428 654.88 109.156 653.044 108.408 651.48L115.038 650.256V672.526C115.038 674.464 115.208 676.334 115.684 678H108.782ZM123.591 678.544C121.687 678.544 119.783 677.456 119.783 673.682V664.434C119.205 664.434 118.049 664.502 117.403 664.74C117.131 663.89 116.995 663.108 116.995 662.394C116.995 660.354 118.117 659.3 119.919 659.3C119.919 658.212 119.613 657.362 119.613 656.614C119.613 654.982 121.143 653.69 123.455 653.69C124.305 653.69 125.087 653.86 125.801 654.098C125.495 655.73 125.393 657.43 125.393 659.3C126.685 659.3 128.045 659.13 129.167 658.756C129.371 659.572 129.439 660.286 129.439 660.864C129.439 663.312 128.283 664.434 126.209 664.434H125.393V672.322C125.393 674.43 125.937 676.164 127.127 677.422C126.073 678.102 124.815 678.544 123.591 678.544ZM146.374 678H137.806C138.282 676.334 138.452 674.464 138.452 672.526V656.274C138.452 654.336 138.282 652.466 137.806 650.8H146.374C153.99 650.8 158.342 655.356 158.342 664.4C158.342 673.444 153.99 678 146.374 678ZM144.436 672.56H146.17C150.42 672.56 152.222 670.044 152.222 664.4C152.222 658.756 150.42 656.24 146.17 656.24H144.436V672.56ZM160.615 678C161.091 676.334 161.261 674.464 161.261 672.526V665.25C161.261 663.312 160.989 661.476 160.241 659.912L166.871 658.756V672.526C166.871 674.464 167.041 676.334 167.517 678H160.615ZM163.879 656.512C161.397 656.512 160.377 654.88 160.377 653.384C160.377 651.888 161.397 650.256 163.879 650.256C166.361 650.256 167.381 651.888 167.381 653.384C167.381 654.88 166.361 656.512 163.879 656.512ZM176.712 678.544C172.836 678.544 169.47 676.64 169.47 673.614C169.47 670.928 172.19 669.942 174.502 670.418C174.366 670.758 174.298 671.2 174.298 671.54C174.298 672.934 175.386 673.784 176.712 673.784C177.936 673.784 178.82 673.07 178.82 672.05C178.82 670.894 177.732 670.316 176.27 669.976L174.298 669.534C171.85 668.99 169.708 667.46 169.708 664.4C169.708 661.306 171.918 658.756 176.95 658.756C179.228 658.756 181.676 659.266 183.206 660.422V666.134C181.574 664.502 178.956 663.55 176.916 663.55C175.794 663.55 175.216 663.822 175.216 664.434C175.216 665.012 175.726 665.216 176.916 665.488L178.752 665.93C181.506 666.61 184.43 668.038 184.43 671.914C184.43 675.926 181.2 678.544 176.712 678.544ZM186.48 678C186.956 676.334 187.126 674.464 187.126 672.526V665.25C187.126 663.312 186.854 661.476 186.106 659.912L192.192 658.824V661.544C193.144 659.708 194.742 658.756 197.054 658.756C201.372 658.756 202.766 662.156 202.766 666.168V672.526C202.766 674.464 202.936 676.334 203.412 678H196.51C196.986 676.334 197.156 674.464 197.156 672.526V666.678C197.156 664.978 196.612 663.924 195.32 663.924C193.45 663.924 192.736 666.134 192.736 668.922V672.526C192.736 674.464 192.906 676.334 193.382 678H186.48ZM213.933 678.544C208.357 678.544 205.263 674.158 205.263 668.616C205.263 663.414 207.949 658.756 213.627 658.756C218.557 658.756 220.937 662.224 221.141 667.392L211.383 670.69C212.131 672.662 213.763 673.342 215.735 673.342C217.639 673.342 219.373 672.696 220.699 671.506C221.175 674.668 219.203 678.544 213.933 678.544ZM211.009 667.29L215.973 665.59C215.803 664.604 215.089 663.584 213.729 663.584C211.995 663.584 211.145 665.216 211.009 667.29ZM224.792 684.8C225.846 683.134 226.696 681.332 227.376 679.53L227.92 678.068L223.194 664.604C222.582 662.768 221.834 660.966 221.018 659.3H228.6C228.226 660.626 228.396 662.088 228.838 663.584L230.878 670.588L233.19 663.55C233.666 662.088 233.87 660.626 233.496 659.3H240.534C239.718 660.966 239.004 662.768 238.358 664.57L232.68 680.584C232.17 682.046 231.932 683.474 232.34 684.8H224.792ZM257.033 678.544C250.709 678.544 248.261 674.09 248.261 668.65C248.261 663.21 250.709 658.756 257.033 658.756C263.357 658.756 265.805 663.21 265.805 668.65C265.805 674.09 263.357 678.544 257.033 678.544ZM257.033 673.342C258.971 673.342 260.025 671.54 260.025 668.65C260.025 665.76 258.971 663.958 257.033 663.958C255.095 663.958 254.041 665.76 254.041 668.65C254.041 671.54 255.095 673.342 257.033 673.342ZM279.689 685.344C279.825 683.304 277.853 682.624 275.541 682.08L272.957 681.502C270.543 680.924 268.435 680.04 268.435 677.592C268.435 675.994 269.319 674.838 271.087 674.158C268.707 672.628 267.721 669.874 267.721 667.086C267.721 663.21 269.625 659.402 274.487 658.824C274.215 657.634 273.943 656.036 273.943 654.71C273.943 651.412 275.745 650.256 277.411 650.256C279.043 650.256 280.437 651.378 280.437 653.214C280.437 655.832 277.649 656.24 277.479 658.892C282.103 659.606 283.905 663.312 283.905 667.086C283.905 671.302 281.661 675.416 275.813 675.416C274.827 675.416 274.011 675.552 274.011 676.266C274.011 676.81 274.487 677.116 275.813 677.286L279.859 677.728C282.647 678.034 284.789 679.156 284.789 681.468C284.789 684.426 281.355 685.31 279.689 685.344ZM275.813 670.384C277.479 670.384 278.397 668.922 278.397 667.086C278.397 665.25 277.479 663.788 275.813 663.788C274.147 663.788 273.229 665.25 273.229 667.086C273.229 668.922 274.147 670.384 275.813 670.384ZM292.898 678C293.374 676.334 293.544 674.464 293.544 672.526V656.274C293.544 654.336 293.374 652.466 292.898 650.8H300.174C299.698 652.466 299.528 654.336 299.528 656.274V660.66H308.13V656.274C308.13 654.336 307.96 652.466 307.484 650.8H314.76C314.284 652.466 314.114 654.336 314.114 656.274V672.526C314.114 674.464 314.284 676.334 314.76 678H307.484C307.96 676.334 308.13 674.464 308.13 672.526V666.1H299.528V672.526C299.528 674.464 299.698 676.334 300.174 678H292.898ZM323.182 678.544C319.442 678.544 316.926 676.232 316.926 672.73C316.926 669.16 319.544 667.358 323.488 667.358C325.222 667.358 326.616 667.732 327.602 668.378V666.202C327.602 664.468 326.548 663.686 325.12 663.686C323.828 663.686 322.706 664.332 322.706 665.624C322.706 665.93 322.774 666.304 322.876 666.61C320.598 667.086 317.946 665.998 317.946 663.346C317.946 660.286 321.448 658.756 325.154 658.756C329.914 658.756 333.212 661.34 333.212 665.386V672.322C333.212 674.43 333.756 676.164 334.946 677.422C333.96 678.068 332.804 678.544 331.546 678.544C330.152 678.544 328.894 678 328.282 676.334C327.194 677.694 325.46 678.544 323.182 678.544ZM325.154 674.226C326.684 674.226 327.806 673.546 327.806 672.424C327.806 671.302 326.684 670.656 325.154 670.656C323.624 670.656 322.536 671.302 322.536 672.424C322.536 673.546 323.624 674.226 325.154 674.226ZM336.326 678C336.802 676.334 336.972 674.464 336.972 672.526V665.25C336.972 663.312 336.7 661.476 335.952 659.912L342.038 658.824V661.714C342.99 659.776 344.486 658.756 346.424 658.756C348.702 658.756 350.708 660.218 350.708 663.108C350.708 665.93 348.838 667.324 346.084 667.324C346.696 664.978 345.88 663.924 344.656 663.924C342.854 663.924 342.582 666.134 342.582 669.602V672.526C342.582 674.464 342.854 676.334 343.568 678H336.326ZM352.163 678C352.639 676.334 352.809 674.464 352.809 672.526V665.25C352.809 663.312 352.537 661.476 351.789 659.912L357.875 658.824V661.714C358.827 659.776 360.323 658.756 362.261 658.756C364.539 658.756 366.545 660.218 366.545 663.108C366.545 665.93 364.675 667.324 361.921 667.324C362.533 664.978 361.717 663.924 360.493 663.924C358.691 663.924 358.419 666.134 358.419 669.602V672.526C358.419 674.464 358.691 676.334 359.405 678H352.163ZM370.653 684.8C371.707 683.134 372.557 681.332 373.237 679.53L373.781 678.068L369.055 664.604C368.443 662.768 367.695 660.966 366.879 659.3H374.461C374.087 660.626 374.257 662.088 374.699 663.584L376.739 670.588L379.051 663.55C379.527 662.088 379.731 660.626 379.357 659.3H386.395C385.579 660.966 384.865 662.768 384.219 664.57L378.541 680.584C378.031 682.046 377.793 683.474 378.201 684.8H370.653ZM394.633 678C395.109 676.334 395.279 674.464 395.279 672.526V656.274C395.279 654.336 395.109 652.466 394.633 650.8H404.323C409.559 650.8 413.197 653.452 413.197 658.586C413.197 663.312 410.137 665.454 407.247 666.338L403.847 667.392C401.875 668.004 401.263 669.16 401.263 671.064V672.526C401.263 674.464 401.501 676.334 402.181 678H394.633ZM401.263 663.176C401.807 662.666 402.521 662.326 403.439 662.054L404.595 661.714C406.227 661.238 407.111 660.354 407.111 658.892C407.111 657.022 405.683 656.24 403.847 656.24H401.263V663.176ZM422.318 678.544C415.994 678.544 413.546 674.09 413.546 668.65C413.546 663.21 415.994 658.756 422.318 658.756C428.642 658.756 431.09 663.21 431.09 668.65C431.09 674.09 428.642 678.544 422.318 678.544ZM422.318 673.342C424.256 673.342 425.31 671.54 425.31 668.65C425.31 665.76 424.256 663.958 422.318 663.958C420.38 663.958 419.326 665.76 419.326 668.65C419.326 671.54 420.38 673.342 422.318 673.342ZM438.722 678.544C436.818 678.544 434.914 677.456 434.914 673.682V664.434C434.336 664.434 433.18 664.502 432.534 664.74C432.262 663.89 432.126 663.108 432.126 662.394C432.126 660.354 433.248 659.3 435.05 659.3C435.05 658.212 434.744 657.362 434.744 656.614C434.744 654.982 436.274 653.69 438.586 653.69C439.436 653.69 440.218 653.86 440.932 654.098C440.626 655.73 440.524 657.43 440.524 659.3H444.876C444.876 658.212 444.57 657.362 444.57 656.614C444.57 654.982 446.1 653.69 448.412 653.69C449.262 653.69 450.044 653.86 450.758 654.098C450.452 655.73 450.35 657.43 450.35 659.3C451.642 659.3 453.002 659.13 454.124 658.756C454.328 659.572 454.396 660.286 454.396 660.864C454.396 663.312 453.24 664.434 451.166 664.434H450.35V672.322C450.35 674.43 450.894 676.164 452.084 677.422C451.03 678.102 449.772 678.544 448.548 678.544C446.644 678.544 444.74 677.456 444.74 673.682V664.434H440.524V672.322C440.524 674.43 441.068 676.164 442.258 677.422C441.204 678.102 439.946 678.544 438.722 678.544ZM463.488 678.544C457.912 678.544 454.818 674.158 454.818 668.616C454.818 663.414 457.504 658.756 463.182 658.756C468.112 658.756 470.492 662.224 470.696 667.392L460.938 670.69C461.686 672.662 463.318 673.342 465.29 673.342C467.194 673.342 468.928 672.696 470.254 671.506C470.73 674.668 468.758 678.544 463.488 678.544ZM460.564 667.29L465.528 665.59C465.358 664.604 464.644 663.584 463.284 663.584C461.55 663.584 460.7 665.216 460.564 667.29ZM472.724 678C473.2 676.334 473.37 674.464 473.37 672.526V665.25C473.37 663.312 473.098 661.476 472.35 659.912L478.436 658.824V661.714C479.388 659.776 480.884 658.756 482.822 658.756C485.1 658.756 487.106 660.218 487.106 663.108C487.106 665.93 485.236 667.324 482.482 667.324C483.094 664.978 482.278 663.924 481.054 663.924C479.252 663.924 478.98 666.134 478.98 669.602V672.526C478.98 674.464 479.252 676.334 479.966 678H472.724ZM509.037 655.73C508.561 653.996 507.949 652.33 507.303 650.8H514.885C514.511 652.126 514.647 653.588 515.055 655.084L518.999 669.84L522.535 655.118C522.875 653.588 523.011 652.126 522.603 650.8H530.015C529.233 652.466 528.587 654.302 528.111 656.172L522.399 678H515.565L512.165 666.406L508.289 678H501.489L496.185 656.172C495.743 654.302 495.131 652.466 494.315 650.8H502.101C501.693 652.126 501.795 653.588 502.135 655.118L505.331 669.908L509.309 656.648L509.037 655.73ZM537.367 678.544C531.043 678.544 528.595 674.09 528.595 668.65C528.595 663.21 531.043 658.756 537.367 658.756C543.691 658.756 546.139 663.21 546.139 668.65C546.139 674.09 543.691 678.544 537.367 678.544ZM537.367 673.342C539.305 673.342 540.359 671.54 540.359 668.65C540.359 665.76 539.305 663.958 537.367 663.958C535.429 663.958 534.375 665.76 534.375 668.65C534.375 671.54 535.429 673.342 537.367 673.342ZM548.195 678C548.671 676.334 548.841 674.464 548.841 672.526V665.25C548.841 663.312 548.569 661.476 547.821 659.912L553.907 658.824V661.714C554.859 659.776 556.355 658.756 558.293 658.756C560.571 658.756 562.577 660.218 562.577 663.108C562.577 665.93 560.707 667.324 557.953 667.324C558.565 664.978 557.749 663.924 556.525 663.924C554.723 663.924 554.451 666.134 554.451 669.602V672.526C554.451 674.464 554.723 676.334 555.437 678H548.195ZM563.931 678C564.407 676.334 564.577 674.464 564.577 672.526V656.818C564.577 654.88 564.305 653.044 563.557 651.48L570.187 650.256V672.526C570.187 674.464 570.357 676.334 570.833 678H563.931ZM579.963 678.544C575.203 678.544 572.755 674.09 572.755 668.65C572.755 663.21 575.203 658.756 579.963 658.756C581.731 658.756 583.227 659.334 584.315 660.626V656.818C584.315 654.88 584.043 653.044 583.295 651.48L589.925 650.256V672.322C589.925 674.43 590.469 676.164 591.659 677.422C590.673 678.068 589.517 678.544 588.259 678.544C586.763 678.544 585.369 677.83 584.859 675.926C583.771 677.694 582.037 678.544 579.963 678.544ZM581.493 673.342C583.363 673.342 584.383 671.54 584.383 668.65C584.383 665.76 583.363 663.958 581.493 663.958C579.589 663.958 578.535 665.76 578.535 668.65C578.535 671.54 579.589 673.342 581.493 673.342ZM596.893 678.544C594.751 678.544 593.153 676.878 593.153 674.804C593.153 672.73 594.751 671.064 596.893 671.064C599.035 671.064 600.633 672.73 600.633 674.804C600.633 676.878 599.035 678.544 596.893 678.544ZM65.404 730.544C59.76 730.544 55.918 727.552 55.918 723.37C55.918 720.31 57.992 718.372 60.78 718.372C61.426 718.372 62.072 718.474 62.718 718.746C62.31 719.664 62.106 720.548 62.106 721.398C62.106 723.506 63.33 724.968 65.404 724.968C67.206 724.968 68.77 723.88 68.77 721.772C68.77 720.004 67.682 718.746 64.996 717.896L61.8 716.876C58.298 715.754 56.428 713.204 56.428 709.804C56.428 705.18 59.896 702.256 65.404 702.256C68.294 702.256 71.116 703.072 73.326 704.67V712.014C71.218 709.226 68.566 707.832 65.574 707.832C63.704 707.832 62.548 708.376 62.548 709.498C62.548 710.348 63.228 710.824 64.656 711.266L67.852 712.286C72.68 713.816 74.89 716.706 74.89 721.33C74.89 727.212 71.32 730.544 65.404 730.544ZM83.024 730.544C79.284 730.544 76.768 728.232 76.768 724.73C76.768 721.16 79.386 719.358 83.33 719.358C85.064 719.358 86.458 719.732 87.444 720.378V718.202C87.444 716.468 86.39 715.686 84.962 715.686C83.67 715.686 82.548 716.332 82.548 717.624C82.548 717.93 82.616 718.304 82.718 718.61C80.44 719.086 77.788 717.998 77.788 715.346C77.788 712.286 81.29 710.756 84.996 710.756C89.756 710.756 93.054 713.34 93.054 717.386V724.322C93.054 726.43 93.598 728.164 94.788 729.422C93.802 730.068 92.646 730.544 91.388 730.544C89.994 730.544 88.736 730 88.124 728.334C87.036 729.694 85.302 730.544 83.024 730.544ZM84.996 726.226C86.526 726.226 87.648 725.546 87.648 724.424C87.648 723.302 86.526 722.656 84.996 722.656C83.466 722.656 82.378 723.302 82.378 724.424C82.378 725.546 83.466 726.226 84.996 726.226ZM84.996 709.226C82.65 709.226 80.882 707.56 80.882 705.282C80.882 703.004 82.65 701.338 84.996 701.338C87.342 701.338 89.11 703.004 89.11 705.282C89.11 707.56 87.342 709.226 84.996 709.226ZM84.996 707.254C86.22 707.254 87.07 706.438 87.07 705.282C87.07 704.126 86.22 703.31 84.996 703.31C83.772 703.31 82.922 704.126 82.922 705.282C82.922 706.438 83.772 707.254 84.996 707.254ZM111.236 730.544C105.66 730.544 102.566 726.158 102.566 720.616C102.566 715.414 105.252 710.756 110.93 710.756C115.86 710.756 118.24 714.224 118.444 719.392L108.686 722.69C109.434 724.662 111.066 725.342 113.038 725.342C114.942 725.342 116.676 724.696 118.002 723.506C118.478 726.668 116.506 730.544 111.236 730.544ZM108.312 719.29L113.276 717.59C113.106 716.604 112.392 715.584 111.032 715.584C109.298 715.584 108.448 717.216 108.312 719.29ZM120.472 730C120.948 728.334 121.118 726.464 121.118 724.526V717.25C121.118 715.312 120.846 713.476 120.098 711.912L126.184 710.824V713.544C127.136 711.708 128.734 710.756 131.046 710.756C135.364 710.756 136.758 714.156 136.758 718.168V724.526C136.758 726.464 136.928 728.334 137.404 730H130.502C130.978 728.334 131.148 726.464 131.148 724.526V718.678C131.148 716.978 130.604 715.924 129.312 715.924C127.442 715.924 126.728 718.134 126.728 720.922V724.526C126.728 726.464 126.898 728.334 127.374 730H120.472ZM158.132 737.344C158.268 735.304 156.296 734.624 153.984 734.08L151.4 733.502C148.986 732.924 146.878 732.04 146.878 729.592C146.878 727.994 147.762 726.838 149.53 726.158C147.15 724.628 146.164 721.874 146.164 719.086C146.164 715.21 148.068 711.402 152.93 710.824C152.658 709.634 152.386 708.036 152.386 706.71C152.386 703.412 154.188 702.256 155.854 702.256C157.486 702.256 158.88 703.378 158.88 705.214C158.88 707.832 156.092 708.24 155.922 710.892C160.546 711.606 162.348 715.312 162.348 719.086C162.348 723.302 160.104 727.416 154.256 727.416C153.27 727.416 152.454 727.552 152.454 728.266C152.454 728.81 152.93 729.116 154.256 729.286L158.302 729.728C161.09 730.034 163.232 731.156 163.232 733.468C163.232 736.426 159.798 737.31 158.132 737.344ZM154.256 722.384C155.922 722.384 156.84 720.922 156.84 719.086C156.84 717.25 155.922 715.788 154.256 715.788C152.59 715.788 151.672 717.25 151.672 719.086C151.672 720.922 152.59 722.384 154.256 722.384ZM172.963 730.544C166.639 730.544 164.191 726.09 164.191 720.65C164.191 715.21 166.639 710.756 172.963 710.756C179.287 710.756 181.735 715.21 181.735 720.65C181.735 726.09 179.287 730.544 172.963 730.544ZM172.963 725.342C174.901 725.342 175.955 723.54 175.955 720.65C175.955 717.76 174.901 715.958 172.963 715.958C171.025 715.958 169.971 717.76 169.971 720.65C169.971 723.54 171.025 725.342 172.963 725.342ZM190.922 730.544C186.162 730.544 183.714 726.09 183.714 720.65C183.714 715.21 186.162 710.756 190.922 710.756C192.69 710.756 194.186 711.334 195.274 712.626V708.818C195.274 706.88 195.002 705.044 194.254 703.48L200.884 702.256V724.322C200.884 726.43 201.428 728.164 202.618 729.422C201.632 730.068 200.476 730.544 199.218 730.544C197.722 730.544 196.328 729.83 195.818 727.926C194.73 729.694 192.996 730.544 190.922 730.544ZM192.452 725.342C194.322 725.342 195.342 723.54 195.342 720.65C195.342 717.76 194.322 715.958 192.452 715.958C190.548 715.958 189.494 717.76 189.494 720.65C189.494 723.54 190.548 725.342 192.452 725.342ZM212.652 730C213.128 728.334 213.298 726.464 213.298 724.526V716.366C212.278 716.4 211.292 716.502 210.476 716.74C210.102 715.822 209.864 714.972 209.864 714.156C209.864 712.694 210.612 711.572 212.686 711.334C211.904 709.804 211.564 708.682 211.564 707.56C211.564 704.16 214.692 702.256 218.602 702.256C221.628 702.256 224.484 703.446 224.484 706.064C224.484 708.648 221.696 709.09 219.996 709.124C220.03 708.92 220.03 708.784 220.03 708.648C220.03 707.73 219.622 707.152 218.806 707.152C218.126 707.152 217.378 707.56 217.378 708.58C217.378 709.362 217.854 710.416 218.466 711.3H219.656C221.22 711.3 222.478 711.13 223.532 710.824C223.736 711.64 223.838 712.354 223.838 713C223.838 715.21 222.614 716.434 220.574 716.434H218.908V724.526C218.908 726.464 219.18 728.334 219.894 730H212.652ZM232.992 730.544C227.416 730.544 224.322 726.158 224.322 720.616C224.322 715.414 227.008 710.756 232.686 710.756C237.616 710.756 239.996 714.224 240.2 719.392L230.442 722.69C231.19 724.662 232.822 725.342 234.794 725.342C236.698 725.342 238.432 724.696 239.758 723.506C240.234 726.668 238.262 730.544 232.992 730.544ZM230.068 719.29L235.032 717.59C234.862 716.604 234.148 715.584 232.788 715.584C231.054 715.584 230.204 717.216 230.068 719.29ZM242.228 730C242.704 728.334 242.874 726.464 242.874 724.526V717.25C242.874 715.312 242.602 713.476 241.854 711.912L247.94 710.824V713.714C248.892 711.776 250.388 710.756 252.326 710.756C254.604 710.756 256.61 712.218 256.61 715.108C256.61 717.93 254.74 719.324 251.986 719.324C252.598 716.978 251.782 715.924 250.558 715.924C248.756 715.924 248.484 718.134 248.484 721.602V724.526C248.484 726.464 248.756 728.334 249.47 730H242.228ZM258.066 730C258.542 728.334 258.712 726.464 258.712 724.526V717.25C258.712 715.312 258.44 713.476 257.692 711.912L264.322 710.756V724.526C264.322 726.464 264.492 728.334 264.968 730H258.066ZM261.33 708.512C258.848 708.512 257.828 706.88 257.828 705.384C257.828 703.888 258.848 702.256 261.33 702.256C263.812 702.256 264.832 703.888 264.832 705.384C264.832 706.88 263.812 708.512 261.33 708.512ZM275.591 730.544C270.015 730.544 266.921 726.158 266.921 720.616C266.921 715.414 269.607 710.756 275.285 710.756C280.215 710.756 282.595 714.224 282.799 719.392L273.041 722.69C273.789 724.662 275.421 725.342 277.393 725.342C279.297 725.342 281.031 724.696 282.357 723.506C282.833 726.668 280.861 730.544 275.591 730.544ZM272.667 719.29L277.631 717.59C277.461 716.604 276.747 715.584 275.387 715.584C273.653 715.584 272.803 717.216 272.667 719.29ZM290.472 737.072C288.466 737.616 286.018 736.97 286.018 734.522C286.018 732.788 287.242 731.666 288.5 730.544C286.46 730.51 284.862 728.844 284.862 726.804C284.862 724.73 286.46 723.064 288.602 723.064C290.812 723.064 292.478 724.832 292.478 727.212C292.478 730.238 289.86 732.346 289.86 734.964C289.86 735.644 290.03 736.324 290.472 737.072ZM310.125 730.544C303.801 730.544 301.353 726.09 301.353 720.65C301.353 715.21 303.801 710.756 310.125 710.756C316.449 710.756 318.897 715.21 318.897 720.65C318.897 726.09 316.449 730.544 310.125 730.544ZM310.125 725.342C312.063 725.342 313.117 723.54 313.117 720.65C313.117 717.76 312.063 715.958 310.125 715.958C308.187 715.958 307.133 717.76 307.133 720.65C307.133 723.54 308.187 725.342 310.125 725.342ZM332.781 737.344C332.917 735.304 330.945 734.624 328.633 734.08L326.049 733.502C323.635 732.924 321.527 732.04 321.527 729.592C321.527 727.994 322.411 726.838 324.179 726.158C321.799 724.628 320.813 721.874 320.813 719.086C320.813 715.21 322.717 711.402 327.579 710.824C327.307 709.634 327.035 708.036 327.035 706.71C327.035 703.412 328.837 702.256 330.503 702.256C332.135 702.256 333.529 703.378 333.529 705.214C333.529 707.832 330.741 708.24 330.571 710.892C335.195 711.606 336.997 715.312 336.997 719.086C336.997 723.302 334.753 727.416 328.905 727.416C327.919 727.416 327.103 727.552 327.103 728.266C327.103 728.81 327.579 729.116 328.905 729.286L332.951 729.728C335.739 730.034 337.881 731.156 337.881 733.468C337.881 736.426 334.447 737.31 332.781 737.344ZM328.905 722.384C330.571 722.384 331.489 720.922 331.489 719.086C331.489 717.25 330.571 715.788 328.905 715.788C327.239 715.788 326.321 717.25 326.321 719.086C326.321 720.922 327.239 722.384 328.905 722.384ZM356.394 730.544C354.252 730.544 352.484 729.66 351.396 727.722C350.852 729.082 349.594 730.204 347.554 730.204C346.772 730.204 346.126 730.034 345.616 729.796C346.262 728.266 346.432 726.464 346.432 724.526V708.818C346.432 706.88 346.16 705.044 345.412 703.48L352.042 702.256V712.626C353.13 711.334 354.626 710.756 356.394 710.756C361.154 710.756 363.602 715.21 363.602 720.65C363.602 726.09 361.154 730.544 356.394 730.544ZM354.864 725.342C356.768 725.342 357.822 723.54 357.822 720.65C357.822 717.76 356.768 715.958 354.864 715.958C352.994 715.958 351.974 717.76 351.974 720.65C351.974 723.54 352.994 725.342 354.864 725.342ZM371.526 730.544C367.786 730.544 365.27 728.232 365.27 724.73C365.27 721.16 367.888 719.358 371.832 719.358C373.566 719.358 374.96 719.732 375.946 720.378V718.202C375.946 716.468 374.892 715.686 373.464 715.686C372.172 715.686 371.05 716.332 371.05 717.624C371.05 717.93 371.118 718.304 371.22 718.61C368.942 719.086 366.29 717.998 366.29 715.346C366.29 712.286 369.792 710.756 373.498 710.756C378.258 710.756 381.556 713.34 381.556 717.386V724.322C381.556 726.43 382.1 728.164 383.29 729.422C382.304 730.068 381.148 730.544 379.89 730.544C378.496 730.544 377.238 730 376.626 728.334C375.538 729.694 373.804 730.544 371.526 730.544ZM373.498 726.226C375.028 726.226 376.15 725.546 376.15 724.424C376.15 723.302 375.028 722.656 373.498 722.656C371.968 722.656 370.88 723.302 370.88 724.424C370.88 725.546 371.968 726.226 373.498 726.226ZM384.669 730C385.145 728.334 385.315 726.464 385.315 724.526V717.25C385.315 715.312 385.043 713.476 384.295 711.912L390.381 710.824V713.714C391.333 711.776 392.829 710.756 394.767 710.756C397.045 710.756 399.051 712.218 399.051 715.108C399.051 717.93 397.181 719.324 394.427 719.324C395.039 716.978 394.223 715.924 392.999 715.924C391.197 715.924 390.925 718.134 390.925 721.602V724.526C390.925 726.464 391.197 728.334 391.911 730H384.669ZM408.603 730.544C403.027 730.544 399.933 726.158 399.933 720.616C399.933 715.414 402.619 710.756 408.297 710.756C413.227 710.756 415.607 714.224 415.811 719.392L406.053 722.69C406.801 724.662 408.433 725.342 410.405 725.342C412.309 725.342 414.043 724.696 415.369 723.506C415.845 726.668 413.873 730.544 408.603 730.544ZM405.679 719.29L410.643 717.59C410.473 716.604 409.759 715.584 408.399 715.584C406.665 715.584 405.815 717.216 405.679 719.29ZM430.222 730.544C428.318 730.544 426.414 729.456 426.414 725.682V716.434C425.836 716.434 424.68 716.502 424.034 716.74C423.762 715.89 423.626 715.108 423.626 714.394C423.626 712.354 424.748 711.3 426.55 711.3C426.55 710.212 426.244 709.362 426.244 708.614C426.244 706.982 427.774 705.69 430.086 705.69C430.936 705.69 431.718 705.86 432.432 706.098C432.126 707.73 432.024 709.43 432.024 711.3C433.316 711.3 434.676 711.13 435.798 710.756C436.002 711.572 436.07 712.286 436.07 712.864C436.07 715.312 434.914 716.434 432.84 716.434H432.024V724.322C432.024 726.43 432.568 728.164 433.758 729.422C432.704 730.102 431.446 730.544 430.222 730.544ZM437.529 730C438.005 728.334 438.175 726.464 438.175 724.526V717.25C438.175 715.312 437.903 713.476 437.155 711.912L443.785 710.756V724.526C443.785 726.464 443.955 728.334 444.431 730H437.529ZM440.793 708.512C438.311 708.512 437.291 706.88 437.291 705.384C437.291 703.888 438.311 702.256 440.793 702.256C443.275 702.256 444.295 703.888 444.295 705.384C444.295 706.88 443.275 708.512 440.793 708.512ZM446.69 730C447.166 728.334 447.336 726.464 447.336 724.526V708.818C447.336 706.88 447.064 705.044 446.316 703.48L452.946 702.256V724.526C452.946 726.464 453.116 728.334 453.592 730H446.69ZM469.53 730.544C464.77 730.544 462.322 726.09 462.322 720.65C462.322 715.21 464.77 710.756 469.53 710.756C471.298 710.756 472.794 711.334 473.882 712.626V708.818C473.882 706.88 473.61 705.044 472.862 703.48L479.492 702.256V724.322C479.492 726.43 480.036 728.164 481.226 729.422C480.24 730.068 479.084 730.544 477.826 730.544C476.33 730.544 474.936 729.83 474.426 727.926C473.338 729.694 471.604 730.544 469.53 730.544ZM471.06 725.342C472.93 725.342 473.95 723.54 473.95 720.65C473.95 717.76 472.93 715.958 471.06 715.958C469.156 715.958 468.102 717.76 468.102 720.65C468.102 723.54 469.156 725.342 471.06 725.342ZM490.947 730.544C485.371 730.544 482.277 726.158 482.277 720.616C482.277 715.414 484.963 710.756 490.641 710.756C495.571 710.756 497.951 714.224 498.155 719.392L488.397 722.69C489.145 724.662 490.777 725.342 492.749 725.342C494.653 725.342 496.387 724.696 497.713 723.506C498.189 726.668 496.217 730.544 490.947 730.544ZM488.023 719.29L492.987 717.59C492.817 716.604 492.103 715.584 490.743 715.584C489.009 715.584 488.159 717.216 488.023 719.29ZM500.183 730C500.659 728.334 500.829 726.464 500.829 724.526V717.25C500.829 715.312 500.557 713.476 499.809 711.912L505.895 710.824V713.544C506.847 711.708 508.445 710.756 510.757 710.756C515.075 710.756 516.469 714.156 516.469 718.168V724.526C516.469 726.464 516.639 728.334 517.115 730H510.213C510.689 728.334 510.859 726.464 510.859 724.526V718.678C510.859 716.978 510.315 715.924 509.023 715.924C507.153 715.924 506.439 718.134 506.439 720.922V724.526C506.439 726.464 506.609 728.334 507.085 730H500.183ZM532.981 730.544C528.221 730.544 525.773 726.09 525.773 720.65C525.773 715.21 528.221 710.756 532.981 710.756C534.749 710.756 536.245 711.334 537.333 712.626V708.818C537.333 706.88 537.061 705.044 536.313 703.48L542.943 702.256V724.322C542.943 726.43 543.487 728.164 544.677 729.422C543.691 730.068 542.535 730.544 541.277 730.544C539.781 730.544 538.387 729.83 537.877 727.926C536.789 729.694 535.055 730.544 532.981 730.544ZM534.511 725.342C536.381 725.342 537.401 723.54 537.401 720.65C537.401 717.76 536.381 715.958 534.511 715.958C532.607 715.958 531.553 717.76 531.553 720.65C531.553 723.54 532.607 725.342 534.511 725.342ZM552.018 730.544C548.278 730.544 545.762 728.232 545.762 724.73C545.762 721.16 548.38 719.358 552.324 719.358C554.058 719.358 555.452 719.732 556.438 720.378V718.202C556.438 716.468 555.384 715.686 553.956 715.686C552.664 715.686 551.542 716.332 551.542 717.624C551.542 717.93 551.61 718.304 551.712 718.61C549.434 719.086 546.782 717.998 546.782 715.346C546.782 712.286 550.284 710.756 553.99 710.756C558.75 710.756 562.048 713.34 562.048 717.386V724.322C562.048 726.43 562.592 728.164 563.782 729.422C562.796 730.068 561.64 730.544 560.382 730.544C558.988 730.544 557.73 730 557.118 728.334C556.03 729.694 554.296 730.544 552.018 730.544ZM553.99 726.226C555.52 726.226 556.642 725.546 556.642 724.424C556.642 723.302 555.52 722.656 553.99 722.656C552.46 722.656 551.372 723.302 551.372 724.424C551.372 725.546 552.46 726.226 553.99 726.226ZM576.824 737.344C576.96 735.304 574.988 734.624 572.675 734.08L570.092 733.502C567.678 732.924 565.57 732.04 565.57 729.592C565.57 727.994 566.454 726.838 568.222 726.158C565.842 724.628 564.856 721.874 564.856 719.086C564.856 715.21 566.76 711.402 571.622 710.824C571.35 709.634 571.078 708.036 571.078 706.71C571.078 703.412 572.88 702.256 574.546 702.256C576.178 702.256 577.572 703.378 577.572 705.214C577.572 707.832 574.784 708.24 574.614 710.892C579.238 711.606 581.04 715.312 581.04 719.086C581.04 723.302 578.796 727.416 572.948 727.416C571.962 727.416 571.146 727.552 571.146 728.266C571.146 728.81 571.622 729.116 572.948 729.286L576.994 729.728C579.782 730.034 581.924 731.156 581.924 733.468C581.924 736.426 578.49 737.31 576.824 737.344ZM572.948 722.384C574.614 722.384 575.532 720.922 575.532 719.086C575.532 717.25 574.614 715.788 572.948 715.788C571.282 715.788 570.364 717.25 570.364 719.086C570.364 720.922 571.282 722.384 572.948 722.384ZM583.022 730C583.498 728.334 583.668 726.464 583.668 724.526V708.818C583.668 706.88 583.396 705.044 582.648 703.48L589.278 702.256V724.526C589.278 726.464 589.448 728.334 589.924 730H583.022ZM592.255 730C592.731 728.334 592.901 726.464 592.901 724.526V717.25C592.901 715.312 592.629 713.476 591.881 711.912L598.511 710.756V724.526C598.511 726.464 598.681 728.334 599.157 730H592.255ZM595.519 708.512C593.037 708.512 592.017 706.88 592.017 705.384C592.017 703.888 593.037 702.256 595.519 702.256C598.001 702.256 599.021 703.888 599.021 705.384C599.021 706.88 598.001 708.512 595.519 708.512ZM613.181 737.344C613.317 735.304 611.345 734.624 609.033 734.08L606.449 733.502C604.035 732.924 601.927 732.04 601.927 729.592C601.927 727.994 602.811 726.838 604.579 726.158C602.199 724.628 601.213 721.874 601.213 719.086C601.213 715.21 603.117 711.402 607.979 710.824C607.707 709.634 607.435 708.036 607.435 706.71C607.435 703.412 609.237 702.256 610.903 702.256C612.535 702.256 613.929 703.378 613.929 705.214C613.929 707.832 611.141 708.24 610.971 710.892C615.595 711.606 617.397 715.312 617.397 719.086C617.397 723.302 615.153 727.416 609.305 727.416C608.319 727.416 607.503 727.552 607.503 728.266C607.503 728.81 607.979 729.116 609.305 729.286L613.351 729.728C616.139 730.034 618.281 731.156 618.281 733.468C618.281 736.426 614.847 737.31 613.181 737.344ZM609.305 722.384C610.971 722.384 611.889 720.922 611.889 719.086C611.889 717.25 610.971 715.788 609.305 715.788C607.639 715.788 606.721 717.25 606.721 719.086C606.721 720.922 607.639 722.384 609.305 722.384ZM627.91 730.544C622.334 730.544 619.24 726.158 619.24 720.616C619.24 715.414 621.926 710.756 627.604 710.756C632.534 710.756 634.914 714.224 635.118 719.392L625.36 722.69C626.108 724.662 627.74 725.342 629.712 725.342C631.616 725.342 633.35 724.696 634.676 723.506C635.152 726.668 633.18 730.544 627.91 730.544ZM624.986 719.29L629.95 717.59C629.78 716.604 629.066 715.584 627.706 715.584C625.972 715.584 625.122 717.216 624.986 719.29ZM643.851 730C644.327 728.334 644.497 726.464 644.497 724.526V708.818C644.497 706.88 644.225 705.044 643.477 703.48L650.107 702.256V712.932C650.991 711.538 652.385 710.756 654.425 710.756C658.743 710.756 660.137 714.156 660.137 718.168V724.526C660.137 726.464 660.307 728.334 660.783 730H653.881C654.357 728.334 654.527 726.464 654.527 724.526V718.678C654.527 716.978 653.983 715.924 652.691 715.924C650.821 715.924 650.107 718.134 650.107 720.922V724.526C650.107 726.464 650.277 728.334 650.753 730H643.851ZM666.546 730L662.568 716.638C662.024 714.768 661.344 712.966 660.528 711.3H667.94C667.566 712.626 667.702 714.088 668.076 715.584L670.15 723.37L672.394 715.584C672.802 714.088 672.972 712.626 672.598 711.3H679.636C678.82 712.966 678.14 714.768 677.528 716.604L673.21 730H666.546ZM688.207 730.544C682.631 730.544 679.537 726.158 679.537 720.616C679.537 715.414 682.223 710.756 687.901 710.756C692.831 710.756 695.211 714.224 695.415 719.392L685.657 722.69C686.405 724.662 688.037 725.342 690.009 725.342C691.913 725.342 693.647 724.696 694.973 723.506C695.449 726.668 693.477 730.544 688.207 730.544ZM685.283 719.29L690.247 717.59C690.077 716.604 689.363 715.584 688.003 715.584C686.269 715.584 685.419 717.216 685.283 719.29ZM697.443 730C697.919 728.334 698.089 726.464 698.089 724.526V717.25C698.089 715.312 697.817 713.476 697.069 711.912L703.155 710.824V713.714C704.107 711.776 705.603 710.756 707.541 710.756C709.819 710.756 711.825 712.218 711.825 715.108C711.825 717.93 709.955 719.324 707.201 719.324C707.813 716.978 706.997 715.924 705.773 715.924C703.971 715.924 703.699 718.134 703.699 721.602V724.526C703.699 726.464 703.971 728.334 704.685 730H697.443ZM719.915 730.544C715.155 730.544 712.707 726.09 712.707 720.65C712.707 715.21 715.155 710.756 719.915 710.756C721.683 710.756 723.179 711.334 724.267 712.626V708.818C724.267 706.88 723.995 705.044 723.247 703.48L729.877 702.256V724.322C729.877 726.43 730.421 728.164 731.611 729.422C730.625 730.068 729.469 730.544 728.211 730.544C726.715 730.544 725.321 729.83 724.811 727.926C723.723 729.694 721.989 730.544 719.915 730.544ZM721.445 725.342C723.315 725.342 724.335 723.54 724.335 720.65C724.335 717.76 723.315 715.958 721.445 715.958C719.541 715.958 718.487 717.76 718.487 720.65C718.487 723.54 719.541 725.342 721.445 725.342ZM738.952 730.544C735.212 730.544 732.696 728.232 732.696 724.73C732.696 721.16 735.314 719.358 739.258 719.358C740.992 719.358 742.386 719.732 743.372 720.378V718.202C743.372 716.468 742.318 715.686 740.89 715.686C739.598 715.686 738.476 716.332 738.476 717.624C738.476 717.93 738.544 718.304 738.646 718.61C736.368 719.086 733.716 717.998 733.716 715.346C733.716 712.286 737.218 710.756 740.924 710.756C745.684 710.756 748.982 713.34 748.982 717.386V724.322C748.982 726.43 749.526 728.164 750.716 729.422C749.73 730.068 748.574 730.544 747.316 730.544C745.922 730.544 744.664 730 744.052 728.334C742.964 729.694 741.23 730.544 738.952 730.544ZM740.924 726.226C742.454 726.226 743.576 725.546 743.576 724.424C743.576 723.302 742.454 722.656 740.924 722.656C739.394 722.656 738.306 723.302 738.306 724.424C738.306 725.546 739.394 726.226 740.924 726.226ZM763.757 737.344C763.893 735.304 761.921 734.624 759.609 734.08L757.025 733.502C754.611 732.924 752.503 732.04 752.503 729.592C752.503 727.994 753.387 726.838 755.155 726.158C752.775 724.628 751.789 721.874 751.789 719.086C751.789 715.21 753.693 711.402 758.555 710.824C758.283 709.634 758.011 708.036 758.011 706.71C758.011 703.412 759.813 702.256 761.479 702.256C763.111 702.256 764.505 703.378 764.505 705.214C764.505 707.832 761.717 708.24 761.547 710.892C766.171 711.606 767.973 715.312 767.973 719.086C767.973 723.302 765.729 727.416 759.881 727.416C758.895 727.416 758.079 727.552 758.079 728.266C758.079 728.81 758.555 729.116 759.881 729.286L763.927 729.728C766.715 730.034 768.857 731.156 768.857 733.468C768.857 736.426 765.423 737.31 763.757 737.344ZM759.881 722.384C761.547 722.384 762.465 720.922 762.465 719.086C762.465 717.25 761.547 715.788 759.881 715.788C758.215 715.788 757.297 717.25 757.297 719.086C757.297 720.922 758.215 722.384 759.881 722.384ZM773.168 730.544C771.026 730.544 769.428 728.878 769.428 726.804C769.428 724.73 771.026 723.064 773.168 723.064C775.31 723.064 776.908 724.73 776.908 726.804C776.908 728.878 775.31 730.544 773.168 730.544ZM64.894 782H56.326C56.802 780.334 56.972 778.464 56.972 776.526V760.274C56.972 758.336 56.802 756.466 56.326 754.8H64.894C72.51 754.8 76.862 759.356 76.862 768.4C76.862 777.444 72.51 782 64.894 782ZM62.956 776.56H64.69C68.94 776.56 70.742 774.044 70.742 768.4C70.742 762.756 68.94 760.24 64.69 760.24H62.956V776.56ZM87.3962 782.544C81.8202 782.544 78.7262 778.158 78.7262 772.616C78.7262 767.414 81.4122 762.756 87.0902 762.756C92.0202 762.756 94.4002 766.224 94.6042 771.392L84.8462 774.69C85.5942 776.662 87.2262 777.342 89.1982 777.342C91.1022 777.342 92.8362 776.696 94.1622 775.506C94.6382 778.668 92.6662 782.544 87.3962 782.544ZM84.4722 771.29L89.4362 769.59C89.2662 768.604 88.5522 767.584 87.1922 767.584C85.4582 767.584 84.6082 769.216 84.4722 771.29ZM102.208 782.544C100.304 782.544 98.4002 781.456 98.4002 777.682V768.434C97.8222 768.434 96.6662 768.502 96.0202 768.74C95.7482 767.89 95.6122 767.108 95.6122 766.394C95.6122 764.354 96.7342 763.3 98.5362 763.3C98.5362 762.212 98.2302 761.362 98.2302 760.614C98.2302 758.982 99.7602 757.69 102.072 757.69C102.922 757.69 103.704 757.86 104.418 758.098C104.112 759.73 104.01 761.43 104.01 763.3C105.302 763.3 106.662 763.13 107.784 762.756C107.988 763.572 108.056 764.286 108.056 764.864C108.056 767.312 106.9 768.434 104.826 768.434H104.01V776.322C104.01 778.43 104.554 780.164 105.744 781.422C104.69 782.102 103.432 782.544 102.208 782.544ZM124.584 782.544C119.008 782.544 115.914 778.158 115.914 772.616C115.914 767.414 118.6 762.756 124.278 762.756C129.208 762.756 131.588 766.224 131.792 771.392L122.034 774.69C122.782 776.662 124.414 777.342 126.386 777.342C128.29 777.342 130.024 776.696 131.35 775.506C131.826 778.668 129.854 782.544 124.584 782.544ZM121.66 771.29L126.624 769.59C126.454 768.604 125.74 767.584 124.38 767.584C122.646 767.584 121.796 769.216 121.66 771.29ZM133.82 782C134.296 780.334 134.466 778.464 134.466 776.526V769.25C134.466 767.312 134.194 765.476 133.446 763.912L139.532 762.824V765.714C140.484 763.776 141.98 762.756 143.918 762.756C146.196 762.756 148.202 764.218 148.202 767.108C148.202 769.93 146.332 771.324 143.578 771.324C144.19 768.978 143.374 767.924 142.15 767.924C140.348 767.924 140.076 770.134 140.076 773.602V776.526C140.076 778.464 140.348 780.334 141.062 782H133.82ZM158.232 782C158.708 780.334 158.878 778.464 158.878 776.526V768.366C157.858 768.4 156.872 768.502 156.056 768.74C155.682 767.822 155.444 766.972 155.444 766.156C155.444 764.694 156.192 763.572 158.266 763.334C157.484 761.804 157.144 760.682 157.144 759.56C157.144 756.16 160.272 754.256 164.182 754.256C167.208 754.256 170.064 755.446 170.064 758.064C170.064 760.648 167.276 761.09 165.576 761.124C165.61 760.92 165.61 760.784 165.61 760.648C165.61 759.73 165.202 759.152 164.386 759.152C163.706 759.152 162.958 759.56 162.958 760.58C162.958 761.362 163.434 762.416 164.046 763.3H165.236C166.8 763.3 168.058 763.13 169.112 762.824C169.316 763.64 169.418 764.354 169.418 765C169.418 767.21 168.194 768.434 166.154 768.434H164.488V776.526C164.488 778.464 164.76 780.334 165.474 782H158.232ZM176.092 782.544C172.352 782.544 169.836 780.232 169.836 776.73C169.836 773.16 172.454 771.358 176.398 771.358C178.132 771.358 179.526 771.732 180.512 772.378V770.202C180.512 768.468 179.458 767.686 178.03 767.686C176.738 767.686 175.616 768.332 175.616 769.624C175.616 769.93 175.684 770.304 175.786 770.61C173.508 771.086 170.856 769.998 170.856 767.346C170.856 764.286 174.358 762.756 178.064 762.756C182.824 762.756 186.122 765.34 186.122 769.386V776.322C186.122 778.43 186.666 780.164 187.856 781.422C186.87 782.068 185.714 782.544 184.456 782.544C183.062 782.544 181.804 782 181.192 780.334C180.104 781.694 178.37 782.544 176.092 782.544ZM178.064 778.226C179.594 778.226 180.716 777.546 180.716 776.424C180.716 775.302 179.594 774.656 178.064 774.656C176.534 774.656 175.446 775.302 175.446 776.424C175.446 777.546 176.534 778.226 178.064 778.226ZM189.236 782C189.712 780.334 189.882 778.464 189.882 776.526V769.25C189.882 767.312 189.61 765.476 188.862 763.912L194.948 762.824V765.544C195.9 763.708 197.498 762.756 199.81 762.756C204.128 762.756 205.522 766.156 205.522 770.168V776.526C205.522 778.464 205.692 780.334 206.168 782H199.266C199.742 780.334 199.912 778.464 199.912 776.526V770.678C199.912 768.978 199.368 767.924 198.076 767.924C196.206 767.924 195.492 770.134 195.492 772.922V776.526C195.492 778.464 195.662 780.334 196.138 782H189.236ZM213.804 782.544C211.9 782.544 209.996 781.456 209.996 777.682V768.434C209.418 768.434 208.262 768.502 207.616 768.74C207.344 767.89 207.208 767.108 207.208 766.394C207.208 764.354 208.33 763.3 210.132 763.3C210.132 762.212 209.826 761.362 209.826 760.614C209.826 758.982 211.356 757.69 213.668 757.69C214.518 757.69 215.3 757.86 216.014 758.098C215.708 759.73 215.606 761.43 215.606 763.3C216.898 763.3 218.258 763.13 219.38 762.756C219.584 763.572 219.652 764.286 219.652 764.864C219.652 767.312 218.496 768.434 216.422 768.434H215.606V776.322C215.606 778.43 216.15 780.164 217.34 781.422C216.286 782.102 215.028 782.544 213.804 782.544ZM226.661 782.544C222.921 782.544 220.405 780.232 220.405 776.73C220.405 773.16 223.023 771.358 226.967 771.358C228.701 771.358 230.095 771.732 231.081 772.378V770.202C231.081 768.468 230.027 767.686 228.599 767.686C227.307 767.686 226.185 768.332 226.185 769.624C226.185 769.93 226.253 770.304 226.355 770.61C224.077 771.086 221.425 769.998 221.425 767.346C221.425 764.286 224.927 762.756 228.633 762.756C233.393 762.756 236.691 765.34 236.691 769.386V776.322C236.691 778.43 237.235 780.164 238.425 781.422C237.439 782.068 236.283 782.544 235.025 782.544C233.631 782.544 232.373 782 231.761 780.334C230.673 781.694 228.939 782.544 226.661 782.544ZM228.633 778.226C230.163 778.226 231.285 777.546 231.285 776.424C231.285 775.302 230.163 774.656 228.633 774.656C227.103 774.656 226.015 775.302 226.015 776.424C226.015 777.546 227.103 778.226 228.633 778.226ZM246.638 782.544C242.762 782.544 239.396 780.64 239.396 777.614C239.396 774.928 242.116 773.942 244.428 774.418C244.292 774.758 244.224 775.2 244.224 775.54C244.224 776.934 245.312 777.784 246.638 777.784C247.862 777.784 248.746 777.07 248.746 776.05C248.746 774.894 247.658 774.316 246.196 773.976L244.224 773.534C241.776 772.99 239.634 771.46 239.634 768.4C239.634 765.306 241.844 762.756 246.876 762.756C249.154 762.756 251.602 763.266 253.132 764.422V770.134C251.5 768.502 248.882 767.55 246.842 767.55C245.72 767.55 245.142 767.822 245.142 768.434C245.142 769.012 245.652 769.216 246.842 769.488L248.678 769.93C251.432 770.61 254.356 772.038 254.356 775.914C254.356 779.926 251.126 782.544 246.638 782.544ZM261.65 782.544C259.746 782.544 257.842 781.456 257.842 777.682V768.434C257.264 768.434 256.108 768.502 255.462 768.74C255.19 767.89 255.054 767.108 255.054 766.394C255.054 764.354 256.176 763.3 257.978 763.3C257.978 762.212 257.672 761.362 257.672 760.614C257.672 758.982 259.202 757.69 261.514 757.69C262.364 757.69 263.146 757.86 263.86 758.098C263.554 759.73 263.452 761.43 263.452 763.3C264.744 763.3 266.104 763.13 267.226 762.756C267.43 763.572 267.498 764.286 267.498 764.864C267.498 767.312 266.342 768.434 264.268 768.434H263.452V776.322C263.452 778.43 263.996 780.164 265.186 781.422C264.132 782.102 262.874 782.544 261.65 782.544ZM268.956 782C269.432 780.334 269.602 778.464 269.602 776.526V769.25C269.602 767.312 269.33 765.476 268.582 763.912L275.212 762.756V776.526C275.212 778.464 275.382 780.334 275.858 782H268.956ZM272.22 760.512C269.738 760.512 268.718 758.88 268.718 757.384C268.718 755.888 269.738 754.256 272.22 754.256C274.702 754.256 275.722 755.888 275.722 757.384C275.722 758.88 274.702 760.512 272.22 760.512ZM285.054 782.544C281.178 782.544 277.812 780.64 277.812 777.614C277.812 774.928 280.532 773.942 282.844 774.418C282.708 774.758 282.64 775.2 282.64 775.54C282.64 776.934 283.728 777.784 285.054 777.784C286.278 777.784 287.162 777.07 287.162 776.05C287.162 774.894 286.074 774.316 284.612 773.976L282.64 773.534C280.192 772.99 278.05 771.46 278.05 768.4C278.05 765.306 280.26 762.756 285.292 762.756C287.57 762.756 290.018 763.266 291.548 764.422V770.134C289.916 768.502 287.298 767.55 285.258 767.55C284.136 767.55 283.558 767.822 283.558 768.434C283.558 769.012 284.068 769.216 285.258 769.488L287.094 769.93C289.848 770.61 292.772 772.038 292.772 775.914C292.772 779.926 289.542 782.544 285.054 782.544ZM294.72 782C295.196 780.334 295.366 778.464 295.366 776.526V760.818C295.366 758.88 295.094 757.044 294.346 755.48L300.976 754.256V764.252C302.404 763.164 304.07 762.756 305.736 762.756C309.884 762.756 311.89 765.578 311.89 768.978C311.89 771.494 310.836 773.296 308.626 774.316C309.612 776.968 311.006 779.484 312.876 782H306.246C305.09 779.994 304.24 777.852 303.798 775.744H300.976V776.526C300.976 778.464 301.146 780.334 301.622 782H294.72ZM300.976 772.106H303.424C305.09 772.106 306.11 771.188 306.11 769.794C306.11 768.604 305.362 767.652 303.968 767.652C302.37 767.652 300.976 768.91 300.976 771.46V772.106ZM318.518 782.544C316.376 782.544 314.778 780.878 314.778 778.804C314.778 776.73 316.376 775.064 318.518 775.064C320.66 775.064 322.258 776.73 322.258 778.804C322.258 780.878 320.66 782.544 318.518 782.544ZM326.298 768.23C324.292 768.774 321.844 768.128 321.844 765.68C321.844 763.946 323.068 762.824 324.326 761.702C322.286 761.668 320.688 760.002 320.688 757.962C320.688 755.888 322.286 754.222 324.428 754.222C326.638 754.222 328.304 755.99 328.304 758.37C328.304 761.396 325.686 763.504 325.686 766.122C325.686 766.802 325.856 767.482 326.298 768.23ZM335.58 768.23C333.574 768.774 331.126 768.128 331.126 765.68C331.126 763.946 332.35 762.824 333.608 761.702C331.568 761.668 329.97 760.002 329.97 757.962C329.97 755.888 331.568 754.222 333.71 754.222C335.92 754.222 337.586 755.99 337.586 758.37C337.586 761.396 334.968 763.504 334.968 766.122C334.968 766.802 335.138 767.482 335.58 768.23Z" fill="#5F141E"/>
</svg>
