<svg width="1080" height="1080" viewBox="0 0 1080 1080" fill="none" xmlns="http://www.w3.org/2000/svg">
<rect width="1080" height="1080" fill="#F41116"/>
<path fill-rule="evenodd" clip-rule="evenodd" d="M366.866 84.413C370.059 78.5269 372.691 71.8 373.755 66.0829C376.108 66.4193 378.629 66.5874 381.373 66.5874C384.51 66.5874 386.919 66.3635 389.047 66.0271C389.999 70.623 387.814 75.3317 382.045 75.3317C381.597 75.3317 381.149 75.2754 380.701 75.2193C379.525 78.246 378.18 80.9373 376.669 83.3474C383.558 85.2529 388.879 90.5225 388.879 99.2665C388.879 108.067 383.614 113 377.844 113C374.54 113 372.075 111.374 370.955 108.964C374.932 108.403 379.469 105.601 379.469 100.107C379.469 94.278 374.316 90.2983 366.866 89.9619V102.406C366.866 105.601 367.146 108.684 367.931 111.43H356.56C357.344 108.684 357.624 105.601 357.624 102.406V76.229C357.624 73.0342 357.232 70.0071 356 67.4283L366.866 65.6907V84.413ZM417.953 79.7041C425.571 79.7042 431.004 83.7965 431.004 90.5787V102.125C431.004 105.601 431.956 108.516 433.86 110.533C432.348 111.542 430.499 112.327 428.539 112.327C426.299 112.327 424.283 111.374 423.33 108.572C421.538 110.87 418.625 112.327 414.873 112.327C408.823 112.327 404.567 108.572 404.567 102.742C404.567 96.8002 408.991 93.7733 415.377 93.7733C418.289 93.7733 420.698 94.3905 422.378 95.6232V91.8111C422.378 88.7283 420.473 87.3277 417.897 87.3277C415.545 87.3277 413.64 88.5603 413.64 90.8028C413.64 91.3633 413.752 91.9793 413.92 92.4837C410.391 93.2126 406.19 91.4752 406.19 87.2711C406.19 82.3384 411.848 79.7041 417.953 79.7041ZM446.41 79.7041C450.219 79.7042 454.196 80.6015 456.716 82.563V91.5312C454.028 88.7843 449.771 87.1031 446.354 87.103C444.282 87.103 443.161 87.7198 443.161 88.8963C443.161 89.9615 444.057 90.354 446.13 90.8586L449.322 91.6436C453.972 92.8203 458.621 95.2315 458.621 101.509C458.621 108.235 453.299 112.327 446.074 112.327C439.632 112.327 434.199 109.02 434.199 104.087C434.199 99.771 438.512 98.2021 442.096 98.9301C441.872 99.4907 441.76 100.276 441.76 100.892C441.76 103.471 443.722 104.928 446.074 104.928C448.315 104.928 449.938 103.639 449.938 101.733C449.938 99.6589 448.09 98.6502 445.514 98.0335L442.209 97.2484C438.288 96.3513 434.647 93.8294 434.647 88.8405C434.647 83.7401 438.456 79.7041 446.41 79.7041ZM472.401 79.7041C476.21 79.7042 480.186 80.6015 482.707 82.563V91.5312C480.019 88.7843 475.762 87.1031 472.345 87.103C470.273 87.103 469.152 87.7198 469.152 88.8963C469.152 89.9615 470.049 90.354 472.121 90.8586L475.314 91.6436C479.963 92.8203 484.612 95.2315 484.612 101.509C484.612 108.235 479.291 112.327 472.065 112.327C465.624 112.327 460.191 109.02 460.191 104.087C460.191 99.771 464.503 98.2021 468.087 98.9301C467.864 99.4907 467.752 100.276 467.752 100.892C467.752 103.471 469.713 104.928 472.065 104.928C474.306 104.928 475.929 103.639 475.929 101.733C475.929 99.6589 474.081 98.6502 471.504 98.0335L468.2 97.2484C464.279 96.3513 460.639 93.8294 460.639 88.8405C460.639 83.7401 464.448 79.7041 472.401 79.7041ZM500.186 79.7041C508.083 79.7042 512.06 85.3651 512.396 93.661L495.984 99.3223C497.161 102.91 500.073 104.312 503.49 104.312C506.738 104.312 509.595 103.134 511.724 101.116C512.395 106.217 509.091 112.327 500.745 112.327C491.728 112.327 486.519 105.209 486.519 95.9596C486.519 87.2717 491.111 79.7041 500.186 79.7041ZM542.254 79.7041C552.391 79.7041 556.536 86.9351 556.536 96.0154C556.536 105.096 552.391 112.327 542.254 112.327C532.059 112.327 527.971 105.096 527.971 96.0154C527.971 86.9351 532.059 79.7041 542.254 79.7041ZM583.858 71.3521C585.145 71.3521 586.322 71.6323 587.498 72.0248C586.993 74.7712 586.826 77.6302 586.826 80.6015C588.954 80.6015 591.139 80.3208 593.043 79.7041C593.379 80.9929 593.491 82.0582 593.491 82.9552C593.491 86.7669 591.698 88.5041 588.393 88.5041H586.826V102.125C586.826 105.657 587.777 108.516 589.682 110.533C588.057 111.598 586.098 112.327 584.192 112.327C581.112 112.327 578.199 110.421 578.199 104.255V88.5041H570.862V102.125C570.862 105.657 571.815 108.516 573.719 110.533C572.095 111.598 570.134 112.327 568.174 112.327C565.149 112.327 562.236 110.421 562.236 104.255V88.5041C561.228 88.5042 559.379 88.6163 558.259 89.0087C557.811 87.6639 557.643 86.4866 557.643 85.3655C557.643 82.1706 559.492 80.6016 562.46 80.6015C562.46 78.8075 561.956 77.2938 561.956 76.0044C561.956 73.4263 564.309 71.3521 567.893 71.3521C569.182 71.3521 570.358 71.6323 571.534 72.0248C571.03 74.7712 570.862 77.6302 570.862 80.6015H578.423C578.423 78.8075 577.919 77.2938 577.919 76.0044C577.919 73.4263 580.273 71.3521 583.858 71.3521ZM607.457 79.7041C615.354 79.7041 619.331 85.3651 619.667 93.661L603.257 99.3223C604.433 102.91 607.345 104.312 610.762 104.312C614.01 104.312 616.867 103.134 618.996 101.116C619.667 106.217 616.363 112.327 608.018 112.327C598.999 112.327 593.791 105.209 593.791 95.9596C593.791 87.2718 598.383 79.7042 607.457 79.7041ZM673.893 79.7041C681.791 79.7042 685.768 85.3651 686.104 93.661L669.692 99.3223C670.869 102.91 673.781 104.312 677.197 104.312C680.446 104.312 683.303 103.134 685.431 101.116C686.103 106.217 682.799 112.327 674.453 112.327C665.435 112.327 660.226 105.209 660.226 95.9596C660.226 87.2717 664.819 79.7041 673.893 79.7041ZM697.46 71.3521C698.748 71.3521 699.925 71.6323 701.101 72.0248C700.597 74.7712 700.428 77.6302 700.428 80.6015C702.557 80.6015 704.741 80.3208 706.646 79.7041C706.982 80.9929 707.093 82.0582 707.093 82.9552C707.093 86.7669 705.302 88.5041 701.997 88.5041H700.428V102.125C700.428 105.657 701.381 108.516 703.284 110.533C701.661 111.598 699.7 112.327 697.74 112.327C694.715 112.327 691.803 110.421 691.803 104.255V88.5041C690.795 88.5041 688.945 88.6162 687.826 89.0087C687.378 87.6639 687.21 86.4866 687.21 85.3655C687.21 82.1705 689.058 80.6015 692.027 80.6015C692.027 78.8075 691.523 77.2938 691.523 76.0044C691.523 73.4263 693.875 71.3522 697.46 71.3521ZM656.976 102.406C656.976 105.545 657.256 108.74 657.984 111.431H647.286C648.014 108.74 648.294 105.545 648.294 102.406V90.3548C648.294 87.1598 647.846 84.0769 646.67 81.554L656.976 79.7041V102.406ZM401.765 102.406C401.765 105.545 402.045 108.74 402.773 111.43H392.13C392.859 108.74 393.139 105.545 393.139 102.406V73.9304C393.139 70.7355 392.691 68.045 391.515 65.6349C394.931 65.0182 398.684 64.0652 401.765 63V102.406ZM524.721 102.406C524.721 105.545 525.001 108.74 525.728 111.43H515.086C515.815 108.74 516.094 105.545 516.094 102.406V73.9304C516.094 70.7355 515.646 68.045 514.47 65.6349C517.887 65.0182 521.64 64.0652 524.721 63V102.406ZM638.602 79.7041C642.355 79.7042 645.547 82.1143 645.547 86.7108C645.547 91.1952 642.579 93.3247 638.322 93.3247C639.33 89.5131 637.986 87.664 635.914 87.664C632.833 87.6642 632.217 91.4197 632.217 97.1368V102.406C632.217 105.545 632.61 108.74 633.729 111.43H622.526C623.254 108.74 623.535 105.545 623.535 102.406V90.3541C623.535 87.1592 623.087 84.0762 621.911 81.5533L631.432 79.8165V84.5245C633.001 81.3857 635.41 79.7041 638.602 79.7041ZM417.897 98.986C415.153 98.986 413.248 100.219 413.248 102.294C413.248 104.311 415.153 105.601 417.897 105.601C420.641 105.601 422.658 104.311 422.658 102.294C422.658 100.219 420.641 98.986 417.897 98.986ZM542.254 87.7199C538.837 87.7199 536.931 90.8588 536.931 96.0154C536.931 101.172 538.837 104.312 542.254 104.312C545.67 104.312 547.63 101.172 547.63 96.0154C547.63 90.8588 545.67 87.7199 542.254 87.7199ZM500.353 87.1595C497.273 87.1595 495.704 90.018 495.424 93.8856L504.386 90.8028C504.05 88.8967 502.762 87.1596 500.353 87.1595ZM607.625 87.1595C604.544 87.1596 602.976 90.0181 602.696 93.8856L611.658 90.8028C611.322 88.8966 610.034 87.1595 607.625 87.1595ZM674.061 87.1595C670.981 87.1595 669.412 90.018 669.132 93.8856L678.094 90.8028C677.758 88.8967 676.469 87.1596 674.061 87.1595ZM718.806 65.7473C722.382 65.7473 724.999 68.406 725 71.894C725 75.3819 722.382 78.0938 718.806 78.0938C715.188 78.0938 712.571 75.3556 712.571 71.894C712.571 68.4324 715.226 65.7473 718.806 65.7473ZM718.806 66.9323C715.953 66.9323 713.928 68.9983 713.928 71.894C713.928 74.8291 716.006 76.9088 718.806 76.9088C721.607 76.9088 723.658 74.8028 723.658 71.894C723.658 68.9853 721.66 66.9323 718.806 66.9323ZM652.327 65.7473C656.192 65.7474 657.816 68.2696 657.816 70.6235C657.816 73.0342 656.192 75.5563 652.327 75.5563C648.463 75.5563 646.837 73.0343 646.837 70.6235C646.837 68.2695 648.462 65.7473 652.327 65.7473ZM719.455 68.6472C720.657 68.6473 721.448 69.3888 721.448 70.3989C721.447 71.2425 720.913 71.8181 720.03 72.0099C720.772 72.1761 721.102 72.7256 721.296 73.5694L721.615 74.9373H720.224L720.03 73.7616C719.888 72.8283 719.773 72.6105 718.743 72.6105H717.754V74.9373H716.468V68.6472H719.455ZM717.754 69.6958V71.5619H718.817C719.685 71.5619 720.161 71.2168 720.161 70.5777C720.161 69.9385 719.658 69.6958 718.817 69.6958H717.754Z" fill="#FFF0D3"/>
<path d="M79.1 308L61.3 243.8C59.7 238.3 57.9 232.9 55.5 228H78.2C77.1 231.9 77.5 236.2 78.6 240.6L89.6 284L100.7 240.6C101.8 236.2 102.2 231.9 101 228H122.7C120.3 232.9 118.5 238.3 116.9 243.8L99.1 308H79.1ZM125.788 308C127.188 303.1 127.688 297.6 127.688 291.9V270.5C127.688 264.8 126.888 259.4 124.688 254.8L144.188 251.4V291.9C144.188 297.6 144.688 303.1 146.088 308H125.788ZM135.387 244.8C128.088 244.8 125.088 240 125.088 235.6C125.088 231.2 128.088 226.4 135.387 226.4C142.688 226.4 145.688 231.2 145.688 235.6C145.688 240 142.688 244.8 135.387 244.8ZM152.734 308C154.134 303.1 154.634 297.6 154.634 291.9V245.7C154.634 240 153.834 234.6 151.634 230L171.134 226.4V291.9C171.134 297.6 171.634 303.1 173.034 308H152.734ZM179.589 308C180.989 303.1 181.489 297.6 181.489 291.9V245.7C181.489 240 180.689 234.6 178.489 230L197.989 226.4V291.9C197.989 297.6 198.489 303.1 199.889 308H179.589ZM231.045 309.6C214.645 309.6 205.545 296.7 205.545 280.4C205.545 265.1 213.445 251.4 230.145 251.4C244.645 251.4 251.645 261.6 252.245 276.8L223.545 286.5C225.745 292.3 230.545 294.3 236.345 294.3C241.945 294.3 247.045 292.4 250.945 288.9C252.345 298.2 246.545 309.6 231.045 309.6ZM222.445 276.5L237.045 271.5C236.545 268.6 234.445 265.6 230.445 265.6C225.345 265.6 222.845 270.4 222.445 276.5ZM295.529 309.6C284.529 309.6 277.129 302.8 277.129 292.5C277.129 282 284.829 276.7 296.429 276.7C301.529 276.7 305.629 277.8 308.529 279.7V273.3C308.529 268.2 305.429 265.9 301.229 265.9C297.429 265.9 294.129 267.8 294.129 271.6C294.129 272.5 294.329 273.6 294.629 274.5C287.929 275.9 280.129 272.7 280.129 264.9C280.129 255.9 290.429 251.4 301.329 251.4C315.329 251.4 325.029 259 325.029 270.9V291.3C325.029 297.5 326.629 302.6 330.129 306.3C327.229 308.2 323.829 309.6 320.129 309.6C316.029 309.6 312.329 308 310.529 303.1C307.329 307.1 302.229 309.6 295.529 309.6ZM301.329 296.9C305.829 296.9 309.129 294.9 309.129 291.6C309.129 288.3 305.829 286.4 301.329 286.4C296.829 286.4 293.629 288.3 293.629 291.6C293.629 294.9 296.829 296.9 301.329 296.9ZM337.921 308C339.321 303.1 339.821 297.6 339.821 291.9V267.9C336.821 268 333.921 268.3 331.521 269C330.421 266.3 329.721 263.8 329.721 261.4C329.721 257.1 331.921 253.8 338.021 253.1C335.721 248.6 334.721 245.3 334.721 242C334.721 232 343.921 226.4 355.421 226.4C364.321 226.4 372.721 229.9 372.721 237.6C372.721 245.2 364.521 246.5 359.521 246.6C359.621 246 359.621 245.6 359.621 245.2C359.621 242.5 358.421 240.8 356.021 240.8C354.021 240.8 351.821 242 351.821 245C351.821 247.3 353.221 250.4 355.021 253H358.521C363.121 253 366.821 252.5 369.921 251.6C370.521 254 370.821 256.1 370.821 258C370.821 264.5 367.221 268.1 361.221 268.1H356.321V291.9C356.321 297.6 357.121 303.1 359.221 308H337.921ZM375.69 308C377.09 303.1 377.59 297.6 377.59 291.9V270.5C377.59 264.8 376.79 259.4 374.59 254.8L392.49 251.6V259.3C395.29 254 399.79 251.4 406.49 251.4C414.09 251.4 418.39 254.9 420.69 260.4C423.39 254.5 427.99 251.4 435.19 251.4C447.89 251.4 451.49 261.4 451.49 273.2V291.9C451.49 297.6 451.99 303.1 453.39 308H433.09C434.49 303.1 434.99 297.6 434.99 291.9V274.7C434.99 269.7 433.39 266.6 429.59 266.6C424.09 266.6 422.79 273.1 422.79 281.3V291.9C422.79 297.6 423.29 303.1 424.69 308H404.39C405.79 303.1 406.29 297.6 406.29 291.9V274.7C406.29 269.7 404.69 266.6 400.89 266.6C395.39 266.6 394.09 273.1 394.09 281.3V291.9C394.09 297.6 394.59 303.1 395.99 308H375.69ZM484.267 309.6C467.867 309.6 458.767 296.7 458.767 280.4C458.767 265.1 466.667 251.4 483.367 251.4C497.867 251.4 504.867 261.6 505.467 276.8L476.767 286.5C478.967 292.3 483.767 294.3 489.567 294.3C495.167 294.3 500.267 292.4 504.167 288.9C505.567 298.2 499.767 309.6 484.267 309.6ZM475.667 276.5L490.267 271.5C489.767 268.6 487.667 265.6 483.667 265.6C478.567 265.6 476.067 270.4 475.667 276.5ZM511.132 308C512.532 303.1 513.032 297.6 513.032 291.9V245.7C513.032 240 512.232 234.6 510.032 230L529.532 226.4V291.9C529.532 297.6 530.032 303.1 531.432 308H511.132ZM558.288 309.6C544.288 309.6 537.088 296.5 537.088 280.5C537.088 264.5 544.288 251.4 558.288 251.4C563.488 251.4 567.888 253.1 571.088 256.9V245.7C571.088 240 570.288 234.6 568.088 230L587.588 226.4V291.3C587.588 297.5 589.188 302.6 592.688 306.3C589.787 308.2 586.388 309.6 582.688 309.6C578.288 309.6 574.188 307.5 572.688 301.9C569.488 307.1 564.388 309.6 558.288 309.6ZM562.788 294.3C568.288 294.3 571.288 289 571.288 280.5C571.288 272 568.288 266.7 562.788 266.7C557.188 266.7 554.088 272 554.088 280.5C554.088 289 557.188 294.3 562.788 294.3ZM621.279 309.6C604.879 309.6 595.779 296.7 595.779 280.4C595.779 265.1 603.679 251.4 620.379 251.4C634.879 251.4 641.879 261.6 642.479 276.8L613.779 286.5C615.979 292.3 620.779 294.3 626.579 294.3C632.179 294.3 637.279 292.4 641.179 288.9C642.579 298.2 636.779 309.6 621.279 309.6ZM612.679 276.5L627.279 271.5C626.779 268.6 624.679 265.6 620.679 265.6C615.579 265.6 613.079 270.4 612.679 276.5ZM78.7 421.6C67.3 421.6 57.4 416 57.4 407.1C57.4 399.2 65.4 396.3 72.2 397.7C71.8 398.7 71.6 400 71.6 401C71.6 405.1 74.8 407.6 78.7 407.6C82.3 407.6 84.9 405.5 84.9 402.5C84.9 399.1 81.7 397.4 77.4 396.4L71.6 395.1C64.4 393.5 58.1 389 58.1 380C58.1 370.9 64.6 363.4 79.4 363.4C86.1 363.4 93.3 364.9 97.8 368.3V385.1C93 380.3 85.3 377.5 79.3 377.5C76 377.5 74.3 378.3 74.3 380.1C74.3 381.8 75.8 382.4 79.3 383.2L84.7 384.5C92.8 386.5 101.4 390.7 101.4 402.1C101.4 413.9 91.9 421.6 78.7 421.6ZM107.428 420C108.828 415.1 109.328 409.6 109.328 403.9V382.5C109.328 376.8 108.528 371.4 106.328 366.8L125.828 363.4V403.9C125.828 409.6 126.328 415.1 127.728 420H107.428ZM117.028 356.8C109.728 356.8 106.728 352 106.728 347.6C106.728 343.2 109.728 338.4 117.028 338.4C124.328 338.4 127.328 343.2 127.328 347.6C127.328 352 124.328 356.8 117.028 356.8ZM134.674 420C136.074 415.1 136.574 409.6 136.574 403.9V382.5C136.574 376.8 135.774 371.4 133.574 366.8L151.474 363.6V371.6C154.274 366.2 158.974 363.4 165.774 363.4C178.474 363.4 182.574 373.4 182.574 385.2V403.9C182.574 409.6 183.074 415.1 184.474 420H164.174C165.574 415.1 166.074 409.6 166.074 403.9V386.7C166.074 381.7 164.474 378.6 160.674 378.6C155.174 378.6 153.074 385.1 153.074 393.3V403.9C153.074 409.6 153.574 415.1 154.974 420H134.674ZM215.42 421.6C199.02 421.6 189.92 408.7 189.92 392.4C189.92 377.1 197.82 363.4 214.52 363.4C229.02 363.4 236.02 373.6 236.62 388.8L207.92 398.5C210.12 404.3 214.92 406.3 220.72 406.3C226.32 406.3 231.42 404.4 235.32 400.9C236.72 410.2 230.92 421.6 215.42 421.6ZM206.82 388.5L221.42 383.5C220.92 380.6 218.82 377.6 214.82 377.6C209.72 377.6 207.22 382.4 206.82 388.5ZM262.304 420C263.704 415.1 264.204 409.6 264.204 403.9V357.7C264.204 352 263.404 346.6 261.204 342L280.704 338.4V403.9C280.704 409.6 281.204 415.1 282.604 420H262.304ZM314.059 421.6C295.459 421.6 288.259 408.5 288.259 392.5C288.259 376.5 295.459 363.4 314.059 363.4C332.659 363.4 339.859 376.5 339.859 392.5C339.859 408.5 332.659 421.6 314.059 421.6ZM314.059 406.3C319.759 406.3 322.859 401 322.859 392.5C322.859 384 319.759 378.7 314.059 378.7C308.359 378.7 305.259 384 305.259 392.5C305.259 401 308.359 406.3 314.059 406.3ZM366.881 421.6C352.881 421.6 345.681 408.5 345.681 392.5C345.681 376.5 352.881 363.4 366.881 363.4C372.081 363.4 376.481 365.1 379.681 368.9V357.7C379.681 352 378.881 346.6 376.681 342L396.181 338.4V403.3C396.181 409.5 397.781 414.6 401.281 418.3C398.381 420.2 394.981 421.6 391.281 421.6C386.881 421.6 382.781 419.5 381.281 413.9C378.081 419.1 372.981 421.6 366.881 421.6ZM371.381 406.3C376.881 406.3 379.881 401 379.881 392.5C379.881 384 376.881 378.7 371.381 378.7C365.781 378.7 362.681 384 362.681 392.5C362.681 401 365.781 406.3 371.381 406.3ZM425.573 421.6C411.573 421.6 404.373 408.5 404.373 392.5C404.373 376.5 411.573 363.4 425.573 363.4C430.773 363.4 435.173 365.1 438.373 368.9V357.7C438.373 352 437.573 346.6 435.373 342L454.873 338.4V403.3C454.873 409.5 456.473 414.6 459.973 418.3C457.073 420.2 453.673 421.6 449.973 421.6C445.573 421.6 441.473 419.5 439.973 413.9C436.773 419.1 431.673 421.6 425.573 421.6ZM430.073 406.3C435.573 406.3 438.573 401 438.573 392.5C438.573 384 435.573 378.7 430.073 378.7C424.473 378.7 421.373 384 421.373 392.5C421.373 401 424.473 406.3 430.073 406.3ZM488.564 421.6C472.164 421.6 463.064 408.7 463.064 392.4C463.064 377.1 470.964 363.4 487.664 363.4C502.164 363.4 509.164 373.6 509.764 388.8L481.064 398.5C483.264 404.3 488.064 406.3 493.864 406.3C499.464 406.3 504.564 404.4 508.464 400.9C509.864 410.2 504.064 421.6 488.564 421.6ZM479.964 388.5L494.564 383.5C494.064 380.6 491.964 377.6 487.964 377.6C482.864 377.6 480.364 382.4 479.964 388.5ZM515.729 420C517.129 415.1 517.629 409.6 517.629 403.9V382.5C517.629 376.8 516.829 371.4 514.629 366.8L532.529 363.6V372.1C535.329 366.4 539.729 363.4 545.429 363.4C552.129 363.4 558.029 367.7 558.029 376.2C558.029 384.5 552.529 388.6 544.429 388.6C546.229 381.7 543.829 378.6 540.229 378.6C534.929 378.6 534.129 385.1 534.129 395.3V403.9C534.129 409.6 534.929 415.1 537.029 420H515.729ZM58.6 532C60 527.1 60.5 521.6 60.5 515.9V494.5C60.5 488.8 59.7 483.4 57.5 478.8L77 475.4V515.9C77 521.6 77.5 527.1 78.9 532H58.6ZM68.2 468.8C60.9 468.8 57.9 464 57.9 459.6C57.9 455.2 60.9 450.4 68.2 450.4C75.5 450.4 78.5 455.2 78.5 459.6C78.5 464 75.5 468.8 68.2 468.8ZM106.166 532C107.566 527.1 108.066 521.6 108.066 515.9V468.1C108.066 462.4 107.566 456.9 106.166 452H127.566C126.166 456.9 125.666 462.4 125.666 468.1V484.2C132.966 475.1 139.866 463.2 141.566 452H161.566C157.866 463.6 152.866 472.3 143.466 482.7C154.066 484.9 158.666 494.1 159.666 505.1L160.766 516.7C161.366 523.2 163.366 527.8 166.866 532H146.066C143.966 527.4 143.266 523.3 142.966 519.1L142.166 505.8C141.766 499.5 138.866 496.4 134.066 496.4C129.266 496.4 125.666 499.5 125.666 505.9V515.9C125.666 521.6 126.366 527.1 128.166 532H106.166ZM171.679 532C173.079 527.1 173.579 521.6 173.579 515.9V469.7C173.579 464 172.779 458.6 170.579 454L190.079 450.4V515.9C190.079 521.6 190.579 527.1 191.979 532H171.679ZM216.134 533.6C205.134 533.6 197.734 526.8 197.734 516.5C197.734 506 205.434 500.7 217.034 500.7C222.134 500.7 226.234 501.8 229.134 503.7V497.3C229.134 492.2 226.034 489.9 221.834 489.9C218.034 489.9 214.734 491.8 214.734 495.6C214.734 496.5 214.934 497.6 215.234 498.5C208.534 499.9 200.734 496.7 200.734 488.9C200.734 479.9 211.034 475.4 221.934 475.4C235.934 475.4 245.634 483 245.634 494.9V515.3C245.634 521.5 247.234 526.6 250.734 530.3C247.834 532.2 244.434 533.6 240.734 533.6C236.634 533.6 232.934 532 231.134 527.1C227.934 531.1 222.834 533.6 216.134 533.6ZM221.934 520.9C226.434 520.9 229.734 518.9 229.734 515.6C229.734 512.3 226.434 510.4 221.934 510.4C217.434 510.4 214.234 512.3 214.234 515.6C214.234 518.9 217.434 520.9 221.934 520.9ZM274.891 533.6C263.491 533.6 253.591 528 253.591 519.1C253.591 511.2 261.591 508.3 268.391 509.7C267.991 510.7 267.791 512 267.791 513C267.791 517.1 270.991 519.6 274.891 519.6C278.491 519.6 281.091 517.5 281.091 514.5C281.091 511.1 277.891 509.4 273.591 508.4L267.791 507.1C260.591 505.5 254.291 501 254.291 492C254.291 482.9 260.791 475.4 275.591 475.4C282.291 475.4 289.491 476.9 293.991 480.3V497.1C289.191 492.3 281.491 489.5 275.491 489.5C272.191 489.5 270.491 490.3 270.491 492.1C270.491 493.8 271.991 494.4 275.491 495.2L280.891 496.5C288.991 498.5 297.591 502.7 297.591 514.1C297.591 525.9 288.091 533.6 274.891 533.6ZM323.72 533.6C312.32 533.6 302.42 528 302.42 519.1C302.42 511.2 310.42 508.3 317.22 509.7C316.82 510.7 316.62 512 316.62 513C316.62 517.1 319.82 519.6 323.72 519.6C327.32 519.6 329.92 517.5 329.92 514.5C329.92 511.1 326.72 509.4 322.42 508.4L316.62 507.1C309.42 505.5 303.12 501 303.12 492C303.12 482.9 309.62 475.4 324.42 475.4C331.12 475.4 338.32 476.9 342.82 480.3V497.1C338.02 492.3 330.32 489.5 324.32 489.5C321.02 489.5 319.32 490.3 319.32 492.1C319.32 493.8 320.82 494.4 324.32 495.2L329.72 496.5C337.82 498.5 346.42 502.7 346.42 514.1C346.42 525.9 336.92 533.6 323.72 533.6ZM376.748 533.6C360.348 533.6 351.248 520.7 351.248 504.4C351.248 489.1 359.148 475.4 375.848 475.4C390.348 475.4 397.348 485.6 397.948 500.8L369.248 510.5C371.448 516.3 376.248 518.3 382.048 518.3C387.648 518.3 392.748 516.4 396.648 512.9C398.048 522.2 392.248 533.6 376.748 533.6ZM368.148 500.5L382.748 495.5C382.248 492.6 380.148 489.6 376.148 489.6C371.048 489.6 368.548 494.4 368.148 500.5ZM403.612 532C405.013 527.1 405.513 521.6 405.513 515.9V469.7C405.513 464 404.713 458.6 402.513 454L422.013 450.4V515.9C422.013 521.6 422.513 527.1 423.913 532H403.612ZM455.368 533.6C436.768 533.6 429.568 520.5 429.568 504.5C429.568 488.5 436.768 475.4 455.368 475.4C473.968 475.4 481.168 488.5 481.168 504.5C481.168 520.5 473.968 533.6 455.368 533.6ZM455.368 518.3C461.068 518.3 464.168 513 464.168 504.5C464.168 496 461.068 490.7 455.368 490.7C449.668 490.7 446.568 496 446.568 504.5C446.568 513 449.668 518.3 455.368 518.3ZM503.613 533.6C498.013 533.6 492.413 530.4 492.413 519.3V492.1C490.713 492.1 487.313 492.3 485.413 493C484.613 490.5 484.213 488.2 484.213 486.1C484.213 480.1 487.513 477 492.813 477C492.813 473.8 491.913 471.3 491.913 469.1C491.913 464.3 496.413 460.5 503.213 460.5C505.713 460.5 508.013 461 510.113 461.7C509.213 466.5 508.913 471.5 508.913 477H521.713C521.713 473.8 520.813 471.3 520.813 469.1C520.813 464.3 525.313 460.5 532.113 460.5C534.613 460.5 536.913 461 539.013 461.7C538.113 466.5 537.813 471.5 537.813 477C541.613 477 545.613 476.5 548.913 475.4C549.513 477.8 549.713 479.9 549.713 481.6C549.713 488.8 546.313 492.1 540.213 492.1H537.813V515.3C537.813 521.5 539.413 526.6 542.913 530.3C539.813 532.3 536.113 533.6 532.513 533.6C526.913 533.6 521.313 530.4 521.313 519.3V492.1H508.913V515.3C508.913 521.5 510.513 526.6 514.013 530.3C510.913 532.3 507.213 533.6 503.613 533.6ZM576.455 533.6C560.055 533.6 550.955 520.7 550.955 504.4C550.955 489.1 558.855 475.4 575.555 475.4C590.055 475.4 597.055 485.6 597.655 500.8L568.955 510.5C571.155 516.3 575.955 518.3 581.755 518.3C587.355 518.3 592.455 516.4 596.355 512.9C597.755 522.2 591.955 533.6 576.455 533.6ZM567.855 500.5L582.455 495.5C581.955 492.6 579.855 489.6 575.855 489.6C570.755 489.6 568.255 494.4 567.855 500.5ZM603.62 532C605.02 527.1 605.52 521.6 605.52 515.9V494.5C605.52 488.8 604.72 483.4 602.52 478.8L620.42 475.6V484.1C623.22 478.4 627.62 475.4 633.32 475.4C640.02 475.4 645.92 479.7 645.92 488.2C645.92 496.5 640.42 500.6 632.32 500.6C634.12 493.7 631.72 490.6 628.12 490.6C622.82 490.6 622.02 497.1 622.02 507.3V515.9C622.02 521.6 622.82 527.1 624.92 532H603.62ZM650.202 532C651.602 527.1 652.102 521.6 652.102 515.9V494.5C652.102 488.8 651.302 483.4 649.102 478.8L668.602 475.4V515.9C668.602 521.6 669.102 527.1 670.502 532H650.202ZM659.802 468.8C652.502 468.8 649.502 464 649.502 459.6C649.502 455.2 652.502 450.4 659.802 450.4C667.102 450.4 670.102 455.2 670.102 459.6C670.102 464 667.102 468.8 659.802 468.8ZM701.748 533.6C685.348 533.6 676.248 520.7 676.248 504.4C676.248 489.1 684.148 475.4 700.848 475.4C715.348 475.4 722.348 485.6 722.948 500.8L694.248 510.5C696.448 516.3 701.248 518.3 707.048 518.3C712.648 518.3 717.748 516.4 721.648 512.9C723.048 522.2 717.248 533.6 701.748 533.6ZM693.148 500.5L707.748 495.5C707.248 492.6 705.148 489.6 701.148 489.6C696.048 489.6 693.548 494.4 693.148 500.5ZM745.313 533.6C739.713 533.6 734.113 530.4 734.113 519.3V492.1C732.413 492.1 729.013 492.3 727.113 493C726.313 490.5 725.913 488.2 725.913 486.1C725.913 480.1 729.213 477 734.513 477C734.513 473.8 733.613 471.3 733.613 469.1C733.613 464.3 738.113 460.5 744.913 460.5C747.413 460.5 749.713 461 751.813 461.7C750.913 466.5 750.613 471.5 750.613 477C754.413 477 758.413 476.5 761.713 475.4C762.313 477.8 762.513 479.9 762.513 481.6C762.513 488.8 759.113 492.1 753.013 492.1H750.613V515.3C750.613 521.5 752.213 526.6 755.713 530.3C752.613 532.3 748.913 533.6 745.313 533.6ZM777.903 533.6C771.603 533.6 766.903 528.7 766.903 522.6C766.903 516.5 771.603 511.6 777.903 511.6C784.203 511.6 788.903 516.5 788.903 522.6C788.903 528.7 784.203 533.6 777.903 533.6ZM777.903 497.4C771.603 497.4 766.903 492.5 766.903 486.4C766.903 480.3 771.603 475.4 777.903 475.4C784.203 475.4 788.903 480.3 788.903 486.4C788.903 492.5 784.203 497.4 777.903 497.4ZM85.6 645.6C69 645.6 57.7 636.8 57.7 624.5C57.7 615.5 63.8 609.8 72 609.8C73.9 609.8 75.8 610.1 77.7 610.9C76.5 613.6 75.9 616.2 75.9 618.7C75.9 624.9 79.5 629.2 85.6 629.2C90.9 629.2 95.5 626 95.5 619.8C95.5 614.6 92.3 610.9 84.4 608.4L75 605.4C64.7 602.1 59.2 594.6 59.2 584.6C59.2 571 69.4 562.4 85.6 562.4C94.1 562.4 102.4 564.8 108.9 569.5V591.1C102.7 582.9 94.9 578.8 86.1 578.8C80.6 578.8 77.2 580.4 77.2 583.7C77.2 586.2 79.2 587.6 83.4 588.9L92.8 591.9C107 596.4 113.5 604.9 113.5 618.5C113.5 635.8 103 645.6 85.6 645.6ZM137.423 645.6C126.423 645.6 119.023 638.8 119.023 628.5C119.023 618 126.723 612.7 138.323 612.7C143.423 612.7 147.523 613.8 150.423 615.7V609.3C150.423 604.2 147.323 601.9 143.123 601.9C139.323 601.9 136.023 603.8 136.023 607.6C136.023 608.5 136.223 609.6 136.523 610.5C129.823 611.9 122.023 608.7 122.023 600.9C122.023 591.9 132.323 587.4 143.223 587.4C157.223 587.4 166.923 595 166.923 606.9V627.3C166.923 633.5 168.523 638.6 172.023 642.3C169.123 644.2 165.723 645.6 162.023 645.6C157.923 645.6 154.223 644 152.423 639.1C149.223 643.1 144.123 645.6 137.423 645.6ZM143.223 632.9C147.723 632.9 151.023 630.9 151.023 627.6C151.023 624.3 147.723 622.4 143.223 622.4C138.723 622.4 135.523 624.3 135.523 627.6C135.523 630.9 138.723 632.9 143.223 632.9ZM143.223 582.9C136.323 582.9 131.123 578 131.123 571.3C131.123 564.6 136.323 559.7 143.223 559.7C150.123 559.7 155.323 564.6 155.323 571.3C155.323 578 150.123 582.9 143.223 582.9ZM143.223 577.1C146.823 577.1 149.323 574.7 149.323 571.3C149.323 567.9 146.823 565.5 143.223 565.5C139.623 565.5 137.123 567.9 137.123 571.3C137.123 574.7 139.623 577.1 143.223 577.1ZM210.5 644L198.8 604.7C197.2 599.2 195.2 593.9 192.8 589H214.6C213.5 592.9 213.9 597.2 215 601.6L221.1 624.5L227.7 601.6C228.9 597.2 229.4 592.9 228.3 589H249C246.6 593.9 244.6 599.2 242.8 604.6L230.1 644H210.5ZM267.209 645.6C256.209 645.6 248.809 638.8 248.809 628.5C248.809 618 256.509 612.7 268.109 612.7C273.209 612.7 277.309 613.8 280.209 615.7V609.3C280.209 604.2 277.109 601.9 272.909 601.9C269.109 601.9 265.809 603.8 265.809 607.6C265.809 608.5 266.009 609.6 266.309 610.5C259.609 611.9 251.809 608.7 251.809 600.9C251.809 591.9 262.109 587.4 273.009 587.4C287.009 587.4 296.709 595 296.709 606.9V627.3C296.709 633.5 298.309 638.6 301.809 642.3C298.909 644.2 295.509 645.6 291.809 645.6C287.709 645.6 284.009 644 282.209 639.1C279.009 643.1 273.909 645.6 267.209 645.6ZM273.009 632.9C277.509 632.9 280.809 630.9 280.809 627.6C280.809 624.3 277.509 622.4 273.009 622.4C268.509 622.4 265.309 624.3 265.309 627.6C265.309 630.9 268.509 632.9 273.009 632.9ZM305.866 644C307.266 639.1 307.766 633.6 307.766 627.9V606.5C307.766 600.8 306.966 595.4 304.766 590.8L322.666 587.6V595.6C325.466 590.2 330.166 587.4 336.966 587.4C349.666 587.4 353.766 597.4 353.766 609.2V627.9C353.766 633.6 354.266 639.1 355.666 644H335.366C336.766 639.1 337.266 633.6 337.266 627.9V610.7C337.266 605.7 335.666 602.6 331.866 602.6C326.366 602.6 324.266 609.1 324.266 617.3V627.9C324.266 633.6 324.766 639.1 326.166 644H305.866ZM382.311 645.6C368.311 645.6 361.111 632.5 361.111 616.5C361.111 600.5 368.311 587.4 382.311 587.4C387.511 587.4 391.911 589.1 395.111 592.9V581.7C395.111 576 394.311 570.6 392.111 566L411.611 562.4V627.3C411.611 633.5 413.211 638.6 416.711 642.3C413.811 644.2 410.411 645.6 406.711 645.6C402.311 645.6 398.211 643.5 396.711 637.9C393.511 643.1 388.411 645.6 382.311 645.6ZM386.811 630.3C392.311 630.3 395.311 625 395.311 616.5C395.311 608 392.311 602.7 386.811 602.7C381.211 602.7 378.111 608 378.111 616.5C378.111 625 381.211 630.3 386.811 630.3ZM436.426 645.6C430.826 645.6 425.226 642.4 425.226 631.3V604.1C423.526 604.1 420.126 604.3 418.226 605C417.426 602.5 417.026 600.2 417.026 598.1C417.026 592.1 420.326 589 425.626 589C425.626 585.8 424.726 583.3 424.726 581.1C424.726 576.3 429.226 572.5 436.026 572.5C438.526 572.5 440.826 573 442.926 573.7C442.026 578.5 441.726 583.5 441.726 589C445.526 589 449.526 588.5 452.826 587.4C453.426 589.8 453.626 591.9 453.626 593.6C453.626 600.8 450.226 604.1 444.126 604.1H441.726V627.3C441.726 633.5 443.326 638.6 446.826 642.3C443.726 644.3 440.026 645.6 436.426 645.6ZM477.636 644C479.036 639.1 479.536 633.6 479.536 627.9V581.7C479.536 576 478.736 570.6 476.536 566L496.036 562.4V593.8C498.636 589.7 502.736 587.4 508.736 587.4C521.436 587.4 525.536 597.4 525.536 609.2V627.9C525.536 633.6 526.036 639.1 527.436 644H507.136C508.536 639.1 509.036 633.6 509.036 627.9V610.7C509.036 605.7 507.436 602.6 503.636 602.6C498.136 602.6 496.036 609.1 496.036 617.3V627.9C496.036 633.6 496.536 639.1 497.936 644H477.636ZM551.991 645.6C539.291 645.6 535.191 635.6 535.191 623.8V606.5C535.191 600.8 534.391 595.4 532.191 590.8L551.691 587.4V622.3C551.691 627.3 553.291 630.4 557.091 630.4C562.591 630.4 564.691 623.9 564.691 615.7V606.5C564.691 600.8 563.891 595.4 561.691 590.8L581.191 587.4V627.3C581.191 633.5 582.791 638.6 586.291 642.3C583.391 644.2 579.991 645.6 576.291 645.6C571.791 645.6 567.691 643.6 566.191 637.6C563.291 643 558.791 645.6 551.991 645.6ZM591.022 644C592.422 639.1 592.922 633.6 592.922 627.9V606.5C592.922 600.8 592.122 595.4 589.922 590.8L607.822 587.6V595.6C610.622 590.2 615.322 587.4 622.122 587.4C634.822 587.4 638.922 597.4 638.922 609.2V627.9C638.922 633.6 639.422 639.1 640.822 644H620.522C621.922 639.1 622.422 633.6 622.422 627.9V610.7C622.422 605.7 620.822 602.6 617.022 602.6C611.522 602.6 609.422 609.1 609.422 617.3V627.9C609.422 633.6 609.922 639.1 611.322 644H591.022ZM81.2 757.6C65.9 757.6 57.4 747.7 57.4 737.6C57.4 728.4 64.4 724 71.4 724C72.9 724 74.2 724.2 75.4 724.5C74.7 725.9 74 728.3 74 731.4C74 737.4 76.4 741.6 81.2 741.6C85.9 741.6 89 737.6 89 730.3C89 720.9 83.2 717.6 74.9 717.6C70.6 717.6 65.8 718.5 61.6 720.4L66.4 674.5C70.8 675.6 77.2 676.9 85.3 676.9C92.3 676.9 97.9 675.9 101.8 674.4C102.2 676 102.5 677.9 102.5 680C102.5 686.4 99.6 693.7 89.6 693.7C87.3 693.7 84.4 693.3 80.9 692.1L80 702.1C96.6 702.1 106.8 712.4 106.8 729.7C106.8 747.2 96.6 757.6 81.2 757.6ZM135.99 757.6C120.69 757.6 112.19 747.7 112.19 737.6C112.19 728.4 119.19 724 126.19 724C127.69 724 128.99 724.2 130.19 724.5C129.49 725.9 128.79 728.3 128.79 731.4C128.79 737.4 131.19 741.6 136.09 741.6C140.69 741.6 143.89 737.8 143.89 729.7C143.89 720.8 140.09 714.6 128.39 714.6C126.89 714.6 125.09 714.7 123.29 715L135.49 692H127.29C122.69 692 118.29 692.6 114.39 694.5V676H162.69L147.69 704.9C156.29 709 161.69 717.5 161.69 730C161.69 747.3 151.39 757.6 135.99 757.6ZM169.349 756C171.349 751.1 172.049 745.6 172.049 739.9V699.5C172.049 693.8 170.949 688.7 167.549 684.8L189.549 674.4V739.9C189.549 745.6 190.249 751.1 192.249 756H169.349ZM210.813 757.6C204.513 757.6 199.813 752.7 199.813 746.6C199.813 740.5 204.513 735.6 210.813 735.6C217.113 735.6 221.813 740.5 221.813 746.6C221.813 752.7 217.113 757.6 210.813 757.6ZM228.908 756C228.908 726 259.708 717.2 259.708 699.2C259.708 694 257.108 690.4 252.608 690.4C247.508 690.4 244.608 695.1 244.608 700.9C244.608 704.2 245.508 706.6 246.208 708C245.008 708.3 243.708 708.5 242.208 708.5C235.208 708.5 228.208 704.1 228.208 694.9C228.208 684.5 237.108 674.4 252.608 674.4C267.508 674.4 277.508 683.7 277.508 699.2C277.508 719.4 260.108 726.3 251.608 740H265.108C269.708 740 274.108 739 278.008 736.2V756H228.908ZM310.962 757.6C293.963 757.6 284.363 747.2 284.363 732.9C284.363 724.1 288.162 716.8 295.463 713.3C289.063 710.1 286.163 703.7 286.163 695.9C286.163 683.9 294.363 674.4 310.962 674.4C327.563 674.4 335.763 683.9 335.763 695.9C335.763 703.7 332.863 710.1 326.463 713.3C333.763 716.8 337.563 724.1 337.563 732.9C337.563 747.2 327.963 757.6 310.962 757.6ZM310.962 741.2C316.063 741.2 318.963 736.7 318.963 730C318.963 723.3 316.163 718.7 310.962 718.7C305.763 718.7 302.963 723.3 302.963 730C302.963 736.7 305.863 741.2 310.962 741.2ZM310.962 707.1C315.263 707.1 317.463 703.6 317.463 698.9C317.463 694.4 315.263 690.8 310.962 690.8C306.663 690.8 304.463 694.4 304.463 698.9C304.463 703.6 306.663 707.1 310.962 707.1ZM370.652 757.6C352.252 757.6 343.652 742.6 343.652 716C343.652 689.4 352.252 674.4 370.652 674.4C389.052 674.4 397.652 689.4 397.652 716C397.652 742.6 389.052 757.6 370.652 757.6ZM370.652 741.2C376.652 741.2 379.652 732.9 379.652 716C379.652 699.1 376.652 690.8 370.652 690.8C364.652 690.8 361.652 699.1 361.652 716C361.652 732.9 364.652 741.2 370.652 741.2ZM424.316 756C425.716 751.1 426.216 745.6 426.216 739.9V693.7C426.216 688 425.416 682.6 423.216 678L442.716 674.4V703.8C446.916 700.6 451.816 699.4 456.716 699.4C468.916 699.4 474.816 707.7 474.816 717.7C474.816 725.1 471.716 730.4 465.216 733.4C468.116 741.2 472.216 748.6 477.716 756H458.216C454.816 750.1 452.316 743.8 451.016 737.6H442.716V739.9C442.716 745.6 443.216 751.1 444.616 756H424.316ZM442.716 726.9H449.916C454.816 726.9 457.816 724.2 457.816 720.1C457.816 716.6 455.616 713.8 451.516 713.8C446.816 713.8 442.716 717.5 442.716 725V726.9ZM483.209 756C484.609 751.1 485.109 745.6 485.109 739.9V718.5C485.109 712.8 484.309 707.4 482.109 702.8L500.009 699.6V708.1C502.809 702.4 507.209 699.4 512.909 699.4C519.609 699.4 525.509 703.7 525.509 712.2C525.509 720.5 520.009 724.6 511.909 724.6C513.709 717.7 511.309 714.6 507.709 714.6C502.409 714.6 501.609 721.1 501.609 731.3V739.9C501.609 745.6 502.409 751.1 504.509 756H483.209ZM534.491 727.8C534.491 709.2 533.591 691.6 531.591 676H550.991C549.091 691.6 548.091 709.2 548.191 727.8H534.491ZM541.291 757.6C534.991 757.6 530.291 752.7 530.291 746.6C530.291 740.5 534.991 735.6 541.291 735.6C547.591 735.6 552.291 740.5 552.291 746.6C552.291 752.7 547.591 757.6 541.291 757.6Z" fill="#FFF0D3"/>
<path d="M60.134 833.468C57.924 833.468 56.258 831.7 56.258 829.32C56.258 826.294 58.876 824.186 58.876 821.568C58.876 820.888 58.706 820.208 58.264 819.46C60.27 818.916 62.718 819.562 62.718 822.01C62.718 823.744 61.494 824.866 60.236 825.988C62.276 826.022 63.874 827.688 63.874 829.728C63.874 831.802 62.276 833.468 60.134 833.468ZM69.416 833.468C67.206 833.468 65.54 831.7 65.54 829.32C65.54 826.294 68.158 824.186 68.158 821.568C68.158 820.888 67.988 820.208 67.546 819.46C69.552 818.916 72 819.562 72 822.01C72 823.744 70.776 824.866 69.518 825.988C71.558 826.022 73.156 827.688 73.156 829.728C73.156 831.802 71.558 833.468 69.416 833.468ZM78.4398 847.544C73.2718 847.544 70.4158 844.178 70.4158 840.744C70.4158 837.616 72.7958 836.12 75.1758 836.12C75.6858 836.12 76.1278 836.188 76.5358 836.29C76.2978 836.766 76.0598 837.582 76.0598 838.636C76.0598 840.676 76.8758 841.968 78.4398 841.968C79.9358 841.968 80.8198 840.778 80.8198 837.922V825.274C80.8198 823.336 80.6158 821.466 79.9698 819.8H87.4498C86.9738 821.466 86.8038 823.336 86.8038 825.274V838.296C86.8038 844.076 83.5738 847.544 78.4398 847.544ZM97.9215 847.544C92.3455 847.544 89.2515 843.158 89.2515 837.616C89.2515 832.414 91.9375 827.756 97.6155 827.756C102.546 827.756 104.926 831.224 105.13 836.392L95.3715 839.69C96.1195 841.662 97.7515 842.342 99.7235 842.342C101.628 842.342 103.362 841.696 104.688 840.506C105.164 843.668 103.192 847.544 97.9215 847.544ZM94.9975 836.29L99.9615 834.59C99.7915 833.604 99.0775 832.584 97.7175 832.584C95.9835 832.584 95.1335 834.216 94.9975 836.29ZM118.986 854.344C119.122 852.304 117.15 851.624 114.838 851.08L112.254 850.502C109.84 849.924 107.732 849.04 107.732 846.592C107.732 844.994 108.616 843.838 110.384 843.158C108.004 841.628 107.018 838.874 107.018 836.086C107.018 832.21 108.922 828.402 113.784 827.824C113.512 826.634 113.24 825.036 113.24 823.71C113.24 820.412 115.042 819.256 116.708 819.256C118.34 819.256 119.734 820.378 119.734 822.214C119.734 824.832 116.946 825.24 116.776 827.892C121.4 828.606 123.202 832.312 123.202 836.086C123.202 840.302 120.958 844.416 115.11 844.416C114.124 844.416 113.308 844.552 113.308 845.266C113.308 845.81 113.784 846.116 115.11 846.286L119.156 846.728C121.944 847.034 124.086 848.156 124.086 850.468C124.086 853.426 120.652 854.31 118.986 854.344ZM115.11 839.384C116.776 839.384 117.694 837.922 117.694 836.086C117.694 834.25 116.776 832.788 115.11 832.788C113.444 832.788 112.526 834.25 112.526 836.086C112.526 837.922 113.444 839.384 115.11 839.384ZM131.991 847C132.467 845.334 132.637 843.464 132.637 841.526V825.818C132.637 823.88 132.365 822.044 131.617 820.48L138.247 819.256V829.932C139.131 828.538 140.525 827.756 142.565 827.756C146.883 827.756 148.277 831.156 148.277 835.168V841.526C148.277 843.464 148.447 845.334 148.923 847H142.021C142.497 845.334 142.667 843.464 142.667 841.526V835.678C142.667 833.978 142.123 832.924 140.831 832.924C138.961 832.924 138.247 835.134 138.247 837.922V841.526C138.247 843.464 138.417 845.334 138.893 847H131.991ZM157.034 847.544C153.294 847.544 150.778 845.232 150.778 841.73C150.778 838.16 153.396 836.358 157.34 836.358C159.074 836.358 160.468 836.732 161.454 837.378V835.202C161.454 833.468 160.4 832.686 158.972 832.686C157.68 832.686 156.558 833.332 156.558 834.624C156.558 834.93 156.626 835.304 156.728 835.61C154.45 836.086 151.798 834.998 151.798 832.346C151.798 829.286 155.3 827.756 159.006 827.756C163.766 827.756 167.064 830.34 167.064 834.386V841.322C167.064 843.43 167.608 845.164 168.798 846.422C167.812 847.068 166.656 847.544 165.398 847.544C164.004 847.544 162.746 847 162.134 845.334C161.046 846.694 159.312 847.544 157.034 847.544ZM159.006 843.226C160.536 843.226 161.658 842.546 161.658 841.424C161.658 840.302 160.536 839.656 159.006 839.656C157.476 839.656 156.388 840.302 156.388 841.424C156.388 842.546 157.476 843.226 159.006 843.226ZM170.177 847C170.653 845.334 170.823 843.464 170.823 841.526V834.25C170.823 832.312 170.551 830.476 169.803 828.912L175.889 827.824V830.714C176.841 828.776 178.337 827.756 180.275 827.756C182.553 827.756 184.559 829.218 184.559 832.108C184.559 834.93 182.689 836.324 179.935 836.324C180.547 833.978 179.731 832.924 178.507 832.924C176.705 832.924 176.433 835.134 176.433 838.602V841.526C176.433 843.464 176.705 845.334 177.419 847H170.177ZM199.622 847.544C194.862 847.544 192.414 843.09 192.414 837.65C192.414 832.21 194.862 827.756 199.622 827.756C201.39 827.756 202.886 828.334 203.974 829.626V825.818C203.974 823.88 203.702 822.044 202.954 820.48L209.584 819.256V841.322C209.584 843.43 210.128 845.164 211.318 846.422C210.332 847.068 209.176 847.544 207.918 847.544C206.422 847.544 205.028 846.83 204.518 844.926C203.43 846.694 201.696 847.544 199.622 847.544ZM201.152 842.342C203.022 842.342 204.042 840.54 204.042 837.65C204.042 834.76 203.022 832.958 201.152 832.958C199.248 832.958 198.194 834.76 198.194 837.65C198.194 840.54 199.248 842.342 201.152 842.342ZM221.039 847.544C215.463 847.544 212.369 843.158 212.369 837.616C212.369 832.414 215.055 827.756 220.733 827.756C225.663 827.756 228.043 831.224 228.247 836.392L218.489 839.69C219.237 841.662 220.869 842.342 222.841 842.342C224.745 842.342 226.479 841.696 227.805 840.506C228.281 843.668 226.309 847.544 221.039 847.544ZM218.115 836.29L223.079 834.59C222.909 833.604 222.195 832.584 220.835 832.584C219.101 832.584 218.251 834.216 218.115 836.29ZM235.851 847.544C233.947 847.544 232.043 846.456 232.043 842.682V833.434C231.465 833.434 230.309 833.502 229.663 833.74C229.391 832.89 229.255 832.108 229.255 831.394C229.255 829.354 230.377 828.3 232.179 828.3C232.179 827.212 231.873 826.362 231.873 825.614C231.873 823.982 233.403 822.69 235.715 822.69C236.565 822.69 237.347 822.86 238.061 823.098C237.755 824.73 237.653 826.43 237.653 828.3C238.945 828.3 240.305 828.13 241.427 827.756C241.631 828.572 241.699 829.286 241.699 829.864C241.699 832.312 240.543 833.434 238.469 833.434H237.653V841.322C237.653 843.43 238.197 845.164 239.387 846.422C238.333 847.102 237.075 847.544 235.851 847.544ZM249.862 847C250.338 845.334 250.508 843.464 250.508 841.526V825.818C250.508 823.88 250.236 822.044 249.488 820.48L256.118 819.256V841.526C256.118 843.464 256.288 845.334 256.764 847H249.862ZM259.095 847C259.571 845.334 259.741 843.464 259.741 841.526V834.25C259.741 832.312 259.469 830.476 258.721 828.912L265.351 827.756V841.526C265.351 843.464 265.521 845.334 265.997 847H259.095ZM262.359 825.512C259.877 825.512 258.857 823.88 258.857 822.384C258.857 820.888 259.877 819.256 262.359 819.256C264.841 819.256 265.861 820.888 265.861 822.384C265.861 823.88 264.841 825.512 262.359 825.512ZM280.021 854.344C280.157 852.304 278.185 851.624 275.873 851.08L273.289 850.502C270.875 849.924 268.767 849.04 268.767 846.592C268.767 844.994 269.651 843.838 271.419 843.158C269.039 841.628 268.053 838.874 268.053 836.086C268.053 832.21 269.957 828.402 274.819 827.824C274.547 826.634 274.275 825.036 274.275 823.71C274.275 820.412 276.077 819.256 277.743 819.256C279.375 819.256 280.769 820.378 280.769 822.214C280.769 824.832 277.981 825.24 277.811 827.892C282.435 828.606 284.237 832.312 284.237 836.086C284.237 840.302 281.993 844.416 276.145 844.416C275.159 844.416 274.343 844.552 274.343 845.266C274.343 845.81 274.819 846.116 276.145 846.286L280.191 846.728C282.979 847.034 285.121 848.156 285.121 850.468C285.121 853.426 281.687 854.31 280.021 854.344ZM276.145 839.384C277.811 839.384 278.729 837.922 278.729 836.086C278.729 834.25 277.811 832.788 276.145 832.788C274.479 832.788 273.561 834.25 273.561 836.086C273.561 837.922 274.479 839.384 276.145 839.384ZM294.75 847.544C289.174 847.544 286.08 843.158 286.08 837.616C286.08 832.414 288.766 827.756 294.444 827.756C299.374 827.756 301.754 831.224 301.958 836.392L292.2 839.69C292.948 841.662 294.58 842.342 296.552 842.342C298.456 842.342 300.19 841.696 301.516 840.506C301.992 843.668 300.02 847.544 294.75 847.544ZM291.826 836.29L296.79 834.59C296.62 833.604 295.906 832.584 294.546 832.584C292.812 832.584 291.962 834.216 291.826 836.29ZM310.82 847.544C306.944 847.544 303.578 845.64 303.578 842.614C303.578 839.928 306.298 838.942 308.61 839.418C308.474 839.758 308.406 840.2 308.406 840.54C308.406 841.934 309.494 842.784 310.82 842.784C312.044 842.784 312.928 842.07 312.928 841.05C312.928 839.894 311.84 839.316 310.378 838.976L308.406 838.534C305.958 837.99 303.816 836.46 303.816 833.4C303.816 830.306 306.026 827.756 311.058 827.756C313.336 827.756 315.784 828.266 317.314 829.422V835.134C315.682 833.502 313.064 832.55 311.024 832.55C309.902 832.55 309.324 832.822 309.324 833.434C309.324 834.012 309.834 834.216 311.024 834.488L312.86 834.93C315.614 835.61 318.538 837.038 318.538 840.914C318.538 844.926 315.308 847.544 310.82 847.544ZM328.951 847.544C322.627 847.544 320.179 843.09 320.179 837.65C320.179 832.21 322.627 827.756 328.951 827.756C335.275 827.756 337.723 832.21 337.723 837.65C337.723 843.09 335.275 847.544 328.951 847.544ZM328.951 842.342C330.889 842.342 331.943 840.54 331.943 837.65C331.943 834.76 330.889 832.958 328.951 832.958C327.013 832.958 325.959 834.76 325.959 837.65C325.959 840.54 327.013 842.342 328.951 842.342ZM339.779 847C340.255 845.334 340.425 843.464 340.425 841.526V834.25C340.425 832.312 340.153 830.476 339.405 828.912L345.491 827.824V830.442C346.443 828.64 347.973 827.756 350.251 827.756C352.835 827.756 354.297 828.946 355.079 830.816C355.997 828.81 357.561 827.756 360.009 827.756C364.327 827.756 365.551 831.156 365.551 835.168V841.526C365.551 843.464 365.721 845.334 366.197 847H359.295C359.771 845.334 359.941 843.464 359.941 841.526V835.678C359.941 833.978 359.397 832.924 358.105 832.924C356.235 832.924 355.793 835.134 355.793 837.922V841.526C355.793 843.464 355.963 845.334 356.439 847H349.537C350.013 845.334 350.183 843.464 350.183 841.526V835.678C350.183 833.978 349.639 832.924 348.347 832.924C346.477 832.924 346.035 835.134 346.035 837.922V841.526C346.035 843.464 346.205 845.334 346.681 847H339.779ZM382.448 847.544C377.28 847.544 374.424 844.178 374.424 840.744C374.424 837.616 376.804 836.12 379.184 836.12C379.694 836.12 380.136 836.188 380.544 836.29C380.306 836.766 380.068 837.582 380.068 838.636C380.068 840.676 380.884 841.968 382.448 841.968C383.944 841.968 384.828 840.778 384.828 837.922V825.274C384.828 823.336 384.624 821.466 383.978 819.8H391.458C390.982 821.466 390.812 823.336 390.812 825.274V838.296C390.812 844.076 387.582 847.544 382.448 847.544ZM402.031 847.544C395.707 847.544 393.259 843.09 393.259 837.65C393.259 832.21 395.707 827.756 402.031 827.756C408.355 827.756 410.803 832.21 410.803 837.65C410.803 843.09 408.355 847.544 402.031 847.544ZM402.031 842.342C403.969 842.342 405.023 840.54 405.023 837.65C405.023 834.76 403.969 832.958 402.031 832.958C400.093 832.958 399.039 834.76 399.039 837.65C399.039 840.54 400.093 842.342 402.031 842.342ZM418.741 847.544C415.001 847.544 412.485 845.232 412.485 841.73C412.485 838.16 415.103 836.358 419.047 836.358C420.781 836.358 422.175 836.732 423.161 837.378V835.202C423.161 833.468 422.107 832.686 420.679 832.686C419.387 832.686 418.265 833.332 418.265 834.624C418.265 834.93 418.333 835.304 418.435 835.61C416.157 836.086 413.505 834.998 413.505 832.346C413.505 829.286 417.007 827.756 420.713 827.756C425.473 827.756 428.771 830.34 428.771 834.386V841.322C428.771 843.43 429.315 845.164 430.505 846.422C429.519 847.068 428.363 847.544 427.105 847.544C425.711 847.544 424.453 847 423.841 845.334C422.753 846.694 421.019 847.544 418.741 847.544ZM420.713 843.226C422.243 843.226 423.365 842.546 423.365 841.424C423.365 840.302 422.243 839.656 420.713 839.656C419.183 839.656 418.095 840.302 418.095 841.424C418.095 842.546 419.183 843.226 420.713 843.226ZM431.782 847C432.258 845.334 432.428 843.464 432.428 841.526V825.818C432.428 823.88 432.156 822.044 431.408 820.48L438.038 819.256V829.252C439.466 828.164 441.132 827.756 442.798 827.756C446.946 827.756 448.952 830.578 448.952 833.978C448.952 836.494 447.898 838.296 445.688 839.316C446.674 841.968 448.068 844.484 449.938 847H443.308C442.152 844.994 441.302 842.852 440.86 840.744H438.038V841.526C438.038 843.464 438.208 845.334 438.684 847H431.782ZM438.038 837.106H440.486C442.152 837.106 443.172 836.188 443.172 834.794C443.172 833.604 442.424 832.652 441.03 832.652C439.432 832.652 438.038 833.91 438.038 836.46V837.106ZM451.806 847C452.282 845.334 452.452 843.464 452.452 841.526V834.25C452.452 832.312 452.18 830.476 451.432 828.912L458.062 827.756V841.526C458.062 843.464 458.232 845.334 458.708 847H451.806ZM455.07 825.512C452.588 825.512 451.568 823.88 451.568 822.384C451.568 820.888 452.588 819.256 455.07 819.256C457.552 819.256 458.572 820.888 458.572 822.384C458.572 823.88 457.552 825.512 455.07 825.512ZM461.07 847C461.546 845.334 461.716 843.464 461.716 841.526V834.25C461.716 832.312 461.444 830.476 460.696 828.912L466.782 827.824V830.442C467.734 828.64 469.264 827.756 471.542 827.756C474.126 827.756 475.588 828.946 476.37 830.816C477.288 828.81 478.852 827.756 481.3 827.756C485.618 827.756 486.842 831.156 486.842 835.168V841.526C486.842 843.464 487.012 845.334 487.488 847H480.586C481.062 845.334 481.232 843.464 481.232 841.526V835.678C481.232 833.978 480.688 832.924 479.396 832.924C477.526 832.924 477.084 835.134 477.084 837.922V841.526C477.084 843.464 477.254 845.334 477.73 847H470.828C471.304 845.334 471.474 843.464 471.474 841.526V835.678C471.474 833.978 470.93 832.924 469.638 832.924C467.768 832.924 467.326 835.134 467.326 837.922V841.526C467.326 843.464 467.496 845.334 467.972 847H461.07ZM501.427 847L497.449 833.638C496.905 831.768 496.225 829.966 495.409 828.3H502.821C502.447 829.626 502.583 831.088 502.957 832.584L505.031 840.37L507.275 832.584C507.683 831.088 507.853 829.626 507.479 828.3H514.517C513.701 829.966 513.021 831.768 512.409 833.604L508.091 847H501.427ZM523.19 847.544C516.866 847.544 514.418 843.09 514.418 837.65C514.418 832.21 516.866 827.756 523.19 827.756C529.514 827.756 531.962 832.21 531.962 837.65C531.962 843.09 529.514 847.544 523.19 847.544ZM523.19 842.342C525.128 842.342 526.182 840.54 526.182 837.65C526.182 834.76 525.128 832.958 523.19 832.958C521.252 832.958 520.198 834.76 520.198 837.65C520.198 840.54 521.252 842.342 523.19 842.342ZM534.017 847C534.493 845.334 534.663 843.464 534.663 841.526V834.25C534.663 832.312 534.391 830.476 533.643 828.912L539.729 827.824V830.544C540.681 828.708 542.279 827.756 544.591 827.756C548.909 827.756 550.303 831.156 550.303 835.168V841.526C550.303 843.464 550.473 845.334 550.949 847H544.047C544.523 845.334 544.693 843.464 544.693 841.526V835.678C544.693 833.978 544.149 832.924 542.857 832.924C540.987 832.924 540.273 835.134 540.273 837.922V841.526C540.273 843.464 540.443 845.334 540.919 847H534.017ZM558.961 847C559.641 845.64 560.185 844.144 560.627 842.614L567.427 819.8H575.009L581.843 842.614C582.285 844.144 582.829 845.64 583.441 847H575.689C576.063 845.334 575.825 843.532 575.315 841.662L575.043 840.744H566.951L566.679 841.662C566.135 843.498 565.931 845.334 566.305 847H558.961ZM568.447 835.508H573.547L570.963 826.6L568.447 835.508ZM584.851 847C585.327 845.334 585.497 843.464 585.497 841.526V834.25C585.497 832.312 585.225 830.476 584.477 828.912L590.563 827.824V830.544C591.515 828.708 593.113 827.756 595.425 827.756C599.743 827.756 601.137 831.156 601.137 835.168V841.526C601.137 843.464 601.307 845.334 601.783 847H594.881C595.357 845.334 595.527 843.464 595.527 841.526V835.678C595.527 833.978 594.983 832.924 593.691 832.924C591.821 832.924 591.107 835.134 591.107 837.922V841.526C591.107 843.464 591.277 845.334 591.753 847H584.851ZM610.842 847.544C606.082 847.544 603.634 843.09 603.634 837.65C603.634 832.21 606.082 827.756 610.842 827.756C612.61 827.756 614.106 828.334 615.194 829.626V825.818C615.194 823.88 614.922 822.044 614.174 820.48L620.804 819.256V841.322C620.804 843.43 621.348 845.164 622.538 846.422C621.552 847.068 620.396 847.544 619.138 847.544C617.642 847.544 616.248 846.83 615.738 844.926C614.65 846.694 612.916 847.544 610.842 847.544ZM612.372 842.342C614.242 842.342 615.262 840.54 615.262 837.65C615.262 834.76 614.242 832.958 612.372 832.958C610.468 832.958 609.414 834.76 609.414 837.65C609.414 840.54 610.468 842.342 612.372 842.342ZM629.641 833.23C627.635 833.774 625.187 833.128 625.187 830.68C625.187 828.946 626.411 827.824 627.669 826.702C625.629 826.668 624.031 825.002 624.031 822.962C624.031 820.888 625.629 819.222 627.771 819.222C629.981 819.222 631.647 820.99 631.647 823.37C631.647 826.396 629.029 828.504 629.029 831.122C629.029 831.802 629.199 832.482 629.641 833.23ZM638.923 833.23C636.917 833.774 634.469 833.128 634.469 830.68C634.469 828.946 635.693 827.824 636.951 826.702C634.911 826.668 633.313 825.002 633.313 822.962C633.313 820.888 634.911 819.222 637.053 819.222C639.263 819.222 640.929 820.99 640.929 823.37C640.929 826.396 638.311 828.504 638.311 831.122C638.311 831.802 638.481 832.482 638.923 833.23Z" fill="#5F141E"/>
</svg>
