<svg width="1080" height="1080" viewBox="0 0 1080 1080" fill="none" xmlns="http://www.w3.org/2000/svg">
<rect width="1080" height="1080" fill="#F41116"/>
<path fill-rule="evenodd" clip-rule="evenodd" d="M366.866 84.413C370.059 78.5269 372.691 71.8 373.755 66.0829C376.108 66.4193 378.629 66.5874 381.373 66.5874C384.51 66.5874 386.919 66.3635 389.047 66.0271C389.999 70.623 387.814 75.3317 382.045 75.3317C381.597 75.3317 381.149 75.2754 380.701 75.2193C379.525 78.246 378.18 80.9373 376.669 83.3474C383.558 85.2529 388.879 90.5225 388.879 99.2665C388.879 108.067 383.614 113 377.844 113C374.54 113 372.075 111.374 370.955 108.964C374.932 108.403 379.469 105.601 379.469 100.107C379.469 94.278 374.316 90.2983 366.866 89.9619V102.406C366.866 105.601 367.146 108.684 367.931 111.43H356.56C357.344 108.684 357.624 105.601 357.624 102.406V76.229C357.624 73.0342 357.232 70.0071 356 67.4283L366.866 65.6907V84.413ZM417.953 79.7041C425.571 79.7042 431.004 83.7965 431.004 90.5787V102.125C431.004 105.601 431.956 108.516 433.86 110.533C432.348 111.542 430.499 112.327 428.539 112.327C426.299 112.327 424.283 111.374 423.33 108.572C421.538 110.87 418.625 112.327 414.873 112.327C408.823 112.327 404.567 108.572 404.567 102.742C404.567 96.8002 408.991 93.7733 415.377 93.7733C418.289 93.7733 420.698 94.3905 422.378 95.6232V91.8111C422.378 88.7283 420.473 87.3277 417.897 87.3277C415.545 87.3277 413.64 88.5603 413.64 90.8028C413.64 91.3633 413.752 91.9793 413.92 92.4837C410.391 93.2126 406.19 91.4752 406.19 87.2711C406.19 82.3384 411.848 79.7041 417.953 79.7041ZM446.41 79.7041C450.219 79.7042 454.196 80.6015 456.716 82.563V91.5312C454.028 88.7843 449.771 87.1031 446.354 87.103C444.282 87.103 443.161 87.7198 443.161 88.8963C443.161 89.9615 444.057 90.354 446.13 90.8586L449.322 91.6436C453.972 92.8203 458.621 95.2315 458.621 101.509C458.621 108.235 453.299 112.327 446.074 112.327C439.632 112.327 434.199 109.02 434.199 104.087C434.199 99.771 438.512 98.2021 442.096 98.9301C441.872 99.4907 441.76 100.276 441.76 100.892C441.76 103.471 443.722 104.928 446.074 104.928C448.315 104.928 449.938 103.639 449.938 101.733C449.938 99.6589 448.09 98.6502 445.514 98.0335L442.209 97.2484C438.288 96.3513 434.647 93.8294 434.647 88.8405C434.647 83.7401 438.456 79.7041 446.41 79.7041ZM472.401 79.7041C476.21 79.7042 480.186 80.6015 482.707 82.563V91.5312C480.019 88.7843 475.762 87.1031 472.345 87.103C470.273 87.103 469.152 87.7198 469.152 88.8963C469.152 89.9615 470.049 90.354 472.121 90.8586L475.314 91.6436C479.963 92.8203 484.612 95.2315 484.612 101.509C484.612 108.235 479.291 112.327 472.065 112.327C465.624 112.327 460.191 109.02 460.191 104.087C460.191 99.771 464.503 98.2021 468.087 98.9301C467.864 99.4907 467.752 100.276 467.752 100.892C467.752 103.471 469.713 104.928 472.065 104.928C474.306 104.928 475.929 103.639 475.929 101.733C475.929 99.6589 474.081 98.6502 471.504 98.0335L468.2 97.2484C464.279 96.3513 460.639 93.8294 460.639 88.8405C460.639 83.7401 464.448 79.7041 472.401 79.7041ZM500.186 79.7041C508.083 79.7042 512.06 85.3651 512.396 93.661L495.984 99.3223C497.161 102.91 500.073 104.312 503.49 104.312C506.738 104.312 509.595 103.134 511.724 101.116C512.395 106.217 509.091 112.327 500.745 112.327C491.728 112.327 486.519 105.209 486.519 95.9596C486.519 87.2717 491.111 79.7041 500.186 79.7041ZM542.254 79.7041C552.391 79.7041 556.536 86.9351 556.536 96.0154C556.536 105.096 552.391 112.327 542.254 112.327C532.059 112.327 527.971 105.096 527.971 96.0154C527.971 86.9351 532.059 79.7041 542.254 79.7041ZM583.858 71.3521C585.145 71.3521 586.322 71.6323 587.498 72.0248C586.993 74.7712 586.826 77.6302 586.826 80.6015C588.954 80.6015 591.139 80.3208 593.043 79.7041C593.379 80.9929 593.491 82.0582 593.491 82.9552C593.491 86.7669 591.698 88.5041 588.393 88.5041H586.826V102.125C586.826 105.657 587.777 108.516 589.682 110.533C588.057 111.598 586.098 112.327 584.192 112.327C581.112 112.327 578.199 110.421 578.199 104.255V88.5041H570.862V102.125C570.862 105.657 571.815 108.516 573.719 110.533C572.095 111.598 570.134 112.327 568.174 112.327C565.149 112.327 562.236 110.421 562.236 104.255V88.5041C561.228 88.5042 559.379 88.6163 558.259 89.0087C557.811 87.6639 557.643 86.4866 557.643 85.3655C557.643 82.1706 559.492 80.6016 562.46 80.6015C562.46 78.8075 561.956 77.2938 561.956 76.0044C561.956 73.4263 564.309 71.3521 567.893 71.3521C569.182 71.3521 570.358 71.6323 571.534 72.0248C571.03 74.7712 570.862 77.6302 570.862 80.6015H578.423C578.423 78.8075 577.919 77.2938 577.919 76.0044C577.919 73.4263 580.273 71.3521 583.858 71.3521ZM607.457 79.7041C615.354 79.7041 619.331 85.3651 619.667 93.661L603.257 99.3223C604.433 102.91 607.345 104.312 610.762 104.312C614.01 104.312 616.867 103.134 618.996 101.116C619.667 106.217 616.363 112.327 608.018 112.327C598.999 112.327 593.791 105.209 593.791 95.9596C593.791 87.2718 598.383 79.7042 607.457 79.7041ZM673.893 79.7041C681.791 79.7042 685.768 85.3651 686.104 93.661L669.692 99.3223C670.869 102.91 673.781 104.312 677.197 104.312C680.446 104.312 683.303 103.134 685.431 101.116C686.103 106.217 682.799 112.327 674.453 112.327C665.435 112.327 660.226 105.209 660.226 95.9596C660.226 87.2717 664.819 79.7041 673.893 79.7041ZM697.46 71.3521C698.748 71.3521 699.925 71.6323 701.101 72.0248C700.597 74.7712 700.428 77.6302 700.428 80.6015C702.557 80.6015 704.741 80.3208 706.646 79.7041C706.982 80.9929 707.093 82.0582 707.093 82.9552C707.093 86.7669 705.302 88.5041 701.997 88.5041H700.428V102.125C700.428 105.657 701.381 108.516 703.284 110.533C701.661 111.598 699.7 112.327 697.74 112.327C694.715 112.327 691.803 110.421 691.803 104.255V88.5041C690.795 88.5041 688.945 88.6162 687.826 89.0087C687.378 87.6639 687.21 86.4866 687.21 85.3655C687.21 82.1705 689.058 80.6015 692.027 80.6015C692.027 78.8075 691.523 77.2938 691.523 76.0044C691.523 73.4263 693.875 71.3522 697.46 71.3521ZM656.976 102.406C656.976 105.545 657.256 108.74 657.984 111.431H647.286C648.014 108.74 648.294 105.545 648.294 102.406V90.3548C648.294 87.1598 647.846 84.0769 646.67 81.554L656.976 79.7041V102.406ZM401.765 102.406C401.765 105.545 402.045 108.74 402.773 111.43H392.13C392.859 108.74 393.139 105.545 393.139 102.406V73.9304C393.139 70.7355 392.691 68.045 391.515 65.6349C394.931 65.0182 398.684 64.0652 401.765 63V102.406ZM524.721 102.406C524.721 105.545 525.001 108.74 525.728 111.43H515.086C515.815 108.74 516.094 105.545 516.094 102.406V73.9304C516.094 70.7355 515.646 68.045 514.47 65.6349C517.887 65.0182 521.64 64.0652 524.721 63V102.406ZM638.602 79.7041C642.355 79.7042 645.547 82.1143 645.547 86.7108C645.547 91.1952 642.579 93.3247 638.322 93.3247C639.33 89.5131 637.986 87.664 635.914 87.664C632.833 87.6642 632.217 91.4197 632.217 97.1368V102.406C632.217 105.545 632.61 108.74 633.729 111.43H622.526C623.254 108.74 623.535 105.545 623.535 102.406V90.3541C623.535 87.1592 623.087 84.0762 621.911 81.5533L631.432 79.8165V84.5245C633.001 81.3857 635.41 79.7041 638.602 79.7041ZM417.897 98.986C415.153 98.986 413.248 100.219 413.248 102.294C413.248 104.311 415.153 105.601 417.897 105.601C420.641 105.601 422.658 104.311 422.658 102.294C422.658 100.219 420.641 98.986 417.897 98.986ZM542.254 87.7199C538.837 87.7199 536.931 90.8588 536.931 96.0154C536.931 101.172 538.837 104.312 542.254 104.312C545.67 104.312 547.63 101.172 547.63 96.0154C547.63 90.8588 545.67 87.7199 542.254 87.7199ZM500.353 87.1595C497.273 87.1595 495.704 90.018 495.424 93.8856L504.386 90.8028C504.05 88.8967 502.762 87.1596 500.353 87.1595ZM607.625 87.1595C604.544 87.1596 602.976 90.0181 602.696 93.8856L611.658 90.8028C611.322 88.8966 610.034 87.1595 607.625 87.1595ZM674.061 87.1595C670.981 87.1595 669.412 90.018 669.132 93.8856L678.094 90.8028C677.758 88.8967 676.469 87.1596 674.061 87.1595ZM718.806 65.7473C722.382 65.7473 724.999 68.406 725 71.894C725 75.3819 722.382 78.0938 718.806 78.0938C715.188 78.0938 712.571 75.3556 712.571 71.894C712.571 68.4324 715.226 65.7473 718.806 65.7473ZM718.806 66.9323C715.953 66.9323 713.928 68.9983 713.928 71.894C713.928 74.8291 716.006 76.9088 718.806 76.9088C721.607 76.9088 723.658 74.8028 723.658 71.894C723.658 68.9853 721.66 66.9323 718.806 66.9323ZM652.327 65.7473C656.192 65.7474 657.816 68.2696 657.816 70.6235C657.816 73.0342 656.192 75.5563 652.327 75.5563C648.463 75.5563 646.837 73.0343 646.837 70.6235C646.837 68.2695 648.462 65.7473 652.327 65.7473ZM719.455 68.6472C720.657 68.6473 721.448 69.3888 721.448 70.3989C721.447 71.2425 720.913 71.8181 720.03 72.0099C720.772 72.1761 721.102 72.7256 721.296 73.5694L721.615 74.9373H720.224L720.03 73.7616C719.888 72.8283 719.773 72.6105 718.743 72.6105H717.754V74.9373H716.468V68.6472H719.455ZM717.754 69.6958V71.5619H718.817C719.685 71.5619 720.161 71.2168 720.161 70.5777C720.161 69.9385 719.658 69.6958 718.817 69.6958H717.754Z" fill="#FFF0D3"/>
<path d="M79.1 308L61.3 243.8C59.7 238.3 57.9 232.9 55.5 228H78.2C77.1 231.9 77.5 236.2 78.6 240.6L89.6 284L100.7 240.6C101.8 236.2 102.2 231.9 101 228H122.7C120.3 232.9 118.5 238.3 116.9 243.8L99.1 308H79.1ZM125.788 308C127.188 303.1 127.688 297.6 127.688 291.9V270.5C127.688 264.8 126.888 259.4 124.688 254.8L144.188 251.4V291.9C144.188 297.6 144.688 303.1 146.088 308H125.788ZM135.387 244.8C128.088 244.8 125.088 240 125.088 235.6C125.088 231.2 128.088 226.4 135.387 226.4C142.688 226.4 145.688 231.2 145.688 235.6C145.688 240 142.688 244.8 135.387 244.8ZM153.034 308C154.434 303.1 154.934 297.6 154.934 291.9V270.5C154.934 264.8 154.134 259.4 151.934 254.8L169.834 251.6V259.6C172.634 254.2 177.334 251.4 184.134 251.4C196.834 251.4 200.934 261.4 200.934 273.2V291.9C200.934 297.6 201.434 303.1 202.834 308H182.534C183.934 303.1 184.434 297.6 184.434 291.9V274.7C184.434 269.7 182.834 266.6 179.034 266.6C173.534 266.6 171.434 273.1 171.434 281.3V291.9C171.434 297.6 171.934 303.1 173.334 308H153.034ZM229.479 309.6C215.479 309.6 208.279 296.5 208.279 280.5C208.279 264.5 215.479 251.4 229.479 251.4C234.679 251.4 239.079 253.1 242.279 256.9V245.7C242.279 240 241.479 234.6 239.279 230L258.779 226.4V291.3C258.779 297.5 260.379 302.6 263.879 306.3C260.979 308.2 257.579 309.6 253.879 309.6C249.479 309.6 245.379 307.5 243.879 301.9C240.679 307.1 235.579 309.6 229.479 309.6ZM233.979 294.3C239.479 294.3 242.479 289 242.479 280.5C242.479 272 239.479 266.7 233.979 266.7C228.379 266.7 225.279 272 225.279 280.5C225.279 289 228.379 294.3 233.979 294.3ZM292.47 309.6C276.07 309.6 266.97 296.7 266.97 280.4C266.97 265.1 274.87 251.4 291.57 251.4C306.07 251.4 313.07 261.6 313.67 276.8L284.97 286.5C287.17 292.3 291.97 294.3 297.77 294.3C303.37 294.3 308.47 292.4 312.37 288.9C313.77 298.2 307.97 309.6 292.47 309.6ZM283.87 276.5L298.47 271.5C297.97 268.6 295.87 265.6 291.87 265.6C286.77 265.6 284.27 270.4 283.87 276.5ZM319.635 308C321.035 303.1 321.535 297.6 321.535 291.9V270.5C321.535 264.8 320.735 259.4 318.535 254.8L336.435 251.6V260.1C339.235 254.4 343.635 251.4 349.335 251.4C356.035 251.4 361.935 255.7 361.935 264.2C361.935 272.5 356.435 276.6 348.335 276.6C350.135 269.7 347.735 266.6 344.135 266.6C338.835 266.6 338.035 273.1 338.035 283.3V291.9C338.035 297.6 338.835 303.1 340.935 308H319.635ZM58.6 420C60 415.1 60.5 409.6 60.5 403.9V382.5C60.5 376.8 59.7 371.4 57.5 366.8L75.4 363.6V371.6C78.2 366.2 82.9 363.4 89.7 363.4C102.4 363.4 106.5 373.4 106.5 385.2V403.9C106.5 409.6 107 415.1 108.4 420H88.1C89.5 415.1 90 409.6 90 403.9V386.7C90 381.7 88.4 378.6 84.6 378.6C79.1 378.6 77 385.1 77 393.3V403.9C77 409.6 77.5 415.1 78.9 420H58.6ZM132.445 421.6C121.345 421.6 113.945 414.8 113.945 404.5C113.945 394 121.645 388.7 133.245 388.7C138.345 388.7 142.445 389.8 145.345 391.7V385.3C145.345 380.2 142.145 377.9 138.045 377.9C134.245 377.9 130.945 379.9 130.945 383.6C130.945 384.5 131.145 385.6 131.445 386.5C124.745 387.9 116.945 384.7 116.945 376.9C116.945 367.9 127.245 363.4 138.045 363.4C144.845 363.4 150.845 365.3 154.945 368.4C158.745 365.3 163.845 363.4 169.945 363.4C184.445 363.4 191.445 373.6 192.045 388.8L163.345 398.5C165.545 404.3 170.345 406.3 176.145 406.3C181.745 406.3 186.845 404.4 190.745 400.9C192.145 410.2 186.345 421.6 170.845 421.6C161.945 421.6 155.245 417.9 150.845 411.8C147.645 417.6 140.945 421.6 132.445 421.6ZM138.145 408.9C142.645 408.9 145.945 406.9 145.945 403.6C145.945 400.3 142.645 398.4 138.145 398.4C133.645 398.4 130.445 400.3 130.445 403.6C130.445 406.9 133.645 408.9 138.145 408.9ZM162.245 388.5L176.845 383.5C176.345 380.6 174.245 377.6 170.245 377.6C165.145 377.6 162.645 382.4 162.245 388.5ZM218.153 421.6C206.753 421.6 196.853 416 196.853 407.1C196.853 399.2 204.853 396.3 211.653 397.7C211.253 398.7 211.053 400 211.053 401C211.053 405.1 214.253 407.6 218.153 407.6C221.753 407.6 224.353 405.5 224.353 402.5C224.353 399.1 221.153 397.4 216.853 396.4L211.053 395.1C203.853 393.5 197.553 389 197.553 380C197.553 370.9 204.053 363.4 218.853 363.4C225.553 363.4 232.753 364.9 237.253 368.3V385.1C232.453 380.3 224.753 377.5 218.753 377.5C215.453 377.5 213.753 378.3 213.753 380.1C213.753 381.8 215.253 382.4 218.753 383.2L224.153 384.5C232.253 386.5 240.853 390.7 240.853 402.1C240.853 413.9 231.353 421.6 218.153 421.6ZM262.305 421.6C256.705 421.6 251.105 418.4 251.105 407.3V380.1C249.405 380.1 246.005 380.3 244.105 381C243.305 378.5 242.905 376.2 242.905 374.1C242.905 368.1 246.205 365 251.505 365C251.505 361.8 250.605 359.3 250.605 357.1C250.605 352.3 255.105 348.5 261.905 348.5C264.405 348.5 266.705 349 268.805 349.7C267.905 354.5 267.605 359.5 267.605 365C271.405 365 275.405 364.5 278.705 363.4C279.305 365.8 279.505 367.9 279.505 369.6C279.505 376.8 276.105 380.1 270.005 380.1H267.605V403.3C267.605 409.5 269.205 414.6 272.705 418.3C269.605 420.3 265.905 421.6 262.305 421.6ZM306.24 421.6C289.84 421.6 280.74 408.7 280.74 392.4C280.74 377.1 288.64 363.4 305.34 363.4C319.84 363.4 326.84 373.6 327.44 388.8L298.74 398.5C300.94 404.3 305.74 406.3 311.54 406.3C317.14 406.3 322.24 404.4 326.14 400.9C327.54 410.2 321.74 421.6 306.24 421.6ZM297.64 388.5L312.24 383.5C311.74 380.6 309.64 377.6 305.64 377.6C300.54 377.6 298.04 382.4 297.64 388.5ZM333.405 420C334.805 415.1 335.305 409.6 335.305 403.9V382.5C335.305 376.8 334.505 371.4 332.305 366.8L350.205 363.6V371.6C353.005 366.2 357.705 363.4 364.505 363.4C377.205 363.4 381.305 373.4 381.305 385.2V403.9C381.305 409.6 381.805 415.1 383.205 420H362.905C364.305 415.1 364.805 409.6 364.805 403.9V386.7C364.805 381.7 363.205 378.6 359.405 378.6C353.905 378.6 351.805 385.1 351.805 393.3V403.9C351.805 409.6 352.305 415.1 353.705 420H333.405ZM435.67 421.6C418.67 421.6 409.07 411.2 409.07 396.9C409.07 388.1 412.87 380.8 420.17 377.3C413.77 374.1 410.87 367.7 410.87 359.9C410.87 347.9 419.07 338.4 435.67 338.4C452.27 338.4 460.47 347.9 460.47 359.9C460.47 367.7 457.57 374.1 451.17 377.3C458.47 380.8 462.27 388.1 462.27 396.9C462.27 411.2 452.67 421.6 435.67 421.6ZM435.67 405.2C440.77 405.2 443.67 400.7 443.67 394C443.67 387.3 440.87 382.7 435.67 382.7C430.47 382.7 427.67 387.3 427.67 394C427.67 400.7 430.57 405.2 435.67 405.2ZM435.67 371.1C439.97 371.1 442.17 367.6 442.17 362.9C442.17 358.4 439.97 354.8 435.67 354.8C431.37 354.8 429.17 358.4 429.17 362.9C429.17 367.6 431.37 371.1 435.67 371.1ZM495.359 421.6C476.959 421.6 468.359 406.6 468.359 380C468.359 353.4 476.959 338.4 495.359 338.4C513.759 338.4 522.359 353.4 522.359 380C522.359 406.6 513.759 421.6 495.359 421.6ZM495.359 405.2C501.359 405.2 504.359 396.9 504.359 380C504.359 363.1 501.359 354.8 495.359 354.8C489.359 354.8 486.359 363.1 486.359 380C486.359 396.9 489.359 405.2 495.359 405.2ZM556.003 421.6C537.603 421.6 529.003 406.6 529.003 380C529.003 353.4 537.603 338.4 556.003 338.4C574.403 338.4 583.003 353.4 583.003 380C583.003 406.6 574.403 421.6 556.003 421.6ZM556.003 405.2C562.003 405.2 565.003 396.9 565.003 380C565.003 363.1 562.003 354.8 556.003 354.8C550.003 354.8 547.003 363.1 547.003 380C547.003 396.9 550.003 405.2 556.003 405.2ZM599.583 421.6C593.283 421.6 588.583 416.7 588.583 410.6C588.583 404.5 593.283 399.6 599.583 399.6C605.883 399.6 610.583 404.5 610.583 410.6C610.583 416.7 605.883 421.6 599.583 421.6ZM643.113 421.6C624.713 421.6 616.112 406.6 616.112 380C616.112 353.4 624.713 338.4 643.113 338.4C661.513 338.4 670.113 353.4 670.113 380C670.113 406.6 661.513 421.6 643.113 421.6ZM643.113 405.2C649.113 405.2 652.113 396.9 652.113 380C652.113 363.1 649.113 354.8 643.113 354.8C637.113 354.8 634.113 363.1 634.113 380C634.113 396.9 637.113 405.2 643.113 405.2ZM703.757 421.6C685.357 421.6 676.757 406.6 676.757 380C676.757 353.4 685.357 338.4 703.757 338.4C722.157 338.4 730.757 353.4 730.757 380C730.757 406.6 722.157 421.6 703.757 421.6ZM703.757 405.2C709.757 405.2 712.757 396.9 712.757 380C712.757 363.1 709.757 354.8 703.757 354.8C697.757 354.8 694.757 363.1 694.757 380C694.757 396.9 697.757 405.2 703.757 405.2ZM764.402 421.6C746.002 421.6 737.402 406.6 737.402 380C737.402 353.4 746.002 338.4 764.402 338.4C782.802 338.4 791.402 353.4 791.402 380C791.402 406.6 782.802 421.6 764.402 421.6ZM764.402 405.2C770.402 405.2 773.402 396.9 773.402 380C773.402 363.1 770.402 354.8 764.402 354.8C758.402 354.8 755.402 363.1 755.402 380C755.402 396.9 758.402 405.2 764.402 405.2ZM818.066 420C819.466 415.1 819.966 409.6 819.966 403.9V357.7C819.966 352 819.166 346.6 816.966 342L836.466 338.4V367.8C840.666 364.6 845.566 363.4 850.466 363.4C862.666 363.4 868.566 371.7 868.566 381.7C868.566 389.1 865.466 394.4 858.966 397.4C861.866 405.2 865.966 412.6 871.466 420H851.966C848.566 414.1 846.066 407.8 844.766 401.6H836.466V403.9C836.466 409.6 836.966 415.1 838.366 420H818.066ZM836.466 390.9H843.666C848.566 390.9 851.566 388.2 851.566 384.1C851.566 380.6 849.366 377.8 845.266 377.8C840.566 377.8 836.466 381.5 836.466 389V390.9ZM876.959 420C878.359 415.1 878.859 409.6 878.859 403.9V382.5C878.859 376.8 878.059 371.4 875.859 366.8L893.759 363.6V372.1C896.559 366.4 900.959 363.4 906.659 363.4C913.359 363.4 919.259 367.7 919.259 376.2C919.259 384.5 913.759 388.6 905.659 388.6C907.459 381.7 905.059 378.6 901.459 378.6C896.159 378.6 895.359 385.1 895.359 395.3V403.9C895.359 409.6 896.159 415.1 898.259 420H876.959ZM924.68 421.6C918.38 421.6 913.68 416.7 913.68 410.6C913.68 404.5 918.38 399.6 924.68 399.6C930.98 399.6 935.68 404.5 935.68 410.6C935.68 416.7 930.98 421.6 924.68 421.6ZM58.6 532C60 527.1 60.5 521.6 60.5 515.9V494.5C60.5 488.8 59.7 483.4 57.5 478.8L77 475.4V515.9C77 521.6 77.5 527.1 78.9 532H58.6ZM68.2 468.8C60.9 468.8 57.9 464 57.9 459.6C57.9 455.2 60.9 450.4 68.2 450.4C75.5 450.4 78.5 455.2 78.5 459.6C78.5 464 75.5 468.8 68.2 468.8ZM106.166 532C107.566 527.1 108.066 521.6 108.066 515.9V468.1C108.066 462.4 107.566 456.9 106.166 452H127.566C126.166 456.9 125.666 462.4 125.666 468.1V484.2C132.966 475.1 139.866 463.2 141.566 452H161.566C157.866 463.6 152.866 472.3 143.466 482.7C154.066 484.9 158.666 494.1 159.666 505.1L160.766 516.7C161.366 523.2 163.366 527.8 166.866 532H146.066C143.966 527.4 143.266 523.3 142.966 519.1L142.166 505.8C141.766 499.5 138.866 496.4 134.066 496.4C129.266 496.4 125.666 499.5 125.666 505.9V515.9C125.666 521.6 126.366 527.1 128.166 532H106.166ZM171.679 532C173.079 527.1 173.579 521.6 173.579 515.9V469.7C173.579 464 172.779 458.6 170.579 454L190.079 450.4V515.9C190.079 521.6 190.579 527.1 191.979 532H171.679ZM216.134 533.6C205.134 533.6 197.734 526.8 197.734 516.5C197.734 506 205.434 500.7 217.034 500.7C222.134 500.7 226.234 501.8 229.134 503.7V497.3C229.134 492.2 226.034 489.9 221.834 489.9C218.034 489.9 214.734 491.8 214.734 495.6C214.734 496.5 214.934 497.6 215.234 498.5C208.534 499.9 200.734 496.7 200.734 488.9C200.734 479.9 211.034 475.4 221.934 475.4C235.934 475.4 245.634 483 245.634 494.9V515.3C245.634 521.5 247.234 526.6 250.734 530.3C247.834 532.2 244.434 533.6 240.734 533.6C236.634 533.6 232.934 532 231.134 527.1C227.934 531.1 222.834 533.6 216.134 533.6ZM221.934 520.9C226.434 520.9 229.734 518.9 229.734 515.6C229.734 512.3 226.434 510.4 221.934 510.4C217.434 510.4 214.234 512.3 214.234 515.6C214.234 518.9 217.434 520.9 221.934 520.9ZM274.891 533.6C263.491 533.6 253.591 528 253.591 519.1C253.591 511.2 261.591 508.3 268.391 509.7C267.991 510.7 267.791 512 267.791 513C267.791 517.1 270.991 519.6 274.891 519.6C278.491 519.6 281.091 517.5 281.091 514.5C281.091 511.1 277.891 509.4 273.591 508.4L267.791 507.1C260.591 505.5 254.291 501 254.291 492C254.291 482.9 260.791 475.4 275.591 475.4C282.291 475.4 289.491 476.9 293.991 480.3V497.1C289.191 492.3 281.491 489.5 275.491 489.5C272.191 489.5 270.491 490.3 270.491 492.1C270.491 493.8 271.991 494.4 275.491 495.2L280.891 496.5C288.991 498.5 297.591 502.7 297.591 514.1C297.591 525.9 288.091 533.6 274.891 533.6ZM323.72 533.6C312.32 533.6 302.42 528 302.42 519.1C302.42 511.2 310.42 508.3 317.22 509.7C316.82 510.7 316.62 512 316.62 513C316.62 517.1 319.82 519.6 323.72 519.6C327.32 519.6 329.92 517.5 329.92 514.5C329.92 511.1 326.72 509.4 322.42 508.4L316.62 507.1C309.42 505.5 303.12 501 303.12 492C303.12 482.9 309.62 475.4 324.42 475.4C331.12 475.4 338.32 476.9 342.82 480.3V497.1C338.02 492.3 330.32 489.5 324.32 489.5C321.02 489.5 319.32 490.3 319.32 492.1C319.32 493.8 320.82 494.4 324.32 495.2L329.72 496.5C337.82 498.5 346.42 502.7 346.42 514.1C346.42 525.9 336.92 533.6 323.72 533.6ZM376.748 533.6C360.348 533.6 351.248 520.7 351.248 504.4C351.248 489.1 359.148 475.4 375.848 475.4C390.348 475.4 397.348 485.6 397.948 500.8L369.248 510.5C371.448 516.3 376.248 518.3 382.048 518.3C387.648 518.3 392.748 516.4 396.648 512.9C398.048 522.2 392.248 533.6 376.748 533.6ZM368.148 500.5L382.748 495.5C382.248 492.6 380.148 489.6 376.148 489.6C371.048 489.6 368.548 494.4 368.148 500.5ZM403.612 532C405.013 527.1 405.513 521.6 405.513 515.9V469.7C405.513 464 404.713 458.6 402.513 454L422.013 450.4V515.9C422.013 521.6 422.513 527.1 423.913 532H403.612ZM455.368 533.6C436.768 533.6 429.568 520.5 429.568 504.5C429.568 488.5 436.768 475.4 455.368 475.4C473.968 475.4 481.168 488.5 481.168 504.5C481.168 520.5 473.968 533.6 455.368 533.6ZM455.368 518.3C461.068 518.3 464.168 513 464.168 504.5C464.168 496 461.068 490.7 455.368 490.7C449.668 490.7 446.568 496 446.568 504.5C446.568 513 449.668 518.3 455.368 518.3ZM503.613 533.6C498.013 533.6 492.413 530.4 492.413 519.3V492.1C490.713 492.1 487.313 492.3 485.413 493C484.613 490.5 484.213 488.2 484.213 486.1C484.213 480.1 487.513 477 492.813 477C492.813 473.8 491.913 471.3 491.913 469.1C491.913 464.3 496.413 460.5 503.213 460.5C505.713 460.5 508.013 461 510.113 461.7C509.213 466.5 508.913 471.5 508.913 477H521.713C521.713 473.8 520.813 471.3 520.813 469.1C520.813 464.3 525.313 460.5 532.113 460.5C534.613 460.5 536.913 461 539.013 461.7C538.113 466.5 537.813 471.5 537.813 477C541.613 477 545.613 476.5 548.913 475.4C549.513 477.8 549.713 479.9 549.713 481.6C549.713 488.8 546.313 492.1 540.213 492.1H537.813V515.3C537.813 521.5 539.413 526.6 542.913 530.3C539.813 532.3 536.113 533.6 532.513 533.6C526.913 533.6 521.313 530.4 521.313 519.3V492.1H508.913V515.3C508.913 521.5 510.513 526.6 514.013 530.3C510.913 532.3 507.213 533.6 503.613 533.6ZM576.455 533.6C560.055 533.6 550.955 520.7 550.955 504.4C550.955 489.1 558.855 475.4 575.555 475.4C590.055 475.4 597.055 485.6 597.655 500.8L568.955 510.5C571.155 516.3 575.955 518.3 581.755 518.3C587.355 518.3 592.455 516.4 596.355 512.9C597.755 522.2 591.955 533.6 576.455 533.6ZM567.855 500.5L582.455 495.5C581.955 492.6 579.855 489.6 575.855 489.6C570.755 489.6 568.255 494.4 567.855 500.5ZM603.62 532C605.02 527.1 605.52 521.6 605.52 515.9V494.5C605.52 488.8 604.72 483.4 602.52 478.8L620.42 475.6V484.1C623.22 478.4 627.62 475.4 633.32 475.4C640.02 475.4 645.92 479.7 645.92 488.2C645.92 496.5 640.42 500.6 632.32 500.6C634.12 493.7 631.72 490.6 628.12 490.6C622.82 490.6 622.02 497.1 622.02 507.3V515.9C622.02 521.6 622.82 527.1 624.92 532H603.62ZM650.202 532C651.602 527.1 652.102 521.6 652.102 515.9V494.5C652.102 488.8 651.302 483.4 649.102 478.8L668.602 475.4V515.9C668.602 521.6 669.102 527.1 670.502 532H650.202ZM659.802 468.8C652.502 468.8 649.502 464 649.502 459.6C649.502 455.2 652.502 450.4 659.802 450.4C667.102 450.4 670.102 455.2 670.102 459.6C670.102 464 667.102 468.8 659.802 468.8ZM701.748 533.6C685.348 533.6 676.248 520.7 676.248 504.4C676.248 489.1 684.148 475.4 700.848 475.4C715.348 475.4 722.348 485.6 722.948 500.8L694.248 510.5C696.448 516.3 701.248 518.3 707.048 518.3C712.648 518.3 717.748 516.4 721.648 512.9C723.048 522.2 717.248 533.6 701.748 533.6ZM693.148 500.5L707.748 495.5C707.248 492.6 705.148 489.6 701.148 489.6C696.048 489.6 693.548 494.4 693.148 500.5ZM745.313 533.6C739.713 533.6 734.113 530.4 734.113 519.3V492.1C732.413 492.1 729.013 492.3 727.113 493C726.313 490.5 725.913 488.2 725.913 486.1C725.913 480.1 729.213 477 734.513 477C734.513 473.8 733.613 471.3 733.613 469.1C733.613 464.3 738.113 460.5 744.913 460.5C747.413 460.5 749.713 461 751.813 461.7C750.913 466.5 750.613 471.5 750.613 477C754.413 477 758.413 476.5 761.713 475.4C762.313 477.8 762.513 479.9 762.513 481.6C762.513 488.8 759.113 492.1 753.013 492.1H750.613V515.3C750.613 521.5 752.213 526.6 755.713 530.3C752.613 532.3 748.913 533.6 745.313 533.6Z" fill="#FFF0D3"/>
<path d="M60.134 612.468C57.924 612.468 56.258 610.7 56.258 608.32C56.258 605.294 58.876 603.186 58.876 600.568C58.876 599.888 58.706 599.208 58.264 598.46C60.27 597.916 62.718 598.562 62.718 601.01C62.718 602.744 61.494 603.866 60.236 604.988C62.276 605.022 63.874 606.688 63.874 608.728C63.874 610.802 62.276 612.468 60.134 612.468ZM69.416 612.468C67.206 612.468 65.54 610.7 65.54 608.32C65.54 605.294 68.158 603.186 68.158 600.568C68.158 599.888 67.988 599.208 67.546 598.46C69.552 597.916 72 598.562 72 601.01C72 602.744 70.776 603.866 69.518 604.988C71.558 605.022 73.156 606.688 73.156 608.728C73.156 610.802 71.558 612.468 69.416 612.468ZM84.8278 626.544C79.1838 626.544 75.3418 623.552 75.3418 619.37C75.3418 616.31 77.4158 614.372 80.2038 614.372C80.8498 614.372 81.4958 614.474 82.1418 614.746C81.7338 615.664 81.5298 616.548 81.5298 617.398C81.5298 619.506 82.7538 620.968 84.8278 620.968C86.6298 620.968 88.1938 619.88 88.1938 617.772C88.1938 616.004 87.1058 614.746 84.4198 613.896L81.2238 612.876C77.7218 611.754 75.8518 609.204 75.8518 605.804C75.8518 601.18 79.3198 598.256 84.8278 598.256C87.7178 598.256 90.5398 599.072 92.7498 600.67V608.014C90.6418 605.226 87.9898 603.832 84.9978 603.832C83.1278 603.832 81.9718 604.376 81.9718 605.498C81.9718 606.348 82.6518 606.824 84.0798 607.266L87.2758 608.286C92.1038 609.816 94.3138 612.706 94.3138 617.33C94.3138 623.212 90.7438 626.544 84.8278 626.544ZM102.448 626.544C98.7078 626.544 96.1918 624.232 96.1918 620.73C96.1918 617.16 98.8098 615.358 102.754 615.358C104.488 615.358 105.882 615.732 106.868 616.378V614.202C106.868 612.468 105.814 611.686 104.386 611.686C103.094 611.686 101.972 612.332 101.972 613.624C101.972 613.93 102.04 614.304 102.142 614.61C99.8638 615.086 97.2118 613.998 97.2118 611.346C97.2118 608.286 100.714 606.756 104.42 606.756C109.18 606.756 112.478 609.34 112.478 613.386V620.322C112.478 622.43 113.022 624.164 114.212 625.422C113.226 626.068 112.07 626.544 110.812 626.544C109.418 626.544 108.16 626 107.548 624.334C106.46 625.694 104.726 626.544 102.448 626.544ZM104.42 622.226C105.95 622.226 107.072 621.546 107.072 620.424C107.072 619.302 105.95 618.656 104.42 618.656C102.89 618.656 101.802 619.302 101.802 620.424C101.802 621.546 102.89 622.226 104.42 622.226ZM104.42 605.226C102.074 605.226 100.306 603.56 100.306 601.282C100.306 599.004 102.074 597.338 104.42 597.338C106.766 597.338 108.534 599.004 108.534 601.282C108.534 603.56 106.766 605.226 104.42 605.226ZM104.42 603.254C105.644 603.254 106.494 602.438 106.494 601.282C106.494 600.126 105.644 599.31 104.42 599.31C103.196 599.31 102.346 600.126 102.346 601.282C102.346 602.438 103.196 603.254 104.42 603.254ZM130.66 626.544C125.084 626.544 121.99 622.158 121.99 616.616C121.99 611.414 124.676 606.756 130.354 606.756C135.284 606.756 137.664 610.224 137.868 615.392L128.11 618.69C128.858 620.662 130.49 621.342 132.462 621.342C134.366 621.342 136.1 620.696 137.426 619.506C137.902 622.668 135.93 626.544 130.66 626.544ZM127.736 615.29L132.7 613.59C132.53 612.604 131.816 611.584 130.456 611.584C128.722 611.584 127.872 613.216 127.736 615.29ZM139.896 626C140.372 624.334 140.542 622.464 140.542 620.526V613.25C140.542 611.312 140.27 609.476 139.522 607.912L145.608 606.824V609.714C146.56 607.776 148.056 606.756 149.994 606.756C152.272 606.756 154.278 608.218 154.278 611.108C154.278 613.93 152.408 615.324 149.654 615.324C150.266 612.978 149.45 611.924 148.226 611.924C146.424 611.924 146.152 614.134 146.152 617.602V620.526C146.152 622.464 146.424 624.334 147.138 626H139.896ZM162.54 626C163.016 624.334 163.186 622.464 163.186 620.526V613.25C163.186 611.312 162.914 609.476 162.166 607.912L168.252 606.824V609.442C169.204 607.64 170.734 606.756 173.012 606.756C175.596 606.756 177.058 607.946 177.84 609.816C178.758 607.81 180.322 606.756 182.77 606.756C187.088 606.756 188.312 610.156 188.312 614.168V620.526C188.312 622.464 188.482 624.334 188.958 626H182.056C182.532 624.334 182.702 622.464 182.702 620.526V614.678C182.702 612.978 182.158 611.924 180.866 611.924C178.996 611.924 178.554 614.134 178.554 616.922V620.526C178.554 622.464 178.724 624.334 179.2 626H172.298C172.774 624.334 172.944 622.464 172.944 620.526V614.678C172.944 612.978 172.4 611.924 171.108 611.924C169.238 611.924 168.796 614.134 168.796 616.922V620.526C168.796 622.464 168.966 624.334 169.442 626H162.54ZM197.077 626.544C193.337 626.544 190.821 624.232 190.821 620.73C190.821 617.16 193.439 615.358 197.383 615.358C199.117 615.358 200.511 615.732 201.497 616.378V614.202C201.497 612.468 200.443 611.686 199.015 611.686C197.723 611.686 196.601 612.332 196.601 613.624C196.601 613.93 196.669 614.304 196.771 614.61C194.493 615.086 191.841 613.998 191.841 611.346C191.841 608.286 195.343 606.756 199.049 606.756C203.809 606.756 207.107 609.34 207.107 613.386V620.322C207.107 622.43 207.651 624.164 208.841 625.422C207.855 626.068 206.699 626.544 205.441 626.544C204.047 626.544 202.789 626 202.177 624.334C201.089 625.694 199.355 626.544 197.077 626.544ZM199.049 622.226C200.579 622.226 201.701 621.546 201.701 620.424C201.701 619.302 200.579 618.656 199.049 618.656C197.519 618.656 196.431 619.302 196.431 620.424C196.431 621.546 197.519 622.226 199.049 622.226ZM210.22 626C210.696 624.334 210.866 622.464 210.866 620.526V613.25C210.866 611.312 210.594 609.476 209.846 607.912L215.932 606.824V609.544C216.884 607.708 218.482 606.756 220.794 606.756C225.112 606.756 226.506 610.156 226.506 614.168V620.526C226.506 622.464 226.676 624.334 227.152 626H220.25C220.726 624.334 220.896 622.464 220.896 620.526V614.678C220.896 612.978 220.352 611.924 219.06 611.924C217.19 611.924 216.476 614.134 216.476 616.922V620.526C216.476 622.464 216.646 624.334 217.122 626H210.22ZM236.218 626C236.694 624.334 236.864 622.464 236.864 620.526V613.25C236.864 611.312 236.592 609.476 235.844 607.912L242.474 606.756V620.526C242.474 622.464 242.644 624.334 243.12 626H236.218ZM239.482 604.512C237 604.512 235.98 602.88 235.98 601.384C235.98 599.888 237 598.256 239.482 598.256C241.964 598.256 242.984 599.888 242.984 601.384C242.984 602.88 241.964 604.512 239.482 604.512ZM263.95 633.344C264.086 631.304 262.114 630.624 259.802 630.08L257.218 629.502C254.804 628.924 252.696 628.04 252.696 625.592C252.696 623.994 253.58 622.838 255.348 622.158C252.968 620.628 251.982 617.874 251.982 615.086C251.982 611.21 253.886 607.402 258.748 606.824C258.476 605.634 258.204 604.036 258.204 602.71C258.204 599.412 260.006 598.256 261.672 598.256C263.304 598.256 264.698 599.378 264.698 601.214C264.698 603.832 261.91 604.24 261.74 606.892C266.364 607.606 268.166 611.312 268.166 615.086C268.166 619.302 265.922 623.416 260.074 623.416C259.088 623.416 258.272 623.552 258.272 624.266C258.272 624.81 258.748 625.116 260.074 625.286L264.12 625.728C266.908 626.034 269.05 627.156 269.05 629.468C269.05 632.426 265.616 633.31 263.95 633.344ZM260.074 618.384C261.74 618.384 262.658 616.922 262.658 615.086C262.658 613.25 261.74 611.788 260.074 611.788C258.408 611.788 257.49 613.25 257.49 615.086C257.49 616.922 258.408 618.384 260.074 618.384ZM278.781 626.544C272.457 626.544 270.009 622.09 270.009 616.65C270.009 611.21 272.457 606.756 278.781 606.756C285.105 606.756 287.553 611.21 287.553 616.65C287.553 622.09 285.105 626.544 278.781 626.544ZM278.781 621.342C280.719 621.342 281.773 619.54 281.773 616.65C281.773 613.76 280.719 611.958 278.781 611.958C276.843 611.958 275.789 613.76 275.789 616.65C275.789 619.54 276.843 621.342 278.781 621.342ZM296.741 626.544C291.981 626.544 289.533 622.09 289.533 616.65C289.533 611.21 291.981 606.756 296.741 606.756C298.509 606.756 300.005 607.334 301.093 608.626V604.818C301.093 602.88 300.821 601.044 300.073 599.48L306.703 598.256V620.322C306.703 622.43 307.247 624.164 308.437 625.422C307.451 626.068 306.295 626.544 305.037 626.544C303.541 626.544 302.147 625.83 301.637 623.926C300.549 625.694 298.815 626.544 296.741 626.544ZM298.271 621.342C300.141 621.342 301.161 619.54 301.161 616.65C301.161 613.76 300.141 611.958 298.271 611.958C296.367 611.958 295.313 613.76 295.313 616.65C295.313 619.54 296.367 621.342 298.271 621.342ZM315.14 626.544C313.236 626.544 311.332 625.456 311.332 621.682V612.434C310.754 612.434 309.598 612.502 308.952 612.74C308.68 611.89 308.544 611.108 308.544 610.394C308.544 608.354 309.666 607.3 311.468 607.3C311.468 606.212 311.162 605.362 311.162 604.614C311.162 602.982 312.692 601.69 315.004 601.69C315.854 601.69 316.636 601.86 317.35 602.098C317.044 603.73 316.942 605.43 316.942 607.3C318.234 607.3 319.594 607.13 320.716 606.756C320.92 607.572 320.988 608.286 320.988 608.864C320.988 611.312 319.832 612.434 317.758 612.434H316.942V620.322C316.942 622.43 317.486 624.164 318.676 625.422C317.622 626.102 316.364 626.544 315.14 626.544ZM329.151 626C329.627 624.334 329.797 622.464 329.797 620.526V604.818C329.797 602.88 329.525 601.044 328.777 599.48L335.407 598.256V608.932C336.291 607.538 337.685 606.756 339.725 606.756C344.043 606.756 345.437 610.156 345.437 614.168V620.526C345.437 622.464 345.607 624.334 346.083 626H339.181C339.657 624.334 339.827 622.464 339.827 620.526V614.678C339.827 612.978 339.283 611.924 337.991 611.924C336.121 611.924 335.407 614.134 335.407 616.922V620.526C335.407 622.464 335.577 624.334 336.053 626H329.151ZM354.432 626.544C350.114 626.544 348.72 623.144 348.72 619.132V613.25C348.72 611.312 348.448 609.476 347.7 607.912L354.33 606.756V618.622C354.33 620.322 354.874 621.376 356.166 621.376C358.036 621.376 358.75 619.166 358.75 616.378V613.25C358.75 611.312 358.478 609.476 357.73 607.912L364.36 606.756V620.322C364.36 622.43 364.904 624.164 366.094 625.422C365.108 626.068 363.952 626.544 362.694 626.544C361.164 626.544 359.77 625.864 359.26 623.824C358.274 625.66 356.744 626.544 354.432 626.544ZM367.703 626C368.179 624.334 368.349 622.464 368.349 620.526V613.25C368.349 611.312 368.077 609.476 367.329 607.912L373.415 606.824V609.442C374.367 607.64 375.897 606.756 378.175 606.756C380.759 606.756 382.221 607.946 383.003 609.816C383.921 607.81 385.485 606.756 387.933 606.756C392.251 606.756 393.475 610.156 393.475 614.168V620.526C393.475 622.464 393.645 624.334 394.121 626H387.219C387.695 624.334 387.865 622.464 387.865 620.526V614.678C387.865 612.978 387.321 611.924 386.029 611.924C384.159 611.924 383.717 614.134 383.717 616.922V620.526C383.717 622.464 383.887 624.334 384.363 626H377.461C377.937 624.334 378.107 622.464 378.107 620.526V614.678C378.107 612.978 377.563 611.924 376.271 611.924C374.401 611.924 373.959 614.134 373.959 616.922V620.526C373.959 622.464 374.129 624.334 374.605 626H367.703ZM404.789 626.544C402.647 626.544 400.947 626.034 399.655 625.15L398.975 626H395.575L397.751 623.28C396.561 621.546 396.017 619.2 396.017 616.65C396.017 611.21 398.465 606.756 404.789 606.756C406.897 606.756 408.563 607.232 409.889 608.116L410.569 607.3H413.969L411.793 610.02C413.017 611.754 413.561 614.1 413.561 616.65C413.561 622.09 411.113 626.544 404.789 626.544ZM404.789 621.478C406.727 621.478 407.781 619.54 407.781 616.65C407.781 616.14 407.747 615.63 407.679 615.188L403.123 620.866C403.531 621.24 404.109 621.478 404.789 621.478ZM401.899 618.112L406.455 612.434C406.047 612.06 405.469 611.822 404.789 611.822C402.851 611.822 401.797 613.76 401.797 616.65C401.797 617.16 401.831 617.67 401.899 618.112ZM415.681 626C416.157 624.334 416.327 622.464 416.327 620.526V613.25C416.327 611.312 416.055 609.476 415.307 607.912L421.393 606.824V609.714C422.345 607.776 423.841 606.756 425.779 606.756C428.057 606.756 430.063 608.218 430.063 611.108C430.063 613.93 428.193 615.324 425.439 615.324C426.051 612.978 425.235 611.924 424.011 611.924C422.209 611.924 421.937 614.134 421.937 617.602V620.526C421.937 622.464 422.209 624.334 422.923 626H415.681ZM433.117 616.412C433.117 610.088 432.811 604.104 432.131 598.8H438.727C438.081 604.104 437.741 610.088 437.775 616.412H433.117ZM435.429 626.544C433.287 626.544 431.689 624.878 431.689 622.804C431.689 620.73 433.287 619.064 435.429 619.064C437.571 619.064 439.169 620.73 439.169 622.804C439.169 624.878 437.571 626.544 435.429 626.544ZM448.687 626C449.163 624.334 449.333 622.464 449.333 620.526V604.274C449.333 602.336 449.163 600.466 448.687 598.8H459.159C458.819 599.956 458.989 601.214 459.397 602.506L462.661 612.706L465.925 602.54C466.333 601.248 466.503 599.956 466.163 598.8H476.703C476.227 600.466 476.057 602.336 476.057 604.274V620.526C476.057 622.464 476.227 624.334 476.703 626H469.427C469.903 624.334 470.073 622.464 470.073 620.526V607.198L464.055 626H460.825L454.807 607.198V620.526C454.807 622.464 454.977 624.334 455.453 626H448.687ZM485.147 626.544C481.407 626.544 478.891 624.232 478.891 620.73C478.891 617.16 481.509 615.358 485.453 615.358C487.187 615.358 488.581 615.732 489.567 616.378V614.202C489.567 612.468 488.513 611.686 487.085 611.686C485.793 611.686 484.671 612.332 484.671 613.624C484.671 613.93 484.739 614.304 484.841 614.61C482.563 615.086 479.911 613.998 479.911 611.346C479.911 608.286 483.413 606.756 487.119 606.756C491.879 606.756 495.177 609.34 495.177 613.386V620.322C495.177 622.43 495.721 624.164 496.911 625.422C495.925 626.068 494.769 626.544 493.511 626.544C492.117 626.544 490.859 626 490.247 624.334C489.159 625.694 487.425 626.544 485.147 626.544ZM487.119 622.226C488.649 622.226 489.771 621.546 489.771 620.424C489.771 619.302 488.649 618.656 487.119 618.656C485.589 618.656 484.501 619.302 484.501 620.424C484.501 621.546 485.589 622.226 487.119 622.226ZM498.29 626C498.766 624.334 498.936 622.464 498.936 620.526V613.25C498.936 611.312 498.664 609.476 497.916 607.912L504.002 606.824V609.544C504.954 607.708 506.552 606.756 508.864 606.756C513.182 606.756 514.576 610.156 514.576 614.168V620.526C514.576 622.464 514.746 624.334 515.222 626H508.32C508.796 624.334 508.966 622.464 508.966 620.526V614.678C508.966 612.978 508.422 611.924 507.13 611.924C505.26 611.924 504.546 614.134 504.546 616.922V620.526C504.546 622.464 504.716 624.334 505.192 626H498.29ZM532.55 626.544C526.974 626.544 523.88 622.158 523.88 616.616C523.88 611.414 526.566 606.756 532.244 606.756C537.174 606.756 539.554 610.224 539.758 615.392L530 618.69C530.748 620.662 532.38 621.342 534.352 621.342C536.256 621.342 537.99 620.696 539.316 619.506C539.792 622.668 537.82 626.544 532.55 626.544ZM529.626 615.29L534.59 613.59C534.42 612.604 533.706 611.584 532.346 611.584C530.612 611.584 529.762 613.216 529.626 615.29ZM541.787 626C542.263 624.334 542.433 622.464 542.433 620.526V613.25C542.433 611.312 542.161 609.476 541.413 607.912L547.499 606.824V609.714C548.451 607.776 549.947 606.756 551.885 606.756C554.163 606.756 556.169 608.218 556.169 611.108C556.169 613.93 554.299 615.324 551.545 615.324C552.157 612.978 551.341 611.924 550.117 611.924C548.315 611.924 548.043 614.134 548.043 617.602V620.526C548.043 622.464 548.315 624.334 549.029 626H541.787ZM566.199 626C566.675 624.334 566.845 622.464 566.845 620.526V612.366C565.825 612.4 564.839 612.502 564.023 612.74C563.649 611.822 563.411 610.972 563.411 610.156C563.411 608.694 564.159 607.572 566.233 607.334C565.451 605.804 565.111 604.682 565.111 603.56C565.111 600.16 568.239 598.256 572.149 598.256C575.175 598.256 578.031 599.446 578.031 602.064C578.031 604.648 575.243 605.09 573.543 605.124C573.577 604.92 573.577 604.784 573.577 604.648C573.577 603.73 573.169 603.152 572.353 603.152C571.673 603.152 570.925 603.56 570.925 604.58C570.925 605.362 571.401 606.416 572.013 607.3H573.203C574.767 607.3 576.025 607.13 577.079 606.824C577.283 607.64 577.385 608.354 577.385 609C577.385 611.21 576.161 612.434 574.121 612.434H572.455V620.526C572.455 622.464 572.727 624.334 573.441 626H566.199ZM578.949 626C579.425 624.334 579.595 622.464 579.595 620.526V604.818C579.595 602.88 579.323 601.044 578.575 599.48L585.205 598.256V620.526C585.205 622.464 585.375 624.334 585.851 626H578.949ZM590.358 632.8C591.412 631.134 592.262 629.332 592.942 627.53L593.486 626.068L588.76 612.604C588.148 610.768 587.4 608.966 586.584 607.3H594.166C593.792 608.626 593.962 610.088 594.404 611.584L596.444 618.588L598.756 611.55C599.232 610.088 599.436 608.626 599.062 607.3H606.1C605.284 608.966 604.57 610.768 603.924 612.57L598.246 628.584C597.736 630.046 597.498 631.474 597.906 632.8H590.358ZM612.325 626L608.347 612.638C607.803 610.768 607.123 608.966 606.307 607.3H613.719C613.345 608.626 613.481 610.088 613.855 611.584L615.929 619.37L618.173 611.584C618.581 610.088 618.751 608.626 618.377 607.3H625.415C624.599 608.966 623.919 610.768 623.307 612.604L618.989 626H612.325ZM633.986 626.544C628.41 626.544 625.316 622.158 625.316 616.616C625.316 611.414 628.002 606.756 633.68 606.756C638.61 606.756 640.99 610.224 641.194 615.392L631.436 618.69C632.184 620.662 633.816 621.342 635.788 621.342C637.692 621.342 639.426 620.696 640.752 619.506C641.228 622.668 639.256 626.544 633.986 626.544ZM631.062 615.29L636.026 613.59C635.856 612.604 635.142 611.584 633.782 611.584C632.048 611.584 631.198 613.216 631.062 615.29ZM643.222 626C643.698 624.334 643.868 622.464 643.868 620.526V613.25C643.868 611.312 643.596 609.476 642.848 607.912L648.934 606.824V609.544C649.886 607.708 651.484 606.756 653.796 606.756C658.114 606.756 659.508 610.156 659.508 614.168V620.526C659.508 622.464 659.678 624.334 660.154 626H653.252C653.728 624.334 653.898 622.464 653.898 620.526V614.678C653.898 612.978 653.354 611.924 652.062 611.924C650.192 611.924 649.478 614.134 649.478 616.922V620.526C649.478 622.464 649.648 624.334 650.124 626H643.222ZM669.213 626.544C664.453 626.544 662.005 622.09 662.005 616.65C662.005 611.21 664.453 606.756 669.213 606.756C670.981 606.756 672.477 607.334 673.565 608.626V604.818C673.565 602.88 673.293 601.044 672.545 599.48L679.175 598.256V620.322C679.175 622.43 679.719 624.164 680.909 625.422C679.923 626.068 678.767 626.544 677.509 626.544C676.013 626.544 674.619 625.83 674.109 623.926C673.021 625.694 671.287 626.544 669.213 626.544ZM670.743 621.342C672.613 621.342 673.633 619.54 673.633 616.65C673.633 613.76 672.613 611.958 670.743 611.958C668.839 611.958 667.785 613.76 667.785 616.65C667.785 619.54 668.839 621.342 670.743 621.342ZM690.631 626.544C685.055 626.544 681.961 622.158 681.961 616.616C681.961 611.414 684.647 606.756 690.325 606.756C695.255 606.756 697.635 610.224 697.839 615.392L688.081 618.69C688.829 620.662 690.461 621.342 692.433 621.342C694.337 621.342 696.071 620.696 697.397 619.506C697.873 622.668 695.901 626.544 690.631 626.544ZM687.707 615.29L692.671 613.59C692.501 612.604 691.787 611.584 690.427 611.584C688.693 611.584 687.843 613.216 687.707 615.29ZM701.465 616.412C701.465 610.088 701.159 604.104 700.479 598.8H707.075C706.429 604.104 706.089 610.088 706.123 616.412H701.465ZM703.777 626.544C701.635 626.544 700.037 624.878 700.037 622.804C700.037 620.73 701.635 619.064 703.777 619.064C705.919 619.064 707.517 620.73 707.517 622.804C707.517 624.878 705.919 626.544 703.777 626.544ZM64.894 678H56.326C56.802 676.334 56.972 674.464 56.972 672.526V656.274C56.972 654.336 56.802 652.466 56.326 650.8H64.894C72.51 650.8 76.862 655.356 76.862 664.4C76.862 673.444 72.51 678 64.894 678ZM62.956 672.56H64.69C68.94 672.56 70.742 670.044 70.742 664.4C70.742 658.756 68.94 656.24 64.69 656.24H62.956V672.56ZM87.3962 678.544C81.8202 678.544 78.7262 674.158 78.7262 668.616C78.7262 663.414 81.4122 658.756 87.0902 658.756C92.0202 658.756 94.4002 662.224 94.6042 667.392L84.8462 670.69C85.5942 672.662 87.2262 673.342 89.1982 673.342C91.1022 673.342 92.8362 672.696 94.1622 671.506C94.6382 674.668 92.6662 678.544 87.3962 678.544ZM84.4722 667.29L89.4362 665.59C89.2662 664.604 88.5522 663.584 87.1922 663.584C85.4582 663.584 84.6082 665.216 84.4722 667.29ZM102.208 678.544C100.304 678.544 98.4002 677.456 98.4002 673.682V664.434C97.8222 664.434 96.6662 664.502 96.0202 664.74C95.7482 663.89 95.6122 663.108 95.6122 662.394C95.6122 660.354 96.7342 659.3 98.5362 659.3C98.5362 658.212 98.2302 657.362 98.2302 656.614C98.2302 654.982 99.7602 653.69 102.072 653.69C102.922 653.69 103.704 653.86 104.418 654.098C104.112 655.73 104.01 657.43 104.01 659.3C105.302 659.3 106.662 659.13 107.784 658.756C107.988 659.572 108.056 660.286 108.056 660.864C108.056 663.312 106.9 664.434 104.826 664.434H104.01V672.322C104.01 674.43 104.554 676.164 105.744 677.422C104.69 678.102 103.432 678.544 102.208 678.544ZM124.584 678.544C119.008 678.544 115.914 674.158 115.914 668.616C115.914 663.414 118.6 658.756 124.278 658.756C129.208 658.756 131.588 662.224 131.792 667.392L122.034 670.69C122.782 672.662 124.414 673.342 126.386 673.342C128.29 673.342 130.024 672.696 131.35 671.506C131.826 674.668 129.854 678.544 124.584 678.544ZM121.66 667.29L126.624 665.59C126.454 664.604 125.74 663.584 124.38 663.584C122.646 663.584 121.796 665.216 121.66 667.29ZM133.82 678C134.296 676.334 134.466 674.464 134.466 672.526V665.25C134.466 663.312 134.194 661.476 133.446 659.912L139.532 658.824V661.714C140.484 659.776 141.98 658.756 143.918 658.756C146.196 658.756 148.202 660.218 148.202 663.108C148.202 665.93 146.332 667.324 143.578 667.324C144.19 664.978 143.374 663.924 142.15 663.924C140.348 663.924 140.076 666.134 140.076 669.602V672.526C140.076 674.464 140.348 676.334 141.062 678H133.82ZM156.464 678C156.94 676.334 157.11 674.464 157.11 672.526V665.25C157.11 663.312 156.838 661.476 156.09 659.912L162.176 658.824V661.544C163.128 659.708 164.726 658.756 167.038 658.756C171.356 658.756 172.75 662.156 172.75 666.168V672.526C172.75 674.464 172.92 676.334 173.396 678H166.494C166.97 676.334 167.14 674.464 167.14 672.526V666.678C167.14 664.978 166.596 663.924 165.304 663.924C163.434 663.924 162.72 666.134 162.72 668.922V672.526C162.72 674.464 162.89 676.334 163.366 678H156.464ZM184.02 678.544C177.696 678.544 175.248 674.09 175.248 668.65C175.248 663.21 177.696 658.756 184.02 658.756C190.344 658.756 192.792 663.21 192.792 668.65C192.792 674.09 190.344 678.544 184.02 678.544ZM184.02 673.342C185.958 673.342 187.012 671.54 187.012 668.65C187.012 665.76 185.958 663.958 184.02 663.958C182.082 663.958 181.028 665.76 181.028 668.65C181.028 671.54 182.082 673.342 184.02 673.342ZM206.675 685.344C206.811 683.304 204.839 682.624 202.527 682.08L199.943 681.502C197.529 680.924 195.421 680.04 195.421 677.592C195.421 675.994 196.305 674.838 198.073 674.158C195.693 672.628 194.707 669.874 194.707 667.086C194.707 663.21 196.611 659.402 201.473 658.824C201.201 657.634 200.929 656.036 200.929 654.71C200.929 651.412 202.731 650.256 204.397 650.256C206.029 650.256 207.423 651.378 207.423 653.214C207.423 655.832 204.635 656.24 204.465 658.892C209.089 659.606 210.891 663.312 210.891 667.086C210.891 671.302 208.647 675.416 202.799 675.416C201.813 675.416 200.997 675.552 200.997 676.266C200.997 676.81 201.473 677.116 202.799 677.286L206.845 677.728C209.633 678.034 211.775 679.156 211.775 681.468C211.775 684.426 208.341 685.31 206.675 685.344ZM202.799 670.384C204.465 670.384 205.383 668.922 205.383 667.086C205.383 665.25 204.465 663.788 202.799 663.788C201.133 663.788 200.215 665.25 200.215 667.086C200.215 668.922 201.133 670.384 202.799 670.384ZM221.404 678.544C215.828 678.544 212.734 674.158 212.734 668.616C212.734 663.414 215.42 658.756 221.098 658.756C226.028 658.756 228.408 662.224 228.612 667.392L218.854 670.69C219.602 672.662 221.234 673.342 223.206 673.342C225.11 673.342 226.844 672.696 228.17 671.506C228.646 674.668 226.674 678.544 221.404 678.544ZM218.48 667.29L223.444 665.59C223.274 664.604 222.56 663.584 221.2 663.584C219.466 663.584 218.616 665.216 218.48 667.29ZM230.64 678C231.116 676.334 231.286 674.464 231.286 672.526V665.25C231.286 663.312 231.014 661.476 230.266 659.912L236.352 658.824V661.544C237.304 659.708 238.902 658.756 241.214 658.756C245.532 658.756 246.926 662.156 246.926 666.168V672.526C246.926 674.464 247.096 676.334 247.572 678H240.67C241.146 676.334 241.316 674.464 241.316 672.526V666.678C241.316 664.978 240.772 663.924 239.48 663.924C237.61 663.924 236.896 666.134 236.896 668.922V672.526C236.896 674.464 237.066 676.334 237.542 678H230.64ZM268.3 685.344C268.436 683.304 266.464 682.624 264.152 682.08L261.568 681.502C259.154 680.924 257.046 680.04 257.046 677.592C257.046 675.994 257.93 674.838 259.698 674.158C257.318 672.628 256.332 669.874 256.332 667.086C256.332 663.21 258.236 659.402 263.098 658.824C262.826 657.634 262.554 656.036 262.554 654.71C262.554 651.412 264.356 650.256 266.022 650.256C267.654 650.256 269.048 651.378 269.048 653.214C269.048 655.832 266.26 656.24 266.09 658.892C270.714 659.606 272.516 663.312 272.516 667.086C272.516 671.302 270.272 675.416 264.424 675.416C263.438 675.416 262.622 675.552 262.622 676.266C262.622 676.81 263.098 677.116 264.424 677.286L268.47 677.728C271.258 678.034 273.4 679.156 273.4 681.468C273.4 684.426 269.966 685.31 268.3 685.344ZM264.424 670.384C266.09 670.384 267.008 668.922 267.008 667.086C267.008 665.25 266.09 663.788 264.424 663.788C262.758 663.788 261.84 665.25 261.84 667.086C261.84 668.922 262.758 670.384 264.424 670.384ZM283.131 678.544C276.807 678.544 274.359 674.09 274.359 668.65C274.359 663.21 276.807 658.756 283.131 658.756C289.455 658.756 291.903 663.21 291.903 668.65C291.903 674.09 289.455 678.544 283.131 678.544ZM283.131 673.342C285.069 673.342 286.123 671.54 286.123 668.65C286.123 665.76 285.069 663.958 283.131 663.958C281.193 663.958 280.139 665.76 280.139 668.65C280.139 671.54 281.193 673.342 283.131 673.342ZM301.09 678.544C296.33 678.544 293.882 674.09 293.882 668.65C293.882 663.21 296.33 658.756 301.09 658.756C302.858 658.756 304.354 659.334 305.442 660.626V656.818C305.442 654.88 305.17 653.044 304.422 651.48L311.052 650.256V672.322C311.052 674.43 311.596 676.164 312.786 677.422C311.8 678.068 310.644 678.544 309.386 678.544C307.89 678.544 306.496 677.83 305.986 675.926C304.898 677.694 303.164 678.544 301.09 678.544ZM302.62 673.342C304.49 673.342 305.51 671.54 305.51 668.65C305.51 665.76 304.49 663.958 302.62 663.958C300.716 663.958 299.662 665.76 299.662 668.65C299.662 671.54 300.716 673.342 302.62 673.342ZM322.507 678.544C316.931 678.544 313.837 674.158 313.837 668.616C313.837 663.414 316.523 658.756 322.201 658.756C327.131 658.756 329.511 662.224 329.715 667.392L319.957 670.69C320.705 672.662 322.337 673.342 324.309 673.342C326.213 673.342 327.947 672.696 329.273 671.506C329.749 674.668 327.777 678.544 322.507 678.544ZM319.583 667.29L324.547 665.59C324.377 664.604 323.663 663.584 322.303 663.584C320.569 663.584 319.719 665.216 319.583 667.29ZM338.448 678C338.924 676.334 339.094 674.464 339.094 672.526V656.818C339.094 654.88 338.822 653.044 338.074 651.48L344.704 650.256V672.526C344.704 674.464 344.874 676.334 345.35 678H338.448ZM356.045 678.544C349.721 678.544 347.273 674.09 347.273 668.65C347.273 663.21 349.721 658.756 356.045 658.756C362.369 658.756 364.817 663.21 364.817 668.65C364.817 674.09 362.369 678.544 356.045 678.544ZM356.045 673.342C357.983 673.342 359.037 671.54 359.037 668.65C359.037 665.76 357.983 663.958 356.045 663.958C354.107 663.958 353.053 665.76 353.053 668.65C353.053 671.54 354.107 673.342 356.045 673.342ZM374.004 678.544C369.244 678.544 366.796 674.09 366.796 668.65C366.796 663.21 369.244 658.756 374.004 658.756C375.772 658.756 377.268 659.334 378.356 660.626V656.818C378.356 654.88 378.084 653.044 377.336 651.48L383.966 650.256V672.322C383.966 674.43 384.51 676.164 385.7 677.422C384.714 678.068 383.558 678.544 382.3 678.544C380.804 678.544 379.41 677.83 378.9 675.926C377.812 677.694 376.078 678.544 374.004 678.544ZM375.534 673.342C377.404 673.342 378.424 671.54 378.424 668.65C378.424 665.76 377.404 663.958 375.534 663.958C373.63 663.958 372.576 665.76 372.576 668.65C372.576 671.54 373.63 673.342 375.534 673.342ZM393.96 678.544C389.2 678.544 386.752 674.09 386.752 668.65C386.752 663.21 389.2 658.756 393.96 658.756C395.728 658.756 397.224 659.334 398.312 660.626V656.818C398.312 654.88 398.04 653.044 397.292 651.48L403.922 650.256V672.322C403.922 674.43 404.466 676.164 405.656 677.422C404.67 678.068 403.514 678.544 402.256 678.544C400.76 678.544 399.366 677.83 398.856 675.926C397.768 677.694 396.034 678.544 393.96 678.544ZM395.49 673.342C397.36 673.342 398.38 671.54 398.38 668.65C398.38 665.76 397.36 663.958 395.49 663.958C393.586 663.958 392.532 665.76 392.532 668.65C392.532 671.54 393.586 673.342 395.49 673.342ZM415.377 678.544C409.801 678.544 406.707 674.158 406.707 668.616C406.707 663.414 409.393 658.756 415.071 658.756C420.001 658.756 422.381 662.224 422.585 667.392L412.827 670.69C413.575 672.662 415.207 673.342 417.179 673.342C419.083 673.342 420.817 672.696 422.143 671.506C422.619 674.668 420.647 678.544 415.377 678.544ZM412.453 667.29L417.417 665.59C417.247 664.604 416.533 663.584 415.173 663.584C413.439 663.584 412.589 665.216 412.453 667.29ZM424.613 678C425.089 676.334 425.259 674.464 425.259 672.526V665.25C425.259 663.312 424.987 661.476 424.239 659.912L430.325 658.824V661.714C431.277 659.776 432.773 658.756 434.711 658.756C436.989 658.756 438.995 660.218 438.995 663.108C438.995 665.93 437.125 667.324 434.371 667.324C434.983 664.978 434.167 663.924 432.943 663.924C431.141 663.924 430.869 666.134 430.869 669.602V672.526C430.869 674.464 431.141 676.334 431.855 678H424.613ZM442.708 685.072C440.702 685.616 438.254 684.97 438.254 682.522C438.254 680.788 439.478 679.666 440.736 678.544C438.696 678.51 437.098 676.844 437.098 674.804C437.098 672.73 438.696 671.064 440.838 671.064C443.048 671.064 444.714 672.832 444.714 675.212C444.714 678.238 442.096 680.346 442.096 682.964C442.096 683.644 442.266 684.324 442.708 685.072ZM460.831 678.544C456.955 678.544 453.589 676.64 453.589 673.614C453.589 670.928 456.309 669.942 458.621 670.418C458.485 670.758 458.417 671.2 458.417 671.54C458.417 672.934 459.505 673.784 460.831 673.784C462.055 673.784 462.939 673.07 462.939 672.05C462.939 670.894 461.851 670.316 460.389 669.976L458.417 669.534C455.969 668.99 453.827 667.46 453.827 664.4C453.827 661.306 456.037 658.756 461.069 658.756C463.347 658.756 465.795 659.266 467.325 660.422V666.134C465.693 664.502 463.075 663.55 461.035 663.55C459.913 663.55 459.335 663.822 459.335 664.434C459.335 665.012 459.845 665.216 461.035 665.488L462.871 665.93C465.625 666.61 468.549 668.038 468.549 671.914C468.549 675.926 465.319 678.544 460.831 678.544ZM476.481 678.544C472.741 678.544 470.225 676.232 470.225 672.73C470.225 669.16 472.843 667.358 476.787 667.358C478.521 667.358 479.915 667.732 480.901 668.378V666.202C480.901 664.468 479.847 663.686 478.419 663.686C477.127 663.686 476.005 664.332 476.005 665.624C476.005 665.93 476.073 666.304 476.175 666.61C473.897 667.086 471.245 665.998 471.245 663.346C471.245 660.286 474.747 658.756 478.453 658.756C483.213 658.756 486.511 661.34 486.511 665.386V672.322C486.511 674.43 487.055 676.164 488.245 677.422C487.259 678.068 486.103 678.544 484.845 678.544C483.451 678.544 482.193 678 481.581 676.334C480.493 677.694 478.759 678.544 476.481 678.544ZM478.453 674.226C479.983 674.226 481.105 673.546 481.105 672.424C481.105 671.302 479.983 670.656 478.453 670.656C476.923 670.656 475.835 671.302 475.835 672.424C475.835 673.546 476.923 674.226 478.453 674.226ZM478.453 657.226C476.107 657.226 474.339 655.56 474.339 653.282C474.339 651.004 476.107 649.338 478.453 649.338C480.799 649.338 482.567 651.004 482.567 653.282C482.567 655.56 480.799 657.226 478.453 657.226ZM478.453 655.254C479.677 655.254 480.527 654.438 480.527 653.282C480.527 652.126 479.677 651.31 478.453 651.31C477.229 651.31 476.379 652.126 476.379 653.282C476.379 654.438 477.229 655.254 478.453 655.254ZM503.231 678.544C498.471 678.544 496.023 674.09 496.023 668.65C496.023 663.21 498.471 658.756 503.231 658.756C504.999 658.756 506.495 659.334 507.583 660.626V656.818C507.583 654.88 507.311 653.044 506.563 651.48L513.193 650.256V672.322C513.193 674.43 513.737 676.164 514.927 677.422C513.941 678.068 512.785 678.544 511.527 678.544C510.031 678.544 508.637 677.83 508.127 675.926C507.039 677.694 505.305 678.544 503.231 678.544ZM504.761 673.342C506.631 673.342 507.651 671.54 507.651 668.65C507.651 665.76 506.631 663.958 504.761 663.958C502.857 663.958 501.803 665.76 501.803 668.65C501.803 671.54 502.857 673.342 504.761 673.342ZM524.648 678.544C519.072 678.544 515.978 674.158 515.978 668.616C515.978 663.414 518.664 658.756 524.342 658.756C529.272 658.756 531.652 662.224 531.856 667.392L522.098 670.69C522.846 672.662 524.478 673.342 526.45 673.342C528.354 673.342 530.088 672.696 531.414 671.506C531.89 674.668 529.918 678.544 524.648 678.544ZM521.724 667.29L526.688 665.59C526.518 664.604 525.804 663.584 524.444 663.584C522.71 663.584 521.86 665.216 521.724 667.29ZM533.884 678C534.36 676.334 534.53 674.464 534.53 672.526V665.25C534.53 663.312 534.258 661.476 533.51 659.912L539.596 658.824V661.442C540.548 659.64 542.078 658.756 544.356 658.756C546.94 658.756 548.402 659.946 549.184 661.816C550.102 659.81 551.666 658.756 554.114 658.756C558.432 658.756 559.656 662.156 559.656 666.168V672.526C559.656 674.464 559.826 676.334 560.302 678H553.4C553.876 676.334 554.046 674.464 554.046 672.526V666.678C554.046 664.978 553.502 663.924 552.21 663.924C550.34 663.924 549.898 666.134 549.898 668.922V672.526C549.898 674.464 550.068 676.334 550.544 678H543.642C544.118 676.334 544.288 674.464 544.288 672.526V666.678C544.288 664.978 543.744 663.924 542.452 663.924C540.582 663.924 540.14 666.134 540.14 668.922V672.526C540.14 674.464 540.31 676.334 540.786 678H533.884ZM576.179 678.544C572.303 678.544 568.937 676.64 568.937 673.614C568.937 670.928 571.657 669.942 573.969 670.418C573.833 670.758 573.765 671.2 573.765 671.54C573.765 672.934 574.853 673.784 576.179 673.784C577.403 673.784 578.287 673.07 578.287 672.05C578.287 670.894 577.199 670.316 575.737 669.976L573.765 669.534C571.317 668.99 569.175 667.46 569.175 664.4C569.175 661.306 571.385 658.756 576.417 658.756C578.695 658.756 581.143 659.266 582.673 660.422V666.134C581.041 664.502 578.423 663.55 576.383 663.55C575.261 663.55 574.683 663.822 574.683 664.434C574.683 665.012 575.193 665.216 576.383 665.488L578.219 665.93C580.973 666.61 583.897 668.038 583.897 671.914C583.897 675.926 580.667 678.544 576.179 678.544ZM585.845 678C586.321 676.334 586.491 674.464 586.491 672.526V656.818C586.491 654.88 586.219 653.044 585.471 651.48L592.101 650.256V660.252C593.529 659.164 595.195 658.756 596.861 658.756C601.009 658.756 603.015 661.578 603.015 664.978C603.015 667.494 601.961 669.296 599.751 670.316C600.737 672.968 602.131 675.484 604.001 678H597.371C596.215 675.994 595.365 673.852 594.923 671.744H592.101V672.526C592.101 674.464 592.271 676.334 592.747 678H585.845ZM592.101 668.106H594.549C596.215 668.106 597.235 667.188 597.235 665.794C597.235 664.604 596.487 663.652 595.093 663.652C593.495 663.652 592.101 664.91 592.101 667.46V668.106ZM611.419 678.544C607.679 678.544 605.163 676.232 605.163 672.73C605.163 669.16 607.781 667.358 611.725 667.358C613.459 667.358 614.853 667.732 615.839 668.378V666.202C615.839 664.468 614.785 663.686 613.357 663.686C612.065 663.686 610.943 664.332 610.943 665.624C610.943 665.93 611.011 666.304 611.113 666.61C608.835 667.086 606.183 665.998 606.183 663.346C606.183 660.286 609.685 658.756 613.391 658.756C618.151 658.756 621.449 661.34 621.449 665.386V672.322C621.449 674.43 621.993 676.164 623.183 677.422C622.197 678.068 621.041 678.544 619.783 678.544C618.389 678.544 617.131 678 616.519 676.334C615.431 677.694 613.697 678.544 611.419 678.544ZM613.391 674.226C614.921 674.226 616.043 673.546 616.043 672.424C616.043 671.302 614.921 670.656 613.391 670.656C611.861 670.656 610.773 671.302 610.773 672.424C610.773 673.546 611.861 674.226 613.391 674.226ZM624.46 678C624.936 676.334 625.106 674.464 625.106 672.526V656.818C625.106 654.88 624.834 653.044 624.086 651.48L630.716 650.256V672.526C630.716 674.464 630.886 676.334 631.362 678H624.46ZM643.219 685.344C641.995 685.344 640.703 684.902 639.513 684.222C640.601 683.1 641.247 681.91 641.247 679.122V665.182C641.247 663.244 641.111 661.476 640.193 659.912L646.857 658.756V681.162C646.857 684.256 645.123 685.344 643.219 685.344ZM644.035 656.512C641.553 656.512 640.533 654.88 640.533 653.384C640.533 651.888 641.553 650.256 644.035 650.256C646.517 650.256 647.537 651.888 647.537 653.384C647.537 654.88 646.517 656.512 644.035 656.512ZM658.291 678.544C652.715 678.544 649.621 674.158 649.621 668.616C649.621 663.414 652.307 658.756 657.985 658.756C662.915 658.756 665.295 662.224 665.499 667.392L655.741 670.69C656.489 672.662 658.121 673.342 660.093 673.342C661.997 673.342 663.731 672.696 665.057 671.506C665.533 674.668 663.561 678.544 658.291 678.544ZM655.367 667.29L660.331 665.59C660.161 664.604 659.447 663.584 658.087 663.584C656.353 663.584 655.503 665.216 655.367 667.29ZM679.355 685.344C679.491 683.304 677.519 682.624 675.207 682.08L672.623 681.502C670.209 680.924 668.101 680.04 668.101 677.592C668.101 675.994 668.985 674.838 670.753 674.158C668.373 672.628 667.387 669.874 667.387 667.086C667.387 663.21 669.291 659.402 674.153 658.824C673.881 657.634 673.609 656.036 673.609 654.71C673.609 651.412 675.411 650.256 677.077 650.256C678.709 650.256 680.103 651.378 680.103 653.214C680.103 655.832 677.315 656.24 677.145 658.892C681.769 659.606 683.571 663.312 683.571 667.086C683.571 671.302 681.327 675.416 675.479 675.416C674.493 675.416 673.677 675.552 673.677 676.266C673.677 676.81 674.153 677.116 675.479 677.286L679.525 677.728C682.313 678.034 684.455 679.156 684.455 681.468C684.455 684.426 681.021 685.31 679.355 685.344ZM675.479 670.384C677.145 670.384 678.063 668.922 678.063 667.086C678.063 665.25 677.145 663.788 675.479 663.788C673.813 663.788 672.895 665.25 672.895 667.086C672.895 668.922 673.813 670.384 675.479 670.384ZM692.462 678C692.938 676.334 693.108 674.464 693.108 672.526V665.25C693.108 663.312 692.836 661.476 692.088 659.912L698.718 658.756V672.526C698.718 674.464 698.888 676.334 699.364 678H692.462ZM695.726 656.512C693.244 656.512 692.224 654.88 692.224 653.384C692.224 651.888 693.244 650.256 695.726 650.256C698.208 650.256 699.228 651.888 699.228 653.384C699.228 654.88 698.208 656.512 695.726 656.512ZM701.624 678C702.1 676.334 702.27 674.464 702.27 672.526V656.818C702.27 654.88 701.998 653.044 701.25 651.48L707.88 650.256V660.252C709.308 659.164 710.974 658.756 712.64 658.756C716.788 658.756 718.794 661.578 718.794 664.978C718.794 667.494 717.74 669.296 715.53 670.316C716.516 672.968 717.91 675.484 719.78 678H713.15C711.994 675.994 711.144 673.852 710.702 671.744H707.88V672.526C707.88 674.464 708.05 676.334 708.526 678H701.624ZM707.88 668.106H710.328C711.994 668.106 713.014 667.188 713.014 665.794C713.014 664.604 712.266 663.652 710.872 663.652C709.274 663.652 707.88 664.91 707.88 667.46V668.106ZM721.546 678C722.022 676.334 722.192 674.464 722.192 672.526V656.818C722.192 654.88 721.92 653.044 721.172 651.48L727.802 650.256V660.252C729.23 659.164 730.896 658.756 732.562 658.756C736.71 658.756 738.716 661.578 738.716 664.978C738.716 667.494 737.662 669.296 735.452 670.316C736.438 672.968 737.832 675.484 739.702 678H733.072C731.916 675.994 731.066 673.852 730.624 671.744H727.802V672.526C727.802 674.464 727.972 676.334 728.448 678H721.546ZM727.802 668.106H730.25C731.916 668.106 732.936 667.188 732.936 665.794C732.936 664.604 732.188 663.652 730.794 663.652C729.196 663.652 727.802 664.91 727.802 667.46V668.106ZM749.4 678.544C743.824 678.544 740.73 674.158 740.73 668.616C740.73 663.414 743.416 658.756 749.094 658.756C754.024 658.756 756.404 662.224 756.608 667.392L746.85 670.69C747.598 672.662 749.23 673.342 751.202 673.342C753.106 673.342 754.84 672.696 756.166 671.506C756.642 674.668 754.67 678.544 749.4 678.544ZM746.476 667.29L751.44 665.59C751.27 664.604 750.556 663.584 749.196 663.584C747.462 663.584 746.612 665.216 746.476 667.29ZM771.325 678.544C767.585 678.544 765.069 676.232 765.069 672.73C765.069 669.16 767.687 667.358 771.631 667.358C773.365 667.358 774.759 667.732 775.745 668.378V666.202C775.745 664.468 774.691 663.686 773.263 663.686C771.971 663.686 770.849 664.332 770.849 665.624C770.849 665.93 770.917 666.304 771.019 666.61C768.741 667.086 766.089 665.998 766.089 663.346C766.089 660.286 769.591 658.756 773.297 658.756C778.057 658.756 781.355 661.34 781.355 665.386V672.322C781.355 674.43 781.899 676.164 783.089 677.422C782.103 678.068 780.947 678.544 779.689 678.544C778.295 678.544 777.037 678 776.425 676.334C775.337 677.694 773.603 678.544 771.325 678.544ZM773.297 674.226C774.827 674.226 775.949 673.546 775.949 672.424C775.949 671.302 774.827 670.656 773.297 670.656C771.767 670.656 770.679 671.302 770.679 672.424C770.679 673.546 771.767 674.226 773.297 674.226ZM785.738 678C786.214 676.334 786.384 674.464 786.384 672.526V664.366C785.364 664.4 784.378 664.502 783.562 664.74C783.188 663.822 782.95 662.972 782.95 662.156C782.95 660.694 783.698 659.572 785.772 659.334C784.99 657.804 784.65 656.682 784.65 655.56C784.65 652.16 787.778 650.256 791.688 650.256C794.714 650.256 797.57 651.446 797.57 654.064C797.57 656.648 794.782 657.09 793.082 657.124C793.116 656.92 793.116 656.784 793.116 656.648C793.116 655.73 792.708 655.152 791.892 655.152C791.212 655.152 790.464 655.56 790.464 656.58C790.464 657.362 790.94 658.416 791.552 659.3H792.742C794.306 659.3 795.564 659.13 796.618 658.824C796.822 659.64 796.924 660.354 796.924 661C796.924 663.21 795.7 664.434 793.66 664.434H791.994V672.526C791.994 674.464 792.266 676.334 792.98 678H785.738ZM805.386 678C805.862 676.334 806.032 674.464 806.032 672.526V665.25C806.032 663.312 805.76 661.476 805.012 659.912L811.098 658.824V661.442C812.05 659.64 813.58 658.756 815.858 658.756C818.442 658.756 819.904 659.946 820.686 661.816C821.604 659.81 823.168 658.756 825.616 658.756C829.934 658.756 831.158 662.156 831.158 666.168V672.526C831.158 674.464 831.328 676.334 831.804 678H824.902C825.378 676.334 825.548 674.464 825.548 672.526V666.678C825.548 664.978 825.004 663.924 823.712 663.924C821.842 663.924 821.4 666.134 821.4 668.922V672.526C821.4 674.464 821.57 676.334 822.046 678H815.144C815.62 676.334 815.79 674.464 815.79 672.526V666.678C815.79 664.978 815.246 663.924 813.954 663.924C812.084 663.924 811.642 666.134 811.642 668.922V672.526C811.642 674.464 811.812 676.334 812.288 678H805.386ZM842.302 678.544C836.726 678.544 833.632 674.158 833.632 668.616C833.632 663.414 836.318 658.756 841.996 658.756C846.926 658.756 849.306 662.224 849.51 667.392L839.752 670.69C840.5 672.662 842.132 673.342 844.104 673.342C846.008 673.342 847.742 672.696 849.068 671.506C849.544 674.668 847.572 678.544 842.302 678.544ZM839.378 667.29L844.342 665.59C844.172 664.604 843.458 663.584 842.098 663.584C840.364 663.584 839.514 665.216 839.378 667.29ZM858.67 678.544C853.91 678.544 851.462 674.09 851.462 668.65C851.462 663.21 853.91 658.756 858.67 658.756C860.438 658.756 861.934 659.334 863.022 660.626V656.818C863.022 654.88 862.75 653.044 862.002 651.48L868.632 650.256V672.322C868.632 674.43 869.176 676.164 870.366 677.422C869.38 678.068 868.224 678.544 866.966 678.544C865.47 678.544 864.076 677.83 863.566 675.926C862.478 677.694 860.744 678.544 858.67 678.544ZM860.2 673.342C862.07 673.342 863.09 671.54 863.09 668.65C863.09 665.76 862.07 663.958 860.2 663.958C858.296 663.958 857.242 665.76 857.242 668.65C857.242 671.54 858.296 673.342 860.2 673.342ZM875.6 678.544C873.458 678.544 871.86 676.878 871.86 674.804C871.86 672.73 873.458 671.064 875.6 671.064C877.742 671.064 879.34 672.73 879.34 674.804C879.34 676.878 877.742 678.544 875.6 678.544ZM883.38 664.23C881.374 664.774 878.926 664.128 878.926 661.68C878.926 659.946 880.15 658.824 881.408 657.702C879.368 657.668 877.77 656.002 877.77 653.962C877.77 651.888 879.368 650.222 881.51 650.222C883.72 650.222 885.386 651.99 885.386 654.37C885.386 657.396 882.768 659.504 882.768 662.122C882.768 662.802 882.938 663.482 883.38 664.23ZM892.662 664.23C890.656 664.774 888.208 664.128 888.208 661.68C888.208 659.946 889.432 658.824 890.69 657.702C888.65 657.668 887.052 656.002 887.052 653.962C887.052 651.888 888.65 650.222 890.792 650.222C893.002 650.222 894.668 651.99 894.668 654.37C894.668 657.396 892.05 659.504 892.05 662.122C892.05 662.802 892.22 663.482 892.662 664.23Z" fill="#5F141E"/>
</svg>
