<svg width="1080" height="1080" viewBox="0 0 1080 1080" fill="none" xmlns="http://www.w3.org/2000/svg">
<rect width="1080" height="1080" fill="#F41116"/>
<path fill-rule="evenodd" clip-rule="evenodd" d="M366.866 84.413C370.059 78.5269 372.691 71.8 373.755 66.0829C376.108 66.4193 378.629 66.5874 381.373 66.5874C384.51 66.5874 386.919 66.3635 389.047 66.0271C389.999 70.623 387.814 75.3317 382.045 75.3317C381.597 75.3317 381.149 75.2754 380.701 75.2193C379.525 78.246 378.18 80.9373 376.669 83.3474C383.558 85.2529 388.879 90.5225 388.879 99.2665C388.879 108.067 383.614 113 377.844 113C374.54 113 372.075 111.374 370.955 108.964C374.932 108.403 379.469 105.601 379.469 100.107C379.469 94.278 374.316 90.2983 366.866 89.9619V102.406C366.866 105.601 367.146 108.684 367.931 111.43H356.56C357.344 108.684 357.624 105.601 357.624 102.406V76.229C357.624 73.0342 357.232 70.0071 356 67.4283L366.866 65.6907V84.413ZM417.953 79.7041C425.571 79.7042 431.004 83.7965 431.004 90.5787V102.125C431.004 105.601 431.956 108.516 433.86 110.533C432.348 111.542 430.499 112.327 428.539 112.327C426.299 112.327 424.283 111.374 423.33 108.572C421.538 110.87 418.625 112.327 414.873 112.327C408.823 112.327 404.567 108.572 404.567 102.742C404.567 96.8002 408.991 93.7733 415.377 93.7733C418.289 93.7733 420.698 94.3905 422.378 95.6232V91.8111C422.378 88.7283 420.473 87.3277 417.897 87.3277C415.545 87.3277 413.64 88.5603 413.64 90.8028C413.64 91.3633 413.752 91.9793 413.92 92.4837C410.391 93.2126 406.19 91.4752 406.19 87.2711C406.19 82.3384 411.848 79.7041 417.953 79.7041ZM446.41 79.7041C450.219 79.7042 454.196 80.6015 456.716 82.563V91.5312C454.028 88.7843 449.771 87.1031 446.354 87.103C444.282 87.103 443.161 87.7198 443.161 88.8963C443.161 89.9615 444.057 90.354 446.13 90.8586L449.322 91.6436C453.972 92.8203 458.621 95.2315 458.621 101.509C458.621 108.235 453.299 112.327 446.074 112.327C439.632 112.327 434.199 109.02 434.199 104.087C434.199 99.771 438.512 98.2021 442.096 98.9301C441.872 99.4907 441.76 100.276 441.76 100.892C441.76 103.471 443.722 104.928 446.074 104.928C448.315 104.928 449.938 103.639 449.938 101.733C449.938 99.6589 448.09 98.6502 445.514 98.0335L442.209 97.2484C438.288 96.3513 434.647 93.8294 434.647 88.8405C434.647 83.7401 438.456 79.7041 446.41 79.7041ZM472.401 79.7041C476.21 79.7042 480.186 80.6015 482.707 82.563V91.5312C480.019 88.7843 475.762 87.1031 472.345 87.103C470.273 87.103 469.152 87.7198 469.152 88.8963C469.152 89.9615 470.049 90.354 472.121 90.8586L475.314 91.6436C479.963 92.8203 484.612 95.2315 484.612 101.509C484.612 108.235 479.291 112.327 472.065 112.327C465.624 112.327 460.191 109.02 460.191 104.087C460.191 99.771 464.503 98.2021 468.087 98.9301C467.864 99.4907 467.752 100.276 467.752 100.892C467.752 103.471 469.713 104.928 472.065 104.928C474.306 104.928 475.929 103.639 475.929 101.733C475.929 99.6589 474.081 98.6502 471.504 98.0335L468.2 97.2484C464.279 96.3513 460.639 93.8294 460.639 88.8405C460.639 83.7401 464.448 79.7041 472.401 79.7041ZM500.186 79.7041C508.083 79.7042 512.06 85.3651 512.396 93.661L495.984 99.3223C497.161 102.91 500.073 104.312 503.49 104.312C506.738 104.312 509.595 103.134 511.724 101.116C512.395 106.217 509.091 112.327 500.745 112.327C491.728 112.327 486.519 105.209 486.519 95.9596C486.519 87.2717 491.111 79.7041 500.186 79.7041ZM542.254 79.7041C552.391 79.7041 556.536 86.9351 556.536 96.0154C556.536 105.096 552.391 112.327 542.254 112.327C532.059 112.327 527.971 105.096 527.971 96.0154C527.971 86.9351 532.059 79.7041 542.254 79.7041ZM583.858 71.3521C585.145 71.3521 586.322 71.6323 587.498 72.0248C586.993 74.7712 586.826 77.6302 586.826 80.6015C588.954 80.6015 591.139 80.3208 593.043 79.7041C593.379 80.9929 593.491 82.0582 593.491 82.9552C593.491 86.7669 591.698 88.5041 588.393 88.5041H586.826V102.125C586.826 105.657 587.777 108.516 589.682 110.533C588.057 111.598 586.098 112.327 584.192 112.327C581.112 112.327 578.199 110.421 578.199 104.255V88.5041H570.862V102.125C570.862 105.657 571.815 108.516 573.719 110.533C572.095 111.598 570.134 112.327 568.174 112.327C565.149 112.327 562.236 110.421 562.236 104.255V88.5041C561.228 88.5042 559.379 88.6163 558.259 89.0087C557.811 87.6639 557.643 86.4866 557.643 85.3655C557.643 82.1706 559.492 80.6016 562.46 80.6015C562.46 78.8075 561.956 77.2938 561.956 76.0044C561.956 73.4263 564.309 71.3521 567.893 71.3521C569.182 71.3521 570.358 71.6323 571.534 72.0248C571.03 74.7712 570.862 77.6302 570.862 80.6015H578.423C578.423 78.8075 577.919 77.2938 577.919 76.0044C577.919 73.4263 580.273 71.3521 583.858 71.3521ZM607.457 79.7041C615.354 79.7041 619.331 85.3651 619.667 93.661L603.257 99.3223C604.433 102.91 607.345 104.312 610.762 104.312C614.01 104.312 616.867 103.134 618.996 101.116C619.667 106.217 616.363 112.327 608.018 112.327C598.999 112.327 593.791 105.209 593.791 95.9596C593.791 87.2718 598.383 79.7042 607.457 79.7041ZM673.893 79.7041C681.791 79.7042 685.768 85.3651 686.104 93.661L669.692 99.3223C670.869 102.91 673.781 104.312 677.197 104.312C680.446 104.312 683.303 103.134 685.431 101.116C686.103 106.217 682.799 112.327 674.453 112.327C665.435 112.327 660.226 105.209 660.226 95.9596C660.226 87.2717 664.819 79.7041 673.893 79.7041ZM697.46 71.3521C698.748 71.3521 699.925 71.6323 701.101 72.0248C700.597 74.7712 700.428 77.6302 700.428 80.6015C702.557 80.6015 704.741 80.3208 706.646 79.7041C706.982 80.9929 707.093 82.0582 707.093 82.9552C707.093 86.7669 705.302 88.5041 701.997 88.5041H700.428V102.125C700.428 105.657 701.381 108.516 703.284 110.533C701.661 111.598 699.7 112.327 697.74 112.327C694.715 112.327 691.803 110.421 691.803 104.255V88.5041C690.795 88.5041 688.945 88.6162 687.826 89.0087C687.378 87.6639 687.21 86.4866 687.21 85.3655C687.21 82.1705 689.058 80.6015 692.027 80.6015C692.027 78.8075 691.523 77.2938 691.523 76.0044C691.523 73.4263 693.875 71.3522 697.46 71.3521ZM656.976 102.406C656.976 105.545 657.256 108.74 657.984 111.431H647.286C648.014 108.74 648.294 105.545 648.294 102.406V90.3548C648.294 87.1598 647.846 84.0769 646.67 81.554L656.976 79.7041V102.406ZM401.765 102.406C401.765 105.545 402.045 108.74 402.773 111.43H392.13C392.859 108.74 393.139 105.545 393.139 102.406V73.9304C393.139 70.7355 392.691 68.045 391.515 65.6349C394.931 65.0182 398.684 64.0652 401.765 63V102.406ZM524.721 102.406C524.721 105.545 525.001 108.74 525.728 111.43H515.086C515.815 108.74 516.094 105.545 516.094 102.406V73.9304C516.094 70.7355 515.646 68.045 514.47 65.6349C517.887 65.0182 521.64 64.0652 524.721 63V102.406ZM638.602 79.7041C642.355 79.7042 645.547 82.1143 645.547 86.7108C645.547 91.1952 642.579 93.3247 638.322 93.3247C639.33 89.5131 637.986 87.664 635.914 87.664C632.833 87.6642 632.217 91.4197 632.217 97.1368V102.406C632.217 105.545 632.61 108.74 633.729 111.43H622.526C623.254 108.74 623.535 105.545 623.535 102.406V90.3541C623.535 87.1592 623.087 84.0762 621.911 81.5533L631.432 79.8165V84.5245C633.001 81.3857 635.41 79.7041 638.602 79.7041ZM417.897 98.986C415.153 98.986 413.248 100.219 413.248 102.294C413.248 104.311 415.153 105.601 417.897 105.601C420.641 105.601 422.658 104.311 422.658 102.294C422.658 100.219 420.641 98.986 417.897 98.986ZM542.254 87.7199C538.837 87.7199 536.931 90.8588 536.931 96.0154C536.931 101.172 538.837 104.312 542.254 104.312C545.67 104.312 547.63 101.172 547.63 96.0154C547.63 90.8588 545.67 87.7199 542.254 87.7199ZM500.353 87.1595C497.273 87.1595 495.704 90.018 495.424 93.8856L504.386 90.8028C504.05 88.8967 502.762 87.1596 500.353 87.1595ZM607.625 87.1595C604.544 87.1596 602.976 90.0181 602.696 93.8856L611.658 90.8028C611.322 88.8966 610.034 87.1595 607.625 87.1595ZM674.061 87.1595C670.981 87.1595 669.412 90.018 669.132 93.8856L678.094 90.8028C677.758 88.8967 676.469 87.1596 674.061 87.1595ZM718.806 65.7473C722.382 65.7473 724.999 68.406 725 71.894C725 75.3819 722.382 78.0938 718.806 78.0938C715.188 78.0938 712.571 75.3556 712.571 71.894C712.571 68.4324 715.226 65.7473 718.806 65.7473ZM718.806 66.9323C715.953 66.9323 713.928 68.9983 713.928 71.894C713.928 74.8291 716.006 76.9088 718.806 76.9088C721.607 76.9088 723.658 74.8028 723.658 71.894C723.658 68.9853 721.66 66.9323 718.806 66.9323ZM652.327 65.7473C656.192 65.7474 657.816 68.2696 657.816 70.6235C657.816 73.0342 656.192 75.5563 652.327 75.5563C648.463 75.5563 646.837 73.0343 646.837 70.6235C646.837 68.2695 648.462 65.7473 652.327 65.7473ZM719.455 68.6472C720.657 68.6473 721.448 69.3888 721.448 70.3989C721.447 71.2425 720.913 71.8181 720.03 72.0099C720.772 72.1761 721.102 72.7256 721.296 73.5694L721.615 74.9373H720.224L720.03 73.7616C719.888 72.8283 719.773 72.6105 718.743 72.6105H717.754V74.9373H716.468V68.6472H719.455ZM717.754 69.6958V71.5619H718.817C719.685 71.5619 720.161 71.2168 720.161 70.5777C720.161 69.9385 719.658 69.6958 718.817 69.6958H717.754Z" fill="#FFF0D3"/>
<path d="M58.9 308C60.3 303.1 60.8 297.6 60.8 291.9V244.1C60.8 238.4 60.3 232.9 58.9 228H84.2C83.2 231.4 84.2 234.9 86.1 238.5L107.7 278.3V244.1C107.7 238.4 107.1 232.9 105.2 228H125.6C124.2 232.9 123.7 238.4 123.7 244.1V291.9C123.7 297.6 124.2 303.1 125.6 308H100.8C101.7 305.1 100.9 302 99.2 299L76.8 257.7V291.9C76.8 297.6 77.5 303.1 79.3 308H58.9ZM157.712 309.6C139.112 309.6 131.912 296.5 131.912 280.5C131.912 264.5 139.112 251.4 157.712 251.4C176.312 251.4 183.512 264.5 183.512 280.5C183.512 296.5 176.312 309.6 157.712 309.6ZM157.712 294.3C163.412 294.3 166.512 289 166.512 280.5C166.512 272 163.412 266.7 157.712 266.7C152.012 266.7 148.912 272 148.912 280.5C148.912 289 152.012 294.3 157.712 294.3ZM189.557 308C190.957 303.1 191.457 297.6 191.457 291.9V270.5C191.457 264.8 190.657 259.4 188.457 254.8L206.357 251.6V260.1C209.157 254.4 213.557 251.4 219.257 251.4C225.957 251.4 231.857 255.7 231.857 264.2C231.857 272.5 226.357 276.6 218.257 276.6C220.057 269.7 217.657 266.6 214.057 266.6C208.757 266.6 207.957 273.1 207.957 283.3V291.9C207.957 297.6 208.757 303.1 210.857 308H189.557ZM255.651 309.6C241.651 309.6 234.451 296.5 234.451 280.5C234.451 264.5 241.651 251.4 255.651 251.4C260.851 251.4 265.251 253.1 268.451 256.9V245.7C268.451 240 267.651 234.6 265.451 230L284.951 226.4V291.3C284.951 297.5 286.551 302.6 290.051 306.3C287.151 308.2 283.751 309.6 280.051 309.6C275.651 309.6 271.551 307.5 270.051 301.9C266.851 307.1 261.751 309.6 255.651 309.6ZM260.151 294.3C265.651 294.3 268.651 289 268.651 280.5C268.651 272 265.651 266.7 260.151 266.7C254.551 266.7 251.451 272 251.451 280.5C251.451 289 254.551 294.3 260.151 294.3ZM302.342 329.6C298.742 329.6 294.942 328.3 291.442 326.3C294.642 323 296.542 319.5 296.542 311.3V270.3C296.542 264.6 296.142 259.4 293.442 254.8L313.042 251.4V317.3C313.042 326.4 307.942 329.6 302.342 329.6ZM304.742 244.8C297.442 244.8 294.442 240 294.442 235.6C294.442 231.2 297.442 226.4 304.742 226.4C312.042 226.4 315.042 231.2 315.042 235.6C315.042 240 312.042 244.8 304.742 244.8ZM330.17 328C333.27 323.1 335.77 317.8 337.77 312.5L339.37 308.2L325.47 268.6C323.67 263.2 321.47 257.9 319.07 253H341.37C340.27 256.9 340.77 261.2 342.07 265.6L348.07 286.2L354.87 265.5C356.27 261.2 356.87 256.9 355.77 253H376.47C374.07 257.9 371.97 263.2 370.07 268.5L353.37 315.6C351.87 319.9 351.17 324.1 352.37 328H330.17ZM398.524 309.6C387.124 309.6 377.224 304 377.224 295.1C377.224 287.2 385.224 284.3 392.024 285.7C391.624 286.7 391.424 288 391.424 289C391.424 293.1 394.624 295.6 398.524 295.6C402.124 295.6 404.724 293.5 404.724 290.5C404.724 287.1 401.524 285.4 397.224 284.4L391.424 283.1C384.224 281.5 377.924 277 377.924 268C377.924 258.9 384.424 251.4 399.224 251.4C405.924 251.4 413.124 252.9 417.624 256.3V273.1C412.824 268.3 405.124 265.5 399.124 265.5C395.824 265.5 394.124 266.3 394.124 268.1C394.124 269.8 395.624 270.4 399.124 271.2L404.524 272.5C412.624 274.5 421.224 278.7 421.224 290.1C421.224 301.9 411.724 309.6 398.524 309.6ZM426.952 308C428.352 303.1 428.852 297.6 428.852 291.9V245.7C428.852 240 428.052 234.6 425.852 230L445.352 226.4V255.8C449.552 252.6 454.452 251.4 459.352 251.4C471.552 251.4 477.452 259.7 477.452 269.7C477.452 277.1 474.352 282.4 467.852 285.4C470.752 293.2 474.852 300.6 480.352 308H460.852C457.452 302.1 454.952 295.8 453.652 289.6H445.352V291.9C445.352 297.6 445.852 303.1 447.252 308H426.952ZM445.352 278.9H452.552C457.452 278.9 460.452 276.2 460.452 272.1C460.452 268.6 458.252 265.8 454.152 265.8C449.452 265.8 445.352 269.5 445.352 277V278.9ZM505.566 308C506.966 303.1 507.466 297.6 507.466 291.9V245.7C507.466 240 506.666 234.6 504.466 230L523.966 226.4V255.8C528.166 252.6 533.066 251.4 537.966 251.4C550.166 251.4 556.066 259.7 556.066 269.7C556.066 277.1 552.966 282.4 546.466 285.4C549.366 293.2 553.466 300.6 558.966 308H539.466C536.066 302.1 533.566 295.8 532.266 289.6H523.966V291.9C523.966 297.6 524.466 303.1 525.866 308H505.566ZM523.966 278.9H531.166C536.066 278.9 539.066 276.2 539.066 272.1C539.066 268.6 536.866 265.8 532.766 265.8C528.066 265.8 523.966 269.5 523.966 277V278.9ZM575.832 308L564.132 268.7C562.532 263.2 560.532 257.9 558.132 253H579.932C578.832 256.9 579.232 261.2 580.332 265.6L586.432 288.5L593.032 265.6C594.232 261.2 594.732 256.9 593.632 253H614.332C611.932 257.9 609.932 263.2 608.132 268.6L595.432 308H575.832ZM618.268 308C619.668 303.1 620.168 297.6 620.168 291.9V270.5C620.168 264.8 619.368 259.4 617.168 254.8L636.668 251.4V291.9C636.668 297.6 637.168 303.1 638.568 308H618.268ZM627.868 244.8C620.568 244.8 617.568 240 617.568 235.6C617.568 231.2 620.568 226.4 627.868 226.4C635.168 226.4 638.168 231.2 638.168 235.6C638.168 240 635.168 244.8 627.868 244.8ZM645.514 308C646.914 303.1 647.414 297.6 647.414 291.9V270.5C647.414 264.8 646.614 259.4 644.414 254.8L662.314 251.6V259.6C665.114 254.2 669.814 251.4 676.614 251.4C689.314 251.4 693.414 261.4 693.414 273.2V291.9C693.414 297.6 693.914 303.1 695.314 308H675.014C676.414 303.1 676.914 297.6 676.914 291.9V274.7C676.914 269.7 675.314 266.6 671.514 266.6C666.014 266.6 663.914 273.1 663.914 281.3V291.9C663.914 297.6 664.414 303.1 665.814 308H645.514ZM721.959 309.6C707.959 309.6 700.759 296.5 700.759 280.5C700.759 264.5 707.959 251.4 721.959 251.4C727.159 251.4 731.559 253.1 734.759 256.9V245.7C734.759 240 733.959 234.6 731.759 230L751.259 226.4V291.3C751.259 297.5 752.859 302.6 756.359 306.3C753.459 308.2 750.059 309.6 746.359 309.6C741.959 309.6 737.859 307.5 736.359 301.9C733.159 307.1 728.059 309.6 721.959 309.6ZM726.459 294.3C731.959 294.3 734.959 289 734.959 280.5C734.959 272 731.959 266.7 726.459 266.7C720.859 266.7 717.759 272 717.759 280.5C717.759 289 720.859 294.3 726.459 294.3ZM784.951 309.6C768.551 309.6 759.451 296.7 759.451 280.4C759.451 265.1 767.351 251.4 784.051 251.4C798.551 251.4 805.551 261.6 806.151 276.8L777.451 286.5C779.651 292.3 784.451 294.3 790.251 294.3C795.851 294.3 800.951 292.4 804.851 288.9C806.251 298.2 800.451 309.6 784.951 309.6ZM776.351 276.5L790.951 271.5C790.451 268.6 788.351 265.6 784.351 265.6C779.251 265.6 776.751 270.4 776.351 276.5ZM73 420L61.3 380.7C59.7 375.2 57.7 369.9 55.3 365H77.1C76 368.9 76.4 373.2 77.5 377.6L83.6 400.5L90.2 377.6C91.4 373.2 91.9 368.9 90.8 365H111.5C109.1 369.9 107.1 375.2 105.3 380.6L92.6 420H73ZM115.436 420C116.836 415.1 117.336 409.6 117.336 403.9V382.5C117.336 376.8 116.536 371.4 114.336 366.8L133.836 363.4V403.9C133.836 409.6 134.336 415.1 135.736 420H115.436ZM125.036 356.8C117.736 356.8 114.736 352 114.736 347.6C114.736 343.2 117.736 338.4 125.036 338.4C132.336 338.4 135.336 343.2 135.336 347.6C135.336 352 132.336 356.8 125.036 356.8ZM142.682 420C144.082 415.1 144.582 409.6 144.582 403.9V382.5C144.582 376.8 143.782 371.4 141.582 366.8L159.482 363.6V371.6C162.282 366.2 166.982 363.4 173.782 363.4C186.482 363.4 190.582 373.4 190.582 385.2V403.9C190.582 409.6 191.082 415.1 192.482 420H172.182C173.582 415.1 174.082 409.6 174.082 403.9V386.7C174.082 381.7 172.482 378.6 168.682 378.6C163.182 378.6 161.082 385.1 161.082 393.3V403.9C161.082 409.6 161.582 415.1 162.982 420H142.682ZM219.127 421.6C205.127 421.6 197.927 408.5 197.927 392.5C197.927 376.5 205.127 363.4 219.127 363.4C224.327 363.4 228.727 365.1 231.927 368.9V357.7C231.927 352 231.127 346.6 228.927 342L248.427 338.4V403.3C248.427 409.5 250.027 414.6 253.527 418.3C250.627 420.2 247.227 421.6 243.527 421.6C239.127 421.6 235.027 419.5 233.527 413.9C230.327 419.1 225.227 421.6 219.127 421.6ZM223.627 406.3C229.127 406.3 232.127 401 232.127 392.5C232.127 384 229.127 378.7 223.627 378.7C218.027 378.7 214.927 384 214.927 392.5C214.927 401 218.027 406.3 223.627 406.3ZM282.119 421.6C265.719 421.6 256.619 408.7 256.619 392.4C256.619 377.1 264.519 363.4 281.219 363.4C295.719 363.4 302.719 373.6 303.319 388.8L274.619 398.5C276.819 404.3 281.619 406.3 287.419 406.3C293.019 406.3 298.119 404.4 302.019 400.9C303.419 410.2 297.619 421.6 282.119 421.6ZM273.519 388.5L288.119 383.5C287.619 380.6 285.519 377.6 281.519 377.6C276.419 377.6 273.919 382.4 273.519 388.5ZM309.284 420C310.684 415.1 311.184 409.6 311.184 403.9V382.5C311.184 376.8 310.384 371.4 308.184 366.8L326.084 363.6V372.1C328.884 366.4 333.284 363.4 338.984 363.4C345.684 363.4 351.584 367.7 351.584 376.2C351.584 384.5 346.084 388.6 337.984 388.6C339.784 381.7 337.384 378.6 333.784 378.6C328.484 378.6 327.684 385.1 327.684 395.3V403.9C327.684 409.6 328.484 415.1 330.584 420H309.284ZM376.185 420C378.185 415.1 378.885 409.6 378.885 403.9V363.5C378.885 357.8 377.785 352.7 374.385 348.8L396.385 338.4V403.9C396.385 409.6 397.085 415.1 399.085 420H376.185ZM417.649 421.6C411.349 421.6 406.649 416.7 406.649 410.6C406.649 404.5 411.349 399.6 417.649 399.6C423.949 399.6 428.649 404.5 428.649 410.6C428.649 416.7 423.949 421.6 417.649 421.6ZM461.179 421.6C442.779 421.6 434.179 406.6 434.179 380C434.179 353.4 442.779 338.4 461.179 338.4C479.579 338.4 488.179 353.4 488.179 380C488.179 406.6 479.579 421.6 461.179 421.6ZM461.179 405.2C467.179 405.2 470.179 396.9 470.179 380C470.179 363.1 467.179 354.8 461.179 354.8C455.179 354.8 452.179 363.1 452.179 380C452.179 396.9 455.179 405.2 461.179 405.2ZM522.523 421.6C504.723 421.6 494.823 406.6 494.823 380C494.823 354.7 503.423 338.4 522.823 338.4C534.823 338.4 545.123 344.7 545.123 355.4C545.123 363.5 539.223 367.3 532.623 367.3C531.123 367.3 529.623 367.1 528.123 366.7C528.823 365.4 529.323 363.6 529.323 361.7C529.323 357.4 526.823 354.4 522.823 354.4C515.823 354.4 513.323 363.5 512.923 376C515.923 372.5 520.323 370.2 526.623 370.2C539.623 370.2 548.623 380.1 548.623 394.6C548.623 409.3 539.223 421.6 522.523 421.6ZM522.523 405.2C527.723 405.2 530.623 400.5 530.623 394.6C530.623 388.7 527.723 384 522.523 384C517.323 384 514.423 388.7 514.423 394.6C514.423 400.5 517.323 405.2 522.523 405.2ZM554.982 420C554.982 390 585.782 381.2 585.782 363.2C585.782 358 583.182 354.4 578.682 354.4C573.582 354.4 570.682 359.1 570.682 364.9C570.682 368.2 571.582 370.6 572.282 372C571.082 372.3 569.782 372.5 568.282 372.5C561.282 372.5 554.282 368.1 554.282 358.9C554.282 348.5 563.182 338.4 578.682 338.4C593.582 338.4 603.582 347.7 603.582 363.2C603.582 383.4 586.182 390.3 577.682 404H591.182C595.782 404 600.182 403 604.082 400.2V420H554.982ZM622.337 421.6C616.037 421.6 611.337 416.7 611.337 410.6C611.337 404.5 616.037 399.6 622.337 399.6C628.637 399.6 633.337 404.5 633.337 410.6C633.337 416.7 628.637 421.6 622.337 421.6ZM662.255 421.6C646.955 421.6 638.455 411.7 638.455 401.6C638.455 392.4 645.455 388 652.455 388C653.955 388 655.255 388.2 656.455 388.5C655.755 389.9 655.055 392.3 655.055 395.4C655.055 401.4 657.455 405.6 662.255 405.6C666.955 405.6 670.055 401.6 670.055 394.3C670.055 384.9 664.255 381.6 655.955 381.6C651.655 381.6 646.855 382.5 642.655 384.4L647.455 338.5C651.855 339.6 658.255 340.9 666.355 340.9C673.355 340.9 678.955 339.9 682.855 338.4C683.255 340 683.555 341.9 683.555 344C683.555 350.4 680.655 357.7 670.655 357.7C668.355 357.7 665.455 357.3 661.955 356.1L661.055 366.1C677.655 366.1 687.855 376.4 687.855 393.7C687.855 411.2 677.655 421.6 662.255 421.6ZM717.045 421.6C701.745 421.6 693.245 411.7 693.245 401.6C693.245 392.4 700.245 388 707.245 388C708.745 388 710.045 388.2 711.245 388.5C710.545 389.9 709.845 392.3 709.845 395.4C709.845 401.4 712.245 405.6 717.145 405.6C721.745 405.6 724.945 401.8 724.945 393.7C724.945 384.8 721.145 378.6 709.445 378.6C707.945 378.6 706.145 378.7 704.345 379L716.545 356H708.345C703.745 356 699.345 356.6 695.445 358.5V340H743.745L728.745 368.9C737.345 373 742.745 381.5 742.745 394C742.745 411.3 732.445 421.6 717.045 421.6ZM776.804 421.6C758.404 421.6 749.804 406.6 749.804 380C749.804 353.4 758.404 338.4 776.804 338.4C795.204 338.4 803.804 353.4 803.804 380C803.804 406.6 795.204 421.6 776.804 421.6ZM776.804 405.2C782.804 405.2 785.804 396.9 785.804 380C785.804 363.1 782.804 354.8 776.804 354.8C770.804 354.8 767.804 363.1 767.804 380C767.804 396.9 770.804 405.2 776.804 405.2ZM830.468 420C831.868 415.1 832.368 409.6 832.368 403.9V357.7C832.368 352 831.568 346.6 829.368 342L848.868 338.4V367.8C853.068 364.6 857.968 363.4 862.868 363.4C875.068 363.4 880.968 371.7 880.968 381.7C880.968 389.1 877.868 394.4 871.368 397.4C874.268 405.2 878.368 412.6 883.868 420H864.368C860.968 414.1 858.468 407.8 857.168 401.6H848.868V403.9C848.868 409.6 849.368 415.1 850.768 420H830.468ZM848.868 390.9H856.068C860.968 390.9 863.968 388.2 863.968 384.1C863.968 380.6 861.768 377.8 857.668 377.8C852.968 377.8 848.868 381.5 848.868 389V390.9ZM889.362 420C890.762 415.1 891.262 409.6 891.262 403.9V382.5C891.262 376.8 890.462 371.4 888.262 366.8L906.162 363.6V372.1C908.962 366.4 913.362 363.4 919.062 363.4C925.762 363.4 931.662 367.7 931.662 376.2C931.662 384.5 926.162 388.6 918.062 388.6C919.862 381.7 917.462 378.6 913.862 378.6C908.562 378.6 907.762 385.1 907.762 395.3V403.9C907.762 409.6 908.562 415.1 910.662 420H889.362ZM937.083 421.6C930.783 421.6 926.083 416.7 926.083 410.6C926.083 404.5 930.783 399.6 937.083 399.6C943.383 399.6 948.083 404.5 948.083 410.6C948.083 416.7 943.383 421.6 937.083 421.6ZM58.6 532C60 527.1 60.5 521.6 60.5 515.9V494.5C60.5 488.8 59.7 483.4 57.5 478.8L77 475.4V515.9C77 521.6 77.5 527.1 78.9 532H58.6ZM68.2 468.8C60.9 468.8 57.9 464 57.9 459.6C57.9 455.2 60.9 450.4 68.2 450.4C75.5 450.4 78.5 455.2 78.5 459.6C78.5 464 75.5 468.8 68.2 468.8ZM106.166 532C107.566 527.1 108.066 521.6 108.066 515.9V468.1C108.066 462.4 107.566 456.9 106.166 452H127.566C126.166 456.9 125.666 462.4 125.666 468.1V484.2C132.966 475.1 139.866 463.2 141.566 452H161.566C157.866 463.6 152.866 472.3 143.466 482.7C154.066 484.9 158.666 494.1 159.666 505.1L160.766 516.7C161.366 523.2 163.366 527.8 166.866 532H146.066C143.966 527.4 143.266 523.3 142.966 519.1L142.166 505.8C141.766 499.5 138.866 496.4 134.066 496.4C129.266 496.4 125.666 499.5 125.666 505.9V515.9C125.666 521.6 126.366 527.1 128.166 532H106.166ZM171.679 532C173.079 527.1 173.579 521.6 173.579 515.9V469.7C173.579 464 172.779 458.6 170.579 454L190.079 450.4V515.9C190.079 521.6 190.579 527.1 191.979 532H171.679ZM216.134 533.6C205.134 533.6 197.734 526.8 197.734 516.5C197.734 506 205.434 500.7 217.034 500.7C222.134 500.7 226.234 501.8 229.134 503.7V497.3C229.134 492.2 226.034 489.9 221.834 489.9C218.034 489.9 214.734 491.8 214.734 495.6C214.734 496.5 214.934 497.6 215.234 498.5C208.534 499.9 200.734 496.7 200.734 488.9C200.734 479.9 211.034 475.4 221.934 475.4C235.934 475.4 245.634 483 245.634 494.9V515.3C245.634 521.5 247.234 526.6 250.734 530.3C247.834 532.2 244.434 533.6 240.734 533.6C236.634 533.6 232.934 532 231.134 527.1C227.934 531.1 222.834 533.6 216.134 533.6ZM221.934 520.9C226.434 520.9 229.734 518.9 229.734 515.6C229.734 512.3 226.434 510.4 221.934 510.4C217.434 510.4 214.234 512.3 214.234 515.6C214.234 518.9 217.434 520.9 221.934 520.9ZM274.891 533.6C263.491 533.6 253.591 528 253.591 519.1C253.591 511.2 261.591 508.3 268.391 509.7C267.991 510.7 267.791 512 267.791 513C267.791 517.1 270.991 519.6 274.891 519.6C278.491 519.6 281.091 517.5 281.091 514.5C281.091 511.1 277.891 509.4 273.591 508.4L267.791 507.1C260.591 505.5 254.291 501 254.291 492C254.291 482.9 260.791 475.4 275.591 475.4C282.291 475.4 289.491 476.9 293.991 480.3V497.1C289.191 492.3 281.491 489.5 275.491 489.5C272.191 489.5 270.491 490.3 270.491 492.1C270.491 493.8 271.991 494.4 275.491 495.2L280.891 496.5C288.991 498.5 297.591 502.7 297.591 514.1C297.591 525.9 288.091 533.6 274.891 533.6ZM323.72 533.6C312.32 533.6 302.42 528 302.42 519.1C302.42 511.2 310.42 508.3 317.22 509.7C316.82 510.7 316.62 512 316.62 513C316.62 517.1 319.82 519.6 323.72 519.6C327.32 519.6 329.92 517.5 329.92 514.5C329.92 511.1 326.72 509.4 322.42 508.4L316.62 507.1C309.42 505.5 303.12 501 303.12 492C303.12 482.9 309.62 475.4 324.42 475.4C331.12 475.4 338.32 476.9 342.82 480.3V497.1C338.02 492.3 330.32 489.5 324.32 489.5C321.02 489.5 319.32 490.3 319.32 492.1C319.32 493.8 320.82 494.4 324.32 495.2L329.72 496.5C337.82 498.5 346.42 502.7 346.42 514.1C346.42 525.9 336.92 533.6 323.72 533.6ZM376.748 533.6C360.348 533.6 351.248 520.7 351.248 504.4C351.248 489.1 359.148 475.4 375.848 475.4C390.348 475.4 397.348 485.6 397.948 500.8L369.248 510.5C371.448 516.3 376.248 518.3 382.048 518.3C387.648 518.3 392.748 516.4 396.648 512.9C398.048 522.2 392.248 533.6 376.748 533.6ZM368.148 500.5L382.748 495.5C382.248 492.6 380.148 489.6 376.148 489.6C371.048 489.6 368.548 494.4 368.148 500.5ZM403.612 532C405.013 527.1 405.513 521.6 405.513 515.9V469.7C405.513 464 404.713 458.6 402.513 454L422.013 450.4V515.9C422.013 521.6 422.513 527.1 423.913 532H403.612ZM455.368 533.6C436.768 533.6 429.568 520.5 429.568 504.5C429.568 488.5 436.768 475.4 455.368 475.4C473.968 475.4 481.168 488.5 481.168 504.5C481.168 520.5 473.968 533.6 455.368 533.6ZM455.368 518.3C461.068 518.3 464.168 513 464.168 504.5C464.168 496 461.068 490.7 455.368 490.7C449.668 490.7 446.568 496 446.568 504.5C446.568 513 449.668 518.3 455.368 518.3ZM503.613 533.6C498.013 533.6 492.413 530.4 492.413 519.3V492.1C490.713 492.1 487.313 492.3 485.413 493C484.613 490.5 484.213 488.2 484.213 486.1C484.213 480.1 487.513 477 492.813 477C492.813 473.8 491.913 471.3 491.913 469.1C491.913 464.3 496.413 460.5 503.213 460.5C505.713 460.5 508.013 461 510.113 461.7C509.213 466.5 508.913 471.5 508.913 477H521.713C521.713 473.8 520.813 471.3 520.813 469.1C520.813 464.3 525.313 460.5 532.113 460.5C534.613 460.5 536.913 461 539.013 461.7C538.113 466.5 537.813 471.5 537.813 477C541.613 477 545.613 476.5 548.913 475.4C549.513 477.8 549.713 479.9 549.713 481.6C549.713 488.8 546.313 492.1 540.213 492.1H537.813V515.3C537.813 521.5 539.413 526.6 542.913 530.3C539.813 532.3 536.113 533.6 532.513 533.6C526.913 533.6 521.313 530.4 521.313 519.3V492.1H508.913V515.3C508.913 521.5 510.513 526.6 514.013 530.3C510.913 532.3 507.213 533.6 503.613 533.6ZM576.455 533.6C560.055 533.6 550.955 520.7 550.955 504.4C550.955 489.1 558.855 475.4 575.555 475.4C590.055 475.4 597.055 485.6 597.655 500.8L568.955 510.5C571.155 516.3 575.955 518.3 581.755 518.3C587.355 518.3 592.455 516.4 596.355 512.9C597.755 522.2 591.955 533.6 576.455 533.6ZM567.855 500.5L582.455 495.5C581.955 492.6 579.855 489.6 575.855 489.6C570.755 489.6 568.255 494.4 567.855 500.5ZM603.62 532C605.02 527.1 605.52 521.6 605.52 515.9V494.5C605.52 488.8 604.72 483.4 602.52 478.8L620.42 475.6V484.1C623.22 478.4 627.62 475.4 633.32 475.4C640.02 475.4 645.92 479.7 645.92 488.2C645.92 496.5 640.42 500.6 632.32 500.6C634.12 493.7 631.72 490.6 628.12 490.6C622.82 490.6 622.02 497.1 622.02 507.3V515.9C622.02 521.6 622.82 527.1 624.92 532H603.62ZM650.202 532C651.602 527.1 652.102 521.6 652.102 515.9V494.5C652.102 488.8 651.302 483.4 649.102 478.8L668.602 475.4V515.9C668.602 521.6 669.102 527.1 670.502 532H650.202ZM659.802 468.8C652.502 468.8 649.502 464 649.502 459.6C649.502 455.2 652.502 450.4 659.802 450.4C667.102 450.4 670.102 455.2 670.102 459.6C670.102 464 667.102 468.8 659.802 468.8ZM701.748 533.6C685.348 533.6 676.248 520.7 676.248 504.4C676.248 489.1 684.148 475.4 700.848 475.4C715.348 475.4 722.348 485.6 722.948 500.8L694.248 510.5C696.448 516.3 701.248 518.3 707.048 518.3C712.648 518.3 717.748 516.4 721.648 512.9C723.048 522.2 717.248 533.6 701.748 533.6ZM693.148 500.5L707.748 495.5C707.248 492.6 705.148 489.6 701.148 489.6C696.048 489.6 693.548 494.4 693.148 500.5ZM745.313 533.6C739.713 533.6 734.113 530.4 734.113 519.3V492.1C732.413 492.1 729.013 492.3 727.113 493C726.313 490.5 725.913 488.2 725.913 486.1C725.913 480.1 729.213 477 734.513 477C734.513 473.8 733.613 471.3 733.613 469.1C733.613 464.3 738.113 460.5 744.913 460.5C747.413 460.5 749.713 461 751.813 461.7C750.913 466.5 750.613 471.5 750.613 477C754.413 477 758.413 476.5 761.713 475.4C762.313 477.8 762.513 479.9 762.513 481.6C762.513 488.8 759.113 492.1 753.013 492.1H750.613V515.3C750.613 521.5 752.213 526.6 755.713 530.3C752.613 532.3 748.913 533.6 745.313 533.6Z" fill="#FFF0D3"/>
<path d="M60.134 612.468C57.924 612.468 56.258 610.7 56.258 608.32C56.258 605.294 58.876 603.186 58.876 600.568C58.876 599.888 58.706 599.208 58.264 598.46C60.27 597.916 62.718 598.562 62.718 601.01C62.718 602.744 61.494 603.866 60.236 604.988C62.276 605.022 63.874 606.688 63.874 608.728C63.874 610.802 62.276 612.468 60.134 612.468ZM69.416 612.468C67.206 612.468 65.54 610.7 65.54 608.32C65.54 605.294 68.158 603.186 68.158 600.568C68.158 599.888 67.988 599.208 67.546 598.46C69.552 597.916 72 598.562 72 601.01C72 602.744 70.776 603.866 69.518 604.988C71.558 605.022 73.156 606.688 73.156 608.728C73.156 610.802 71.558 612.468 69.416 612.468ZM82.6178 626L76.5658 604.172C76.0218 602.302 75.4098 600.466 74.5938 598.8H82.3118C81.9378 600.126 82.0738 601.588 82.4478 603.084L86.1878 617.84L89.9618 603.084C90.3358 601.588 90.4718 600.126 90.0638 598.8H97.4418C96.6258 600.466 96.0138 602.302 95.4698 604.172L89.4178 626H82.6178ZM98.4916 626C98.9676 624.334 99.1376 622.464 99.1376 620.526V613.25C99.1376 611.312 98.8656 609.476 98.1176 607.912L104.748 606.756V620.526C104.748 622.464 104.918 624.334 105.394 626H98.4916ZM101.756 604.512C99.2736 604.512 98.2536 602.88 98.2536 601.384C98.2536 599.888 99.2736 598.256 101.756 598.256C104.238 598.256 105.258 599.888 105.258 601.384C105.258 602.88 104.238 604.512 101.756 604.512ZM114.46 626C114.936 624.334 115.106 622.464 115.106 620.526V604.818C115.106 602.88 114.834 601.044 114.086 599.48L120.716 598.256V620.526C120.716 622.464 120.886 624.334 121.362 626H114.46ZM129.575 626.544C125.835 626.544 123.319 624.232 123.319 620.73C123.319 617.16 125.937 615.358 129.881 615.358C131.615 615.358 133.009 615.732 133.995 616.378V614.202C133.995 612.468 132.941 611.686 131.513 611.686C130.221 611.686 129.099 612.332 129.099 613.624C129.099 613.93 129.167 614.304 129.269 614.61C126.991 615.086 124.339 613.998 124.339 611.346C124.339 608.286 127.841 606.756 131.547 606.756C136.307 606.756 139.605 609.34 139.605 613.386V620.322C139.605 622.43 140.149 624.164 141.339 625.422C140.353 626.068 139.197 626.544 137.939 626.544C136.545 626.544 135.287 626 134.675 624.334C133.587 625.694 131.853 626.544 129.575 626.544ZM131.547 622.226C133.077 622.226 134.199 621.546 134.199 620.424C134.199 619.302 133.077 618.656 131.547 618.656C130.017 618.656 128.929 619.302 128.929 620.424C128.929 621.546 130.017 622.226 131.547 622.226ZM145.921 626L141.943 612.638C141.399 610.768 140.719 608.966 139.903 607.3H147.315C146.941 608.626 147.077 610.088 147.451 611.584L149.525 619.37L151.769 611.584C152.177 610.088 152.347 608.626 151.973 607.3H159.011C158.195 608.966 157.515 610.768 156.903 612.604L152.585 626H145.921ZM167.582 626.544C162.006 626.544 158.912 622.158 158.912 616.616C158.912 611.414 161.598 606.756 167.276 606.756C172.206 606.756 174.586 610.224 174.79 615.392L165.032 618.69C165.78 620.662 167.412 621.342 169.384 621.342C171.288 621.342 173.022 620.696 174.348 619.506C174.824 622.668 172.852 626.544 167.582 626.544ZM164.658 615.29L169.622 613.59C169.452 612.604 168.738 611.584 167.378 611.584C165.644 611.584 164.794 613.216 164.658 615.29ZM176.818 626C177.294 624.334 177.464 622.464 177.464 620.526V613.25C177.464 611.312 177.192 609.476 176.444 607.912L182.53 606.824V609.714C183.482 607.776 184.978 606.756 186.916 606.756C189.194 606.756 191.2 608.218 191.2 611.108C191.2 613.93 189.33 615.324 186.576 615.324C187.188 612.978 186.372 611.924 185.148 611.924C183.346 611.924 183.074 614.134 183.074 617.602V620.526C183.074 622.464 183.346 624.334 184.06 626H176.818ZM207.724 626.544C202.148 626.544 199.054 622.158 199.054 616.616C199.054 611.414 201.74 606.756 207.418 606.756C212.348 606.756 214.728 610.224 214.932 615.392L205.174 618.69C205.922 620.662 207.554 621.342 209.526 621.342C211.43 621.342 213.164 620.696 214.49 619.506C214.966 622.668 212.994 626.544 207.724 626.544ZM204.8 615.29L209.764 613.59C209.594 612.604 208.88 611.584 207.52 611.584C205.786 611.584 204.936 613.216 204.8 615.29ZM216.96 626C217.436 624.334 217.606 622.464 217.606 620.526V613.25C217.606 611.312 217.334 609.476 216.586 607.912L222.672 606.824V609.544C223.624 607.708 225.222 606.756 227.534 606.756C231.852 606.756 233.246 610.156 233.246 614.168V620.526C233.246 622.464 233.416 624.334 233.892 626H226.99C227.466 624.334 227.636 622.464 227.636 620.526V614.678C227.636 612.978 227.092 611.924 225.8 611.924C223.93 611.924 223.216 614.134 223.216 616.922V620.526C223.216 622.464 223.386 624.334 223.862 626H216.96ZM244.726 626C245.202 624.334 245.372 622.464 245.372 620.526V612.366C244.352 612.4 243.366 612.502 242.55 612.74C242.176 611.822 241.938 610.972 241.938 610.156C241.938 608.694 242.686 607.572 244.76 607.334C243.978 605.804 243.638 604.682 243.638 603.56C243.638 600.16 246.766 598.256 250.676 598.256C253.702 598.256 256.558 599.446 256.558 602.064C256.558 604.648 253.77 605.09 252.07 605.124C252.104 604.92 252.104 604.784 252.104 604.648C252.104 603.73 251.696 603.152 250.88 603.152C250.2 603.152 249.452 603.56 249.452 604.58C249.452 605.362 249.928 606.416 250.54 607.3H251.73C253.294 607.3 254.552 607.13 255.606 606.824C255.81 607.64 255.912 608.354 255.912 609C255.912 611.21 254.688 612.434 252.648 612.434H250.982V620.526C250.982 622.464 251.254 624.334 251.968 626H244.726ZM262.586 626.544C258.846 626.544 256.33 624.232 256.33 620.73C256.33 617.16 258.948 615.358 262.892 615.358C264.626 615.358 266.02 615.732 267.006 616.378V614.202C267.006 612.468 265.952 611.686 264.524 611.686C263.232 611.686 262.11 612.332 262.11 613.624C262.11 613.93 262.178 614.304 262.28 614.61C260.002 615.086 257.35 613.998 257.35 611.346C257.35 608.286 260.852 606.756 264.558 606.756C269.318 606.756 272.616 609.34 272.616 613.386V620.322C272.616 622.43 273.16 624.164 274.35 625.422C273.364 626.068 272.208 626.544 270.95 626.544C269.556 626.544 268.298 626 267.686 624.334C266.598 625.694 264.864 626.544 262.586 626.544ZM264.558 622.226C266.088 622.226 267.21 621.546 267.21 620.424C267.21 619.302 266.088 618.656 264.558 618.656C263.028 618.656 261.94 619.302 261.94 620.424C261.94 621.546 263.028 622.226 264.558 622.226ZM275.73 626C276.206 624.334 276.376 622.464 276.376 620.526V613.25C276.376 611.312 276.104 609.476 275.356 607.912L281.442 606.824V609.442C282.394 607.64 283.924 606.756 286.202 606.756C288.786 606.756 290.248 607.946 291.03 609.816C291.948 607.81 293.512 606.756 295.96 606.756C300.278 606.756 301.502 610.156 301.502 614.168V620.526C301.502 622.464 301.672 624.334 302.148 626H295.246C295.722 624.334 295.892 622.464 295.892 620.526V614.678C295.892 612.978 295.348 611.924 294.056 611.924C292.186 611.924 291.744 614.134 291.744 616.922V620.526C291.744 622.464 291.914 624.334 292.39 626H285.488C285.964 624.334 286.134 622.464 286.134 620.526V614.678C286.134 612.978 285.59 611.924 284.298 611.924C282.428 611.924 281.986 614.134 281.986 616.922V620.526C281.986 622.464 282.156 624.334 282.632 626H275.73ZM304.384 626C304.86 624.334 305.03 622.464 305.03 620.526V613.25C305.03 611.312 304.758 609.476 304.01 607.912L310.64 606.756V620.526C310.64 622.464 310.81 624.334 311.286 626H304.384ZM307.648 604.512C305.166 604.512 304.146 602.88 304.146 601.384C304.146 599.888 305.166 598.256 307.648 598.256C310.13 598.256 311.15 599.888 311.15 601.384C311.15 602.88 310.13 604.512 307.648 604.512ZM313.546 626C314.022 624.334 314.192 622.464 314.192 620.526V604.818C314.192 602.88 313.92 601.044 313.172 599.48L319.802 598.256V620.526C319.802 622.464 319.972 624.334 320.448 626H313.546ZM322.779 626C323.255 624.334 323.425 622.464 323.425 620.526V613.25C323.425 611.312 323.153 609.476 322.405 607.912L329.035 606.756V620.526C329.035 622.464 329.205 624.334 329.681 626H322.779ZM326.043 604.512C323.561 604.512 322.541 602.88 322.541 601.384C322.541 599.888 323.561 598.256 326.043 598.256C328.525 598.256 329.545 599.888 329.545 601.384C329.545 602.88 328.525 604.512 326.043 604.512ZM340.304 626.544C334.728 626.544 331.634 622.158 331.634 616.616C331.634 611.414 334.32 606.756 339.998 606.756C344.928 606.756 347.308 610.224 347.512 615.392L337.754 618.69C338.502 620.662 340.134 621.342 342.106 621.342C344.01 621.342 345.744 620.696 347.07 619.506C347.546 622.668 345.574 626.544 340.304 626.544ZM337.38 615.29L342.344 613.59C342.174 612.604 341.46 611.584 340.1 611.584C338.366 611.584 337.516 613.216 337.38 615.29ZM350.118 613.148C351.546 613.556 353.11 613.692 354.776 613.692H354.844C356.51 613.692 358.074 613.556 359.502 613.148V619.132C358.074 618.724 356.51 618.588 354.844 618.588H354.776C353.11 618.588 351.546 618.724 350.118 619.132V613.148ZM368.405 626.544C364.665 626.544 362.149 624.232 362.149 620.73C362.149 617.16 364.767 615.358 368.711 615.358C370.445 615.358 371.839 615.732 372.825 616.378V614.202C372.825 612.468 371.771 611.686 370.343 611.686C369.051 611.686 367.929 612.332 367.929 613.624C367.929 613.93 367.997 614.304 368.099 614.61C365.821 615.086 363.169 613.998 363.169 611.346C363.169 608.286 366.671 606.756 370.377 606.756C375.137 606.756 378.435 609.34 378.435 613.386V620.322C378.435 622.43 378.979 624.164 380.169 625.422C379.183 626.068 378.027 626.544 376.769 626.544C375.375 626.544 374.117 626 373.505 624.334C372.417 625.694 370.683 626.544 368.405 626.544ZM370.377 622.226C371.907 622.226 373.029 621.546 373.029 620.424C373.029 619.302 371.907 618.656 370.377 618.656C368.847 618.656 367.759 619.302 367.759 620.424C367.759 621.546 368.847 622.226 370.377 622.226ZM382.818 626C383.294 624.334 383.464 622.464 383.464 620.526V612.366C382.444 612.4 381.458 612.502 380.642 612.74C380.268 611.822 380.03 610.972 380.03 610.156C380.03 608.694 380.778 607.572 382.852 607.334C382.07 605.804 381.73 604.682 381.73 603.56C381.73 600.16 384.858 598.256 388.768 598.256C391.794 598.256 394.65 599.446 394.65 602.064C394.65 604.648 391.862 605.09 390.162 605.124C390.196 604.92 390.196 604.784 390.196 604.648C390.196 603.73 389.788 603.152 388.972 603.152C388.292 603.152 387.544 603.56 387.544 604.58C387.544 605.362 388.02 606.416 388.632 607.3H389.822C391.386 607.3 392.644 607.13 393.698 606.824C393.902 607.64 394.004 608.354 394.004 609C394.004 611.21 392.78 612.434 390.74 612.434H389.074V620.526C389.074 622.464 389.346 624.334 390.06 626H382.818ZM401.829 626.544C397.953 626.544 394.587 624.64 394.587 621.614C394.587 618.928 397.307 617.942 399.619 618.418C399.483 618.758 399.415 619.2 399.415 619.54C399.415 620.934 400.503 621.784 401.829 621.784C403.053 621.784 403.937 621.07 403.937 620.05C403.937 618.894 402.849 618.316 401.387 617.976L399.415 617.534C396.967 616.99 394.825 615.46 394.825 612.4C394.825 609.306 397.035 606.756 402.067 606.756C404.345 606.756 406.793 607.266 408.323 608.422V614.134C406.691 612.502 404.073 611.55 402.033 611.55C400.911 611.55 400.333 611.822 400.333 612.434C400.333 613.012 400.843 613.216 402.033 613.488L403.869 613.93C406.623 614.61 409.547 616.038 409.547 619.914C409.547 623.926 406.317 626.544 401.829 626.544ZM416.841 626.544C414.937 626.544 413.033 625.456 413.033 621.682V612.434C412.455 612.434 411.299 612.502 410.653 612.74C410.381 611.89 410.245 611.108 410.245 610.394C410.245 608.354 411.367 607.3 413.169 607.3C413.169 606.212 412.863 605.362 412.863 604.614C412.863 602.982 414.393 601.69 416.705 601.69C417.555 601.69 418.337 601.86 419.051 602.098C418.745 603.73 418.643 605.43 418.643 607.3C419.935 607.3 421.295 607.13 422.417 606.756C422.621 607.572 422.689 608.286 422.689 608.864C422.689 611.312 421.533 612.434 419.459 612.434H418.643V620.322C418.643 622.43 419.187 624.164 420.377 625.422C419.323 626.102 418.065 626.544 416.841 626.544ZM431.779 626.544C426.203 626.544 423.109 622.158 423.109 616.616C423.109 611.414 425.795 606.756 431.473 606.756C436.403 606.756 438.783 610.224 438.987 615.392L429.229 618.69C429.977 620.662 431.609 621.342 433.581 621.342C435.485 621.342 437.219 620.696 438.545 619.506C439.021 622.668 437.049 626.544 431.779 626.544ZM428.855 615.29L433.819 613.59C433.649 612.604 432.935 611.584 431.575 611.584C429.841 611.584 428.991 613.216 428.855 615.29ZM441.015 626C441.491 624.334 441.661 622.464 441.661 620.526V613.25C441.661 611.312 441.389 609.476 440.641 607.912L446.727 606.824V609.442C447.679 607.64 449.209 606.756 451.487 606.756C454.071 606.756 455.533 607.946 456.315 609.816C457.233 607.81 458.797 606.756 461.245 606.756C465.563 606.756 466.787 610.156 466.787 614.168V620.526C466.787 622.464 466.957 624.334 467.433 626H460.531C461.007 624.334 461.177 622.464 461.177 620.526V614.678C461.177 612.978 460.633 611.924 459.341 611.924C457.471 611.924 457.029 614.134 457.029 616.922V620.526C457.029 622.464 457.199 624.334 457.675 626H450.773C451.249 624.334 451.419 622.464 451.419 620.526V614.678C451.419 612.978 450.875 611.924 449.583 611.924C447.713 611.924 447.271 614.134 447.271 616.922V620.526C447.271 622.464 447.441 624.334 447.917 626H441.015ZM469.669 626C470.145 624.334 470.315 622.464 470.315 620.526V613.25C470.315 611.312 470.043 609.476 469.295 607.912L475.381 606.824V609.544C476.333 607.708 477.931 606.756 480.243 606.756C484.561 606.756 485.955 610.156 485.955 614.168V620.526C485.955 622.464 486.125 624.334 486.601 626H479.699C480.175 624.334 480.345 622.464 480.345 620.526V614.678C480.345 612.978 479.801 611.924 478.509 611.924C476.639 611.924 475.925 614.134 475.925 616.922V620.526C475.925 622.464 476.095 624.334 476.571 626H469.669ZM488.861 626C489.337 624.334 489.507 622.464 489.507 620.526V613.25C489.507 611.312 489.235 609.476 488.487 607.912L495.117 606.756V620.526C495.117 622.464 495.287 624.334 495.763 626H488.861ZM492.125 604.512C489.643 604.512 488.623 602.88 488.623 601.384C488.623 599.888 489.643 598.256 492.125 598.256C494.607 598.256 495.627 599.888 495.627 601.384C495.627 602.88 494.607 604.512 492.125 604.512ZM498.124 626C498.6 624.334 498.77 622.464 498.77 620.526V613.25C498.77 611.312 498.498 609.476 497.75 607.912L503.836 606.824V609.544C504.788 607.708 506.386 606.756 508.698 606.756C513.016 606.756 514.41 610.156 514.41 614.168V620.526C514.41 622.464 514.58 624.334 515.056 626H508.154C508.63 624.334 508.8 622.464 508.8 620.526V614.678C508.8 612.978 508.256 611.924 506.964 611.924C505.094 611.924 504.38 614.134 504.38 616.922V620.526C504.38 622.464 504.55 624.334 505.026 626H498.124ZM528.978 633.344C529.114 631.304 527.142 630.624 524.83 630.08L522.246 629.502C519.832 628.924 517.724 628.04 517.724 625.592C517.724 623.994 518.608 622.838 520.376 622.158C517.996 620.628 517.01 617.874 517.01 615.086C517.01 611.21 518.914 607.402 523.776 606.824C523.504 605.634 523.232 604.036 523.232 602.71C523.232 599.412 525.034 598.256 526.7 598.256C528.332 598.256 529.726 599.378 529.726 601.214C529.726 603.832 526.938 604.24 526.768 606.892C531.392 607.606 533.194 611.312 533.194 615.086C533.194 619.302 530.95 623.416 525.102 623.416C524.116 623.416 523.3 623.552 523.3 624.266C523.3 624.81 523.776 625.116 525.102 625.286L529.148 625.728C531.936 626.034 534.078 627.156 534.078 629.468C534.078 632.426 530.644 633.31 528.978 633.344ZM525.102 618.384C526.768 618.384 527.686 616.922 527.686 615.086C527.686 613.25 526.768 611.788 525.102 611.788C523.436 611.788 522.518 613.25 522.518 615.086C522.518 616.922 523.436 618.384 525.102 618.384ZM550.449 626.544C544.125 626.544 541.677 622.09 541.677 616.65C541.677 611.21 544.125 606.756 550.449 606.756C556.773 606.756 559.221 611.21 559.221 616.65C559.221 622.09 556.773 626.544 550.449 626.544ZM550.449 621.342C552.387 621.342 553.441 619.54 553.441 616.65C553.441 613.76 552.387 611.958 550.449 611.958C548.511 611.958 547.457 613.76 547.457 616.65C547.457 619.54 548.511 621.342 550.449 621.342ZM561.277 626C561.753 624.334 561.923 622.464 561.923 620.526V613.25C561.923 611.312 561.651 609.476 560.903 607.912L566.989 606.824V609.442C567.941 607.64 569.471 606.756 571.749 606.756C574.333 606.756 575.795 607.946 576.577 609.816C577.495 607.81 579.059 606.756 581.507 606.756C585.825 606.756 587.049 610.156 587.049 614.168V620.526C587.049 622.464 587.219 624.334 587.695 626H580.793C581.269 624.334 581.439 622.464 581.439 620.526V614.678C581.439 612.978 580.895 611.924 579.603 611.924C577.733 611.924 577.291 614.134 577.291 616.922V620.526C577.291 622.464 577.461 624.334 577.937 626H571.035C571.511 624.334 571.681 622.464 571.681 620.526V614.678C571.681 612.978 571.137 611.924 569.845 611.924C567.975 611.924 567.533 614.134 567.533 616.922V620.526C567.533 622.464 567.703 624.334 568.179 626H561.277ZM596.738 626C597.214 624.334 597.384 622.464 597.384 620.526V613.25C597.384 611.312 597.112 609.476 596.364 607.912L602.45 606.824V609.544C603.402 607.708 605 606.756 607.312 606.756C611.63 606.756 613.024 610.156 613.024 614.168V620.526C613.024 622.464 613.194 624.334 613.67 626H606.768C607.244 624.334 607.414 622.464 607.414 620.526V614.678C607.414 612.978 606.87 611.924 605.578 611.924C603.708 611.924 602.994 614.134 602.994 616.922V620.526C602.994 622.464 603.164 624.334 603.64 626H596.738ZM621.845 626.544C618.071 626.544 615.555 624.232 615.555 620.73C615.555 617.16 618.173 615.358 622.117 615.358C623.851 615.358 625.245 615.732 626.231 616.378V614.202C626.231 612.468 625.143 611.686 623.749 611.686C622.457 611.686 621.335 612.366 621.335 613.624C621.335 613.93 621.403 614.304 621.505 614.61C619.227 615.086 616.575 613.998 616.575 611.346C616.575 608.286 620.077 606.756 623.749 606.756C626.061 606.756 628.101 607.402 629.495 608.456C630.787 607.402 632.521 606.756 634.595 606.756C639.525 606.756 641.905 610.224 642.109 615.392L632.351 618.69C633.099 620.662 634.731 621.342 636.703 621.342C638.607 621.342 640.341 620.696 641.667 619.506C642.143 622.668 640.171 626.544 634.901 626.544C631.875 626.544 629.597 625.286 628.101 623.212C627.013 625.184 624.735 626.544 621.845 626.544ZM623.783 622.226C625.313 622.226 626.435 621.546 626.435 620.424C626.435 619.302 625.313 618.656 623.783 618.656C622.253 618.656 621.165 619.302 621.165 620.424C621.165 621.546 622.253 622.226 623.783 622.226ZM631.977 615.29L636.941 613.59C636.771 612.604 636.057 611.584 634.697 611.584C632.963 611.584 632.113 613.216 631.977 615.29ZM650.986 626.544C647.11 626.544 643.744 624.64 643.744 621.614C643.744 618.928 646.464 617.942 648.776 618.418C648.64 618.758 648.572 619.2 648.572 619.54C648.572 620.934 649.66 621.784 650.986 621.784C652.21 621.784 653.094 621.07 653.094 620.05C653.094 618.894 652.006 618.316 650.544 617.976L648.572 617.534C646.124 616.99 643.982 615.46 643.982 612.4C643.982 609.306 646.192 606.756 651.224 606.756C653.502 606.756 655.95 607.266 657.48 608.422V614.134C655.848 612.502 653.23 611.55 651.19 611.55C650.068 611.55 649.49 611.822 649.49 612.434C649.49 613.012 650 613.216 651.19 613.488L653.026 613.93C655.78 614.61 658.704 616.038 658.704 619.914C658.704 623.926 655.474 626.544 650.986 626.544ZM665.997 626.544C664.093 626.544 662.189 625.456 662.189 621.682V612.434C661.611 612.434 660.455 612.502 659.809 612.74C659.537 611.89 659.401 611.108 659.401 610.394C659.401 608.354 660.523 607.3 662.325 607.3C662.325 606.212 662.019 605.362 662.019 604.614C662.019 602.982 663.549 601.69 665.861 601.69C666.711 601.69 667.493 601.86 668.207 602.098C667.901 603.73 667.799 605.43 667.799 607.3C669.091 607.3 670.451 607.13 671.573 606.756C671.777 607.572 671.845 608.286 671.845 608.864C671.845 611.312 670.689 612.434 668.615 612.434H667.799V620.322C667.799 622.43 668.343 624.164 669.533 625.422C668.479 626.102 667.221 626.544 665.997 626.544ZM680.935 626.544C675.359 626.544 672.265 622.158 672.265 616.616C672.265 611.414 674.951 606.756 680.629 606.756C685.559 606.756 687.939 610.224 688.143 615.392L678.385 618.69C679.133 620.662 680.765 621.342 682.737 621.342C684.641 621.342 686.375 620.696 687.701 619.506C688.177 622.668 686.205 626.544 680.935 626.544ZM678.011 615.29L682.975 613.59C682.805 612.604 682.091 611.584 680.731 611.584C678.997 611.584 678.147 613.216 678.011 615.29ZM698.746 626C699.222 624.334 699.392 622.464 699.392 620.526V612.366C698.372 612.4 697.386 612.502 696.57 612.74C696.196 611.822 695.958 610.972 695.958 610.156C695.958 608.694 696.706 607.572 698.78 607.334C697.998 605.804 697.658 604.682 697.658 603.56C697.658 600.16 700.786 598.256 704.696 598.256C707.722 598.256 710.578 599.446 710.578 602.064C710.578 604.648 707.79 605.09 706.09 605.124C706.124 604.92 706.124 604.784 706.124 604.648C706.124 603.73 705.716 603.152 704.9 603.152C704.22 603.152 703.472 603.56 703.472 604.58C703.472 605.362 703.948 606.416 704.56 607.3H705.75C707.314 607.3 708.572 607.13 709.626 606.824C709.83 607.64 709.932 608.354 709.932 609C709.932 611.21 708.708 612.434 706.668 612.434H705.002V620.526C705.002 622.464 705.274 624.334 705.988 626H698.746ZM719.086 626.544C713.51 626.544 710.416 622.158 710.416 616.616C710.416 611.414 713.102 606.756 718.78 606.756C723.71 606.756 726.09 610.224 726.294 615.392L716.536 618.69C717.284 620.662 718.916 621.342 720.888 621.342C722.792 621.342 724.526 620.696 725.852 619.506C726.328 622.668 724.356 626.544 719.086 626.544ZM716.162 615.29L721.126 613.59C720.956 612.604 720.242 611.584 718.882 611.584C717.148 611.584 716.298 613.216 716.162 615.29ZM728.322 626C728.798 624.334 728.968 622.464 728.968 620.526V613.25C728.968 611.312 728.696 609.476 727.948 607.912L734.034 606.824V609.714C734.986 607.776 736.482 606.756 738.42 606.756C740.698 606.756 742.704 608.218 742.704 611.108C742.704 613.93 740.834 615.324 738.08 615.324C738.692 612.978 737.876 611.924 736.652 611.924C734.85 611.924 734.578 614.134 734.578 617.602V620.526C734.578 622.464 734.85 624.334 735.564 626H728.322ZM744.16 626C744.636 624.334 744.806 622.464 744.806 620.526V613.25C744.806 611.312 744.534 609.476 743.786 607.912L750.416 606.756V620.526C750.416 622.464 750.586 624.334 751.062 626H744.16ZM747.424 604.512C744.942 604.512 743.922 602.88 743.922 601.384C743.922 599.888 744.942 598.256 747.424 598.256C749.906 598.256 750.926 599.888 750.926 601.384C750.926 602.88 749.906 604.512 747.424 604.512ZM761.685 626.544C756.109 626.544 753.015 622.158 753.015 616.616C753.015 611.414 755.701 606.756 761.379 606.756C766.309 606.756 768.689 610.224 768.893 615.392L759.135 618.69C759.883 620.662 761.515 621.342 763.487 621.342C765.391 621.342 767.125 620.696 768.451 619.506C768.927 622.668 766.955 626.544 761.685 626.544ZM758.761 615.29L763.725 613.59C763.555 612.604 762.841 611.584 761.481 611.584C759.747 611.584 758.897 613.216 758.761 615.29ZM770.921 626C771.397 624.334 771.567 622.464 771.567 620.526V613.25C771.567 611.312 771.295 609.476 770.547 607.912L776.633 606.824V609.442C777.585 607.64 779.115 606.756 781.393 606.756C783.977 606.756 785.439 607.946 786.221 609.816C787.139 607.81 788.703 606.756 791.151 606.756C795.469 606.756 796.693 610.156 796.693 614.168V620.526C796.693 622.464 796.863 624.334 797.339 626H790.437C790.913 624.334 791.083 622.464 791.083 620.526V614.678C791.083 612.978 790.539 611.924 789.247 611.924C787.377 611.924 786.935 614.134 786.935 616.922V620.526C786.935 622.464 787.105 624.334 787.581 626H780.679C781.155 624.334 781.325 622.464 781.325 620.526V614.678C781.325 612.978 780.781 611.924 779.489 611.924C777.619 611.924 777.177 614.134 777.177 616.922V620.526C777.177 622.464 777.347 624.334 777.823 626H770.921ZM805.458 626.544C801.718 626.544 799.202 624.232 799.202 620.73C799.202 617.16 801.82 615.358 805.764 615.358C807.498 615.358 808.892 615.732 809.878 616.378V614.202C809.878 612.468 808.824 611.686 807.396 611.686C806.104 611.686 804.982 612.332 804.982 613.624C804.982 613.93 805.05 614.304 805.152 614.61C802.874 615.086 800.222 613.998 800.222 611.346C800.222 608.286 803.724 606.756 807.43 606.756C812.19 606.756 815.488 609.34 815.488 613.386V620.322C815.488 622.43 816.032 624.164 817.222 625.422C816.236 626.068 815.08 626.544 813.822 626.544C812.428 626.544 811.17 626 810.558 624.334C809.47 625.694 807.736 626.544 805.458 626.544ZM807.43 622.226C808.96 622.226 810.082 621.546 810.082 620.424C810.082 619.302 808.96 618.656 807.43 618.656C805.9 618.656 804.812 619.302 804.812 620.424C804.812 621.546 805.9 622.226 807.43 622.226ZM807.43 605.226C805.084 605.226 803.316 603.56 803.316 601.282C803.316 599.004 805.084 597.338 807.43 597.338C809.776 597.338 811.544 599.004 811.544 601.282C811.544 603.56 809.776 605.226 807.43 605.226ZM807.43 603.254C808.654 603.254 809.504 602.438 809.504 601.282C809.504 600.126 808.654 599.31 807.43 599.31C806.206 599.31 805.356 600.126 805.356 601.282C805.356 602.438 806.206 603.254 807.43 603.254ZM818.499 626C818.975 624.334 819.145 622.464 819.145 620.526V604.818C819.145 602.88 818.873 601.044 818.125 599.48L824.755 598.256V620.526C824.755 622.464 824.925 624.334 825.401 626H818.499ZM831.506 626.544C829.364 626.544 827.766 624.878 827.766 622.804C827.766 620.73 829.364 619.064 831.506 619.064C833.648 619.064 835.246 620.73 835.246 622.804C835.246 624.878 833.648 626.544 831.506 626.544ZM839.286 612.23C837.28 612.774 834.832 612.128 834.832 609.68C834.832 607.946 836.056 606.824 837.314 605.702C835.274 605.668 833.676 604.002 833.676 601.962C833.676 599.888 835.274 598.222 837.416 598.222C839.626 598.222 841.292 599.99 841.292 602.37C841.292 605.396 838.674 607.504 838.674 610.122C838.674 610.802 838.844 611.482 839.286 612.23ZM848.568 612.23C846.562 612.774 844.114 612.128 844.114 609.68C844.114 607.946 845.338 606.824 846.596 605.702C844.556 605.668 842.958 604.002 842.958 601.962C842.958 599.888 844.556 598.222 846.698 598.222C848.908 598.222 850.574 599.99 850.574 602.37C850.574 605.396 847.956 607.504 847.956 610.122C847.956 610.802 848.126 611.482 848.568 612.23Z" fill="#5F141E"/>
</svg>
