<svg width="1080" height="1080" viewBox="0 0 1080 1080" fill="none" xmlns="http://www.w3.org/2000/svg">
<rect width="1080" height="1080" fill="#F41116"/>
<path fill-rule="evenodd" clip-rule="evenodd" d="M366.866 84.413C370.059 78.5269 372.691 71.8 373.755 66.0829C376.108 66.4193 378.629 66.5874 381.373 66.5874C384.51 66.5874 386.919 66.3635 389.047 66.0271C389.999 70.623 387.814 75.3317 382.045 75.3317C381.597 75.3317 381.149 75.2754 380.701 75.2193C379.525 78.246 378.18 80.9373 376.669 83.3474C383.558 85.2529 388.879 90.5225 388.879 99.2665C388.879 108.067 383.614 113 377.844 113C374.54 113 372.075 111.374 370.955 108.964C374.932 108.403 379.469 105.601 379.469 100.107C379.469 94.278 374.316 90.2983 366.866 89.9619V102.406C366.866 105.601 367.146 108.684 367.931 111.43H356.56C357.344 108.684 357.624 105.601 357.624 102.406V76.229C357.624 73.0342 357.232 70.0071 356 67.4283L366.866 65.6907V84.413ZM417.953 79.7041C425.571 79.7042 431.004 83.7965 431.004 90.5787V102.125C431.004 105.601 431.956 108.516 433.86 110.533C432.348 111.542 430.499 112.327 428.539 112.327C426.299 112.327 424.283 111.374 423.33 108.572C421.538 110.87 418.625 112.327 414.873 112.327C408.823 112.327 404.567 108.572 404.567 102.742C404.567 96.8002 408.991 93.7733 415.377 93.7733C418.289 93.7733 420.698 94.3905 422.378 95.6232V91.8111C422.378 88.7283 420.473 87.3277 417.897 87.3277C415.545 87.3277 413.64 88.5603 413.64 90.8028C413.64 91.3633 413.752 91.9793 413.92 92.4837C410.391 93.2126 406.19 91.4752 406.19 87.2711C406.19 82.3384 411.848 79.7041 417.953 79.7041ZM446.41 79.7041C450.219 79.7042 454.196 80.6015 456.716 82.563V91.5312C454.028 88.7843 449.771 87.1031 446.354 87.103C444.282 87.103 443.161 87.7198 443.161 88.8963C443.161 89.9615 444.057 90.354 446.13 90.8586L449.322 91.6436C453.972 92.8203 458.621 95.2315 458.621 101.509C458.621 108.235 453.299 112.327 446.074 112.327C439.632 112.327 434.199 109.02 434.199 104.087C434.199 99.771 438.512 98.2021 442.096 98.9301C441.872 99.4907 441.76 100.276 441.76 100.892C441.76 103.471 443.722 104.928 446.074 104.928C448.315 104.928 449.938 103.639 449.938 101.733C449.938 99.6589 448.09 98.6502 445.514 98.0335L442.209 97.2484C438.288 96.3513 434.647 93.8294 434.647 88.8405C434.647 83.7401 438.456 79.7041 446.41 79.7041ZM472.401 79.7041C476.21 79.7042 480.186 80.6015 482.707 82.563V91.5312C480.019 88.7843 475.762 87.1031 472.345 87.103C470.273 87.103 469.152 87.7198 469.152 88.8963C469.152 89.9615 470.049 90.354 472.121 90.8586L475.314 91.6436C479.963 92.8203 484.612 95.2315 484.612 101.509C484.612 108.235 479.291 112.327 472.065 112.327C465.624 112.327 460.191 109.02 460.191 104.087C460.191 99.771 464.503 98.2021 468.087 98.9301C467.864 99.4907 467.752 100.276 467.752 100.892C467.752 103.471 469.713 104.928 472.065 104.928C474.306 104.928 475.929 103.639 475.929 101.733C475.929 99.6589 474.081 98.6502 471.504 98.0335L468.2 97.2484C464.279 96.3513 460.639 93.8294 460.639 88.8405C460.639 83.7401 464.448 79.7041 472.401 79.7041ZM500.186 79.7041C508.083 79.7042 512.06 85.3651 512.396 93.661L495.984 99.3223C497.161 102.91 500.073 104.312 503.49 104.312C506.738 104.312 509.595 103.134 511.724 101.116C512.395 106.217 509.091 112.327 500.745 112.327C491.728 112.327 486.519 105.209 486.519 95.9596C486.519 87.2717 491.111 79.7041 500.186 79.7041ZM542.254 79.7041C552.391 79.7041 556.536 86.9351 556.536 96.0154C556.536 105.096 552.391 112.327 542.254 112.327C532.059 112.327 527.971 105.096 527.971 96.0154C527.971 86.9351 532.059 79.7041 542.254 79.7041ZM583.858 71.3521C585.145 71.3521 586.322 71.6323 587.498 72.0248C586.993 74.7712 586.826 77.6302 586.826 80.6015C588.954 80.6015 591.139 80.3208 593.043 79.7041C593.379 80.9929 593.491 82.0582 593.491 82.9552C593.491 86.7669 591.698 88.5041 588.393 88.5041H586.826V102.125C586.826 105.657 587.777 108.516 589.682 110.533C588.057 111.598 586.098 112.327 584.192 112.327C581.112 112.327 578.199 110.421 578.199 104.255V88.5041H570.862V102.125C570.862 105.657 571.815 108.516 573.719 110.533C572.095 111.598 570.134 112.327 568.174 112.327C565.149 112.327 562.236 110.421 562.236 104.255V88.5041C561.228 88.5042 559.379 88.6163 558.259 89.0087C557.811 87.6639 557.643 86.4866 557.643 85.3655C557.643 82.1706 559.492 80.6016 562.46 80.6015C562.46 78.8075 561.956 77.2938 561.956 76.0044C561.956 73.4263 564.309 71.3521 567.893 71.3521C569.182 71.3521 570.358 71.6323 571.534 72.0248C571.03 74.7712 570.862 77.6302 570.862 80.6015H578.423C578.423 78.8075 577.919 77.2938 577.919 76.0044C577.919 73.4263 580.273 71.3521 583.858 71.3521ZM607.457 79.7041C615.354 79.7041 619.331 85.3651 619.667 93.661L603.257 99.3223C604.433 102.91 607.345 104.312 610.762 104.312C614.01 104.312 616.867 103.134 618.996 101.116C619.667 106.217 616.363 112.327 608.018 112.327C598.999 112.327 593.791 105.209 593.791 95.9596C593.791 87.2718 598.383 79.7042 607.457 79.7041ZM673.893 79.7041C681.791 79.7042 685.768 85.3651 686.104 93.661L669.692 99.3223C670.869 102.91 673.781 104.312 677.197 104.312C680.446 104.312 683.303 103.134 685.431 101.116C686.103 106.217 682.799 112.327 674.453 112.327C665.435 112.327 660.226 105.209 660.226 95.9596C660.226 87.2717 664.819 79.7041 673.893 79.7041ZM697.46 71.3521C698.748 71.3521 699.925 71.6323 701.101 72.0248C700.597 74.7712 700.428 77.6302 700.428 80.6015C702.557 80.6015 704.741 80.3208 706.646 79.7041C706.982 80.9929 707.093 82.0582 707.093 82.9552C707.093 86.7669 705.302 88.5041 701.997 88.5041H700.428V102.125C700.428 105.657 701.381 108.516 703.284 110.533C701.661 111.598 699.7 112.327 697.74 112.327C694.715 112.327 691.803 110.421 691.803 104.255V88.5041C690.795 88.5041 688.945 88.6162 687.826 89.0087C687.378 87.6639 687.21 86.4866 687.21 85.3655C687.21 82.1705 689.058 80.6015 692.027 80.6015C692.027 78.8075 691.523 77.2938 691.523 76.0044C691.523 73.4263 693.875 71.3522 697.46 71.3521ZM656.976 102.406C656.976 105.545 657.256 108.74 657.984 111.431H647.286C648.014 108.74 648.294 105.545 648.294 102.406V90.3548C648.294 87.1598 647.846 84.0769 646.67 81.554L656.976 79.7041V102.406ZM401.765 102.406C401.765 105.545 402.045 108.74 402.773 111.43H392.13C392.859 108.74 393.139 105.545 393.139 102.406V73.9304C393.139 70.7355 392.691 68.045 391.515 65.6349C394.931 65.0182 398.684 64.0652 401.765 63V102.406ZM524.721 102.406C524.721 105.545 525.001 108.74 525.728 111.43H515.086C515.815 108.74 516.094 105.545 516.094 102.406V73.9304C516.094 70.7355 515.646 68.045 514.47 65.6349C517.887 65.0182 521.64 64.0652 524.721 63V102.406ZM638.602 79.7041C642.355 79.7042 645.547 82.1143 645.547 86.7108C645.547 91.1952 642.579 93.3247 638.322 93.3247C639.33 89.5131 637.986 87.664 635.914 87.664C632.833 87.6642 632.217 91.4197 632.217 97.1368V102.406C632.217 105.545 632.61 108.74 633.729 111.43H622.526C623.254 108.74 623.535 105.545 623.535 102.406V90.3541C623.535 87.1592 623.087 84.0762 621.911 81.5533L631.432 79.8165V84.5245C633.001 81.3857 635.41 79.7041 638.602 79.7041ZM417.897 98.986C415.153 98.986 413.248 100.219 413.248 102.294C413.248 104.311 415.153 105.601 417.897 105.601C420.641 105.601 422.658 104.311 422.658 102.294C422.658 100.219 420.641 98.986 417.897 98.986ZM542.254 87.7199C538.837 87.7199 536.931 90.8588 536.931 96.0154C536.931 101.172 538.837 104.312 542.254 104.312C545.67 104.312 547.63 101.172 547.63 96.0154C547.63 90.8588 545.67 87.7199 542.254 87.7199ZM500.353 87.1595C497.273 87.1595 495.704 90.018 495.424 93.8856L504.386 90.8028C504.05 88.8967 502.762 87.1596 500.353 87.1595ZM607.625 87.1595C604.544 87.1596 602.976 90.0181 602.696 93.8856L611.658 90.8028C611.322 88.8966 610.034 87.1595 607.625 87.1595ZM674.061 87.1595C670.981 87.1595 669.412 90.018 669.132 93.8856L678.094 90.8028C677.758 88.8967 676.469 87.1596 674.061 87.1595ZM718.806 65.7473C722.382 65.7473 724.999 68.406 725 71.894C725 75.3819 722.382 78.0938 718.806 78.0938C715.188 78.0938 712.571 75.3556 712.571 71.894C712.571 68.4324 715.226 65.7473 718.806 65.7473ZM718.806 66.9323C715.953 66.9323 713.928 68.9983 713.928 71.894C713.928 74.8291 716.006 76.9088 718.806 76.9088C721.607 76.9088 723.658 74.8028 723.658 71.894C723.658 68.9853 721.66 66.9323 718.806 66.9323ZM652.327 65.7473C656.192 65.7474 657.816 68.2696 657.816 70.6235C657.816 73.0342 656.192 75.5563 652.327 75.5563C648.463 75.5563 646.837 73.0343 646.837 70.6235C646.837 68.2695 648.462 65.7473 652.327 65.7473ZM719.455 68.6472C720.657 68.6473 721.448 69.3888 721.448 70.3989C721.447 71.2425 720.913 71.8181 720.03 72.0099C720.772 72.1761 721.102 72.7256 721.296 73.5694L721.615 74.9373H720.224L720.03 73.7616C719.888 72.8283 719.773 72.6105 718.743 72.6105H717.754V74.9373H716.468V68.6472H719.455ZM717.754 69.6958V71.5619H718.817C719.685 71.5619 720.161 71.2168 720.161 70.5777C720.161 69.9385 719.658 69.6958 718.817 69.6958H717.754Z" fill="#FFF0D3"/>
<path d="M58.9 308C60.3 303.1 60.8 297.6 60.8 291.9V244.1C60.8 238.4 60.3 232.9 58.9 228H80.3C78.9 232.9 78.4 238.4 78.4 244.1V260.2C85.7 251.1 92.6 239.2 94.3 228H114.3C110.6 239.6 105.6 248.3 96.2 258.7C106.8 260.9 111.4 270.1 112.4 281.1L113.5 292.7C114.1 299.2 116.1 303.8 119.6 308H98.8C96.7 303.4 96 299.3 95.7 295.1L94.9 281.8C94.5 275.5 91.6 272.4 86.8 272.4C82 272.4 78.4 275.5 78.4 281.9V291.9C78.4 297.6 79.1 303.1 80.9 308H58.9ZM133.156 308L121.456 268.7C119.856 263.2 117.856 257.9 115.456 253H137.256C136.156 256.9 136.556 261.2 137.656 265.6L143.756 288.5L150.356 265.6C151.556 261.2 152.056 256.9 150.956 253H171.656C169.256 257.9 167.256 263.2 165.456 268.6L152.756 308H133.156ZM175.592 308C176.992 303.1 177.492 297.6 177.492 291.9V270.5C177.492 264.8 176.692 259.4 174.492 254.8L193.992 251.4V291.9C193.992 297.6 194.492 303.1 195.892 308H175.592ZM185.192 244.8C177.892 244.8 174.892 240 174.892 235.6C174.892 231.2 177.892 226.4 185.192 226.4C192.492 226.4 195.492 231.2 195.492 235.6C195.492 240 192.492 244.8 185.192 244.8ZM202.838 308C204.238 303.1 204.738 297.6 204.738 291.9V270.5C204.738 264.8 203.938 259.4 201.738 254.8L219.638 251.6V259.6C222.438 254.2 227.138 251.4 233.938 251.4C246.638 251.4 250.738 261.4 250.738 273.2V291.9C250.738 297.6 251.238 303.1 252.638 308H232.338C233.738 303.1 234.238 297.6 234.238 291.9V274.7C234.238 269.7 232.638 266.6 228.838 266.6C223.338 266.6 221.238 273.1 221.238 281.3V291.9C221.238 297.6 221.738 303.1 223.138 308H202.838ZM279.284 309.6C265.284 309.6 258.084 296.5 258.084 280.5C258.084 264.5 265.284 251.4 279.284 251.4C284.484 251.4 288.884 253.1 292.084 256.9V245.7C292.084 240 291.284 234.6 289.084 230L308.584 226.4V291.3C308.584 297.5 310.184 302.6 313.684 306.3C310.784 308.2 307.384 309.6 303.684 309.6C299.284 309.6 295.184 307.5 293.684 301.9C290.484 307.1 285.384 309.6 279.284 309.6ZM283.784 294.3C289.284 294.3 292.284 289 292.284 280.5C292.284 272 289.284 266.7 283.784 266.7C278.184 266.7 275.084 272 275.084 280.5C275.084 289 278.184 294.3 283.784 294.3ZM342.275 309.6C325.875 309.6 316.775 296.7 316.775 280.4C316.775 265.1 324.675 251.4 341.375 251.4C355.875 251.4 362.875 261.6 363.475 276.8L334.775 286.5C336.975 292.3 341.775 294.3 347.575 294.3C353.175 294.3 358.275 292.4 362.175 288.9C363.575 298.2 357.775 309.6 342.275 309.6ZM333.675 276.5L348.275 271.5C347.775 268.6 345.675 265.6 341.675 265.6C336.575 265.6 334.075 270.4 333.675 276.5ZM394.659 308C396.059 303.1 396.559 297.6 396.559 291.9V267.9C393.559 268 390.659 268.3 388.259 269C387.159 266.3 386.459 263.8 386.459 261.4C386.459 257.1 388.659 253.8 394.759 253.1C392.459 248.6 391.459 245.3 391.459 242C391.459 232 400.659 226.4 412.159 226.4C421.059 226.4 429.459 229.9 429.459 237.6C429.459 245.2 421.259 246.5 416.259 246.6C416.359 246 416.359 245.6 416.359 245.2C416.359 242.5 415.159 240.8 412.759 240.8C410.759 240.8 408.559 242 408.559 245C408.559 247.3 409.959 250.4 411.759 253H415.259C419.859 253 423.559 252.5 426.659 251.6C427.259 254 427.559 256.1 427.559 258C427.559 264.5 423.959 268.1 417.959 268.1H413.059V291.9C413.059 297.6 413.859 303.1 415.959 308H394.659ZM432.428 308C433.828 303.1 434.328 297.6 434.328 291.9V270.5C434.328 264.8 433.528 259.4 431.328 254.8L449.228 251.6V260.1C452.028 254.4 456.428 251.4 462.128 251.4C468.828 251.4 474.728 255.7 474.728 264.2C474.728 272.5 469.228 276.6 461.128 276.6C462.928 269.7 460.528 266.6 456.928 266.6C451.628 266.6 450.828 273.1 450.828 283.3V291.9C450.828 297.6 451.628 303.1 453.728 308H432.428ZM494.357 309.6C483.357 309.6 475.957 302.8 475.957 292.5C475.957 282 483.657 276.7 495.257 276.7C500.357 276.7 504.457 277.8 507.357 279.7V273.3C507.357 268.2 504.257 265.9 500.057 265.9C496.257 265.9 492.957 267.8 492.957 271.6C492.957 272.5 493.157 273.6 493.457 274.5C486.757 275.9 478.957 272.7 478.957 264.9C478.957 255.9 489.257 251.4 500.157 251.4C514.157 251.4 523.857 259 523.857 270.9V291.3C523.857 297.5 525.457 302.6 528.957 306.3C526.057 308.2 522.657 309.6 518.957 309.6C514.857 309.6 511.157 308 509.357 303.1C506.157 307.1 501.057 309.6 494.357 309.6ZM500.157 296.9C504.657 296.9 507.957 294.9 507.957 291.6C507.957 288.3 504.657 286.4 500.157 286.4C495.657 286.4 492.457 288.3 492.457 291.6C492.457 294.9 495.657 296.9 500.157 296.9ZM58.9 420C60.3 415.1 60.8 409.6 60.8 403.9V356.1C60.8 350.4 60.3 344.9 58.9 340H89.7C88.7 343.4 89.2 347.1 90.4 350.9L100 380.9L109.6 351C110.8 347.2 111.3 343.4 110.3 340H141.3C139.9 344.9 139.4 350.4 139.4 356.1V403.9C139.4 409.6 139.9 415.1 141.3 420H119.9C121.3 415.1 121.8 409.6 121.8 403.9V364.7L104.1 420H94.6L76.9 364.7V403.9C76.9 409.6 77.4 415.1 78.8 420H58.9ZM148.834 420C150.234 415.1 150.734 409.6 150.734 403.9V382.5C150.734 376.8 149.934 371.4 147.734 366.8L167.234 363.4V403.9C167.234 409.6 167.734 415.1 169.134 420H148.834ZM158.434 356.8C151.134 356.8 148.134 352 148.134 347.6C148.134 343.2 151.134 338.4 158.434 338.4C165.734 338.4 168.734 343.2 168.734 347.6C168.734 352 165.734 356.8 158.434 356.8ZM196.08 421.6C182.08 421.6 174.88 408.5 174.88 392.5C174.88 376.5 182.08 363.4 196.08 363.4C201.28 363.4 205.68 365.1 208.88 368.9V357.7C208.88 352 208.08 346.6 205.88 342L225.38 338.4V403.3C225.38 409.5 226.98 414.6 230.48 418.3C227.58 420.2 224.18 421.6 220.48 421.6C216.08 421.6 211.98 419.5 210.48 413.9C207.28 419.1 202.18 421.6 196.08 421.6ZM200.58 406.3C206.08 406.3 209.08 401 209.08 392.5C209.08 384 206.08 378.7 200.58 378.7C194.98 378.7 191.88 384 191.88 392.5C191.88 401 194.98 406.3 200.58 406.3ZM250.195 421.6C244.595 421.6 238.995 418.4 238.995 407.3V380.1C237.295 380.1 233.895 380.3 231.995 381C231.195 378.5 230.795 376.2 230.795 374.1C230.795 368.1 234.095 365 239.395 365C239.395 361.8 238.495 359.3 238.495 357.1C238.495 352.3 242.995 348.5 249.795 348.5C252.295 348.5 254.595 349 256.695 349.7C255.795 354.5 255.495 359.5 255.495 365C259.295 365 263.295 364.5 266.595 363.4C267.195 365.8 267.395 367.9 267.395 369.6C267.395 376.8 263.995 380.1 257.895 380.1H255.495V403.3C255.495 409.5 257.095 414.6 260.595 418.3C257.495 420.3 253.795 421.6 250.195 421.6ZM279.686 441.6C276.086 441.6 272.286 440.3 268.786 438.3C271.986 435 273.886 431.5 273.886 423.3V382.3C273.886 376.6 273.486 371.4 270.786 366.8L290.386 363.4V429.3C290.386 438.4 285.286 441.6 279.686 441.6ZM282.086 356.8C274.786 356.8 271.786 352 271.786 347.6C271.786 343.2 274.786 338.4 282.086 338.4C289.386 338.4 292.386 343.2 292.386 347.6C292.386 352 289.386 356.8 282.086 356.8ZM307.513 440C310.613 435.1 313.113 429.8 315.113 424.5L316.713 420.2L302.813 380.6C301.013 375.2 298.813 369.9 296.413 365H318.713C317.613 368.9 318.113 373.2 319.413 377.6L325.413 398.2L332.213 377.5C333.613 373.2 334.213 368.9 333.113 365H353.813C351.413 369.9 349.313 375.2 347.413 380.5L330.713 427.6C329.213 431.9 328.513 436.1 329.713 440H307.513ZM355.956 420C357.356 415.1 357.856 409.6 357.856 403.9V357.7C357.856 352 357.056 346.6 354.856 342L374.356 338.4V403.9C374.356 409.6 374.856 415.1 376.256 420H355.956ZM382.812 420C384.212 415.1 384.712 409.6 384.712 403.9V357.7C384.712 352 383.912 346.6 381.712 342L401.212 338.4V403.9C401.212 409.6 401.712 415.1 403.112 420H382.812ZM427.267 421.6C416.267 421.6 408.867 414.8 408.867 404.5C408.867 394 416.567 388.7 428.167 388.7C433.267 388.7 437.367 389.8 440.267 391.7V385.3C440.267 380.2 437.167 377.9 432.967 377.9C429.167 377.9 425.867 379.8 425.867 383.6C425.867 384.5 426.067 385.6 426.367 386.5C419.667 387.9 411.867 384.7 411.867 376.9C411.867 367.9 422.167 363.4 433.067 363.4C447.067 363.4 456.767 371 456.767 382.9V403.3C456.767 409.5 458.367 414.6 461.867 418.3C458.967 420.2 455.567 421.6 451.867 421.6C447.767 421.6 444.067 420 442.267 415.1C439.067 419.1 433.967 421.6 427.267 421.6ZM433.067 408.9C437.567 408.9 440.867 406.9 440.867 403.6C440.867 400.3 437.567 398.4 433.067 398.4C428.567 398.4 425.367 400.3 425.367 403.6C425.367 406.9 428.567 408.9 433.067 408.9ZM465.924 420C467.324 415.1 467.824 409.6 467.824 403.9V382.5C467.824 376.8 467.024 371.4 464.824 366.8L482.724 363.6V371.6C485.524 366.2 490.224 363.4 497.024 363.4C509.724 363.4 513.824 373.4 513.824 385.2V403.9C513.824 409.6 514.324 415.1 515.724 420H495.424C496.824 415.1 497.324 409.6 497.324 403.9V386.7C497.324 381.7 495.724 378.6 491.924 378.6C486.424 378.6 484.324 385.1 484.324 393.3V403.9C484.324 409.6 484.824 415.1 486.224 420H465.924ZM542.37 421.6C528.37 421.6 521.17 408.5 521.17 392.5C521.17 376.5 528.37 363.4 542.37 363.4C547.57 363.4 551.97 365.1 555.17 368.9V357.7C555.17 352 554.37 346.6 552.17 342L571.67 338.4V403.3C571.67 409.5 573.27 414.6 576.77 418.3C573.87 420.2 570.47 421.6 566.77 421.6C562.37 421.6 558.27 419.5 556.77 413.9C553.57 419.1 548.47 421.6 542.37 421.6ZM546.87 406.3C552.37 406.3 555.37 401 555.37 392.5C555.37 384 552.37 378.7 546.87 378.7C541.27 378.7 538.17 384 538.17 392.5C538.17 401 541.27 406.3 546.87 406.3ZM615.48 420L603.78 380.7C602.18 375.2 600.18 369.9 597.78 365H619.58C618.48 368.9 618.88 373.2 619.98 377.6L626.08 400.5L632.68 377.6C633.88 373.2 634.38 368.9 633.28 365H653.98C651.58 369.9 649.58 375.2 647.78 380.6L635.08 420H615.48ZM657.916 420C659.316 415.1 659.816 409.6 659.816 403.9V382.5C659.816 376.8 659.016 371.4 656.816 366.8L676.316 363.4V403.9C676.316 409.6 676.816 415.1 678.216 420H657.916ZM667.516 356.8C660.216 356.8 657.216 352 657.216 347.6C657.216 343.2 660.216 338.4 667.516 338.4C674.816 338.4 677.816 343.2 677.816 347.6C677.816 352 674.816 356.8 667.516 356.8ZM685.163 420C686.563 415.1 687.063 409.6 687.063 403.9V382.5C687.063 376.8 686.263 371.4 684.063 366.8L701.963 363.6V371.6C704.763 366.2 709.463 363.4 716.263 363.4C728.963 363.4 733.063 373.4 733.063 385.2V403.9C733.063 409.6 733.563 415.1 734.963 420H714.663C716.063 415.1 716.563 409.6 716.563 403.9V386.7C716.563 381.7 714.963 378.6 711.163 378.6C705.663 378.6 703.563 385.1 703.563 393.3V403.9C703.563 409.6 704.063 415.1 705.463 420H685.163ZM761.608 421.6C747.608 421.6 740.408 408.5 740.408 392.5C740.408 376.5 747.608 363.4 761.608 363.4C766.808 363.4 771.208 365.1 774.408 368.9V357.7C774.408 352 773.608 346.6 771.408 342L790.908 338.4V403.3C790.908 409.5 792.508 414.6 796.008 418.3C793.108 420.2 789.708 421.6 786.008 421.6C781.608 421.6 777.508 419.5 776.008 413.9C772.808 419.1 767.708 421.6 761.608 421.6ZM766.108 406.3C771.608 406.3 774.608 401 774.608 392.5C774.608 384 771.608 378.7 766.108 378.7C760.508 378.7 757.408 384 757.408 392.5C757.408 401 760.508 406.3 766.108 406.3ZM824.599 421.6C808.199 421.6 799.099 408.7 799.099 392.4C799.099 377.1 806.999 363.4 823.699 363.4C838.199 363.4 845.199 373.6 845.799 388.8L817.099 398.5C819.299 404.3 824.099 406.3 829.899 406.3C835.499 406.3 840.599 404.4 844.499 400.9C845.899 410.2 840.099 421.6 824.599 421.6ZM815.999 388.5L830.599 383.5C830.099 380.6 827.999 377.6 823.999 377.6C818.899 377.6 816.399 382.4 815.999 388.5ZM851.764 420C853.164 415.1 853.664 409.6 853.664 403.9V382.5C853.664 376.8 852.864 371.4 850.664 366.8L868.564 363.6V372.1C871.364 366.4 875.764 363.4 881.464 363.4C888.164 363.4 894.064 367.7 894.064 376.2C894.064 384.5 888.564 388.6 880.464 388.6C882.264 381.7 879.864 378.6 876.264 378.6C870.964 378.6 870.164 385.1 870.164 395.3V403.9C870.164 409.6 870.964 415.1 873.064 420H851.764ZM58.9 532C60.9 527.1 61.6 521.6 61.6 515.9V475.5C61.6 469.8 60.5 464.7 57.1 460.8L79.1 450.4V515.9C79.1 521.6 79.8 527.1 81.8 532H58.9ZM100.364 533.6C94.0641 533.6 89.3641 528.7 89.3641 522.6C89.3641 516.5 94.0641 511.6 100.364 511.6C106.664 511.6 111.364 516.5 111.364 522.6C111.364 528.7 106.664 533.6 100.364 533.6ZM143.894 533.6C125.494 533.6 116.894 518.6 116.894 492C116.894 465.4 125.494 450.4 143.894 450.4C162.294 450.4 170.894 465.4 170.894 492C170.894 518.6 162.294 533.6 143.894 533.6ZM143.894 517.2C149.894 517.2 152.894 508.9 152.894 492C152.894 475.1 149.894 466.8 143.894 466.8C137.894 466.8 134.894 475.1 134.894 492C134.894 508.9 137.894 517.2 143.894 517.2ZM204.538 533.6C186.138 533.6 177.538 518.6 177.538 492C177.538 465.4 186.138 450.4 204.538 450.4C222.938 450.4 231.538 465.4 231.538 492C231.538 518.6 222.938 533.6 204.538 533.6ZM204.538 517.2C210.538 517.2 213.538 508.9 213.538 492C213.538 475.1 210.538 466.8 204.538 466.8C198.538 466.8 195.538 475.1 195.538 492C195.538 508.9 198.538 517.2 204.538 517.2ZM260.306 533.6C245.006 533.6 236.506 523.7 236.506 513.6C236.506 504.4 243.506 500 250.506 500C252.006 500 253.306 500.2 254.506 500.5C253.806 501.9 253.106 504.3 253.106 507.4C253.106 513.4 255.506 517.6 260.406 517.6C265.006 517.6 268.206 513.8 268.206 505.7C268.206 496.8 264.406 490.6 252.706 490.6C251.206 490.6 249.406 490.7 247.606 491L259.806 468H251.606C247.006 468 242.606 468.6 238.706 470.5V452H287.006L272.006 480.9C280.606 485 286.006 493.5 286.006 506C286.006 523.3 275.706 533.6 260.306 533.6ZM303.489 533.6C297.189 533.6 292.489 528.7 292.489 522.6C292.489 516.5 297.189 511.6 303.489 511.6C309.789 511.6 314.489 516.5 314.489 522.6C314.489 528.7 309.789 533.6 303.489 533.6ZM347.019 533.6C328.619 533.6 320.019 518.6 320.019 492C320.019 465.4 328.619 450.4 347.019 450.4C365.419 450.4 374.019 465.4 374.019 492C374.019 518.6 365.419 533.6 347.019 533.6ZM347.019 517.2C353.019 517.2 356.019 508.9 356.019 492C356.019 475.1 353.019 466.8 347.019 466.8C341.019 466.8 338.019 475.1 338.019 492C338.019 508.9 341.019 517.2 347.019 517.2ZM402.787 533.6C387.487 533.6 378.987 523.7 378.987 513.6C378.987 504.4 385.987 500 392.987 500C394.487 500 395.787 500.2 396.987 500.5C396.287 501.9 395.587 504.3 395.587 507.4C395.587 513.4 397.987 517.6 402.887 517.6C407.487 517.6 410.687 513.8 410.687 505.7C410.687 496.8 406.887 490.6 395.187 490.6C393.687 490.6 391.887 490.7 390.087 491L402.287 468H394.087C389.487 468 385.087 468.6 381.187 470.5V452H429.487L414.487 480.9C423.087 485 428.487 493.5 428.487 506C428.487 523.3 418.187 533.6 402.787 533.6ZM462.546 533.6C444.146 533.6 435.546 518.6 435.546 492C435.546 465.4 444.146 450.4 462.546 450.4C480.946 450.4 489.546 465.4 489.546 492C489.546 518.6 480.946 533.6 462.546 533.6ZM462.546 517.2C468.546 517.2 471.546 508.9 471.546 492C471.546 475.1 468.546 466.8 462.546 466.8C456.546 466.8 453.546 475.1 453.546 492C453.546 508.9 456.546 517.2 462.546 517.2ZM516.21 532C517.61 527.1 518.11 521.6 518.11 515.9V469.7C518.11 464 517.31 458.6 515.11 454L534.61 450.4V479.8C538.81 476.6 543.71 475.4 548.61 475.4C560.81 475.4 566.71 483.7 566.71 493.7C566.71 501.1 563.61 506.4 557.11 509.4C560.01 517.2 564.11 524.6 569.61 532H550.11C546.71 526.1 544.21 519.8 542.91 513.6H534.61V515.9C534.61 521.6 535.11 527.1 536.51 532H516.21ZM534.61 502.9H541.81C546.71 502.9 549.71 500.2 549.71 496.1C549.71 492.6 547.51 489.8 543.41 489.8C538.71 489.8 534.61 493.5 534.61 501V502.9ZM575.104 532C576.504 527.1 577.004 521.6 577.004 515.9V494.5C577.004 488.8 576.204 483.4 574.004 478.8L591.904 475.6V484.1C594.704 478.4 599.104 475.4 604.804 475.4C611.504 475.4 617.404 479.7 617.404 488.2C617.404 496.5 611.904 500.6 603.804 500.6C605.604 493.7 603.204 490.6 599.604 490.6C594.304 490.6 593.504 497.1 593.504 507.3V515.9C593.504 521.6 594.304 527.1 596.404 532H575.104ZM622.825 533.6C616.525 533.6 611.825 528.7 611.825 522.6C611.825 516.5 616.525 511.6 622.825 511.6C629.125 511.6 633.825 516.5 633.825 522.6C633.825 528.7 629.125 533.6 622.825 533.6ZM58.6 644C60 639.1 60.5 633.6 60.5 627.9V606.5C60.5 600.8 59.7 595.4 57.5 590.8L77 587.4V627.9C77 633.6 77.5 639.1 78.9 644H58.6ZM68.2 580.8C60.9 580.8 57.9 576 57.9 571.6C57.9 567.2 60.9 562.4 68.2 562.4C75.5 562.4 78.5 567.2 78.5 571.6C78.5 576 75.5 580.8 68.2 580.8ZM106.166 644C107.566 639.1 108.066 633.6 108.066 627.9V580.1C108.066 574.4 107.566 568.9 106.166 564H127.566C126.166 568.9 125.666 574.4 125.666 580.1V596.2C132.966 587.1 139.866 575.2 141.566 564H161.566C157.866 575.6 152.866 584.3 143.466 594.7C154.066 596.9 158.666 606.1 159.666 617.1L160.766 628.7C161.366 635.2 163.366 639.8 166.866 644H146.066C143.966 639.4 143.266 635.3 142.966 631.1L142.166 617.8C141.766 611.5 138.866 608.4 134.066 608.4C129.266 608.4 125.666 611.5 125.666 617.9V627.9C125.666 633.6 126.366 639.1 128.166 644H106.166ZM171.679 644C173.079 639.1 173.579 633.6 173.579 627.9V581.7C173.579 576 172.779 570.6 170.579 566L190.079 562.4V627.9C190.079 633.6 190.579 639.1 191.979 644H171.679ZM216.134 645.6C205.134 645.6 197.734 638.8 197.734 628.5C197.734 618 205.434 612.7 217.034 612.7C222.134 612.7 226.234 613.8 229.134 615.7V609.3C229.134 604.2 226.034 601.9 221.834 601.9C218.034 601.9 214.734 603.8 214.734 607.6C214.734 608.5 214.934 609.6 215.234 610.5C208.534 611.9 200.734 608.7 200.734 600.9C200.734 591.9 211.034 587.4 221.934 587.4C235.934 587.4 245.634 595 245.634 606.9V627.3C245.634 633.5 247.234 638.6 250.734 642.3C247.834 644.2 244.434 645.6 240.734 645.6C236.634 645.6 232.934 644 231.134 639.1C227.934 643.1 222.834 645.6 216.134 645.6ZM221.934 632.9C226.434 632.9 229.734 630.9 229.734 627.6C229.734 624.3 226.434 622.4 221.934 622.4C217.434 622.4 214.234 624.3 214.234 627.6C214.234 630.9 217.434 632.9 221.934 632.9ZM274.891 645.6C263.491 645.6 253.591 640 253.591 631.1C253.591 623.2 261.591 620.3 268.391 621.7C267.991 622.7 267.791 624 267.791 625C267.791 629.1 270.991 631.6 274.891 631.6C278.491 631.6 281.091 629.5 281.091 626.5C281.091 623.1 277.891 621.4 273.591 620.4L267.791 619.1C260.591 617.5 254.291 613 254.291 604C254.291 594.9 260.791 587.4 275.591 587.4C282.291 587.4 289.491 588.9 293.991 592.3V609.1C289.191 604.3 281.491 601.5 275.491 601.5C272.191 601.5 270.491 602.3 270.491 604.1C270.491 605.8 271.991 606.4 275.491 607.2L280.891 608.5C288.991 610.5 297.591 614.7 297.591 626.1C297.591 637.9 288.091 645.6 274.891 645.6ZM323.72 645.6C312.32 645.6 302.42 640 302.42 631.1C302.42 623.2 310.42 620.3 317.22 621.7C316.82 622.7 316.62 624 316.62 625C316.62 629.1 319.82 631.6 323.72 631.6C327.32 631.6 329.92 629.5 329.92 626.5C329.92 623.1 326.72 621.4 322.42 620.4L316.62 619.1C309.42 617.5 303.12 613 303.12 604C303.12 594.9 309.62 587.4 324.42 587.4C331.12 587.4 338.32 588.9 342.82 592.3V609.1C338.02 604.3 330.32 601.5 324.32 601.5C321.02 601.5 319.32 602.3 319.32 604.1C319.32 605.8 320.82 606.4 324.32 607.2L329.72 608.5C337.82 610.5 346.42 614.7 346.42 626.1C346.42 637.9 336.92 645.6 323.72 645.6ZM376.748 645.6C360.348 645.6 351.248 632.7 351.248 616.4C351.248 601.1 359.148 587.4 375.848 587.4C390.348 587.4 397.348 597.6 397.948 612.8L369.248 622.5C371.448 628.3 376.248 630.3 382.048 630.3C387.648 630.3 392.748 628.4 396.648 624.9C398.048 634.2 392.248 645.6 376.748 645.6ZM368.148 612.5L382.748 607.5C382.248 604.6 380.148 601.6 376.148 601.6C371.048 601.6 368.548 606.4 368.148 612.5ZM403.612 644C405.013 639.1 405.513 633.6 405.513 627.9V581.7C405.513 576 404.713 570.6 402.513 566L422.013 562.4V627.9C422.013 633.6 422.513 639.1 423.913 644H403.612ZM455.368 645.6C436.768 645.6 429.568 632.5 429.568 616.5C429.568 600.5 436.768 587.4 455.368 587.4C473.968 587.4 481.168 600.5 481.168 616.5C481.168 632.5 473.968 645.6 455.368 645.6ZM455.368 630.3C461.068 630.3 464.168 625 464.168 616.5C464.168 608 461.068 602.7 455.368 602.7C449.668 602.7 446.568 608 446.568 616.5C446.568 625 449.668 630.3 455.368 630.3ZM503.613 645.6C498.013 645.6 492.413 642.4 492.413 631.3V604.1C490.713 604.1 487.313 604.3 485.413 605C484.613 602.5 484.213 600.2 484.213 598.1C484.213 592.1 487.513 589 492.813 589C492.813 585.8 491.913 583.3 491.913 581.1C491.913 576.3 496.413 572.5 503.213 572.5C505.713 572.5 508.013 573 510.113 573.7C509.213 578.5 508.913 583.5 508.913 589H521.713C521.713 585.8 520.813 583.3 520.813 581.1C520.813 576.3 525.313 572.5 532.113 572.5C534.613 572.5 536.913 573 539.013 573.7C538.113 578.5 537.813 583.5 537.813 589C541.613 589 545.613 588.5 548.913 587.4C549.513 589.8 549.713 591.9 549.713 593.6C549.713 600.8 546.313 604.1 540.213 604.1H537.813V627.3C537.813 633.5 539.413 638.6 542.913 642.3C539.813 644.3 536.113 645.6 532.513 645.6C526.913 645.6 521.313 642.4 521.313 631.3V604.1H508.913V627.3C508.913 633.5 510.513 638.6 514.013 642.3C510.913 644.3 507.213 645.6 503.613 645.6ZM576.455 645.6C560.055 645.6 550.955 632.7 550.955 616.4C550.955 601.1 558.855 587.4 575.555 587.4C590.055 587.4 597.055 597.6 597.655 612.8L568.955 622.5C571.155 628.3 575.955 630.3 581.755 630.3C587.355 630.3 592.455 628.4 596.355 624.9C597.755 634.2 591.955 645.6 576.455 645.6ZM567.855 612.5L582.455 607.5C581.955 604.6 579.855 601.6 575.855 601.6C570.755 601.6 568.255 606.4 567.855 612.5ZM603.62 644C605.02 639.1 605.52 633.6 605.52 627.9V606.5C605.52 600.8 604.72 595.4 602.52 590.8L620.42 587.6V596.1C623.22 590.4 627.62 587.4 633.32 587.4C640.02 587.4 645.92 591.7 645.92 600.2C645.92 608.5 640.42 612.6 632.32 612.6C634.12 605.7 631.72 602.6 628.12 602.6C622.82 602.6 622.02 609.1 622.02 619.3V627.9C622.02 633.6 622.82 639.1 624.92 644H603.62ZM650.202 644C651.602 639.1 652.102 633.6 652.102 627.9V606.5C652.102 600.8 651.302 595.4 649.102 590.8L668.602 587.4V627.9C668.602 633.6 669.102 639.1 670.502 644H650.202ZM659.802 580.8C652.502 580.8 649.502 576 649.502 571.6C649.502 567.2 652.502 562.4 659.802 562.4C667.102 562.4 670.102 567.2 670.102 571.6C670.102 576 667.102 580.8 659.802 580.8ZM701.748 645.6C685.348 645.6 676.248 632.7 676.248 616.4C676.248 601.1 684.148 587.4 700.848 587.4C715.348 587.4 722.348 597.6 722.948 612.8L694.248 622.5C696.448 628.3 701.248 630.3 707.048 630.3C712.648 630.3 717.748 628.4 721.648 624.9C723.048 634.2 717.248 645.6 701.748 645.6ZM693.148 612.5L707.748 607.5C707.248 604.6 705.148 601.6 701.148 601.6C696.048 601.6 693.548 606.4 693.148 612.5ZM745.313 645.6C739.713 645.6 734.113 642.4 734.113 631.3V604.1C732.413 604.1 729.013 604.3 727.113 605C726.313 602.5 725.913 600.2 725.913 598.1C725.913 592.1 729.213 589 734.513 589C734.513 585.8 733.613 583.3 733.613 581.1C733.613 576.3 738.113 572.5 744.913 572.5C747.413 572.5 749.713 573 751.813 573.7C750.913 578.5 750.613 583.5 750.613 589C754.413 589 758.413 588.5 761.713 587.4C762.313 589.8 762.513 591.9 762.513 593.6C762.513 600.8 759.113 604.1 753.013 604.1H750.613V627.3C750.613 633.5 752.213 638.6 755.713 642.3C752.613 644.3 748.913 645.6 745.313 645.6Z" fill="#FFF0D3"/>
<path d="M60.134 723.468C57.924 723.468 56.258 721.7 56.258 719.32C56.258 716.294 58.876 714.186 58.876 711.568C58.876 710.888 58.706 710.208 58.264 709.46C60.27 708.916 62.718 709.562 62.718 712.01C62.718 713.744 61.494 714.866 60.236 715.988C62.276 716.022 63.874 717.688 63.874 719.728C63.874 721.802 62.276 723.468 60.134 723.468ZM69.416 723.468C67.206 723.468 65.54 721.7 65.54 719.32C65.54 716.294 68.158 714.186 68.158 711.568C68.158 710.888 67.988 710.208 67.546 709.46C69.552 708.916 72 709.562 72 712.01C72 713.744 70.776 714.866 69.518 715.988C71.558 716.022 73.156 717.688 73.156 719.728C73.156 721.802 71.558 723.468 69.416 723.468ZM82.6178 737L76.5658 715.172C76.0218 713.302 75.4098 711.466 74.5938 709.8H82.3118C81.9378 711.126 82.0738 712.588 82.4478 714.084L86.1878 728.84L89.9618 714.084C90.3358 712.588 90.4718 711.126 90.0638 709.8H97.4418C96.6258 711.466 96.0138 713.302 95.4698 715.172L89.4178 737H82.6178ZM98.4916 737C98.9676 735.334 99.1376 733.464 99.1376 731.526V724.25C99.1376 722.312 98.8656 720.476 98.1176 718.912L104.748 717.756V731.526C104.748 733.464 104.918 735.334 105.394 737H98.4916ZM101.756 715.512C99.2736 715.512 98.2536 713.88 98.2536 712.384C98.2536 710.888 99.2736 709.256 101.756 709.256C104.238 709.256 105.258 710.888 105.258 712.384C105.258 713.88 104.238 715.512 101.756 715.512ZM122.824 737.544C117.248 737.544 114.154 733.158 114.154 727.616C114.154 722.414 116.84 717.756 122.518 717.756C127.448 717.756 129.828 721.224 130.032 726.392L120.274 729.69C121.022 731.662 122.654 732.342 124.626 732.342C126.53 732.342 128.264 731.696 129.59 730.506C130.066 733.668 128.094 737.544 122.824 737.544ZM119.9 726.29L124.864 724.59C124.694 723.604 123.98 722.584 122.62 722.584C120.886 722.584 120.036 724.216 119.9 726.29ZM132.06 737C132.536 735.334 132.706 733.464 132.706 731.526V724.25C132.706 722.312 132.434 720.476 131.686 718.912L137.772 717.824V720.714C138.724 718.776 140.22 717.756 142.158 717.756C144.436 717.756 146.442 719.218 146.442 722.108C146.442 724.93 144.572 726.324 141.818 726.324C142.43 723.978 141.614 722.924 140.39 722.924C138.588 722.924 138.316 725.134 138.316 728.602V731.526C138.316 733.464 138.588 735.334 139.302 737H132.06ZM156.472 737C156.948 735.334 157.118 733.464 157.118 731.526V723.366C156.098 723.4 155.112 723.502 154.296 723.74C153.922 722.822 153.684 721.972 153.684 721.156C153.684 719.694 154.432 718.572 156.506 718.334C155.724 716.804 155.384 715.682 155.384 714.56C155.384 711.16 158.512 709.256 162.422 709.256C165.448 709.256 168.304 710.446 168.304 713.064C168.304 715.648 165.516 716.09 163.816 716.124C163.85 715.92 163.85 715.784 163.85 715.648C163.85 714.73 163.442 714.152 162.626 714.152C161.946 714.152 161.198 714.56 161.198 715.58C161.198 716.362 161.674 717.416 162.286 718.3H163.476C165.04 718.3 166.298 718.13 167.352 717.824C167.556 718.64 167.658 719.354 167.658 720C167.658 722.21 166.434 723.434 164.394 723.434H162.728V731.526C162.728 733.464 163 735.334 163.714 737H156.472ZM169.324 737C169.8 735.334 169.97 733.464 169.97 731.526V724.25C169.97 722.312 169.698 720.476 168.95 718.912L175.58 717.756V731.526C175.58 733.464 175.75 735.334 176.226 737H169.324ZM172.588 715.512C170.106 715.512 169.086 713.88 169.086 712.384C169.086 710.888 170.106 709.256 172.588 709.256C175.07 709.256 176.09 710.888 176.09 712.384C176.09 713.88 175.07 715.512 172.588 715.512ZM178.578 737C179.054 735.334 179.224 733.464 179.224 731.526V724.25C179.224 722.312 178.952 720.476 178.204 718.912L184.29 717.824V720.714C185.242 718.776 186.738 717.756 188.676 717.756C190.954 717.756 192.96 719.218 192.96 722.108C192.96 724.93 191.09 726.324 188.336 726.324C188.948 723.978 188.132 722.924 186.908 722.924C185.106 722.924 184.834 725.134 184.834 728.602V731.526C184.834 733.464 185.106 735.334 185.82 737H178.578ZM202.511 737.544C196.935 737.544 193.841 733.158 193.841 727.616C193.841 722.414 196.527 717.756 202.205 717.756C207.135 717.756 209.515 721.224 209.719 726.392L199.961 729.69C200.709 731.662 202.341 732.342 204.313 732.342C206.217 732.342 207.951 731.696 209.277 730.506C209.753 733.668 207.781 737.544 202.511 737.544ZM199.587 726.29L204.551 724.59C204.381 723.604 203.667 722.584 202.307 722.584C200.573 722.584 199.723 724.216 199.587 726.29ZM218.554 737C219.03 735.334 219.2 733.464 219.2 731.526V724.25C219.2 722.312 218.928 720.476 218.18 718.912L224.266 717.824V720.714C225.218 718.776 226.714 717.756 228.652 717.756C230.93 717.756 232.936 719.218 232.936 722.108C232.936 724.93 231.066 726.324 228.312 726.324C228.924 723.978 228.108 722.924 226.884 722.924C225.082 722.924 224.81 725.134 224.81 728.602V731.526C224.81 733.464 225.082 735.334 225.796 737H218.554ZM242.488 737.544C236.912 737.544 233.818 733.158 233.818 727.616C233.818 722.414 236.504 717.756 242.182 717.756C247.112 717.756 249.492 721.224 249.696 726.392L239.938 729.69C240.686 731.662 242.318 732.342 244.29 732.342C246.194 732.342 247.928 731.696 249.254 730.506C249.73 733.668 247.758 737.544 242.488 737.544ZM239.564 726.29L244.528 724.59C244.358 723.604 243.644 722.584 242.284 722.584C240.55 722.584 239.7 724.216 239.564 726.29ZM257.3 737.544C255.396 737.544 253.492 736.456 253.492 732.682V723.434C252.914 723.434 251.758 723.502 251.112 723.74C250.84 722.89 250.704 722.108 250.704 721.394C250.704 719.354 251.826 718.3 253.628 718.3C253.628 717.212 253.322 716.362 253.322 715.614C253.322 713.982 254.852 712.69 257.164 712.69C258.014 712.69 258.796 712.86 259.51 713.098C259.204 714.73 259.102 716.43 259.102 718.3C260.394 718.3 261.754 718.13 262.876 717.756C263.08 718.572 263.148 719.286 263.148 719.864C263.148 722.312 261.992 723.434 259.918 723.434H259.102V731.322C259.102 733.43 259.646 735.164 260.836 736.422C259.782 737.102 258.524 737.544 257.3 737.544ZM276.989 737.544C275.085 737.544 273.181 736.456 273.181 732.682V723.434C272.603 723.434 271.447 723.502 270.801 723.74C270.529 722.89 270.393 722.108 270.393 721.394C270.393 719.354 271.515 718.3 273.317 718.3C273.317 717.212 273.011 716.362 273.011 715.614C273.011 713.982 274.541 712.69 276.853 712.69C277.703 712.69 278.485 712.86 279.199 713.098C278.893 714.73 278.791 716.43 278.791 718.3C280.083 718.3 281.443 718.13 282.565 717.756C282.769 718.572 282.837 719.286 282.837 719.864C282.837 722.312 281.681 723.434 279.607 723.434H278.791V731.322C278.791 733.43 279.335 735.164 280.525 736.422C279.471 737.102 278.213 737.544 276.989 737.544ZM289.88 737.544C286.106 737.544 283.59 735.232 283.59 731.73C283.59 728.16 286.208 726.358 290.152 726.358C291.886 726.358 293.28 726.732 294.266 727.378V725.202C294.266 723.468 293.178 722.686 291.784 722.686C290.492 722.686 289.37 723.366 289.37 724.624C289.37 724.93 289.438 725.304 289.54 725.61C287.262 726.086 284.61 724.998 284.61 722.346C284.61 719.286 288.112 717.756 291.784 717.756C294.096 717.756 296.136 718.402 297.53 719.456C298.822 718.402 300.556 717.756 302.63 717.756C307.56 717.756 309.94 721.224 310.144 726.392L300.386 729.69C301.134 731.662 302.766 732.342 304.738 732.342C306.642 732.342 308.376 731.696 309.702 730.506C310.178 733.668 308.206 737.544 302.936 737.544C299.91 737.544 297.632 736.286 296.136 734.212C295.048 736.184 292.77 737.544 289.88 737.544ZM291.818 733.226C293.348 733.226 294.47 732.546 294.47 731.424C294.47 730.302 293.348 729.656 291.818 729.656C290.288 729.656 289.2 730.302 289.2 731.424C289.2 732.546 290.288 733.226 291.818 733.226ZM300.012 726.29L304.976 724.59C304.806 723.604 304.092 722.584 302.732 722.584C300.998 722.584 300.148 724.216 300.012 726.29ZM317.763 737.544C315.859 737.544 313.955 736.456 313.955 732.682V723.434C313.377 723.434 312.221 723.502 311.575 723.74C311.303 722.89 311.167 722.108 311.167 721.394C311.167 719.354 312.289 718.3 314.091 718.3C314.091 717.212 313.785 716.362 313.785 715.614C313.785 713.982 315.315 712.69 317.627 712.69C318.477 712.69 319.259 712.86 319.973 713.098C319.667 714.73 319.565 716.43 319.565 718.3H323.917C323.917 717.212 323.611 716.362 323.611 715.614C323.611 713.982 325.141 712.69 327.453 712.69C328.303 712.69 329.085 712.86 329.799 713.098C329.493 714.73 329.391 716.43 329.391 718.3C330.683 718.3 332.043 718.13 333.165 717.756C333.369 718.572 333.437 719.286 333.437 719.864C333.437 722.312 332.281 723.434 330.207 723.434H329.391V731.322C329.391 733.43 329.935 735.164 331.125 736.422C330.071 737.102 328.813 737.544 327.589 737.544C325.685 737.544 323.781 736.456 323.781 732.682V723.434H319.565V731.322C319.565 733.43 320.109 735.164 321.299 736.422C320.245 737.102 318.987 737.544 317.763 737.544ZM342.529 737.544C336.953 737.544 333.859 733.158 333.859 727.616C333.859 722.414 336.545 717.756 342.223 717.756C347.153 717.756 349.533 721.224 349.737 726.392L339.979 729.69C340.727 731.662 342.359 732.342 344.331 732.342C346.235 732.342 347.969 731.696 349.295 730.506C349.771 733.668 347.799 737.544 342.529 737.544ZM339.605 726.29L344.569 724.59C344.399 723.604 343.685 722.584 342.325 722.584C340.591 722.584 339.741 724.216 339.605 726.29ZM363.468 737L359.49 723.638C358.946 721.768 358.266 719.966 357.45 718.3H364.862C364.488 719.626 364.624 721.088 364.998 722.584L367.072 730.37L369.316 722.584C369.724 721.088 369.894 719.626 369.52 718.3H376.558C375.742 719.966 375.062 721.768 374.45 723.604L370.132 737H363.468ZM385.129 737.544C379.553 737.544 376.459 733.158 376.459 727.616C376.459 722.414 379.145 717.756 384.823 717.756C389.753 717.756 392.133 721.224 392.337 726.392L382.579 729.69C383.327 731.662 384.959 732.342 386.931 732.342C388.835 732.342 390.569 731.696 391.895 730.506C392.371 733.668 390.399 737.544 385.129 737.544ZM382.205 726.29L387.169 724.59C386.999 723.604 386.285 722.584 384.925 722.584C383.191 722.584 382.341 724.216 382.205 726.29ZM394.365 737C394.841 735.334 395.011 733.464 395.011 731.526V724.25C395.011 722.312 394.739 720.476 393.991 718.912L400.077 717.824V720.544C401.029 718.708 402.627 717.756 404.939 717.756C409.257 717.756 410.651 721.156 410.651 725.168V731.526C410.651 733.464 410.821 735.334 411.297 737H404.395C404.871 735.334 405.041 733.464 405.041 731.526V725.678C405.041 723.978 404.497 722.924 403.205 722.924C401.335 722.924 400.621 725.134 400.621 727.922V731.526C400.621 733.464 400.791 735.334 401.267 737H394.365ZM413.556 737C414.032 735.334 414.202 733.464 414.202 731.526V724.25C414.202 722.312 413.93 720.476 413.182 718.912L419.812 717.756V731.526C419.812 733.464 419.982 735.334 420.458 737H413.556ZM416.82 715.512C414.338 715.512 413.318 713.88 413.318 712.384C413.318 710.888 414.338 709.256 416.82 709.256C419.302 709.256 420.322 710.888 420.322 712.384C420.322 713.88 419.302 715.512 416.82 715.512ZM422.82 737C423.296 735.334 423.466 733.464 423.466 731.526V724.25C423.466 722.312 423.194 720.476 422.446 718.912L428.532 717.824V720.544C429.484 718.708 431.082 717.756 433.394 717.756C437.712 717.756 439.106 721.156 439.106 725.168V731.526C439.106 733.464 439.276 735.334 439.752 737H432.85C433.326 735.334 433.496 733.464 433.496 731.526V725.678C433.496 723.978 432.952 722.924 431.66 722.924C429.79 722.924 429.076 725.134 429.076 727.922V731.526C429.076 733.464 429.246 735.334 429.722 737H422.82ZM448.811 737.544C444.051 737.544 441.603 733.09 441.603 727.65C441.603 722.21 444.051 717.756 448.811 717.756C450.579 717.756 452.075 718.334 453.163 719.626V715.818C453.163 713.88 452.891 712.044 452.143 710.48L458.773 709.256V731.322C458.773 733.43 459.317 735.164 460.507 736.422C459.521 737.068 458.365 737.544 457.107 737.544C455.611 737.544 454.217 736.83 453.707 734.926C452.619 736.694 450.885 737.544 448.811 737.544ZM450.341 732.342C452.211 732.342 453.231 730.54 453.231 727.65C453.231 724.76 452.211 722.958 450.341 722.958C448.437 722.958 447.383 724.76 447.383 727.65C447.383 730.54 448.437 732.342 450.341 732.342ZM470.228 737.544C464.652 737.544 461.558 733.158 461.558 727.616C461.558 722.414 464.244 717.756 469.922 717.756C474.852 717.756 477.232 721.224 477.436 726.392L467.678 729.69C468.426 731.662 470.058 732.342 472.03 732.342C473.934 732.342 475.668 731.696 476.994 730.506C477.47 733.668 475.498 737.544 470.228 737.544ZM467.304 726.29L472.268 724.59C472.098 723.604 471.384 722.584 470.024 722.584C468.29 722.584 467.44 724.216 467.304 726.29ZM479.464 737C479.94 735.334 480.11 733.464 480.11 731.526V724.25C480.11 722.312 479.838 720.476 479.09 718.912L485.176 717.824V720.714C486.128 718.776 487.624 717.756 489.562 717.756C491.84 717.756 493.846 719.218 493.846 722.108C493.846 724.93 491.976 726.324 489.222 726.324C489.834 723.978 489.018 722.924 487.794 722.924C485.992 722.924 485.72 725.134 485.72 728.602V731.526C485.72 733.464 485.992 735.334 486.706 737H479.464ZM497.559 744.072C495.553 744.616 493.105 743.97 493.105 741.522C493.105 739.788 494.329 738.666 495.587 737.544C493.547 737.51 491.949 735.844 491.949 733.804C491.949 731.73 493.547 730.064 495.689 730.064C497.899 730.064 499.565 731.832 499.565 734.212C499.565 737.238 496.947 739.346 496.947 741.964C496.947 742.644 497.117 743.324 497.559 744.072ZM517.213 737.544C510.889 737.544 508.441 733.09 508.441 727.65C508.441 722.21 510.889 717.756 517.213 717.756C523.537 717.756 525.985 722.21 525.985 727.65C525.985 733.09 523.537 737.544 517.213 737.544ZM517.213 732.342C519.151 732.342 520.205 730.54 520.205 727.65C520.205 724.76 519.151 722.958 517.213 722.958C515.275 722.958 514.221 724.76 514.221 727.65C514.221 730.54 515.275 732.342 517.213 732.342ZM539.868 744.344C540.004 742.304 538.032 741.624 535.72 741.08L533.136 740.502C530.722 739.924 528.614 739.04 528.614 736.592C528.614 734.994 529.498 733.838 531.266 733.158C528.886 731.628 527.9 728.874 527.9 726.086C527.9 722.21 529.804 718.402 534.666 717.824C534.394 716.634 534.122 715.036 534.122 713.71C534.122 710.412 535.924 709.256 537.59 709.256C539.222 709.256 540.616 710.378 540.616 712.214C540.616 714.832 537.828 715.24 537.658 717.892C542.282 718.606 544.084 722.312 544.084 726.086C544.084 730.302 541.84 734.416 535.992 734.416C535.006 734.416 534.19 734.552 534.19 735.266C534.19 735.81 534.666 736.116 535.992 736.286L540.038 736.728C542.826 737.034 544.968 738.156 544.968 740.468C544.968 743.426 541.534 744.31 539.868 744.344ZM535.992 729.384C537.658 729.384 538.576 727.922 538.576 726.086C538.576 724.25 537.658 722.788 535.992 722.788C534.326 722.788 533.408 724.25 533.408 726.086C533.408 727.922 534.326 729.384 535.992 729.384ZM552.874 737C553.35 735.334 553.52 733.464 553.52 731.526V715.818C553.52 713.88 553.248 712.044 552.5 710.48L559.13 709.256V719.932C560.014 718.538 561.408 717.756 563.448 717.756C567.766 717.756 569.16 721.156 569.16 725.168V731.526C569.16 733.464 569.33 735.334 569.806 737H562.904C563.38 735.334 563.55 733.464 563.55 731.526V725.678C563.55 723.978 563.006 722.924 561.714 722.924C559.844 722.924 559.13 725.134 559.13 727.922V731.526C559.13 733.464 559.3 735.334 559.776 737H552.874ZM575.569 737L571.591 723.638C571.047 721.768 570.367 719.966 569.551 718.3H576.963C576.589 719.626 576.725 721.088 577.099 722.584L579.173 730.37L581.417 722.584C581.825 721.088 581.995 719.626 581.621 718.3H588.659C587.843 719.966 587.163 721.768 586.551 723.604L582.233 737H575.569ZM594.85 737.544C591.11 737.544 588.594 735.232 588.594 731.73C588.594 728.16 591.212 726.358 595.156 726.358C596.89 726.358 598.284 726.732 599.27 727.378V725.202C599.27 723.468 598.216 722.686 596.788 722.686C595.496 722.686 594.374 723.332 594.374 724.624C594.374 724.93 594.442 725.304 594.544 725.61C592.266 726.086 589.614 724.998 589.614 722.346C589.614 719.286 593.116 717.756 596.822 717.756C601.582 717.756 604.88 720.34 604.88 724.386V731.322C604.88 733.43 605.424 735.164 606.614 736.422C605.628 737.068 604.472 737.544 603.214 737.544C601.82 737.544 600.562 737 599.95 735.334C598.862 736.694 597.128 737.544 594.85 737.544ZM596.822 733.226C598.352 733.226 599.474 732.546 599.474 731.424C599.474 730.302 598.352 729.656 596.822 729.656C595.292 729.656 594.204 730.302 594.204 731.424C594.204 732.546 595.292 733.226 596.822 733.226ZM614.794 737.544C610.034 737.544 607.586 733.09 607.586 727.65C607.586 722.21 610.034 717.756 614.794 717.756C616.562 717.756 618.058 718.334 619.146 719.626V715.818C619.146 713.88 618.874 712.044 618.126 710.48L624.756 709.256V731.322C624.756 733.43 625.3 735.164 626.49 736.422C625.504 737.068 624.348 737.544 623.09 737.544C621.594 737.544 620.2 736.83 619.69 734.926C618.602 736.694 616.868 737.544 614.794 737.544ZM616.324 732.342C618.194 732.342 619.214 730.54 619.214 727.65C619.214 724.76 618.194 722.958 616.324 722.958C614.42 722.958 613.366 724.76 613.366 727.65C613.366 730.54 614.42 732.342 616.324 732.342ZM643.017 737.544C637.441 737.544 634.347 733.158 634.347 727.616C634.347 722.414 637.033 717.756 642.711 717.756C647.641 717.756 650.021 721.224 650.225 726.392L640.467 729.69C641.215 731.662 642.847 732.342 644.819 732.342C646.723 732.342 648.457 731.696 649.783 730.506C650.259 733.668 648.287 737.544 643.017 737.544ZM640.093 726.29L645.057 724.59C644.887 723.604 644.173 722.584 642.813 722.584C641.079 722.584 640.229 724.216 640.093 726.29ZM652.253 737C652.729 735.334 652.899 733.464 652.899 731.526V724.25C652.899 722.312 652.627 720.476 651.879 718.912L657.965 717.824V720.714C658.917 718.776 660.413 717.756 662.351 717.756C664.629 717.756 666.635 719.218 666.635 722.108C666.635 724.93 664.765 726.324 662.011 726.324C662.623 723.978 661.807 722.924 660.583 722.924C658.781 722.924 658.509 725.134 658.509 728.602V731.526C658.509 733.464 658.781 735.334 659.495 737H652.253ZM682.514 737.544C677.618 737.578 674.49 733.328 674.49 727.65C674.49 722.448 677.142 717.756 682.888 717.756C684.826 717.756 686.526 718.3 687.818 719.082V725.168C686.492 723.57 685.064 722.958 683.806 722.958C681.596 722.958 680.27 724.828 680.27 727.48C680.27 730.404 681.868 732.308 684.384 732.308C685.948 732.308 687.342 731.56 688.328 730.302C688.77 733.532 687.24 737.51 682.514 737.544ZM690.268 737C690.744 735.334 690.914 733.464 690.914 731.526V715.818C690.914 713.88 690.642 712.044 689.894 710.48L696.524 709.256V719.932C697.408 718.538 698.802 717.756 700.842 717.756C705.16 717.756 706.554 721.156 706.554 725.168V731.526C706.554 733.464 706.724 735.334 707.2 737H700.298C700.774 735.334 700.944 733.464 700.944 731.526V725.678C700.944 723.978 700.4 722.924 699.108 722.924C697.238 722.924 696.524 725.134 696.524 727.922V731.526C696.524 733.464 696.694 735.334 697.17 737H690.268ZM715.311 737.544C711.571 737.544 709.055 735.232 709.055 731.73C709.055 728.16 711.673 726.358 715.617 726.358C717.351 726.358 718.745 726.732 719.731 727.378V725.202C719.731 723.468 718.677 722.686 717.249 722.686C715.957 722.686 714.835 723.332 714.835 724.624C714.835 724.93 714.903 725.304 715.005 725.61C712.727 726.086 710.075 724.998 710.075 722.346C710.075 719.286 713.577 717.756 717.283 717.756C722.043 717.756 725.341 720.34 725.341 724.386V731.322C725.341 733.43 725.885 735.164 727.075 736.422C726.089 737.068 724.933 737.544 723.675 737.544C722.281 737.544 721.023 737 720.411 735.334C719.323 736.694 717.589 737.544 715.311 737.544ZM717.283 733.226C718.813 733.226 719.935 732.546 719.935 731.424C719.935 730.302 718.813 729.656 717.283 729.656C715.753 729.656 714.665 730.302 714.665 731.424C714.665 732.546 715.753 733.226 717.283 733.226ZM728.454 737C728.93 735.334 729.1 733.464 729.1 731.526V724.25C729.1 722.312 728.828 720.476 728.08 718.912L734.166 717.824V720.544C735.118 718.708 736.716 717.756 739.028 717.756C743.346 717.756 744.74 721.156 744.74 725.168V731.526C744.74 733.464 744.91 735.334 745.386 737H738.484C738.96 735.334 739.13 733.464 739.13 731.526V725.678C739.13 723.978 738.586 722.924 737.294 722.924C735.424 722.924 734.71 725.134 734.71 727.922V731.526C734.71 733.464 734.88 735.334 735.356 737H728.454ZM755.262 737.544C750.366 737.578 747.238 733.328 747.238 727.65C747.238 722.448 749.89 717.756 755.636 717.756C757.574 717.756 759.274 718.3 760.566 719.082V725.168C759.24 723.57 757.812 722.958 756.554 722.958C754.344 722.958 753.018 724.828 753.018 727.48C753.018 730.404 754.616 732.308 757.132 732.308C758.696 732.308 760.09 731.56 761.076 730.302C761.518 733.532 759.988 737.51 755.262 737.544ZM771.381 737.544C765.805 737.544 762.711 733.158 762.711 727.616C762.711 722.414 765.397 717.756 771.075 717.756C776.005 717.756 778.385 721.224 778.589 726.392L768.831 729.69C769.579 731.662 771.211 732.342 773.183 732.342C775.087 732.342 776.821 731.696 778.147 730.506C778.623 733.668 776.651 737.544 771.381 737.544ZM768.457 726.29L773.421 724.59C773.251 723.604 772.537 722.584 771.177 722.584C769.443 722.584 768.593 724.216 768.457 726.29ZM780.617 737C781.093 735.334 781.263 733.464 781.263 731.526V724.25C781.263 722.312 780.991 720.476 780.243 718.912L786.329 717.824V720.544C787.281 718.708 788.879 717.756 791.191 717.756C795.509 717.756 796.903 721.156 796.903 725.168V731.526C796.903 733.464 797.073 735.334 797.549 737H790.647C791.123 735.334 791.293 733.464 791.293 731.526V725.678C791.293 723.978 790.749 722.924 789.457 722.924C787.587 722.924 786.873 725.134 786.873 727.922V731.526C786.873 733.464 787.043 735.334 787.519 737H780.617ZM808.383 737C808.859 735.334 809.029 733.464 809.029 731.526V723.366C808.009 723.4 807.023 723.502 806.207 723.74C805.833 722.822 805.595 721.972 805.595 721.156C805.595 719.694 806.343 718.572 808.417 718.334C807.635 716.804 807.295 715.682 807.295 714.56C807.295 711.16 810.423 709.256 814.333 709.256C817.359 709.256 820.215 710.446 820.215 713.064C820.215 715.648 817.427 716.09 815.727 716.124C815.761 715.92 815.761 715.784 815.761 715.648C815.761 714.73 815.353 714.152 814.537 714.152C813.857 714.152 813.109 714.56 813.109 715.58C813.109 716.362 813.585 717.416 814.197 718.3H815.387C816.951 718.3 818.209 718.13 819.263 717.824C819.467 718.64 819.569 719.354 819.569 720C819.569 722.21 818.345 723.434 816.305 723.434H814.639V731.526C814.639 733.464 814.911 735.334 815.625 737H808.383ZM828.824 737.544C822.5 737.544 820.052 733.09 820.052 727.65C820.052 722.21 822.5 717.756 828.824 717.756C835.148 717.756 837.596 722.21 837.596 727.65C837.596 733.09 835.148 737.544 828.824 737.544ZM828.824 732.342C830.762 732.342 831.816 730.54 831.816 727.65C831.816 724.76 830.762 722.958 828.824 722.958C826.886 722.958 825.832 724.76 825.832 727.65C825.832 730.54 826.886 732.342 828.824 732.342ZM839.652 737C840.128 735.334 840.298 733.464 840.298 731.526V724.25C840.298 722.312 840.026 720.476 839.278 718.912L845.364 717.824V720.714C846.316 718.776 847.812 717.756 849.75 717.756C852.028 717.756 854.034 719.218 854.034 722.108C854.034 724.93 852.164 726.324 849.41 726.324C850.022 723.978 849.206 722.924 847.982 722.924C846.18 722.924 845.908 725.134 845.908 728.602V731.526C845.908 733.464 846.18 735.334 846.894 737H839.652ZM857.747 744.072C855.741 744.616 853.293 743.97 853.293 741.522C853.293 739.788 854.517 738.666 855.775 737.544C853.735 737.51 852.137 735.844 852.137 733.804C852.137 731.73 853.735 730.064 855.877 730.064C858.087 730.064 859.753 731.832 859.753 734.212C859.753 737.238 857.135 739.346 857.135 741.964C857.135 742.644 857.305 743.324 857.747 744.072ZM62.106 789.544C58.366 789.544 55.85 787.232 55.85 783.73C55.85 780.16 58.468 778.358 62.412 778.358C64.146 778.358 65.54 778.732 66.526 779.378V777.202C66.526 775.468 65.472 774.686 64.044 774.686C62.752 774.686 61.63 775.332 61.63 776.624C61.63 776.93 61.698 777.304 61.8 777.61C59.522 778.086 56.87 776.998 56.87 774.346C56.87 771.286 60.372 769.756 64.078 769.756C68.838 769.756 72.136 772.34 72.136 776.386V783.322C72.136 785.43 72.68 787.164 73.87 788.422C72.884 789.068 71.728 789.544 70.47 789.544C69.076 789.544 67.818 789 67.206 787.334C66.118 788.694 64.384 789.544 62.106 789.544ZM64.078 785.226C65.608 785.226 66.73 784.546 66.73 783.424C66.73 782.302 65.608 781.656 64.078 781.656C62.548 781.656 61.46 782.302 61.46 783.424C61.46 784.546 62.548 785.226 64.078 785.226ZM80.4934 789.544C78.5894 789.544 76.6854 788.456 76.6854 784.682V775.434C76.1074 775.434 74.9514 775.502 74.3054 775.74C74.0334 774.89 73.8974 774.108 73.8974 773.394C73.8974 771.354 75.0194 770.3 76.8214 770.3C76.8214 769.212 76.5154 768.362 76.5154 767.614C76.5154 765.982 78.0454 764.69 80.3574 764.69C81.2074 764.69 81.9894 764.86 82.7034 765.098C82.3974 766.73 82.2954 768.43 82.2954 770.3C83.5874 770.3 84.9474 770.13 86.0694 769.756C86.2734 770.572 86.3414 771.286 86.3414 771.864C86.3414 774.312 85.1854 775.434 83.1114 775.434H82.2954V783.322C82.2954 785.43 82.8394 787.164 84.0294 788.422C82.9754 789.102 81.7174 789.544 80.4934 789.544ZM100.183 789.544C98.2788 789.544 96.3748 788.456 96.3748 784.682V775.434C95.7968 775.434 94.6408 775.502 93.9948 775.74C93.7228 774.89 93.5868 774.108 93.5868 773.394C93.5868 771.354 94.7088 770.3 96.5108 770.3C96.5108 769.212 96.2048 768.362 96.2048 767.614C96.2048 765.982 97.7348 764.69 100.047 764.69C100.897 764.69 101.679 764.86 102.393 765.098C102.087 766.73 101.985 768.43 101.985 770.3C103.277 770.3 104.637 770.13 105.759 769.756C105.963 770.572 106.031 771.286 106.031 771.864C106.031 774.312 104.875 775.434 102.801 775.434H101.985V783.322C101.985 785.43 102.529 787.164 103.719 788.422C102.665 789.102 101.407 789.544 100.183 789.544ZM115.522 789.544C109.198 789.544 106.75 785.09 106.75 779.65C106.75 774.21 109.198 769.756 115.522 769.756C121.846 769.756 124.294 774.21 124.294 779.65C124.294 785.09 121.846 789.544 115.522 789.544ZM115.522 784.342C117.46 784.342 118.514 782.54 118.514 779.65C118.514 776.76 117.46 774.958 115.522 774.958C113.584 774.958 112.53 776.76 112.53 779.65C112.53 782.54 113.584 784.342 115.522 784.342ZM139.038 789.544C135.298 789.544 132.782 787.232 132.782 783.73C132.782 780.16 135.4 778.358 139.344 778.358C141.078 778.358 142.472 778.732 143.458 779.378V777.202C143.458 775.468 142.404 774.686 140.976 774.686C139.684 774.686 138.562 775.332 138.562 776.624C138.562 776.93 138.63 777.304 138.732 777.61C136.454 778.086 133.802 776.998 133.802 774.346C133.802 771.286 137.304 769.756 141.01 769.756C145.77 769.756 149.068 772.34 149.068 776.386V783.322C149.068 785.43 149.612 787.164 150.802 788.422C149.816 789.068 148.66 789.544 147.402 789.544C146.008 789.544 144.75 789 144.138 787.334C143.05 788.694 141.316 789.544 139.038 789.544ZM141.01 785.226C142.54 785.226 143.662 784.546 143.662 783.424C143.662 782.302 142.54 781.656 141.01 781.656C139.48 781.656 138.392 782.302 138.392 783.424C138.392 784.546 139.48 785.226 141.01 785.226ZM153.451 789C153.927 787.334 154.097 785.464 154.097 783.526V775.366C153.077 775.4 152.091 775.502 151.275 775.74C150.901 774.822 150.663 773.972 150.663 773.156C150.663 771.694 151.411 770.572 153.485 770.334C152.703 768.804 152.363 767.682 152.363 766.56C152.363 763.16 155.491 761.256 159.401 761.256C162.427 761.256 165.283 762.446 165.283 765.064C165.283 767.648 162.495 768.09 160.795 768.124C160.829 767.92 160.829 767.784 160.829 767.648C160.829 766.73 160.421 766.152 159.605 766.152C158.925 766.152 158.177 766.56 158.177 767.58C158.177 768.362 158.653 769.416 159.265 770.3H160.455C162.019 770.3 163.277 770.13 164.331 769.824C164.535 770.64 164.637 771.354 164.637 772C164.637 774.21 163.413 775.434 161.373 775.434H159.707V783.526C159.707 785.464 159.979 787.334 160.693 789H153.451ZM181.463 789.544C175.139 789.544 172.691 785.09 172.691 779.65C172.691 774.21 175.139 769.756 181.463 769.756C187.787 769.756 190.235 774.21 190.235 779.65C190.235 785.09 187.787 789.544 181.463 789.544ZM181.463 784.342C183.401 784.342 184.455 782.54 184.455 779.65C184.455 776.76 183.401 774.958 181.463 774.958C179.525 774.958 178.471 776.76 178.471 779.65C178.471 782.54 179.525 784.342 181.463 784.342ZM199.124 789.544C195.248 789.544 191.882 787.64 191.882 784.614C191.882 781.928 194.602 780.942 196.914 781.418C196.778 781.758 196.71 782.2 196.71 782.54C196.71 783.934 197.798 784.784 199.124 784.784C200.348 784.784 201.232 784.07 201.232 783.05C201.232 781.894 200.144 781.316 198.682 780.976L196.71 780.534C194.262 779.99 192.12 778.46 192.12 775.4C192.12 772.306 194.33 769.756 199.362 769.756C201.64 769.756 204.088 770.266 205.618 771.422V777.134C203.986 775.502 201.368 774.55 199.328 774.55C198.206 774.55 197.628 774.822 197.628 775.434C197.628 776.012 198.138 776.216 199.328 776.488L201.164 776.93C203.918 777.61 206.842 779.038 206.842 782.914C206.842 786.926 203.612 789.544 199.124 789.544ZM220.595 789L216.617 775.638C216.073 773.768 215.393 771.966 214.577 770.3H221.989C221.615 771.626 221.751 773.088 222.125 774.584L224.199 782.37L226.443 774.584C226.851 773.088 227.021 771.626 226.647 770.3H233.685C232.869 771.966 232.189 773.768 231.577 775.604L227.259 789H220.595ZM235.023 789C235.499 787.334 235.669 785.464 235.669 783.526V776.25C235.669 774.312 235.397 772.476 234.649 770.912L241.279 769.756V783.526C241.279 785.464 241.449 787.334 241.925 789H235.023ZM238.287 767.512C235.805 767.512 234.785 765.88 234.785 764.384C234.785 762.888 235.805 761.256 238.287 761.256C240.769 761.256 241.789 762.888 241.789 764.384C241.789 765.88 240.769 767.512 238.287 767.512ZM244.287 789C244.763 787.334 244.933 785.464 244.933 783.526V776.25C244.933 774.312 244.661 772.476 243.913 770.912L249.999 769.824V772.544C250.951 770.708 252.549 769.756 254.861 769.756C259.179 769.756 260.573 773.156 260.573 777.168V783.526C260.573 785.464 260.743 787.334 261.219 789H254.317C254.793 787.334 254.963 785.464 254.963 783.526V777.678C254.963 775.978 254.419 774.924 253.127 774.924C251.257 774.924 250.543 777.134 250.543 779.922V783.526C250.543 785.464 250.713 787.334 251.189 789H244.287ZM270.278 789.544C265.518 789.544 263.07 785.09 263.07 779.65C263.07 774.21 265.518 769.756 270.278 769.756C272.046 769.756 273.542 770.334 274.63 771.626V767.818C274.63 765.88 274.358 764.044 273.61 762.48L280.24 761.256V783.322C280.24 785.43 280.784 787.164 281.974 788.422C280.988 789.068 279.832 789.544 278.574 789.544C277.078 789.544 275.684 788.83 275.174 786.926C274.086 788.694 272.352 789.544 270.278 789.544ZM271.808 784.342C273.678 784.342 274.698 782.54 274.698 779.65C274.698 776.76 273.678 774.958 271.808 774.958C269.904 774.958 268.85 776.76 268.85 779.65C268.85 782.54 269.904 784.342 271.808 784.342ZM291.695 789.544C286.119 789.544 283.025 785.158 283.025 779.616C283.025 774.414 285.711 769.756 291.389 769.756C296.319 769.756 298.699 773.224 298.903 778.392L289.145 781.69C289.893 783.662 291.525 784.342 293.497 784.342C295.401 784.342 297.135 783.696 298.461 782.506C298.937 785.668 296.965 789.544 291.695 789.544ZM288.771 778.29L293.735 776.59C293.565 775.604 292.851 774.584 291.491 774.584C289.757 774.584 288.907 776.216 288.771 778.29ZM300.931 789C301.407 787.334 301.577 785.464 301.577 783.526V776.25C301.577 774.312 301.305 772.476 300.557 770.912L306.643 769.824V772.714C307.595 770.776 309.091 769.756 311.029 769.756C313.307 769.756 315.313 771.218 315.313 774.108C315.313 776.93 313.443 778.324 310.689 778.324C311.301 775.978 310.485 774.924 309.261 774.924C307.459 774.924 307.187 777.134 307.187 780.602V783.526C307.187 785.464 307.459 787.334 308.173 789H300.931ZM324.291 780.466C321.809 780.466 320.313 778.936 320.313 776.726C320.313 772.204 326.841 772.578 326.841 768.464C326.841 766.832 325.787 765.846 324.291 765.846C322.625 765.846 321.707 767.036 321.707 768.6C321.707 769.518 322.013 770.3 322.455 770.878C321.979 771.184 321.163 771.592 319.973 771.592C317.525 771.592 315.927 769.858 315.927 767.444C315.927 764.112 318.919 761.256 324.291 761.256C329.357 761.256 332.859 763.84 332.859 768.43C332.859 774.72 326.195 774.142 326.195 777.644C326.195 778.392 326.501 779.174 326.943 779.752C326.467 780.058 325.583 780.466 324.291 780.466ZM324.121 789.544C321.979 789.544 320.381 787.878 320.381 785.804C320.381 783.73 321.979 782.064 324.121 782.064C326.263 782.064 327.861 783.73 327.861 785.804C327.861 787.878 326.263 789.544 324.121 789.544ZM340.442 775.23C338.436 775.774 335.988 775.128 335.988 772.68C335.988 770.946 337.212 769.824 338.47 768.702C336.43 768.668 334.832 767.002 334.832 764.962C334.832 762.888 336.43 761.222 338.572 761.222C340.782 761.222 342.448 762.99 342.448 765.37C342.448 768.396 339.83 770.504 339.83 773.122C339.83 773.802 340 774.482 340.442 775.23ZM349.724 775.23C347.718 775.774 345.27 775.128 345.27 772.68C345.27 770.946 346.494 769.824 347.752 768.702C345.712 768.668 344.114 767.002 344.114 764.962C344.114 762.888 345.712 761.222 347.854 761.222C350.064 761.222 351.73 762.99 351.73 765.37C351.73 768.396 349.112 770.504 349.112 773.122C349.112 773.802 349.282 774.482 349.724 775.23Z" fill="#5F141E"/>
</svg>
