<svg width="1080" height="1080" viewBox="0 0 1080 1080" fill="none" xmlns="http://www.w3.org/2000/svg">
<rect width="1080" height="1080" fill="#F41116"/>
<path fill-rule="evenodd" clip-rule="evenodd" d="M366.866 84.413C370.059 78.5269 372.691 71.8 373.755 66.0829C376.108 66.4193 378.629 66.5874 381.373 66.5874C384.51 66.5874 386.919 66.3635 389.047 66.0271C389.999 70.623 387.814 75.3317 382.045 75.3317C381.597 75.3317 381.149 75.2754 380.701 75.2193C379.525 78.246 378.18 80.9373 376.669 83.3474C383.558 85.2529 388.879 90.5225 388.879 99.2665C388.879 108.067 383.614 113 377.844 113C374.54 113 372.075 111.374 370.955 108.964C374.932 108.403 379.469 105.601 379.469 100.107C379.469 94.278 374.316 90.2983 366.866 89.9619V102.406C366.866 105.601 367.146 108.684 367.931 111.43H356.56C357.344 108.684 357.624 105.601 357.624 102.406V76.229C357.624 73.0342 357.232 70.0071 356 67.4283L366.866 65.6907V84.413ZM417.953 79.7041C425.571 79.7042 431.004 83.7965 431.004 90.5787V102.125C431.004 105.601 431.956 108.516 433.86 110.533C432.348 111.542 430.499 112.327 428.539 112.327C426.299 112.327 424.283 111.374 423.33 108.572C421.538 110.87 418.625 112.327 414.873 112.327C408.823 112.327 404.567 108.572 404.567 102.742C404.567 96.8002 408.991 93.7733 415.377 93.7733C418.289 93.7733 420.698 94.3905 422.378 95.6232V91.8111C422.378 88.7283 420.473 87.3277 417.897 87.3277C415.545 87.3277 413.64 88.5603 413.64 90.8028C413.64 91.3633 413.752 91.9793 413.92 92.4837C410.391 93.2126 406.19 91.4752 406.19 87.2711C406.19 82.3384 411.848 79.7041 417.953 79.7041ZM446.41 79.7041C450.219 79.7042 454.196 80.6015 456.716 82.563V91.5312C454.028 88.7843 449.771 87.1031 446.354 87.103C444.282 87.103 443.161 87.7198 443.161 88.8963C443.161 89.9615 444.057 90.354 446.13 90.8586L449.322 91.6436C453.972 92.8203 458.621 95.2315 458.621 101.509C458.621 108.235 453.299 112.327 446.074 112.327C439.632 112.327 434.199 109.02 434.199 104.087C434.199 99.771 438.512 98.2021 442.096 98.9301C441.872 99.4907 441.76 100.276 441.76 100.892C441.76 103.471 443.722 104.928 446.074 104.928C448.315 104.928 449.938 103.639 449.938 101.733C449.938 99.6589 448.09 98.6502 445.514 98.0335L442.209 97.2484C438.288 96.3513 434.647 93.8294 434.647 88.8405C434.647 83.7401 438.456 79.7041 446.41 79.7041ZM472.401 79.7041C476.21 79.7042 480.186 80.6015 482.707 82.563V91.5312C480.019 88.7843 475.762 87.1031 472.345 87.103C470.273 87.103 469.152 87.7198 469.152 88.8963C469.152 89.9615 470.049 90.354 472.121 90.8586L475.314 91.6436C479.963 92.8203 484.612 95.2315 484.612 101.509C484.612 108.235 479.291 112.327 472.065 112.327C465.624 112.327 460.191 109.02 460.191 104.087C460.191 99.771 464.503 98.2021 468.087 98.9301C467.864 99.4907 467.752 100.276 467.752 100.892C467.752 103.471 469.713 104.928 472.065 104.928C474.306 104.928 475.929 103.639 475.929 101.733C475.929 99.6589 474.081 98.6502 471.504 98.0335L468.2 97.2484C464.279 96.3513 460.639 93.8294 460.639 88.8405C460.639 83.7401 464.448 79.7041 472.401 79.7041ZM500.186 79.7041C508.083 79.7042 512.06 85.3651 512.396 93.661L495.984 99.3223C497.161 102.91 500.073 104.312 503.49 104.312C506.738 104.312 509.595 103.134 511.724 101.116C512.395 106.217 509.091 112.327 500.745 112.327C491.728 112.327 486.519 105.209 486.519 95.9596C486.519 87.2717 491.111 79.7041 500.186 79.7041ZM542.254 79.7041C552.391 79.7041 556.536 86.9351 556.536 96.0154C556.536 105.096 552.391 112.327 542.254 112.327C532.059 112.327 527.971 105.096 527.971 96.0154C527.971 86.9351 532.059 79.7041 542.254 79.7041ZM583.858 71.3521C585.145 71.3521 586.322 71.6323 587.498 72.0248C586.993 74.7712 586.826 77.6302 586.826 80.6015C588.954 80.6015 591.139 80.3208 593.043 79.7041C593.379 80.9929 593.491 82.0582 593.491 82.9552C593.491 86.7669 591.698 88.5041 588.393 88.5041H586.826V102.125C586.826 105.657 587.777 108.516 589.682 110.533C588.057 111.598 586.098 112.327 584.192 112.327C581.112 112.327 578.199 110.421 578.199 104.255V88.5041H570.862V102.125C570.862 105.657 571.815 108.516 573.719 110.533C572.095 111.598 570.134 112.327 568.174 112.327C565.149 112.327 562.236 110.421 562.236 104.255V88.5041C561.228 88.5042 559.379 88.6163 558.259 89.0087C557.811 87.6639 557.643 86.4866 557.643 85.3655C557.643 82.1706 559.492 80.6016 562.46 80.6015C562.46 78.8075 561.956 77.2938 561.956 76.0044C561.956 73.4263 564.309 71.3521 567.893 71.3521C569.182 71.3521 570.358 71.6323 571.534 72.0248C571.03 74.7712 570.862 77.6302 570.862 80.6015H578.423C578.423 78.8075 577.919 77.2938 577.919 76.0044C577.919 73.4263 580.273 71.3521 583.858 71.3521ZM607.457 79.7041C615.354 79.7041 619.331 85.3651 619.667 93.661L603.257 99.3223C604.433 102.91 607.345 104.312 610.762 104.312C614.01 104.312 616.867 103.134 618.996 101.116C619.667 106.217 616.363 112.327 608.018 112.327C598.999 112.327 593.791 105.209 593.791 95.9596C593.791 87.2718 598.383 79.7042 607.457 79.7041ZM673.893 79.7041C681.791 79.7042 685.768 85.3651 686.104 93.661L669.692 99.3223C670.869 102.91 673.781 104.312 677.197 104.312C680.446 104.312 683.303 103.134 685.431 101.116C686.103 106.217 682.799 112.327 674.453 112.327C665.435 112.327 660.226 105.209 660.226 95.9596C660.226 87.2717 664.819 79.7041 673.893 79.7041ZM697.46 71.3521C698.748 71.3521 699.925 71.6323 701.101 72.0248C700.597 74.7712 700.428 77.6302 700.428 80.6015C702.557 80.6015 704.741 80.3208 706.646 79.7041C706.982 80.9929 707.093 82.0582 707.093 82.9552C707.093 86.7669 705.302 88.5041 701.997 88.5041H700.428V102.125C700.428 105.657 701.381 108.516 703.284 110.533C701.661 111.598 699.7 112.327 697.74 112.327C694.715 112.327 691.803 110.421 691.803 104.255V88.5041C690.795 88.5041 688.945 88.6162 687.826 89.0087C687.378 87.6639 687.21 86.4866 687.21 85.3655C687.21 82.1705 689.058 80.6015 692.027 80.6015C692.027 78.8075 691.523 77.2938 691.523 76.0044C691.523 73.4263 693.875 71.3522 697.46 71.3521ZM656.976 102.406C656.976 105.545 657.256 108.74 657.984 111.431H647.286C648.014 108.74 648.294 105.545 648.294 102.406V90.3548C648.294 87.1598 647.846 84.0769 646.67 81.554L656.976 79.7041V102.406ZM401.765 102.406C401.765 105.545 402.045 108.74 402.773 111.43H392.13C392.859 108.74 393.139 105.545 393.139 102.406V73.9304C393.139 70.7355 392.691 68.045 391.515 65.6349C394.931 65.0182 398.684 64.0652 401.765 63V102.406ZM524.721 102.406C524.721 105.545 525.001 108.74 525.728 111.43H515.086C515.815 108.74 516.094 105.545 516.094 102.406V73.9304C516.094 70.7355 515.646 68.045 514.47 65.6349C517.887 65.0182 521.64 64.0652 524.721 63V102.406ZM638.602 79.7041C642.355 79.7042 645.547 82.1143 645.547 86.7108C645.547 91.1952 642.579 93.3247 638.322 93.3247C639.33 89.5131 637.986 87.664 635.914 87.664C632.833 87.6642 632.217 91.4197 632.217 97.1368V102.406C632.217 105.545 632.61 108.74 633.729 111.43H622.526C623.254 108.74 623.535 105.545 623.535 102.406V90.3541C623.535 87.1592 623.087 84.0762 621.911 81.5533L631.432 79.8165V84.5245C633.001 81.3857 635.41 79.7041 638.602 79.7041ZM417.897 98.986C415.153 98.986 413.248 100.219 413.248 102.294C413.248 104.311 415.153 105.601 417.897 105.601C420.641 105.601 422.658 104.311 422.658 102.294C422.658 100.219 420.641 98.986 417.897 98.986ZM542.254 87.7199C538.837 87.7199 536.931 90.8588 536.931 96.0154C536.931 101.172 538.837 104.312 542.254 104.312C545.67 104.312 547.63 101.172 547.63 96.0154C547.63 90.8588 545.67 87.7199 542.254 87.7199ZM500.353 87.1595C497.273 87.1595 495.704 90.018 495.424 93.8856L504.386 90.8028C504.05 88.8967 502.762 87.1596 500.353 87.1595ZM607.625 87.1595C604.544 87.1596 602.976 90.0181 602.696 93.8856L611.658 90.8028C611.322 88.8966 610.034 87.1595 607.625 87.1595ZM674.061 87.1595C670.981 87.1595 669.412 90.018 669.132 93.8856L678.094 90.8028C677.758 88.8967 676.469 87.1596 674.061 87.1595ZM718.806 65.7473C722.382 65.7473 724.999 68.406 725 71.894C725 75.3819 722.382 78.0938 718.806 78.0938C715.188 78.0938 712.571 75.3556 712.571 71.894C712.571 68.4324 715.226 65.7473 718.806 65.7473ZM718.806 66.9323C715.953 66.9323 713.928 68.9983 713.928 71.894C713.928 74.8291 716.006 76.9088 718.806 76.9088C721.607 76.9088 723.658 74.8028 723.658 71.894C723.658 68.9853 721.66 66.9323 718.806 66.9323ZM652.327 65.7473C656.192 65.7474 657.816 68.2696 657.816 70.6235C657.816 73.0342 656.192 75.5563 652.327 75.5563C648.463 75.5563 646.837 73.0343 646.837 70.6235C646.837 68.2695 648.462 65.7473 652.327 65.7473ZM719.455 68.6472C720.657 68.6473 721.448 69.3888 721.448 70.3989C721.447 71.2425 720.913 71.8181 720.03 72.0099C720.772 72.1761 721.102 72.7256 721.296 73.5694L721.615 74.9373H720.224L720.03 73.7616C719.888 72.8283 719.773 72.6105 718.743 72.6105H717.754V74.9373H716.468V68.6472H719.455ZM717.754 69.6958V71.5619H718.817C719.685 71.5619 720.161 71.2168 720.161 70.5777C720.161 69.9385 719.658 69.6958 718.817 69.6958H717.754Z" fill="#FFF0D3"/>
<path d="M79.1 308L61.3 243.8C59.7 238.3 57.9 232.9 55.5 228H78.2C77.1 231.9 77.5 236.2 78.6 240.6L89.6 284L100.7 240.6C101.8 236.2 102.2 231.9 101 228H122.7C120.3 232.9 118.5 238.3 116.9 243.8L99.1 308H79.1ZM144.033 309.6C127.633 309.6 118.533 296.7 118.533 280.4C118.533 265.1 126.433 251.4 143.133 251.4C157.633 251.4 164.633 261.6 165.233 276.8L136.533 286.5C138.733 292.3 143.533 294.3 149.333 294.3C154.933 294.3 160.033 292.4 163.933 288.9C165.333 298.2 159.533 309.6 144.033 309.6ZM135.433 276.5L150.033 271.5C149.533 268.6 147.433 265.6 143.433 265.6C138.333 265.6 135.833 270.4 135.433 276.5ZM191.298 309.6C179.898 309.6 169.998 304 169.998 295.1C169.998 287.2 177.998 284.3 184.798 285.7C184.398 286.7 184.198 288 184.198 289C184.198 293.1 187.398 295.6 191.298 295.6C194.898 295.6 197.498 293.5 197.498 290.5C197.498 287.1 194.298 285.4 189.998 284.4L184.198 283.1C176.998 281.5 170.698 277 170.698 268C170.698 258.9 177.198 251.4 191.998 251.4C198.698 251.4 205.898 252.9 210.398 256.3V273.1C205.598 268.3 197.898 265.5 191.898 265.5C188.598 265.5 186.898 266.3 186.898 268.1C186.898 269.8 188.398 270.4 191.898 271.2L197.298 272.5C205.398 274.5 213.998 278.7 213.998 290.1C213.998 301.9 204.498 309.6 191.298 309.6ZM235.449 309.6C229.849 309.6 224.249 306.4 224.249 295.3V268.1C222.549 268.1 219.149 268.3 217.249 269C216.449 266.5 216.049 264.2 216.049 262.1C216.049 256.1 219.349 253 224.649 253C224.649 249.8 223.749 247.3 223.749 245.1C223.749 240.3 228.249 236.5 235.049 236.5C237.549 236.5 239.849 237 241.949 237.7C241.049 242.5 240.749 247.5 240.749 253C244.549 253 248.549 252.5 251.849 251.4C252.449 253.8 252.649 255.9 252.649 257.6C252.649 264.8 249.249 268.1 243.149 268.1H240.749V291.3C240.749 297.5 242.349 302.6 245.849 306.3C242.749 308.3 239.049 309.6 235.449 309.6ZM264.94 329.6C261.34 329.6 257.54 328.3 254.04 326.3C257.24 323 259.14 319.5 259.14 311.3V270.3C259.14 264.6 258.74 259.4 256.04 254.8L275.64 251.4V317.3C275.64 326.4 270.54 329.6 264.94 329.6ZM267.34 244.8C260.04 244.8 257.04 240 257.04 235.6C257.04 231.2 260.04 226.4 267.34 226.4C274.64 226.4 277.64 231.2 277.64 235.6C277.64 240 274.64 244.8 267.34 244.8ZM292.767 328C295.867 323.1 298.367 317.8 300.367 312.5L301.967 308.2L288.067 268.6C286.267 263.2 284.067 257.9 281.667 253H303.967C302.867 256.9 303.367 261.2 304.667 265.6L310.667 286.2L317.467 265.5C318.867 261.2 319.467 256.9 318.367 253H339.067C336.667 257.9 334.567 263.2 332.667 268.5L315.967 315.6C314.467 319.9 313.767 324.1 314.967 328H292.767ZM359.948 309.6C345.948 309.6 338.748 296.5 338.748 280.5C338.748 264.5 345.948 251.4 359.948 251.4C365.148 251.4 369.548 253.1 372.748 256.9V245.7C372.748 240 371.948 234.6 369.748 230L389.248 226.4V291.3C389.248 297.5 390.848 302.6 394.348 306.3C391.448 308.2 388.048 309.6 384.348 309.6C379.948 309.6 375.848 307.5 374.348 301.9C371.148 307.1 366.048 309.6 359.948 309.6ZM364.448 294.3C369.948 294.3 372.948 289 372.948 280.5C372.948 272 369.948 266.7 364.448 266.7C358.848 266.7 355.748 272 355.748 280.5C355.748 289 358.848 294.3 364.448 294.3ZM422.939 309.6C406.539 309.6 397.439 296.7 397.439 280.4C397.439 265.1 405.339 251.4 422.039 251.4C436.539 251.4 443.539 261.6 444.139 276.8L415.439 286.5C417.639 292.3 422.439 294.3 428.239 294.3C433.839 294.3 438.939 292.4 442.839 288.9C444.239 298.2 438.439 309.6 422.939 309.6ZM414.339 276.5L428.939 271.5C428.439 268.6 426.339 265.6 422.339 265.6C417.239 265.6 414.739 270.4 414.339 276.5ZM470.123 328C471.523 323.1 472.023 317.6 472.023 311.9V270.5C472.023 264.8 471.223 259.4 469.023 254.8L486.923 251.6V259.2C490.123 253.9 495.223 251.4 501.323 251.4C515.323 251.4 522.523 264.5 522.523 280.5C522.523 296.5 515.323 309.6 501.323 309.6C496.123 309.6 491.723 307.9 488.523 304.1V311.9C488.523 317.6 489.323 323.1 491.423 328H470.123ZM496.823 294.3C502.423 294.3 505.523 289 505.523 280.5C505.523 272 502.423 266.7 496.823 266.7C491.323 266.7 488.323 272 488.323 280.5C488.323 289 491.323 294.3 496.823 294.3ZM528.522 308C529.922 303.1 530.422 297.6 530.422 291.9V270.5C530.422 264.8 529.622 259.4 527.422 254.8L545.322 251.6V260.1C548.122 254.4 552.522 251.4 558.222 251.4C564.922 251.4 570.822 255.7 570.822 264.2C570.822 272.5 565.322 276.6 557.222 276.6C559.022 269.7 556.622 266.6 553.022 266.6C547.722 266.6 546.922 273.1 546.922 283.3V291.9C546.922 297.6 547.722 303.1 549.822 308H528.522ZM599.416 309.6C593.116 309.6 588.116 308.1 584.316 305.5L582.316 308H572.316L578.716 300C575.216 294.9 573.616 288 573.616 280.5C573.616 264.5 580.816 251.4 599.416 251.4C605.616 251.4 610.516 252.8 614.416 255.4L616.416 253H626.416L620.016 261C623.616 266.1 625.216 273 625.216 280.5C625.216 296.5 618.016 309.6 599.416 309.6ZM599.416 294.7C605.116 294.7 608.216 289 608.216 280.5C608.216 279 608.116 277.5 607.916 276.2L594.516 292.9C595.716 294 597.416 294.7 599.416 294.7ZM590.916 284.8L604.316 268.1C603.116 267 601.416 266.3 599.416 266.3C593.716 266.3 590.616 272 590.616 280.5C590.616 282 590.716 283.5 590.916 284.8ZM643.996 308L632.296 268.7C630.696 263.2 628.696 257.9 626.296 253H648.096C646.996 256.9 647.396 261.2 648.496 265.6L654.596 288.5L661.196 265.6C662.396 261.2 662.896 256.9 661.796 253H682.496C680.096 257.9 678.096 263.2 676.296 268.6L663.596 308H643.996ZM707.705 309.6C691.305 309.6 682.205 296.7 682.205 280.4C682.205 265.1 690.105 251.4 706.805 251.4C721.305 251.4 728.305 261.6 728.905 276.8L700.205 286.5C702.405 292.3 707.205 294.3 713.005 294.3C718.605 294.3 723.705 292.4 727.605 288.9C729.005 298.2 723.205 309.6 707.705 309.6ZM699.105 276.5L713.705 271.5C713.205 268.6 711.105 265.6 707.105 265.6C702.005 265.6 699.505 270.4 699.105 276.5ZM734.87 308C736.27 303.1 736.77 297.6 736.77 291.9V270.5C736.77 264.8 735.97 259.4 733.77 254.8L751.67 251.6V260.1C754.47 254.4 758.87 251.4 764.57 251.4C771.27 251.4 777.17 255.7 777.17 264.2C777.17 272.5 771.67 276.6 763.57 276.6C765.37 269.7 762.97 266.6 759.37 266.6C754.07 266.6 753.27 273.1 753.27 283.3V291.9C753.27 297.6 754.07 303.1 756.17 308H734.87ZM58.9 420C60.3 415.1 60.8 409.6 60.8 403.9V356.1C60.8 350.4 60.3 344.9 58.9 340H80.3C78.9 344.9 78.4 350.4 78.4 356.1V372.2C85.7 363.1 92.6 351.2 94.3 340H114.3C110.6 351.6 105.6 360.3 96.2 370.7C106.8 372.9 111.4 382.1 112.4 393.1L113.5 404.7C114.1 411.2 116.1 415.8 119.6 420H98.8C96.7 415.4 96 411.3 95.7 407.1L94.9 393.8C94.5 387.5 91.6 384.4 86.8 384.4C82 384.4 78.4 387.5 78.4 393.9V403.9C78.4 409.6 79.1 415.1 80.9 420H58.9ZM124.413 420C125.813 415.1 126.313 409.6 126.313 403.9V357.7C126.313 352 125.513 346.6 123.313 342L142.813 338.4V403.9C142.813 409.6 143.313 415.1 144.713 420H124.413ZM168.869 421.6C157.869 421.6 150.469 414.8 150.469 404.5C150.469 394 158.169 388.7 169.769 388.7C174.869 388.7 178.969 389.8 181.869 391.7V385.3C181.869 380.2 178.769 377.9 174.569 377.9C170.769 377.9 167.469 379.8 167.469 383.6C167.469 384.5 167.669 385.6 167.969 386.5C161.269 387.9 153.469 384.7 153.469 376.9C153.469 367.9 163.769 363.4 174.669 363.4C188.669 363.4 198.369 371 198.369 382.9V403.3C198.369 409.5 199.969 414.6 203.469 418.3C200.569 420.2 197.169 421.6 193.469 421.6C189.369 421.6 185.669 420 183.869 415.1C180.669 419.1 175.569 421.6 168.869 421.6ZM174.669 408.9C179.169 408.9 182.469 406.9 182.469 403.6C182.469 400.3 179.169 398.4 174.669 398.4C170.169 398.4 166.969 400.3 166.969 403.6C166.969 406.9 170.169 408.9 174.669 408.9ZM227.626 421.6C216.226 421.6 206.326 416 206.326 407.1C206.326 399.2 214.326 396.3 221.126 397.7C220.726 398.7 220.526 400 220.526 401C220.526 405.1 223.726 407.6 227.626 407.6C231.226 407.6 233.826 405.5 233.826 402.5C233.826 399.1 230.626 397.4 226.326 396.4L220.526 395.1C213.326 393.5 207.026 389 207.026 380C207.026 370.9 213.526 363.4 228.326 363.4C235.026 363.4 242.226 364.9 246.726 368.3V385.1C241.926 380.3 234.226 377.5 228.226 377.5C224.926 377.5 223.226 378.3 223.226 380.1C223.226 381.8 224.726 382.4 228.226 383.2L233.626 384.5C241.726 386.5 250.326 390.7 250.326 402.1C250.326 413.9 240.826 421.6 227.626 421.6ZM276.454 421.6C265.054 421.6 255.154 416 255.154 407.1C255.154 399.2 263.154 396.3 269.954 397.7C269.554 398.7 269.354 400 269.354 401C269.354 405.1 272.554 407.6 276.454 407.6C280.054 407.6 282.654 405.5 282.654 402.5C282.654 399.1 279.454 397.4 275.154 396.4L269.354 395.1C262.154 393.5 255.854 389 255.854 380C255.854 370.9 262.354 363.4 277.154 363.4C283.854 363.4 291.054 364.9 295.554 368.3V385.1C290.754 380.3 283.054 377.5 277.054 377.5C273.754 377.5 272.054 378.3 272.054 380.1C272.054 381.8 273.554 382.4 277.054 383.2L282.454 384.5C290.554 386.5 299.154 390.7 299.154 402.1C299.154 413.9 289.654 421.6 276.454 421.6ZM329.482 421.6C313.082 421.6 303.982 408.7 303.982 392.4C303.982 377.1 311.882 363.4 328.582 363.4C343.082 363.4 350.082 373.6 350.682 388.8L321.982 398.5C324.182 404.3 328.982 406.3 334.782 406.3C340.382 406.3 345.482 404.4 349.382 400.9C350.782 410.2 344.982 421.6 329.482 421.6ZM320.882 388.5L335.482 383.5C334.982 380.6 332.882 377.6 328.882 377.6C323.782 377.6 321.282 382.4 320.882 388.5ZM356.347 420C357.747 415.1 358.247 409.6 358.247 403.9V357.7C358.247 352 357.447 346.6 355.247 342L374.747 338.4V403.9C374.747 409.6 375.247 415.1 376.647 420H356.347ZM408.102 421.6C389.502 421.6 382.302 408.5 382.302 392.5C382.302 376.5 389.502 363.4 408.102 363.4C426.702 363.4 433.902 376.5 433.902 392.5C433.902 408.5 426.702 421.6 408.102 421.6ZM408.102 406.3C413.802 406.3 416.902 401 416.902 392.5C416.902 384 413.802 378.7 408.102 378.7C402.402 378.7 399.302 384 399.302 392.5C399.302 401 402.402 406.3 408.102 406.3ZM456.348 421.6C450.748 421.6 445.148 418.4 445.148 407.3V380.1C443.448 380.1 440.048 380.3 438.148 381C437.348 378.5 436.948 376.2 436.948 374.1C436.948 368.1 440.248 365 445.548 365C445.548 361.8 444.648 359.3 444.648 357.1C444.648 352.3 449.148 348.5 455.948 348.5C458.448 348.5 460.748 349 462.848 349.7C461.948 354.5 461.648 359.5 461.648 365H474.448C474.448 361.8 473.548 359.3 473.548 357.1C473.548 352.3 478.048 348.5 484.848 348.5C487.348 348.5 489.648 349 491.748 349.7C490.848 354.5 490.548 359.5 490.548 365C494.348 365 498.348 364.5 501.648 363.4C502.248 365.8 502.448 367.9 502.448 369.6C502.448 376.8 499.048 380.1 492.948 380.1H490.548V403.3C490.548 409.5 492.148 414.6 495.648 418.3C492.548 420.3 488.848 421.6 485.248 421.6C479.648 421.6 474.048 418.4 474.048 407.3V380.1H461.648V403.3C461.648 409.5 463.248 414.6 466.748 418.3C463.648 420.3 459.948 421.6 456.348 421.6ZM529.189 421.6C512.789 421.6 503.689 408.7 503.689 392.4C503.689 377.1 511.589 363.4 528.289 363.4C542.789 363.4 549.789 373.6 550.389 388.8L521.689 398.5C523.889 404.3 528.689 406.3 534.489 406.3C540.089 406.3 545.189 404.4 549.089 400.9C550.489 410.2 544.689 421.6 529.189 421.6ZM520.589 388.5L535.189 383.5C534.689 380.6 532.589 377.6 528.589 377.6C523.489 377.6 520.989 382.4 520.589 388.5ZM556.354 420C557.754 415.1 558.254 409.6 558.254 403.9V382.5C558.254 376.8 557.454 371.4 555.254 366.8L573.154 363.6V372.1C575.954 366.4 580.354 363.4 586.054 363.4C592.754 363.4 598.654 367.7 598.654 376.2C598.654 384.5 593.154 388.6 585.054 388.6C586.854 381.7 584.454 378.6 580.854 378.6C575.554 378.6 574.754 385.1 574.754 395.3V403.9C574.754 409.6 575.554 415.1 577.654 420H556.354ZM602.936 420C604.336 415.1 604.836 409.6 604.836 403.9V382.5C604.836 376.8 604.036 371.4 601.836 366.8L621.336 363.4V403.9C621.336 409.6 621.836 415.1 623.236 420H602.936ZM612.536 356.8C605.236 356.8 602.236 352 602.236 347.6C602.236 343.2 605.236 338.4 612.536 338.4C619.836 338.4 622.836 343.2 622.836 347.6C622.836 352 619.836 356.8 612.536 356.8ZM654.482 421.6C638.082 421.6 628.982 408.7 628.982 392.4C628.982 377.1 636.882 363.4 653.582 363.4C668.082 363.4 675.082 373.6 675.682 388.8L646.982 398.5C649.182 404.3 653.982 406.3 659.782 406.3C665.382 406.3 670.482 404.4 674.382 400.9C675.782 410.2 669.982 421.6 654.482 421.6ZM645.882 388.5L660.482 383.5C659.982 380.6 657.882 377.6 653.882 377.6C648.782 377.6 646.282 382.4 645.882 388.5ZM698.047 421.6C692.447 421.6 686.847 418.4 686.847 407.3V380.1C685.147 380.1 681.747 380.3 679.847 381C679.047 378.5 678.647 376.2 678.647 374.1C678.647 368.1 681.947 365 687.247 365C687.247 361.8 686.347 359.3 686.347 357.1C686.347 352.3 690.847 348.5 697.647 348.5C700.147 348.5 702.447 349 704.547 349.7C703.647 354.5 703.347 359.5 703.347 365C707.147 365 711.147 364.5 714.447 363.4C715.047 365.8 715.247 367.9 715.247 369.6C715.247 376.8 711.847 380.1 705.747 380.1H703.347V403.3C703.347 409.5 704.947 414.6 708.447 418.3C705.347 420.3 701.647 421.6 698.047 421.6ZM83.2 533.6C64.6 533.6 57.4 520.5 57.4 504.5C57.4 488.5 64.6 475.4 83.2 475.4C101.8 475.4 109 488.5 109 504.5C109 520.5 101.8 533.6 83.2 533.6ZM83.2 518.3C88.9 518.3 92 513 92 504.5C92 496 88.9 490.7 83.2 490.7C77.5 490.7 74.4 496 74.4 504.5C74.4 513 77.5 518.3 83.2 518.3ZM149.834 553.6C150.234 547.6 144.434 545.6 137.634 544L130.034 542.3C122.934 540.6 116.734 538 116.734 530.8C116.734 526.1 119.334 522.7 124.534 520.7C117.534 516.2 114.634 508.1 114.634 499.9C114.634 488.5 120.234 477.3 134.534 475.6C133.734 472.1 132.934 467.4 132.934 463.5C132.934 453.8 138.234 450.4 143.134 450.4C147.934 450.4 152.034 453.7 152.034 459.1C152.034 466.8 143.834 468 143.334 475.8C156.934 477.9 162.234 488.8 162.234 499.9C162.234 512.3 155.634 524.4 138.434 524.4C135.534 524.4 133.134 524.8 133.134 526.9C133.134 528.5 134.534 529.4 138.434 529.9L150.334 531.2C158.534 532.1 164.834 535.4 164.834 542.2C164.834 550.9 154.734 553.5 149.834 553.6ZM138.434 509.6C143.334 509.6 146.034 505.3 146.034 499.9C146.034 494.5 143.334 490.2 138.434 490.2C133.534 490.2 130.834 494.5 130.834 499.9C130.834 505.3 133.534 509.6 138.434 509.6ZM202.785 532L191.085 492.7C189.485 487.2 187.485 481.9 185.085 477H206.885C205.785 480.9 206.185 485.2 207.285 489.6L213.385 512.5L219.985 489.6C221.185 485.2 221.685 480.9 220.585 477H241.285C238.885 481.9 236.885 487.2 235.085 492.6L222.385 532H202.785ZM245.221 532C246.621 527.1 247.121 521.6 247.121 515.9V494.5C247.121 488.8 246.321 483.4 244.121 478.8L263.621 475.4V515.9C263.621 521.6 264.121 527.1 265.521 532H245.221ZM254.821 468.8C247.521 468.8 244.521 464 244.521 459.6C244.521 455.2 247.521 450.4 254.821 450.4C262.121 450.4 265.121 455.2 265.121 459.6C265.121 464 262.121 468.8 254.821 468.8ZM272.467 532C273.867 527.1 274.367 521.6 274.367 515.9V494.5C274.367 488.8 273.567 483.4 271.367 478.8L289.267 475.6V483.6C292.067 478.2 296.767 475.4 303.567 475.4C316.267 475.4 320.367 485.4 320.367 497.2V515.9C320.367 521.6 320.867 527.1 322.267 532H301.967C303.367 527.1 303.867 521.6 303.867 515.9V498.7C303.867 493.7 302.267 490.6 298.467 490.6C292.967 490.6 290.867 497.1 290.867 505.3V515.9C290.867 521.6 291.367 527.1 292.767 532H272.467ZM348.913 533.6C334.913 533.6 327.713 520.5 327.713 504.5C327.713 488.5 334.913 475.4 348.913 475.4C354.113 475.4 358.513 477.1 361.713 480.9V469.7C361.713 464 360.913 458.6 358.713 454L378.213 450.4V515.3C378.213 521.5 379.813 526.6 383.313 530.3C380.412 532.2 377.013 533.6 373.313 533.6C368.913 533.6 364.813 531.5 363.313 525.9C360.113 531.1 355.013 533.6 348.913 533.6ZM353.413 518.3C358.913 518.3 361.913 513 361.913 504.5C361.913 496 358.913 490.7 353.413 490.7C347.813 490.7 344.713 496 344.713 504.5C344.713 513 347.813 518.3 353.413 518.3ZM411.904 533.6C395.504 533.6 386.404 520.7 386.404 504.4C386.404 489.1 394.304 475.4 411.004 475.4C425.504 475.4 432.504 485.6 433.104 500.8L404.404 510.5C406.604 516.3 411.404 518.3 417.204 518.3C422.804 518.3 427.904 516.4 431.804 512.9C433.204 522.2 427.404 533.6 411.904 533.6ZM403.304 500.5L417.904 495.5C417.404 492.6 415.304 489.6 411.304 489.6C406.204 489.6 403.704 494.4 403.304 500.5ZM439.069 532C440.469 527.1 440.969 521.6 440.969 515.9V494.5C440.969 488.8 440.169 483.4 437.969 478.8L455.869 475.6V484.1C458.669 478.4 463.069 475.4 468.769 475.4C475.469 475.4 481.369 479.7 481.369 488.2C481.369 496.5 475.869 500.6 467.769 500.6C469.569 493.7 467.169 490.6 463.569 490.6C458.269 490.6 457.469 497.1 457.469 507.3V515.9C457.469 521.6 458.269 527.1 460.369 532H439.069ZM58.3 644C59.7 639.1 60.2 633.6 60.2 627.9V581.7C60.2 576 59.4 570.6 57.2 566L76.7 562.4V593.8C79.3 589.7 83.4 587.4 89.4 587.4C102.1 587.4 106.2 597.4 106.2 609.2V627.9C106.2 633.6 106.7 639.1 108.1 644H87.8C89.2 639.1 89.7 633.6 89.7 627.9V610.7C89.7 605.7 88.1 602.6 84.3 602.6C78.8 602.6 76.7 609.1 76.7 617.3V627.9C76.7 633.6 77.2 639.1 78.6 644H58.3ZM138.955 645.6C122.555 645.6 113.455 632.7 113.455 616.4C113.455 601.1 121.355 587.4 138.055 587.4C152.555 587.4 159.555 597.6 160.155 612.8L131.455 622.5C133.655 628.3 138.455 630.3 144.255 630.3C149.855 630.3 154.955 628.4 158.855 624.9C160.255 634.2 154.455 645.6 138.955 645.6ZM130.355 612.5L144.955 607.5C144.455 604.6 142.355 601.6 138.355 601.6C133.255 601.6 130.755 606.4 130.355 612.5ZM165.82 644C167.22 639.1 167.72 633.6 167.72 627.9V581.7C167.72 576 166.92 570.6 164.72 566L184.22 562.4V627.9C184.22 633.6 184.72 639.1 186.12 644H165.82ZM217.275 645.6C200.875 645.6 191.775 632.7 191.775 616.4C191.775 601.1 199.675 587.4 216.375 587.4C230.875 587.4 237.875 597.6 238.475 612.8L209.775 622.5C211.975 628.3 216.775 630.3 222.575 630.3C228.175 630.3 233.275 628.4 237.175 624.9C238.575 634.2 232.775 645.6 217.275 645.6ZM208.675 612.5L223.275 607.5C222.775 604.6 220.675 601.6 216.675 601.6C211.575 601.6 209.075 606.4 208.675 612.5ZM287.059 645.6C271.759 645.6 263.259 635.7 263.259 625.6C263.259 616.4 270.259 612 277.259 612C278.759 612 280.059 612.2 281.259 612.5C280.559 613.9 279.859 616.3 279.859 619.4C279.859 625.4 282.259 629.6 287.059 629.6C291.759 629.6 294.859 625.6 294.859 618.3C294.859 608.9 289.059 605.6 280.759 605.6C276.459 605.6 271.659 606.5 267.459 608.4L272.259 562.5C276.659 563.6 283.059 564.9 291.159 564.9C298.159 564.9 303.759 563.9 307.659 562.4C308.059 564 308.359 565.9 308.359 568C308.359 574.4 305.459 581.7 295.459 581.7C293.159 581.7 290.259 581.3 286.759 580.1L285.859 590.1C302.459 590.1 312.659 600.4 312.659 617.7C312.659 635.2 302.459 645.6 287.059 645.6ZM341.849 645.6C326.549 645.6 318.049 635.7 318.049 625.6C318.049 616.4 325.049 612 332.049 612C333.549 612 334.849 612.2 336.049 612.5C335.349 613.9 334.649 616.3 334.649 619.4C334.649 625.4 337.049 629.6 341.949 629.6C346.549 629.6 349.749 625.8 349.749 617.7C349.749 608.8 345.949 602.6 334.249 602.6C332.749 602.6 330.949 602.7 329.149 603L341.349 580H333.149C328.549 580 324.149 580.6 320.249 582.5V564H368.549L353.549 592.9C362.149 597 367.549 605.5 367.549 618C367.549 635.3 357.249 645.6 341.849 645.6ZM375.209 644C377.209 639.1 377.909 633.6 377.909 627.9V587.5C377.909 581.8 376.809 576.7 373.409 572.8L395.409 562.4V627.9C395.409 633.6 396.109 639.1 398.109 644H375.209ZM416.673 645.6C410.373 645.6 405.673 640.7 405.673 634.6C405.673 628.5 410.373 623.6 416.673 623.6C422.973 623.6 427.673 628.5 427.673 634.6C427.673 640.7 422.973 645.6 416.673 645.6ZM434.767 644C434.767 614 465.567 605.2 465.567 587.2C465.567 582 462.967 578.4 458.467 578.4C453.367 578.4 450.467 583.1 450.467 588.9C450.467 592.2 451.367 594.6 452.067 596C450.867 596.3 449.567 596.5 448.067 596.5C441.067 596.5 434.067 592.1 434.067 582.9C434.067 572.5 442.967 562.4 458.467 562.4C473.367 562.4 483.367 571.7 483.367 587.2C483.367 607.4 465.967 614.3 457.467 628H470.967C475.567 628 479.967 627 483.867 624.2V644H434.767ZM516.822 645.6C499.822 645.6 490.222 635.2 490.222 620.9C490.222 612.1 494.022 604.8 501.322 601.3C494.922 598.1 492.022 591.7 492.022 583.9C492.022 571.9 500.222 562.4 516.822 562.4C533.422 562.4 541.622 571.9 541.622 583.9C541.622 591.7 538.722 598.1 532.322 601.3C539.622 604.8 543.422 612.1 543.422 620.9C543.422 635.2 533.822 645.6 516.822 645.6ZM516.822 629.2C521.922 629.2 524.822 624.7 524.822 618C524.822 611.3 522.022 606.7 516.822 606.7C511.622 606.7 508.822 611.3 508.822 618C508.822 624.7 511.722 629.2 516.822 629.2ZM516.822 595.1C521.122 595.1 523.322 591.6 523.322 586.9C523.322 582.4 521.122 578.8 516.822 578.8C512.522 578.8 510.322 582.4 510.322 586.9C510.322 591.6 512.522 595.1 516.822 595.1ZM576.511 645.6C558.111 645.6 549.511 630.6 549.511 604C549.511 577.4 558.111 562.4 576.511 562.4C594.911 562.4 603.511 577.4 603.511 604C603.511 630.6 594.911 645.6 576.511 645.6ZM576.511 629.2C582.511 629.2 585.511 620.9 585.511 604C585.511 587.1 582.511 578.8 576.511 578.8C570.511 578.8 567.511 587.1 567.511 604C567.511 620.9 570.511 629.2 576.511 629.2ZM630.175 644C631.575 639.1 632.075 633.6 632.075 627.9V581.7C632.075 576 631.275 570.6 629.075 566L648.575 562.4V591.8C652.775 588.6 657.675 587.4 662.575 587.4C674.775 587.4 680.675 595.7 680.675 605.7C680.675 613.1 677.575 618.4 671.075 621.4C673.975 629.2 678.075 636.6 683.575 644H664.075C660.675 638.1 658.175 631.8 656.875 625.6H648.575V627.9C648.575 633.6 649.075 639.1 650.475 644H630.175ZM648.575 614.9H655.775C660.675 614.9 663.675 612.2 663.675 608.1C663.675 604.6 661.475 601.8 657.375 601.8C652.675 601.8 648.575 605.5 648.575 613V614.9ZM689.069 644C690.469 639.1 690.969 633.6 690.969 627.9V606.5C690.969 600.8 690.169 595.4 687.969 590.8L705.869 587.6V596.1C708.669 590.4 713.069 587.4 718.769 587.4C725.469 587.4 731.369 591.7 731.369 600.2C731.369 608.5 725.869 612.6 717.769 612.6C719.569 605.7 717.169 602.6 713.569 602.6C708.269 602.6 707.469 609.1 707.469 619.3V627.9C707.469 633.6 708.269 639.1 710.369 644H689.069ZM736.79 645.6C730.49 645.6 725.79 640.7 725.79 634.6C725.79 628.5 730.49 623.6 736.79 623.6C743.09 623.6 747.79 628.5 747.79 634.6C747.79 640.7 743.09 645.6 736.79 645.6Z" fill="#FFF0D3"/>
<path d="M60.134 723.468C57.924 723.468 56.258 721.7 56.258 719.32C56.258 716.294 58.876 714.186 58.876 711.568C58.876 710.888 58.706 710.208 58.264 709.46C60.27 708.916 62.718 709.562 62.718 712.01C62.718 713.744 61.494 714.866 60.236 715.988C62.276 716.022 63.874 717.688 63.874 719.728C63.874 721.802 62.276 723.468 60.134 723.468ZM69.416 723.468C67.206 723.468 65.54 721.7 65.54 719.32C65.54 716.294 68.158 714.186 68.158 711.568C68.158 710.888 67.988 710.208 67.546 709.46C69.552 708.916 72 709.562 72 712.01C72 713.744 70.776 714.866 69.518 715.988C71.558 716.022 73.156 717.688 73.156 719.728C73.156 721.802 71.558 723.468 69.416 723.468ZM82.6178 737L76.5658 715.172C76.0218 713.302 75.4098 711.466 74.5938 709.8H82.3118C81.9378 711.126 82.0738 712.588 82.4478 714.084L86.1878 728.84L89.9618 714.084C90.3358 712.588 90.4718 711.126 90.0638 709.8H97.4418C96.6258 711.466 96.0138 713.302 95.4698 715.172L89.4178 737H82.6178ZM98.4916 737C98.9676 735.334 99.1376 733.464 99.1376 731.526V724.25C99.1376 722.312 98.8656 720.476 98.1176 718.912L104.748 717.756V731.526C104.748 733.464 104.918 735.334 105.394 737H98.4916ZM101.756 715.512C99.2736 715.512 98.2536 713.88 98.2536 712.384C98.2536 710.888 99.2736 709.256 101.756 709.256C104.238 709.256 105.258 710.888 105.258 712.384C105.258 713.88 104.238 715.512 101.756 715.512ZM122.824 737.544C117.248 737.544 114.154 733.158 114.154 727.616C114.154 722.414 116.84 717.756 122.518 717.756C127.448 717.756 129.828 721.224 130.032 726.392L120.274 729.69C121.022 731.662 122.654 732.342 124.626 732.342C126.53 732.342 128.264 731.696 129.59 730.506C130.066 733.668 128.094 737.544 122.824 737.544ZM119.9 726.29L124.864 724.59C124.694 723.604 123.98 722.584 122.62 722.584C120.886 722.584 120.036 724.216 119.9 726.29ZM132.06 737C132.536 735.334 132.706 733.464 132.706 731.526V724.25C132.706 722.312 132.434 720.476 131.686 718.912L137.772 717.824V720.714C138.724 718.776 140.22 717.756 142.158 717.756C144.436 717.756 146.442 719.218 146.442 722.108C146.442 724.93 144.572 726.324 141.818 726.324C142.43 723.978 141.614 722.924 140.39 722.924C138.588 722.924 138.316 725.134 138.316 728.602V731.526C138.316 733.464 138.588 735.334 139.302 737H132.06ZM154.704 743.8C155.18 742.134 155.35 740.264 155.35 738.326V724.25C155.35 722.312 155.078 720.476 154.33 718.912L160.416 717.824V720.408C161.504 718.606 163.238 717.756 165.312 717.756C170.072 717.756 172.52 722.21 172.52 727.65C172.52 733.09 170.072 737.544 165.312 737.544C163.544 737.544 162.048 736.966 160.96 735.674V738.326C160.96 740.264 161.232 742.134 161.946 743.8H154.704ZM163.782 732.342C165.686 732.342 166.74 730.54 166.74 727.65C166.74 724.76 165.686 722.958 163.782 722.958C161.912 722.958 160.892 724.76 160.892 727.65C160.892 730.54 161.912 732.342 163.782 732.342ZM180.442 737.544C176.702 737.544 174.186 735.232 174.186 731.73C174.186 728.16 176.804 726.358 180.748 726.358C182.482 726.358 183.876 726.732 184.862 727.378V725.202C184.862 723.468 183.808 722.686 182.38 722.686C181.088 722.686 179.966 723.332 179.966 724.624C179.966 724.93 180.034 725.304 180.136 725.61C177.858 726.086 175.206 724.998 175.206 722.346C175.206 719.286 178.708 717.756 182.414 717.756C187.174 717.756 190.472 720.34 190.472 724.386V731.322C190.472 733.43 191.016 735.164 192.206 736.422C191.22 737.068 190.064 737.544 188.806 737.544C187.412 737.544 186.154 737 185.542 735.334C184.454 736.694 182.72 737.544 180.442 737.544ZM182.414 733.226C183.944 733.226 185.066 732.546 185.066 731.424C185.066 730.302 183.944 729.656 182.414 729.656C180.884 729.656 179.796 730.302 179.796 731.424C179.796 732.546 180.884 733.226 182.414 733.226ZM182.414 716.226C180.068 716.226 178.3 714.56 178.3 712.282C178.3 710.004 180.068 708.338 182.414 708.338C184.76 708.338 186.528 710.004 186.528 712.282C186.528 714.56 184.76 716.226 182.414 716.226ZM182.414 714.254C183.638 714.254 184.488 713.438 184.488 712.282C184.488 711.126 183.638 710.31 182.414 710.31C181.19 710.31 180.34 711.126 180.34 712.282C180.34 713.438 181.19 714.254 182.414 714.254ZM208.654 737.544C203.078 737.544 199.984 733.158 199.984 727.616C199.984 722.414 202.67 717.756 208.348 717.756C213.278 717.756 215.658 721.224 215.862 726.392L206.104 729.69C206.852 731.662 208.484 732.342 210.456 732.342C212.36 732.342 214.094 731.696 215.42 730.506C215.896 733.668 213.924 737.544 208.654 737.544ZM205.73 726.29L210.694 724.59C210.524 723.604 209.81 722.584 208.45 722.584C206.716 722.584 205.866 724.216 205.73 726.29ZM217.89 737C218.366 735.334 218.536 733.464 218.536 731.526V724.25C218.536 722.312 218.264 720.476 217.516 718.912L223.602 717.824V720.544C224.554 718.708 226.152 717.756 228.464 717.756C232.782 717.756 234.176 721.156 234.176 725.168V731.526C234.176 733.464 234.346 735.334 234.822 737H227.92C228.396 735.334 228.566 733.464 228.566 731.526V725.678C228.566 723.978 228.022 722.924 226.73 722.924C224.86 722.924 224.146 725.134 224.146 727.922V731.526C224.146 733.464 224.316 735.334 224.792 737H217.89ZM243.786 737C244.262 735.334 244.432 733.464 244.432 731.526V715.818C244.432 713.88 244.16 712.044 243.412 710.48L250.042 709.256V731.526C250.042 733.464 250.212 735.334 250.688 737H243.786ZM255.173 743.8C256.227 742.134 257.077 740.332 257.757 738.53L258.301 737.068L253.575 723.604C252.963 721.768 252.215 719.966 251.399 718.3H258.981C258.607 719.626 258.777 721.088 259.219 722.584L261.259 729.588L263.571 722.55C264.047 721.088 264.251 719.626 263.877 718.3H270.915C270.099 719.966 269.385 721.768 268.739 723.57L263.061 739.584C262.551 741.046 262.313 742.474 262.721 743.8H255.173ZM278.413 737.544C274.537 737.544 271.171 735.64 271.171 732.614C271.171 729.928 273.891 728.942 276.203 729.418C276.067 729.758 275.999 730.2 275.999 730.54C275.999 731.934 277.087 732.784 278.413 732.784C279.637 732.784 280.521 732.07 280.521 731.05C280.521 729.894 279.433 729.316 277.971 728.976L275.999 728.534C273.551 727.99 271.409 726.46 271.409 723.4C271.409 720.306 273.619 717.756 278.651 717.756C280.929 717.756 283.377 718.266 284.907 719.422V725.134C283.275 723.502 280.657 722.55 278.617 722.55C277.495 722.55 276.917 722.822 276.917 723.434C276.917 724.012 277.427 724.216 278.617 724.488L280.453 724.93C283.207 725.61 286.131 727.038 286.131 730.914C286.131 734.926 282.901 737.544 278.413 737.544ZM296.443 737.544C290.867 737.544 287.773 733.158 287.773 727.616C287.773 722.414 290.459 717.756 296.137 717.756C301.067 717.756 303.447 721.224 303.651 726.392L293.893 729.69C294.641 731.662 296.273 732.342 298.245 732.342C300.149 732.342 301.883 731.696 303.209 730.506C303.685 733.668 301.713 737.544 296.443 737.544ZM293.519 726.29L298.483 724.59C298.313 723.604 297.599 722.584 296.239 722.584C294.505 722.584 293.655 724.216 293.519 726.29ZM305.679 737C306.155 735.334 306.325 733.464 306.325 731.526V724.25C306.325 722.312 306.053 720.476 305.305 718.912L311.391 717.824V720.714C312.343 718.776 313.839 717.756 315.777 717.756C318.055 717.756 320.061 719.218 320.061 722.108C320.061 724.93 318.191 726.324 315.437 726.324C316.049 723.978 315.233 722.924 314.009 722.924C312.207 722.924 311.935 725.134 311.935 728.602V731.526C311.935 733.464 312.207 735.334 312.921 737H305.679ZM329.783 737.544C327.641 737.544 325.941 737.034 324.649 736.15L323.969 737H320.569L322.745 734.28C321.555 732.546 321.011 730.2 321.011 727.65C321.011 722.21 323.459 717.756 329.783 717.756C331.891 717.756 333.557 718.232 334.883 719.116L335.563 718.3H338.963L336.787 721.02C338.011 722.754 338.555 725.1 338.555 727.65C338.555 733.09 336.107 737.544 329.783 737.544ZM329.783 732.478C331.721 732.478 332.775 730.54 332.775 727.65C332.775 727.14 332.741 726.63 332.673 726.188L328.117 731.866C328.525 732.24 329.103 732.478 329.783 732.478ZM326.893 729.112L331.449 723.434C331.041 723.06 330.463 722.822 329.783 722.822C327.845 722.822 326.791 724.76 326.791 727.65C326.791 728.16 326.825 728.67 326.893 729.112ZM347.807 737.544C343.047 737.544 340.599 733.09 340.599 727.65C340.599 722.21 343.047 717.756 347.807 717.756C349.575 717.756 351.071 718.334 352.159 719.626V715.818C352.159 713.88 351.887 712.044 351.139 710.48L357.769 709.256V731.322C357.769 733.43 358.313 735.164 359.503 736.422C358.517 737.068 357.361 737.544 356.103 737.544C354.607 737.544 353.213 736.83 352.703 734.926C351.615 736.694 349.881 737.544 347.807 737.544ZM349.337 732.342C351.207 732.342 352.227 730.54 352.227 727.65C352.227 724.76 351.207 722.958 349.337 722.958C347.433 722.958 346.379 724.76 346.379 727.65C346.379 730.54 347.433 732.342 349.337 732.342ZM374.603 737.544C370.727 737.544 367.361 735.64 367.361 732.614C367.361 729.928 370.081 728.942 372.393 729.418C372.257 729.758 372.189 730.2 372.189 730.54C372.189 731.934 373.277 732.784 374.603 732.784C375.827 732.784 376.711 732.07 376.711 731.05C376.711 729.894 375.623 729.316 374.161 728.976L372.189 728.534C369.741 727.99 367.599 726.46 367.599 723.4C367.599 720.306 369.809 717.756 374.841 717.756C377.119 717.756 379.567 718.266 381.097 719.422V725.134C379.465 723.502 376.847 722.55 374.807 722.55C373.685 722.55 373.107 722.822 373.107 723.434C373.107 724.012 373.617 724.216 374.807 724.488L376.643 724.93C379.397 725.61 382.321 727.038 382.321 730.914C382.321 734.926 379.091 737.544 374.603 737.544ZM384.268 737C384.744 735.334 384.914 733.464 384.914 731.526V715.818C384.914 713.88 384.642 712.044 383.894 710.48L390.524 709.256V719.252C391.952 718.164 393.618 717.756 395.284 717.756C399.432 717.756 401.438 720.578 401.438 723.978C401.438 726.494 400.384 728.296 398.174 729.316C399.16 731.968 400.554 734.484 402.424 737H395.794C394.638 734.994 393.788 732.852 393.346 730.744H390.524V731.526C390.524 733.464 390.694 735.334 391.17 737H384.268ZM390.524 727.106H392.972C394.638 727.106 395.658 726.188 395.658 724.794C395.658 723.604 394.91 722.652 393.516 722.652C391.918 722.652 390.524 723.91 390.524 726.46V727.106ZM405.915 743.8C406.969 742.134 407.819 740.332 408.499 738.53L409.043 737.068L404.317 723.604C403.705 721.768 402.957 719.966 402.141 718.3H409.723C409.349 719.626 409.519 721.088 409.961 722.584L412.001 729.588L414.313 722.55C414.789 721.088 414.993 719.626 414.619 718.3H421.657C420.841 719.966 420.127 721.768 419.481 723.57L413.803 739.584C413.293 741.046 413.055 742.474 413.463 743.8H405.915ZM429.294 723.23C427.288 723.774 424.84 723.128 424.84 720.68C424.84 718.946 426.064 717.824 427.322 716.702C425.282 716.668 423.684 715.002 423.684 712.962C423.684 710.888 425.282 709.222 427.424 709.222C429.634 709.222 431.3 710.99 431.3 713.37C431.3 716.396 428.682 718.504 428.682 721.122C428.682 721.802 428.852 722.482 429.294 723.23ZM438.576 723.23C436.57 723.774 434.122 723.128 434.122 720.68C434.122 718.946 435.346 717.824 436.604 716.702C434.564 716.668 432.966 715.002 432.966 712.962C432.966 710.888 434.564 709.222 436.706 709.222C438.916 709.222 440.582 710.99 440.582 713.37C440.582 716.396 437.964 718.504 437.964 721.122C437.964 721.802 438.134 722.482 438.576 723.23Z" fill="#5F141E"/>
</svg>
