<svg width="34" height="20" viewBox="0 0 34 20" fill="none" xmlns="http://www.w3.org/2000/svg">
<rect width="34" height="20" rx="2" fill="white"/>
<path d="M9.42174 17.5H7.32643V8.48822C7.32643 8.19721 7.32643 7.90942 7.32643 7.62488C7.3329 7.33386 7.3426 7.04284 7.35553 6.75183C7.36847 6.46081 7.3814 6.17303 7.39433 5.88848C7.3038 6.01136 7.19062 6.1504 7.05482 6.30561C6.92548 6.46081 6.76703 6.63866 6.57949 6.83913L5.32812 8.0808L4.09616 6.81973L7.57864 3.31785H9.42174V17.5ZM17.7906 10.4089C17.7906 11.5148 17.7259 12.5139 17.5966 13.4064C17.4737 14.2988 17.27 15.0652 16.9854 15.7054C16.7009 16.3456 16.3226 16.8371 15.8505 17.1799C15.3848 17.5162 14.8125 17.6843 14.1335 17.6843C13.351 17.6843 12.6881 17.4515 12.1449 16.9859C11.6016 16.5138 11.1878 15.7474 10.9032 14.6869C10.6251 13.6198 10.4861 12.1938 10.4861 10.4089C10.4861 8.7663 10.6187 7.40823 10.8838 6.33471C11.1489 5.25472 11.5499 4.44957 12.0867 3.91928C12.6299 3.38252 13.3122 3.11414 14.1335 3.11414C14.9613 3.11414 15.6435 3.38575 16.1803 3.92898C16.717 4.47221 17.118 5.28382 17.3831 6.36381C17.6548 7.4438 17.7906 8.79217 17.7906 10.4089ZM12.6008 10.4089C12.6008 11.6183 12.6493 12.6239 12.7463 13.4258C12.8498 14.2212 13.0114 14.8194 13.2313 15.2204C13.4577 15.6149 13.7584 15.8121 14.1335 15.8121C14.515 15.8121 14.8157 15.6149 15.0356 15.2204C15.262 14.8194 15.4236 14.218 15.5206 13.4161C15.6241 12.6142 15.6759 11.6118 15.6759 10.4089C15.6759 9.21899 15.6241 8.22307 15.5206 7.42116C15.4236 6.61926 15.262 6.01459 15.0356 5.60717C14.8157 5.19975 14.515 4.99604 14.1335 4.99604C13.7649 4.99604 13.4674 5.19651 13.241 5.59747C13.0147 5.99842 12.8498 6.59985 12.7463 7.40176C12.6493 8.20367 12.6008 9.20606 12.6008 10.4089Z" fill="#ED1C24"/>
<path d="M29.9656 5.5248C29.3073 4.87175 28.4203 4.5013 27.4931 4.49224C26.5659 4.48317 25.0008 5 25.0008 6.99998C25.0008 5 23.4349 4.48159 22.5069 4.49066C21.5789 4.49972 20.6911 4.87079 20.0327 5.5248C19.3797 6.18307 19.0092 7.07015 19.0002 7.99735C18.9911 8.92455 19.3441 9.81871 19.9842 10.4896L20.0327 10.5414L25.0008 15.5095L29.9656 10.5414L30.0174 10.4896C30.657 9.81829 31.0095 8.9239 30.9998 7.9967C30.9901 7.06949 30.6191 6.18264 29.9656 5.5248Z" fill="#ED1C24"/>
</svg>
