<svg width="34" height="20" viewBox="0 0 34 20" fill="none" xmlns="http://www.w3.org/2000/svg">
<rect width="34" height="20" rx="2" fill="white"/>
<path d="M14.7094 17.5H4.79544V15.4144L8.35553 11.8155C9.40965 10.7355 10.0984 9.98857 10.4217 9.57468C10.7451 9.15432 10.9779 8.7663 11.1202 8.41062C11.2625 8.05493 11.3336 7.68631 11.3336 7.30476C11.3336 6.73566 11.1751 6.31207 10.8583 6.03399C10.5478 5.75591 10.1307 5.61687 9.6069 5.61687C9.0572 5.61687 8.52367 5.74298 8.00631 5.99519C7.48895 6.2474 6.94896 6.60632 6.38633 7.07195L4.75664 5.14154C5.45508 4.54658 6.03387 4.12622 6.49303 3.88048C6.95219 3.63473 7.45338 3.44719 7.99661 3.31785C8.53984 3.18204 9.14774 3.11414 9.82031 3.11414C10.7063 3.11414 11.4888 3.27581 12.1678 3.59916C12.8469 3.92251 13.3739 4.3752 13.749 4.95723C14.1241 5.53926 14.3116 6.20537 14.3116 6.95554C14.3116 7.60871 14.1952 8.22307 13.9624 8.79864C13.7361 9.36773 13.3804 9.953 12.8954 10.5544C12.4168 11.1559 11.5696 12.0127 10.3538 13.1251L8.53014 14.8421V14.9779H14.7094V17.5Z" fill="#ED1C24"/>
<path d="M28.9656 5.5248C28.3073 4.87175 27.4203 4.5013 26.4931 4.49224C25.5659 4.48317 24.0008 5 24.0008 6.99998C24.0008 5 22.4349 4.48159 21.5069 4.49066C20.5789 4.49972 19.6911 4.87079 19.0327 5.5248C18.3797 6.18307 18.0092 7.07015 18.0002 7.99735C17.9911 8.92455 18.3441 9.81871 18.9842 10.4896L19.0327 10.5414L24.0008 15.5095L28.9656 10.5414L29.0174 10.4896C29.657 9.81829 30.0095 8.9239 29.9998 7.9967C29.9901 7.06949 29.6191 6.18264 28.9656 5.5248Z" fill="#ED1C24"/>
</svg>
