<svg width="34" height="20" viewBox="0 0 34 20" fill="none" xmlns="http://www.w3.org/2000/svg">
<rect width="34" height="20" rx="2" fill="white"/>
<path d="M15.0295 14.5607H13.3222V17.5H10.3926V14.5607H4.33952V12.4751L10.5575 3.31785H13.3222V12.2326H15.0295V14.5607ZM10.3926 12.2326V9.82689C10.3926 9.42594 10.4088 8.84391 10.4411 8.0808C10.4735 7.31769 10.4993 6.8747 10.5187 6.75183H10.4411C10.2019 7.28212 9.91408 7.79948 9.5778 8.30391L6.97806 12.2326H10.3926Z" fill="#ED1C24"/>
<path d="M28.9656 5.5248C28.3073 4.87175 27.4203 4.5013 26.4931 4.49224C25.5659 4.48317 24.0008 5 24.0008 6.99998C24.0008 5 22.4349 4.48159 21.5069 4.49066C20.5789 4.49972 19.6911 4.87079 19.0327 5.5248C18.3797 6.18307 18.0092 7.07015 18.0002 7.99735C17.9911 8.92455 18.3441 9.81871 18.9842 10.4896L19.0327 10.5414L24.0008 15.5095L28.9656 10.5414L29.0174 10.4896C29.657 9.81829 30.0095 8.9239 29.9998 7.9967C29.9901 7.06949 29.6191 6.18264 28.9656 5.5248Z" fill="#ED1C24"/>
</svg>
