<svg width="34" height="20" viewBox="0 0 34 20" fill="none" xmlns="http://www.w3.org/2000/svg">
<rect width="34" height="20" rx="2" fill="white"/>
<path d="M9.95612 8.43972C11.3271 8.43972 12.4168 8.82451 13.2252 9.59408C14.04 10.3637 14.4475 11.4178 14.4475 12.7564C14.4475 14.3409 13.9592 15.5599 12.9827 16.4135C12.0062 17.2672 10.6093 17.694 8.79205 17.694C7.2141 17.694 5.9401 17.4386 4.97005 16.9277V14.3376C5.48095 14.6092 6.07591 14.8324 6.75495 15.007C7.43398 15.1751 8.07745 15.2592 8.68535 15.2592C10.5155 15.2592 11.4306 14.509 11.4306 13.0087C11.4306 11.5795 10.4832 10.8648 8.58834 10.8648C8.24559 10.8648 7.86727 10.9004 7.45338 10.9716C7.03949 11.0362 6.70321 11.1074 6.44453 11.185L5.25137 10.5447L5.78489 3.31785H13.4774V5.85938H8.41373L8.15182 8.64343L8.49134 8.57553C8.88583 8.48499 9.37409 8.43972 9.95612 8.43972Z" fill="#ED1C24"/>
<path d="M28.9656 5.5248C28.3073 4.87175 27.4203 4.5013 26.4931 4.49224C25.5659 4.48317 24.0008 5 24.0008 6.99998C24.0008 5 22.4349 4.48159 21.5069 4.49066C20.5789 4.49972 19.6911 4.87079 19.0327 5.5248C18.3797 6.18307 18.0092 7.07015 18.0002 7.99735C17.9911 8.92455 18.3441 9.81871 18.9842 10.4896L19.0327 10.5414L24.0008 15.5095L28.9656 10.5414L29.0174 10.4896C29.657 9.81829 30.0095 8.9239 29.9998 7.9967C29.9901 7.06949 29.6191 6.18264 28.9656 5.5248Z" fill="#ED1C24"/>
</svg>
