<svg width="34" height="20" viewBox="0 0 34 20" fill="none" xmlns="http://www.w3.org/2000/svg">
<rect width="34" height="20" rx="2" fill="white"/>
<path d="M6.20202 17.5L11.5276 5.85938H4.53353V3.33725H14.7094V5.21915L9.34498 17.5H6.20202Z" fill="#ED1C24"/>
<path d="M28.9656 5.5248C28.3073 4.87175 27.4203 4.5013 26.4931 4.49224C25.5659 4.48317 24.0008 5 24.0008 6.99998C24.0008 5 22.4349 4.48159 21.5069 4.49066C20.5789 4.49972 19.6911 4.87079 19.0327 5.5248C18.3797 6.18307 18.0092 7.07015 18.0002 7.99735C17.9911 8.92455 18.3441 9.81871 18.9842 10.4896L19.0327 10.5414L24.0008 15.5095L28.9656 10.5414L29.0174 10.4896C29.657 9.81829 30.0095 8.9239 29.9998 7.9967C29.9901 7.06949 29.6191 6.18264 28.9656 5.5248Z" fill="#ED1C24"/>
</svg>
