<svg width="34" height="20" viewBox="0 0 34 20" fill="none" xmlns="http://www.w3.org/2000/svg">
<rect width="34" height="20" rx="2" fill="white"/>
<path d="M9.6845 3.13354C11.0426 3.13354 12.1355 3.44395 12.9633 4.06479C13.7975 4.67915 14.2146 5.51016 14.2146 6.55782C14.2146 7.28212 14.0142 7.92882 13.6132 8.49792C13.2123 9.06055 12.5656 9.56498 11.6731 10.0112C12.7337 10.5803 13.4936 11.1753 13.9527 11.7961C14.4184 12.4105 14.6512 13.0863 14.6512 13.8235C14.6512 14.9876 14.1952 15.9253 13.2834 16.6367C12.3715 17.3416 11.1719 17.694 9.6845 17.694C8.13242 17.694 6.91339 17.3642 6.02741 16.7046C5.14143 16.0449 4.69844 15.1104 4.69844 13.9011C4.69844 13.0927 4.91185 12.3749 5.33867 11.7476C5.77196 11.1203 6.46393 10.5674 7.41458 10.0888C6.60621 9.57791 6.02417 9.03145 5.66849 8.44942C5.3128 7.86739 5.13496 7.23039 5.13496 6.53842C5.13496 5.5231 5.55532 4.70179 6.39603 4.07449C7.23674 3.44719 8.3329 3.13354 9.6845 3.13354ZM7.47278 13.7265C7.47278 14.2827 7.66679 14.716 8.05482 15.0264C8.44284 15.3368 8.97313 15.492 9.6457 15.492C10.3894 15.492 10.9456 15.3336 11.3142 15.0167C11.6828 14.6933 11.8671 14.2697 11.8671 13.7459C11.8671 13.3126 11.6828 12.9084 11.3142 12.5333C10.952 12.1518 10.3603 11.7476 9.53899 11.3208C8.16152 11.9545 7.47278 12.7564 7.47278 13.7265ZM9.6651 5.32585C9.15421 5.32585 8.74032 5.45843 8.42343 5.72357C8.11302 5.98225 7.95781 6.33147 7.95781 6.77123C7.95781 7.15925 8.08068 7.50847 8.32643 7.81889C8.57864 8.12284 9.03133 8.43649 9.6845 8.75984C10.3183 8.46235 10.7613 8.1584 11.0135 7.84799C11.2657 7.53757 11.3918 7.17865 11.3918 6.77123C11.3918 6.32501 11.2301 5.97255 10.9068 5.71387C10.5834 5.45519 10.1695 5.32585 9.6651 5.32585Z" fill="#ED1C24"/>
<path d="M28.9656 5.5248C28.3073 4.87175 27.4203 4.5013 26.4931 4.49224C25.5659 4.48317 24.0008 5 24.0008 6.99998C24.0008 5 22.4349 4.48159 21.5069 4.49066C20.5789 4.49972 19.6911 4.87079 19.0327 5.5248C18.3797 6.18307 18.0092 7.07015 18.0002 7.99735C17.9911 8.92455 18.3441 9.81871 18.9842 10.4896L19.0327 10.5414L24.0008 15.5095L28.9656 10.5414L29.0174 10.4896C29.657 9.81829 30.0095 8.9239 29.9998 7.9967C29.9901 7.06949 29.6191 6.18264 28.9656 5.5248Z" fill="#ED1C24"/>
</svg>
