<svg width="34" height="20" viewBox="0 0 34 20" fill="none" xmlns="http://www.w3.org/2000/svg">
<rect width="34" height="20" rx="2" fill="white"/>
<path d="M14.6512 9.37097C14.6512 12.1647 14.0627 14.2503 12.8857 15.6278C11.7087 17.0053 9.92701 17.694 7.54069 17.694C6.69998 17.694 6.06298 17.6487 5.62969 17.5582V15.1525C6.17292 15.2883 6.74201 15.3562 7.33698 15.3562C8.33936 15.3562 9.16391 15.2107 9.81061 14.9197C10.4573 14.6222 10.952 14.1598 11.2948 13.5325C11.6375 12.8987 11.8348 12.0289 11.8865 10.9231H11.7701C11.395 11.5309 10.9617 11.9578 10.4702 12.2035C9.97875 12.4493 9.36438 12.5721 8.62715 12.5721C7.39195 12.5721 6.41866 12.1777 5.70729 11.3887C4.99592 10.5932 4.64023 9.49061 4.64023 8.0808C4.64023 6.56105 5.07029 5.36142 5.9304 4.48191C6.79698 3.59593 7.97398 3.15294 9.46139 3.15294C10.509 3.15294 11.4241 3.39868 12.2066 3.89018C12.9956 4.38167 13.6003 5.09627 14.0206 6.03399C14.441 6.96524 14.6512 8.07757 14.6512 9.37097ZM9.51959 5.55867C8.89876 5.55867 8.41373 5.77208 8.06452 6.1989C7.7153 6.62572 7.54069 7.24009 7.54069 8.042C7.54069 8.7275 7.69913 9.27073 8.01601 9.67168C8.3329 10.0726 8.81469 10.2731 9.46139 10.2731C10.0693 10.2731 10.5899 10.0759 11.0232 9.68138C11.4565 9.28043 11.6731 8.82127 11.6731 8.30391C11.6731 7.53434 11.4694 6.8844 11.062 6.35411C10.661 5.82381 10.1469 5.55867 9.51959 5.55867Z" fill="#ED1C24"/>
<path d="M28.9656 5.5248C28.3073 4.87175 27.4203 4.5013 26.4931 4.49224C25.5659 4.48317 24.0008 5 24.0008 6.99998C24.0008 5 22.4349 4.48159 21.5069 4.49066C20.5789 4.49972 19.6911 4.87079 19.0327 5.5248C18.3797 6.18307 18.0092 7.07015 18.0002 7.99735C17.9911 8.92455 18.3441 9.81871 18.9842 10.4896L19.0327 10.5414L24.0008 15.5095L28.9656 10.5414L29.0174 10.4896C29.657 9.81829 30.0095 8.9239 29.9998 7.9967C29.9901 7.06949 29.6191 6.18264 28.9656 5.5248Z" fill="#ED1C24"/>
</svg>
