<svg width="34" height="20" viewBox="0 0 34 20" fill="none" xmlns="http://www.w3.org/2000/svg">
<rect width="34" height="20" rx="2" fill="white"/>
<path d="M14.4669 17.5L13.4386 14.1242H8.26823L7.23997 17.5H4L9.00547 3.25964H12.682L17.7068 17.5H14.4669ZM12.7208 11.6021C11.7701 8.54319 11.2334 6.81327 11.1105 6.41231C10.9941 6.01136 10.91 5.69447 10.8583 5.46166C10.6449 6.28944 10.0337 8.33625 9.02487 11.6021H12.7208Z" fill="#ED1C24"/>
<path d="M28.9656 5.5248C28.3073 4.87175 27.4203 4.5013 26.4931 4.49224C25.5659 4.48317 24.0008 5 24.0008 6.99998C24.0008 5 22.4349 4.48159 21.5069 4.49066C20.5789 4.49972 19.6911 4.87079 19.0327 5.5248C18.3797 6.18307 18.0092 7.07015 18.0002 7.99735C17.9911 8.92455 18.3441 9.81871 18.9842 10.4896L19.0327 10.5414L24.0008 15.5095L28.9656 10.5414L29.0174 10.4896C29.657 9.81829 30.0095 8.9239 29.9998 7.9967C29.9901 7.06949 29.6191 6.18264 28.9656 5.5248Z" fill="#ED1C24"/>
</svg>
