<svg width="34" height="20" viewBox="0 0 34 20" fill="none" xmlns="http://www.w3.org/2000/svg">
<rect width="34" height="20" rx="2" fill="white"/>
<path d="M9.09375 17.3594C8.54688 17.3594 8.07031 17.3021 7.66406 17.1875V15.1719C8.08073 15.276 8.46094 15.3281 8.80469 15.3281C9.33594 15.3281 9.71615 15.1615 9.94531 14.8281C10.1745 14.5 10.2891 13.9844 10.2891 13.2812V2.57812H12.7109V13.2656C12.7109 14.599 12.4062 15.6146 11.7969 16.3125C11.1875 17.0104 10.2865 17.3594 9.09375 17.3594Z" fill="#ED1C24"/>
<path d="M29.9656 5.5248C29.3073 4.87175 28.4203 4.5013 27.4931 4.49224C26.5659 4.48317 25.0008 5 25.0008 6.99998C25.0008 5 23.4349 4.48159 22.5069 4.49066C21.5789 4.49972 20.6911 4.87079 20.0327 5.5248C19.3797 6.18307 19.0092 7.07015 19.0002 7.99735C18.9911 8.92455 19.3441 9.81871 19.9842 10.4896L20.0327 10.5414L25.0008 15.5095L29.9656 10.5414L30.0174 10.4896C30.657 9.81829 31.0095 8.9239 30.9998 7.9967C30.9901 7.06949 30.6191 6.18264 29.9656 5.5248Z" fill="#ED1C24"/>
</svg>
