<svg width="34" height="20" viewBox="0 0 34 20" fill="none" xmlns="http://www.w3.org/2000/svg">
<rect width="34" height="20" rx="2" fill="white"/>
<path d="M15.8047 9.27344C15.8047 10.6172 15.5651 11.7448 15.0859 12.6562C14.612 13.5625 13.9141 14.2266 12.9922 14.6484L15.7422 17.7188H12.6406L10.5469 15.1562H10.3672C8.61719 15.1562 7.27344 14.6484 6.33594 13.6328C5.39844 12.6172 4.92969 11.1589 4.92969 9.25781C4.92969 7.35677 5.39844 5.90625 6.33594 4.90625C7.27865 3.90104 8.6276 3.39844 10.3828 3.39844C12.138 3.39844 13.4792 3.90365 14.4062 4.91406C15.3385 5.92448 15.8047 7.3776 15.8047 9.27344ZM7.46875 9.27344C7.46875 10.5495 7.71094 11.5104 8.19531 12.1562C8.67969 12.8021 9.40365 13.125 10.3672 13.125C12.2995 13.125 13.2656 11.8411 13.2656 9.27344C13.2656 6.70052 12.3047 5.41406 10.3828 5.41406C9.41927 5.41406 8.69271 5.73958 8.20312 6.39062C7.71354 7.03646 7.46875 7.9974 7.46875 9.27344Z" fill="#ED1C24"/>
<path d="M29.9656 5.5248C29.3073 4.87175 28.4203 4.5013 27.4931 4.49224C26.5659 4.48317 25.0008 5 25.0008 6.99998C25.0008 5 23.4349 4.48159 22.5069 4.49066C21.5789 4.49972 20.6911 4.87079 20.0327 5.5248C19.3797 6.18307 19.0092 7.07015 19.0002 7.99735C18.9911 8.92455 19.3441 9.81871 19.9842 10.4896L20.0327 10.5414L25.0008 15.5095L29.9656 10.5414L30.0174 10.4896C30.657 9.81829 31.0095 8.9239 30.9998 7.9967C30.9901 7.06949 30.6191 6.18264 29.9656 5.5248Z" fill="#ED1C24"/>
</svg>
