<svg width="34" height="20" viewBox="0 0 34 20" fill="none" xmlns="http://www.w3.org/2000/svg">
<rect width="34" height="20" rx="2" fill="white"/>
<path d="M9.42174 17.5H7.32643V8.48822C7.32643 8.19721 7.32643 7.90942 7.32643 7.62488C7.3329 7.33386 7.3426 7.04284 7.35553 6.75183C7.36847 6.46081 7.3814 6.17303 7.39433 5.88848C7.3038 6.01136 7.19062 6.1504 7.05482 6.30561C6.92548 6.46081 6.76703 6.63866 6.57949 6.83913L5.32812 8.0808L4.09616 6.81973L7.57864 3.31785H9.42174V17.5ZM17.7906 10.4089C17.7906 11.5148 17.7259 12.5139 17.5966 13.4064C17.4737 14.2988 17.27 15.0652 16.9854 15.7054C16.7009 16.3456 16.3226 16.8371 15.8505 17.1799C15.3848 17.5162 14.8125 17.6843 14.1335 17.6843C13.351 17.6843 12.6881 17.4515 12.1449 16.9859C11.6016 16.5138 11.1878 15.7474 10.9032 14.6869C10.6251 13.6198 10.4861 12.1938 10.4861 10.4089C10.4861 8.7663 10.6187 7.40823 10.8838 6.33471C11.1489 5.25472 11.5499 4.44957 12.0867 3.91928C12.6299 3.38252 13.3122 3.11414 14.1335 3.11414C14.9613 3.11414 15.6435 3.38575 16.1803 3.92898C16.717 4.47221 17.118 5.28382 17.3831 6.36381C17.6548 7.4438 17.7906 8.79217 17.7906 10.4089ZM12.6008 10.4089C12.6008 11.6183 12.6493 12.6239 12.7463 13.4258C12.8498 14.2212 13.0114 14.8194 13.2313 15.2204C13.4577 15.6149 13.7584 15.8121 14.1335 15.8121C14.515 15.8121 14.8157 15.6149 15.0356 15.2204C15.262 14.8194 15.4236 14.218 15.5206 13.4161C15.6241 12.6142 15.6759 11.6118 15.6759 10.4089C15.6759 9.21899 15.6241 8.22307 15.5206 7.42116C15.4236 6.61926 15.262 6.01459 15.0356 5.60717C14.8157 5.19975 14.515 4.99604 14.1335 4.99604C13.7649 4.99604 13.4674 5.19651 13.241 5.59747C13.0147 5.99842 12.8498 6.59985 12.7463 7.40176C12.6493 8.20367 12.6008 9.20606 12.6008 10.4089Z" fill="black"/>
<path d="M31 10.6742C30.9993 9.85536 30.69 9.06711 30.134 8.46786C29.578 7.86861 28.0995 7.93299 27.2858 7.87405C27.4128 7.52354 28.194 6.72294 28.1919 6.34999C28.2064 5.91544 28.1337 5.48239 27.978 5.07663C27.8224 4.67086 27.587 4.30069 27.2858 3.98812C26.9847 3.67556 26.6239 3.427 26.2251 3.25725C25.8263 3.0875 25.3975 3 24.9643 3C24.5311 3 24.1023 3.0875 23.7034 3.25725C23.3046 3.427 22.9439 3.67556 22.6427 3.98812C22.3416 4.30069 22.1062 4.67086 21.9505 5.07663C21.7948 5.48239 21.7221 5.91544 21.7366 6.34999C21.7358 6.72284 22.5169 7.52323 22.6427 7.87405C22.1739 7.91853 21.0033 7.63513 20.597 7.87405C20.1907 8.11296 19.8413 8.43817 19.5734 8.82687C19.3056 9.21558 19.1256 9.65837 19.0462 10.1242C18.9668 10.5901 18.9899 11.0678 19.1138 11.5237C19.2378 11.9797 19.4595 12.403 19.7636 12.7638C20.0677 13.1247 20.4468 13.4145 20.8742 13.6128C21.3016 13.8111 21.7671 13.9133 22.238 13.912C22.7089 13.9108 23.8922 12.9644 24.3186 12.7638L21.6531 17H28.2755L25.7515 12.7638C26.2441 13.0228 27.3209 13.9402 27.8767 13.9225C28.4325 13.9047 28.9742 13.7431 29.4494 13.4533C29.9246 13.1635 30.3171 12.7553 30.5887 12.2683C30.8604 11.7814 31.0021 11.2323 31 10.6742Z" fill="black"/>
</svg>
