<svg width="34" height="20" viewBox="0 0 34 20" fill="none" xmlns="http://www.w3.org/2000/svg">
<rect width="34" height="20" rx="2" fill="white"/>
<path d="M14.7094 17.5H4.79544V15.4144L8.35553 11.8155C9.40965 10.7355 10.0984 9.98857 10.4217 9.57468C10.7451 9.15432 10.9779 8.7663 11.1202 8.41062C11.2625 8.05493 11.3336 7.68631 11.3336 7.30476C11.3336 6.73566 11.1751 6.31207 10.8583 6.03399C10.5478 5.75591 10.1307 5.61687 9.6069 5.61687C9.0572 5.61687 8.52367 5.74298 8.00631 5.99519C7.48895 6.2474 6.94896 6.60632 6.38633 7.07195L4.75664 5.14154C5.45508 4.54658 6.03387 4.12622 6.49303 3.88048C6.95219 3.63473 7.45338 3.44719 7.99661 3.31785C8.53984 3.18204 9.14774 3.11414 9.82031 3.11414C10.7063 3.11414 11.4888 3.27581 12.1678 3.59916C12.8469 3.92251 13.3739 4.3752 13.749 4.95723C14.1241 5.53926 14.3116 6.20537 14.3116 6.95554C14.3116 7.60871 14.1952 8.22307 13.9624 8.79864C13.7361 9.36773 13.3804 9.953 12.8954 10.5544C12.4168 11.1559 11.5696 12.0127 10.3538 13.1251L8.53014 14.8421V14.9779H14.7094V17.5Z" fill="black"/>
<path d="M30 10.6742C29.9993 9.85536 29.69 9.06711 29.134 8.46786C28.578 7.86861 27.0995 7.93299 26.2858 7.87405C26.4128 7.52354 27.194 6.72294 27.1919 6.34999C27.2064 5.91544 27.1337 5.48239 26.978 5.07663C26.8224 4.67086 26.587 4.30069 26.2858 3.98812C25.9847 3.67556 25.6239 3.427 25.2251 3.25725C24.8263 3.0875 24.3975 3 23.9643 3C23.5311 3 23.1023 3.0875 22.7034 3.25725C22.3046 3.427 21.9439 3.67556 21.6427 3.98812C21.3416 4.30069 21.1062 4.67086 20.9505 5.07663C20.7948 5.48239 20.7221 5.91544 20.7366 6.34999C20.7358 6.72284 21.5169 7.52323 21.6427 7.87405C21.1739 7.91853 20.0033 7.63513 19.597 7.87405C19.1907 8.11296 18.8413 8.43817 18.5734 8.82687C18.3056 9.21558 18.1256 9.65837 18.0462 10.1242C17.9668 10.5901 17.9899 11.0678 18.1138 11.5237C18.2378 11.9797 18.4595 12.403 18.7636 12.7638C19.0677 13.1247 19.4468 13.4145 19.8742 13.6128C20.3016 13.8111 20.7671 13.9133 21.238 13.912C21.7089 13.9108 22.8922 12.9644 23.3186 12.7638L20.6531 17H27.2755L24.7515 12.7638C25.2441 13.0228 26.3209 13.9402 26.8767 13.9225C27.4325 13.9047 27.9742 13.7431 28.4494 13.4533C28.9246 13.1635 29.3171 12.7553 29.5887 12.2683C29.8604 11.7814 30.0021 11.2323 30 10.6742Z" fill="black"/>
</svg>
