<svg width="34" height="20" viewBox="0 0 34 20" fill="none" xmlns="http://www.w3.org/2000/svg">
<rect width="34" height="20" rx="2" fill="white"/>
<path d="M9.95612 8.43972C11.3271 8.43972 12.4168 8.82451 13.2252 9.59408C14.04 10.3637 14.4475 11.4178 14.4475 12.7564C14.4475 14.3409 13.9592 15.5599 12.9827 16.4135C12.0062 17.2672 10.6093 17.694 8.79205 17.694C7.2141 17.694 5.9401 17.4386 4.97005 16.9277V14.3376C5.48095 14.6092 6.07591 14.8324 6.75495 15.007C7.43398 15.1751 8.07745 15.2592 8.68535 15.2592C10.5155 15.2592 11.4306 14.509 11.4306 13.0087C11.4306 11.5795 10.4832 10.8648 8.58834 10.8648C8.24559 10.8648 7.86727 10.9004 7.45338 10.9716C7.03949 11.0362 6.70321 11.1074 6.44453 11.185L5.25137 10.5447L5.78489 3.31785H13.4774V5.85938H8.41373L8.15182 8.64343L8.49134 8.57553C8.88583 8.48499 9.37409 8.43972 9.95612 8.43972Z" fill="black"/>
<path d="M30 10.6742C29.9993 9.85536 29.69 9.06711 29.134 8.46786C28.578 7.86861 27.0995 7.93299 26.2858 7.87405C26.4128 7.52354 27.194 6.72294 27.1919 6.34999C27.2064 5.91544 27.1337 5.48239 26.978 5.07663C26.8224 4.67086 26.587 4.30069 26.2858 3.98812C25.9847 3.67556 25.6239 3.427 25.2251 3.25725C24.8263 3.0875 24.3975 3 23.9643 3C23.5311 3 23.1023 3.0875 22.7034 3.25725C22.3046 3.427 21.9439 3.67556 21.6427 3.98812C21.3416 4.30069 21.1062 4.67086 20.9505 5.07663C20.7948 5.48239 20.7221 5.91544 20.7366 6.34999C20.7358 6.72284 21.5169 7.52323 21.6427 7.87405C21.1739 7.91853 20.0033 7.63513 19.597 7.87405C19.1907 8.11296 18.8413 8.43817 18.5734 8.82687C18.3056 9.21558 18.1256 9.65837 18.0462 10.1242C17.9668 10.5901 17.9899 11.0678 18.1138 11.5237C18.2378 11.9797 18.4595 12.403 18.7636 12.7638C19.0677 13.1247 19.4468 13.4145 19.8742 13.6128C20.3016 13.8111 20.7671 13.9133 21.238 13.912C21.7089 13.9108 22.8922 12.9644 23.3186 12.7638L20.6531 17H27.2755L24.7515 12.7638C25.2441 13.0228 26.3209 13.9402 26.8767 13.9225C27.4325 13.9047 27.9742 13.7431 28.4494 13.4533C28.9246 13.1635 29.3171 12.7553 29.5887 12.2683C29.8604 11.7814 30.0021 11.2323 30 10.6742Z" fill="black"/>
</svg>
