<svg width="34" height="20" viewBox="0 0 34 20" fill="none" xmlns="http://www.w3.org/2000/svg">
<rect width="34" height="20" rx="2" fill="white"/>
<path d="M4.69844 11.476C4.69844 8.6693 5.29017 6.58045 6.47363 5.20945C7.66356 3.83844 9.44199 3.15294 11.8089 3.15294C12.6173 3.15294 13.2511 3.20144 13.7102 3.29845V5.69447C13.1347 5.56513 12.5656 5.50046 12.0029 5.50046C10.9747 5.50046 10.134 5.65567 9.48079 5.96609C8.83409 6.2765 8.34906 6.73566 8.02571 7.34356C7.70236 7.95146 7.51159 8.81481 7.45338 9.9336H7.57949C8.21972 8.83421 9.24475 8.28451 10.6546 8.28451C11.9221 8.28451 12.9148 8.68223 13.6326 9.47767C14.3504 10.2731 14.7094 11.3725 14.7094 12.7758C14.7094 14.2891 14.2825 15.4888 13.4289 16.3747C12.5753 17.2543 11.3918 17.694 9.87851 17.694C8.83086 17.694 7.91577 17.4515 7.13327 16.9665C6.35723 16.4814 5.75579 15.7733 5.32897 14.8421C4.90861 13.9108 4.69844 12.7888 4.69844 11.476ZM9.82031 15.298C10.4605 15.298 10.952 15.0846 11.2948 14.6577C11.6375 14.2245 11.8089 13.6101 11.8089 12.8147C11.8089 12.1227 11.6472 11.5795 11.3239 11.185C11.007 10.784 10.5252 10.5835 9.87851 10.5835C9.27061 10.5835 8.75002 10.7808 8.31673 11.1753C7.88991 11.5698 7.6765 12.0289 7.6765 12.5527C7.6765 13.3223 7.87697 13.9722 8.27793 14.5025C8.68535 15.0328 9.19948 15.298 9.82031 15.298Z" fill="black"/>
<path d="M30 10.6742C29.9993 9.85536 29.69 9.06711 29.134 8.46786C28.578 7.86861 27.0995 7.93299 26.2858 7.87405C26.4128 7.52354 27.194 6.72294 27.1919 6.34999C27.2064 5.91544 27.1337 5.48239 26.978 5.07663C26.8224 4.67086 26.587 4.30069 26.2858 3.98812C25.9847 3.67556 25.6239 3.427 25.2251 3.25725C24.8263 3.0875 24.3975 3 23.9643 3C23.5311 3 23.1023 3.0875 22.7034 3.25725C22.3046 3.427 21.9439 3.67556 21.6427 3.98812C21.3416 4.30069 21.1062 4.67086 20.9505 5.07663C20.7948 5.48239 20.7221 5.91544 20.7366 6.34999C20.7358 6.72284 21.5169 7.52323 21.6427 7.87405C21.1739 7.91853 20.0033 7.63513 19.597 7.87405C19.1907 8.11296 18.8413 8.43817 18.5734 8.82687C18.3056 9.21558 18.1256 9.65837 18.0462 10.1242C17.9668 10.5901 17.9899 11.0678 18.1138 11.5237C18.2378 11.9797 18.4595 12.403 18.7636 12.7638C19.0677 13.1247 19.4468 13.4145 19.8742 13.6128C20.3016 13.8111 20.7671 13.9133 21.238 13.912C21.7089 13.9108 22.8922 12.9644 23.3186 12.7638L20.6531 17H27.2755L24.7515 12.7638C25.2441 13.0228 26.3209 13.9402 26.8767 13.9225C27.4325 13.9047 27.9742 13.7431 28.4494 13.4533C28.9246 13.1635 29.3171 12.7553 29.5887 12.2683C29.8604 11.7814 30.0021 11.2323 30 10.6742Z" fill="black"/>
</svg>
