<svg width="34" height="20" viewBox="0 0 34 20" fill="none" xmlns="http://www.w3.org/2000/svg">
<rect width="34" height="20" rx="2" fill="white"/>
<path d="M9.6845 3.13354C11.0426 3.13354 12.1355 3.44395 12.9633 4.06479C13.7975 4.67915 14.2146 5.51016 14.2146 6.55782C14.2146 7.28212 14.0142 7.92882 13.6132 8.49792C13.2123 9.06055 12.5656 9.56498 11.6731 10.0112C12.7337 10.5803 13.4936 11.1753 13.9527 11.7961C14.4184 12.4105 14.6512 13.0863 14.6512 13.8235C14.6512 14.9876 14.1952 15.9253 13.2834 16.6367C12.3715 17.3416 11.1719 17.694 9.6845 17.694C8.13242 17.694 6.91339 17.3642 6.02741 16.7046C5.14143 16.0449 4.69844 15.1104 4.69844 13.9011C4.69844 13.0927 4.91185 12.3749 5.33867 11.7476C5.77196 11.1203 6.46393 10.5674 7.41458 10.0888C6.60621 9.57791 6.02417 9.03145 5.66849 8.44942C5.3128 7.86739 5.13496 7.23039 5.13496 6.53842C5.13496 5.5231 5.55532 4.70179 6.39603 4.07449C7.23674 3.44719 8.3329 3.13354 9.6845 3.13354ZM7.47278 13.7265C7.47278 14.2827 7.66679 14.716 8.05482 15.0264C8.44284 15.3368 8.97313 15.492 9.6457 15.492C10.3894 15.492 10.9456 15.3336 11.3142 15.0167C11.6828 14.6933 11.8671 14.2697 11.8671 13.7459C11.8671 13.3126 11.6828 12.9084 11.3142 12.5333C10.952 12.1518 10.3603 11.7476 9.53899 11.3208C8.16152 11.9545 7.47278 12.7564 7.47278 13.7265ZM9.6651 5.32585C9.15421 5.32585 8.74032 5.45843 8.42343 5.72357C8.11302 5.98225 7.95781 6.33147 7.95781 6.77123C7.95781 7.15925 8.08068 7.50847 8.32643 7.81889C8.57864 8.12284 9.03133 8.43649 9.6845 8.75984C10.3183 8.46235 10.7613 8.1584 11.0135 7.84799C11.2657 7.53757 11.3918 7.17865 11.3918 6.77123C11.3918 6.32501 11.2301 5.97255 10.9068 5.71387C10.5834 5.45519 10.1695 5.32585 9.6651 5.32585Z" fill="black"/>
<path d="M30 10.6742C29.9993 9.85536 29.69 9.06711 29.134 8.46786C28.578 7.86861 27.0995 7.93299 26.2858 7.87405C26.4128 7.52354 27.194 6.72294 27.1919 6.34999C27.2064 5.91544 27.1337 5.48239 26.978 5.07663C26.8224 4.67086 26.587 4.30069 26.2858 3.98812C25.9847 3.67556 25.6239 3.427 25.2251 3.25725C24.8263 3.0875 24.3975 3 23.9643 3C23.5311 3 23.1023 3.0875 22.7034 3.25725C22.3046 3.427 21.9439 3.67556 21.6427 3.98812C21.3416 4.30069 21.1062 4.67086 20.9505 5.07663C20.7948 5.48239 20.7221 5.91544 20.7366 6.34999C20.7358 6.72284 21.5169 7.52323 21.6427 7.87405C21.1739 7.91853 20.0033 7.63513 19.597 7.87405C19.1907 8.11296 18.8413 8.43817 18.5734 8.82687C18.3056 9.21558 18.1256 9.65837 18.0462 10.1242C17.9668 10.5901 17.9899 11.0678 18.1138 11.5237C18.2378 11.9797 18.4595 12.403 18.7636 12.7638C19.0677 13.1247 19.4468 13.4145 19.8742 13.6128C20.3016 13.8111 20.7671 13.9133 21.238 13.912C21.7089 13.9108 22.8922 12.9644 23.3186 12.7638L20.6531 17H27.2755L24.7515 12.7638C25.2441 13.0228 26.3209 13.9402 26.8767 13.9225C27.4325 13.9047 27.9742 13.7431 28.4494 13.4533C28.9246 13.1635 29.3171 12.7553 29.5887 12.2683C29.8604 11.7814 30.0021 11.2323 30 10.6742Z" fill="black"/>
</svg>
