<svg width="34" height="20" viewBox="0 0 34 20" fill="none" xmlns="http://www.w3.org/2000/svg">
<rect width="34" height="20" rx="2" fill="white"/>
<path d="M14.6512 9.37097C14.6512 12.1647 14.0627 14.2503 12.8857 15.6278C11.7087 17.0053 9.92701 17.694 7.54069 17.694C6.69998 17.694 6.06298 17.6487 5.62969 17.5582V15.1525C6.17292 15.2883 6.74201 15.3562 7.33698 15.3562C8.33936 15.3562 9.16391 15.2107 9.81061 14.9197C10.4573 14.6222 10.952 14.1598 11.2948 13.5325C11.6375 12.8987 11.8348 12.0289 11.8865 10.9231H11.7701C11.395 11.5309 10.9617 11.9578 10.4702 12.2035C9.97875 12.4493 9.36438 12.5721 8.62715 12.5721C7.39195 12.5721 6.41866 12.1777 5.70729 11.3887C4.99592 10.5932 4.64023 9.49061 4.64023 8.0808C4.64023 6.56105 5.07029 5.36142 5.9304 4.48191C6.79698 3.59593 7.97398 3.15294 9.46139 3.15294C10.509 3.15294 11.4241 3.39868 12.2066 3.89018C12.9956 4.38167 13.6003 5.09627 14.0206 6.03399C14.441 6.96524 14.6512 8.07757 14.6512 9.37097ZM9.51959 5.55867C8.89876 5.55867 8.41373 5.77208 8.06452 6.1989C7.7153 6.62572 7.54069 7.24009 7.54069 8.042C7.54069 8.7275 7.69913 9.27073 8.01601 9.67168C8.3329 10.0726 8.81469 10.2731 9.46139 10.2731C10.0693 10.2731 10.5899 10.0759 11.0232 9.68138C11.4565 9.28043 11.6731 8.82127 11.6731 8.30391C11.6731 7.53434 11.4694 6.8844 11.062 6.35411C10.661 5.82381 10.1469 5.55867 9.51959 5.55867Z" fill="black"/>
<path d="M30 10.6742C29.9993 9.85536 29.69 9.06711 29.134 8.46786C28.578 7.86861 27.0995 7.93299 26.2858 7.87405C26.4128 7.52354 27.194 6.72294 27.1919 6.34999C27.2064 5.91544 27.1337 5.48239 26.978 5.07663C26.8224 4.67086 26.587 4.30069 26.2858 3.98812C25.9847 3.67556 25.6239 3.427 25.2251 3.25725C24.8263 3.0875 24.3975 3 23.9643 3C23.5311 3 23.1023 3.0875 22.7034 3.25725C22.3046 3.427 21.9439 3.67556 21.6427 3.98812C21.3416 4.30069 21.1062 4.67086 20.9505 5.07663C20.7948 5.48239 20.7221 5.91544 20.7366 6.34999C20.7358 6.72284 21.5169 7.52323 21.6427 7.87405C21.1739 7.91853 20.0033 7.63513 19.597 7.87405C19.1907 8.11296 18.8413 8.43817 18.5734 8.82687C18.3056 9.21558 18.1256 9.65837 18.0462 10.1242C17.9668 10.5901 17.9899 11.0678 18.1138 11.5237C18.2378 11.9797 18.4595 12.403 18.7636 12.7638C19.0677 13.1247 19.4468 13.4145 19.8742 13.6128C20.3016 13.8111 20.7671 13.9133 21.238 13.912C21.7089 13.9108 22.8922 12.9644 23.3186 12.7638L20.6531 17H27.2755L24.7515 12.7638C25.2441 13.0228 26.3209 13.9402 26.8767 13.9225C27.4325 13.9047 27.9742 13.7431 28.4494 13.4533C28.9246 13.1635 29.3171 12.7553 29.5887 12.2683C29.8604 11.7814 30.0021 11.2323 30 10.6742Z" fill="black"/>
</svg>
