<svg width="34" height="20" viewBox="0 0 34 20" fill="none" xmlns="http://www.w3.org/2000/svg">
<rect width="34" height="20" rx="2" fill="white"/>
<path d="M15.9531 16H12.8594L9.49316 10.5859L8.3418 11.4121V16H5.61719V3.15039H8.3418V9.03027L9.41406 7.51855L12.8945 3.15039H15.918L11.4355 8.83691L15.9531 16Z" fill="black"/>
<path d="M31 10.6742C30.9993 9.85536 30.69 9.06711 30.134 8.46786C29.578 7.86861 28.0995 7.93299 27.2858 7.87405C27.4128 7.52354 28.194 6.72294 28.1919 6.34999C28.2064 5.91544 28.1337 5.48239 27.978 5.07663C27.8224 4.67086 27.587 4.30069 27.2858 3.98812C26.9847 3.67556 26.6239 3.427 26.2251 3.25725C25.8263 3.0875 25.3975 3 24.9643 3C24.5311 3 24.1023 3.0875 23.7034 3.25725C23.3046 3.427 22.9439 3.67556 22.6427 3.98812C22.3416 4.30069 22.1062 4.67086 21.9505 5.07663C21.7948 5.48239 21.7221 5.91544 21.7366 6.34999C21.7358 6.72284 22.5169 7.52323 22.6427 7.87405C22.1739 7.91853 21.0033 7.63513 20.597 7.87405C20.1907 8.11296 19.8413 8.43817 19.5734 8.82687C19.3056 9.21558 19.1256 9.65837 19.0462 10.1242C18.9668 10.5901 18.9899 11.0678 19.1138 11.5237C19.2378 11.9797 19.4595 12.403 19.7636 12.7638C20.0677 13.1247 20.4468 13.4145 20.8742 13.6128C21.3016 13.8111 21.7671 13.9133 22.238 13.912C22.7089 13.9108 23.8922 12.9644 24.3186 12.7638L21.6531 17H28.2755L25.7515 12.7638C26.2441 13.0228 27.3209 13.9402 27.8767 13.9225C28.4325 13.9047 28.9742 13.7431 29.4494 13.4533C29.9246 13.1635 30.3171 12.7553 30.5887 12.2683C30.8604 11.7814 31.0021 11.2323 31 10.6742Z" fill="black"/>
</svg>
