<svg width="34" height="20" viewBox="0 0 34 20" fill="none" xmlns="http://www.w3.org/2000/svg">
<rect width="34" height="20" rx="2" fill="white"/>
<path d="M14.1564 6.48992C14.1564 7.3759 13.8881 8.1293 13.3513 8.75014C12.8145 9.37097 12.0611 9.79779 11.0911 10.0306V10.0888C12.2357 10.2311 13.1023 10.5803 13.6908 11.1365C14.2793 11.6862 14.5736 12.4299 14.5736 13.3676C14.5736 14.7321 14.0788 15.7959 13.0894 16.5591C12.0999 17.3157 10.6869 17.694 8.85026 17.694C7.31111 17.694 5.94657 17.4386 4.75664 16.9277V14.3764C5.30634 14.6545 5.911 14.8809 6.57064 15.0555C7.23027 15.2301 7.88344 15.3174 8.53014 15.3174C9.51959 15.3174 10.2504 15.1492 10.7225 14.813C11.1945 14.4767 11.4306 13.9367 11.4306 13.193C11.4306 12.5269 11.159 12.0548 10.6158 11.7767C10.0725 11.4986 9.20594 11.3596 8.01601 11.3596H6.93926V9.06055H8.03541C9.13481 9.06055 9.93672 8.91828 10.4411 8.63373C10.952 8.34271 11.2075 7.84799 11.2075 7.14955C11.2075 6.07603 10.5349 5.53926 9.18978 5.53926C8.72415 5.53926 8.24883 5.61687 7.7638 5.77208C7.28524 5.92729 6.75171 6.19567 6.16321 6.57722L4.77604 4.51101C6.06944 3.57976 7.61183 3.11414 9.40319 3.11414C10.8712 3.11414 12.0288 3.41162 12.876 4.00658C13.7296 4.60155 14.1564 5.42933 14.1564 6.48992Z" fill="#ED1C24"/>
<path d="M24.8987 17L19.7974 9.99809L24.8987 3L30 9.99809L24.8987 17Z" fill="#ED1C24"/>
</svg>
