<svg width="34" height="20" viewBox="0 0 34 20" fill="none" xmlns="http://www.w3.org/2000/svg">
<rect width="34" height="20" rx="2" fill="white"/>
<path d="M4.69844 11.476C4.69844 8.6693 5.29017 6.58045 6.47363 5.20945C7.66356 3.83844 9.44199 3.15294 11.8089 3.15294C12.6173 3.15294 13.2511 3.20144 13.7102 3.29845V5.69447C13.1347 5.56513 12.5656 5.50046 12.0029 5.50046C10.9747 5.50046 10.134 5.65567 9.48079 5.96609C8.83409 6.2765 8.34906 6.73566 8.02571 7.34356C7.70236 7.95146 7.51159 8.81481 7.45338 9.9336H7.57949C8.21972 8.83421 9.24475 8.28451 10.6546 8.28451C11.9221 8.28451 12.9148 8.68223 13.6326 9.47767C14.3504 10.2731 14.7094 11.3725 14.7094 12.7758C14.7094 14.2891 14.2825 15.4888 13.4289 16.3747C12.5753 17.2543 11.3918 17.694 9.87851 17.694C8.83086 17.694 7.91577 17.4515 7.13327 16.9665C6.35723 16.4814 5.75579 15.7733 5.32897 14.8421C4.90861 13.9108 4.69844 12.7888 4.69844 11.476ZM9.82031 15.298C10.4605 15.298 10.952 15.0846 11.2948 14.6577C11.6375 14.2245 11.8089 13.6101 11.8089 12.8147C11.8089 12.1227 11.6472 11.5795 11.3239 11.185C11.007 10.784 10.5252 10.5835 9.87851 10.5835C9.27061 10.5835 8.75002 10.7808 8.31673 11.1753C7.88991 11.5698 7.6765 12.0289 7.6765 12.5527C7.6765 13.3223 7.87697 13.9722 8.27793 14.5025C8.68535 15.0328 9.19948 15.298 9.82031 15.298Z" fill="#ED1C24"/>
<path d="M24.8987 17L19.7974 9.99809L24.8987 3L30 9.99809L24.8987 17Z" fill="#ED1C24"/>
</svg>
