<svg width="34" height="20" viewBox="0 0 34 20" fill="none" xmlns="http://www.w3.org/2000/svg">
<rect width="34" height="20" rx="2" fill="white"/>
<path d="M14.7094 17.5H4.79544V15.4144L8.35553 11.8155C9.40965 10.7355 10.0984 9.98857 10.4217 9.57468C10.7451 9.15432 10.9779 8.7663 11.1202 8.41062C11.2625 8.05493 11.3336 7.68631 11.3336 7.30476C11.3336 6.73566 11.1751 6.31207 10.8583 6.03399C10.5478 5.75591 10.1307 5.61687 9.6069 5.61687C9.0572 5.61687 8.52367 5.74298 8.00631 5.99519C7.48895 6.2474 6.94896 6.60632 6.38633 7.07195L4.75664 5.14154C5.45508 4.54658 6.03387 4.12622 6.49303 3.88048C6.95219 3.63473 7.45338 3.44719 7.99661 3.31785C8.53984 3.18204 9.14774 3.11414 9.82031 3.11414C10.7063 3.11414 11.4888 3.27581 12.1678 3.59916C12.8469 3.92251 13.3739 4.3752 13.749 4.95723C14.1241 5.53926 14.3116 6.20537 14.3116 6.95554C14.3116 7.60871 14.1952 8.22307 13.9624 8.79864C13.7361 9.36773 13.3804 9.953 12.8954 10.5544C12.4168 11.1559 11.5696 12.0127 10.3538 13.1251L8.53014 14.8421V14.9779H14.7094V17.5Z" fill="black"/>
<path d="M29.0136 8.05041L28.9649 7.99757L24.001 3L19.0333 7.99757L18.9845 8.05041C18.3443 8.72559 17.9911 9.62574 18.0002 10.5592C18.0093 11.4926 18.3799 12.3856 19.0333 13.048C19.5347 13.5478 20.1723 13.8863 20.8652 14.0207C21.558 14.1551 22.2749 14.0793 22.9249 13.8029L21.0953 17H26.9066L25.0732 13.8067C25.7232 14.0831 26.4401 14.1589 27.133 14.0245C27.8259 13.8901 28.4635 13.5515 28.9649 13.0518C29.6193 12.3892 29.9907 11.4954 29.9998 10.5611C30.0089 9.62673 29.655 8.72577 29.0136 8.05041Z" fill="black"/>
</svg>
