<svg width="34" height="20" viewBox="0 0 34 20" fill="none" xmlns="http://www.w3.org/2000/svg">
<rect width="34" height="20" rx="2" fill="white"/>
<path d="M6.20202 17.5L11.5276 5.85938H4.53353V3.33725H14.7094V5.21915L9.34498 17.5H6.20202Z" fill="black"/>
<path d="M29.0136 8.05041L28.9649 7.99757L24.001 3L19.0333 7.99757L18.9845 8.05041C18.3443 8.72559 17.9911 9.62574 18.0002 10.5592C18.0093 11.4926 18.3799 12.3856 19.0333 13.048C19.5347 13.5478 20.1723 13.8863 20.8652 14.0207C21.558 14.1551 22.2749 14.0793 22.9249 13.8029L21.0953 17H26.9066L25.0732 13.8067C25.7232 14.0831 26.4401 14.1589 27.133 14.0245C27.8259 13.8901 28.4635 13.5515 28.9649 13.0518C29.6193 12.3892 29.9907 11.4954 29.9998 10.5611C30.0089 9.62673 29.655 8.72577 29.0136 8.05041Z" fill="black"/>
</svg>
