<svg width="34" height="20" viewBox="0 0 34 20" fill="none" xmlns="http://www.w3.org/2000/svg">
<rect width="34" height="20" rx="2" fill="white"/>
<path d="M14.6512 9.37097C14.6512 12.1647 14.0627 14.2503 12.8857 15.6278C11.7087 17.0053 9.92701 17.694 7.54069 17.694C6.69998 17.694 6.06298 17.6487 5.62969 17.5582V15.1525C6.17292 15.2883 6.74201 15.3562 7.33698 15.3562C8.33936 15.3562 9.16391 15.2107 9.81061 14.9197C10.4573 14.6222 10.952 14.1598 11.2948 13.5325C11.6375 12.8987 11.8348 12.0289 11.8865 10.9231H11.7701C11.395 11.5309 10.9617 11.9578 10.4702 12.2035C9.97875 12.4493 9.36438 12.5721 8.62715 12.5721C7.39195 12.5721 6.41866 12.1777 5.70729 11.3887C4.99592 10.5932 4.64023 9.49061 4.64023 8.0808C4.64023 6.56105 5.07029 5.36142 5.9304 4.48191C6.79698 3.59593 7.97398 3.15294 9.46139 3.15294C10.509 3.15294 11.4241 3.39868 12.2066 3.89018C12.9956 4.38167 13.6003 5.09627 14.0206 6.03399C14.441 6.96524 14.6512 8.07757 14.6512 9.37097ZM9.51959 5.55867C8.89876 5.55867 8.41373 5.77208 8.06452 6.1989C7.7153 6.62572 7.54069 7.24009 7.54069 8.042C7.54069 8.7275 7.69913 9.27073 8.01601 9.67168C8.3329 10.0726 8.81469 10.2731 9.46139 10.2731C10.0693 10.2731 10.5899 10.0759 11.0232 9.68138C11.4565 9.28043 11.6731 8.82127 11.6731 8.30391C11.6731 7.53434 11.4694 6.8844 11.062 6.35411C10.661 5.82381 10.1469 5.55867 9.51959 5.55867Z" fill="black"/>
<path d="M29.0136 8.05041L28.9649 7.99757L24.001 3L19.0333 7.99757L18.9845 8.05041C18.3443 8.72559 17.9911 9.62574 18.0002 10.5592C18.0093 11.4926 18.3799 12.3856 19.0333 13.048C19.5347 13.5478 20.1723 13.8863 20.8652 14.0207C21.558 14.1551 22.2749 14.0793 22.9249 13.8029L21.0953 17H26.9066L25.0732 13.8067C25.7232 14.0831 26.4401 14.1589 27.133 14.0245C27.8259 13.8901 28.4635 13.5515 28.9649 13.0518C29.6193 12.3892 29.9907 11.4954 29.9998 10.5611C30.0089 9.62673 29.655 8.72577 29.0136 8.05041Z" fill="black"/>
</svg>
