<svg width="34" height="20" viewBox="0 0 34 20" fill="none" xmlns="http://www.w3.org/2000/svg">
<rect width="34" height="20" rx="2" fill="white"/>
<path d="M9.09375 17.3594C8.54688 17.3594 8.07031 17.3021 7.66406 17.1875V15.1719C8.08073 15.276 8.46094 15.3281 8.80469 15.3281C9.33594 15.3281 9.71615 15.1615 9.94531 14.8281C10.1745 14.5 10.2891 13.9844 10.2891 13.2812V2.57812H12.7109V13.2656C12.7109 14.599 12.4062 15.6146 11.7969 16.3125C11.1875 17.0104 10.2865 17.3594 9.09375 17.3594Z" fill="black"/>
<path d="M30.0136 8.05041L29.9649 7.99757L25.001 3L20.0333 7.99757L19.9845 8.05041C19.3443 8.72559 18.9911 9.62574 19.0002 10.5592C19.0093 11.4926 19.3799 12.3856 20.0333 13.048C20.5347 13.5478 21.1723 13.8863 21.8652 14.0207C22.558 14.1551 23.2749 14.0793 23.9249 13.8029L22.0953 17H27.9066L26.0732 13.8067C26.7232 14.0831 27.4401 14.1589 28.133 14.0245C28.8259 13.8901 29.4635 13.5515 29.9649 13.0518C30.6193 12.3892 30.9907 11.4954 30.9998 10.5611C31.0089 9.62673 30.655 8.72577 30.0136 8.05041Z" fill="black"/>
</svg>
