<svg width="34" height="20" viewBox="0 0 34 20" fill="none" xmlns="http://www.w3.org/2000/svg">
<rect width="34" height="20" rx="2" fill="white"/>
<path d="M15.9531 16H12.8594L9.49316 10.5859L8.3418 11.4121V16H5.61719V3.15039H8.3418V9.03027L9.41406 7.51855L12.8945 3.15039H15.918L11.4355 8.83691L15.9531 16Z" fill="black"/>
<path d="M30.0136 8.05041L29.9649 7.99757L25.001 3L20.0333 7.99757L19.9845 8.05041C19.3443 8.72559 18.9911 9.62574 19.0002 10.5592C19.0093 11.4926 19.3799 12.3856 20.0333 13.048C20.5347 13.5478 21.1723 13.8863 21.8652 14.0207C22.558 14.1551 23.2749 14.0793 23.9249 13.8029L22.0953 17H27.9066L26.0732 13.8067C26.7232 14.0831 27.4401 14.1589 28.133 14.0245C28.8259 13.8901 29.4635 13.5515 29.9649 13.0518C30.6193 12.3892 30.9907 11.4954 30.9998 10.5611C31.0089 9.62673 30.655 8.72577 30.0136 8.05041Z" fill="black"/>
</svg>
