<svg width="34" height="20" viewBox="0 0 34 20" fill="none" xmlns="http://www.w3.org/2000/svg">
<rect width="34" height="20" rx="2" fill="white"/>
<path d="M15.8047 9.27344C15.8047 10.6172 15.5651 11.7448 15.0859 12.6562C14.612 13.5625 13.9141 14.2266 12.9922 14.6484L15.7422 17.7188H12.6406L10.5469 15.1562H10.3672C8.61719 15.1562 7.27344 14.6484 6.33594 13.6328C5.39844 12.6172 4.92969 11.1589 4.92969 9.25781C4.92969 7.35677 5.39844 5.90625 6.33594 4.90625C7.27865 3.90104 8.6276 3.39844 10.3828 3.39844C12.138 3.39844 13.4792 3.90365 14.4062 4.91406C15.3385 5.92448 15.8047 7.3776 15.8047 9.27344ZM7.46875 9.27344C7.46875 10.5495 7.71094 11.5104 8.19531 12.1562C8.67969 12.8021 9.40365 13.125 10.3672 13.125C12.2995 13.125 13.2656 11.8411 13.2656 9.27344C13.2656 6.70052 12.3047 5.41406 10.3828 5.41406C9.41927 5.41406 8.69271 5.73958 8.20312 6.39062C7.71354 7.03646 7.46875 7.9974 7.46875 9.27344Z" fill="black"/>
<path d="M30.0136 8.05041L29.9649 7.99757L25.001 3L20.0333 7.99757L19.9845 8.05041C19.3443 8.72559 18.9911 9.62574 19.0002 10.5592C19.0093 11.4926 19.3799 12.3856 20.0333 13.048C20.5347 13.5478 21.1723 13.8863 21.8652 14.0207C22.558 14.1551 23.2749 14.0793 23.9249 13.8029L22.0953 17H27.9066L26.0732 13.8067C26.7232 14.0831 27.4401 14.1589 28.133 14.0245C28.8259 13.8901 29.4635 13.5515 29.9649 13.0518C30.6193 12.3892 30.9907 11.4954 30.9998 10.5611C31.0089 9.62673 30.655 8.72577 30.0136 8.05041Z" fill="black"/>
</svg>
