<svg width="51" height="44" viewBox="0 0 51 44" fill="none" xmlns="http://www.w3.org/2000/svg">
<path d="M6.0625 7.95312H6.85938C7.60417 7.95312 8.16146 7.80729 8.53125 7.51562C8.90104 7.21875 9.08594 6.78906 9.08594 6.22656C9.08594 5.65885 8.92969 5.23958 8.61719 4.96875C8.3099 4.69792 7.82552 4.5625 7.16406 4.5625H6.0625V7.95312ZM11.5312 6.14062C11.5312 7.36979 11.1458 8.3099 10.375 8.96094C9.60938 9.61198 8.51823 9.9375 7.10156 9.9375H6.0625V14H3.64062V2.57812H7.28906C8.67448 2.57812 9.72656 2.8776 10.4453 3.47656C11.1693 4.07031 11.5312 4.95833 11.5312 6.14062ZM15.3984 9.61719C15.3984 10.4818 15.5391 11.1354 15.8203 11.5781C16.1068 12.0208 16.5703 12.2422 17.2109 12.2422C17.8464 12.2422 18.3021 12.0234 18.5781 11.5859C18.8594 11.1432 19 10.487 19 9.61719C19 8.7526 18.8594 8.10417 18.5781 7.67188C18.2969 7.23958 17.8359 7.02344 17.1953 7.02344C16.5599 7.02344 16.1016 7.23958 15.8203 7.67188C15.5391 8.09896 15.3984 8.7474 15.3984 9.61719ZM21.4375 9.61719C21.4375 11.0391 21.0625 12.151 20.3125 12.9531C19.5625 13.7552 18.5182 14.1562 17.1797 14.1562C16.3411 14.1562 15.6016 13.974 14.9609 13.6094C14.3203 13.2396 13.8281 12.7109 13.4844 12.0234C13.1406 11.3359 12.9688 10.5339 12.9688 9.61719C12.9688 8.1901 13.3411 7.08073 14.0859 6.28906C14.8307 5.4974 15.8776 5.10156 17.2266 5.10156C18.0651 5.10156 18.8047 5.28385 19.4453 5.64844C20.0859 6.01302 20.5781 6.53646 20.9219 7.21875C21.2656 7.90104 21.4375 8.70052 21.4375 9.61719ZM25.6953 9.25L26.7344 7.92188L29.1797 5.26562H31.8672L28.3984 9.05469L32.0781 14H29.3281L26.8125 10.4609L25.7891 11.2812V14H23.4062V1.84375H25.7891V7.26562L25.6641 9.25H25.6953ZM36.9453 6.79688C36.4401 6.79688 36.0443 6.95833 35.7578 7.28125C35.4714 7.59896 35.3073 8.05208 35.2656 8.64062H38.6094C38.599 8.05208 38.4453 7.59896 38.1484 7.28125C37.8516 6.95833 37.4505 6.79688 36.9453 6.79688ZM37.2812 14.1562C35.875 14.1562 34.776 13.7682 33.9844 12.9922C33.1927 12.2161 32.7969 11.1172 32.7969 9.69531C32.7969 8.23177 33.1615 7.10156 33.8906 6.30469C34.625 5.5026 35.638 5.10156 36.9297 5.10156C38.1641 5.10156 39.125 5.45312 39.8125 6.15625C40.5 6.85938 40.8438 7.83073 40.8438 9.07031V10.2266H35.2109C35.237 10.9036 35.4375 11.4323 35.8125 11.8125C36.1875 12.1927 36.7135 12.3828 37.3906 12.3828C37.9167 12.3828 38.4141 12.3281 38.8828 12.2188C39.3516 12.1094 39.8411 11.9349 40.3516 11.6953V13.5391C39.9349 13.7474 39.4896 13.901 39.0156 14C38.5417 14.1042 37.9635 14.1562 37.2812 14.1562ZM47.6562 5.10156C47.9792 5.10156 48.2474 5.125 48.4609 5.17188L48.2812 7.40625C48.0885 7.35417 47.8542 7.32812 47.5781 7.32812C46.8177 7.32812 46.224 7.52344 45.7969 7.91406C45.375 8.30469 45.1641 8.85156 45.1641 9.55469V14H42.7812V5.26562H44.5859L44.9375 6.73438H45.0547C45.3255 6.24479 45.6901 5.85156 46.1484 5.55469C46.612 5.2526 47.1146 5.10156 47.6562 5.10156Z" fill="white"/>
<path d="M13.7695 41H8.28711V30.418C8.28711 29.1328 8.31445 27.957 8.36914 26.8906C8.0319 27.3008 7.61263 27.7292 7.11133 28.1758L4.8418 30.0488L2.03906 26.6035L8.90234 21.0117H13.7695V41ZM32.7188 31.0332C32.7188 34.5697 32.1263 37.1628 30.9414 38.8125C29.7565 40.4531 27.9427 41.2734 25.5 41.2734C23.112 41.2734 21.3118 40.4167 20.0996 38.7031C18.8874 36.9805 18.2812 34.4238 18.2812 31.0332C18.2812 27.4785 18.8737 24.8717 20.0586 23.2129C21.2435 21.554 23.0573 20.7246 25.5 20.7246C27.8789 20.7246 29.6745 21.5905 30.8867 23.3223C32.1081 25.0449 32.7188 27.6152 32.7188 31.0332ZM23.6543 31.0332C23.6543 33.2936 23.7956 34.8477 24.0781 35.6953C24.3607 36.543 24.8346 36.9668 25.5 36.9668C26.1745 36.9668 26.6484 36.5293 26.9219 35.6543C27.2044 34.7793 27.3457 33.2389 27.3457 31.0332C27.3457 28.8184 27.2044 27.2689 26.9219 26.3848C26.6393 25.4915 26.1654 25.0449 25.5 25.0449C24.8346 25.0449 24.3607 25.4733 24.0781 26.3301C23.7956 27.1868 23.6543 28.7546 23.6543 31.0332ZM46.582 41H41.0996V30.418C41.0996 29.1328 41.127 27.957 41.1816 26.8906C40.8444 27.3008 40.4251 27.7292 39.9238 28.1758L37.6543 30.0488L34.8516 26.6035L41.7148 21.0117H46.582V41Z" fill="#FEB700"/>
</svg>
