<svg width="85" height="44" viewBox="0 0 85 44" fill="none" xmlns="http://www.w3.org/2000/svg">
<path d="M13.5234 14V2.57812H15.9453V14H13.5234ZM26.6953 14H24.3125V8.89844C24.3125 8.26823 24.2005 7.79688 23.9766 7.48438C23.7526 7.16667 23.3958 7.00781 22.9062 7.00781C22.2396 7.00781 21.7578 7.23177 21.4609 7.67969C21.1641 8.1224 21.0156 8.85938 21.0156 9.89062V14H18.6328V5.26562H20.4531L20.7734 6.38281H20.9062C21.1719 5.96094 21.5365 5.64323 22 5.42969C22.4688 5.21094 23 5.10156 23.5938 5.10156C24.6094 5.10156 25.3802 5.3776 25.9062 5.92969C26.4323 6.47656 26.6953 7.26823 26.6953 8.30469V14ZM32.8281 12.2578C33.2448 12.2578 33.7448 12.1667 34.3281 11.9844V13.7578C33.7344 14.0234 33.0052 14.1562 32.1406 14.1562C31.1875 14.1562 30.4922 13.9167 30.0547 13.4375C29.6224 12.9531 29.4062 12.2292 29.4062 11.2656V7.05469H28.2656V6.04688L29.5781 5.25L30.2656 3.40625H31.7891V5.26562H34.2344V7.05469H31.7891V11.2656C31.7891 11.6042 31.8828 11.8542 32.0703 12.0156C32.263 12.1771 32.5156 12.2578 32.8281 12.2578ZM40.9766 5.10156C41.2995 5.10156 41.5677 5.125 41.7812 5.17188L41.6016 7.40625C41.4089 7.35417 41.1745 7.32812 40.8984 7.32812C40.138 7.32812 39.5443 7.52344 39.1172 7.91406C38.6953 8.30469 38.4844 8.85156 38.4844 9.55469V14H36.1016V5.26562H37.9062L38.2578 6.73438H38.375C38.6458 6.24479 39.0104 5.85156 39.4688 5.55469C39.9323 5.2526 40.4349 5.10156 40.9766 5.10156ZM45.2656 9.61719C45.2656 10.4818 45.4062 11.1354 45.6875 11.5781C45.974 12.0208 46.4375 12.2422 47.0781 12.2422C47.7135 12.2422 48.1693 12.0234 48.4453 11.5859C48.7266 11.1432 48.8672 10.487 48.8672 9.61719C48.8672 8.7526 48.7266 8.10417 48.4453 7.67188C48.1641 7.23958 47.7031 7.02344 47.0625 7.02344C46.4271 7.02344 45.9688 7.23958 45.6875 7.67188C45.4062 8.09896 45.2656 8.7474 45.2656 9.61719ZM51.3047 9.61719C51.3047 11.0391 50.9297 12.151 50.1797 12.9531C49.4297 13.7552 48.3854 14.1562 47.0469 14.1562C46.2083 14.1562 45.4688 13.974 44.8281 13.6094C44.1875 13.2396 43.6953 12.7109 43.3516 12.0234C43.0078 11.3359 42.8359 10.5339 42.8359 9.61719C42.8359 8.1901 43.2083 7.08073 43.9531 6.28906C44.6979 5.4974 45.7448 5.10156 47.0938 5.10156C47.9323 5.10156 48.6719 5.28385 49.3125 5.64844C49.9531 6.01302 50.4453 6.53646 50.7891 7.21875C51.1328 7.90104 51.3047 8.70052 51.3047 9.61719ZM61.1094 12.2578C61.526 12.2578 62.026 12.1667 62.6094 11.9844V13.7578C62.0156 14.0234 61.2865 14.1562 60.4219 14.1562C59.4688 14.1562 58.7734 13.9167 58.3359 13.4375C57.9036 12.9531 57.6875 12.2292 57.6875 11.2656V7.05469H56.5469V6.04688L57.8594 5.25L58.5469 3.40625H60.0703V5.26562H62.5156V7.05469H60.0703V11.2656C60.0703 11.6042 60.1641 11.8542 60.3516 12.0156C60.5443 12.1771 60.7969 12.2578 61.1094 12.2578ZM64.2812 3.00781C64.2812 2.23177 64.7135 1.84375 65.5781 1.84375C66.4427 1.84375 66.875 2.23177 66.875 3.00781C66.875 3.3776 66.7656 3.66667 66.5469 3.875C66.3333 4.07812 66.0104 4.17969 65.5781 4.17969C64.7135 4.17969 64.2812 3.78906 64.2812 3.00781ZM66.7656 14H64.3828V5.26562H66.7656V14ZM71.6562 14H69.2734V1.84375H71.6562V14Z" fill="white"/>
<path d="M16.9336 27.3691C16.9336 29.6022 16.2728 31.3294 14.9512 32.5508C13.6387 33.763 11.7702 34.3691 9.3457 34.3691H7.82812V41H2.42773V21.0117H9.3457C11.8704 21.0117 13.7663 21.5632 15.0332 22.666C16.3001 23.7689 16.9336 25.3366 16.9336 27.3691ZM7.82812 29.9668H8.8125C9.6237 29.9668 10.2663 29.7389 10.7402 29.2832C11.2233 28.8275 11.4648 28.1986 11.4648 27.3965C11.4648 26.0475 10.7174 25.373 9.22266 25.373H7.82812V29.9668ZM34.5977 33.2207C34.5977 35.7546 33.9141 37.7324 32.5469 39.1543C31.1888 40.5671 29.2839 41.2734 26.832 41.2734C24.4805 41.2734 22.6074 40.5488 21.2129 39.0996C19.8275 37.6504 19.1348 35.6908 19.1348 33.2207C19.1348 30.696 19.8138 28.7363 21.1719 27.3418C22.5391 25.9382 24.4531 25.2363 26.9141 25.2363C28.4362 25.2363 29.7806 25.5599 30.9473 26.207C32.1139 26.8542 33.0117 27.7839 33.6406 28.9961C34.2786 30.1992 34.5977 31.6074 34.5977 33.2207ZM24.5625 33.2207C24.5625 34.5514 24.7402 35.5677 25.0957 36.2695C25.4512 36.9622 26.0482 37.3086 26.8867 37.3086C27.7161 37.3086 28.2995 36.9622 28.6367 36.2695C28.9831 35.5677 29.1562 34.5514 29.1562 33.2207C29.1562 31.8991 28.9831 30.901 28.6367 30.2266C28.2904 29.5521 27.6979 29.2148 26.8594 29.2148C26.0391 29.2148 25.4512 29.5521 25.0957 30.2266C24.7402 30.8919 24.5625 31.89 24.5625 33.2207ZM42.8418 32.291C43.4889 31.2611 44.0404 30.459 44.4961 29.8848L47.9688 25.5098H53.9297L48.5566 32.0996L54.2715 41H48.1602L44.7695 35.4492L43.0332 36.7754V41H37.6602V19.7266H43.0332V28.0938C43.0332 29.5247 42.9329 30.9238 42.7324 32.291H42.8418ZM63.5957 41.2734C61.0163 41.2734 59.0111 40.5898 57.5801 39.2227C56.1582 37.8464 55.4473 35.8913 55.4473 33.3574C55.4473 30.7415 56.1081 28.7363 57.4297 27.3418C58.7513 25.9382 60.638 25.2363 63.0898 25.2363C65.4232 25.2363 67.2233 25.847 68.4902 27.0684C69.7663 28.2806 70.4043 30.0306 70.4043 32.3184V34.6973H60.8477C60.8841 35.5632 61.1986 36.2422 61.791 36.7344C62.3926 37.2266 63.2083 37.4727 64.2383 37.4727C65.1771 37.4727 66.0384 37.3861 66.8223 37.2129C67.6152 37.0306 68.472 36.7253 69.3926 36.2969V40.1387C68.554 40.5671 67.6882 40.8633 66.7949 41.0273C65.9017 41.1914 64.8353 41.2734 63.5957 41.2734ZM63.2812 28.873C62.6523 28.873 62.1237 29.0736 61.6953 29.4746C61.276 29.8665 61.0299 30.4863 60.957 31.334H65.5508C65.5326 30.5866 65.3184 29.9896 64.9082 29.543C64.5072 29.0964 63.9648 28.873 63.2812 28.873ZM82.7773 25.2363C83.2422 25.2363 83.6842 25.2728 84.1035 25.3457L84.4043 25.4004L83.9258 30.4453C83.4883 30.3359 82.8822 30.2812 82.1074 30.2812C80.9408 30.2812 80.0931 30.5501 79.5645 31.0879C79.0358 31.6165 78.7715 32.3822 78.7715 33.3848V41H73.4258V25.5098H77.4043L78.2383 27.9844H78.498C78.9447 27.1641 79.5645 26.5033 80.3574 26.002C81.1595 25.4915 81.9661 25.2363 82.7773 25.2363Z" fill="#FEB700"/>
</svg>
