<svg width="13" height="15" viewBox="0 0 13 15" fill="none" xmlns="http://www.w3.org/2000/svg">
<path d="M6.75254 11.8455C5.50575 11.8455 4.31003 11.3639 3.42841 10.5068C2.5468 9.64967 2.05151 8.48716 2.05151 7.275V6.62208M6.75254 11.8455C7.99934 11.8455 9.19506 11.3639 10.0767 10.5068C10.9583 9.64967 11.4536 8.48716 11.4536 7.275V6.62208M6.75254 11.8455V13.8042M4.73782 4.0104C4.73782 3.4909 4.95008 2.99268 5.32792 2.62534C5.70575 2.258 6.21821 2.05164 6.75254 2.05164C7.28688 2.05164 7.79934 2.258 8.17717 2.62534C8.55501 2.99268 8.76727 3.4909 8.76727 4.0104V7.275C8.76727 7.7945 8.55501 8.29272 8.17717 8.66006C7.79934 9.0274 7.28688 9.23377 6.75254 9.23377C6.21821 9.23377 5.70575 9.0274 5.32792 8.66006C4.95008 8.29272 4.73782 7.7945 4.73782 7.275V4.0104Z" stroke="white" stroke-width="1.17526" stroke-linecap="round" stroke-linejoin="round"/>
<path d="M4.40207 13.8042H9.1031" stroke="white" stroke-width="1.17526" stroke-linecap="round"/>
</svg>
