<svg width="7" height="14" viewBox="0 0 7 14" fill="none" xmlns="http://www.w3.org/2000/svg">
<path d="M4.23759 0.587353L2.83759 1.98735C3.50425 2.65402 4.02525 3.41669 4.40059 4.27535C4.77592 5.13402 4.96325 6.03802 4.96259 6.98735C4.96259 7.93735 4.77492 8.83735 4.39959 9.68735C4.02425 10.5374 3.50359 11.2957 2.83759 11.9624L4.23759 13.4124C5.08759 12.5624 5.75425 11.579 6.23759 10.4624C6.72092 9.34569 6.96259 8.18735 6.96259 6.98735C6.96259 5.78735 6.72092 4.63302 6.23759 3.52435C5.75425 2.41569 5.08759 1.43669 4.23759 0.587353ZM1.43759 3.43735L0.0375851 4.83735C0.320918 5.12069 0.54592 5.44569 0.712586 5.81235C0.879253 6.17902 0.962586 6.57069 0.962586 6.98735C0.962586 7.40402 0.879252 7.79569 0.712586 8.16235C0.545919 8.52902 0.320918 8.85402 0.0375847 9.13735L1.43759 10.5624C1.92092 10.079 2.29592 9.53735 2.56259 8.93735C2.82925 8.33735 2.96259 7.69569 2.96259 7.01235C2.96259 6.32902 2.82925 5.67902 2.56259 5.06235C2.29592 4.44569 1.92092 3.90402 1.43759 3.43735Z" fill="black"/>
</svg>
