<svg width="104" height="23" viewBox="0 0 104 23" fill="none" xmlns="http://www.w3.org/2000/svg">
<rect x="0.833332" y="3.00252" width="24.9999" height="18.3333" rx="4.16666" stroke="white" stroke-width="1.66666"/>
<path d="M17.0833 11.4475C17.6389 11.7683 17.6389 12.5702 17.0833 12.8909L12.0833 15.7777C11.5278 16.0984 10.8333 15.6975 10.8333 15.056L10.8333 9.28248C10.8333 8.64098 11.5278 8.24005 12.0833 8.5608L17.0833 11.4475Z" fill="white"/>
<path d="M38.525 18L34.7281 8.04199H38.3141L40.0016 13.9307C40.0074 13.96 40.0192 14.0098 40.0367 14.0801C40.0543 14.1504 40.0719 14.2354 40.0895 14.335C40.1071 14.4287 40.1217 14.5312 40.1334 14.6426C40.151 14.748 40.1598 14.8477 40.1598 14.9414H40.2213C40.2213 14.6367 40.274 14.3057 40.3795 13.9482L42.1461 8.04199H45.7233L41.9264 18H38.525ZM50.3727 18H46.9362V8.04199H50.3727V18ZM46.8483 5.56348C46.8483 5.04785 46.9918 4.66406 47.2789 4.41211C47.566 4.16016 48.0289 4.03418 48.6676 4.03418C49.3063 4.03418 49.7721 4.16309 50.0651 4.4209C50.358 4.67871 50.5045 5.05957 50.5045 5.56348C50.5045 6.57129 49.8922 7.0752 48.6676 7.0752C47.4547 7.0752 46.8483 6.57129 46.8483 5.56348ZM55.8658 18.1758C55.1569 18.1758 54.5358 17.9736 54.0026 17.5693C53.4752 17.165 53.0651 16.5703 52.7721 15.7852C52.485 15 52.3414 14.083 52.3414 13.0342C52.3414 11.417 52.6666 10.1514 53.317 9.2373C53.9674 8.32324 54.861 7.86621 55.9977 7.86621C56.5543 7.86621 57.0406 7.97754 57.4567 8.2002C57.8785 8.42285 58.2623 8.79785 58.608 9.3252H58.6783C58.567 8.5459 58.5114 7.7666 58.5114 6.9873V4.32422H61.9742V18H59.3815L58.6432 16.7432H58.5114C57.9196 17.6982 57.0377 18.1758 55.8658 18.1758ZM57.2721 15.46C57.8229 15.46 58.2096 15.2871 58.4323 14.9414C58.6608 14.5957 58.7838 14.0625 58.8014 13.3418V13.0693C58.8014 12.1904 58.6754 11.5664 58.4235 11.1973C58.1715 10.8223 57.776 10.6348 57.2369 10.6348C56.7858 10.6348 56.4342 10.8486 56.1823 11.2764C55.9362 11.6982 55.8131 12.3018 55.8131 13.0869C55.8131 13.8604 55.9391 14.4492 56.191 14.8535C56.443 15.2578 56.8033 15.46 57.2721 15.46ZM69.1637 18.1758C67.5055 18.1758 66.2164 17.7363 65.2965 16.8574C64.3824 15.9727 63.9254 14.7158 63.9254 13.0869C63.9254 11.4053 64.3502 10.1162 65.1998 9.21973C66.0494 8.31738 67.2623 7.86621 68.8385 7.86621C70.3385 7.86621 71.4957 8.25879 72.3102 9.04395C73.1305 9.82324 73.5406 10.9482 73.5406 12.4189V13.9482H67.3971C67.4205 14.5049 67.6227 14.9414 68.0035 15.2578C68.3903 15.5742 68.9147 15.7324 69.5768 15.7324C70.1803 15.7324 70.734 15.6768 71.2379 15.5654C71.7477 15.4482 72.2985 15.252 72.8903 14.9766V17.4463C72.3512 17.7217 71.7946 17.9121 71.2203 18.0176C70.6461 18.123 69.9606 18.1758 69.1637 18.1758ZM68.9615 10.2041C68.5573 10.2041 68.2174 10.333 67.942 10.5908C67.6725 10.8428 67.5143 11.2412 67.4674 11.7861H70.4205C70.4088 11.3057 70.2711 10.9219 70.0074 10.6348C69.7496 10.3477 69.401 10.2041 68.9615 10.2041ZM84.9928 12.999C84.9928 14.6279 84.5533 15.8994 83.6744 16.8135C82.8014 17.7217 81.5768 18.1758 80.0006 18.1758C78.4889 18.1758 77.2848 17.71 76.3883 16.7783C75.4977 15.8467 75.0524 14.5869 75.0524 12.999C75.0524 11.376 75.4889 10.1162 76.3619 9.21973C77.2408 8.31738 78.4713 7.86621 80.0533 7.86621C81.0319 7.86621 81.8961 8.07422 82.6461 8.49023C83.3961 8.90625 83.9733 9.50391 84.3776 10.2832C84.7877 11.0566 84.9928 11.9619 84.9928 12.999ZM78.5416 12.999C78.5416 13.8545 78.6559 14.5078 78.8844 14.959C79.1129 15.4043 79.4967 15.627 80.0358 15.627C80.569 15.627 80.944 15.4043 81.1608 14.959C81.3834 14.5078 81.4948 13.8545 81.4948 12.999C81.4948 12.1494 81.3834 11.5078 81.1608 11.0742C80.9381 10.6406 80.5573 10.4238 80.0182 10.4238C79.4908 10.4238 79.1129 10.6406 78.8844 11.0742C78.6559 11.502 78.5416 12.1436 78.5416 12.999Z" fill="white"/>
</svg>
