<svg width="124" height="23" viewBox="0 0 124 23" fill="none" xmlns="http://www.w3.org/2000/svg">
<path d="M8.33331 17.7248C6.5652 17.7248 4.86951 17.0419 3.61927 15.8264C2.36903 14.6109 1.66666 12.9623 1.66666 11.2433V10.3174M8.33331 17.7248C10.1014 17.7248 11.7971 17.0419 13.0473 15.8264C14.2976 14.6109 15 12.9623 15 11.2433V10.3174M8.33331 17.7248V20.5026M5.47617 6.61371C5.47617 5.877 5.77719 5.17046 6.31301 4.64953C6.84882 4.12859 7.57555 3.83594 8.33331 3.83594C9.09107 3.83594 9.81779 4.12859 10.3536 4.64953C10.8894 5.17046 11.1904 5.877 11.1904 6.61371V11.2433C11.1904 11.98 10.8894 12.6866 10.3536 13.2075C9.81779 13.7284 9.09107 14.0211 8.33331 14.0211C7.57555 14.0211 6.84882 13.7284 6.31301 13.2075C5.77719 12.6866 5.47617 11.98 5.47617 11.2433V6.61371Z" stroke="white" stroke-width="1.66666" stroke-linecap="round" stroke-linejoin="round"/>
<path d="M4.99998 20.5024H11.6666" stroke="white" stroke-width="1.66666" stroke-linecap="round"/>
<path d="M31.8913 18.1758C31.3874 18.1758 30.9362 18.0938 30.5378 17.9297C30.1393 17.7598 29.7438 17.458 29.3512 17.0244H29.193C29.2985 17.7217 29.3512 18.1553 29.3512 18.3252V22.3242H25.9147V8.04199H28.7096L29.193 9.30762H29.3512C29.9899 8.34668 30.8717 7.86621 31.9967 7.86621C33.0983 7.86621 33.9626 8.32324 34.5895 9.2373C35.2165 10.1514 35.5299 11.4053 35.5299 12.999C35.5299 14.6045 35.2018 15.8701 34.5456 16.7959C33.8952 17.7158 33.0104 18.1758 31.8913 18.1758ZM30.7399 10.5645C30.236 10.5645 29.8815 10.7461 29.6764 11.1094C29.4772 11.4668 29.3688 12 29.3512 12.709V12.9814C29.3512 13.8369 29.4655 14.4551 29.694 14.8359C29.9225 15.2168 30.2829 15.4072 30.7751 15.4072C31.2145 15.4072 31.5338 15.2197 31.7331 14.8447C31.9323 14.4639 32.0319 13.8369 32.0319 12.9639C32.0319 12.1084 31.9323 11.4961 31.7331 11.127C31.5338 10.752 31.2028 10.5645 30.7399 10.5645ZM47.0085 12.999C47.0085 14.6279 46.569 15.8994 45.6901 16.8135C44.817 17.7217 43.5924 18.1758 42.0163 18.1758C40.5045 18.1758 39.3004 17.71 38.404 16.7783C37.5133 15.8467 37.068 14.5869 37.068 12.999C37.068 11.376 37.5045 10.1162 38.3776 9.21973C39.2565 8.31738 40.487 7.86621 42.069 7.86621C43.0475 7.86621 43.9118 8.07422 44.6618 8.49023C45.4118 8.90625 45.9889 9.50391 46.3932 10.2832C46.8034 11.0566 47.0085 11.9619 47.0085 12.999ZM40.5573 12.999C40.5573 13.8545 40.6715 14.5078 40.9001 14.959C41.1286 15.4043 41.5124 15.627 42.0514 15.627C42.5846 15.627 42.9596 15.4043 43.1764 14.959C43.3991 14.5078 43.5104 13.8545 43.5104 12.999C43.5104 12.1494 43.3991 11.5078 43.1764 11.0742C42.9538 10.6406 42.5729 10.4238 42.0338 10.4238C41.5065 10.4238 41.1286 10.6406 40.9001 11.0742C40.6715 11.502 40.5573 12.1436 40.5573 12.999ZM52.071 18.1758C51.362 18.1758 50.7409 17.9736 50.2077 17.5693C49.6803 17.165 49.2702 16.5703 48.9772 15.7852C48.6901 15 48.5465 14.083 48.5465 13.0342C48.5465 11.417 48.8717 10.1514 49.5221 9.2373C50.1725 8.32324 51.0661 7.86621 52.2028 7.86621C52.7594 7.86621 53.2458 7.97754 53.6618 8.2002C54.0836 8.42285 54.4674 8.79785 54.8131 9.3252H54.8835C54.7721 8.5459 54.7165 7.7666 54.7165 6.9873V4.32422H58.1794V18H55.5866L54.8483 16.7432H54.7165C54.1247 17.6982 53.2428 18.1758 52.071 18.1758ZM53.4772 15.46C54.028 15.46 54.4147 15.2871 54.6374 14.9414C54.8659 14.5957 54.9889 14.0625 55.0065 13.3418V13.0693C55.0065 12.1904 54.8805 11.5664 54.6286 11.1973C54.3766 10.8223 53.9811 10.6348 53.442 10.6348C52.9909 10.6348 52.6393 10.8486 52.3874 11.2764C52.1413 11.6982 52.0182 12.3018 52.0182 13.0869C52.0182 13.8604 52.1442 14.4492 52.3961 14.8535C52.6481 15.2578 53.0085 15.46 53.4772 15.46ZM65.0963 18.1758C63.4674 18.1758 62.2311 17.7363 61.3874 16.8574C60.5495 15.9785 60.1305 14.7158 60.1305 13.0693C60.1305 11.417 60.5846 10.1367 61.4928 9.22852C62.401 8.32031 63.693 7.86621 65.3688 7.86621C66.5231 7.86621 67.61 8.11816 68.6295 8.62207L67.6188 11.1621C67.2028 10.9805 66.819 10.8369 66.4674 10.7314C66.1159 10.6201 65.7497 10.5645 65.3688 10.5645C64.8122 10.5645 64.3815 10.7812 64.0768 11.2148C63.7721 11.6484 63.6198 12.2607 63.6198 13.0518C63.6198 14.6455 64.2086 15.4424 65.3864 15.4424C66.3942 15.4424 67.361 15.1494 68.2868 14.5635V17.2969C67.402 17.8828 66.3385 18.1758 65.0963 18.1758ZM76.7594 18L76.1003 16.6816H76.0299C75.567 17.2559 75.0954 17.6484 74.6149 17.8594C74.1344 18.0703 73.5133 18.1758 72.7516 18.1758C71.8141 18.1758 71.0758 17.8945 70.5368 17.332C69.9977 16.7695 69.7282 15.9785 69.7282 14.959C69.7282 13.8984 70.0973 13.1104 70.8356 12.5947C71.5739 12.0732 72.6432 11.7803 74.0436 11.7158L75.7047 11.6631V11.5225C75.7047 10.7021 75.3004 10.292 74.4919 10.292C73.7653 10.292 72.8424 10.5381 71.7233 11.0303L70.7301 8.7627C71.8903 8.16504 73.3551 7.86621 75.1247 7.86621C76.402 7.86621 77.3893 8.18262 78.0866 8.81543C78.7897 9.44824 79.1413 10.333 79.1413 11.4697V18H76.7594ZM74.2106 15.75C74.6266 15.75 74.9811 15.6182 75.2741 15.3545C75.5729 15.0908 75.7223 14.748 75.7223 14.3262V13.5527L74.9313 13.5879C73.8004 13.6289 73.235 14.0449 73.235 14.8359C73.235 15.4453 73.5602 15.75 74.2106 15.75ZM89.1696 14.9414C89.1696 16.0078 88.8063 16.8135 88.0797 17.3584C87.3532 17.9033 86.3102 18.1758 84.9508 18.1758C84.2126 18.1758 83.571 18.1348 83.026 18.0527C82.4811 17.9766 81.9245 17.833 81.3561 17.6221V14.8711C81.8893 15.1055 82.4723 15.2988 83.1051 15.4512C83.7438 15.6035 84.3122 15.6797 84.8102 15.6797C85.5544 15.6797 85.9264 15.5098 85.9264 15.1699C85.9264 14.9941 85.821 14.8389 85.61 14.7041C85.4049 14.5635 84.8014 14.2939 83.7995 13.8955C82.8854 13.5205 82.2467 13.0957 81.8835 12.6211C81.5202 12.1406 81.3385 11.5342 81.3385 10.8018C81.3385 9.87598 81.696 9.15527 82.4108 8.63965C83.1256 8.12402 84.1364 7.86621 85.443 7.86621C86.0993 7.86621 86.7145 7.93945 87.2887 8.08594C87.8688 8.22656 88.4694 8.43457 89.0905 8.70996L88.1588 10.9248C87.7018 10.7197 87.2184 10.5469 86.7086 10.4062C86.1989 10.2598 85.7829 10.1865 85.4606 10.1865C84.8981 10.1865 84.6169 10.3242 84.6169 10.5996C84.6169 10.7695 84.7135 10.916 84.9069 11.0391C85.1061 11.1562 85.6745 11.3994 86.612 11.7686C87.3092 12.0557 87.8278 12.3369 88.1676 12.6123C88.5133 12.8877 88.7653 13.2129 88.9235 13.5879C89.0876 13.957 89.1696 14.4082 89.1696 14.9414ZM95.9547 15.46C96.4176 15.46 96.9713 15.3457 97.6159 15.1172V17.6221C97.153 17.8213 96.7106 17.9619 96.2887 18.0439C95.8727 18.1318 95.3835 18.1758 94.821 18.1758C93.6667 18.1758 92.8346 17.8945 92.3249 17.332C91.8151 16.7637 91.5602 15.8936 91.5602 14.7217V10.6172H90.3561V9.21973L91.8854 8.13867L92.7731 6.04688H95.0231V8.04199H97.4665V10.6172H95.0231V14.4932C95.0231 15.1377 95.3336 15.46 95.9547 15.46Z" fill="white"/>
</svg>
