<svg width="127" height="23" viewBox="0 0 127 23" fill="none" xmlns="http://www.w3.org/2000/svg">
<rect x="0.833335" y="3.00252" width="18.3334" height="18.3334" rx="4.16667" stroke="white" stroke-width="1.66667"/>
<path d="M5.00002 7.16919H11.6667" stroke="white" stroke-width="1.66667" stroke-linecap="round"/>
<path d="M5.00002 10.5024H15" stroke="white" stroke-width="1.66667" stroke-linecap="round"/>
<path d="M5.00002 13.8359H15" stroke="white" stroke-width="1.66667" stroke-linecap="round"/>
<path d="M5.00002 17.1692H15" stroke="white" stroke-width="1.66667" stroke-linecap="round"/>
<path d="M35.7432 18L35.084 16.6816H35.0137C34.5508 17.2559 34.0792 17.6484 33.5987 17.8594C33.1182 18.0703 32.4971 18.1758 31.7354 18.1758C30.7979 18.1758 30.0596 17.8945 29.5206 17.332C28.9815 16.7695 28.712 15.9785 28.712 14.959C28.712 13.8984 29.0811 13.1104 29.8194 12.5947C30.5577 12.0732 31.627 11.7803 33.0274 11.7158L34.6885 11.6631V11.5225C34.6885 10.7021 34.2842 10.292 33.4756 10.292C32.7491 10.292 31.8262 10.5381 30.7071 11.0303L29.7139 8.7627C30.8741 8.16504 32.3389 7.86621 34.1085 7.86621C35.3858 7.86621 36.3731 8.18262 37.0704 8.81543C37.7735 9.44824 38.1251 10.333 38.1251 11.4697V18H35.7432ZM33.1944 15.75C33.6104 15.75 33.9649 15.6182 34.2579 15.3545C34.5567 15.0908 34.7061 14.748 34.7061 14.3262V13.5527L33.9151 13.5879C32.7842 13.6289 32.2188 14.0449 32.2188 14.8359C32.2188 15.4453 32.544 15.75 33.1944 15.75ZM46.4747 7.86621C46.7735 7.86621 47.0577 7.88965 47.3272 7.93652L47.5206 7.97168L47.213 11.2148C46.9317 11.1445 46.5421 11.1094 46.044 11.1094C45.294 11.1094 44.7491 11.2822 44.4092 11.6279C44.0694 11.9678 43.8995 12.46 43.8995 13.1045V18H40.463V8.04199H43.0206L43.5567 9.63281H43.7237C44.0108 9.10547 44.4092 8.68066 44.919 8.3584C45.4346 8.03027 45.9532 7.86621 46.4747 7.86621ZM53.796 15.46C54.2589 15.46 54.8126 15.3457 55.4571 15.1172V17.6221C54.9942 17.8213 54.5518 17.9619 54.1299 18.0439C53.7139 18.1318 53.2247 18.1758 52.6622 18.1758C51.5079 18.1758 50.6758 17.8945 50.1661 17.332C49.6563 16.7637 49.4014 15.8936 49.4014 14.7217V10.6172H48.1973V9.21973L49.7266 8.13867L50.6143 6.04688H52.8643V8.04199H55.3077V10.6172H52.8643V14.4932C52.8643 15.1377 53.1749 15.46 53.796 15.46ZM60.6514 18H57.2149V8.04199H60.6514V18ZM57.127 5.56348C57.127 5.04785 57.2706 4.66406 57.5577 4.41211C57.8448 4.16016 58.3077 4.03418 58.9464 4.03418C59.585 4.03418 60.0508 4.16309 60.3438 4.4209C60.6368 4.67871 60.7833 5.05957 60.7833 5.56348C60.7833 6.57129 60.171 7.0752 58.9464 7.0752C57.7335 7.0752 57.127 6.57129 57.127 5.56348ZM66.3819 12.4014C66.7979 11.7393 67.1524 11.2236 67.4454 10.8545L69.6778 8.04199H73.5098L70.0557 12.2783L73.7296 18H69.8008L67.6212 14.4316L66.5049 15.2842V18H63.0508V4.32422H66.5049V9.70312C66.5049 10.623 66.4405 11.5225 66.3116 12.4014H66.3819ZM79.7237 18.1758C78.0655 18.1758 76.7764 17.7363 75.8565 16.8574C74.9424 15.9727 74.4854 14.7158 74.4854 13.0869C74.4854 11.4053 74.9102 10.1162 75.7598 9.21973C76.6094 8.31738 77.8223 7.86621 79.3985 7.86621C80.8985 7.86621 82.0557 8.25879 82.8702 9.04395C83.6905 9.82324 84.1006 10.9482 84.1006 12.4189V13.9482H77.9571C77.9805 14.5049 78.1827 14.9414 78.5635 15.2578C78.9503 15.5742 79.4747 15.7324 80.1368 15.7324C80.7403 15.7324 81.294 15.6768 81.7979 15.5654C82.3077 15.4482 82.8585 15.252 83.4503 14.9766V17.4463C82.9112 17.7217 82.3546 17.9121 81.7803 18.0176C81.2061 18.123 80.5206 18.1758 79.7237 18.1758ZM79.5215 10.2041C79.1172 10.2041 78.7774 10.333 78.502 10.5908C78.2325 10.8428 78.0743 11.2412 78.0274 11.7861H80.9805C80.9688 11.3057 80.8311 10.9219 80.5674 10.6348C80.3096 10.3477 79.961 10.2041 79.5215 10.2041ZM89.4796 18H86.043V4.32422H89.4796V18Z" fill="white"/>
</svg>
