<svg width="10" height="12" viewBox="0 0 10 12" fill="none" xmlns="http://www.w3.org/2000/svg">
<path d="M5 9.33333C3.93913 9.33333 2.92172 8.92361 2.17157 8.1943C1.42143 7.465 1 6.47584 1 5.44444V4.88889M5 9.33333C6.06087 9.33333 7.07828 8.92361 7.82843 8.1943C8.57857 7.465 9 6.47584 9 5.44444V4.88889M5 9.33333V11M3.28571 2.66667C3.28571 2.22464 3.46633 1.80072 3.78782 1.48816C4.10931 1.17559 4.54534 1 5 1C5.45466 1 5.89069 1.17559 6.21218 1.48816C6.53367 1.80072 6.71429 2.22464 6.71429 2.66667V5.44444C6.71429 5.88647 6.53367 6.3104 6.21218 6.62296C5.89069 6.93552 5.45466 7.11111 5 7.11111C4.54534 7.11111 4.10931 6.93552 3.78782 6.62296C3.46633 6.3104 3.28571 5.88647 3.28571 5.44444V2.66667Z" stroke="white" stroke-linecap="round" stroke-linejoin="round"/>
<path d="M3 11H7" stroke="white" stroke-linecap="round"/>
</svg>
