<svg width="115" height="115" viewBox="0 0 115 115" fill="none" xmlns="http://www.w3.org/2000/svg">
<path d="M65.4668 0.953366C67.8973 -0.790734 71.3011 -0.0672336 72.812 2.51467L77.8163 11.0659C78.8186 12.7786 80.7266 13.7508 82.7014 13.5549L92.5612 12.5772C95.5382 12.282 98.1242 14.6105 98.1412 17.6019L98.1992 27.5096C98.2112 29.494 99.3772 31.29 101.185 32.1078L110.213 36.1907C112.939 37.4235 114.014 40.7331 112.533 43.3325L107.63 51.9419C106.648 53.6663 106.76 55.8048 107.917 57.4171L113.693 65.4668C115.438 67.8972 114.714 71.3011 112.132 72.812L103.581 77.8162C101.868 78.8186 100.896 80.7266 101.092 82.7014L102.07 92.5612C102.365 95.5382 100.036 98.1242 97.0452 98.1412L87.1372 98.1992C85.153 98.2112 83.3571 99.3772 82.5393 101.185L78.4563 110.213C77.2235 112.939 73.9139 114.014 71.3145 112.533L62.7051 107.63C60.9807 106.648 58.8422 106.76 57.2299 107.917L49.1802 113.693C46.7498 115.438 43.3459 114.714 41.835 112.132L36.8308 103.581C35.8284 101.868 33.9204 100.896 31.9456 101.092L22.0862 102.07C19.1093 102.365 16.5232 100.036 16.5057 97.0452L16.4475 87.1372C16.4358 85.153 15.2695 83.357 13.4614 82.5392L4.43387 78.4563C1.70827 77.2235 0.632866 73.9139 2.11337 71.3144L7.01677 62.7051C7.99897 60.9806 7.88687 58.8422 6.72987 57.2299L0.953366 49.1802C-0.790734 46.7498 -0.0672336 43.3459 2.51467 41.835L11.0659 36.8307C12.7786 35.8284 13.7508 33.9204 13.555 31.9456L12.5772 22.0862C12.282 19.1093 14.6105 16.5232 17.602 16.5056L27.5096 16.4474C29.4941 16.4358 31.29 15.2695 32.1078 13.4613L36.1908 4.43387C37.4235 1.70817 40.7331 0.632866 43.3326 2.11337L51.9419 7.01677C53.6664 7.99897 55.8048 7.88687 57.4171 6.72987L65.4668 0.953366Z" fill="transparent"/>
</svg>
