<svg width="70" height="88" viewBox="0 0 70 88" fill="none" xmlns="http://www.w3.org/2000/svg">
<g clip-path="url(#clip0_1871_15590)">
<path d="M15.678 25.6027C15.678 25.6027 2.42961 20.8698 5.42529 5.41404C5.3539 5.55995 4.64986 6.04646 4.53761 6.0854C3.80303 6.82479 3.1807 7.52526 2.64009 8.43967C0.7632 11.5137 0.305121 15.307 0.632791 18.8278C1.3393 26.3362 5.87304 34.2132 13.0079 37.9169C12.9671 37.8099 12.4653 32.1688 15.678 25.6027Z" fill="#0000FF"/>
<path d="M54.4142 25.611C54.4142 25.611 67.6625 20.878 64.6669 5.42228C64.7383 5.56819 65.3709 5.90879 65.4423 6.0547C66.1055 6.64819 66.6156 7.30971 67.1256 7.97123C68.9006 10.6464 69.563 13.9049 69.511 17.0367C69.3554 25.0997 64.7193 33.9103 57.1251 37.8181C57.1251 37.8181 57.5147 32.1381 54.4142 25.611V25.611Z" fill="#0000FF"/>
</g>
<defs>
<clipPath id="clip0_1871_15590">
<rect width="70" height="88" fill="white"/>
</clipPath>
</defs>
</svg>
