<svg width="40" height="40" viewBox="0 0 40 40" fill="none" xmlns="http://www.w3.org/2000/svg">
<mask id="mask0_1704_7189" style="mask-type:alpha" maskUnits="userSpaceOnUse" x="0" y="0" width="40" height="40">
<path d="M19.9999 39.9996C31.0455 39.9996 39.9998 31.0454 39.9998 19.9998C39.9998 8.95422 31.0455 0 19.9999 0C8.95426 0 0 8.95422 0 19.9998C0 31.0454 8.95426 39.9996 19.9999 39.9996Z" fill="#D8191E"/>
</mask>
<g mask="url(#mask0_1704_7189)">
<path d="M4.18187 22.1383C0.718477 26.9536 -3.5045 31.1766 -8.3198 34.633C-9.26056 35.3577 -10.5707 35.3577 -11.5184 34.633C-16.3337 31.1766 -20.5567 26.9536 -24.0131 22.1383C-24.7378 21.1975 -24.7378 19.8874 -24.0131 18.9397C-20.5567 14.1244 -16.3337 9.90147 -11.5184 6.43808C-10.5776 5.71335 -9.26753 5.71335 -8.3198 6.43808C-3.5045 9.90147 0.718477 14.1244 4.18187 18.9397C4.89964 19.8805 4.89964 21.1906 4.18187 22.1383Z" fill="#0E0E0E"/>
<path d="M-13.8524 22.6991L-8.84479 27.7067L-10.4979 29.3356L-8.92925 30.9043L-3.33037 25.3054L-4.89902 23.7368L-6.54007 25.3778L-13.599 18.319L-16.9897 22.7956L-15.4693 24.316L-13.8524 22.6991ZM5.42521 33.6748C3.61522 31.8648 1.45531 32.9629 -0.0409427 34.4591C-1.83886 36.257 -2.78005 37.8739 -2.81625 37.9101L-1.2114 39.5149C-0.499472 38.4652 0.0555898 37.6688 0.924382 36.8C1.66044 36.0639 2.7223 35.6778 3.50662 36.4621C4.76155 37.717 3.83242 40.9388 3.45836 44.426L5.35281 46.3204L11.7119 39.9614L10.1432 38.3928L6.0406 42.4953C6.57153 38.61 7.37999 35.6296 5.42521 33.6748Z" fill="#E2C000"/>
<path d="M25.7728 39.4411C28.1979 36.0684 31.1526 33.1138 34.5254 30.6888C35.1874 30.1871 36.1003 30.1871 36.7623 30.6888C40.1351 33.1138 43.0898 36.0684 45.5149 39.4411C46.0166 40.1031 46.0166 41.0159 45.5149 41.6779C43.0898 45.0506 40.1351 48.0052 36.7623 50.4302C36.1003 50.9319 35.1874 50.9319 34.5254 50.4302C31.1526 48.0052 28.1979 45.0506 25.7728 41.6779C25.271 41.0229 25.271 40.1031 25.7728 39.4411Z" fill="#0E0E0E"/>
<path d="M36.6065 34.1934L28.8574 41.9421" stroke="#E2C000" stroke-width="0.358358" stroke-miterlimit="10"/>
<path d="M6.37166 30.696C9.74446 33.121 12.6992 36.0757 15.1242 39.4485C15.626 40.1105 15.626 41.0234 15.1242 41.6854C12.6992 45.0582 9.74446 48.0129 6.37166 50.4379C5.70964 50.9397 4.79675 50.9397 4.13473 50.4379C0.761929 48.0129 -2.19276 45.0582 -4.61784 41.6854C-5.11958 41.0234 -5.11958 40.1105 -4.61784 39.4485C-2.19276 36.0757 0.761929 33.121 4.13473 30.696C4.79675 30.1873 5.70964 30.1873 6.37166 30.696Z" fill="#0E0E0E"/>
<path d="M11.6261 41.5342L3.87695 33.7852" stroke="#E2C000" stroke-width="0.358358" stroke-miterlimit="10"/>
<path d="M45.5149 1.63023C43.0898 5.00302 40.1351 7.95769 36.7623 10.3827C36.1003 10.8845 35.1874 10.8845 34.5254 10.3827C31.1526 7.95769 28.1979 5.00302 25.7728 1.63023C25.271 0.968222 25.271 0.0553417 25.7728 -0.606671C28.1979 -3.97945 31.1526 -6.93412 34.5254 -9.35221C35.1874 -9.85395 36.1003 -9.85395 36.7623 -9.35221C40.1351 -6.92716 43.0898 -3.97249 45.5149 -0.599704C46.0166 0.0553408 46.0166 0.97519 45.5149 1.63023Z" fill="#0E0E0E"/>
<path d="M32.9565 2.0956L36.4619 5.60084L35.3047 6.7411L36.4028 7.83913L40.3221 3.92002L39.224 2.82199L38.0752 3.9707L33.1339 -0.970429L30.7604 2.16317L31.8247 3.22742L32.9565 2.0956ZM44.391 15.9284C44.391 15.9284 45.2188 14.8473 45.7594 14.3067C46.376 13.6901 47.0264 13.1242 47.8373 13.9351C48.6651 14.7628 47.9724 15.5061 47.4656 16.0129C46.7814 16.697 45.9875 17.2714 45.6918 17.4825L46.6801 18.6228C46.7983 18.5552 47.6937 18.0315 48.986 16.7393C50.2868 15.4385 50.8274 13.6479 49.3239 12.1444C48.1498 10.9704 46.7054 11.1309 45.6242 12.212C45.0837 12.7526 44.712 13.2762 44.712 13.2762L43.6731 12.1529L46.1902 9.63586L45.0921 8.53783L41.2404 12.3894L44.391 15.9284Z" fill="#E2C000"/>
<path d="M3.60153 9.87354C0.228726 7.44855 -2.72596 4.49396 -5.15104 1.12127C-5.65278 0.459276 -5.65278 -0.453581 -5.15104 -1.11558C-2.72596 -4.48827 0.228726 -7.44286 3.60153 -9.86785C4.26355 -10.3696 5.17644 -10.3696 5.83846 -9.86785C9.21126 -7.44286 12.166 -4.48827 14.591 -1.11558C15.0928 -0.453581 15.0928 0.459276 14.591 1.12127C12.166 4.49396 9.21126 7.44855 5.83846 9.87354C5.17644 10.3753 4.26355 10.3753 3.60153 9.87354Z" fill="#0E0E0E"/>
<path d="M3.13873 -2.68032L-0.366587 0.824989L-1.50687 -0.332185L-2.60492 0.765863L1.31428 4.68505L2.41233 3.587L1.2636 2.43827L6.20483 -2.50294L3.07116 -4.87641L2.00689 -3.81215L3.13873 -2.68032ZM-10.6944 8.75392C-10.6944 8.75392 -9.61321 9.58168 -9.07263 10.1223C-8.45603 10.7389 -7.89011 11.3892 -8.70098 12.2001C-9.52875 13.0279 -10.272 12.3352 -10.7788 11.8285C-11.463 11.1443 -12.0374 10.3503 -12.2485 10.0547L-13.3888 11.0429C-13.3212 11.1612 -12.7976 12.0565 -11.5052 13.3488C-10.2045 14.6496 -8.4138 15.1902 -6.91031 13.6867C-5.73624 12.5126 -5.89673 11.0683 -6.97789 9.98711C-7.51847 9.44654 -8.04215 9.07489 -8.04215 9.07489L-6.91876 8.03597L-4.40169 10.553L-3.30364 9.45498L-7.15526 5.60337L-10.6944 8.75392Z" fill="#E2C000"/>
<path d="M28.5223 31.6358C22.6687 32.5905 16.6966 32.5905 10.843 31.6358C9.6653 31.4755 8.73847 30.5487 8.58516 29.378C7.63047 23.5243 7.63047 17.5522 8.58516 11.6985C8.74544 10.5208 9.67227 9.59395 10.843 9.44064C16.6966 8.48593 22.6687 8.48593 28.5223 9.44064C29.7 9.60092 30.6269 10.5277 30.7802 11.6985C31.7349 17.5522 31.7349 23.5243 30.7802 29.378C30.6269 30.5557 29.7 31.4825 28.5223 31.6358Z" fill="#0E0E0E"/>
<path d="M12.1426 26.9912H27.7941" stroke="#E2C000" stroke-width="0.672766" stroke-miterlimit="10"/>
<path d="M4.2787 22.1383C0.815302 26.9536 -3.40767 31.1766 -8.22298 34.633C-9.16374 35.3577 -10.4738 35.3577 -11.4216 34.633C-16.2369 31.1766 -20.4598 26.9536 -23.9232 22.1383C-24.648 21.1975 -24.648 19.8874 -23.9232 18.9397C-20.4598 14.1244 -16.2369 9.90147 -11.4216 6.43808C-10.4808 5.71335 -9.17071 5.71335 -8.22298 6.43808C-3.40767 9.90147 0.815302 14.1244 4.2787 18.9397C4.99646 19.8805 4.99646 21.1906 4.2787 22.1383Z" fill="#0E0E0E"/>
<path d="M-11.1992 29.6366L-0.13308 18.5635" stroke="#E2C000" stroke-width="0.511942" stroke-miterlimit="10"/>
<path d="M65.0971 22.1383C61.6337 26.9536 57.4107 31.1766 52.5954 34.64C51.6546 35.3647 50.3445 35.3647 49.3968 34.64C44.5815 31.1766 40.3585 26.9536 36.8951 22.1383C36.1704 21.1976 36.1704 19.8875 36.8951 18.9397C40.3585 14.1244 44.5815 9.90148 49.3968 6.43808C50.3375 5.71335 51.6476 5.71335 52.5954 6.43808C57.4107 9.90148 61.6337 14.1244 65.0971 18.9397C65.8148 19.8805 65.8148 21.1906 65.0971 22.1383Z" fill="#0E0E0E"/>
</g>
</svg>
