<svg width="65" height="64" viewBox="0 0 65 64" fill="none" xmlns="http://www.w3.org/2000/svg">
<path d="M32.5016 63.9954C50.1735 63.9954 64.4994 49.6696 64.4994 31.9977C64.4994 14.3259 50.1735 0 32.5016 0C14.8298 0 0.503906 14.3259 0.503906 31.9977C0.503906 49.6696 14.8298 63.9954 32.5016 63.9954Z" fill="#E8A332"/>
<mask id="mask0_1870_15545" style="mask-type:alpha" maskUnits="userSpaceOnUse" x="0" y="0" width="65" height="64">
<path d="M32.4997 63.9954C50.1715 63.9954 64.4974 49.6696 64.4974 31.9977C64.4974 14.3259 50.1715 0 32.4997 0C14.8278 0 0.501953 14.3259 0.501953 31.9977C0.501953 49.6696 14.8278 63.9954 32.4997 63.9954Z" fill="#D8191E"/>
</mask>
<g mask="url(#mask0_1870_15545)">
<path d="M7.19346 35.421C1.65239 43.125 -5.10392 49.8813 -12.8079 55.4112C-14.313 56.5707 -16.409 56.5707 -17.9253 55.4112C-25.6293 49.8813 -32.3856 43.125 -37.9155 35.421C-39.075 33.9159 -39.075 31.8199 -37.9155 30.3036C-32.3856 22.5996 -25.6293 15.8433 -17.9253 10.3022C-16.4202 9.14274 -14.3242 9.14274 -12.8079 10.3022C-5.10392 15.8433 1.65239 22.5996 7.19346 30.3036C8.34181 31.8087 8.34181 33.9048 7.19346 35.421Z" fill="#0E0E0E"/>
<path d="M-21.281 36.3763L-13.0018 44.6555L-15.735 47.3487L-13.1415 49.9422L-3.88472 40.6854L-6.47821 38.092L-9.1914 40.8051L-20.8621 29.1345L-26.468 36.5359L-23.9543 39.0496L-21.281 36.3763ZM10.7891 54.7208C10.0443 53.9761 9.27288 53.5106 8.47489 53.3244C7.66359 53.1249 6.8656 53.1249 6.0809 53.3244C5.2829 53.5106 4.51151 53.8564 3.76671 54.3617C3.03521 54.8538 2.36357 55.4058 1.75177 56.0176C1.00697 56.7624 0.355277 57.4806 -0.20332 58.1722C-0.775218 58.8505 -1.25402 59.449 -1.63971 59.9677C-2.02541 60.4864 -2.31801 60.912 -2.51751 61.2445C-2.71701 61.5504 -2.82341 61.71 -2.83671 61.7233L-0.18337 64.3766C0.401827 63.4988 0.960424 62.7141 1.49242 62.0225C2.01112 61.3176 2.62957 60.6061 3.34776 59.8879C3.65366 59.582 3.98616 59.3293 4.34526 59.1298C4.70436 58.9037 5.0701 58.7507 5.4425 58.6709C5.8149 58.5911 6.1873 58.6044 6.5597 58.7108C6.94539 58.8039 7.29784 59.0101 7.61704 59.3293C8.13574 59.848 8.44829 60.5595 8.55469 61.4639C8.67439 62.355 8.68769 63.3791 8.59459 64.5362C8.48819 65.68 8.32194 66.9368 8.09584 68.3067C7.88304 69.6633 7.69684 71.0598 7.53724 72.4962L10.6694 75.6283L21.183 65.1147L18.5895 62.5213L11.8065 69.3042C12.0326 67.6949 12.2521 66.1854 12.4649 64.7756C12.691 63.3525 12.8107 62.0358 12.824 60.8255C12.8506 59.6019 12.7176 58.4847 12.425 57.4739C12.1457 56.4498 11.6004 55.5321 10.7891 54.7208Z" fill="#E2C000"/>
<path d="M41.7349 63.1043C45.6147 57.7081 50.3419 52.9809 55.738 49.1011C56.7972 48.2983 58.2577 48.2983 59.3169 49.1011C64.713 52.9809 69.4402 57.7081 73.3201 63.1043C74.1228 64.1634 74.1228 65.6239 73.3201 66.6831C69.4402 72.0792 64.713 76.8064 59.3169 80.6863C58.2577 81.489 56.7972 81.489 55.738 80.6863C50.3419 76.8064 45.6147 72.0792 41.7349 66.6831C40.9321 65.6351 40.9321 64.1634 41.7349 63.1043Z" fill="#0E0E0E"/>
<path d="M59.0676 54.71L46.6699 67.1077" stroke="#E2C000" stroke-width="0.592485" stroke-miterlimit="10"/>
<path d="M10.6958 49.1124C16.0919 52.9922 20.8191 57.7194 24.699 63.1155C25.5017 64.1747 25.5017 65.6352 24.699 66.6944C20.8191 72.0905 16.0919 76.8177 10.6958 80.6976C9.63663 81.5003 8.17611 81.5003 7.11695 80.6976C1.72082 76.8177 -3.00637 72.0905 -6.88623 66.6944C-7.68896 65.6352 -7.68896 64.1747 -6.88623 63.1155C-3.00637 57.7194 1.72082 52.9922 7.11695 49.1124C8.17611 48.2985 9.63663 48.2985 10.6958 49.1124Z" fill="#0E0E0E"/>
<path d="M19.1009 66.4495L6.70312 54.0518" stroke="#E2C000" stroke-width="0.592485" stroke-miterlimit="10"/>
<path d="M73.3201 2.60945C69.4402 8.00558 64.713 12.7328 59.3169 16.6126C58.2577 17.4154 56.7972 17.4154 55.738 16.6126C50.3419 12.7328 45.6147 8.00558 41.7349 2.60945C40.9321 1.55029 40.9321 0.0897681 41.7349 -0.96939C45.6147 -6.36552 50.3419 -11.0927 55.738 -14.9614C56.7972 -15.7642 58.2577 -15.7642 59.3169 -14.9614C64.713 -11.0816 69.4402 -6.35437 73.3201 -0.958242C74.1228 0.089767 74.1228 1.56144 73.3201 2.60945Z" fill="#0E0E0E"/>
<path d="M52.953 2.85768L58.7485 8.65313L56.8353 10.5384L58.6507 12.3538L65.1305 5.87411L63.315 4.05867L61.4158 5.9579L53.2463 -2.21159L49.3222 2.9694L51.0817 4.72898L52.953 2.85768ZM71.292 25.1627C71.292 25.1627 71.3665 25.0696 71.5154 24.8834C71.6644 24.6786 71.8553 24.4412 72.088 24.1712C72.3208 23.8826 72.5675 23.5893 72.8281 23.2914C73.0888 22.9748 73.3309 22.7049 73.5543 22.4814C73.8057 22.2301 74.0664 21.9973 74.3364 21.7832C74.6063 21.5504 74.881 21.3875 75.1603 21.2944C75.4303 21.192 75.7189 21.1827 76.0261 21.2665C76.3333 21.3316 76.6545 21.5318 76.9897 21.867C77.3342 22.2114 77.539 22.5466 77.6041 22.8724C77.66 23.189 77.6321 23.4962 77.5204 23.7941C77.3993 24.0827 77.2271 24.3574 77.0037 24.6181C76.7895 24.8694 76.5801 25.0975 76.3752 25.3023C76.0959 25.5816 75.8073 25.8516 75.5094 26.1123C75.2115 26.373 74.9275 26.6104 74.6575 26.8245C74.3969 27.0293 74.1595 27.2109 73.9453 27.3691C73.7312 27.5274 73.5636 27.6484 73.4426 27.7322L75.0765 29.6175C75.123 29.5896 75.2487 29.5104 75.4535 29.3801C75.6584 29.2498 75.9237 29.0589 76.2496 28.8075C76.5847 28.5655 76.9711 28.2536 77.4086 27.8719C77.8648 27.4902 78.3583 27.034 78.8889 26.5033C79.4289 25.9633 79.8711 25.3815 80.2156 24.7577C80.5787 24.1339 80.8068 23.4962 80.8999 22.8445C80.993 22.1742 80.9325 21.5085 80.7183 20.8475C80.4949 20.1772 80.0713 19.5302 79.4475 18.9064C78.9634 18.4223 78.456 18.0732 77.9253 17.859C77.3947 17.6449 76.864 17.5518 76.3333 17.5797C75.8027 17.589 75.2813 17.7194 74.7693 17.9707C74.2572 18.2221 73.7778 18.5712 73.3309 19.0181C73.0423 19.3067 72.7816 19.5953 72.5488 19.8839C72.3068 20.1632 72.1299 20.3774 72.0182 20.5263C71.9065 20.6753 71.8413 20.7591 71.8227 20.7777L70.105 18.9204L74.2665 14.7588L72.4511 12.9434L66.0831 19.3114L71.292 25.1627Z" fill="#E2C000"/>
<path d="M6.26734 15.7996C0.871211 11.9197 -3.85598 7.19251 -7.73584 1.79638C-8.53857 0.73722 -8.53857 -0.723304 -7.73584 -1.78246C-3.85598 -7.17859 0.871211 -11.9058 6.26734 -15.7856C7.3265 -16.5884 8.78703 -16.5884 9.84618 -15.7856C15.2423 -11.9058 19.9695 -7.17859 23.8494 -1.78246C24.6521 -0.723304 24.6521 0.73722 23.8494 1.79638C19.9695 7.19251 15.2423 11.9197 9.84618 15.7996C8.78703 16.6023 7.3265 16.6023 6.26734 15.7996Z" fill="#0E0E0E"/>
<path d="M6.02122 -4.56161L0.225777 1.23384L-1.65949 -0.67936L-3.47493 1.13608L3.0048 7.61581L4.82024 5.80037L2.92101 3.90114L11.0905 -4.26835L5.9095 -8.19249L4.14992 -6.43291L6.02122 -4.56161ZM-16.2838 13.7774C-16.2838 13.7774 -16.1907 13.8518 -16.0045 14.0008C-15.7997 14.1498 -15.5623 14.3406 -15.2923 14.5734C-15.0037 14.8061 -14.7104 15.0528 -14.4125 15.3135C-14.0959 15.5742 -13.826 15.8162 -13.6025 16.0397C-13.3511 16.291 -13.1184 16.5517 -12.9043 16.8217C-12.6715 17.0917 -12.5086 17.3663 -12.4155 17.6456C-12.3131 17.9156 -12.3038 18.2042 -12.3876 18.5115C-12.4527 18.8187 -12.6529 19.1399 -12.9881 19.475C-13.3325 19.8195 -13.6677 20.0243 -13.9935 20.0895C-14.3101 20.1454 -14.6173 20.1174 -14.9152 20.0057C-15.2038 19.8847 -15.4785 19.7124 -15.7391 19.489C-15.9905 19.2749 -16.2186 19.0654 -16.4234 18.8606C-16.7027 18.5813 -16.9727 18.2927 -17.2334 17.9948C-17.4941 17.6968 -17.7315 17.4129 -17.9456 17.1429C-18.1504 16.8822 -18.332 16.6448 -18.4902 16.4307C-18.6485 16.2166 -18.7695 16.049 -18.8533 15.928L-20.7386 17.5618C-20.7107 17.6084 -20.6315 17.7341 -20.5012 17.9389C-20.3708 18.1437 -20.18 18.4091 -19.9286 18.7349C-19.6866 19.0701 -19.3747 19.4564 -18.993 19.894C-18.6113 20.3502 -18.1551 20.8436 -17.6244 21.3743C-17.0844 21.9143 -16.5026 22.3565 -15.8788 22.7009C-15.255 23.064 -14.6173 23.2921 -13.9656 23.3852C-13.2953 23.4783 -12.6296 23.4178 -11.9686 23.2037C-11.2983 22.9802 -10.6513 22.5566 -10.0275 21.9329C-9.54337 21.4488 -9.19425 20.9414 -8.98012 20.4107C-8.76599 19.88 -8.67289 19.3494 -8.70082 18.8187C-8.71013 18.288 -8.84047 17.7667 -9.09184 17.2546C-9.34321 16.7426 -9.69233 16.2631 -10.1392 15.8162C-10.4278 15.5276 -10.7164 15.2669 -11.005 15.0342C-11.2843 14.7921 -11.4985 14.6152 -11.6474 14.5035C-11.7964 14.3918 -11.8802 14.3266 -11.8988 14.308L-10.0415 12.5903L-5.87991 16.7519L-4.06447 14.9364L-10.4325 8.56843L-16.2838 13.7774Z" fill="#E2C000"/>
<path d="M46.1387 50.6171C36.7735 52.1446 27.2187 52.1446 17.8536 50.6171C15.9694 50.3607 14.4865 48.8779 14.2413 47.0049C12.7138 37.6397 12.7138 28.085 14.2413 18.7198C14.4977 16.8356 15.9805 15.3528 17.8536 15.1075C27.2187 13.5801 36.7735 13.5801 46.1387 15.1075C48.0228 15.3639 49.5057 16.8467 49.7509 18.7198C51.2784 28.085 51.2784 37.6397 49.7509 47.0049C49.5057 48.889 48.0228 50.3719 46.1387 50.6171Z" fill="#0E0E0E"/>
<path d="M19.9277 43.1855H44.9685" stroke="#E2C000" stroke-width="1.11231" stroke-miterlimit="10"/>
<path d="M7.34913 35.421C1.80806 43.125 -4.94825 49.8813 -12.6522 55.4112C-14.1574 56.5707 -16.2534 56.5707 -17.7696 55.4112C-25.4736 49.8813 -32.2299 43.125 -37.771 35.421C-38.9305 33.9159 -38.9305 31.8199 -37.771 30.3036C-32.2299 22.5996 -25.4736 15.8433 -17.7696 10.3022C-16.2645 9.14274 -14.1685 9.14274 -12.6522 10.3022C-4.94825 15.8433 1.80806 22.5996 7.34913 30.3036C8.49748 31.8087 8.49748 33.9048 7.34913 35.421Z" fill="#0E0E0E"/>
<path d="M-17.4141 47.418L0.290601 29.7021" stroke="#E2C000" stroke-width="0.84641" stroke-miterlimit="10"/>
<path d="M104.648 35.421C99.1069 43.125 92.3506 49.8813 84.6466 55.4224C83.1415 56.5819 81.0455 56.5819 79.5292 55.4224C71.8252 49.8813 65.0689 43.125 59.5278 35.421C58.3683 33.9159 58.3683 31.8199 59.5278 30.3036C65.0689 22.5996 71.8252 15.8433 79.5292 10.3022C81.0343 9.14274 83.1303 9.14274 84.6466 10.3022C92.3506 15.8433 99.1069 22.5996 104.648 30.3036C105.796 31.8087 105.796 33.9048 104.648 35.421Z" fill="#0E0E0E"/>
</g>
<mask id="mask1_1870_15545" style="mask-type:alpha" maskUnits="userSpaceOnUse" x="0" y="0" width="65" height="64">
<path d="M32.4997 63.9955C50.1715 63.9955 64.4974 49.6696 64.4974 31.9977C64.4974 14.3259 50.1715 0 32.4997 0C14.8278 0 0.501953 14.3259 0.501953 31.9977C0.501953 49.6696 14.8278 63.9955 32.4997 63.9955Z" fill="#D8191E"/>
</mask>
<g mask="url(#mask1_1870_15545)">
<path opacity="0.2" d="M61.6343 18.7524C61.1103 33.4134 47.0179 56.503 9.3453 54.0725C-28.3384 51.6421 14.6299 77.6081 14.6299 77.6081L71.6015 68.9454L80.2866 21.5397L65.4249 11.5947L61.6343 18.7524Z" fill="#0E0E0E"/>
</g>
</svg>
