<svg width="17" height="20" viewBox="0 0 17 20" fill="none" xmlns="http://www.w3.org/2000/svg">
<path d="M10.9003 16.3002C10.9003 17.0163 10.6158 17.703 10.1095 18.2094C9.60315 18.7157 8.91639 19.0002 8.20031 19.0002C7.48423 19.0002 6.79747 18.7157 6.29112 18.2094C5.78478 17.703 5.50031 17.0163 5.50031 16.3002M8.84921 3.70291L7.52981 3.70021C4.52021 3.69301 1.90752 6.13831 1.88682 9.1002V12.5112C1.88682 13.2222 1.79682 13.9161 1.40892 14.5074L1.15062 14.9016C0.757319 15.4992 1.18032 16.3002 1.88682 16.3002H14.5138C15.2203 16.3002 15.6424 15.4992 15.25 14.9016L14.9917 14.5074C14.6047 13.9161 14.5138 13.2213 14.5138 12.5103V9.1011C14.4778 6.13831 11.8588 3.71011 8.84921 3.70291V3.70291Z" stroke="black" stroke-width="2" stroke-linecap="round" stroke-linejoin="round"/>
<path d="M8.20039 1C8.67778 1 9.13561 1.18964 9.47318 1.52721C9.81074 1.86477 10.0004 2.32261 10.0004 2.8V3.7H6.40039V2.8C6.40039 2.32261 6.59003 1.86477 6.9276 1.52721C7.26516 1.18964 7.723 1 8.20039 1Z" stroke="black" stroke-width="2" stroke-linecap="round" stroke-linejoin="round"/>
</svg>
