<svg width="271" height="280" viewBox="0 0 271 280" fill="none" xmlns="http://www.w3.org/2000/svg">
<g opacity="0.2">
<mask id="mask0_81_133" style="mask-type:alpha" maskUnits="userSpaceOnUse" x="-413" y="-161" width="684" height="705">
<path fill-rule="evenodd" clip-rule="evenodd" d="M-413 24.1721L72.8809 -161L270.972 358.78L-214.909 543.952L-413 24.1721Z" fill="white"/>
</mask>
<g mask="url(#mask0_81_133)">
<path fill-rule="evenodd" clip-rule="evenodd" d="M171.139 276.741L134.448 215.305L137.36 185.522L173.541 246.038L171.139 276.741ZM67.2115 66.9186L101.83 106.959L130.941 173.544L96.4265 133.927L67.2115 66.9186ZM36.7834 -13.9494C38.4569 -21.6397 48.7289 -12.9989 59.6584 5.3835C70.6523 23.669 78.2221 44.8234 76.5028 52.5456C74.8865 60.2721 64.597 51.6235 53.6712 33.3265C42.7116 14.9411 35.1496 -6.23081 36.7834 -13.9494ZM34.7677 -84.6618L65.4404 -13.9804L27.3231 -55.3379L34.7677 -84.6618ZM-48.4573 -6.66134L-109.653 17.9784L-39.3383 -36.1889L-48.4573 -6.66134ZM-27.3062 137.739L-105.929 94.0065L-28.743 47.8787L-27.3062 137.739ZM-98.6994 219.47C-118.954 231.519 -145.158 224.954 -157.295 204.657C-169.361 184.433 -162.745 158.177 -142.518 146.095C-122.285 133.953 -96.0056 140.562 -83.8861 160.852C-71.8412 181.097 -78.4314 207.344 -98.6994 219.47ZM-120.991 355.462L-186.472 318.972L-187.696 244.221L-122.147 280.7L-120.991 355.462ZM-137.729 477.91L-176.182 413.597L-111.836 375.114L-73.3933 439.475L-137.729 477.91ZM-273.846 42.1047L-215.516 7.24723L-227.028 34.4862L-286.609 68.9084L-273.846 42.1047ZM-109.87 -37.4898L-165.757 6.16864L-211.414 23.2934L-155.894 -20.1525L-109.87 -37.4898ZM-59.5531 -42.9953C-65.0176 -33.5127 -84.6671 -17.4076 -103.467 -7.01351C-122.275 3.39808 -133.12 4.15705 -127.651 -5.31293C-122.146 -14.7673 -102.524 -30.9054 -83.6939 -41.2965C-64.8784 -51.7256 -54.0585 -52.4749 -59.5531 -42.9953ZM183.229 134.762L31.4519 -118.589C20.3781 -136.134 2.2999 -136.384 -9.06303 -129.157L-274.693 29.0901C-282.63 34.0988 -287.027 38.6708 -292.039 48.01C-292.039 48.01 -338.163 143.919 -344.652 158.73C-351.109 173.587 -352.351 190.352 -341.255 210.119L-167.698 500.409C-156.399 518.202 -137.465 517.126 -126.321 510.808C-115.129 504.501 146.571 348.288 160.052 339.704C173.805 330.885 184.808 315.266 187.807 291.184L195.527 181.47C196.628 160.689 195.443 156.478 183.229 134.762Z" fill="black"/>
</g>
</g>
</svg>
