<svg width="402" height="343" viewBox="0 0 402 343" fill="none" xmlns="http://www.w3.org/2000/svg">
<path fill-rule="evenodd" clip-rule="evenodd" d="M236.072 323.454L256.313 283.259L273.114 274.77L253.189 314.384L236.072 323.454ZM312.42 197.538L302.843 229.422L277.308 267.324L286.696 235.638L312.42 197.538ZM345.097 154.123C349.746 152.421 348.625 160.79 342.552 172.79C336.552 184.793 327.873 195.943 323.191 197.631C318.542 199.376 319.661 190.995 325.69 179.025C331.754 167.007 340.446 155.856 345.097 154.123V154.123ZM381.972 129.225L354.788 169.337L363.884 135.15L381.972 129.225ZM312.446 111.29L278.699 87.0799L331.207 106.186L312.446 111.29ZM242.896 171.184L239.578 114.676L290.136 140.142L242.896 171.184ZM175.384 160.792C162.146 154.091 156.786 137.957 163.468 124.669C170.135 111.445 186.314 106.112 199.56 112.788C212.84 119.446 218.202 135.635 211.518 148.911C204.832 162.132 188.667 167.474 175.384 160.792V160.792ZM95.6328 194.771L92.9047 147.686L132.192 121.849L134.949 168.966L95.6328 194.771ZM24.9485 227.137L46.1225 185.037L88.2859 206.257L67.0829 248.368L24.9485 227.137ZM210.45 7.97462L248.657 27.2194L230.303 30.2816L191.906 10.2251L210.45 7.97462ZM308.085 68.2744L266.029 53.2925L241.52 34.8057L283.339 49.6638L308.085 68.2744ZM327.997 93.1524C321.116 93.4443 305.929 88.4312 294.061 81.9452C282.181 75.461 278.117 69.9547 284.993 69.6696C291.872 69.4084 307.068 74.3959 318.945 80.8989C330.836 87.3814 334.887 92.8775 327.997 93.1524V93.1524ZM315.559 282.037L398.871 116.032C404.45 104.236 398.479 94.5473 390.805 90.9453L217.076 3.13885C211.736 0.609718 207.824 -0.185733 201.171 0.298094C201.171 0.298094 134.661 8.10909 124.604 9.65224C114.533 11.2278 105.21 16.2172 98.4578 28.7727L2.88088 218.796C-2.75436 230.795 4.20958 240.492 11.3278 244.284C18.4564 248.105 189.778 334.508 198.888 338.778C208.215 343.114 220.226 343.697 234.028 337.176L294.904 304.309C306.313 297.892 308.149 295.843 315.559 282.037V282.037Z" fill="black" fill-opacity="0.2"/>
</svg>
