<svg width="207" height="221" viewBox="0 0 207 221" fill="none" xmlns="http://www.w3.org/2000/svg">
<g clip-path="url(#clip0_2_2)">
<mask id="mask0_2_2" style="mask-type:luminance" maskUnits="userSpaceOnUse" x="0" y="0" width="207" height="221">
<path d="M0 0H207V117.5C207 174.661 160.661 221 103.5 221C46.3385 221 0 174.661 0 117.5V0Z" fill="white"/>
</mask>
<g mask="url(#mask0_2_2)">
<path d="M103.5 221C160.661 221 207 174.885 207 118C207 61.1147 160.661 15 103.5 15C46.3385 15 0 61.1147 0 118C0 174.885 46.3385 221 103.5 221Z" fill="#87B95F"/>
<path fill-rule="evenodd" clip-rule="evenodd" d="M170.5 28C172.433 28 174 26.433 174 24.5C174 24.3302 173.988 24.1633 173.965 24H181V86H26V24H32.0354C32.0121 24.1633 32 24.3302 32 24.5C32 26.433 33.567 28 35.5 28C37.433 28 39 26.433 39 24.5C39 24.3302 38.9879 24.1633 38.9646 24H47.0354C47.0121 24.1633 47 24.3302 47 24.5C47 26.433 48.567 28 50.5 28C52.433 28 54 26.433 54 24.5C54 24.3302 53.9879 24.1633 53.9646 24H62.0354C62.0121 24.1633 62 24.3302 62 24.5C62 26.433 63.567 28 65.5 28C67.433 28 69 26.433 69 24.5C69 24.3302 68.9879 24.1633 68.9646 24H77.0354C77.0121 24.1633 77 24.3302 77 24.5C77 26.433 78.567 28 80.5 28C82.433 28 84 26.433 84 24.5C84 24.3302 83.9879 24.1633 83.9646 24H92.0354C92.0121 24.1633 92 24.3302 92 24.5C92 26.433 93.567 28 95.5 28C97.433 28 99 26.433 99 24.5C99 24.3302 98.9879 24.1633 98.9646 24H107.035C107.012 24.1633 107 24.3302 107 24.5C107 26.433 108.567 28 110.5 28C112.433 28 114 26.433 114 24.5C114 24.3302 113.988 24.1633 113.965 24H122.035C122.012 24.1633 122 24.3302 122 24.5C122 26.433 123.567 28 125.5 28C127.433 28 129 26.433 129 24.5C129 24.3302 128.988 24.1633 128.965 24H137.035C137.012 24.1633 137 24.3302 137 24.5C137 26.433 138.567 28 140.5 28C142.433 28 144 26.433 144 24.5C144 24.3302 143.988 24.1633 143.965 24H152.035C152.012 24.1633 152 24.3302 152 24.5C152 26.433 153.567 28 155.5 28C157.433 28 159 26.433 159 24.5C159 24.3302 158.988 24.1633 158.965 24H167.035C167.012 24.1633 167 24.3302 167 24.5C167 26.433 168.567 28 170.5 28Z" fill="#FFF5E1"/>
<mask id="mask1_2_2" style="mask-type:luminance" maskUnits="userSpaceOnUse" x="26" y="24" width="155" height="62">
<path fill-rule="evenodd" clip-rule="evenodd" d="M170.5 28C172.433 28 174 26.433 174 24.5C174 24.3302 173.988 24.1633 173.965 24H181V86H26V24H32.0354C32.0121 24.1633 32 24.3302 32 24.5C32 26.433 33.567 28 35.5 28C37.433 28 39 26.433 39 24.5C39 24.3302 38.9879 24.1633 38.9646 24H47.0354C47.0121 24.1633 47 24.3302 47 24.5C47 26.433 48.567 28 50.5 28C52.433 28 54 26.433 54 24.5C54 24.3302 53.9879 24.1633 53.9646 24H62.0354C62.0121 24.1633 62 24.3302 62 24.5C62 26.433 63.567 28 65.5 28C67.433 28 69 26.433 69 24.5C69 24.3302 68.9879 24.1633 68.9646 24H77.0354C77.0121 24.1633 77 24.3302 77 24.5C77 26.433 78.567 28 80.5 28C82.433 28 84 26.433 84 24.5C84 24.3302 83.9879 24.1633 83.9646 24H92.0354C92.0121 24.1633 92 24.3302 92 24.5C92 26.433 93.567 28 95.5 28C97.433 28 99 26.433 99 24.5C99 24.3302 98.9879 24.1633 98.9646 24H107.035C107.012 24.1633 107 24.3302 107 24.5C107 26.433 108.567 28 110.5 28C112.433 28 114 26.433 114 24.5C114 24.3302 113.988 24.1633 113.965 24H122.035C122.012 24.1633 122 24.3302 122 24.5C122 26.433 123.567 28 125.5 28C127.433 28 129 26.433 129 24.5C129 24.3302 128.988 24.1633 128.965 24H137.035C137.012 24.1633 137 24.3302 137 24.5C137 26.433 138.567 28 140.5 28C142.433 28 144 26.433 144 24.5C144 24.3302 143.988 24.1633 143.965 24H152.035C152.012 24.1633 152 24.3302 152 24.5C152 26.433 153.567 28 155.5 28C157.433 28 159 26.433 159 24.5C159 24.3302 158.988 24.1633 158.965 24H167.035C167.012 24.1633 167 24.3302 167 24.5C167 26.433 168.567 28 170.5 28Z" fill="white"/>
</mask>
<g mask="url(#mask1_2_2)">
<path d="M173.965 24V23H172.811L172.975 24.1416L173.965 24ZM181 24H182V23H181V24ZM181 86V87H182V86H181ZM26 86H25V87H26V86ZM26 24V23H25V24H26ZM32.0354 24L33.0254 24.1416L33.1887 23H32.0354V24ZM38.9646 24V23H37.8113L37.9746 24.1416L38.9646 24ZM47.0354 24L48.0254 24.1416L48.1887 23H47.0354V24ZM53.9646 24V23H52.8113L52.9746 24.1416L53.9646 24ZM62.0354 24L63.0254 24.1416L63.1887 23H62.0354V24ZM68.9646 24V23H67.8113L67.9746 24.1416L68.9646 24ZM77.0354 24L78.0254 24.1416L78.1887 23H77.0354V24ZM83.9646 24V23H82.8113L82.9746 24.1416L83.9646 24ZM92.0354 24L93.0254 24.1416L93.1887 23H92.0354V24ZM98.9646 24V23H97.8113L97.9746 24.1416L98.9646 24ZM107.035 24L108.025 24.1416L108.189 23H107.035V24ZM113.965 24V23H112.811L112.975 24.1416L113.965 24ZM122.035 24L123.025 24.1416L123.189 23H122.035V24ZM128.965 24V23H127.811L127.975 24.1416L128.965 24ZM137.035 24L138.025 24.1416L138.189 23H137.035V24ZM143.965 24V23H142.811L142.975 24.1416L143.965 24ZM152.035 24L153.025 24.1416L153.189 23H152.035V24ZM158.965 24V23H157.811L157.975 24.1416L158.965 24ZM167.035 24L168.025 24.1416L168.189 23H167.035V24ZM173 24.5C173 25.8807 171.881 27 170.5 27V29C172.985 29 175 26.9853 175 24.5H173ZM172.975 24.1416C172.991 24.2581 173 24.3778 173 24.5H175C175 24.2827 174.985 24.0685 174.954 23.8584L172.975 24.1416ZM173.965 25H181V23H173.965V25ZM180 24V86H182V24H180ZM181 85H26V87H181V85ZM27 86V24H25V86H27ZM26 25H32.0354V23H26V25ZM31.0455 23.8584C31.0155 24.0685 31 24.2827 31 24.5H33C33 24.3778 33.0087 24.2581 33.0254 24.1416L31.0455 23.8584ZM31 24.5C31 26.9853 33.0147 29 35.5 29V27C34.1193 27 33 25.8807 33 24.5H31ZM35.5 29C37.9853 29 40 26.9853 40 24.5H38C38 25.8807 36.8807 27 35.5 27V29ZM40 24.5C40 24.2827 39.9845 24.0685 39.9545 23.8584L37.9746 24.1416C37.9913 24.2581 38 24.3778 38 24.5H40ZM38.9646 25H47.0354V23H38.9646V25ZM46.0455 23.8584C46.0155 24.0685 46 24.2827 46 24.5H48C48 24.3778 48.0087 24.2581 48.0254 24.1416L46.0455 23.8584ZM46 24.5C46 26.9853 48.0147 29 50.5 29V27C49.1193 27 48 25.8807 48 24.5H46ZM50.5 29C52.9853 29 55 26.9853 55 24.5H53C53 25.8807 51.8807 27 50.5 27V29ZM55 24.5C55 24.2827 54.9845 24.0685 54.9545 23.8584L52.9746 24.1416C52.9913 24.2581 53 24.3778 53 24.5H55ZM53.9646 25H62.0354V23H53.9646V25ZM61.0455 23.8584C61.0155 24.0685 61 24.2827 61 24.5H63C63 24.3778 63.0087 24.2582 63.0254 24.1416L61.0455 23.8584ZM61 24.5C61 26.9853 63.0147 29 65.5 29V27C64.1193 27 63 25.8807 63 24.5H61ZM65.5 29C67.9853 29 70 26.9853 70 24.5H68C68 25.8807 66.8807 27 65.5 27V29ZM70 24.5C70 24.2827 69.9845 24.0685 69.9545 23.8584L67.9746 24.1416C67.9913 24.2582 68 24.3778 68 24.5H70ZM68.9646 25H77.0354V23H68.9646V25ZM76.0455 23.8584C76.0155 24.0685 76 24.2827 76 24.5H78C78 24.3778 78.0087 24.2582 78.0254 24.1416L76.0455 23.8584ZM76 24.5C76 26.9853 78.0147 29 80.5 29V27C79.1193 27 78 25.8807 78 24.5H76ZM80.5 29C82.9853 29 85 26.9853 85 24.5H83C83 25.8807 81.8807 27 80.5 27V29ZM85 24.5C85 24.2827 84.9845 24.0685 84.9545 23.8584L82.9746 24.1416C82.9913 24.2582 83 24.3778 83 24.5H85ZM83.9646 25H92.0354V23H83.9646V25ZM91.0455 23.8584C91.0155 24.0685 91 24.2827 91 24.5H93C93 24.3778 93.0087 24.2581 93.0254 24.1416L91.0455 23.8584ZM91 24.5C91 26.9853 93.0147 29 95.5 29V27C94.1193 27 93 25.8807 93 24.5H91ZM95.5 29C97.9853 29 100 26.9853 100 24.5H98C98 25.8807 96.8807 27 95.5 27V29ZM100 24.5C100 24.2827 99.9845 24.0685 99.9545 23.8584L97.9746 24.1416C97.9913 24.2581 98 24.3778 98 24.5H100ZM98.9646 25H107.035V23H98.9646V25ZM106.046 23.8584C106.015 24.0685 106 24.2827 106 24.5H108C108 24.3778 108.009 24.2581 108.025 24.1416L106.046 23.8584ZM106 24.5C106 26.9853 108.015 29 110.5 29V27C109.119 27 108 25.8807 108 24.5H106ZM110.5 29C112.985 29 115 26.9853 115 24.5H113C113 25.8807 111.881 27 110.5 27V29ZM115 24.5C115 24.2827 114.985 24.0685 114.954 23.8584L112.975 24.1416C112.991 24.2581 113 24.3778 113 24.5H115ZM113.965 25H122.035V23H113.965V25ZM121.046 23.8584C121.015 24.0685 121 24.2827 121 24.5H123C123 24.3778 123.009 24.2581 123.025 24.1416L121.046 23.8584ZM121 24.5C121 26.9853 123.015 29 125.5 29V27C124.119 27 123 25.8807 123 24.5H121ZM125.5 29C127.985 29 130 26.9853 130 24.5H128C128 25.8807 126.881 27 125.5 27V29ZM130 24.5C130 24.2827 129.985 24.0685 129.954 23.8584L127.975 24.1416C127.991 24.2581 128 24.3778 128 24.5H130ZM128.965 25H137.035V23H128.965V25ZM136.046 23.8584C136.015 24.0685 136 24.2827 136 24.5H138C138 24.3778 138.009 24.2581 138.025 24.1416L136.046 23.8584ZM136 24.5C136 26.9853 138.015 29 140.5 29V27C139.119 27 138 25.8807 138 24.5H136ZM140.5 29C142.985 29 145 26.9853 145 24.5H143C143 25.8807 141.881 27 140.5 27V29ZM145 24.5C145 24.2827 144.985 24.0685 144.954 23.8584L142.975 24.1416C142.991 24.2581 143 24.3778 143 24.5H145ZM143.965 25H152.035V23H143.965V25ZM151.046 23.8584C151.015 24.0685 151 24.2827 151 24.5H153C153 24.3778 153.009 24.2581 153.025 24.1416L151.046 23.8584ZM151 24.5C151 26.9853 153.015 29 155.5 29V27C154.119 27 153 25.8807 153 24.5H151ZM155.5 29C157.985 29 160 26.9853 160 24.5H158C158 25.8807 156.881 27 155.5 27V29ZM160 24.5C160 24.2827 159.985 24.0685 159.954 23.8584L157.975 24.1416C157.991 24.2581 158 24.3778 158 24.5H160ZM158.965 25H167.035V23H158.965V25ZM168 24.5C168 24.3778 168.009 24.2581 168.025 24.1416L166.046 23.8584C166.015 24.0685 166 24.2827 166 24.5H168ZM170.5 27C169.119 27 168 25.8807 168 24.5H166C166 26.9853 168.015 29 170.5 29V27Z" fill="#5F141E"/>
</g>
<mask id="mask2_2_2" style="mask-type:alpha" maskUnits="userSpaceOnUse" x="0" y="39" width="207" height="206">
<path d="M103.5 245C160.661 245 207 198.885 207 142C207 85.1147 160.661 39 103.5 39C46.3385 39 0 85.1147 0 142C0 198.885 46.3385 245 103.5 245Z" fill="#FF282D"/>
</mask>
<g mask="url(#mask2_2_2)">
<path d="M26.5 24.5H180.5V252.5H26.5V24.5Z" fill="#FFF5E1" stroke="#5F141E"/>
</g>
<path d="M169 61H38V89H169V61Z" fill="#87B95F"/>
<path d="M169 224V49C169 44.5817 165.418 41 161 41H46C41.5817 41 38 44.5817 38 49V224" stroke="#5F141E"/>
</g>
<path d="M71.9214 113C72.1034 112.328 72.1594 111.502 72.1594 110.746V103.718H71.6414C70.8854 103.718 70.0594 103.816 69.3874 104.082V101.8H77.0454V104.082C76.3734 103.816 75.5614 103.718 74.7914 103.718H74.2734V110.746C74.2734 111.502 74.3434 112.328 74.5114 113H71.9214ZM80.3155 113.224C77.8795 113.224 76.8015 111.46 76.8015 109.15C76.8015 106.84 77.8795 105.076 80.3155 105.076C82.7655 105.076 83.8435 106.84 83.8435 109.15C83.8435 111.46 82.7655 113.224 80.3155 113.224ZM80.3155 111.39C81.2395 111.39 81.7995 110.55 81.7995 109.15C81.7995 107.75 81.2395 106.896 80.3155 106.896C79.3915 106.896 78.8455 107.75 78.8455 109.15C78.8455 110.55 79.3915 111.39 80.3155 111.39ZM84.8872 115.8C85.0692 115.128 85.1252 114.302 85.1252 113.546V107.708C85.1252 106.924 84.9992 106.126 84.7192 105.51L86.9312 105.09V106.266C87.4072 105.426 88.1912 105.076 89.0452 105.076C90.9072 105.076 92.0412 106.77 92.0412 109.15C92.0412 111.53 90.9072 113.224 89.0452 113.224C88.2892 113.224 87.5752 112.93 87.0992 112.286V113.546C87.0992 114.302 87.1972 115.128 87.4492 115.8H84.8872ZM88.5272 111.39C89.4372 111.39 89.9972 110.55 89.9972 109.15C89.9972 107.75 89.4372 106.896 88.5272 106.896C87.6312 106.896 87.0712 107.75 87.0712 109.15C87.0712 110.55 87.6312 111.39 88.5272 111.39ZM97.9606 116.024C98.0446 115.142 97.2606 114.834 96.2806 114.61L95.0906 114.344C94.0826 114.106 93.2006 113.742 93.2006 112.748C93.2006 112.09 93.5646 111.6 94.3626 111.32C93.3826 110.704 92.9486 109.556 92.9486 108.436C92.9486 106.882 93.7746 105.314 95.7206 105.104C95.6086 104.6 95.4966 103.956 95.4966 103.438C95.4966 102.192 96.1406 101.758 96.7706 101.758C97.3726 101.758 97.8906 102.164 97.8906 102.836C97.8906 103.816 96.8266 104.054 96.7706 105.118C98.6606 105.384 99.4166 106.924 99.4166 108.436C99.4166 110.102 98.4926 111.796 96.1686 111.796C95.6366 111.796 95.1606 111.922 95.1606 112.3C95.1606 112.566 95.4126 112.734 96.0146 112.818L97.6946 113.028C98.8286 113.168 99.7666 113.63 99.7666 114.568C99.7666 115.632 98.6046 116.01 97.9606 116.024ZM96.1826 110.018C97.0366 110.018 97.4706 109.29 97.4706 108.436C97.4706 107.582 97.0366 106.84 96.1826 106.84C95.3286 106.84 94.9086 107.582 94.9086 108.436C94.9086 109.29 95.3286 110.018 96.1826 110.018ZM103.831 113.224C101.647 113.224 100.303 111.474 100.303 109.136C100.303 106.924 101.493 105.076 103.691 105.076C105.581 105.076 106.589 106.42 106.687 108.478L102.459 109.934C102.753 110.984 103.523 111.39 104.461 111.39C105.273 111.39 105.987 111.096 106.519 110.62C106.631 111.81 105.791 113.224 103.831 113.224ZM102.347 108.66L104.811 107.792C104.727 107.274 104.377 106.784 103.719 106.784C102.879 106.784 102.417 107.582 102.347 108.66ZM109.351 113L107.629 107.442C107.405 106.728 107.111 105.958 106.761 105.3H109.435C109.309 105.804 109.365 106.406 109.519 106.952L110.597 110.718L111.731 106.952C111.899 106.406 111.969 105.804 111.843 105.3H114.405C114.041 105.958 113.747 106.728 113.523 107.428L111.675 113H109.351ZM115.061 113C115.243 112.328 115.299 111.502 115.299 110.746V107.708C115.299 106.924 115.173 106.126 114.893 105.51L117.273 105.076V110.746C117.273 111.502 117.343 112.328 117.511 113H115.061ZM116.209 103.9C115.327 103.9 114.935 103.312 114.935 102.752C114.935 102.178 115.327 101.59 116.209 101.59C117.091 101.59 117.483 102.178 117.483 102.752C117.483 103.312 117.091 103.9 116.209 103.9ZM118.766 113C118.948 112.328 119.004 111.502 119.004 110.746V107.708C119.004 106.924 118.878 106.126 118.598 105.51L120.81 105.09V106.28C121.216 105.496 121.888 105.076 122.882 105.076C124.632 105.076 125.248 106.42 125.248 108.086V110.746C125.248 111.502 125.318 112.328 125.486 113H123.022C123.204 112.328 123.26 111.502 123.26 110.746V108.254C123.26 107.414 122.98 106.896 122.294 106.896C121.384 106.896 120.978 107.834 120.978 109.08V110.746C120.978 111.502 121.048 112.328 121.216 113H118.766ZM129.412 113.224C127.788 113.224 126.472 112.37 126.472 111.138C126.472 110.116 127.438 109.696 128.306 109.864C128.25 110.018 128.208 110.228 128.208 110.396C128.208 111.11 128.726 111.53 129.398 111.53C130.056 111.53 130.504 111.152 130.504 110.606C130.504 110.06 130.042 109.766 129.356 109.598L128.432 109.374C127.41 109.136 126.598 108.492 126.598 107.316C126.598 106.056 127.536 105.076 129.468 105.076C130.42 105.076 131.4 105.314 132.044 105.832V107.904C131.358 107.176 130.322 106.77 129.454 106.77C128.88 106.77 128.544 106.966 128.544 107.316C128.544 107.61 128.782 107.764 129.314 107.89L130.196 108.1C131.414 108.408 132.492 109.052 132.492 110.55C132.492 112.174 131.218 113.224 129.412 113.224ZM135.466 113.224C134.724 113.224 134.066 112.72 134.066 111.18V107.092C133.814 107.092 133.352 107.12 133.072 107.218C132.974 106.91 132.918 106.644 132.918 106.392C132.918 105.636 133.394 105.3 134.122 105.3C134.122 104.852 133.996 104.418 133.996 104.096C133.996 103.48 134.528 103.004 135.354 103.004C135.662 103.004 135.928 103.06 136.208 103.158C136.082 103.844 136.054 104.6 136.054 105.3C136.572 105.3 137.118 105.23 137.608 105.076C137.678 105.356 137.706 105.608 137.706 105.832C137.706 106.686 137.286 107.092 136.488 107.092H136.054V110.69C136.054 111.586 136.278 112.3 136.754 112.804C136.348 113.07 135.914 113.224 135.466 113.224Z" fill="#5F141E"/>
<path d="M69.8357 203C70.0737 202.328 70.1577 201.502 70.1577 200.746V194.95C70.1577 194.166 69.9757 193.41 69.5277 192.892L72.2577 191.576V200.746C72.2577 201.502 72.3417 202.328 72.5797 203H69.8357ZM77.6046 203.224C75.1686 203.224 73.7966 201.152 73.7966 197.4C73.7966 193.788 75.0286 191.576 77.6326 191.576C79.3126 191.576 80.6846 192.514 80.6846 193.97C80.6846 195.02 79.9566 195.58 79.1026 195.58C78.9066 195.58 78.7246 195.552 78.5426 195.496C78.6826 195.258 78.7526 194.992 78.7526 194.698C78.7526 193.998 78.3326 193.494 77.6326 193.494C76.4566 193.494 75.9946 194.936 75.9526 197.064C76.3866 196.462 77.0866 196.028 78.0806 196.028C79.8586 196.028 81.1746 197.386 81.1746 199.486C81.1746 201.628 79.8166 203.224 77.6046 203.224ZM77.6046 201.25C78.4866 201.25 79.0046 200.494 79.0046 199.486C79.0046 198.478 78.4866 197.722 77.6046 197.722C76.7366 197.722 76.2186 198.478 76.2186 199.486C76.2186 200.494 76.7366 201.25 77.6046 201.25ZM85.8732 203.224C83.3812 203.224 82.1912 201.152 82.1912 197.4C82.1912 193.648 83.3812 191.576 85.8732 191.576C88.3652 191.576 89.5552 193.648 89.5552 197.4C89.5552 201.152 88.3652 203.224 85.8732 203.224ZM85.8732 201.25C86.8672 201.25 87.3852 199.99 87.3852 197.4C87.3852 194.81 86.8672 193.536 85.8732 193.536C84.8792 193.536 84.3612 194.81 84.3612 197.4C84.3612 199.99 84.8792 201.25 85.8732 201.25ZM93.4858 203C93.6678 202.328 93.7238 201.502 93.7238 200.746V194.222C93.7238 193.438 93.6118 192.654 93.3318 192.024L95.6978 191.576V195.846C96.2578 195.314 97.0278 195.076 97.7838 195.076C99.4218 195.076 100.276 196.168 100.276 197.54C100.276 198.576 99.8138 199.36 98.8198 199.78C99.2398 200.886 99.8558 201.95 100.654 203H98.2878C97.7278 202.118 97.3358 201.208 97.0978 200.27H95.6978V200.746C95.6978 201.502 95.7678 202.328 95.9358 203H93.4858ZM95.6978 198.94H96.9018C97.7558 198.94 98.2318 198.436 98.2318 197.806C98.2318 197.218 97.8258 196.812 97.1958 196.812C96.3698 196.812 95.6978 197.498 95.6978 198.744V198.94ZM101.608 203C101.79 202.328 101.846 201.502 101.846 200.746V197.708C101.846 196.924 101.72 196.126 101.44 195.51L103.652 195.09V196.294C104.03 195.51 104.646 195.076 105.43 195.076C106.368 195.076 107.124 195.692 107.124 196.77C107.124 197.82 106.424 198.31 105.444 198.31C105.696 197.386 105.374 196.882 104.828 196.882C104.044 196.882 103.82 197.848 103.82 199.29V200.746C103.82 201.502 103.918 202.328 104.17 203H101.608ZM107.888 203.21C107.118 203.21 106.544 202.608 106.544 201.866C106.544 201.11 107.118 200.522 107.888 200.522C108.672 200.522 109.232 201.11 109.232 201.866C109.232 202.608 108.672 203.21 107.888 203.21ZM115.744 193.074C115.926 192.668 116.038 192.206 115.926 191.8H118.25L112.342 204.526C112.16 204.932 112.048 205.394 112.16 205.8H109.836L115.744 193.074ZM118.37 203C118.552 202.328 118.608 201.502 118.608 200.746V197.708C118.608 196.924 118.482 196.126 118.202 195.51L120.414 195.09V196.238C120.806 195.482 121.464 195.076 122.43 195.076C123.522 195.076 124.138 195.594 124.46 196.406C124.838 195.552 125.51 195.076 126.546 195.076C128.296 195.076 128.856 196.42 128.856 198.086V200.746C128.856 201.502 128.926 202.328 129.094 203H126.644C126.826 202.328 126.882 201.502 126.882 200.746V198.254C126.882 197.414 126.602 196.896 125.916 196.896C125.006 196.896 124.726 197.876 124.726 199.122V200.746C124.726 201.502 124.796 202.328 124.964 203H122.5C122.682 202.328 122.738 201.502 122.738 200.746V198.254C122.738 197.414 122.486 196.896 121.8 196.896C120.89 196.896 120.582 197.834 120.582 199.08V200.746C120.582 201.502 120.652 202.328 120.82 203H118.37ZM133.049 203.224C131.187 203.224 130.053 201.53 130.053 199.15C130.053 196.77 131.187 195.076 133.049 195.076C133.805 195.076 134.519 195.37 134.995 196.014V194.222C134.995 193.438 134.883 192.668 134.589 192.024L136.969 191.576V200.69C136.969 201.572 137.193 202.286 137.669 202.79C137.305 203.042 136.885 203.21 136.437 203.21C135.835 203.21 135.317 202.874 135.149 202.034C134.673 202.86 133.889 203.224 133.049 203.224ZM133.567 201.39C134.449 201.39 135.009 200.55 135.009 199.15C135.009 197.75 134.449 196.896 133.567 196.896C132.657 196.896 132.097 197.75 132.097 199.15C132.097 200.55 132.657 201.39 133.567 201.39Z" fill="#FF282D"/>
<path d="M73.2403 149.432C69.1093 149.432 66.8143 146.759 66.8143 144.032C66.8143 141.548 68.7043 140.36 70.5943 140.36C70.9993 140.36 71.3503 140.414 71.6743 140.495C71.4853 140.873 71.2963 141.521 71.2963 142.358C71.2963 143.978 71.9443 145.112 73.2673 145.112C74.5093 145.112 75.3733 144.086 75.3733 141.899C75.3733 139.496 74.3473 137.822 71.1883 137.822C70.7833 137.822 70.2973 137.849 69.8113 137.93L73.1053 131.72H70.8913C69.6493 131.72 68.4613 131.882 67.4083 132.395V127.4H80.4493L76.3993 135.203C78.7213 136.31 80.1793 138.605 80.1793 141.98C80.1793 146.651 77.3983 149.432 73.2403 149.432ZM87.5716 149C87.9496 147.677 88.0846 146.192 88.0846 144.653V138.875C88.0846 137.336 87.8686 135.878 87.2746 134.636L92.1076 133.772V135.851C92.8636 134.42 94.0786 133.718 95.8876 133.718C97.9396 133.718 99.1006 134.663 99.7216 136.148C100.451 134.555 101.693 133.718 103.637 133.718C107.066 133.718 108.038 136.418 108.038 139.604V144.653C108.038 146.192 108.173 147.677 108.551 149H103.07C103.448 147.677 103.583 146.192 103.583 144.653V140.009C103.583 138.659 103.151 137.822 102.125 137.822C100.64 137.822 100.289 139.577 100.289 141.791V144.653C100.289 146.192 100.424 147.677 100.802 149H95.3206C95.6986 147.677 95.8336 146.192 95.8336 144.653V140.009C95.8336 138.659 95.4016 137.822 94.3756 137.822C92.8906 137.822 92.5396 139.577 92.5396 141.791V144.653C92.5396 146.192 92.6746 147.677 93.0526 149H87.5716ZM110.326 149C110.704 147.677 110.839 146.192 110.839 144.653V138.875C110.839 137.336 110.623 135.878 110.029 134.636L115.294 133.718V144.653C115.294 146.192 115.429 147.677 115.807 149H110.326ZM112.918 131.936C110.947 131.936 110.137 130.64 110.137 129.452C110.137 128.264 110.947 126.968 112.918 126.968C114.889 126.968 115.699 128.264 115.699 129.452C115.699 130.64 114.889 131.936 112.918 131.936ZM124.325 149.432C119.303 149.432 117.359 145.895 117.359 141.575C117.359 137.255 119.303 133.718 124.325 133.718C129.347 133.718 131.291 137.255 131.291 141.575C131.291 145.895 129.347 149.432 124.325 149.432ZM124.325 145.301C125.864 145.301 126.701 143.87 126.701 141.575C126.701 139.28 125.864 137.849 124.325 137.849C122.786 137.849 121.949 139.28 121.949 141.575C121.949 143.87 122.786 145.301 124.325 145.301ZM135.92 149.432C134.219 149.432 132.95 148.109 132.95 146.462C132.95 144.815 134.219 143.492 135.92 143.492C137.621 143.492 138.89 144.815 138.89 146.462C138.89 148.109 137.621 149.432 135.92 149.432ZM61.2816 175C61.6596 173.677 61.7946 172.192 61.7946 170.653V158.179C61.7946 156.64 61.5786 155.182 60.9846 153.94L66.2496 152.968V160.906C67.3836 160.042 68.7066 159.718 70.0296 159.718C73.3236 159.718 74.9166 161.959 74.9166 164.659C74.9166 166.657 74.0796 168.088 72.3246 168.898C73.1076 171.004 74.2146 173.002 75.6996 175H70.4346C69.5166 173.407 68.8416 171.706 68.4906 170.032H66.2496V170.653C66.2496 172.192 66.3846 173.677 66.7626 175H61.2816ZM66.2496 167.143H68.1936C69.5166 167.143 70.3266 166.414 70.3266 165.307C70.3266 164.362 69.7326 163.606 68.6256 163.606C67.3566 163.606 66.2496 164.605 66.2496 166.63V167.143ZM77.1829 175C77.5609 173.677 77.6959 172.192 77.6959 170.653V164.875C77.6959 163.336 77.4799 161.878 76.8859 160.636L81.7189 159.772V162.067C82.4749 160.528 83.6629 159.718 85.2019 159.718C87.0109 159.718 88.6039 160.879 88.6039 163.174C88.6039 165.415 87.1189 166.522 84.9319 166.522C85.4179 164.659 84.7699 163.822 83.7979 163.822C82.3669 163.822 82.1509 165.577 82.1509 168.331V170.653C82.1509 172.192 82.3669 173.677 82.9339 175H77.1829ZM96.2703 175.432C91.2483 175.432 89.3043 171.895 89.3043 167.575C89.3043 163.255 91.2483 159.718 96.2703 159.718C101.292 159.718 103.236 163.255 103.236 167.575C103.236 171.895 101.292 175.432 96.2703 175.432ZM96.2703 171.301C97.8093 171.301 98.6463 169.87 98.6463 167.575C98.6463 165.28 97.8093 163.849 96.2703 163.849C94.7313 163.849 93.8943 165.28 93.8943 167.575C93.8943 169.87 94.7313 171.301 96.2703 171.301ZM104.868 175C105.246 173.677 105.381 172.192 105.381 170.653V164.875C105.381 163.336 105.165 161.878 104.571 160.636L109.404 159.772V161.932C110.16 160.474 111.429 159.718 113.265 159.718C116.694 159.718 117.801 162.418 117.801 165.604V170.653C117.801 172.192 117.936 173.677 118.314 175H112.833C113.211 173.677 113.346 172.192 113.346 170.653V166.009C113.346 164.659 112.914 163.822 111.888 163.822C110.403 163.822 109.836 165.577 109.836 167.791V170.653C109.836 172.192 109.971 173.677 110.349 175H104.868ZM126.67 175.432C122.242 175.432 119.785 171.949 119.785 167.548C119.785 163.417 121.918 159.718 126.427 159.718C130.342 159.718 132.232 162.472 132.394 166.576L124.645 169.195C125.239 170.761 126.535 171.301 128.101 171.301C129.613 171.301 130.99 170.788 132.043 169.843C132.421 172.354 130.855 175.432 126.67 175.432ZM124.348 166.495L128.29 165.145C128.155 164.362 127.588 163.552 126.508 163.552C125.131 163.552 124.456 164.848 124.348 166.495ZM134.004 175C134.382 173.677 134.517 172.192 134.517 170.653V164.875C134.517 163.336 134.301 161.878 133.707 160.636L138.54 159.772V162.067C139.296 160.528 140.484 159.718 142.023 159.718C143.832 159.718 145.425 160.879 145.425 163.174C145.425 165.415 143.94 166.522 141.753 166.522C142.239 164.659 141.591 163.822 140.619 163.822C139.188 163.822 138.972 165.577 138.972 168.331V170.653C138.972 172.192 139.188 173.677 139.755 175H134.004Z" fill="#5F141E"/>
<path d="M80.0669 81C80.3669 80.265 80.4719 79.44 80.4719 78.585V72.525C80.4719 71.67 80.3069 70.905 79.7969 70.32L83.0969 68.76V78.585C83.0969 79.44 83.2019 80.265 83.5019 81H80.0669ZM90.3365 70.365C90.5615 69.9 90.6665 69.435 90.5315 69H93.3665L87.0065 82.635C86.7815 83.1 86.6765 83.565 86.8115 84H83.9765L90.3365 70.365ZM94.4078 81C94.7078 80.265 94.8128 79.44 94.8128 78.585V72.525C94.8128 71.67 94.6478 70.905 94.1378 70.32L97.4378 68.76V78.585C97.4378 79.44 97.5428 80.265 97.8428 81H94.4078ZM102.01 81C102.22 80.265 102.295 79.44 102.295 78.585V71.415C102.295 70.56 102.22 69.735 102.01 69H105.22C105.01 69.735 104.935 70.56 104.935 71.415V78.6H106.435C107.29 78.6 108.115 78.48 108.85 78.15V81H102.01ZM113.331 81.24C110.541 81.24 109.461 79.275 109.461 76.875C109.461 74.475 110.541 72.51 113.331 72.51C116.121 72.51 117.201 74.475 117.201 76.875C117.201 79.275 116.121 81.24 113.331 81.24ZM113.331 78.945C114.186 78.945 114.651 78.15 114.651 76.875C114.651 75.6 114.186 74.805 113.331 74.805C112.476 74.805 112.011 75.6 112.011 76.875C112.011 78.15 112.476 78.945 113.331 78.945ZM121.254 81.24C119.154 81.24 118.074 79.275 118.074 76.875C118.074 74.475 119.154 72.51 121.254 72.51C122.034 72.51 122.694 72.765 123.174 73.335V71.655C123.174 70.8 123.054 69.99 122.724 69.3L125.649 68.76V78.495C125.649 79.425 125.889 80.19 126.414 80.745C125.979 81.03 125.469 81.24 124.914 81.24C124.254 81.24 123.639 80.925 123.414 80.085C122.934 80.865 122.169 81.24 121.254 81.24ZM121.929 78.945C122.754 78.945 123.204 78.15 123.204 76.875C123.204 75.6 122.754 74.805 121.929 74.805C121.089 74.805 120.624 75.6 120.624 76.875C120.624 78.15 121.089 78.945 121.929 78.945Z" fill="white"/>
</g>
<defs>
<clipPath id="clip0_2_2">
<rect width="207" height="221" fill="white"/>
</clipPath>
</defs>
</svg>
