<svg width="207" height="221" viewBox="0 0 207 221" fill="none" xmlns="http://www.w3.org/2000/svg">
<g clip-path="url(#clip0_3299_32191)">
<ellipse cx="103.5" cy="118" rx="103.5" ry="103" fill="#EBBE39"/>
<mask id="path-3-inside-1_3299_32191" fill="white">
<path fill-rule="evenodd" clip-rule="evenodd" d="M170.5 28C172.433 28 174 26.433 174 24.5C174 24.3302 173.988 24.1633 173.965 24H181V86H26V24H32.0354C32.0121 24.1633 32 24.3302 32 24.5C32 26.433 33.567 28 35.5 28C37.433 28 39 26.433 39 24.5C39 24.3302 38.9879 24.1633 38.9646 24H47.0354C47.0121 24.1633 47 24.3302 47 24.5C47 26.433 48.567 28 50.5 28C52.433 28 54 26.433 54 24.5C54 24.3302 53.9879 24.1633 53.9646 24H62.0354C62.0121 24.1633 62 24.3302 62 24.5C62 26.433 63.567 28 65.5 28C67.433 28 69 26.433 69 24.5C69 24.3302 68.9879 24.1633 68.9646 24H77.0354C77.0121 24.1633 77 24.3302 77 24.5C77 26.433 78.567 28 80.5 28C82.433 28 84 26.433 84 24.5C84 24.3302 83.9879 24.1633 83.9646 24H92.0354C92.0121 24.1633 92 24.3302 92 24.5C92 26.433 93.567 28 95.5 28C97.433 28 99 26.433 99 24.5C99 24.3302 98.9879 24.1633 98.9646 24H107.035C107.012 24.1633 107 24.3302 107 24.5C107 26.433 108.567 28 110.5 28C112.433 28 114 26.433 114 24.5C114 24.3302 113.988 24.1633 113.965 24H122.035C122.012 24.1633 122 24.3302 122 24.5C122 26.433 123.567 28 125.5 28C127.433 28 129 26.433 129 24.5C129 24.3302 128.988 24.1633 128.965 24H137.035C137.012 24.1633 137 24.3302 137 24.5C137 26.433 138.567 28 140.5 28C142.433 28 144 26.433 144 24.5C144 24.3302 143.988 24.1633 143.965 24H152.035C152.012 24.1633 152 24.3302 152 24.5C152 26.433 153.567 28 155.5 28C157.433 28 159 26.433 159 24.5C159 24.3302 158.988 24.1633 158.965 24H167.035C167.012 24.1633 167 24.3302 167 24.5C167 26.433 168.567 28 170.5 28Z"/>
</mask>
<path fill-rule="evenodd" clip-rule="evenodd" d="M170.5 28C172.433 28 174 26.433 174 24.5C174 24.3302 173.988 24.1633 173.965 24H181V86H26V24H32.0354C32.0121 24.1633 32 24.3302 32 24.5C32 26.433 33.567 28 35.5 28C37.433 28 39 26.433 39 24.5C39 24.3302 38.9879 24.1633 38.9646 24H47.0354C47.0121 24.1633 47 24.3302 47 24.5C47 26.433 48.567 28 50.5 28C52.433 28 54 26.433 54 24.5C54 24.3302 53.9879 24.1633 53.9646 24H62.0354C62.0121 24.1633 62 24.3302 62 24.5C62 26.433 63.567 28 65.5 28C67.433 28 69 26.433 69 24.5C69 24.3302 68.9879 24.1633 68.9646 24H77.0354C77.0121 24.1633 77 24.3302 77 24.5C77 26.433 78.567 28 80.5 28C82.433 28 84 26.433 84 24.5C84 24.3302 83.9879 24.1633 83.9646 24H92.0354C92.0121 24.1633 92 24.3302 92 24.5C92 26.433 93.567 28 95.5 28C97.433 28 99 26.433 99 24.5C99 24.3302 98.9879 24.1633 98.9646 24H107.035C107.012 24.1633 107 24.3302 107 24.5C107 26.433 108.567 28 110.5 28C112.433 28 114 26.433 114 24.5C114 24.3302 113.988 24.1633 113.965 24H122.035C122.012 24.1633 122 24.3302 122 24.5C122 26.433 123.567 28 125.5 28C127.433 28 129 26.433 129 24.5C129 24.3302 128.988 24.1633 128.965 24H137.035C137.012 24.1633 137 24.3302 137 24.5C137 26.433 138.567 28 140.5 28C142.433 28 144 26.433 144 24.5C144 24.3302 143.988 24.1633 143.965 24H152.035C152.012 24.1633 152 24.3302 152 24.5C152 26.433 153.567 28 155.5 28C157.433 28 159 26.433 159 24.5C159 24.3302 158.988 24.1633 158.965 24H167.035C167.012 24.1633 167 24.3302 167 24.5C167 26.433 168.567 28 170.5 28Z" fill="#FFF5E1"/>
<path d="M173.965 24V23H172.811L172.975 24.1416L173.965 24ZM181 24H182V23H181V24ZM181 86V87H182V86H181ZM26 86H25V87H26V86ZM26 24V23H25V24H26ZM32.0354 24L33.0254 24.1416L33.1887 23H32.0354V24ZM38.9646 24V23H37.8113L37.9746 24.1416L38.9646 24ZM47.0354 24L48.0254 24.1416L48.1887 23H47.0354V24ZM53.9646 24V23H52.8113L52.9746 24.1416L53.9646 24ZM62.0354 24L63.0254 24.1416L63.1887 23H62.0354V24ZM68.9646 24V23H67.8113L67.9746 24.1416L68.9646 24ZM77.0354 24L78.0254 24.1416L78.1887 23H77.0354V24ZM83.9646 24V23H82.8113L82.9746 24.1416L83.9646 24ZM92.0354 24L93.0254 24.1416L93.1887 23H92.0354V24ZM98.9646 24V23H97.8113L97.9746 24.1416L98.9646 24ZM107.035 24L108.025 24.1416L108.189 23H107.035V24ZM113.965 24V23H112.811L112.975 24.1416L113.965 24ZM122.035 24L123.025 24.1416L123.189 23H122.035V24ZM128.965 24V23H127.811L127.975 24.1416L128.965 24ZM137.035 24L138.025 24.1416L138.189 23H137.035V24ZM143.965 24V23H142.811L142.975 24.1416L143.965 24ZM152.035 24L153.025 24.1416L153.189 23H152.035V24ZM158.965 24V23H157.811L157.975 24.1416L158.965 24ZM167.035 24L168.025 24.1416L168.189 23H167.035V24ZM173 24.5C173 25.8807 171.881 27 170.5 27V29C172.985 29 175 26.9853 175 24.5H173ZM172.975 24.1416C172.991 24.2581 173 24.3778 173 24.5H175C175 24.2827 174.985 24.0685 174.954 23.8584L172.975 24.1416ZM173.965 25H181V23H173.965V25ZM180 24V86H182V24H180ZM181 85H26V87H181V85ZM27 86V24H25V86H27ZM26 25H32.0354V23H26V25ZM31.0455 23.8584C31.0155 24.0685 31 24.2827 31 24.5H33C33 24.3778 33.0087 24.2581 33.0254 24.1416L31.0455 23.8584ZM31 24.5C31 26.9853 33.0147 29 35.5 29V27C34.1193 27 33 25.8807 33 24.5H31ZM35.5 29C37.9853 29 40 26.9853 40 24.5H38C38 25.8807 36.8807 27 35.5 27V29ZM40 24.5C40 24.2827 39.9845 24.0685 39.9545 23.8584L37.9746 24.1416C37.9913 24.2581 38 24.3778 38 24.5H40ZM38.9646 25H47.0354V23H38.9646V25ZM46.0455 23.8584C46.0155 24.0685 46 24.2827 46 24.5H48C48 24.3778 48.0087 24.2581 48.0254 24.1416L46.0455 23.8584ZM46 24.5C46 26.9853 48.0147 29 50.5 29V27C49.1193 27 48 25.8807 48 24.5H46ZM50.5 29C52.9853 29 55 26.9853 55 24.5H53C53 25.8807 51.8807 27 50.5 27V29ZM55 24.5C55 24.2827 54.9845 24.0685 54.9545 23.8584L52.9746 24.1416C52.9913 24.2581 53 24.3778 53 24.5H55ZM53.9646 25H62.0354V23H53.9646V25ZM61.0455 23.8584C61.0155 24.0685 61 24.2827 61 24.5H63C63 24.3778 63.0087 24.2582 63.0254 24.1416L61.0455 23.8584ZM61 24.5C61 26.9853 63.0147 29 65.5 29V27C64.1193 27 63 25.8807 63 24.5H61ZM65.5 29C67.9853 29 70 26.9853 70 24.5H68C68 25.8807 66.8807 27 65.5 27V29ZM70 24.5C70 24.2827 69.9845 24.0685 69.9545 23.8584L67.9746 24.1416C67.9913 24.2582 68 24.3778 68 24.5H70ZM68.9646 25H77.0354V23H68.9646V25ZM76.0455 23.8584C76.0155 24.0685 76 24.2827 76 24.5H78C78 24.3778 78.0087 24.2582 78.0254 24.1416L76.0455 23.8584ZM76 24.5C76 26.9853 78.0147 29 80.5 29V27C79.1193 27 78 25.8807 78 24.5H76ZM80.5 29C82.9853 29 85 26.9853 85 24.5H83C83 25.8807 81.8807 27 80.5 27V29ZM85 24.5C85 24.2827 84.9845 24.0685 84.9545 23.8584L82.9746 24.1416C82.9913 24.2582 83 24.3778 83 24.5H85ZM83.9646 25H92.0354V23H83.9646V25ZM91.0455 23.8584C91.0155 24.0685 91 24.2827 91 24.5H93C93 24.3778 93.0087 24.2581 93.0254 24.1416L91.0455 23.8584ZM91 24.5C91 26.9853 93.0147 29 95.5 29V27C94.1193 27 93 25.8807 93 24.5H91ZM95.5 29C97.9853 29 100 26.9853 100 24.5H98C98 25.8807 96.8807 27 95.5 27V29ZM100 24.5C100 24.2827 99.9845 24.0685 99.9545 23.8584L97.9746 24.1416C97.9913 24.2581 98 24.3778 98 24.5H100ZM98.9646 25H107.035V23H98.9646V25ZM106.046 23.8584C106.015 24.0685 106 24.2827 106 24.5H108C108 24.3778 108.009 24.2581 108.025 24.1416L106.046 23.8584ZM106 24.5C106 26.9853 108.015 29 110.5 29V27C109.119 27 108 25.8807 108 24.5H106ZM110.5 29C112.985 29 115 26.9853 115 24.5H113C113 25.8807 111.881 27 110.5 27V29ZM115 24.5C115 24.2827 114.985 24.0685 114.954 23.8584L112.975 24.1416C112.991 24.2581 113 24.3778 113 24.5H115ZM113.965 25H122.035V23H113.965V25ZM121.046 23.8584C121.015 24.0685 121 24.2827 121 24.5H123C123 24.3778 123.009 24.2581 123.025 24.1416L121.046 23.8584ZM121 24.5C121 26.9853 123.015 29 125.5 29V27C124.119 27 123 25.8807 123 24.5H121ZM125.5 29C127.985 29 130 26.9853 130 24.5H128C128 25.8807 126.881 27 125.5 27V29ZM130 24.5C130 24.2827 129.985 24.0685 129.954 23.8584L127.975 24.1416C127.991 24.2581 128 24.3778 128 24.5H130ZM128.965 25H137.035V23H128.965V25ZM136.046 23.8584C136.015 24.0685 136 24.2827 136 24.5H138C138 24.3778 138.009 24.2581 138.025 24.1416L136.046 23.8584ZM136 24.5C136 26.9853 138.015 29 140.5 29V27C139.119 27 138 25.8807 138 24.5H136ZM140.5 29C142.985 29 145 26.9853 145 24.5H143C143 25.8807 141.881 27 140.5 27V29ZM145 24.5C145 24.2827 144.985 24.0685 144.954 23.8584L142.975 24.1416C142.991 24.2581 143 24.3778 143 24.5H145ZM143.965 25H152.035V23H143.965V25ZM151.046 23.8584C151.015 24.0685 151 24.2827 151 24.5H153C153 24.3778 153.009 24.2581 153.025 24.1416L151.046 23.8584ZM151 24.5C151 26.9853 153.015 29 155.5 29V27C154.119 27 153 25.8807 153 24.5H151ZM155.5 29C157.985 29 160 26.9853 160 24.5H158C158 25.8807 156.881 27 155.5 27V29ZM160 24.5C160 24.2827 159.985 24.0685 159.954 23.8584L157.975 24.1416C157.991 24.2581 158 24.3778 158 24.5H160ZM158.965 25H167.035V23H158.965V25ZM168 24.5C168 24.3778 168.009 24.2581 168.025 24.1416L166.046 23.8584C166.015 24.0685 166 24.2827 166 24.5H168ZM170.5 27C169.119 27 168 25.8807 168 24.5H166C166 26.9853 168.015 29 170.5 29V27Z" fill="#5F141E" mask="url(#path-3-inside-1_3299_32191)"/>
<mask id="mask0_3299_32191" style="mask-type:alpha" maskUnits="userSpaceOnUse" x="0" y="39" width="207" height="206">
<ellipse cx="103.5" cy="142" rx="103.5" ry="103" fill="#FF282D"/>
</mask>
<g mask="url(#mask0_3299_32191)">
<path d="M26.5 24.5H180.5V252.5H26.5V24.5Z" fill="#FFF5E1" stroke="#5F141E"/>
</g>
<rect x="38" y="61" width="131" height="28" fill="#EBBE39"/>
<path d="M169 224V49C169 44.5817 165.418 41 161 41H46C41.5817 41 38 44.5817 38 49V224" stroke="#5F141E"/>
<path d="M74.5578 206.822C75.7758 205.548 76.6158 204.274 76.6158 202.762C76.6158 201.39 75.6218 200.004 73.2558 200.004C72.4578 200.004 71.3238 200.242 70.7078 200.592V202.846C71.3518 202.51 72.1638 202.3 72.6818 202.3C73.5498 202.3 74.0398 202.692 74.0398 203.49C74.0398 204.232 73.5498 205.128 72.6818 206.052L70.3858 208.516V210H76.6158V207.676H73.7458L74.5578 206.822ZM81.5897 210.196C84.5577 210.196 85.8037 207.62 85.8037 205.1C85.8037 202.566 84.5577 200.004 81.5897 200.004C78.6217 200.004 77.3897 202.566 77.3897 205.1C77.3897 207.62 78.6217 210.196 81.5897 210.196ZM81.5897 207.858C80.6377 207.858 80.0497 206.92 80.0497 205.1C80.0497 203.28 80.6377 202.342 81.5897 202.342C82.5557 202.342 83.1437 203.28 83.1437 205.1C83.1437 206.92 82.5557 207.858 81.5897 207.858ZM97.514 210L94.504 203.896L97.304 200.2H94.574L92.054 203.672V200.2H89.534V210H92.054V207.116L92.838 206.08L94.728 210H97.514ZM104.266 206.906C104.042 206.052 103.79 205.464 103.062 205.282C103.986 205.002 104.728 204.204 104.728 202.888C104.728 201.376 103.818 200.2 101.382 200.2H98.1062V210H100.626V206.136H101.06C101.578 206.136 101.704 206.556 101.872 207.228L102.53 210H105.05L104.266 206.906ZM100.626 204.568V202.006H101.158C101.662 202.006 102.124 202.174 102.124 203.21C102.124 204.19 101.83 204.568 101.158 204.568H100.626ZM107.011 210.196C107.893 210.196 108.369 209.636 108.369 208.95C108.369 208.278 107.907 207.718 107.025 207.718C106.143 207.718 105.681 208.278 105.681 208.95C105.681 209.636 106.143 210.196 107.011 210.196ZM109.142 212.8H110.612L114.252 200.2H112.782L109.142 212.8ZM126.023 200.2H121.683L120.521 208.964L119.345 200.2H115.005V210H117.371V201.096L118.617 210H122.397L123.657 201.096V210H126.023V200.2ZM130.643 200.2H127.255V210H130.643C134.577 210 135.599 207.284 135.599 205.1C135.599 202.916 134.577 200.2 130.643 200.2ZM129.775 207.9V202.286H130.433C132.309 202.286 132.953 203.448 132.953 205.1C132.953 206.738 132.309 207.9 130.433 207.9H129.775Z" fill="#FF282D"/>
<path d="M80.0993 69.8C79.0593 70.6 77.9073 71.208 76.6273 71.624V74.136C77.4273 73.848 78.2113 73.528 78.9633 73.176V81H81.8433V69.8H80.0993ZM83.2303 84.2H84.9103L89.0703 69.8H87.3903L83.2303 84.2ZM96.4106 75.208C97.4186 74.632 97.8506 73.672 97.8506 72.744C97.8506 71.24 96.8906 69.576 93.9146 69.576C90.9386 69.576 89.9786 71.24 89.9786 72.744C89.9786 73.672 90.3946 74.616 91.4026 75.208C90.1226 75.768 89.5946 76.808 89.5946 77.864C89.5946 79.496 90.6666 81.224 93.8986 81.224C97.1306 81.224 98.2186 79.496 98.2186 77.864C98.2186 76.808 97.6746 75.784 96.4106 75.208ZM93.9146 71.72C94.8106 71.72 95.2426 72.296 95.2426 72.984C95.2426 73.64 94.8106 74.248 93.9146 74.248C93.0346 74.248 92.5866 73.64 92.5866 72.984C92.5866 72.296 93.0346 71.72 93.9146 71.72ZM93.8986 78.856C92.8426 78.856 92.3626 78.168 92.3626 77.432C92.3626 76.664 92.8426 75.992 93.8986 75.992C94.9706 75.992 95.4346 76.664 95.4346 77.432C95.4346 78.168 94.9706 78.856 93.8986 78.856ZM99.0983 76.888H104.218V75.208H99.0983V76.888ZM108.311 69.8H105.431V81H110.471L110.711 78.616H108.311V69.8ZM116.44 81.224C120.28 81.224 121.848 78.28 121.848 75.4C121.848 72.52 120.28 69.576 116.44 69.576C112.6 69.576 111.048 72.504 111.048 75.4C111.048 78.28 112.6 81.224 116.44 81.224ZM116.44 78.552C114.84 78.552 114.088 77.208 114.088 75.4C114.088 73.592 114.84 72.248 116.44 72.248C118.056 72.248 118.808 73.576 118.808 75.4C118.808 77.224 118.056 78.552 116.44 78.552ZM126.787 69.8H122.915V81H126.787C131.283 81 132.451 77.896 132.451 75.4C132.451 72.904 131.283 69.8 126.787 69.8ZM125.795 78.6V72.184H126.547C128.691 72.184 129.427 73.512 129.427 75.4C129.427 77.272 128.691 78.6 126.547 78.6H125.795Z" fill="white"/>
<path d="M71.7524 112.2V114.286H70.2544V122H67.7344V114.286H66.2644L66.4744 112.2H71.7524ZM77.0092 122.196C73.6492 122.196 72.2912 119.62 72.2912 117.1C72.2912 114.566 73.6492 112.004 77.0092 112.004C80.3692 112.004 81.7412 114.58 81.7412 117.1C81.7412 119.62 80.3692 122.196 77.0092 122.196ZM77.0092 119.858C78.4232 119.858 79.0812 118.696 79.0812 117.1C79.0812 115.504 78.4232 114.342 77.0092 114.342C75.6092 114.342 74.9512 115.518 74.9512 117.1C74.9512 118.682 75.6092 119.858 77.0092 119.858ZM86.0631 112.2C88.6951 112.2 89.7031 113.642 89.7031 115.602C89.7031 117.45 88.8071 119.144 86.2731 119.144H85.4751V122H82.9551V112.2H86.0631ZM85.4751 117.38H85.9651C86.6511 117.38 87.0851 116.946 87.0851 115.812C87.0851 114.342 86.6231 114.006 85.9651 114.006H85.4751V117.38ZM96.2973 119.928V116.624H98.6633V121.314C97.5013 122.014 96.3393 122.196 95.2753 122.196C91.9713 122.196 90.5153 119.718 90.5153 117.1C90.5153 114.552 91.9853 112.004 95.3733 112.004C96.0873 112.004 96.9553 112.102 97.8093 112.508L97.5013 114.846C96.7173 114.454 96.1713 114.356 95.6813 114.356C94.0013 114.356 93.1893 115.518 93.1893 117.184C93.1893 118.78 94.0573 120.012 95.5833 120.012C95.8213 120.012 96.0593 119.998 96.2973 119.928ZM102.564 117.982V119.914H105.084L104.874 122H100.044V112.2H104.888L104.678 114.286H102.564V115.98H104.314V117.982H102.564ZM109.508 120.964L110.796 112.2H113.288L111.664 122H107.324L105.7 112.2H108.206L109.508 120.964ZM116.878 122H114.358V112.2H116.878V122ZM123.634 121.174L123.536 112.2H125.776V122H121.982L120.54 113.278L120.624 122H118.384V112.2H122.318L123.634 121.174ZM132.849 112.648L132.625 114.776C131.967 114.384 131.141 114.216 130.497 114.216C129.713 114.216 129.405 114.552 129.405 114.972C129.405 115.462 129.853 115.588 130.749 115.994C131.911 116.498 133.437 117.212 133.437 119.06C133.437 121.468 131.365 122.126 129.867 122.126C128.999 122.126 128.005 122 127.151 121.496V119.326C127.837 119.69 128.691 119.998 129.587 119.998C130.427 119.998 130.903 119.718 130.903 119.102C130.903 118.472 130.357 118.304 129.447 117.94C128.229 117.436 127.025 116.806 127.025 114.916C127.025 113.39 128.005 112.06 130.413 112.06C131.211 112.06 132.093 112.256 132.849 112.648ZM139.651 112.2V114.286H138.153V122H135.633V114.286H134.163L134.373 112.2H139.651Z" fill="#5F141E"/>
<path d="M60.3378 140.472C63.0538 141.256 64.3418 143.132 64.3418 145.4C64.3418 148.816 61.5418 151.392 56.7258 151.392C54.6258 151.392 52.9178 151.056 51.5178 150.496V146.072C52.7218 146.604 54.3458 146.968 55.7178 146.968C57.7338 146.968 58.9378 146.324 58.9378 144.728C58.9378 142.852 57.1458 142.348 54.8498 142.348H53.7578V139.072H54.7098C57.4818 139.072 58.4618 138.316 58.4618 137C58.4618 135.824 57.4538 135.264 55.9138 135.264C54.5138 135.264 53.1978 135.628 51.9098 136.272V132.044C53.1698 131.456 54.8498 131.008 56.9218 131.008C61.5418 131.008 63.7538 133.136 63.7538 136.02C63.7538 138.148 62.5218 139.632 60.3378 140.472ZM65.4974 136.048V131.4H78.8534C75.4654 139.24 73.1694 145.792 72.0214 151H66.7854C67.9054 146.912 69.7814 141.928 72.4134 136.048H65.4974ZM86.5965 138.596C90.0965 138.596 92.7845 140.836 92.7845 144.644C92.7845 148.788 89.8165 151.392 85.1125 151.392C82.9845 151.392 81.1365 150.972 79.7365 150.412V146.016C81.0245 146.604 82.5085 146.968 84.2445 146.968C86.4005 146.968 87.5485 146.184 87.5485 144.504C87.5485 143.076 86.4845 142.04 83.8245 142.04C82.6485 142.04 81.4725 142.18 80.1285 142.544C80.4085 138.82 80.4085 135.124 80.1285 131.4H91.5245V136.048H84.3285C84.3845 137 84.3565 137.952 84.3005 138.876C85.0285 138.68 85.7565 138.596 86.5965 138.596ZM97.5769 151.392C95.8409 151.392 94.9169 150.272 94.9169 148.9C94.9169 147.556 95.8409 146.436 97.6049 146.436C99.3689 146.436 100.293 147.556 100.293 148.9C100.293 150.272 99.3409 151.392 97.5769 151.392ZM109.953 151.392C104.017 151.392 101.553 146.24 101.553 141.2C101.553 136.132 104.017 131.008 109.953 131.008C115.889 131.008 118.381 136.132 118.381 141.2C118.381 146.24 115.889 151.392 109.953 151.392ZM109.953 146.716C111.885 146.716 113.061 144.84 113.061 141.2C113.061 137.56 111.885 135.684 109.953 135.684C108.049 135.684 106.873 137.56 106.873 141.2C106.873 144.84 108.049 146.716 109.953 146.716ZM128.601 151.392C122.665 151.392 120.201 146.24 120.201 141.2C120.201 136.132 122.665 131.008 128.601 131.008C134.537 131.008 137.029 136.132 137.029 141.2C137.029 146.24 134.537 151.392 128.601 151.392ZM128.601 146.716C130.533 146.716 131.709 144.84 131.709 141.2C131.709 137.56 130.533 135.684 128.601 135.684C126.697 135.684 125.521 137.56 125.521 141.2C125.521 144.84 126.697 146.716 128.601 146.716ZM147.25 151.392C141.314 151.392 138.85 146.24 138.85 141.2C138.85 136.132 141.314 131.008 147.25 131.008C153.186 131.008 155.678 136.132 155.678 141.2C155.678 146.24 153.186 151.392 147.25 151.392ZM147.25 146.716C149.182 146.716 150.358 144.84 150.358 141.2C150.358 137.56 149.182 135.684 147.25 135.684C145.346 135.684 144.17 137.56 144.17 141.2C144.17 144.84 145.346 146.716 147.25 146.716Z" fill="#5F141E"/>
<path d="M72.4713 178L66.4513 165.792L72.0513 158.4H66.5913L61.5513 165.344V158.4H56.5113V178H61.5513V172.232L63.1193 170.16L66.8993 178H72.4713ZM85.9758 171.812C85.5278 170.104 85.0238 168.928 83.5678 168.564C85.4158 168.004 86.8998 166.408 86.8998 163.776C86.8998 160.752 85.0798 158.4 80.2078 158.4H73.6558V178H78.6958V170.272H79.5638C80.5998 170.272 80.8518 171.112 81.1878 172.456L82.5038 178H87.5438L85.9758 171.812ZM78.6958 167.136V162.012H79.7598C80.7678 162.012 81.6918 162.348 81.6918 164.42C81.6918 166.38 81.1038 167.136 79.7598 167.136H78.6958ZM97.5976 178.392C104.318 178.392 107.062 173.24 107.062 168.2C107.062 163.16 104.318 158.008 97.5976 158.008C90.8776 158.008 88.1616 163.132 88.1616 168.2C88.1616 173.24 90.8776 178.392 97.5976 178.392ZM97.5976 173.716C94.7976 173.716 93.4816 171.364 93.4816 168.2C93.4816 165.036 94.7976 162.684 97.5976 162.684C100.426 162.684 101.742 165.008 101.742 168.2C101.742 171.392 100.426 173.716 97.5976 173.716ZM119.429 176.348L116.797 158.4H108.929V178H113.409L113.241 160.556L116.125 178H123.713V158.4H119.233L119.429 176.348ZM131.223 169.964H134.723V165.96H131.223V162.572H135.451L135.871 158.4H126.183V178H135.843L136.263 173.828H131.223V169.964ZM150.179 171.812C149.731 170.104 149.227 168.928 147.771 168.564C149.619 168.004 151.103 166.408 151.103 163.776C151.103 160.752 149.283 158.4 144.411 158.4H137.859V178H142.899V170.272H143.767C144.803 170.272 145.055 171.112 145.391 172.456L146.707 178H151.747L150.179 171.812ZM142.899 167.136V162.012H143.963C144.971 162.012 145.895 162.348 145.895 164.42C145.895 166.38 145.307 167.136 143.963 167.136H142.899Z" fill="#5F141E"/>
</g>
<defs>
<clipPath id="clip0_3299_32191">
<path d="M0 0H207V117.5C207 174.661 160.661 221 103.5 221C46.3385 221 0 174.661 0 117.5V0Z" fill="white"/>
</clipPath>
</defs>
</svg>
