<svg width="207" height="221" viewBox="0 0 207 221" fill="none" xmlns="http://www.w3.org/2000/svg">
<g clip-path="url(#clip0_3299_32164)">
<ellipse cx="103.5" cy="118" rx="103.5" ry="103" fill="#D25333"/>
<mask id="path-3-inside-1_3299_32164" fill="white">
<path fill-rule="evenodd" clip-rule="evenodd" d="M170.5 28C172.433 28 174 26.433 174 24.5C174 24.3302 173.988 24.1633 173.965 24H181V86H26V24H32.0354C32.0121 24.1633 32 24.3302 32 24.5C32 26.433 33.567 28 35.5 28C37.433 28 39 26.433 39 24.5C39 24.3302 38.9879 24.1633 38.9646 24H47.0354C47.0121 24.1633 47 24.3302 47 24.5C47 26.433 48.567 28 50.5 28C52.433 28 54 26.433 54 24.5C54 24.3302 53.9879 24.1633 53.9646 24H62.0354C62.0121 24.1633 62 24.3302 62 24.5C62 26.433 63.567 28 65.5 28C67.433 28 69 26.433 69 24.5C69 24.3302 68.9879 24.1633 68.9646 24H77.0354C77.0121 24.1633 77 24.3302 77 24.5C77 26.433 78.567 28 80.5 28C82.433 28 84 26.433 84 24.5C84 24.3302 83.9879 24.1633 83.9646 24H92.0354C92.0121 24.1633 92 24.3302 92 24.5C92 26.433 93.567 28 95.5 28C97.433 28 99 26.433 99 24.5C99 24.3302 98.9879 24.1633 98.9646 24H107.035C107.012 24.1633 107 24.3302 107 24.5C107 26.433 108.567 28 110.5 28C112.433 28 114 26.433 114 24.5C114 24.3302 113.988 24.1633 113.965 24H122.035C122.012 24.1633 122 24.3302 122 24.5C122 26.433 123.567 28 125.5 28C127.433 28 129 26.433 129 24.5C129 24.3302 128.988 24.1633 128.965 24H137.035C137.012 24.1633 137 24.3302 137 24.5C137 26.433 138.567 28 140.5 28C142.433 28 144 26.433 144 24.5C144 24.3302 143.988 24.1633 143.965 24H152.035C152.012 24.1633 152 24.3302 152 24.5C152 26.433 153.567 28 155.5 28C157.433 28 159 26.433 159 24.5C159 24.3302 158.988 24.1633 158.965 24H167.035C167.012 24.1633 167 24.3302 167 24.5C167 26.433 168.567 28 170.5 28Z"/>
</mask>
<path fill-rule="evenodd" clip-rule="evenodd" d="M170.5 28C172.433 28 174 26.433 174 24.5C174 24.3302 173.988 24.1633 173.965 24H181V86H26V24H32.0354C32.0121 24.1633 32 24.3302 32 24.5C32 26.433 33.567 28 35.5 28C37.433 28 39 26.433 39 24.5C39 24.3302 38.9879 24.1633 38.9646 24H47.0354C47.0121 24.1633 47 24.3302 47 24.5C47 26.433 48.567 28 50.5 28C52.433 28 54 26.433 54 24.5C54 24.3302 53.9879 24.1633 53.9646 24H62.0354C62.0121 24.1633 62 24.3302 62 24.5C62 26.433 63.567 28 65.5 28C67.433 28 69 26.433 69 24.5C69 24.3302 68.9879 24.1633 68.9646 24H77.0354C77.0121 24.1633 77 24.3302 77 24.5C77 26.433 78.567 28 80.5 28C82.433 28 84 26.433 84 24.5C84 24.3302 83.9879 24.1633 83.9646 24H92.0354C92.0121 24.1633 92 24.3302 92 24.5C92 26.433 93.567 28 95.5 28C97.433 28 99 26.433 99 24.5C99 24.3302 98.9879 24.1633 98.9646 24H107.035C107.012 24.1633 107 24.3302 107 24.5C107 26.433 108.567 28 110.5 28C112.433 28 114 26.433 114 24.5C114 24.3302 113.988 24.1633 113.965 24H122.035C122.012 24.1633 122 24.3302 122 24.5C122 26.433 123.567 28 125.5 28C127.433 28 129 26.433 129 24.5C129 24.3302 128.988 24.1633 128.965 24H137.035C137.012 24.1633 137 24.3302 137 24.5C137 26.433 138.567 28 140.5 28C142.433 28 144 26.433 144 24.5C144 24.3302 143.988 24.1633 143.965 24H152.035C152.012 24.1633 152 24.3302 152 24.5C152 26.433 153.567 28 155.5 28C157.433 28 159 26.433 159 24.5C159 24.3302 158.988 24.1633 158.965 24H167.035C167.012 24.1633 167 24.3302 167 24.5C167 26.433 168.567 28 170.5 28Z" fill="#FFF5E1"/>
<path d="M173.965 24V23H172.811L172.975 24.1416L173.965 24ZM181 24H182V23H181V24ZM181 86V87H182V86H181ZM26 86H25V87H26V86ZM26 24V23H25V24H26ZM32.0354 24L33.0254 24.1416L33.1887 23H32.0354V24ZM38.9646 24V23H37.8113L37.9746 24.1416L38.9646 24ZM47.0354 24L48.0254 24.1416L48.1887 23H47.0354V24ZM53.9646 24V23H52.8113L52.9746 24.1416L53.9646 24ZM62.0354 24L63.0254 24.1416L63.1887 23H62.0354V24ZM68.9646 24V23H67.8113L67.9746 24.1416L68.9646 24ZM77.0354 24L78.0254 24.1416L78.1887 23H77.0354V24ZM83.9646 24V23H82.8113L82.9746 24.1416L83.9646 24ZM92.0354 24L93.0254 24.1416L93.1887 23H92.0354V24ZM98.9646 24V23H97.8113L97.9746 24.1416L98.9646 24ZM107.035 24L108.025 24.1416L108.189 23H107.035V24ZM113.965 24V23H112.811L112.975 24.1416L113.965 24ZM122.035 24L123.025 24.1416L123.189 23H122.035V24ZM128.965 24V23H127.811L127.975 24.1416L128.965 24ZM137.035 24L138.025 24.1416L138.189 23H137.035V24ZM143.965 24V23H142.811L142.975 24.1416L143.965 24ZM152.035 24L153.025 24.1416L153.189 23H152.035V24ZM158.965 24V23H157.811L157.975 24.1416L158.965 24ZM167.035 24L168.025 24.1416L168.189 23H167.035V24ZM173 24.5C173 25.8807 171.881 27 170.5 27V29C172.985 29 175 26.9853 175 24.5H173ZM172.975 24.1416C172.991 24.2581 173 24.3778 173 24.5H175C175 24.2827 174.985 24.0685 174.954 23.8584L172.975 24.1416ZM173.965 25H181V23H173.965V25ZM180 24V86H182V24H180ZM181 85H26V87H181V85ZM27 86V24H25V86H27ZM26 25H32.0354V23H26V25ZM31.0455 23.8584C31.0155 24.0685 31 24.2827 31 24.5H33C33 24.3778 33.0087 24.2581 33.0254 24.1416L31.0455 23.8584ZM31 24.5C31 26.9853 33.0147 29 35.5 29V27C34.1193 27 33 25.8807 33 24.5H31ZM35.5 29C37.9853 29 40 26.9853 40 24.5H38C38 25.8807 36.8807 27 35.5 27V29ZM40 24.5C40 24.2827 39.9845 24.0685 39.9545 23.8584L37.9746 24.1416C37.9913 24.2581 38 24.3778 38 24.5H40ZM38.9646 25H47.0354V23H38.9646V25ZM46.0455 23.8584C46.0155 24.0685 46 24.2827 46 24.5H48C48 24.3778 48.0087 24.2581 48.0254 24.1416L46.0455 23.8584ZM46 24.5C46 26.9853 48.0147 29 50.5 29V27C49.1193 27 48 25.8807 48 24.5H46ZM50.5 29C52.9853 29 55 26.9853 55 24.5H53C53 25.8807 51.8807 27 50.5 27V29ZM55 24.5C55 24.2827 54.9845 24.0685 54.9545 23.8584L52.9746 24.1416C52.9913 24.2581 53 24.3778 53 24.5H55ZM53.9646 25H62.0354V23H53.9646V25ZM61.0455 23.8584C61.0155 24.0685 61 24.2827 61 24.5H63C63 24.3778 63.0087 24.2582 63.0254 24.1416L61.0455 23.8584ZM61 24.5C61 26.9853 63.0147 29 65.5 29V27C64.1193 27 63 25.8807 63 24.5H61ZM65.5 29C67.9853 29 70 26.9853 70 24.5H68C68 25.8807 66.8807 27 65.5 27V29ZM70 24.5C70 24.2827 69.9845 24.0685 69.9545 23.8584L67.9746 24.1416C67.9913 24.2582 68 24.3778 68 24.5H70ZM68.9646 25H77.0354V23H68.9646V25ZM76.0455 23.8584C76.0155 24.0685 76 24.2827 76 24.5H78C78 24.3778 78.0087 24.2582 78.0254 24.1416L76.0455 23.8584ZM76 24.5C76 26.9853 78.0147 29 80.5 29V27C79.1193 27 78 25.8807 78 24.5H76ZM80.5 29C82.9853 29 85 26.9853 85 24.5H83C83 25.8807 81.8807 27 80.5 27V29ZM85 24.5C85 24.2827 84.9845 24.0685 84.9545 23.8584L82.9746 24.1416C82.9913 24.2582 83 24.3778 83 24.5H85ZM83.9646 25H92.0354V23H83.9646V25ZM91.0455 23.8584C91.0155 24.0685 91 24.2827 91 24.5H93C93 24.3778 93.0087 24.2581 93.0254 24.1416L91.0455 23.8584ZM91 24.5C91 26.9853 93.0147 29 95.5 29V27C94.1193 27 93 25.8807 93 24.5H91ZM95.5 29C97.9853 29 100 26.9853 100 24.5H98C98 25.8807 96.8807 27 95.5 27V29ZM100 24.5C100 24.2827 99.9845 24.0685 99.9545 23.8584L97.9746 24.1416C97.9913 24.2581 98 24.3778 98 24.5H100ZM98.9646 25H107.035V23H98.9646V25ZM106.046 23.8584C106.015 24.0685 106 24.2827 106 24.5H108C108 24.3778 108.009 24.2581 108.025 24.1416L106.046 23.8584ZM106 24.5C106 26.9853 108.015 29 110.5 29V27C109.119 27 108 25.8807 108 24.5H106ZM110.5 29C112.985 29 115 26.9853 115 24.5H113C113 25.8807 111.881 27 110.5 27V29ZM115 24.5C115 24.2827 114.985 24.0685 114.954 23.8584L112.975 24.1416C112.991 24.2581 113 24.3778 113 24.5H115ZM113.965 25H122.035V23H113.965V25ZM121.046 23.8584C121.015 24.0685 121 24.2827 121 24.5H123C123 24.3778 123.009 24.2581 123.025 24.1416L121.046 23.8584ZM121 24.5C121 26.9853 123.015 29 125.5 29V27C124.119 27 123 25.8807 123 24.5H121ZM125.5 29C127.985 29 130 26.9853 130 24.5H128C128 25.8807 126.881 27 125.5 27V29ZM130 24.5C130 24.2827 129.985 24.0685 129.954 23.8584L127.975 24.1416C127.991 24.2581 128 24.3778 128 24.5H130ZM128.965 25H137.035V23H128.965V25ZM136.046 23.8584C136.015 24.0685 136 24.2827 136 24.5H138C138 24.3778 138.009 24.2581 138.025 24.1416L136.046 23.8584ZM136 24.5C136 26.9853 138.015 29 140.5 29V27C139.119 27 138 25.8807 138 24.5H136ZM140.5 29C142.985 29 145 26.9853 145 24.5H143C143 25.8807 141.881 27 140.5 27V29ZM145 24.5C145 24.2827 144.985 24.0685 144.954 23.8584L142.975 24.1416C142.991 24.2581 143 24.3778 143 24.5H145ZM143.965 25H152.035V23H143.965V25ZM151.046 23.8584C151.015 24.0685 151 24.2827 151 24.5H153C153 24.3778 153.009 24.2581 153.025 24.1416L151.046 23.8584ZM151 24.5C151 26.9853 153.015 29 155.5 29V27C154.119 27 153 25.8807 153 24.5H151ZM155.5 29C157.985 29 160 26.9853 160 24.5H158C158 25.8807 156.881 27 155.5 27V29ZM160 24.5C160 24.2827 159.985 24.0685 159.954 23.8584L157.975 24.1416C157.991 24.2581 158 24.3778 158 24.5H160ZM158.965 25H167.035V23H158.965V25ZM168 24.5C168 24.3778 168.009 24.2581 168.025 24.1416L166.046 23.8584C166.015 24.0685 166 24.2827 166 24.5H168ZM170.5 27C169.119 27 168 25.8807 168 24.5H166C166 26.9853 168.015 29 170.5 29V27Z" fill="#5F141E" mask="url(#path-3-inside-1_3299_32164)"/>
<mask id="mask0_3299_32164" style="mask-type:alpha" maskUnits="userSpaceOnUse" x="0" y="39" width="207" height="206">
<ellipse cx="103.5" cy="142" rx="103.5" ry="103" fill="#FF282D"/>
</mask>
<g mask="url(#mask0_3299_32164)">
<path d="M26.5 24.5H180.5V252.5H26.5V24.5Z" fill="#FFF5E1" stroke="#5F141E"/>
</g>
<rect x="38" y="61" width="131" height="28" fill="#D25333"/>
<path d="M169 224V49C169 44.5817 165.418 41 161 41H46C41.5817 41 38 44.5817 38 49V224" stroke="#5F141E"/>
<path d="M76.1393 206.108V204.302H73.6613V206.108H72.4293C73.0033 204.232 73.5073 202.258 73.9273 200.2H71.6173C71.0153 202.93 70.3013 205.548 69.4473 207.998H73.6613V210H76.1393V207.998H77.3013V206.108H76.1393ZM82.4442 210.196C85.4122 210.196 86.6582 207.62 86.6582 205.1C86.6582 202.566 85.4122 200.004 82.4442 200.004C79.4762 200.004 78.2442 202.566 78.2442 205.1C78.2442 207.62 79.4762 210.196 82.4442 210.196ZM82.4442 207.858C81.4922 207.858 80.9042 206.92 80.9042 205.1C80.9042 203.28 81.4922 202.342 82.4442 202.342C83.4102 202.342 83.9982 203.28 83.9982 205.1C83.9982 206.92 83.4102 207.858 82.4442 207.858ZM98.3685 210L95.3585 203.896L98.1585 200.2H95.4285L92.9085 203.672V200.2H90.3885V210H92.9085V207.116L93.6925 206.08L95.5825 210H98.3685ZM105.121 206.906C104.897 206.052 104.645 205.464 103.917 205.282C104.841 205.002 105.583 204.204 105.583 202.888C105.583 201.376 104.673 200.2 102.237 200.2H98.9607V210H101.481V206.136H101.915C102.433 206.136 102.559 206.556 102.727 207.228L103.385 210H105.905L105.121 206.906ZM101.481 204.568V202.006H102.013C102.517 202.006 102.979 202.174 102.979 203.21C102.979 204.19 102.685 204.568 102.013 204.568H101.481ZM107.866 210.196C108.748 210.196 109.224 209.636 109.224 208.95C109.224 208.278 108.762 207.718 107.88 207.718C106.998 207.718 106.536 208.278 106.536 208.95C106.536 209.636 106.998 210.196 107.866 210.196ZM109.996 212.8H111.466L115.106 200.2H113.636L109.996 212.8ZM126.877 200.2H122.537L121.375 208.964L120.199 200.2H115.859V210H118.225V201.096L119.471 210H123.251L124.511 201.096V210H126.877V200.2ZM131.497 200.2H128.109V210H131.497C135.431 210 136.453 207.284 136.453 205.1C136.453 202.916 135.431 200.2 131.497 200.2ZM130.629 207.9V202.286H131.287C133.163 202.286 133.807 203.448 133.807 205.1C133.807 206.738 133.163 207.9 131.287 207.9H130.629Z" fill="#FF282D"/>
<path d="M79.3884 69.8C78.3484 70.6 77.1964 71.208 75.9164 71.624V74.136C76.7164 73.848 77.5004 73.528 78.2524 73.176V81H81.1324V69.8H79.3884ZM82.5194 84.2H84.1994L88.3594 69.8H86.6794L82.5194 84.2ZM96.4036 76.552V74.488H93.5716V76.552H92.1636C92.8196 74.408 93.3956 72.152 93.8756 69.8H91.2356C90.5476 72.92 89.7316 75.912 88.7556 78.712H93.5716V81H96.4036V78.712H97.7316V76.552H96.4036ZM98.8092 76.888H103.929V75.208H98.8092V76.888ZM108.022 69.8H105.142V81H110.182L110.422 78.616H108.022V69.8ZM116.151 81.224C119.991 81.224 121.559 78.28 121.559 75.4C121.559 72.52 119.991 69.576 116.151 69.576C112.311 69.576 110.759 72.504 110.759 75.4C110.759 78.28 112.311 81.224 116.151 81.224ZM116.151 78.552C114.551 78.552 113.799 77.208 113.799 75.4C113.799 73.592 114.551 72.248 116.151 72.248C117.767 72.248 118.519 73.576 118.519 75.4C118.519 77.224 117.767 78.552 116.151 78.552ZM126.498 69.8H122.626V81H126.498C130.994 81 132.162 77.896 132.162 75.4C132.162 72.904 130.994 69.8 126.498 69.8ZM125.506 78.6V72.184H126.258C128.402 72.184 129.138 73.512 129.138 75.4C129.138 77.272 128.402 78.6 126.258 78.6H125.506Z" fill="white"/>
<path d="M71.7524 112.2V114.286H70.2544V122H67.7344V114.286H66.2644L66.4744 112.2H71.7524ZM77.0092 122.196C73.6492 122.196 72.2912 119.62 72.2912 117.1C72.2912 114.566 73.6492 112.004 77.0092 112.004C80.3692 112.004 81.7412 114.58 81.7412 117.1C81.7412 119.62 80.3692 122.196 77.0092 122.196ZM77.0092 119.858C78.4232 119.858 79.0812 118.696 79.0812 117.1C79.0812 115.504 78.4232 114.342 77.0092 114.342C75.6092 114.342 74.9512 115.518 74.9512 117.1C74.9512 118.682 75.6092 119.858 77.0092 119.858ZM86.0631 112.2C88.6951 112.2 89.7031 113.642 89.7031 115.602C89.7031 117.45 88.8071 119.144 86.2731 119.144H85.4751V122H82.9551V112.2H86.0631ZM85.4751 117.38H85.9651C86.6511 117.38 87.0851 116.946 87.0851 115.812C87.0851 114.342 86.6231 114.006 85.9651 114.006H85.4751V117.38ZM96.2973 119.928V116.624H98.6633V121.314C97.5013 122.014 96.3393 122.196 95.2753 122.196C91.9713 122.196 90.5153 119.718 90.5153 117.1C90.5153 114.552 91.9853 112.004 95.3733 112.004C96.0873 112.004 96.9553 112.102 97.8093 112.508L97.5013 114.846C96.7173 114.454 96.1713 114.356 95.6813 114.356C94.0013 114.356 93.1893 115.518 93.1893 117.184C93.1893 118.78 94.0573 120.012 95.5833 120.012C95.8213 120.012 96.0593 119.998 96.2973 119.928ZM102.564 117.982V119.914H105.084L104.874 122H100.044V112.2H104.888L104.678 114.286H102.564V115.98H104.314V117.982H102.564ZM109.508 120.964L110.796 112.2H113.288L111.664 122H107.324L105.7 112.2H108.206L109.508 120.964ZM116.878 122H114.358V112.2H116.878V122ZM123.634 121.174L123.536 112.2H125.776V122H121.982L120.54 113.278L120.624 122H118.384V112.2H122.318L123.634 121.174ZM132.849 112.648L132.625 114.776C131.967 114.384 131.141 114.216 130.497 114.216C129.713 114.216 129.405 114.552 129.405 114.972C129.405 115.462 129.853 115.588 130.749 115.994C131.911 116.498 133.437 117.212 133.437 119.06C133.437 121.468 131.365 122.126 129.867 122.126C128.999 122.126 128.005 122 127.151 121.496V119.326C127.837 119.69 128.691 119.998 129.587 119.998C130.427 119.998 130.903 119.718 130.903 119.102C130.903 118.472 130.357 118.304 129.447 117.94C128.229 117.436 127.025 116.806 127.025 114.916C127.025 113.39 128.005 112.06 130.413 112.06C131.211 112.06 132.093 112.256 132.849 112.648ZM139.651 112.2V114.286H138.153V122H135.633V114.286H134.163L134.373 112.2H139.651Z" fill="#5F141E"/>
<path d="M48.7142 136.048V131.4H62.0702C58.6822 139.24 56.3862 145.792 55.2382 151H50.0022C51.1222 146.912 52.9982 141.928 55.6302 136.048H48.7142ZM69.8133 138.596C73.3133 138.596 76.0013 140.836 76.0013 144.644C76.0013 148.788 73.0333 151.392 68.3293 151.392C66.2013 151.392 64.3533 150.972 62.9533 150.412V146.016C64.2413 146.604 65.7253 146.968 67.4613 146.968C69.6173 146.968 70.7653 146.184 70.7653 144.504C70.7653 143.076 69.7013 142.04 67.0413 142.04C65.8653 142.04 64.6893 142.18 63.3453 142.544C63.6253 138.82 63.6253 135.124 63.3453 131.4H74.7413V136.048H67.5453C67.6013 137 67.5733 137.952 67.5173 138.876C68.2453 138.68 68.9733 138.596 69.8133 138.596ZM86.1697 151.392C80.2337 151.392 77.7697 146.24 77.7697 141.2C77.7697 136.132 80.2337 131.008 86.1697 131.008C92.1057 131.008 94.5977 136.132 94.5977 141.2C94.5977 146.24 92.1057 151.392 86.1697 151.392ZM86.1697 146.716C88.1017 146.716 89.2777 144.84 89.2777 141.2C89.2777 137.56 88.1017 135.684 86.1697 135.684C84.2657 135.684 83.0897 137.56 83.0897 141.2C83.0897 144.84 84.2657 146.716 86.1697 146.716ZM98.5125 151.392C96.7765 151.392 95.8525 150.272 95.8525 148.9C95.8525 147.556 96.7765 146.436 98.5405 146.436C100.304 146.436 101.228 147.556 101.228 148.9C101.228 150.272 100.276 151.392 98.5125 151.392ZM110.888 151.392C104.952 151.392 102.488 146.24 102.488 141.2C102.488 136.132 104.952 131.008 110.888 131.008C116.824 131.008 119.316 136.132 119.316 141.2C119.316 146.24 116.824 151.392 110.888 151.392ZM110.888 146.716C112.82 146.716 113.996 144.84 113.996 141.2C113.996 137.56 112.82 135.684 110.888 135.684C108.984 135.684 107.808 137.56 107.808 141.2C107.808 144.84 108.984 146.716 110.888 146.716ZM129.537 151.392C123.601 151.392 121.137 146.24 121.137 141.2C121.137 136.132 123.601 131.008 129.537 131.008C135.473 131.008 137.965 136.132 137.965 141.2C137.965 146.24 135.473 151.392 129.537 151.392ZM129.537 146.716C131.469 146.716 132.645 144.84 132.645 141.2C132.645 137.56 131.469 135.684 129.537 135.684C127.633 135.684 126.457 137.56 126.457 141.2C126.457 144.84 127.633 146.716 129.537 146.716ZM148.185 151.392C142.249 151.392 139.785 146.24 139.785 141.2C139.785 136.132 142.249 131.008 148.185 131.008C154.121 131.008 156.613 136.132 156.613 141.2C156.613 146.24 154.121 151.392 148.185 151.392ZM148.185 146.716C150.117 146.716 151.293 144.84 151.293 141.2C151.293 137.56 150.117 135.684 148.185 135.684C146.281 135.684 145.105 137.56 145.105 141.2C145.105 144.84 146.281 146.716 148.185 146.716Z" fill="#5F141E"/>
<path d="M72.4713 178L66.4513 165.792L72.0513 158.4H66.5913L61.5513 165.344V158.4H56.5113V178H61.5513V172.232L63.1193 170.16L66.8993 178H72.4713ZM85.9758 171.812C85.5278 170.104 85.0238 168.928 83.5678 168.564C85.4158 168.004 86.8998 166.408 86.8998 163.776C86.8998 160.752 85.0798 158.4 80.2078 158.4H73.6558V178H78.6958V170.272H79.5638C80.5998 170.272 80.8518 171.112 81.1878 172.456L82.5038 178H87.5438L85.9758 171.812ZM78.6958 167.136V162.012H79.7598C80.7678 162.012 81.6918 162.348 81.6918 164.42C81.6918 166.38 81.1038 167.136 79.7598 167.136H78.6958ZM97.5976 178.392C104.318 178.392 107.062 173.24 107.062 168.2C107.062 163.16 104.318 158.008 97.5976 158.008C90.8776 158.008 88.1616 163.132 88.1616 168.2C88.1616 173.24 90.8776 178.392 97.5976 178.392ZM97.5976 173.716C94.7976 173.716 93.4816 171.364 93.4816 168.2C93.4816 165.036 94.7976 162.684 97.5976 162.684C100.426 162.684 101.742 165.008 101.742 168.2C101.742 171.392 100.426 173.716 97.5976 173.716ZM119.429 176.348L116.797 158.4H108.929V178H113.409L113.241 160.556L116.125 178H123.713V158.4H119.233L119.429 176.348ZM131.223 169.964H134.723V165.96H131.223V162.572H135.451L135.871 158.4H126.183V178H135.843L136.263 173.828H131.223V169.964ZM150.179 171.812C149.731 170.104 149.227 168.928 147.771 168.564C149.619 168.004 151.103 166.408 151.103 163.776C151.103 160.752 149.283 158.4 144.411 158.4H137.859V178H142.899V170.272H143.767C144.803 170.272 145.055 171.112 145.391 172.456L146.707 178H151.747L150.179 171.812ZM142.899 167.136V162.012H143.963C144.971 162.012 145.895 162.348 145.895 164.42C145.895 166.38 145.307 167.136 143.963 167.136H142.899Z" fill="#5F141E"/>
</g>
<defs>
<clipPath id="clip0_3299_32164">
<path d="M0 0H207V117.5C207 174.661 160.661 221 103.5 221C46.3385 221 0 174.661 0 117.5V0Z" fill="white"/>
</clipPath>
</defs>
</svg>
