<svg width="207" height="221" viewBox="0 0 207 221" fill="none" xmlns="http://www.w3.org/2000/svg">
<g clip-path="url(#clip0_3299_32110)">
<ellipse cx="103.5" cy="118" rx="103.5" ry="103" fill="#87B95F"/>
<mask id="path-3-inside-1_3299_32110" fill="white">
<path fill-rule="evenodd" clip-rule="evenodd" d="M170.5 28C172.433 28 174 26.433 174 24.5C174 24.3302 173.988 24.1633 173.965 24H181V86H26V24H32.0354C32.0121 24.1633 32 24.3302 32 24.5C32 26.433 33.567 28 35.5 28C37.433 28 39 26.433 39 24.5C39 24.3302 38.9879 24.1633 38.9646 24H47.0354C47.0121 24.1633 47 24.3302 47 24.5C47 26.433 48.567 28 50.5 28C52.433 28 54 26.433 54 24.5C54 24.3302 53.9879 24.1633 53.9646 24H62.0354C62.0121 24.1633 62 24.3302 62 24.5C62 26.433 63.567 28 65.5 28C67.433 28 69 26.433 69 24.5C69 24.3302 68.9879 24.1633 68.9646 24H77.0354C77.0121 24.1633 77 24.3302 77 24.5C77 26.433 78.567 28 80.5 28C82.433 28 84 26.433 84 24.5C84 24.3302 83.9879 24.1633 83.9646 24H92.0354C92.0121 24.1633 92 24.3302 92 24.5C92 26.433 93.567 28 95.5 28C97.433 28 99 26.433 99 24.5C99 24.3302 98.9879 24.1633 98.9646 24H107.035C107.012 24.1633 107 24.3302 107 24.5C107 26.433 108.567 28 110.5 28C112.433 28 114 26.433 114 24.5C114 24.3302 113.988 24.1633 113.965 24H122.035C122.012 24.1633 122 24.3302 122 24.5C122 26.433 123.567 28 125.5 28C127.433 28 129 26.433 129 24.5C129 24.3302 128.988 24.1633 128.965 24H137.035C137.012 24.1633 137 24.3302 137 24.5C137 26.433 138.567 28 140.5 28C142.433 28 144 26.433 144 24.5C144 24.3302 143.988 24.1633 143.965 24H152.035C152.012 24.1633 152 24.3302 152 24.5C152 26.433 153.567 28 155.5 28C157.433 28 159 26.433 159 24.5C159 24.3302 158.988 24.1633 158.965 24H167.035C167.012 24.1633 167 24.3302 167 24.5C167 26.433 168.567 28 170.5 28Z"/>
</mask>
<path fill-rule="evenodd" clip-rule="evenodd" d="M170.5 28C172.433 28 174 26.433 174 24.5C174 24.3302 173.988 24.1633 173.965 24H181V86H26V24H32.0354C32.0121 24.1633 32 24.3302 32 24.5C32 26.433 33.567 28 35.5 28C37.433 28 39 26.433 39 24.5C39 24.3302 38.9879 24.1633 38.9646 24H47.0354C47.0121 24.1633 47 24.3302 47 24.5C47 26.433 48.567 28 50.5 28C52.433 28 54 26.433 54 24.5C54 24.3302 53.9879 24.1633 53.9646 24H62.0354C62.0121 24.1633 62 24.3302 62 24.5C62 26.433 63.567 28 65.5 28C67.433 28 69 26.433 69 24.5C69 24.3302 68.9879 24.1633 68.9646 24H77.0354C77.0121 24.1633 77 24.3302 77 24.5C77 26.433 78.567 28 80.5 28C82.433 28 84 26.433 84 24.5C84 24.3302 83.9879 24.1633 83.9646 24H92.0354C92.0121 24.1633 92 24.3302 92 24.5C92 26.433 93.567 28 95.5 28C97.433 28 99 26.433 99 24.5C99 24.3302 98.9879 24.1633 98.9646 24H107.035C107.012 24.1633 107 24.3302 107 24.5C107 26.433 108.567 28 110.5 28C112.433 28 114 26.433 114 24.5C114 24.3302 113.988 24.1633 113.965 24H122.035C122.012 24.1633 122 24.3302 122 24.5C122 26.433 123.567 28 125.5 28C127.433 28 129 26.433 129 24.5C129 24.3302 128.988 24.1633 128.965 24H137.035C137.012 24.1633 137 24.3302 137 24.5C137 26.433 138.567 28 140.5 28C142.433 28 144 26.433 144 24.5C144 24.3302 143.988 24.1633 143.965 24H152.035C152.012 24.1633 152 24.3302 152 24.5C152 26.433 153.567 28 155.5 28C157.433 28 159 26.433 159 24.5C159 24.3302 158.988 24.1633 158.965 24H167.035C167.012 24.1633 167 24.3302 167 24.5C167 26.433 168.567 28 170.5 28Z" fill="#FFF5E1"/>
<path d="M173.965 24V23H172.811L172.975 24.1416L173.965 24ZM181 24H182V23H181V24ZM181 86V87H182V86H181ZM26 86H25V87H26V86ZM26 24V23H25V24H26ZM32.0354 24L33.0254 24.1416L33.1887 23H32.0354V24ZM38.9646 24V23H37.8113L37.9746 24.1416L38.9646 24ZM47.0354 24L48.0254 24.1416L48.1887 23H47.0354V24ZM53.9646 24V23H52.8113L52.9746 24.1416L53.9646 24ZM62.0354 24L63.0254 24.1416L63.1887 23H62.0354V24ZM68.9646 24V23H67.8113L67.9746 24.1416L68.9646 24ZM77.0354 24L78.0254 24.1416L78.1887 23H77.0354V24ZM83.9646 24V23H82.8113L82.9746 24.1416L83.9646 24ZM92.0354 24L93.0254 24.1416L93.1887 23H92.0354V24ZM98.9646 24V23H97.8113L97.9746 24.1416L98.9646 24ZM107.035 24L108.025 24.1416L108.189 23H107.035V24ZM113.965 24V23H112.811L112.975 24.1416L113.965 24ZM122.035 24L123.025 24.1416L123.189 23H122.035V24ZM128.965 24V23H127.811L127.975 24.1416L128.965 24ZM137.035 24L138.025 24.1416L138.189 23H137.035V24ZM143.965 24V23H142.811L142.975 24.1416L143.965 24ZM152.035 24L153.025 24.1416L153.189 23H152.035V24ZM158.965 24V23H157.811L157.975 24.1416L158.965 24ZM167.035 24L168.025 24.1416L168.189 23H167.035V24ZM173 24.5C173 25.8807 171.881 27 170.5 27V29C172.985 29 175 26.9853 175 24.5H173ZM172.975 24.1416C172.991 24.2581 173 24.3778 173 24.5H175C175 24.2827 174.985 24.0685 174.954 23.8584L172.975 24.1416ZM173.965 25H181V23H173.965V25ZM180 24V86H182V24H180ZM181 85H26V87H181V85ZM27 86V24H25V86H27ZM26 25H32.0354V23H26V25ZM31.0455 23.8584C31.0155 24.0685 31 24.2827 31 24.5H33C33 24.3778 33.0087 24.2581 33.0254 24.1416L31.0455 23.8584ZM31 24.5C31 26.9853 33.0147 29 35.5 29V27C34.1193 27 33 25.8807 33 24.5H31ZM35.5 29C37.9853 29 40 26.9853 40 24.5H38C38 25.8807 36.8807 27 35.5 27V29ZM40 24.5C40 24.2827 39.9845 24.0685 39.9545 23.8584L37.9746 24.1416C37.9913 24.2581 38 24.3778 38 24.5H40ZM38.9646 25H47.0354V23H38.9646V25ZM46.0455 23.8584C46.0155 24.0685 46 24.2827 46 24.5H48C48 24.3778 48.0087 24.2581 48.0254 24.1416L46.0455 23.8584ZM46 24.5C46 26.9853 48.0147 29 50.5 29V27C49.1193 27 48 25.8807 48 24.5H46ZM50.5 29C52.9853 29 55 26.9853 55 24.5H53C53 25.8807 51.8807 27 50.5 27V29ZM55 24.5C55 24.2827 54.9845 24.0685 54.9545 23.8584L52.9746 24.1416C52.9913 24.2581 53 24.3778 53 24.5H55ZM53.9646 25H62.0354V23H53.9646V25ZM61.0455 23.8584C61.0155 24.0685 61 24.2827 61 24.5H63C63 24.3778 63.0087 24.2582 63.0254 24.1416L61.0455 23.8584ZM61 24.5C61 26.9853 63.0147 29 65.5 29V27C64.1193 27 63 25.8807 63 24.5H61ZM65.5 29C67.9853 29 70 26.9853 70 24.5H68C68 25.8807 66.8807 27 65.5 27V29ZM70 24.5C70 24.2827 69.9845 24.0685 69.9545 23.8584L67.9746 24.1416C67.9913 24.2582 68 24.3778 68 24.5H70ZM68.9646 25H77.0354V23H68.9646V25ZM76.0455 23.8584C76.0155 24.0685 76 24.2827 76 24.5H78C78 24.3778 78.0087 24.2582 78.0254 24.1416L76.0455 23.8584ZM76 24.5C76 26.9853 78.0147 29 80.5 29V27C79.1193 27 78 25.8807 78 24.5H76ZM80.5 29C82.9853 29 85 26.9853 85 24.5H83C83 25.8807 81.8807 27 80.5 27V29ZM85 24.5C85 24.2827 84.9845 24.0685 84.9545 23.8584L82.9746 24.1416C82.9913 24.2582 83 24.3778 83 24.5H85ZM83.9646 25H92.0354V23H83.9646V25ZM91.0455 23.8584C91.0155 24.0685 91 24.2827 91 24.5H93C93 24.3778 93.0087 24.2581 93.0254 24.1416L91.0455 23.8584ZM91 24.5C91 26.9853 93.0147 29 95.5 29V27C94.1193 27 93 25.8807 93 24.5H91ZM95.5 29C97.9853 29 100 26.9853 100 24.5H98C98 25.8807 96.8807 27 95.5 27V29ZM100 24.5C100 24.2827 99.9845 24.0685 99.9545 23.8584L97.9746 24.1416C97.9913 24.2581 98 24.3778 98 24.5H100ZM98.9646 25H107.035V23H98.9646V25ZM106.046 23.8584C106.015 24.0685 106 24.2827 106 24.5H108C108 24.3778 108.009 24.2581 108.025 24.1416L106.046 23.8584ZM106 24.5C106 26.9853 108.015 29 110.5 29V27C109.119 27 108 25.8807 108 24.5H106ZM110.5 29C112.985 29 115 26.9853 115 24.5H113C113 25.8807 111.881 27 110.5 27V29ZM115 24.5C115 24.2827 114.985 24.0685 114.954 23.8584L112.975 24.1416C112.991 24.2581 113 24.3778 113 24.5H115ZM113.965 25H122.035V23H113.965V25ZM121.046 23.8584C121.015 24.0685 121 24.2827 121 24.5H123C123 24.3778 123.009 24.2581 123.025 24.1416L121.046 23.8584ZM121 24.5C121 26.9853 123.015 29 125.5 29V27C124.119 27 123 25.8807 123 24.5H121ZM125.5 29C127.985 29 130 26.9853 130 24.5H128C128 25.8807 126.881 27 125.5 27V29ZM130 24.5C130 24.2827 129.985 24.0685 129.954 23.8584L127.975 24.1416C127.991 24.2581 128 24.3778 128 24.5H130ZM128.965 25H137.035V23H128.965V25ZM136.046 23.8584C136.015 24.0685 136 24.2827 136 24.5H138C138 24.3778 138.009 24.2581 138.025 24.1416L136.046 23.8584ZM136 24.5C136 26.9853 138.015 29 140.5 29V27C139.119 27 138 25.8807 138 24.5H136ZM140.5 29C142.985 29 145 26.9853 145 24.5H143C143 25.8807 141.881 27 140.5 27V29ZM145 24.5C145 24.2827 144.985 24.0685 144.954 23.8584L142.975 24.1416C142.991 24.2581 143 24.3778 143 24.5H145ZM143.965 25H152.035V23H143.965V25ZM151.046 23.8584C151.015 24.0685 151 24.2827 151 24.5H153C153 24.3778 153.009 24.2581 153.025 24.1416L151.046 23.8584ZM151 24.5C151 26.9853 153.015 29 155.5 29V27C154.119 27 153 25.8807 153 24.5H151ZM155.5 29C157.985 29 160 26.9853 160 24.5H158C158 25.8807 156.881 27 155.5 27V29ZM160 24.5C160 24.2827 159.985 24.0685 159.954 23.8584L157.975 24.1416C157.991 24.2581 158 24.3778 158 24.5H160ZM158.965 25H167.035V23H158.965V25ZM168 24.5C168 24.3778 168.009 24.2581 168.025 24.1416L166.046 23.8584C166.015 24.0685 166 24.2827 166 24.5H168ZM170.5 27C169.119 27 168 25.8807 168 24.5H166C166 26.9853 168.015 29 170.5 29V27Z" fill="#5F141E" mask="url(#path-3-inside-1_3299_32110)"/>
<mask id="mask0_3299_32110" style="mask-type:alpha" maskUnits="userSpaceOnUse" x="0" y="39" width="207" height="206">
<ellipse cx="103.5" cy="142" rx="103.5" ry="103" fill="#FF282D"/>
</mask>
<g mask="url(#mask0_3299_32110)">
<path d="M26.5 24.5H180.5V252.5H26.5V24.5Z" fill="#FFF5E1" stroke="#5F141E"/>
</g>
<rect x="38" y="61" width="131" height="28" fill="#87B95F"/>
<path d="M169 224V49C169 44.5817 165.418 41 161 41H46C41.5817 41 38 44.5817 38 49V224" stroke="#5F141E"/>
<path d="M69.6797 200.2C68.7697 200.9 67.7617 201.432 66.6417 201.796V203.994C67.3417 203.742 68.0277 203.462 68.6857 203.154V210H71.2057V200.2H69.6797ZM77.4033 203.406C76.4233 203.406 75.6533 203.812 75.1213 204.61C75.2893 202.874 76.1573 202.202 77.6273 202.202C78.1733 202.202 78.7613 202.272 79.6013 202.65V200.424C78.8733 200.13 78.1033 200.004 77.4593 200.004C73.7633 200.004 72.7413 202.72 72.7413 205.464C72.7413 208.208 74.0993 210.196 76.7873 210.196C79.2233 210.196 80.4133 208.46 80.4133 206.612C80.4133 204.89 79.3353 203.406 77.4033 203.406ZM76.7173 208.11C75.9053 208.11 75.4433 207.508 75.4433 206.696C75.4433 205.814 75.9613 205.296 76.7173 205.296C77.5433 205.296 77.9913 205.884 77.9913 206.696C77.9913 207.536 77.5433 208.11 76.7173 208.11ZM85.4179 210.196C88.3859 210.196 89.6319 207.62 89.6319 205.1C89.6319 202.566 88.3859 200.004 85.4179 200.004C82.4499 200.004 81.2179 202.566 81.2179 205.1C81.2179 207.62 82.4499 210.196 85.4179 210.196ZM85.4179 207.858C84.4659 207.858 83.8779 206.92 83.8779 205.1C83.8779 203.28 84.4659 202.342 85.4179 202.342C86.3839 202.342 86.9719 203.28 86.9719 205.1C86.9719 206.92 86.3839 207.858 85.4179 207.858ZM101.342 210L98.3321 203.896L101.132 200.2H98.4021L95.8821 203.672V200.2H93.3621V210H95.8821V207.116L96.6661 206.08L98.5561 210H101.342ZM108.094 206.906C107.87 206.052 107.618 205.464 106.89 205.282C107.814 205.002 108.556 204.204 108.556 202.888C108.556 201.376 107.646 200.2 105.21 200.2H101.934V210H104.454V206.136H104.888C105.406 206.136 105.532 206.556 105.7 207.228L106.358 210H108.878L108.094 206.906ZM104.454 204.568V202.006H104.986C105.49 202.006 105.952 202.174 105.952 203.21C105.952 204.19 105.658 204.568 104.986 204.568H104.454ZM110.839 210.196C111.721 210.196 112.197 209.636 112.197 208.95C112.197 208.278 111.735 207.718 110.853 207.718C109.971 207.718 109.509 208.278 109.509 208.95C109.509 209.636 109.971 210.196 110.839 210.196ZM112.97 212.8H114.44L118.08 200.2H116.61L112.97 212.8ZM129.851 200.2H125.511L124.349 208.964L123.173 200.2H118.833V210H121.199V201.096L122.445 210H126.225L127.485 201.096V210H129.851V200.2ZM134.471 200.2H131.083V210H134.471C138.405 210 139.427 207.284 139.427 205.1C139.427 202.916 138.405 200.2 134.471 200.2ZM133.603 207.9V202.286H134.261C136.137 202.286 136.781 203.448 136.781 205.1C136.781 206.738 136.137 207.9 134.261 207.9H133.603Z" fill="#FF282D"/>
<path d="M81.3337 69.8C80.2937 70.6 79.1417 71.208 77.8617 71.624V74.136C78.6617 73.848 79.4457 73.528 80.1977 73.176V81H83.0777V69.8H81.3337ZM84.4647 84.2H86.1447L90.3047 69.8H88.6247L84.4647 84.2ZM94.3649 69.8C93.3249 70.6 92.1729 71.208 90.8929 71.624V74.136C91.6929 73.848 92.4769 73.528 93.2289 73.176V81H96.1089V69.8H94.3649ZM97.8639 76.888H102.984V75.208H97.8639V76.888ZM107.076 69.8H104.196V81H109.236L109.476 78.616H107.076V69.8ZM115.205 81.224C119.045 81.224 120.613 78.28 120.613 75.4C120.613 72.52 119.045 69.576 115.205 69.576C111.365 69.576 109.813 72.504 109.813 75.4C109.813 78.28 111.365 81.224 115.205 81.224ZM115.205 78.552C113.605 78.552 112.853 77.208 112.853 75.4C112.853 73.592 113.605 72.248 115.205 72.248C116.821 72.248 117.573 73.576 117.573 75.4C117.573 77.224 116.821 78.552 115.205 78.552ZM125.553 69.8H121.681V81H125.553C130.049 81 131.217 77.896 131.217 75.4C131.217 72.904 130.049 69.8 125.553 69.8ZM124.561 78.6V72.184H125.313C127.457 72.184 128.193 73.512 128.193 75.4C128.193 77.272 127.457 78.6 125.313 78.6H124.561Z" fill="white"/>
<path d="M71.7524 112.2V114.286H70.2544V122H67.7344V114.286H66.2644L66.4744 112.2H71.7524ZM77.0092 122.196C73.6492 122.196 72.2912 119.62 72.2912 117.1C72.2912 114.566 73.6492 112.004 77.0092 112.004C80.3692 112.004 81.7412 114.58 81.7412 117.1C81.7412 119.62 80.3692 122.196 77.0092 122.196ZM77.0092 119.858C78.4232 119.858 79.0812 118.696 79.0812 117.1C79.0812 115.504 78.4232 114.342 77.0092 114.342C75.6092 114.342 74.9512 115.518 74.9512 117.1C74.9512 118.682 75.6092 119.858 77.0092 119.858ZM86.0631 112.2C88.6951 112.2 89.7031 113.642 89.7031 115.602C89.7031 117.45 88.8071 119.144 86.2731 119.144H85.4751V122H82.9551V112.2H86.0631ZM85.4751 117.38H85.9651C86.6511 117.38 87.0851 116.946 87.0851 115.812C87.0851 114.342 86.6231 114.006 85.9651 114.006H85.4751V117.38ZM96.2973 119.928V116.624H98.6633V121.314C97.5013 122.014 96.3393 122.196 95.2753 122.196C91.9713 122.196 90.5153 119.718 90.5153 117.1C90.5153 114.552 91.9853 112.004 95.3733 112.004C96.0873 112.004 96.9553 112.102 97.8093 112.508L97.5013 114.846C96.7173 114.454 96.1713 114.356 95.6813 114.356C94.0013 114.356 93.1893 115.518 93.1893 117.184C93.1893 118.78 94.0573 120.012 95.5833 120.012C95.8213 120.012 96.0593 119.998 96.2973 119.928ZM102.564 117.982V119.914H105.084L104.874 122H100.044V112.2H104.888L104.678 114.286H102.564V115.98H104.314V117.982H102.564ZM109.508 120.964L110.796 112.2H113.288L111.664 122H107.324L105.7 112.2H108.206L109.508 120.964ZM116.878 122H114.358V112.2H116.878V122ZM123.634 121.174L123.536 112.2H125.776V122H121.982L120.54 113.278L120.624 122H118.384V112.2H122.318L123.634 121.174ZM132.849 112.648L132.625 114.776C131.967 114.384 131.141 114.216 130.497 114.216C129.713 114.216 129.405 114.552 129.405 114.972C129.405 115.462 129.853 115.588 130.749 115.994C131.911 116.498 133.437 117.212 133.437 119.06C133.437 121.468 131.365 122.126 129.867 122.126C128.999 122.126 128.005 122 127.151 121.496V119.326C127.837 119.69 128.691 119.998 129.587 119.998C130.427 119.998 130.903 119.718 130.903 119.102C130.903 118.472 130.357 118.304 129.447 117.94C128.229 117.436 127.025 116.806 127.025 114.916C127.025 113.39 128.005 112.06 130.413 112.06C131.211 112.06 132.093 112.256 132.849 112.648ZM139.651 112.2V114.286H138.153V122H135.633V114.286H134.163L134.373 112.2H139.651Z" fill="#5F141E"/>
<path d="M73.2362 140.472C75.9522 141.256 77.2402 143.132 77.2402 145.4C77.2402 148.816 74.4402 151.392 69.6242 151.392C67.5242 151.392 65.8162 151.056 64.4162 150.496V146.072C65.6202 146.604 67.2442 146.968 68.6162 146.968C70.6322 146.968 71.8362 146.324 71.8362 144.728C71.8362 142.852 70.0442 142.348 67.7482 142.348H66.6562V139.072H67.6082C70.3802 139.072 71.3602 138.316 71.3602 137C71.3602 135.824 70.3522 135.264 68.8122 135.264C67.4122 135.264 66.0962 135.628 64.8082 136.272V132.044C66.0682 131.456 67.7482 131.008 69.8202 131.008C74.4402 131.008 76.6522 133.136 76.6522 136.02C76.6522 138.148 75.4202 139.632 73.2362 140.472ZM106.772 131.4V151H102.04V133.192L99.5199 151H91.9599L89.4679 133.192V151H84.7359V131.4H93.4159L95.7679 148.928L98.0919 131.4H106.772ZM114.276 151H109.236V131.4H114.276V151ZM125.576 151.392C118.856 151.392 116.14 146.24 116.14 141.2C116.14 136.132 118.856 131.008 125.576 131.008C132.296 131.008 135.04 136.16 135.04 141.2C135.04 146.24 132.296 151.392 125.576 151.392ZM125.576 146.716C128.404 146.716 129.72 144.392 129.72 141.2C129.72 138.008 128.404 135.684 125.576 135.684C122.776 135.684 121.46 138.036 121.46 141.2C121.46 144.364 122.776 146.716 125.576 146.716ZM138.694 151.392C136.958 151.392 136.034 150.272 136.034 148.9C136.034 147.556 136.958 146.436 138.722 146.436C140.486 146.436 141.41 147.556 141.41 148.9C141.41 150.272 140.458 151.392 138.694 151.392Z" fill="#5F141E"/>
<path d="M72.4713 178L66.4513 165.792L72.0513 158.4H66.5913L61.5513 165.344V158.4H56.5113V178H61.5513V172.232L63.1193 170.16L66.8993 178H72.4713ZM85.9758 171.812C85.5278 170.104 85.0238 168.928 83.5678 168.564C85.4158 168.004 86.8998 166.408 86.8998 163.776C86.8998 160.752 85.0798 158.4 80.2078 158.4H73.6558V178H78.6958V170.272H79.5638C80.5998 170.272 80.8518 171.112 81.1878 172.456L82.5038 178H87.5438L85.9758 171.812ZM78.6958 167.136V162.012H79.7598C80.7678 162.012 81.6918 162.348 81.6918 164.42C81.6918 166.38 81.1038 167.136 79.7598 167.136H78.6958ZM97.5976 178.392C104.318 178.392 107.062 173.24 107.062 168.2C107.062 163.16 104.318 158.008 97.5976 158.008C90.8776 158.008 88.1616 163.132 88.1616 168.2C88.1616 173.24 90.8776 178.392 97.5976 178.392ZM97.5976 173.716C94.7976 173.716 93.4816 171.364 93.4816 168.2C93.4816 165.036 94.7976 162.684 97.5976 162.684C100.426 162.684 101.742 165.008 101.742 168.2C101.742 171.392 100.426 173.716 97.5976 173.716ZM119.429 176.348L116.797 158.4H108.929V178H113.409L113.241 160.556L116.125 178H123.713V158.4H119.233L119.429 176.348ZM131.223 169.964H134.723V165.96H131.223V162.572H135.451L135.871 158.4H126.183V178H135.843L136.263 173.828H131.223V169.964ZM150.179 171.812C149.731 170.104 149.227 168.928 147.771 168.564C149.619 168.004 151.103 166.408 151.103 163.776C151.103 160.752 149.283 158.4 144.411 158.4H137.859V178H142.899V170.272H143.767C144.803 170.272 145.055 171.112 145.391 172.456L146.707 178H151.747L150.179 171.812ZM142.899 167.136V162.012H143.963C144.971 162.012 145.895 162.348 145.895 164.42C145.895 166.38 145.307 167.136 143.963 167.136H142.899Z" fill="#5F141E"/>
</g>
<defs>
<clipPath id="clip0_3299_32110">
<path d="M0 0H207V117.5C207 174.661 160.661 221 103.5 221C46.3385 221 0 174.661 0 117.5V0Z" fill="white"/>
</clipPath>
</defs>
</svg>
