<svg width="16" height="16" viewBox="0 0 16 16" fill="none" xmlns="http://www.w3.org/2000/svg">
<path d="M9.41 8L13.71 3.71C13.8983 3.5217 14.0041 3.2663 14.0041 3C14.0041 2.7337 13.8983 2.47831 13.71 2.29C13.5217 2.1017 13.2663 1.99591 13 1.99591C12.7337 1.99591 12.4783 2.1017 12.29 2.29L8 6.59L3.71 2.29C3.5217 2.1017 3.2663 1.99591 3 1.99591C2.7337 1.99591 2.4783 2.1017 2.29 2.29C2.1017 2.47831 1.99591 2.7337 1.99591 3C1.99591 3.2663 2.1017 3.5217 2.29 3.71L6.59 8L2.29 12.29C2.19627 12.383 2.12188 12.4936 2.07111 12.6154C2.02034 12.7373 1.9942 12.868 1.9942 13C1.9942 13.132 2.02034 13.2627 2.07111 13.3846C2.12188 13.5064 2.19627 13.617 2.29 13.71C2.38296 13.8037 2.49356 13.8781 2.61542 13.9289C2.73728 13.9797 2.86799 14.0058 3 14.0058C3.13201 14.0058 3.26272 13.9797 3.38458 13.9289C3.50644 13.8781 3.61704 13.8037 3.71 13.71L8 9.41L12.29 13.71C12.383 13.8037 12.4936 13.8781 12.6154 13.9289C12.7373 13.9797 12.868 14.0058 13 14.0058C13.132 14.0058 13.2627 13.9797 13.3846 13.9289C13.5064 13.8781 13.617 13.8037 13.71 13.71C13.8037 13.617 13.8781 13.5064 13.9289 13.3846C13.9797 13.2627 14.0058 13.132 14.0058 13C14.0058 12.868 13.9797 12.7373 13.9289 12.6154C13.8781 12.4936 13.8037 12.383 13.71 12.29L9.41 8Z" fill="#373341"/>
</svg>
