<svg width="16" height="16" viewBox="0 0 16 16" fill="none" xmlns="http://www.w3.org/2000/svg">
<g clip-path="url(#clip0_11_166)">
<path fill-rule="evenodd" clip-rule="evenodd" d="M1.6 6.4C1.6 3.74903 3.74903 1.6 6.4 1.6C9.05097 1.6 11.2 3.74903 11.2 6.4C11.2 9.05097 9.05097 11.2 6.4 11.2C3.74903 11.2 1.6 9.05097 1.6 6.4ZM6.4 0C2.86538 0 0 2.86538 0 6.4C0 9.93462 2.86538 12.8 6.4 12.8C7.75573 12.8 9.013 12.3785 10.0479 11.6593L13.8343 15.4457C14.1467 15.7581 14.6533 15.7581 14.9657 15.4457C15.2781 15.1333 15.2781 14.6268 14.9657 14.3143L11.2395 10.5882C12.2117 9.46569 12.8 8.00154 12.8 6.4C12.8 2.86538 9.93462 0 6.4 0Z" fill="#373341"/>
</g>
<defs>
<clipPath id="clip0_11_166">
<rect width="16" height="16" fill="white"/>
</clipPath>
</defs>
</svg>
