<svg width="19" height="20" viewBox="0 0 19 20" fill="none" xmlns="http://www.w3.org/2000/svg">
<path d="M18.2614 11.2917L16.5071 1.26885C16.3721 0.557765 15.7986 0.320738 15.3263 0.422321L4.86808 2.25081C4.56445 2.31854 4.36203 2.42012 4.09214 2.65715C4.09214 2.65715 1.42698 5.16286 1.05588 5.56919C0.651048 5.97552 0.414894 6.48344 0.549839 7.26224L2.57401 18.7411C2.70896 19.4522 3.34995 19.6554 3.78852 19.5876C4.22709 19.5199 14.5166 17.6914 15.0564 17.5898C15.5962 17.4883 16.136 17.1158 16.5408 16.3708L18.1264 12.917C18.3963 12.3075 18.3963 12.1721 18.2614 11.2917ZM12.6611 2.58942C12.3575 2.82645 11.5478 3.1312 10.8057 3.23278C10.0635 3.33436 9.72609 3.23278 9.99598 2.99575C10.2996 2.75873 11.1093 2.48784 11.8515 2.38626C12.5937 2.25081 12.9648 2.3524 12.6611 2.58942ZM10.9743 2.14923L8.64653 2.86031H6.95972L9.28752 2.14923H10.9743ZM4.73313 2.72487L7.02719 2.31854L6.31873 3.06348L3.99093 3.43595L4.73313 2.72487ZM3.78852 18.4025L3.34995 15.8629L5.88016 15.4227L6.31873 17.9623L3.78852 18.4025ZM5.81269 14.6778L4.15962 12.7139L5.03676 10.2759L6.68983 12.2398L5.81269 14.6778ZM8.20796 10.5806C7.39829 10.7161 6.6561 10.1743 6.52115 9.39548C6.38621 8.58282 6.92599 7.83787 7.70192 7.70243C8.51159 7.56699 9.25379 8.10876 9.38873 8.88756C9.52368 9.66637 8.9839 10.4452 8.20796 10.5806ZM11.4804 8.81984L9.48994 6.44957L12.5262 5.9078L11.4804 8.81984ZM12.5599 3.91L10.2996 3.94386L13.2347 3.06348L12.5599 3.91ZM16.2035 2.42012L16.3384 5.06127L15.6299 3.26664L16.2035 2.42012ZM15.3938 4.72266C15.5287 4.48564 15.7649 4.89197 15.8998 5.63691C16.0348 6.34799 16.001 7.12679 15.8661 7.36382C15.7311 7.60085 15.495 7.19452 15.36 6.44957C15.2251 5.73849 15.2588 4.95969 15.3938 4.72266ZM15.3938 7.70243L16.001 9.42934L16.136 11.9351L15.5287 10.242L15.3938 7.70243ZM16.136 15.7275L15.6974 13.2895L16.1697 12.3752L16.5745 14.7794L16.136 15.7275Z" fill="#FEB700"/>
</svg>
