<svg width="145" height="20" viewBox="0 0 145 20" fill="none" xmlns="http://www.w3.org/2000/svg">
<path d="M22.3897 1.39485C22.2534 0.7133 21.6741 0.474757 21.2311 0.57699L10.9738 2.34902C10.6671 2.41717 10.4626 2.51941 10.19 2.72387C10.19 2.72387 7.60009 5.17745 7.19116 5.58638C6.8163 5.96123 6.57776 6.50647 6.67999 7.25617L8.65649 18.4677C8.7928 19.1492 9.4062 19.3537 9.8492 19.2855C10.2922 19.2174 20.3792 17.4453 20.9244 17.3431C21.4696 17.2409 21.9808 16.866 22.3897 16.1504L23.9573 12.7767C24.2299 12.1293 24.264 11.9929 24.1277 11.141L22.3897 1.39485Z" fill="#A78952"/>
<path d="M24.2614 11.2917L22.5071 1.26885C22.3721 0.557765 21.7986 0.320738 21.3263 0.422321L10.8681 2.25081C10.5645 2.31854 10.362 2.42012 10.0921 2.65715C10.0921 2.65715 7.42698 5.16286 7.05588 5.56919C6.65105 5.97552 6.41489 6.48344 6.54984 7.26224L8.57401 18.7411C8.70896 19.4522 9.34995 19.6554 9.78852 19.5876C10.2271 19.5199 20.5166 17.6914 21.0564 17.5898C21.5962 17.4883 22.136 17.1158 22.5408 16.3708L24.1264 12.917C24.3963 12.3075 24.3963 12.1721 24.2614 11.2917ZM18.6611 2.58942C18.3575 2.82645 17.5478 3.1312 16.8057 3.23278C16.0635 3.33436 15.7261 3.23278 15.996 2.99575C16.2996 2.75873 17.1093 2.48784 17.8515 2.38626C18.5937 2.25081 18.9648 2.3524 18.6611 2.58942ZM16.9743 2.14923L14.6465 2.86031H12.9597L15.2875 2.14923H16.9743ZM10.7331 2.72487L13.0272 2.31854L12.3187 3.06348L9.99093 3.43595L10.7331 2.72487ZM9.78852 18.4025L9.34995 15.8629L11.8802 15.4227L12.3187 17.9623L9.78852 18.4025ZM11.8127 14.6778L10.1596 12.7139L11.0368 10.2759L12.6898 12.2398L11.8127 14.6778ZM14.208 10.5806C13.3983 10.7161 12.6561 10.1743 12.5212 9.39548C12.3862 8.58282 12.926 7.83787 13.7019 7.70243C14.5116 7.56699 15.2538 8.10876 15.3887 8.88756C15.5237 9.66637 14.9839 10.4452 14.208 10.5806ZM17.4804 8.81984L15.4899 6.44957L18.5262 5.9078L17.4804 8.81984ZM18.5599 3.91L16.2996 3.94386L19.2347 3.06348L18.5599 3.91ZM22.2035 2.42012L22.3384 5.06127L21.6299 3.26664L22.2035 2.42012ZM21.3938 4.72266C21.5287 4.48564 21.7649 4.89197 21.8998 5.63691C22.0348 6.34799 22.001 7.12679 21.8661 7.36382C21.7311 7.60085 21.495 7.19452 21.36 6.44957C21.2251 5.73849 21.2588 4.95969 21.3938 4.72266ZM21.3938 7.70243L22.001 9.42934L22.136 11.9351L21.5287 10.242L21.3938 7.70243ZM22.136 15.7275L21.6974 13.2895L22.1697 12.3752L22.5745 14.7794L22.136 15.7275Z" fill="#FEB700"/>
<path d="M132.966 14.1172C131.958 14.1172 131.169 13.8242 130.599 13.2383C130.032 12.6484 129.749 11.8379 129.749 10.8066C129.749 9.74805 130.013 8.91602 130.54 8.31055C131.067 7.70508 131.792 7.40234 132.714 7.40234C133.569 7.40234 134.245 7.66211 134.741 8.18164C135.237 8.70117 135.485 9.41602 135.485 10.3262V11.0703H131.167C131.187 11.6992 131.356 12.1836 131.677 12.5234C131.997 12.8594 132.448 13.0273 133.03 13.0273C133.413 13.0273 133.769 12.9922 134.097 12.9219C134.429 12.8477 134.784 12.7266 135.163 12.5586V13.6777C134.827 13.8379 134.487 13.9512 134.144 14.0176C133.8 14.084 133.407 14.1172 132.966 14.1172ZM132.714 8.44531C132.276 8.44531 131.925 8.58398 131.659 8.86133C131.397 9.13867 131.241 9.54297 131.19 10.0742H134.132C134.124 9.53906 133.995 9.13477 133.745 8.86133C133.495 8.58398 133.151 8.44531 132.714 8.44531Z" fill="#282828"/>
<path d="M125.079 10.5781L125.858 9.60547L127.815 7.51953H129.403L126.795 10.3027L129.567 14H127.95L125.87 11.1582L125.114 11.7793V14H123.749V4.88281H125.114V9.33008L125.043 10.5781H125.079Z" fill="#282828"/>
<path d="M122.312 14H120.93V10.0156C120.93 9.51562 120.828 9.14258 120.625 8.89648C120.426 8.65039 120.107 8.52734 119.67 8.52734C119.088 8.52734 118.662 8.69922 118.393 9.04297C118.123 9.38672 117.988 9.96289 117.988 10.7715V14H116.611V7.51953H117.689L117.883 8.36914H117.953C118.148 8.06055 118.426 7.82227 118.785 7.6543C119.145 7.48633 119.543 7.40234 119.98 7.40234C121.535 7.40234 122.312 8.19336 122.312 9.77539V14Z" fill="#282828"/>
<path d="M114.186 14L113.91 13.0977H113.863C113.551 13.4922 113.236 13.7617 112.92 13.9062C112.604 14.0469 112.197 14.1172 111.701 14.1172C111.064 14.1172 110.566 13.9453 110.207 13.6016C109.852 13.2578 109.674 12.7715 109.674 12.1426C109.674 11.4746 109.922 10.9707 110.418 10.6309C110.914 10.291 111.67 10.1055 112.686 10.0742L113.805 10.0391V9.69336C113.805 9.2793 113.707 8.9707 113.512 8.76758C113.32 8.56055 113.021 8.45703 112.615 8.45703C112.283 8.45703 111.965 8.50586 111.66 8.60352C111.355 8.70117 111.062 8.81641 110.781 8.94922L110.336 7.96484C110.688 7.78125 111.072 7.64258 111.49 7.54883C111.908 7.45117 112.303 7.40234 112.674 7.40234C113.498 7.40234 114.119 7.58203 114.537 7.94141C114.959 8.30078 115.17 8.86523 115.17 9.63477V14H114.186ZM112.135 13.0625C112.635 13.0625 113.035 12.9238 113.336 12.6465C113.641 12.3652 113.793 11.9727 113.793 11.4688V10.9062L112.961 10.9414C112.312 10.9648 111.84 11.0742 111.543 11.2695C111.25 11.4609 111.104 11.7559 111.104 12.1543C111.104 12.4434 111.189 12.668 111.361 12.8281C111.533 12.9844 111.791 13.0625 112.135 13.0625Z" fill="#282828"/>
<path d="M108.302 13.0039C108.638 13.0039 108.974 12.9512 109.31 12.8457V13.8828C109.158 13.9492 108.96 14.0039 108.718 14.0469C108.48 14.0938 108.232 14.1172 107.974 14.1172C106.669 14.1172 106.017 13.4297 106.017 12.0547V8.5625H105.132V7.95312L106.082 7.44922L106.55 6.07812H107.4V7.51953H109.246V8.5625H107.4V12.0312C107.4 12.3633 107.482 12.6094 107.646 12.7695C107.814 12.9258 108.033 13.0039 108.302 13.0039Z" fill="#282828"/>
<path d="M100.356 14H98.9736V10.0039C98.9736 9.50781 98.8799 9.13867 98.6924 8.89648C98.5049 8.65039 98.2119 8.52734 97.8135 8.52734C97.2822 8.52734 96.8916 8.70117 96.6416 9.04883C96.3955 9.39258 96.2725 9.9668 96.2725 10.7715V14H94.8955V7.51953H95.9736L96.167 8.36914H96.2373C96.417 8.06055 96.6768 7.82227 97.0166 7.6543C97.3604 7.48633 97.7373 7.40234 98.1475 7.40234C99.1436 7.40234 99.8037 7.74219 100.128 8.42188H100.222C100.413 8.10156 100.683 7.85156 101.03 7.67188C101.378 7.49219 101.776 7.40234 102.226 7.40234C102.999 7.40234 103.562 7.59766 103.913 7.98828C104.269 8.37891 104.446 8.97461 104.446 9.77539V14H103.069V10.0039C103.069 9.50781 102.974 9.13867 102.782 8.89648C102.595 8.65039 102.302 8.52734 101.903 8.52734C101.368 8.52734 100.976 8.69531 100.726 9.03125C100.479 9.36328 100.356 9.875 100.356 10.5664V14Z" fill="#282828"/>
<path d="M93.7876 10.748C93.7876 11.8066 93.5161 12.6328 92.9731 13.2266C92.4302 13.8203 91.6743 14.1172 90.7056 14.1172C90.1001 14.1172 89.5649 13.9805 89.1001 13.707C88.6353 13.4336 88.2778 13.041 88.0278 12.5293C87.7778 12.0176 87.6528 11.4238 87.6528 10.748C87.6528 9.69727 87.9224 8.87695 88.4614 8.28711C89.0005 7.69727 89.7603 7.40234 90.7407 7.40234C91.6782 7.40234 92.4204 7.70508 92.9673 8.31055C93.5142 8.91211 93.7876 9.72461 93.7876 10.748ZM89.0708 10.748C89.0708 12.2441 89.6235 12.9922 90.729 12.9922C91.8228 12.9922 92.3696 12.2441 92.3696 10.748C92.3696 9.26758 91.8188 8.52734 90.7173 8.52734C90.1392 8.52734 89.7192 8.71875 89.4575 9.10156C89.1997 9.48438 89.0708 10.0332 89.0708 10.748Z" fill="#282828"/>
<path d="M80.5913 14.1172C79.7827 14.1172 79.1519 13.8242 78.6987 13.2383C78.2456 12.6523 78.019 11.8301 78.019 10.7715C78.019 9.70898 78.2476 8.88281 78.7046 8.29297C79.1655 7.69922 79.8022 7.40234 80.6147 7.40234C81.4663 7.40234 82.1147 7.7168 82.5601 8.3457H82.6304C82.564 7.88086 82.5308 7.51367 82.5308 7.24414V4.88281H83.9136V14H82.8354L82.5952 13.1504H82.5308C82.0894 13.7949 81.4429 14.1172 80.5913 14.1172ZM80.9604 13.0039C81.5269 13.0039 81.939 12.8457 82.1968 12.5293C82.4546 12.209 82.5874 11.6914 82.5952 10.9766V10.7832C82.5952 9.9668 82.4624 9.38672 82.1968 9.04297C81.9312 8.69922 81.5151 8.52734 80.9487 8.52734C80.4644 8.52734 80.0913 8.72461 79.8296 9.11914C79.5679 9.50977 79.437 10.0684 79.437 10.7949C79.437 11.5137 79.564 12.0625 79.8179 12.4414C80.0718 12.8164 80.4526 13.0039 80.9604 13.0039Z" fill="#282828"/>
<path d="M74.8018 14.1172C73.7939 14.1172 73.0049 13.8242 72.4346 13.2383C71.8682 12.6484 71.585 11.8379 71.585 10.8066C71.585 9.74805 71.8486 8.91602 72.376 8.31055C72.9033 7.70508 73.6279 7.40234 74.5498 7.40234C75.4053 7.40234 76.0811 7.66211 76.5771 8.18164C77.0732 8.70117 77.3213 9.41602 77.3213 10.3262V11.0703H73.0029C73.0225 11.6992 73.1924 12.1836 73.5127 12.5234C73.833 12.8594 74.2842 13.0273 74.8662 13.0273C75.249 13.0273 75.6045 12.9922 75.9326 12.9219C76.2646 12.8477 76.6201 12.7266 76.999 12.5586V13.6777C76.6631 13.8379 76.3232 13.9512 75.9795 14.0176C75.6357 14.084 75.2432 14.1172 74.8018 14.1172ZM74.5498 8.44531C74.1123 8.44531 73.7607 8.58398 73.4951 8.86133C73.2334 9.13867 73.0771 9.54297 73.0264 10.0742H75.9678C75.96 9.53906 75.8311 9.13477 75.5811 8.86133C75.3311 8.58398 74.9873 8.44531 74.5498 8.44531Z" fill="#282828"/>
<path d="M66.4399 14H65.0571V10.0039C65.0571 9.50781 64.9634 9.13867 64.7759 8.89648C64.5884 8.65039 64.2954 8.52734 63.897 8.52734C63.3657 8.52734 62.9751 8.70117 62.7251 9.04883C62.479 9.39258 62.356 9.9668 62.356 10.7715V14H60.979V7.51953H62.0571L62.2505 8.36914H62.3208C62.5005 8.06055 62.7603 7.82227 63.1001 7.6543C63.4438 7.48633 63.8208 7.40234 64.231 7.40234C65.2271 7.40234 65.8872 7.74219 66.2114 8.42188H66.3052C66.4966 8.10156 66.7661 7.85156 67.1138 7.67188C67.4614 7.49219 67.8599 7.40234 68.3091 7.40234C69.0825 7.40234 69.645 7.59766 69.9966 7.98828C70.3521 8.37891 70.5298 8.97461 70.5298 9.77539V14H69.1528V10.0039C69.1528 9.50781 69.0571 9.13867 68.8657 8.89648C68.6782 8.65039 68.3853 8.52734 67.9868 8.52734C67.4517 8.52734 67.0591 8.69531 66.8091 9.03125C66.563 9.36328 66.4399 9.875 66.4399 10.5664V14Z" fill="#282828"/>
<path d="M56.8472 14H55.4702V4.88281H56.8472V14Z" fill="#282828"/>
<path d="M53.9756 14H52.5986V7.51953H53.9756V14ZM52.5166 5.80273C52.5166 5.55664 52.583 5.36719 52.7158 5.23438C52.8525 5.10156 53.0459 5.03516 53.2959 5.03516C53.5381 5.03516 53.7256 5.10156 53.8584 5.23438C53.9951 5.36719 54.0635 5.55664 54.0635 5.80273C54.0635 6.03711 53.9951 6.22266 53.8584 6.35938C53.7256 6.49219 53.5381 6.55859 53.2959 6.55859C53.0459 6.55859 52.8525 6.49219 52.7158 6.35938C52.583 6.22266 52.5166 6.03711 52.5166 5.80273Z" fill="#282828"/>
<path d="M48.8892 14.1172C48.0688 14.1172 47.4321 13.8223 46.979 13.2324H46.897C46.9517 13.7793 46.979 14.1113 46.979 14.2285V16.8828H45.6021V7.51953H46.7153C46.7466 7.64062 46.811 7.92969 46.9087 8.38672H46.979C47.4087 7.73047 48.0532 7.40234 48.9126 7.40234C49.7212 7.40234 50.3501 7.69531 50.7993 8.28125C51.2524 8.86719 51.479 9.68945 51.479 10.748C51.479 11.8066 51.2485 12.6328 50.7876 13.2266C50.3306 13.8203 49.6978 14.1172 48.8892 14.1172ZM48.5552 8.52734C48.0083 8.52734 47.6079 8.6875 47.354 9.00781C47.104 9.32812 46.979 9.83984 46.979 10.543V10.748C46.979 11.5371 47.104 12.1094 47.354 12.4648C47.604 12.8164 48.0122 12.9922 48.5786 12.9922C49.0552 12.9922 49.4224 12.7969 49.6802 12.4062C49.938 12.0156 50.0669 11.459 50.0669 10.7363C50.0669 10.0098 49.938 9.46094 49.6802 9.08984C49.4263 8.71484 49.0513 8.52734 48.5552 8.52734Z" fill="#282828"/>
<path d="M44.5703 11.6738C44.5703 12.4355 44.2949 13.0332 43.7441 13.4668C43.1934 13.9004 42.4336 14.1172 41.4648 14.1172C40.4961 14.1172 39.7031 13.9668 39.0859 13.666V12.3418C39.4766 12.5254 39.8906 12.6699 40.3281 12.7754C40.7695 12.8809 41.1797 12.9336 41.5586 12.9336C42.1133 12.9336 42.5215 12.8281 42.7832 12.6172C43.0488 12.4062 43.1816 12.123 43.1816 11.7676C43.1816 11.4473 43.0605 11.1758 42.8184 10.9531C42.5762 10.7305 42.0762 10.4668 41.3184 10.1621C40.5371 9.8457 39.9863 9.48438 39.666 9.07812C39.3457 8.67188 39.1855 8.18359 39.1855 7.61328C39.1855 6.89844 39.4395 6.33594 39.9473 5.92578C40.4551 5.51562 41.1367 5.31055 41.9922 5.31055C42.8125 5.31055 43.6289 5.49023 44.4414 5.84961L43.9961 6.99219C43.2344 6.67188 42.5547 6.51172 41.957 6.51172C41.5039 6.51172 41.1602 6.61133 40.9258 6.81055C40.6914 7.00586 40.5742 7.26562 40.5742 7.58984C40.5742 7.8125 40.6211 8.00391 40.7148 8.16406C40.8086 8.32031 40.9629 8.46875 41.1777 8.60938C41.3926 8.75 41.7793 8.93555 42.3379 9.16602C42.9668 9.42773 43.4277 9.67188 43.7207 9.89844C44.0137 10.125 44.2285 10.3809 44.3652 10.666C44.502 10.9512 44.5703 11.2871 44.5703 11.6738Z" fill="#282828"/>
</svg>
